<svg viewBox="0 0 46 27" fill="none" xmlns="http://www.w3.org/2000/svg">
<path d="M13.3899 9.72085C13.3789 10.1598 13.4332 10.5979 13.5509 11.0209C13.6811 11.3836 13.8379 11.7362 14.0199 12.0759C14.0842 12.1766 14.1189 12.2934 14.1199 12.4129C14.1111 12.5028 14.0813 12.5894 14.033 12.6658C13.9848 12.7422 13.9193 12.8062 13.8419 12.8529L12.9189 13.4679C12.8076 13.5483 12.6751 13.5942 12.5379 13.5998C12.3709 13.5885 12.214 13.5155 12.0979 13.3949C11.9006 13.1826 11.7242 12.9518 11.5709 12.7059C11.4239 12.4569 11.2779 12.1789 11.1169 11.8419C10.6005 12.4847 9.94399 13.0011 9.19754 13.3516C8.45109 13.702 7.63443 13.8772 6.80992 13.8638C6.27589 13.892 5.7416 13.8132 5.23844 13.6321C4.73529 13.4509 4.2734 13.171 3.87992 12.8088C3.14123 12.0019 2.75262 10.9349 2.7993 9.84189C2.84597 8.74886 3.32412 7.71893 4.12892 6.97786C5.14623 6.17267 6.42234 5.76626 7.71792 5.83485C8.23762 5.83902 8.75646 5.87811 9.27092 5.95185C9.81292 6.02485 10.3709 6.14185 10.9559 6.27385V5.20385C11.0403 4.36261 10.7931 3.52164 10.2669 2.85985C9.58552 2.33984 8.73166 2.09884 7.87892 2.18586C7.34589 2.18571 6.81476 2.24949 6.29692 2.37585C5.7584 2.50479 5.22973 2.67187 4.71492 2.87585C4.54821 2.95021 4.37685 3.01368 4.20192 3.06585C4.12589 3.0909 4.04686 3.1057 3.96692 3.10985C3.76692 3.10985 3.65892 2.96385 3.65892 2.65585V1.93785C3.64236 1.7608 3.67707 1.58272 3.75892 1.42485C3.86941 1.29132 4.0099 1.18579 4.16892 1.11686C4.75655 0.826197 5.37607 0.605033 6.01493 0.457851C6.76164 0.266399 7.53009 0.172947 8.30092 0.179851C9.68584 0.0622454 11.0622 0.487926 12.1389 1.36686C12.5736 1.8541 12.9054 2.42413 13.1143 3.04275C13.3233 3.66137 13.4051 4.31583 13.3549 4.96685V9.71385L13.3899 9.72085ZM7.44192 11.9478C7.95589 11.9421 8.46553 11.8529 8.95092 11.6838C9.48874 11.4978 9.96859 11.1745 10.3429 10.7459C10.5798 10.476 10.7509 10.1549 10.8429 9.80785C10.9438 9.39044 10.9932 8.96225 10.9899 8.53285V7.91785C10.5456 7.80973 10.0956 7.7266 9.64192 7.66885C9.18521 7.61084 8.72531 7.58145 8.26493 7.58085C7.49155 7.51964 6.72067 7.72657 6.08192 8.16685C5.71621 8.43361 5.44685 8.81173 5.31421 9.24452C5.18157 9.67732 5.19282 10.1414 5.34626 10.5673C5.49971 10.9932 5.78708 11.3578 6.16528 11.6065C6.54348 11.8552 6.99211 11.9747 7.44392 11.9468L7.44192 11.9478ZM19.2019 13.5298C19.0047 13.5503 18.8068 13.4984 18.6449 13.3839C18.4915 13.2256 18.3849 13.028 18.3369 12.8129L14.9019 1.48685C14.8351 1.29736 14.7908 1.10068 14.7699 0.900852C14.7628 0.852351 14.7668 0.802853 14.7818 0.75616C14.7967 0.709467 14.8221 0.666824 14.8561 0.631488C14.8901 0.596153 14.9317 0.569069 14.9778 0.552318C15.0239 0.535567 15.0732 0.529595 15.1219 0.534854H16.5579C16.76 0.510579 16.9637 0.563036 17.1289 0.68185C17.2766 0.842052 17.3779 1.03944 17.4219 1.25285L19.8829 10.9529L22.1679 1.25285C22.198 1.03795 22.2953 0.838071 22.4459 0.68185C22.6216 0.574088 22.8262 0.522787 23.0319 0.534854H24.2019C24.4085 0.51334 24.616 0.565392 24.7879 0.68185C24.941 0.836358 25.0387 1.03709 25.0659 1.25285L27.3809 11.0689L29.9159 1.25285C29.9625 1.04037 30.0635 0.843624 30.2089 0.68185C30.379 0.573913 30.5789 0.52247 30.7799 0.534854H32.1419C32.1915 0.528279 32.242 0.533213 32.2894 0.549282C32.3368 0.56535 32.3799 0.592122 32.4153 0.627513C32.4507 0.662905 32.4774 0.705966 32.4935 0.753368C32.5096 0.800769 32.5145 0.851234 32.5079 0.900852C32.5046 0.979506 32.4949 1.05776 32.4789 1.13485C32.4568 1.25964 32.4233 1.38215 32.3789 1.50085L28.8479 12.8259C28.8037 13.0423 28.6965 13.241 28.5399 13.3969C28.3743 13.5031 28.1794 13.5546 27.9829 13.5438H26.7219C26.5154 13.5654 26.3079 13.5133 26.1359 13.3969C25.983 13.2362 25.8856 13.0309 25.8579 12.8109L23.5869 3.36085L21.3309 12.7958C21.2967 13.0139 21.2002 13.2174 21.0529 13.3819C20.88 13.496 20.6732 13.5475 20.4669 13.5279L19.2019 13.5298ZM38.0279 13.9299C37.2682 13.9305 36.511 13.8419 35.7719 13.6659C35.1865 13.5469 34.6198 13.3498 34.0869 13.0799C33.8985 12.991 33.7405 12.8483 33.6329 12.6698C33.5759 12.5406 33.5459 12.4011 33.5449 12.2599V11.5129C33.5449 11.2049 33.6619 11.0588 33.8819 11.0588C33.9717 11.0591 34.0609 11.074 34.1459 11.1029C34.2339 11.1319 34.3659 11.1909 34.5119 11.2489C35.0295 11.4766 35.5699 11.6485 36.1239 11.7619C36.6976 11.8783 37.2815 11.9373 37.8669 11.9379C38.6112 11.9818 39.3527 11.8143 40.0059 11.4549C40.2467 11.3106 40.4446 11.1047 40.5792 10.8584C40.7139 10.6121 40.7804 10.3344 40.7719 10.0539C40.7766 9.86486 40.7436 9.67682 40.675 9.50068C40.6063 9.32454 40.5033 9.16381 40.3719 9.02785C39.9433 8.66402 39.437 8.40334 38.8919 8.26585L36.7679 7.60685C35.8476 7.37068 35.0266 6.84735 34.4239 6.11285C33.9522 5.50498 33.6945 4.75828 33.6909 3.98885C33.6805 3.42127 33.8183 2.8608 34.0909 2.36285C34.3527 1.89201 34.7125 1.48281 35.1459 1.16285C35.6027 0.817154 36.1193 0.558817 36.6699 0.400852C37.2698 0.228059 37.8917 0.144166 38.5159 0.151851C38.8442 0.149571 39.1723 0.16928 39.4979 0.210849C39.8349 0.254849 40.1429 0.310852 40.4499 0.371852C40.7569 0.432852 41.0209 0.518853 41.2849 0.605853C41.4986 0.672115 41.7047 0.760599 41.8999 0.869853C42.0726 0.956697 42.2231 1.08189 42.3399 1.23585C42.4351 1.37828 42.4815 1.5478 42.4719 1.71885V2.40785C42.4719 2.71585 42.3549 2.87685 42.1349 2.87685C41.9396 2.85465 41.7505 2.79489 41.5779 2.70085C40.6925 2.30954 39.7328 2.11473 38.7649 2.12985C38.0903 2.08988 37.4173 2.23146 36.8159 2.53985C36.5929 2.67253 36.4107 2.86398 36.2892 3.09326C36.1677 3.32254 36.1115 3.58082 36.1269 3.83985C36.123 4.0344 36.1601 4.22759 36.2359 4.4068C36.3118 4.58601 36.4245 4.74721 36.5669 4.87985C37.0425 5.25745 37.5915 5.53195 38.1789 5.68586L40.2589 6.34485C41.1419 6.57028 41.9345 7.06099 42.5299 7.75085C42.9772 8.34016 43.2144 9.06213 43.2039 9.80185C43.2115 10.3905 43.0811 10.9728 42.8229 11.5018C42.5631 12.0032 42.1985 12.4427 41.7539 12.7909C41.2703 13.1671 40.718 13.4456 40.1279 13.6109C39.4494 13.8221 38.7426 13.9283 38.0319 13.9259L38.0279 13.9299Z"/>
<path d="M40.7989 21.3981C35.9789 24.9581 28.9759 26.8481 22.9549 26.8481C14.9113 26.8883 7.1424 23.9241 1.16989 18.5361C0.715885 18.1261 1.12589 17.5691 1.66989 17.8911C7.45621 21.2285 13.9367 23.1808 20.6036 23.5951C27.2706 24.0094 33.9429 22.8744 40.0979 20.2791C40.9019 19.9181 41.5899 20.8121 40.7989 21.3981ZM42.8059 19.1131C42.1909 18.3221 38.7329 18.7321 37.1659 18.9231C36.6969 18.9821 36.6239 18.5711 37.0489 18.2641C39.8029 16.3301 44.3299 16.8871 44.8579 17.5311C45.3859 18.1751 44.7119 22.7171 42.1329 24.8861C41.7329 25.2231 41.3569 25.0471 41.5329 24.6081C42.1179 23.1561 43.4219 19.8891 42.8099 19.1121L42.8059 19.1131Z" fill="#FF9900"/>
</svg>
