<svg viewBox="0 0 44 33" fill="none" xmlns="http://www.w3.org/2000/svg">
<path id="Azure logo" d="M20.4214 31.0958C25.8434 30.1388 30.3214 29.3448 30.3724 29.3358L30.4664 29.3148L25.3484 23.2278C22.5314 19.8788 20.2304 17.1278 20.2304 17.1098C20.2304 17.0798 25.5164 2.52579 25.5444 2.47379C25.5534 2.45579 29.1524 8.66578 34.2644 17.5278C39.0524 25.8278 42.9964 32.6628 43.0334 32.7278L43.0994 32.8448L26.8354 32.8388H10.5684L20.4214 31.0958ZM0.900391 29.2388C0.900391 29.2298 3.31339 25.0448 6.25939 19.9388L11.6184 10.6498L17.8684 5.40778C21.3004 2.52179 24.1204 0.159785 24.1324 0.154785C24.1099 0.243026 24.0763 0.328045 24.0324 0.407785C23.9664 0.554785 20.9124 7.09879 17.2504 14.9548L10.5884 29.2418L5.74339 29.2478C3.08039 29.2548 0.900391 29.2478 0.900391 29.2388Z" fill="#0089D6"/>
</svg>
