<svg viewBox="0 0 20 15" fill="none" xmlns="http://www.w3.org/2000/svg">
<path fill-rule="evenodd" clip-rule="evenodd" d="M12.7494 7.87162C12.578 8.04279 12.3 8.04279 12.1286 7.87162C11.9571 7.70045 11.9571 7.42293 12.1286 7.25176L17.5121 1.87661H15.0491C14.8067 1.87661 14.6101 1.68038 14.6101 1.43831C14.6101 1.19624 14.8067 1 15.0491 1H18.122C18.6069 1 19 1.39247 19 1.87661V4.94476C19 5.18683 18.8035 5.38306 18.561 5.38306C18.3186 5.38306 18.122 5.18683 18.122 4.94476V2.50733L12.7494 7.87162Z" />
<path fill-rule="evenodd" clip-rule="evenodd" d="M13.2916 3.32726C12.2299 1.91406 10.5393 1 8.63636 1C5.42307 1 2.81818 3.60489 2.81818 6.81818C2.81818 7.08156 2.83562 7.34035 2.86928 7.59357L2.9592 8.26989L2.36226 8.60028C1.54781 9.05106 1 9.9168 1 10.9091C1 12.3651 2.18034 13.5455 3.63636 13.5455H15.4516L15.4535 13.5455H15.4545C17.4126 13.5455 19 11.9581 19 10C19 8.48594 18.051 7.19355 16.7153 6.68525C17.0385 6.5051 17.3176 6.25531 17.5324 5.95618C18.9978 6.71066 20 8.23829 20 10C20 12.5104 17.9649 14.5455 15.4545 14.5455L15.4516 14.5455H3.63636C1.62806 14.5455 0 12.9174 0 10.9091C0 9.53858 0.758188 8.34514 1.878 7.72536C1.83855 7.42857 1.81818 7.12576 1.81818 6.81818C1.81818 3.0526 4.87079 0 8.63636 0C10.7823 0 12.6967 0.991383 13.9465 2.54113C13.6778 2.75454 13.454 3.02208 13.2916 3.32726Z" />
</svg>
