<svg width="22" height="14" viewBox="0 0 22 14" fill="none" xmlns="http://www.w3.org/2000/svg">
<g id="Group 30426">
<path id="Vector" d="M13.3598 6.01504L13.4362 6.47273L13.8757 6.43272H13.9436C15.8667 6.43272 17.4259 7.99315 17.4259 9.92066C17.4259 11.8482 15.8667 13.4086 13.9436 13.4086H3.32043C1.76263 13.4086 0.5 12.1452 0.5 10.5835C0.5 9.4152 1.20647 8.41256 2.21715 7.98247L2.55493 7.83873L2.51896 7.47341C2.50117 7.29269 2.49116 7.10835 2.49116 6.92558C2.49116 3.89519 4.94299 1.44092 7.96738 1.44092C10.6781 1.44092 12.9267 3.4205 13.3598 6.01504Z" stroke="#4FDAE0" fill="transparent"/>
<path id="Vector_2" d="M19.5526 0.0913086L20.4212 1.67007L22 2.53282L20.4212 3.40143L19.5526 4.9802L18.6898 3.40143L17.1111 2.53282L18.6898 1.67007L19.5526 0.0913086Z" fill="#FFAF2B"/>
<path id="Vector_3" d="M16.2933 4.98022L17.1619 6.55899L18.7407 7.42173L17.1619 8.29035L16.2933 9.86911L15.4306 8.29035L13.8518 7.42173L15.4306 6.55899L16.2933 4.98022Z" fill="#FFDFAA"/>
<path id="Vector 22" d="M7.7407 3.3855C6.79009 3.3855 4.80737 3.87439 4.48145 5.82994" stroke="#4FDAE0" stroke-linecap="round"/>
</g>
</svg>
