<svg width="21" height="19" viewBox="0 0 21 19" fill="none" xmlns="http://www.w3.org/2000/svg">
<g id="Group 12241">
<path id="Vector 41" d="M0 17.7982L3.80539 5.98145C5.40766 10.7883 10.348 12.524 12.4176 12.3905L1.40199 18.9999C0.440624 18.9999 0 18.132 0 17.7982Z" fill="#FFAF2B"/>
<path id="Vector 42" d="M0 17.7275L4.80681 8.18457C4.96704 8.52387 5.94175 9.45696 6.40908 9.88109L0.600846 18.7996C0.200284 18.399 0 18.0809 0 17.7275Z" fill="#FFC76B"/>
<ellipse id="Ellipse 5933" cx="8.23982" cy="9.06415" rx="5.46148" ry="1.87997" transform="rotate(38.7559 8.23982 9.06415)" fill="#B37A1E"/>
<path id="Path 9415" opacity="0.997" d="M11.7704 4.62202L10.3228 5.96528L12.017 6.58143L11.7704 4.62202Z" fill="#4FDAE0"/>
<path id="Path 9417" d="M7.17762 1.02022C6.69761 1.83832 6.74565 2.33347 6.89139 2.63921C7.14036 3.16128 7.70898 3.20217 8.13789 3.79128C8.51262 4.30593 8.5407 4.90912 8.49975 5.35474" stroke="#FF6280" stroke-miterlimit="10" stroke-linecap="round"/>
<path id="Path 9418" d="M15.6595 9.88704C16.2686 10.6141 16.7511 10.7353 17.088 10.7008C17.6634 10.6419 17.8931 10.1201 18.5921 9.91415C19.2027 9.73422 19.7803 9.91054 20.1862 10.0989" stroke="#5BC69B" stroke-miterlimit="10" stroke-linecap="round"/>
<path id="Path 9412" d="M12.4175 8.17812C13.496 8.23558 14.0015 7.89944 14.2569 7.52902C14.6663 6.93539 14.4481 6.23231 14.8702 5.79798C15.286 5.36977 15.8123 5.8609 16.5257 5.72578C17.0499 5.62643 17.7309 5.2012 18.426 3.77832" stroke="#FFAF2B" stroke-miterlimit="10" stroke-linecap="round"/>
</g>
</svg>
