<svg width="159" height="108" viewBox="0 0 159 108" fill="none" xmlns="http://www.w3.org/2000/svg">
<g clip-path="url(#clip0_211_18383)">
<path d="M74.1365 26.9891C74.1365 26.8949 72.1405 12.8622 60.0775 14.7525C58.984 14.924 57.8107 15.072 56.5818 15.2099C53.9925 15.3426 51.4142 15.6301 48.8615 16.071C46.2892 16.3758 43.7386 16.8341 41.2245 17.4433C40.0095 17.6586 38.8432 17.8537 37.7532 18.0017C25.645 19.633 28.0056 33.6119 28.0333 33.6994C28.6721 37.7794 29.5434 41.3313 30.4806 45.5324C30.8214 47.0703 31.3203 48.5712 31.9699 50.0127L32.0011 50.0867C33.8826 54.3113 35.0976 63.5745 39.9679 65.8584C47.0252 69.1681 56.6304 67.3047 56.6304 67.3047L56.9533 67.2643C56.9533 67.2643 67.4507 66.3293 72.505 61.1292C76.2159 57.3149 74.8273 48.3679 75.3411 43.7934V43.706C75.5246 42.1424 75.5467 40.5649 75.4071 38.997C75.0287 34.7152 74.7857 31.0725 74.1608 26.9925L74.1365 26.9891Z" fill="#EBBA9F"/>
<path fill-rule="evenodd" clip-rule="evenodd" d="M69.5595 16.2396C69.5617 16.16 69.5628 16.0802 69.5628 16.0002C69.5628 9.08466 61.2055 3.47849 50.8962 3.47849C40.8671 3.47849 32.6853 8.78398 32.2479 15.4392C27.0792 16.7594 23.6152 27.462 23.6152 33.0437C23.6152 37.6351 25.9591 37.4209 29.6676 37.0821C30.7691 36.9814 31.9909 36.8698 33.3075 36.8698C38.5825 36.8698 42.9411 32.8061 43.6246 27.5363C45.8593 28.171 48.3166 28.522 50.8962 28.522C56.5307 28.522 61.5821 26.8473 65.0047 24.1996C68.5431 26.2469 72.6975 29.407 73.2975 35.6736L75.6719 35.8216C76.5039 29.3696 75.0548 19.0637 69.5595 16.2396Z" fill="#01112A"/>
<ellipse cx="35.461" cy="25.7393" rx="6.10256" ry="9.73913" fill="#01112A"/>
</g>
<path d="M0 37C0 34.2386 2.23858 32 5 32H114C116.761 32 119 34.2386 119 37V108H0V37Z" fill="#A2B8F2"/>
<circle cx="60" cy="71" r="5" fill="#4766C4"/>
<mask id="path-6-outside-1_211_18383" maskUnits="userSpaceOnUse" x="9.01476" y="40.7094" width="29.4382" height="26.1971" fill="black">
<rect fill="white" x="9.01476" y="40.7094" width="29.4382" height="26.1971"/>
<path fill-rule="evenodd" clip-rule="evenodd" d="M11.7726 49.6983C11.2307 50.0078 10.9636 50.2598 10.9736 50.4789L10.9585 50.4846L11.4227 52.8078C11.4691 53.0399 11.8482 53.2344 12.5523 53.4216C12.5892 53.4316 12.6304 53.4424 12.6756 53.4541L12.5085 53.5498C11.9613 53.8626 11.6941 54.1153 11.7101 54.335L11.6953 54.3406L12.1579 56.6559C12.203 56.8815 12.5618 57.07 13.2285 57.2551L13.2178 57.2612C12.6792 57.5688 12.4121 57.8199 12.4188 58.0383L12.4011 58.0451L12.8653 60.3681C12.9113 60.5987 13.2904 60.7932 13.9945 60.9803C14.7178 61.1778 17.1039 61.7077 19.4105 62.2199L19.4107 62.22L19.4107 62.22L19.4109 62.22L19.4111 62.2201C21.5681 62.6991 23.6555 63.1627 24.2484 63.3245C25.4753 63.6592 26.2495 63.5587 27.5444 62.6161C28.2116 62.1304 30.169 60.9232 32.0683 59.7519L32.0684 59.7519L32.0686 59.7518L32.0688 59.7516C33.8553 58.6499 35.5903 57.5798 36.1518 57.1718L36.1515 57.1702C36.7428 56.7328 36.985 56.4553 36.9374 56.2169L36.507 54.0631C36.5618 53.7784 36.2025 53.6021 35.4456 53.4624C36.0376 53.0298 36.2785 52.7461 36.2308 52.5077L35.7979 50.3411C35.847 50.0538 35.4774 49.8764 34.7077 49.7441C34.6646 49.7367 34.6154 49.728 34.5606 49.718C34.6169 49.6793 34.6668 49.6441 34.7098 49.6129C35.3023 49.1817 35.5439 48.9011 35.4924 48.6601L35.0618 46.505C35.12 46.2144 34.751 46.0359 33.9724 45.8959C33.3105 45.7768 31.2208 45.3555 29.1156 44.931C26.972 44.4987 24.8122 44.0632 24.1276 43.9404C22.7707 43.697 22.2575 43.7938 20.8668 44.54C19.6496 45.1931 14.4887 48.145 12.4389 49.3174L11.7726 49.6983Z"/>
</mask>
<path fill-rule="evenodd" clip-rule="evenodd" d="M11.7726 49.6983C11.2307 50.0078 10.9636 50.2598 10.9736 50.4789L10.9585 50.4846L11.4227 52.8078C11.4691 53.0399 11.8482 53.2344 12.5523 53.4216C12.5892 53.4316 12.6304 53.4424 12.6756 53.4541L12.5085 53.5498C11.9613 53.8626 11.6941 54.1153 11.7101 54.335L11.6953 54.3406L12.1579 56.6559C12.203 56.8815 12.5618 57.07 13.2285 57.2551L13.2178 57.2612C12.6792 57.5688 12.4121 57.8199 12.4188 58.0383L12.4011 58.0451L12.8653 60.3681C12.9113 60.5987 13.2904 60.7932 13.9945 60.9803C14.7178 61.1778 17.1039 61.7077 19.4105 62.2199L19.4107 62.22L19.4107 62.22L19.4109 62.22L19.4111 62.2201C21.5681 62.6991 23.6555 63.1627 24.2484 63.3245C25.4753 63.6592 26.2495 63.5587 27.5444 62.6161C28.2116 62.1304 30.169 60.9232 32.0683 59.7519L32.0684 59.7519L32.0686 59.7518L32.0688 59.7516C33.8553 58.6499 35.5903 57.5798 36.1518 57.1718L36.1515 57.1702C36.7428 56.7328 36.985 56.4553 36.9374 56.2169L36.507 54.0631C36.5618 53.7784 36.2025 53.6021 35.4456 53.4624C36.0376 53.0298 36.2785 52.7461 36.2308 52.5077L35.7979 50.3411C35.847 50.0538 35.4774 49.8764 34.7077 49.7441C34.6646 49.7367 34.6154 49.728 34.5606 49.718C34.6169 49.6793 34.6668 49.6441 34.7098 49.6129C35.3023 49.1817 35.5439 48.9011 35.4924 48.6601L35.0618 46.505C35.12 46.2144 34.751 46.0359 33.9724 45.8959C33.3105 45.7768 31.2208 45.3555 29.1156 44.931C26.972 44.4987 24.8122 44.0632 24.1276 43.9404C22.7707 43.697 22.2575 43.7938 20.8668 44.54C19.6496 45.1931 14.4887 48.145 12.4389 49.3174L11.7726 49.6983Z" fill="white"/>
<path d="M10.9736 50.4789L11.0048 50.5611L11.0644 50.5385L11.0615 50.4749L10.9736 50.4789ZM11.7726 49.6983L11.8162 49.7747L11.8162 49.7747L11.7726 49.6983ZM10.9585 50.4846L10.9274 50.4024L10.8577 50.4288L10.8723 50.5019L10.9585 50.4846ZM11.4227 52.8078L11.509 52.7905L11.4227 52.8078ZM12.5523 53.4216L12.5754 53.3367L12.5749 53.3366L12.5523 53.4216ZM12.6756 53.4541L12.7193 53.5305L12.907 53.4231L12.6976 53.369L12.6756 53.4541ZM12.5085 53.5498L12.5521 53.6261L12.5521 53.6261L12.5085 53.5498ZM11.7101 54.335L11.7413 54.4172L11.8026 54.3939L11.7978 54.3286L11.7101 54.335ZM11.6953 54.3406L11.664 54.2584L11.5945 54.2849L11.6091 54.3579L11.6953 54.3406ZM12.1579 56.6559L12.0717 56.6732L12.1579 56.6559ZM13.2285 57.2551L13.2722 57.3314L13.4553 57.2268L13.2521 57.1703L13.2285 57.2551ZM13.2178 57.2612L13.2614 57.3376L13.2614 57.3376L13.2178 57.2612ZM12.4188 58.0383L12.45 58.1205L12.5086 58.0983L12.5067 58.0356L12.4188 58.0383ZM12.4011 58.0451L12.3699 57.9628L12.3002 57.9892L12.3148 58.0623L12.4011 58.0451ZM12.8653 60.3681L12.9515 60.3509L12.8653 60.3681ZM13.9945 60.9803L14.0177 60.8955L14.0171 60.8954L13.9945 60.9803ZM19.4105 62.2199L19.4297 62.1341L19.4295 62.1341L19.4105 62.2199ZM19.4107 62.22L19.3914 62.3058L19.3943 62.3064L19.4107 62.22ZM19.4107 62.22L19.43 62.1342L19.4271 62.1336L19.4107 62.22ZM19.4109 62.22L19.3916 62.3058L19.3918 62.3059L19.4109 62.22ZM19.4111 62.2201L19.4302 62.1343L19.4302 62.1343L19.4111 62.2201ZM24.2484 63.3245L24.2715 63.2396L24.2484 63.3245ZM27.5444 62.6161L27.5962 62.6872L27.5444 62.6161ZM32.0683 59.7519L32.1145 59.8268L32.1175 59.8248L32.0683 59.7519ZM32.0684 59.7519L32.0228 59.6766L32.0192 59.679L32.0684 59.7519ZM32.0686 59.7518L32.1141 59.827L32.1156 59.826L32.0686 59.7518ZM32.0688 59.7516L32.0226 59.6768L32.0217 59.6773L32.0688 59.7516ZM36.1518 57.1718L36.2035 57.2429L36.2491 57.2097L36.238 57.1545L36.1518 57.1718ZM36.1515 57.1702L36.0992 57.0995L36.0543 57.1327L36.0653 57.1875L36.1515 57.1702ZM36.9374 56.2169L37.0236 56.1997L36.9374 56.2169ZM36.507 54.0631L36.4207 54.0465L36.4174 54.0634L36.4208 54.0803L36.507 54.0631ZM35.4456 53.4624L35.3937 53.3914L35.2289 53.5118L35.4296 53.5489L35.4456 53.4624ZM36.2308 52.5077L36.1446 52.5249L36.1446 52.5249L36.2308 52.5077ZM35.7979 50.3411L35.7112 50.3263L35.7085 50.3423L35.7117 50.3583L35.7979 50.3411ZM34.7077 49.7441L34.7226 49.6575L34.7226 49.6575L34.7077 49.7441ZM34.5606 49.718L34.5107 49.6456L34.3352 49.7665L34.5449 49.8045L34.5606 49.718ZM34.7098 49.6129L34.7615 49.684L34.7615 49.684L34.7098 49.6129ZM35.4924 48.6601L35.4061 48.6773L35.4064 48.6785L35.4924 48.6601ZM35.0618 46.505L34.9755 46.4877L34.9721 46.505L34.9755 46.5223L35.0618 46.505ZM33.9724 45.8959L33.9568 45.9824L33.9724 45.8959ZM29.1156 44.931L29.0983 45.0172L29.1156 44.931ZM24.1276 43.9404L24.1121 44.027L24.1276 43.9404ZM20.8668 44.54L20.8253 44.4625L20.8668 44.54ZM12.4389 49.3174L12.4825 49.3937L12.4825 49.3937L12.4389 49.3174ZM10.9424 50.3967L10.9387 50.3981L11.001 50.5625L11.0048 50.5611L10.9424 50.3967ZM10.9311 50.401L10.9274 50.4024L10.9897 50.5668L10.9935 50.5654L10.9311 50.401ZM10.8723 50.5019L10.9303 50.7923L11.1028 50.7578L11.0448 50.4674L10.8723 50.5019ZM11.0464 51.373L11.1624 51.9538L11.3349 51.9194L11.2188 51.3386L11.0464 51.373ZM11.2785 52.5346L11.3365 52.825L11.509 52.7905L11.4509 52.5001L11.2785 52.5346ZM11.3365 52.825C11.3609 52.9471 11.4501 53.0482 11.5752 53.1342L11.6748 52.9892C11.5664 52.9148 11.5204 52.8478 11.509 52.7905L11.3365 52.825ZM12.2058 53.4126C12.3053 53.4443 12.4133 53.4756 12.5298 53.5065L12.5749 53.3366C12.4607 53.3062 12.3555 53.2758 12.2592 53.2451L12.2058 53.4126ZM12.5293 53.5064C12.5393 53.5091 12.5497 53.5119 12.5604 53.5148L12.6058 53.3449C12.5954 53.3421 12.5852 53.3394 12.5754 53.3367L12.5293 53.5064ZM12.6226 53.5312C12.6327 53.5338 12.643 53.5365 12.6536 53.5393L12.6976 53.369C12.6872 53.3663 12.6769 53.3637 12.667 53.361L12.6226 53.5312ZM12.6319 53.3778L12.5902 53.4017L12.6775 53.5544L12.7193 53.5305L12.6319 53.3778ZM12.5066 53.4495L12.4648 53.4734L12.5521 53.6261L12.5939 53.6022L12.5066 53.4495ZM12.4648 53.4734C12.373 53.5259 12.2886 53.577 12.2117 53.6266L12.3072 53.7743C12.3809 53.7267 12.4625 53.6773 12.5521 53.6261L12.4648 53.4734ZM11.7444 54.0154C11.6621 54.1189 11.6142 54.2281 11.6224 54.3414L11.7978 54.3286C11.794 54.2758 11.8149 54.2094 11.8821 54.1249L11.7444 54.0154ZM11.6789 54.2528L11.6752 54.2542L11.7376 54.4186L11.7413 54.4172L11.6789 54.2528ZM11.6678 54.257L11.664 54.2584L11.7265 54.4228L11.7302 54.4214L11.6678 54.257ZM11.6091 54.3579L11.6669 54.6473L11.8393 54.6128L11.7815 54.3234L11.6091 54.3579ZM11.7825 55.2261L11.8982 55.8049L12.0706 55.7705L11.955 55.1917L11.7825 55.2261ZM12.0139 56.3838L12.0717 56.6732L12.2441 56.6387L12.1863 56.3493L12.0139 56.3838ZM12.0717 56.6732C12.0952 56.7911 12.1791 56.8891 12.297 56.9728L12.3988 56.8293C12.2981 56.7579 12.2551 56.6938 12.2441 56.6387L12.0717 56.6732ZM12.8967 57.2467C12.9913 57.278 13.0941 57.309 13.205 57.3398L13.2521 57.1703C13.1434 57.1402 13.0434 57.11 12.9519 57.0798L12.8967 57.2467ZM13.1849 57.1787L13.1822 57.1803L13.2695 57.333L13.2722 57.3314L13.1849 57.1787ZM13.1769 57.1833L13.1742 57.1849L13.2614 57.3376L13.2641 57.336L13.1769 57.1833ZM13.1742 57.1849C13.0831 57.2369 12.9992 57.2876 12.9229 57.3369L13.0183 57.4846C13.0916 57.4373 13.1726 57.3883 13.2614 57.3376L13.1742 57.1849ZM12.4586 57.7219C12.3767 57.8234 12.3275 57.9301 12.3309 58.041L12.5067 58.0356C12.5051 57.9824 12.5281 57.9158 12.5955 57.8323L12.4586 57.7219ZM12.3877 57.9561L12.3832 57.9578L12.4456 58.1222L12.45 58.1205L12.3877 57.9561ZM12.3743 57.9612L12.3699 57.9628L12.4322 58.1273L12.4367 58.1256L12.3743 57.9612ZM12.3148 58.0623L12.3729 58.3527L12.5453 58.3182L12.4873 58.0278L12.3148 58.0623ZM12.4889 58.9334L12.605 59.5142L12.7774 59.4798L12.6614 58.899L12.4889 58.9334ZM12.721 60.095L12.779 60.3854L12.9515 60.3509L12.8934 60.0605L12.721 60.095ZM12.779 60.3854C12.8034 60.5073 12.8929 60.6081 13.0183 60.6939L13.1175 60.5487C13.0087 60.4743 12.9628 60.4075 12.9515 60.3509L12.779 60.3854ZM13.6483 60.9715C13.7477 61.0032 13.8556 61.0344 13.9719 61.0653L14.0171 60.8954C13.903 60.865 13.7979 60.8346 13.7017 60.804L13.6483 60.9715ZM13.9714 61.0652C14.0606 61.0895 14.1744 61.1188 14.3093 61.1522L14.3516 60.9815C14.2173 60.9482 14.105 60.9194 14.0177 60.8955L13.9714 61.0652ZM14.9855 61.3142C15.192 61.3625 15.4191 61.415 15.6627 61.4707L15.7019 61.2993C15.4585 61.2436 15.2317 61.1912 15.0255 61.1429L14.9855 61.3142ZM16.3403 61.6247C16.5586 61.674 16.7854 61.725 17.0183 61.7772L17.0568 61.6056C16.8239 61.5534 16.5973 61.5024 16.3791 61.4531L16.3403 61.6247ZM17.6963 61.9288C17.9194 61.9785 18.146 62.029 18.3743 62.0798L18.4125 61.9081C18.1842 61.8573 17.9577 61.8069 17.7346 61.7571L17.6963 61.9288ZM19.0524 62.2305C19.1654 62.2556 19.2785 62.2807 19.3914 62.3058L19.4295 62.1341C19.3166 62.109 19.2036 62.0839 19.0905 62.0588L19.0524 62.2305ZM19.3912 62.3057L19.3913 62.3057L19.4298 62.1342L19.4297 62.1341L19.3912 62.3057ZM19.3914 62.3058L19.3914 62.3058L19.43 62.1342L19.4299 62.1342L19.3914 62.3058ZM19.3943 62.3064L19.3944 62.3064L19.427 62.1336L19.427 62.1336L19.3943 62.3064ZM19.3944 62.3064L19.3944 62.3064L19.4271 62.1336L19.4271 62.1336L19.3944 62.3064ZM19.3915 62.3058L19.3915 62.3058L19.4301 62.1342L19.43 62.1342L19.3915 62.3058ZM19.3915 62.3058L19.3916 62.3058L19.4302 62.1342L19.4301 62.1342L19.3915 62.3058ZM19.3918 62.3059L19.3919 62.3059L19.43 62.1342L19.4299 62.1342L19.3918 62.3059ZM19.392 62.3059L19.3921 62.3059L19.4302 62.1343L19.4301 62.1342L19.392 62.3059ZM19.3921 62.3059C19.527 62.3359 19.6617 62.3658 19.7957 62.3956L19.8339 62.2239C19.6998 62.1941 19.5651 62.1642 19.4302 62.1343L19.3921 62.3059ZM20.603 62.5751C20.8793 62.6366 21.1495 62.6968 21.4104 62.7552L21.4487 62.5835C21.1878 62.5252 20.9175 62.4649 20.6412 62.4034L20.603 62.5751ZM22.2169 62.9363C22.5071 63.0018 22.7779 63.0634 23.023 63.1198L23.0624 62.9484C22.817 62.892 22.546 62.8303 22.2556 62.7648L22.2169 62.9363ZM23.8274 63.3086C23.9958 63.3494 24.1303 63.3834 24.2252 63.4093L24.2715 63.2396C24.1741 63.2131 24.0377 63.1787 23.8688 63.1377L23.8274 63.3086ZM24.2252 63.4093C24.3759 63.4504 24.5204 63.4852 24.6603 63.5128L24.6943 63.3402C24.5593 63.3136 24.419 63.2799 24.2715 63.2396L24.2252 63.4093ZM25.5602 63.5798C25.8527 63.5586 26.1393 63.4901 26.4401 63.3664L26.3732 63.2038C26.0883 63.3209 25.82 63.3847 25.5475 63.4044L25.5602 63.5798ZM27.2296 62.9406C27.3477 62.8637 27.4696 62.7793 27.5962 62.6872L27.4927 62.545C27.3682 62.6356 27.2488 62.7182 27.1336 62.7932L27.2296 62.9406ZM27.5962 62.6872C27.6705 62.6331 27.7615 62.5696 27.8674 62.4977L27.7686 62.3522C27.6618 62.4247 27.5691 62.4894 27.4927 62.545L27.5962 62.6872ZM28.4251 62.1297C28.5973 62.0184 28.7861 61.8978 28.9881 61.7697L28.894 61.6212C28.6916 61.7494 28.5024 61.8703 28.3296 61.9821L28.4251 62.1297ZM29.5545 61.4131C29.7373 61.2986 29.927 61.1802 30.1219 61.059L30.029 60.9096C29.834 61.031 29.6441 61.1494 29.4611 61.2641L29.5545 61.4131ZM30.6908 60.706C30.8781 60.59 31.0683 60.4724 31.26 60.354L31.1676 60.2044C30.9758 60.3228 30.7855 60.4404 30.5982 60.5564L30.6908 60.706ZM31.8296 60.0024C31.9246 59.9438 32.0196 59.8852 32.1145 59.8267L32.0222 59.6771C31.9273 59.7356 31.8323 59.7942 31.7373 59.8527L31.8296 60.0024ZM32.1175 59.8248L32.1175 59.8248L32.0192 59.679L32.0192 59.679L32.1175 59.8248ZM32.1176 59.8248L32.1176 59.8247L32.0192 59.679L32.0192 59.679L32.1176 59.8248ZM32.1139 59.8271L32.114 59.827L32.0229 59.6766L32.0228 59.6767L32.1139 59.8271ZM32.1141 59.827L32.1141 59.827L32.023 59.6766L32.023 59.6766L32.1141 59.827ZM32.1156 59.826L32.1157 59.826L32.0216 59.6774L32.0215 59.6775L32.1156 59.826ZM32.1158 59.8259L32.1158 59.8259L32.0217 59.6773L32.0217 59.6774L32.1158 59.8259ZM32.1149 59.8265C32.2294 59.7558 32.3437 59.6853 32.4575 59.6151L32.3652 59.4655C32.2514 59.5357 32.1371 59.6062 32.0226 59.6768L32.1149 59.8265ZM33.1428 59.1921C33.3769 59.0474 33.6061 58.9055 33.8275 58.7681L33.7348 58.6187C33.5135 58.756 33.2844 58.8979 33.0503 59.0425L33.1428 59.1921ZM34.511 58.3421C34.7558 58.1888 34.9848 58.0445 35.1928 57.912L35.0983 57.7637C34.8908 57.8959 34.6622 58.0399 34.4177 58.193L34.511 58.3421ZM35.8696 57.4731C36.0046 57.3831 36.1173 57.3055 36.2035 57.2429L36.1001 57.1006C36.0167 57.1613 35.9061 57.2373 35.772 57.3267L35.8696 57.4731ZM36.238 57.1545L36.238 57.1541L36.0655 57.1887L36.0656 57.189L36.238 57.1545ZM36.2378 57.1533L36.2377 57.1529L36.0653 57.1875L36.0654 57.1879L36.2378 57.1533ZM36.2038 57.2409C36.2982 57.1711 36.384 57.1051 36.4615 57.0424L36.351 56.9057C36.2758 56.9664 36.192 57.0308 36.0992 57.0995L36.2038 57.2409ZM36.9317 56.5677C37.012 56.4443 37.0481 56.3223 37.0236 56.1997L36.8511 56.2341C36.8637 56.2968 36.8492 56.372 36.7843 56.4718L36.9317 56.5677ZM37.0236 56.1997L36.916 55.6612L36.7435 55.6957L36.8511 56.2341L37.0236 56.1997ZM36.7008 54.5843L36.5932 54.0459L36.4208 54.0803L36.5284 54.6188L36.7008 54.5843ZM36.5933 54.0797C36.6071 54.0083 36.6009 53.9387 36.5726 53.8734C36.5447 53.8089 36.4976 53.7538 36.4376 53.7062L36.3283 53.8439C36.372 53.8786 36.3977 53.912 36.4112 53.9432C36.4243 53.9735 36.4283 54.0068 36.4207 54.0465L36.5933 54.0797ZM35.791 53.4452C35.6906 53.4209 35.5807 53.3979 35.4615 53.3759L35.4296 53.5489C35.5463 53.5704 35.653 53.5927 35.7497 53.6161L35.791 53.4452ZM35.4974 53.5334C35.5924 53.464 35.6787 53.3982 35.7565 53.3356L35.6463 53.1986C35.571 53.2592 35.4869 53.3233 35.3937 53.3914L35.4974 53.5334ZM36.2266 52.8589C36.306 52.735 36.3415 52.6125 36.3171 52.4905L36.1446 52.5249C36.1572 52.5877 36.1428 52.6637 36.0785 52.7639L36.2266 52.8589ZM36.3171 52.4905L36.2088 51.9488L36.0364 51.9833L36.1446 52.5249L36.3171 52.4905ZM35.9924 50.8655L35.8841 50.3238L35.7117 50.3583L35.8199 50.8999L35.9924 50.8655ZM35.8846 50.3559C35.897 50.2835 35.8889 50.2134 35.8587 50.148C35.8291 50.0836 35.7802 50.0286 35.7184 49.9811L35.6113 50.1206C35.657 50.1557 35.6843 50.1896 35.699 50.2216C35.7133 50.2526 35.718 50.2864 35.7112 50.3263L35.8846 50.3559ZM35.0585 49.7239C34.956 49.7004 34.844 49.6783 34.7226 49.6575L34.6928 49.8308C34.8117 49.8512 34.9205 49.8727 35.0191 49.8953L35.0585 49.7239ZM34.7226 49.6575C34.7108 49.6554 34.6987 49.6533 34.686 49.6511L34.6557 49.8243C34.6685 49.8266 34.6809 49.8287 34.6928 49.8308L34.7226 49.6575ZM34.6129 49.6381C34.601 49.636 34.5888 49.6338 34.5763 49.6315L34.5449 49.8045C34.5575 49.8068 34.5698 49.8091 34.5818 49.8112L34.6129 49.6381ZM34.6105 49.7905C34.6234 49.7815 34.636 49.7728 34.6483 49.7643L34.5479 49.6199C34.5359 49.6283 34.5235 49.6368 34.5107 49.6456L34.6105 49.7905ZM34.7239 49.7111C34.7369 49.7018 34.7495 49.6928 34.7615 49.684L34.6581 49.5417C34.6465 49.5502 34.6344 49.5589 34.6217 49.568L34.7239 49.7111ZM34.7615 49.684C34.8565 49.6149 34.9429 49.5493 35.0208 49.487L34.9109 49.3497C34.8355 49.41 34.7514 49.4739 34.6581 49.5418L34.7615 49.684ZM35.4914 49.0112C35.5704 48.8874 35.6047 48.7646 35.5783 48.6417L35.4064 48.6785C35.42 48.742 35.4064 48.8175 35.3432 48.9167L35.4914 49.0112ZM35.5786 48.6428L35.4709 48.1041L35.2985 48.1385L35.4061 48.6773L35.5786 48.6428ZM35.2556 47.0266L35.148 46.4878L34.9755 46.5223L35.0832 47.061L35.2556 47.0266ZM35.148 46.5223C35.1626 46.4493 35.1566 46.3783 35.1276 46.3115C35.099 46.2458 35.0506 46.1897 34.9887 46.1414L34.8804 46.2799C34.9258 46.3154 34.9524 46.3496 34.9663 46.3816C34.9798 46.4127 34.9837 46.4469 34.9755 46.4877L35.148 46.5223ZM34.3257 45.8786C34.2227 45.8543 34.1101 45.8313 33.9879 45.8093L33.9568 45.9824C34.0765 46.0039 34.186 46.0263 34.2852 46.0497L34.3257 45.8786ZM33.9879 45.8093C33.8858 45.791 33.7493 45.7653 33.5835 45.7335L33.5503 45.9062C33.7164 45.9381 33.8537 45.9639 33.9568 45.9824L33.9879 45.8093ZM32.7746 45.5753C32.5272 45.5264 32.2552 45.4723 31.9649 45.4143L31.9305 45.5867C32.2209 45.6448 32.4929 45.6989 32.7404 45.7478L32.7746 45.5753ZM31.1559 45.2522C30.8937 45.1995 30.6228 45.145 30.3467 45.0894L30.3119 45.2618C30.5881 45.3174 30.8591 45.3719 31.1213 45.4246L31.1559 45.2522ZM29.5375 44.9264C29.403 44.8992 29.268 44.872 29.133 44.8448L29.0983 45.0172C29.2333 45.0444 29.3682 45.0716 29.5028 45.0987L29.5375 44.9264ZM29.133 44.8448C28.9945 44.8169 28.8558 44.7889 28.7176 44.761L28.6828 44.9334C28.8211 44.9613 28.9597 44.9892 29.0983 45.0172L29.133 44.8448ZM27.8865 44.5936C27.6032 44.5365 27.3249 44.4805 27.0554 44.4264L27.0207 44.5988C27.2902 44.6529 27.5685 44.7089 27.8518 44.766L27.8865 44.5936ZM26.2242 44.2599C25.9262 44.2004 25.6468 44.1448 25.3924 44.0945L25.3583 44.267C25.6125 44.3173 25.8919 44.3728 26.1897 44.4323L26.2242 44.2599ZM24.5605 43.932C24.3902 43.8994 24.2492 43.8729 24.1431 43.8539L24.1121 44.027C24.2171 44.0458 24.3573 44.0721 24.5274 44.1047L24.5605 43.932ZM24.1431 43.8539C23.9923 43.8268 23.8514 43.8039 23.7183 43.7855L23.6942 43.9597C23.8244 43.9777 23.9629 44.0002 24.1121 44.027L24.1431 43.8539ZM22.8514 43.7392C22.5631 43.7566 22.2918 43.8137 21.9961 43.9171L22.0542 44.0831C22.3362 43.9844 22.5915 43.9311 22.862 43.9148L22.8514 43.7392ZM21.2053 44.2641C21.0855 44.3245 20.9593 44.3906 20.8253 44.4625L20.9084 44.6175C21.0415 44.5461 21.1664 44.4807 21.2845 44.4212L21.2053 44.2641ZM20.8253 44.4625C20.7303 44.5135 20.6116 44.5783 20.4725 44.655L20.5575 44.809C20.6962 44.7325 20.8142 44.668 20.9084 44.6175L20.8253 44.4625ZM19.7643 45.0493C19.5485 45.1702 19.3125 45.303 19.0611 45.4448L19.1475 45.598C19.3988 45.4562 19.6347 45.3235 19.8503 45.2027L19.7643 45.0493ZM18.3582 45.842C18.1308 45.9709 17.8956 46.1042 17.6556 46.2405L17.7424 46.3934C17.9824 46.2571 18.2175 46.1238 18.4449 45.9951L18.3582 45.842ZM16.9531 46.6396C16.7204 46.7719 16.4857 46.9055 16.2512 47.0391L16.3383 47.1919C16.5727 47.0584 16.8074 46.9248 17.04 46.7925L16.9531 46.6396ZM15.5495 47.4391C15.3122 47.5744 15.0775 47.7083 14.8478 47.8394L14.935 47.9921C15.1646 47.861 15.3993 47.7271 15.6366 47.5918L15.5495 47.4391ZM14.147 48.2396C13.9021 48.3795 13.6669 48.5139 13.445 48.6407L13.5323 48.7934C13.7542 48.6666 13.9894 48.5322 14.2342 48.3923L14.147 48.2396ZM12.7439 49.0416C12.6197 49.1126 12.5032 49.1793 12.3952 49.241L12.4825 49.3937C12.5905 49.3319 12.707 49.2653 12.8312 49.1943L12.7439 49.0416ZM12.3952 49.241L12.2287 49.3363L12.316 49.4889L12.4825 49.3937L12.3952 49.241ZM11.8955 49.5268L11.7289 49.622L11.8162 49.7747L11.9828 49.6794L11.8955 49.5268ZM11.729 49.622C11.6375 49.6742 11.5534 49.725 11.4768 49.7745L11.5723 49.9222C11.6457 49.8748 11.727 49.8256 11.8162 49.7747L11.729 49.622ZM11.0114 50.1612C10.9294 50.2635 10.8807 50.3711 10.8858 50.4829L11.0615 50.4749C11.059 50.4217 11.0813 50.3551 11.1486 50.2712L11.0114 50.1612ZM10.9736 50.4789L11.036 50.6433L11.1551 50.5981L11.1493 50.4709L10.9736 50.4789ZM11.7726 49.6983L11.8598 49.8511L11.8598 49.851L11.7726 49.6983ZM10.9585 50.4846L10.8962 50.3202L10.7569 50.373L10.7861 50.5191L10.9585 50.4846ZM11.4227 52.8078L11.5952 52.7733L11.4227 52.8078ZM12.5523 53.4216L12.5985 53.2519L12.5975 53.2516L12.5523 53.4216ZM12.6756 53.4541L12.7629 53.6068L13.1383 53.392L12.7196 53.2839L12.6756 53.4541ZM12.5085 53.5498L12.5957 53.7024L12.5958 53.7024L12.5085 53.5498ZM11.7101 54.335L11.7726 54.4994L11.895 54.4529L11.8855 54.3222L11.7101 54.335ZM11.6953 54.3406L11.6328 54.1763L11.4937 54.2291L11.5228 54.3751L11.6953 54.3406ZM12.1579 56.6559L11.9855 56.6904L12.1579 56.6559ZM13.2285 57.2551L13.3158 57.4078L13.6821 57.1985L13.2756 57.0856L13.2285 57.2551ZM13.2178 57.2612L13.305 57.4139L13.305 57.4139L13.2178 57.2612ZM12.4188 58.0383L12.4812 58.2028L12.5984 58.1583L12.5946 58.0329L12.4188 58.0383ZM12.4011 58.0451L12.3387 57.8806L12.1994 57.9334L12.2286 58.0795L12.4011 58.0451ZM12.8653 60.3681L13.0377 60.3337L12.8653 60.3681ZM13.9945 60.9803L14.0408 60.8107L14.0397 60.8104L13.9945 60.9803ZM19.4105 62.2199L19.449 62.0484L19.4486 62.0483L19.4105 62.2199ZM19.4107 62.22L19.3721 62.3917L19.378 62.3928L19.4107 62.22ZM19.4107 62.22L19.4493 62.0483L19.4434 62.0472L19.4107 62.22ZM19.4109 62.22L19.3723 62.3916L19.3728 62.3917L19.4109 62.22ZM19.4111 62.2201L19.4493 62.0484L19.4492 62.0484L19.4111 62.2201ZM24.2484 63.3245L24.2947 63.1548L24.2484 63.3245ZM27.5444 62.6161L27.6479 62.7583L27.5444 62.6161ZM32.0683 59.7519L32.1607 59.9017L32.1667 59.8977L32.0683 59.7519ZM32.0684 59.7519L31.9772 59.6013L31.97 59.6061L32.0684 59.7519ZM32.0686 59.7518L32.1597 59.9022L32.1627 59.9003L32.0686 59.7518ZM32.0688 59.7516L31.9764 59.6019L31.9747 59.6031L32.0688 59.7516ZM36.1518 57.1718L36.2552 57.314L36.3464 57.2477L36.3242 57.1372L36.1518 57.1718ZM36.1515 57.1702L36.0469 57.0288L35.9571 57.0952L35.9791 57.2048L36.1515 57.1702ZM36.9374 56.2169L37.1098 56.1824L37.1098 56.1824L36.9374 56.2169ZM36.507 54.0631L36.3343 54.0299L36.3278 54.0637L36.3345 54.0976L36.507 54.0631ZM35.4456 53.4624L35.3418 53.3204L35.0122 53.5613L35.4137 53.6353L35.4456 53.4624ZM36.2308 52.5077L36.0584 52.5422L36.0584 52.5422L36.2308 52.5077ZM35.7979 50.3411L35.6246 50.3115L35.6191 50.3436L35.6255 50.3755L35.7979 50.3411ZM34.7077 49.7441L34.7375 49.5708L34.7375 49.5708L34.7077 49.7441ZM34.5606 49.718L34.4609 49.5732L34.1097 49.8149L34.5292 49.8911L34.5606 49.718ZM34.7098 49.6129L34.8132 49.7551L34.8133 49.7551L34.7098 49.6129ZM35.4924 48.6601L35.3199 48.6945L35.3204 48.6969L35.4924 48.6601ZM35.0618 46.505L34.8893 46.4705L34.8824 46.505L34.8893 46.5395L35.0618 46.505ZM33.9724 45.8959L33.9412 46.0689L33.9724 45.8959ZM29.1156 44.931L29.0809 45.1034L29.1156 44.931ZM24.1276 43.9404L24.0965 44.1135L24.1276 43.9404ZM20.8668 44.54L20.7837 44.3851L20.7837 44.3851L20.8668 44.54ZM12.4389 49.3174L12.5262 49.47L12.5262 49.47L12.4389 49.3174ZM10.9113 50.3145L10.9075 50.3159L11.0322 50.6448L11.036 50.6433L10.9113 50.3145ZM10.8999 50.3188L10.8962 50.3202L11.0209 50.6491L11.0247 50.6476L10.8999 50.3188ZM10.7861 50.5191L10.8441 50.8095L11.189 50.7406L11.131 50.4502L10.7861 50.5191ZM10.9602 51.3903L11.0762 51.971L11.4211 51.9021L11.3051 51.3214L10.9602 51.3903ZM11.1923 52.5518L11.2503 52.8422L11.5952 52.7733L11.5372 52.4829L11.1923 52.5518ZM11.2503 52.8422C11.2812 52.9968 11.3919 53.115 11.5255 53.2067L11.7246 52.9167C11.6246 52.8481 11.6001 52.7981 11.5952 52.7733L11.2503 52.8422ZM12.1791 53.4964C12.2801 53.5286 12.3896 53.5602 12.5072 53.5915L12.5975 53.2516C12.4844 53.2215 12.3806 53.1915 12.2859 53.1613L12.1791 53.4964ZM12.5062 53.5912C12.5164 53.594 12.5269 53.5968 12.5377 53.5997L12.6286 53.26C12.6182 53.2572 12.6082 53.2545 12.5985 53.2519L12.5062 53.5912ZM12.6004 53.6163C12.6106 53.6189 12.621 53.6217 12.6316 53.6244L12.7196 53.2839C12.7092 53.2812 12.6991 53.2786 12.6892 53.276L12.6004 53.6163ZM12.5883 53.3015L12.5465 53.3254L12.7211 53.6307L12.7629 53.6068L12.5883 53.3015ZM12.4629 53.3732L12.4211 53.3971L12.5958 53.7024L12.6376 53.6785L12.4629 53.3732ZM12.4212 53.3971C12.3282 53.4502 12.2424 53.5021 12.164 53.5528L12.3549 53.8482C12.4271 53.8015 12.5073 53.753 12.5957 53.7024L12.4212 53.3971ZM11.6756 53.9607C11.5858 54.0737 11.5243 54.2042 11.5347 54.3478L11.8855 54.3222C11.8839 54.2997 11.8912 54.2546 11.9509 54.1796L11.6756 53.9607ZM11.6477 54.1706L11.6439 54.172L11.7689 54.5008L11.7726 54.4994L11.6477 54.1706ZM11.6365 54.1748L11.6328 54.1763L11.7577 54.505L11.7614 54.5036L11.6365 54.1748ZM11.5228 54.3751L11.5807 54.6645L11.9255 54.5956L11.8677 54.3062L11.5228 54.3751ZM11.6963 55.2433L11.812 55.8222L12.1569 55.7532L12.0412 55.1744L11.6963 55.2433ZM11.9276 56.401L11.9855 56.6904L12.3303 56.6215L12.2725 56.3321L11.9276 56.401ZM11.9855 56.6904C12.0153 56.8397 12.1196 56.9547 12.2462 57.0445L12.4496 56.7576C12.3576 56.6923 12.3351 56.6452 12.3303 56.6215L11.9855 56.6904ZM12.869 57.3302C12.9653 57.362 13.0695 57.3934 13.1815 57.4245L13.2756 57.0856C13.168 57.0558 13.0694 57.026 12.9795 56.9963L12.869 57.3302ZM13.1413 57.1024L13.1386 57.1039L13.3131 57.4093L13.3158 57.4078L13.1413 57.1024ZM13.1332 57.107L13.1306 57.1085L13.305 57.4139L13.3077 57.4124L13.1332 57.107ZM13.1306 57.1085C13.0383 57.1612 12.9531 57.2127 12.8751 57.2631L13.066 57.5585C13.1377 57.5121 13.2173 57.464 13.305 57.4139L13.1306 57.1085ZM12.3902 57.6667C12.301 57.7772 12.2388 57.904 12.2431 58.0437L12.5946 58.0329C12.5938 58.0086 12.6038 57.962 12.6639 57.8875L12.3902 57.6667ZM12.3565 57.8739L12.352 57.8756L12.4767 58.2044L12.4812 58.2028L12.3565 57.8739ZM12.3432 57.8789L12.3387 57.8806L12.4634 58.2095L12.4678 58.2078L12.3432 57.8789ZM12.2286 58.0795L12.2866 58.3699L12.6315 58.301L12.5735 58.0106L12.2286 58.0795ZM12.4027 58.9507L12.5187 59.5314L12.8636 59.4625L12.7476 58.8818L12.4027 58.9507ZM12.6348 60.1122L12.6928 60.4026L13.0377 60.3337L12.9797 60.0433L12.6348 60.1122ZM12.6928 60.4026C12.7237 60.5571 12.835 60.6751 12.9687 60.7665L13.1672 60.4762C13.0666 60.4074 13.0425 60.3577 13.0377 60.3337L12.6928 60.4026ZM13.6216 61.0553C13.7226 61.0875 13.8319 61.1191 13.9494 61.1503L14.0397 60.8104C13.9267 60.7804 13.823 60.7503 13.7284 60.7202L13.6216 61.0553ZM13.9482 61.15C14.0384 61.1746 14.1529 61.204 14.2882 61.2375L14.3727 60.8962C14.2387 60.863 14.1272 60.8343 14.0408 60.8107L13.9482 61.15ZM14.9654 61.3998C15.1721 61.4482 15.3994 61.5006 15.643 61.5564L15.7215 61.2135C15.4782 61.1579 15.2516 61.1055 15.0456 61.0573L14.9654 61.3998ZM16.321 61.7104C16.5393 61.7598 16.7661 61.8108 16.9991 61.863L17.076 61.5198C16.8432 61.4676 16.6166 61.4166 16.3985 61.3674L16.321 61.7104ZM17.6772 62.0146C17.9003 62.0644 18.1269 62.1148 18.3552 62.1656L18.4316 61.8223C18.2033 61.7715 17.9768 61.7211 17.7538 61.6713L17.6772 62.0146ZM19.0333 62.3163C19.1464 62.3414 19.2595 62.3665 19.3723 62.3916L19.4486 62.0483C19.3357 62.0232 19.2226 61.9981 19.1096 61.973L19.0333 62.3163ZM19.3719 62.3915L19.372 62.3915L19.449 62.0484L19.449 62.0484L19.3719 62.3915ZM19.3721 62.3916L19.3722 62.3916L19.4492 62.0484L19.4492 62.0484L19.3721 62.3916ZM19.378 62.3928L19.378 62.3928L19.4434 62.0472L19.4434 62.0472L19.378 62.3928ZM19.378 62.3928L19.3781 62.3928L19.4434 62.0472L19.4434 62.0472L19.378 62.3928ZM19.3722 62.3916L19.3722 62.3916L19.4493 62.0484L19.4493 62.0484L19.3722 62.3916ZM19.3723 62.3916L19.3723 62.3916L19.4494 62.0485L19.4494 62.0485L19.3723 62.3916ZM19.3728 62.3917L19.3728 62.3917L19.449 62.0484L19.449 62.0484L19.3728 62.3917ZM19.373 62.3918L19.3731 62.3918L19.4492 62.0484L19.4492 62.0484L19.373 62.3918ZM19.373 62.3918C19.508 62.4217 19.6426 62.4516 19.7767 62.4814L19.8529 62.1381C19.7189 62.1083 19.5842 62.0784 19.4493 62.0484L19.373 62.3918ZM20.5839 62.6609C20.8601 62.7224 21.1303 62.7826 21.3912 62.841L21.4679 62.4977C21.207 62.4394 20.9366 62.3791 20.6603 62.3176L20.5839 62.6609ZM22.1975 63.0221C22.4877 63.0876 22.7583 63.1491 23.0033 63.2055L23.0822 62.8627C22.8366 62.8062 22.5655 62.7446 22.275 62.679L22.1975 63.0221ZM23.8067 63.3941C23.9749 63.4348 24.1084 63.4685 24.2021 63.4941L24.2947 63.1548C24.1961 63.1279 24.0587 63.0933 23.8895 63.0523L23.8067 63.3941ZM24.2021 63.4941C24.3543 63.5357 24.5009 63.571 24.6433 63.599L24.7113 63.254C24.5788 63.2278 24.4405 63.1946 24.2947 63.1548L24.2021 63.4941ZM25.5665 63.6675C25.8691 63.6456 26.1647 63.5747 26.4735 63.4477L26.3398 63.1224C26.0629 63.2363 25.8037 63.2977 25.5411 63.3167L25.5665 63.6675ZM27.2776 63.0142C27.3971 62.9364 27.5202 62.8512 27.6479 62.7583L27.4409 62.4739C27.3175 62.5638 27.1994 62.6455 27.0857 62.7195L27.2776 63.0142ZM27.6479 62.7583C27.7212 62.7049 27.8113 62.642 27.9168 62.5704L27.7193 62.2794C27.6119 62.3523 27.5184 62.4175 27.4409 62.4739L27.6479 62.7583ZM28.4729 62.2036C28.6448 62.0924 28.8333 61.9719 29.0352 61.844L28.8469 61.5469C28.6444 61.6753 28.4549 61.7963 28.2819 61.9083L28.4729 62.2036ZM29.6011 61.4876C29.7838 61.3731 29.9735 61.2548 30.1683 61.1336L29.9826 60.835C29.7875 60.9563 29.5975 61.0749 29.4144 61.1896L29.6011 61.4876ZM30.737 60.7807C30.9243 60.6647 31.1145 60.5472 31.3062 60.4288L31.1214 60.1295C30.9296 60.248 30.7393 60.3656 30.5519 60.4817L30.737 60.7807ZM31.8758 60.0773C31.9708 60.0187 32.0658 59.9601 32.1607 59.9016L31.976 59.6022C31.8812 59.6607 31.7862 59.7193 31.6912 59.7779L31.8758 60.0773ZM32.1667 59.8977L32.1667 59.8977L31.97 59.6061L31.97 59.6061L32.1667 59.8977ZM32.1667 59.8976L32.1667 59.8976L31.97 59.6061L31.97 59.6061L32.1667 59.8976ZM32.1595 59.9023L32.1595 59.9022L31.9773 59.6014L31.9773 59.6014L32.1595 59.9023ZM32.1596 59.9022L32.1597 59.9022L31.9774 59.6013L31.9774 59.6014L32.1596 59.9022ZM32.1627 59.9003L32.1627 59.9003L31.9745 59.6032L31.9745 59.6032L32.1627 59.9003ZM32.1628 59.9002L32.1629 59.9002L31.9747 59.6031L31.9746 59.6031L32.1628 59.9002ZM32.1611 59.9013C32.2756 59.8307 32.3899 59.7602 32.5037 59.69L32.3191 59.3906C32.2053 59.4608 32.091 59.5313 31.9764 59.602L32.1611 59.9013ZM33.189 59.2669C33.4232 59.1222 33.6524 58.9803 33.8739 58.8428L33.6884 58.544C33.4671 58.6813 33.2381 58.8231 33.0041 58.9677L33.189 59.2669ZM34.5577 58.4166C34.8026 58.2632 35.0317 58.1188 35.24 57.9862L35.0511 57.6895C34.8438 57.8215 34.6155 57.9655 34.3711 58.1185L34.5577 58.4166ZM35.9183 57.5462C36.0538 57.4559 36.1676 57.3777 36.2552 57.314L36.0484 57.0295C35.9664 57.0892 35.8569 57.1644 35.7232 57.2536L35.9183 57.5462ZM36.3242 57.1372L36.3242 57.1368L35.9793 57.2059L35.9794 57.2063L36.3242 57.1372ZM36.324 57.136L36.3239 57.1356L35.9791 57.2048L35.9792 57.2052L36.324 57.136ZM36.2561 57.3116C36.3512 57.2412 36.4381 57.1744 36.5168 57.1108L36.2957 56.8373C36.2217 56.8971 36.139 56.9607 36.0469 57.0288L36.2561 57.3116ZM37.0054 56.6156C37.0933 56.4805 37.1403 56.335 37.1098 56.1824L36.7649 56.2513C36.7715 56.2841 36.7678 56.3359 36.7106 56.4239L37.0054 56.6156ZM37.1098 56.1824L37.0022 55.644L36.6573 55.7129L36.7649 56.2513L37.1098 56.1824ZM36.787 54.5671L36.6794 54.0286L36.3345 54.0976L36.4421 54.636L36.787 54.5671ZM36.6797 54.0963C36.6965 54.009 36.6892 53.9213 36.6533 53.8384C36.6182 53.7574 36.5604 53.6914 36.4923 53.6373L36.2736 53.9128C36.3092 53.941 36.3242 53.9635 36.3305 53.9782C36.3361 53.9909 36.3389 54.0061 36.3343 54.0299L36.6797 54.0963ZM35.8117 53.3597C35.7094 53.335 35.5979 53.3117 35.4775 53.2895L35.4137 53.6353C35.5292 53.6567 35.6343 53.6787 35.7291 53.7016L35.8117 53.3597ZM35.5493 53.6044C35.6451 53.5344 35.7325 53.4678 35.8117 53.4041L35.5912 53.1301C35.5171 53.1897 35.4341 53.253 35.3418 53.3204L35.5493 53.6044ZM36.3006 52.9063C36.3876 52.7707 36.4336 52.625 36.4033 52.4733L36.0584 52.5422C36.065 52.5753 36.0613 52.628 36.0045 52.7164L36.3006 52.9063ZM36.4033 52.4733L36.2951 51.9316L35.9502 52.0005L36.0584 52.5422L36.4033 52.4733ZM36.0786 50.8483L35.9704 50.3066L35.6255 50.3755L35.7337 50.9172L36.0786 50.8483ZM35.9713 50.3707C35.9864 50.282 35.9767 50.1938 35.9386 50.1112C35.9014 50.0306 35.8419 49.965 35.772 49.9114L35.5578 50.1903C35.5954 50.2192 35.6119 50.2427 35.6192 50.2584C35.6255 50.2722 35.6286 50.2879 35.6246 50.3115L35.9713 50.3707ZM35.0782 49.6382C34.9738 49.6143 34.8601 49.5919 34.7375 49.5708L34.6779 49.9174C34.7955 49.9376 34.9027 49.9588 34.9995 49.981L35.0782 49.6382ZM34.7375 49.5708C34.7258 49.5688 34.7138 49.5667 34.7012 49.5645L34.6406 49.9109C34.6534 49.9132 34.6659 49.9154 34.6779 49.9174L34.7375 49.5708ZM34.6285 49.5516C34.6166 49.5495 34.6045 49.5473 34.592 49.545L34.5292 49.8911C34.5418 49.8934 34.5542 49.8956 34.5662 49.8978L34.6285 49.5516ZM34.6603 49.8629C34.6734 49.8539 34.6861 49.8451 34.6985 49.8365L34.4978 49.5477C34.4858 49.556 34.4735 49.5645 34.4609 49.5732L34.6603 49.8629ZM34.7749 49.7827C34.7882 49.7732 34.8009 49.764 34.8132 49.7551L34.6064 49.4706C34.595 49.4789 34.5831 49.4875 34.5706 49.4964L34.7749 49.7827ZM34.8133 49.7551C34.9091 49.6853 34.9966 49.619 35.0757 49.5556L34.856 49.281C34.7819 49.3404 34.6988 49.4034 34.6063 49.4707L34.8133 49.7551ZM35.5655 49.0585C35.6524 48.9224 35.697 48.776 35.6643 48.6233L35.3204 48.6969C35.3276 48.7306 35.3244 48.7825 35.269 48.8694L35.5655 49.0585ZM35.6648 48.6256L35.5572 48.0868L35.2123 48.1558L35.3199 48.6945L35.6648 48.6256ZM35.3419 47.0093L35.2342 46.4706L34.8893 46.5395L34.997 47.0782L35.3419 47.0093ZM35.2342 46.5396C35.252 46.4505 35.245 46.3611 35.2082 46.2765C35.1723 46.1939 35.1129 46.1269 35.0429 46.0721L34.8262 46.3492C34.8635 46.3783 34.8791 46.4015 34.8857 46.4167C34.8914 46.4299 34.8943 46.4456 34.8893 46.4705L35.2342 46.5396ZM34.3459 45.793C34.2411 45.7683 34.1268 45.745 34.0035 45.7228L33.9412 46.0689C34.0597 46.0902 34.1676 46.1123 34.265 46.1353L34.3459 45.793ZM34.0035 45.7228C33.9019 45.7045 33.7658 45.6789 33.6001 45.6471L33.5338 45.9925C33.7 46.0244 33.8376 46.0503 33.9412 46.0689L34.0035 45.7228ZM32.7916 45.4891C32.5443 45.4402 32.2724 45.3861 31.9822 45.3281L31.9132 45.6729C32.2037 45.731 32.4758 45.7851 32.7234 45.8341L32.7916 45.4891ZM31.1732 45.166C30.9111 45.1133 30.6402 45.0588 30.364 45.0032L30.2946 45.348C30.5708 45.4036 30.8417 45.4581 31.104 45.5108L31.1732 45.166ZM29.5549 44.8402C29.4204 44.813 29.2854 44.7858 29.1504 44.7586L29.0809 45.1034C29.2159 45.1306 29.3509 45.1578 29.4854 45.1849L29.5549 44.8402ZM29.1504 44.7586C29.0118 44.7307 28.8732 44.7027 28.7349 44.6748L28.6654 45.0196C28.8037 45.0475 28.9423 45.0754 29.0809 45.1034L29.1504 44.7586ZM27.9039 44.5074C27.6205 44.4503 27.3422 44.3943 27.0727 44.3402L27.0034 44.685C27.2729 44.7391 27.5512 44.7951 27.8345 44.8522L27.9039 44.5074ZM26.2414 44.1737C25.9434 44.1142 25.6639 44.0585 25.4094 44.0083L25.3412 44.3533C25.5954 44.4035 25.8747 44.4591 26.1725 44.5186L26.2414 44.1737ZM24.577 43.8457C24.4066 43.813 24.2652 43.7865 24.1586 43.7674L24.0965 44.1135C24.2011 44.1323 24.3409 44.1585 24.5108 44.1911L24.577 43.8457ZM24.1586 43.7674C24.007 43.7402 23.8649 43.717 23.7303 43.6984L23.6822 44.0468C23.811 44.0646 23.9482 44.0869 24.0965 44.1135L24.1586 43.7674ZM22.8461 43.6515C22.5489 43.6694 22.2696 43.7283 21.9671 43.8341L22.0832 44.1661C22.3585 44.0698 22.6057 44.0183 22.8673 44.0025L22.8461 43.6515ZM21.1657 44.1856C21.0451 44.2464 20.9182 44.3129 20.7837 44.3851L20.95 44.695C21.0826 44.6238 21.2068 44.5588 21.3241 44.4997L21.1657 44.1856ZM20.7837 44.3851C20.6883 44.4362 20.5693 44.5012 20.4301 44.578L20.5999 44.886C20.7385 44.8095 20.8562 44.7453 20.95 44.695L20.7837 44.3851ZM19.7213 44.9726C19.5055 45.0936 19.2694 45.2264 19.0179 45.3682L19.1907 45.6745C19.4419 45.5328 19.6777 45.4002 19.8933 45.2794L19.7213 44.9726ZM18.3149 45.7655C18.0874 45.8944 17.8522 46.0277 17.6121 46.164L17.7858 46.4699C18.0258 46.3336 18.2608 46.2003 18.4882 46.0716L18.3149 45.7655ZM16.9096 46.5632C16.6769 46.6955 16.4422 46.8291 16.2077 46.9627L16.3818 47.2683C16.6162 47.1348 16.8509 47.0012 17.0835 46.8689L16.9096 46.5632ZM15.5059 47.3627C15.2686 47.498 15.0339 47.6319 14.8042 47.763L14.9786 48.0685C15.2082 47.9374 15.4429 47.8035 15.6802 47.6682L15.5059 47.3627ZM14.1034 48.1632C13.8585 48.3031 13.6233 48.4375 13.4014 48.5644L13.5759 48.8698C13.7978 48.7429 14.033 48.6085 14.2779 48.4686L14.1034 48.1632ZM12.7002 48.9653C12.5761 49.0363 12.4595 49.103 12.3516 49.1647L12.5262 49.47C12.6341 49.4083 12.7507 49.3416 12.8748 49.2706L12.7002 48.9653ZM12.3516 49.1647L12.185 49.2599L12.3596 49.5653L12.5262 49.47L12.3516 49.1647ZM11.8519 49.4504L11.6853 49.5457L11.8598 49.851L12.0264 49.7558L11.8519 49.4504ZM11.6853 49.5456C11.5928 49.5985 11.5073 49.6502 11.4291 49.7007L11.62 49.9961C11.6919 49.9496 11.7718 49.9013 11.8598 49.8511L11.6853 49.5456ZM10.9428 50.1062C10.8534 50.2177 10.7915 50.3458 10.798 50.487L11.1493 50.4709C11.1482 50.447 11.1573 50.4009 11.2172 50.3262L10.9428 50.1062Z" fill="#EAEDF2" mask="url(#path-6-outside-1_211_18383)"/>
<path d="M34.9746 57.0064C33.9322 57.7639 28.395 61.0569 27.23 61.905C26.0649 62.7531 25.3683 62.8436 24.2644 62.5423C23.1604 62.2411 16.2978 60.777 15.0384 60.4332C14.4048 60.2648 14.0638 60.0898 14.0223 59.8824L13.6047 57.7922C13.6047 57.7922 21.583 54.7681 22.8334 54.0944C24.0838 53.4206 24.546 53.3364 25.7666 53.5553C26.9873 53.7741 34.0625 53.8744 35.2696 54.0867L35.6813 56.1473C35.7242 56.3618 35.5063 56.6114 34.9743 57.005L34.9746 57.0064Z" fill="#A32422"/>
<path d="M34.5839 54.9615C33.5407 55.7167 28.0023 59.0118 26.8347 59.8492C25.6672 60.6866 24.9729 60.7898 23.869 60.4898C22.7651 60.1898 15.901 58.7247 14.6422 58.3849C13.3834 58.0451 13.2883 57.6843 14.3367 57.0855C15.3851 56.4868 21.2689 53.12 22.519 52.443C23.7691 51.766 24.2317 51.6831 25.4529 51.9035C26.6741 52.1239 33.1085 53.4453 34.3107 53.6629C35.5129 53.8804 35.6295 54.1957 34.5816 54.9502L34.5839 54.9615Z" fill="#DC382C"/>
<path d="M34.3373 53.6683C33.2947 54.4245 27.7572 57.716 26.5899 58.5529C25.4225 59.3898 24.7344 59.492 23.6301 59.1893C22.5259 58.8867 15.6601 57.4376 14.401 57.0952C13.7669 56.924 13.4261 56.7504 13.3844 56.5415L12.9681 54.4583C12.9681 54.4583 20.9454 51.4286 22.1958 50.7548C23.4462 50.081 23.9081 49.9954 25.1299 50.2199C26.3517 50.4444 33.4247 50.5334 34.6324 50.7485L35.0441 52.8091C35.087 53.0237 34.8702 53.279 34.3373 53.6683Z" fill="#A32422"/>
<path d="M33.9464 51.6142C32.9038 52.3722 27.3651 55.666 26.1976 56.5034C25.03 57.3408 24.336 57.4454 23.2318 57.144C22.1276 56.8426 15.2654 55.3873 14.0057 55.0433C12.7461 54.6993 12.654 54.3452 13.7009 53.7467C14.7478 53.1482 20.632 49.7754 21.8846 49.1111C23.1373 48.4468 23.5962 48.3456 24.8163 48.5603C26.0363 48.7751 32.4747 50.1163 33.6747 50.3226C34.8747 50.5288 34.9938 50.8568 33.9456 51.6099L33.9464 51.6142Z" fill="#DC382C"/>
<path d="M33.675 50.2052C32.6326 50.9628 27.0954 54.2557 25.9278 55.0912C24.7602 55.9266 24.0723 56.0303 22.9687 55.7304C21.865 55.4306 14.9978 53.9745 13.7387 53.6321C13.1051 53.4637 12.7641 53.2887 12.7223 53.0798L12.3047 50.9896C12.3047 50.9896 20.283 47.9655 21.5337 47.2931C22.7844 46.6207 23.2461 46.5337 24.4667 46.7526C25.6873 46.9714 32.7597 47.0722 33.9673 47.2873L34.3791 49.3479C34.4255 49.5648 34.2081 49.8173 33.675 50.2052Z" fill="#A32422"/>
<path d="M33.2855 48.1534C32.2406 48.9002 26.705 52.2095 25.5363 53.0412C24.3676 53.873 23.6742 53.9804 22.5706 53.6818C21.467 53.3832 14.6036 51.9223 13.3445 51.5811C12.0854 51.24 11.9907 50.8805 13.0391 50.2818C14.0875 49.683 19.9704 46.3119 21.2217 45.6405C22.4729 44.9691 22.9347 44.882 24.1556 45.101C25.3765 45.32 31.8115 46.6443 33.0134 46.8604C34.2154 47.0766 34.3325 47.3947 33.2846 48.1492L33.2855 48.1534Z" fill="#DC382C"/>
<path d="M23.0254 46.5849L24.3826 45.9095L24.1572 46.84L25.7208 47.1083L23.8656 47.6015L23.6212 48.6179L22.7364 47.6742L20.5161 47.8506L22.044 47.0373L21.3931 46.2793L23.0254 46.5849Z" fill="white"/>
<path d="M24.1729 52.0955L20.3808 51.3156L25.3031 49.7633L24.1729 52.0955Z" fill="white"/>
<path d="M18.496 48.8372C19.9877 48.5921 21.2837 48.8287 21.3855 49.3615C21.4872 49.8943 20.3546 50.5299 18.8659 50.7745C17.3772 51.0191 16.0767 50.7832 15.975 50.2504C15.8733 49.7177 17.0028 49.0825 18.496 48.8372Z" fill="white"/>
<path d="M28.0088 46.9988L31.2122 47.6043L28.4308 49.193L28.0088 46.9988Z" fill="#741113"/>
<path d="M28.0099 46.9997L28.4319 49.194L28.1292 49.365L24.9273 48.7593L28.0099 46.9997Z" fill="#AC2724"/>
<defs>
<clipPath id="clip0_211_18383">
<rect width="84" height="32" fill="white" transform="translate(15)"/>
</clipPath>
</defs>
</svg>
