<svg width="16" height="14" viewBox="0 0 16 14" fill="none" xmlns="http://www.w3.org/2000/svg">
<path id="github" d="M8.00031 0.000281402C7.0494 -0.00810186 6.10616 0.170901 5.22444 0.527068C4.34271 0.883236 3.53978 1.40959 2.86149 2.07608C2.18319 2.74257 1.64282 3.53614 1.27123 4.41148C0.899643 5.28681 0.704111 6.22677 0.695801 7.17767C0.703459 8.69446 1.19062 10.17 2.0876 11.3931C2.98457 12.6163 4.24541 13.5244 5.68975 13.9877C6.05482 14.0551 6.18891 13.8327 6.18891 13.6428C6.18891 13.4722 6.18271 13.0227 6.17961 12.422C4.14808 12.8553 3.71868 11.4593 3.71868 11.4593C3.58192 11.0235 3.2938 10.651 2.90638 10.4091C2.24444 9.96415 2.95753 9.97345 2.95753 9.97345C3.18792 10.0035 3.4084 10.0858 3.60222 10.2139C3.79603 10.342 3.95807 10.5127 4.076 10.7129C4.28091 11.0722 4.6191 11.3362 5.01733 11.448C5.41556 11.5597 5.84176 11.51 6.20364 11.3097C6.23769 10.9442 6.40288 10.6033 6.66869 10.3501C5.04642 10.1703 3.34198 9.55335 3.34198 6.8033C3.33168 6.08776 3.60149 5.39653 4.09382 4.87719C3.86528 4.26007 3.8881 3.57789 4.15738 2.97743C4.15738 2.97743 4.76893 2.7852 6.16566 3.71299C7.36164 3.38995 8.62192 3.38995 9.81791 3.71299C11.2053 2.78288 11.8177 2.97743 11.8177 2.97743C12.0829 3.57833 12.1089 4.25774 11.8905 4.87719C12.3807 5.39765 12.6492 6.0884 12.6393 6.8033C12.6393 9.56032 10.934 10.1672 9.30635 10.3439C9.47895 10.5171 9.6123 10.7254 9.69736 10.9546C9.78241 11.1838 9.81718 11.4286 9.79931 11.6725C9.79931 12.6328 9.79001 13.4048 9.79001 13.6381C9.79001 13.8265 9.9179 14.0505 10.2923 13.9791C11.7403 13.5224 13.006 12.6176 13.9067 11.3952C14.8074 10.1729 15.2967 8.69605 15.304 7.17767C15.2871 5.25743 14.5081 3.42256 13.1384 2.07659C11.7687 0.730615 9.92056 -0.0162366 8.00031 0.000281402Z" fill="white"/>
</svg>
