<svg viewBox="0 0 22 21" fill="none" xmlns="http://www.w3.org/2000/svg">
<path id="github" d="M11.3227 0.000408436C9.94253 -0.0117593 8.57347 0.248051 7.29371 0.765004C6.01395 1.28196 4.84855 2.04593 3.86405 3.01329C2.87955 3.98066 2.09524 5.13247 1.5559 6.40296C1.01657 7.67345 0.732765 9.03773 0.720703 10.4179C0.731819 12.6194 1.4389 14.761 2.7408 16.5364C4.0427 18.3117 5.87272 19.6298 7.96908 20.3022C8.49895 20.4 8.69358 20.0772 8.69358 19.8015C8.69358 19.554 8.68458 18.9015 8.68008 18.0297C5.73145 18.6585 5.1082 16.6324 5.1082 16.6324C4.90971 15.9999 4.49153 15.4592 3.9292 15.108C2.96845 14.4623 4.00345 14.4758 4.00345 14.4758C4.33784 14.5195 4.65786 14.6388 4.93917 14.8248C5.22048 15.0108 5.45566 15.2585 5.62683 15.549C5.92424 16.0705 6.41511 16.4538 6.99311 16.6159C7.57111 16.7781 8.18972 16.706 8.71495 16.4153C8.76438 15.8848 9.00414 15.39 9.38995 15.0225C7.03533 14.7615 4.56145 13.866 4.56145 9.87453C4.5465 8.83597 4.93812 7.8327 5.6527 7.07891C5.32098 6.1832 5.35411 5.19307 5.74495 4.32153C5.74495 4.32153 6.63258 4.04253 8.65983 5.38916C10.3957 4.92028 12.2249 4.92028 13.9608 5.38916C15.9746 4.03916 16.8633 4.32153 16.8633 4.32153C17.2482 5.1937 17.2861 6.17982 16.9691 7.07891C17.6806 7.83432 18.0703 8.8369 18.0558 9.87453C18.0558 13.8762 15.5808 14.757 13.2183 15.0135C13.4689 15.2649 13.6624 15.5671 13.7859 15.8998C13.9093 16.2325 13.9598 16.5879 13.9338 16.9418C13.9338 18.3357 13.9203 19.4562 13.9203 19.7948C13.9203 20.0682 14.106 20.3933 14.6493 20.2898C16.7511 19.6268 18.5881 18.3136 19.8954 16.5394C21.2027 14.7652 21.9129 12.6217 21.9236 10.4179C21.8989 7.63081 20.7683 4.96761 18.7803 3.01403C16.7923 1.06044 14.1098 -0.0235663 11.3227 0.000408436Z" fill="white"/>
</svg>
