<svg width="18" height="19" viewBox="0 0 18 19" fill="none" xmlns="http://www.w3.org/2000/svg">
<path id="Path 9378" d="M9.0768 18.3201C14.2701 18.3201 17.7203 14.6747 17.7203 9.52882C17.7204 9.02597 17.6712 8.52433 17.5734 8.03108H9.0768V11.1241H14.1848C13.9471 12.2795 13.2984 13.3095 12.3591 14.023C11.4198 14.7365 10.2536 15.0852 9.0768 15.0044C7.56931 15.0044 6.12357 14.4055 5.05761 13.3396C3.99166 12.2736 3.39281 10.8279 3.39281 9.3204C3.39281 7.81292 3.99166 6.36717 5.05761 5.30122C6.12357 4.23526 7.56931 3.63641 9.0768 3.63641C10.408 3.60853 11.6965 4.10689 12.6624 5.02331L15.1056 2.67866C13.4794 1.13806 11.3167 0.292196 9.0768 0.320753C7.89495 0.320753 6.72467 0.553536 5.63278 1.00581C4.54089 1.45809 3.54878 2.12099 2.71308 2.95669C1.87739 3.79238 1.21448 4.7845 0.762206 5.87639C0.309931 6.96827 0.0771484 8.13855 0.0771484 9.3204C0.0771484 10.5023 0.309931 11.6725 0.762206 12.7644C1.21448 13.8563 1.87739 14.8484 2.71308 15.6841C3.54878 16.5198 4.54089 17.1827 5.63278 17.635C6.72467 18.0873 7.89495 18.3201 9.0768 18.3201Z" fill="white"/>
</svg>
