<svg width="14" height="14" viewBox="0 0 14 14" fill="none" xmlns="http://www.w3.org/2000/svg">
<path id="Path 9378" d="M7.1384 14C11.1776 14 13.8611 11.1647 13.8611 7.16237C13.8612 6.77127 13.8229 6.3811 13.7469 5.99747H7.1384V8.40317H11.1113C10.9264 9.3018 10.4219 10.1029 9.69131 10.6579C8.96074 11.2128 8.0537 11.484 7.1384 11.4212C5.96591 11.4212 4.84144 10.9554 4.01236 10.1263C3.18329 9.29723 2.71752 8.17276 2.71752 7.00027C2.71752 5.82778 3.18329 4.70331 4.01236 3.87424C4.84144 3.04516 5.96591 2.57939 7.1384 2.57939C8.17379 2.5577 9.17593 2.94532 9.92724 3.65809L11.8275 1.83447C10.5627 0.636231 8.88053 -0.0216668 7.1384 0.000544655C6.21918 0.000544641 5.30897 0.181598 4.45972 0.533367C3.61047 0.885136 2.83883 1.40073 2.18884 2.05072C1.53886 2.7007 1.02326 3.47235 0.671494 4.32159C0.319725 5.17084 0.138672 6.08105 0.138672 7.00027C0.138672 7.91949 0.319725 8.82971 0.671494 9.67895C1.02326 10.5282 1.53886 11.2998 2.18884 11.9498C2.83883 12.5998 3.61047 13.1154 4.45972 13.4672C5.30897 13.8189 6.21918 14 7.1384 14Z" fill="white"/>
</svg>
