<svg viewBox="0 0 35 34" fill="none" xmlns="http://www.w3.org/2000/svg">
<path d="M34.5 17.4077C34.5 16.2596 34.3866 15.0744 34.1977 13.9633H17.8354V20.5188H27.2068C26.829 22.6298 25.5819 24.4817 23.7303 25.6668L29.323 29.926C32.6106 26.9261 34.5 22.5558 34.5 17.4077Z" fill="#4280EF"/>
<path d="M17.8354 34C22.5211 34 26.4511 32.4816 29.323 29.889L23.7303 25.6668C22.181 26.7038 20.1782 27.2965 17.8354 27.2965C13.3008 27.2965 9.48416 24.2965 8.086 20.2966L2.34218 24.6298C5.28966 30.3705 11.2602 34 17.8354 34Z" fill="#34A353"/>
<path d="M8.08599 20.2596C7.36802 18.1485 7.36802 15.8522 8.08599 13.7412L2.34218 9.37087C-0.11406 14.1856 -0.114058 19.8522 2.34218 24.6298L8.08599 20.2596Z" fill="#F6B704"/>
<path d="M17.8354 6.74126C20.2916 6.70422 22.7101 7.63013 24.4861 9.29677L29.4364 4.40797C26.2999 1.51914 22.1432 -0.0363899 17.8354 0.000646391C11.2602 0.000646391 5.28966 3.63024 2.34218 9.37087L8.08599 13.7412C9.48416 9.7042 13.3008 6.74126 17.8354 6.74126Z" fill="#E54335"/>
</svg>
