<svg viewBox="0 0 39 31" fill="none" xmlns="http://www.w3.org/2000/svg">
<g id="GC logo">
<path id="Path 940" d="M24.5124 8.75543H25.6474L28.8894 5.51343L29.0484 4.13743C27.1913 2.49948 24.9474 1.36181 22.5285 0.831816C20.1096 0.301821 17.5955 0.396985 15.2236 1.10832C12.8517 1.81966 10.7002 3.12371 8.97223 4.89737C7.24422 6.67103 5.99668 8.8558 5.34741 11.2454C5.70869 11.0973 6.10888 11.073 6.48541 11.1764L12.9684 10.1074C12.9684 10.1074 13.2984 9.56143 13.4684 9.59643C14.8578 8.07082 16.7778 7.13396 18.8354 6.97762C20.8929 6.82127 22.9325 7.45728 24.5364 8.75543H24.5124Z" fill="#EA4335"/>
<path id="Path 941" d="M33.5101 11.2484C32.7662 8.50378 31.2369 6.0361 29.1101 4.14844L24.561 8.69743C25.5094 9.47227 26.2695 10.4524 26.7838 11.5638C27.2981 12.6752 27.5534 13.889 27.5302 15.1134V15.9214C28.6043 15.9214 29.6344 16.3481 30.3939 17.1077C31.1534 17.8672 31.5801 18.8973 31.5801 19.9714C31.5801 21.0456 31.1534 22.0757 30.3939 22.8352C29.6344 23.5947 28.6043 24.0214 27.5302 24.0214H19.4301L18.6221 24.8404V29.6974L19.4301 30.5054H27.5302C29.7918 30.523 31.9989 29.8121 33.8252 28.4779C35.6515 27.1438 36.9999 25.2572 37.6708 23.0973C38.3417 20.9374 38.2995 18.6189 37.5505 16.4848C36.8016 14.3507 35.3856 12.5144 33.5121 11.2474L33.5101 11.2484Z" fill="#4285F4"/>
<path id="Path 942" d="M11.319 30.4584H19.419V23.9753H11.319C10.7416 23.9757 10.171 23.8516 9.646 23.6113L8.508 23.9634L5.24399 27.2053L4.95898 28.3434C6.79014 29.7252 9.02401 30.4681 11.318 30.4584H11.319Z" fill="#34A853"/>
<path id="Path 943" d="M11.3195 9.42944C9.12613 9.44339 6.99184 10.1419 5.21452 11.4272C3.4372 12.7126 2.10555 14.5208 1.40542 16.5995C0.705301 18.6782 0.671643 20.9236 1.30915 23.0223C1.94666 25.1211 3.22351 26.9684 4.96151 28.3065L9.66151 23.6064C9.06459 23.3367 8.54201 22.9263 8.13862 22.4102C7.73522 21.8942 7.46304 21.2879 7.34544 20.6436C7.22784 19.9992 7.26833 19.3359 7.46343 18.7106C7.65852 18.0853 8.00241 17.5167 8.46558 17.0535C8.92874 16.5904 9.49736 16.2465 10.1227 16.0514C10.7479 15.8563 11.4112 15.8158 12.0556 15.9334C12.7 16.051 13.3062 16.3232 13.8223 16.7266C14.3383 17.13 14.7488 17.6525 15.0185 18.2494L19.7185 13.5494C18.732 12.2609 17.461 11.2179 16.0047 10.5018C14.5484 9.78569 12.9463 9.41596 11.3235 9.42145L11.3195 9.42944Z" fill="#FBBC05"/>
</g>
</svg>
