<svg width="17" height="17" viewBox="0 0 17 17" fill="none" xmlns="http://www.w3.org/2000/svg">
<g id="hand">
<path id="Vector" d="M7.48756 14.875C7.48756 14.875 8.61806 14.7768 8.93633 14.0291C9.26547 13.2555 8.64261 12.9392 8.64261 12.9392C8.64261 12.9392 9.54644 12.9671 9.88078 12.023C10.1962 11.1333 9.42839 10.725 9.42839 10.725C9.42839 10.725 10.3119 10.5801 10.5697 9.64309C10.7865 8.85434 10.0187 8.26667 10.0187 8.26667H15.7836C16.2364 8.26667 16.9995 8.01083 17 7.06631C17.0009 6.12227 16.2166 5.90655 15.7836 5.90655H6.103C5.63078 5.90655 5.63078 5.43453 6.103 5.43453H7.36194C9.15261 5.43453 10.2628 4.47254 10.5693 4.13599C10.8762 3.79944 11.0316 3.34913 10.9159 2.80489C10.7199 1.88161 10.0092 2.08316 9.40619 2.34466C7.95269 2.97576 5.88153 3.4086 4.90214 3.5403C2.13586 3.91367 0.0028344 6.28228 1.06807e-06 9.14983C-0.00188782 12.2775 2.50183 14.8726 5.63078 14.875H7.48756Z" fill="#FFC76B"/>
</g>
</svg>
