<svg width="18" height="18" viewBox="0 0 18 18" fill="none" xmlns="http://www.w3.org/2000/svg">
<g id="Modules">
<path id="Vector" d="M12.9912 13.962C11.5467 13.3545 10.7212 12.9904 10.7212 12.9904C9.8641 13.3808 8.93933 13.6008 7.99828 13.6384C3.6656 13.8814 2.38638 11.5324 2.79915 11.0873C2.84006 11.5733 4.40851 13.274 7.99828 13.112C8.92429 13.0603 9.8332 12.8406 10.6807 12.4639C10.7112 12.4443 10.7467 12.434 10.783 12.434C10.8192 12.434 10.8547 12.4443 10.8852 12.4639C10.8852 12.4639 12.0405 12.9495 13.2371 13.476C14.6399 14.0835 15.3005 13.3124 15.2588 12.9904C15.7338 13.3946 15.2371 14.2271 14.1416 14.2271C13.744 14.2186 13.3524 14.1284 12.9912 13.962ZM12.9912 12.2618C11.5467 11.6539 10.7212 11.2898 10.7212 11.2898C9.86412 11.6802 8.93933 11.9003 7.99828 11.9378C3.6656 12.1804 2.38638 9.8318 2.79915 9.38671C2.84006 9.8318 4.40851 11.5733 7.99828 11.3708C8.92424 11.3191 9.83312 11.0997 10.6807 10.7232C10.7112 10.7037 10.7467 10.6934 10.783 10.6934C10.8192 10.6934 10.8547 10.7037 10.8852 10.7232C10.8852 10.7232 12.0405 11.2088 13.2371 11.7353C14.6399 12.3019 15.3005 11.5717 15.2588 11.2898C15.7338 11.694 15.2371 12.5269 14.1412 12.5269C13.7437 12.5184 13.3523 12.4282 12.9912 12.2618ZM14.0226 10.6827C13.7387 10.6915 13.4565 10.6356 13.1974 10.5191L10.7629 9.42606C8.76242 10.1756 6.55335 10.1463 4.57337 9.34416C3.4181 8.81807 2.7165 8.08907 2.55164 7.23898C2.388 6.34757 2.79709 5.49795 3.78954 4.84995C4.84199 4.18862 6.054 3.82486 7.29668 3.79736C8.5653 3.69725 9.83932 3.90549 11.01 4.40441C12.1653 4.89041 12.8669 5.61945 13.0321 6.46954C13.1156 6.94328 13.0277 7.43127 12.7842 7.84613L14.8477 8.77757C15.0037 8.83734 15.1422 8.93539 15.2503 9.06271C15.3585 9.19004 15.4329 9.34254 15.4666 9.50616C15.5009 9.67924 15.4794 9.85872 15.4053 10.0188C15.3311 10.1789 15.2081 10.3114 15.0539 10.3972C14.784 10.5752 14.4693 10.6735 14.1461 10.6807L14.0226 10.6827ZM10.8869 8.86026L13.4449 9.99425C13.655 10.0777 13.8792 10.1194 14.1052 10.117C14.3076 10.1061 14.5051 10.0501 14.6832 9.9533C14.7651 9.91239 14.8878 9.78972 14.8469 9.66986C14.8218 9.60469 14.7831 9.54568 14.7332 9.49677C14.6834 9.44787 14.6237 9.41016 14.558 9.38631L12.1649 8.29327C12.0895 8.2456 12.032 8.17438 12.0012 8.09072C11.9603 8.0089 12.0012 7.92709 12.0421 7.84772C12.1798 7.68006 12.2803 7.48509 12.3372 7.27574C12.394 7.06638 12.4058 6.84739 12.3719 6.63314C12.2491 5.98514 11.6703 5.3781 10.7212 4.9731C9.64216 4.51057 8.46721 4.31604 7.29668 4.40611C6.1889 4.44354 5.10921 4.76419 4.16061 5.33755C3.37679 5.86364 3.04665 6.47092 3.17019 7.15928C3.29292 7.80728 3.87177 8.41431 4.82086 8.81971C5.90003 9.28227 7.07514 9.47667 8.24577 9.38631C9.0674 9.34538 9.87641 9.16749 10.6394 8.85986C10.6556 8.84454 10.675 8.83287 10.6962 8.82581C10.7174 8.81874 10.7399 8.81641 10.7621 8.81892C10.8042 8.82014 10.8455 8.86026 10.8869 8.86026ZM7.75119 8.37467C7.18533 8.37298 6.62503 8.26301 6.10052 8.05067C5.86491 7.97657 5.65123 7.84541 5.47852 7.66885C5.30581 7.49228 5.17939 7.27572 5.1105 7.03853C5.08234 6.80855 5.12689 6.57554 5.23789 6.37216C5.3489 6.16878 5.52079 6.00526 5.72946 5.90454C6.2535 5.58588 6.84962 5.40495 7.46237 5.3785C8.12514 5.3335 8.78922 5.44433 9.40146 5.70209C9.64949 5.77869 9.87234 5.92058 10.0466 6.11298C10.2209 6.30539 10.3401 6.54115 10.3919 6.79553C10.3949 7.01083 10.3388 7.22286 10.2297 7.40847C10.1206 7.59408 9.96256 7.74614 9.77292 7.84812C9.23387 8.16699 8.62441 8.34788 7.99868 8.37467H7.75119ZM6.0596 6.43109C5.89596 6.51291 5.68856 6.71458 5.72988 6.91708C5.783 7.06392 5.87074 7.19572 5.98569 7.3014C6.10063 7.40709 6.23937 7.4835 6.39013 7.52413C6.91078 7.74586 7.47603 7.84299 8.04083 7.80767C8.55129 7.81565 9.05304 7.67493 9.48491 7.40268C9.57222 7.35095 9.64708 7.28056 9.70413 7.19663C9.76119 7.11271 9.79906 7.0173 9.81505 6.91708C9.75526 6.77423 9.66531 6.646 9.55135 6.54115C9.43739 6.4363 9.30212 6.35725 9.15479 6.30954C8.71424 6.11106 8.23464 6.01435 7.75159 6.02649H7.50615C6.99463 6.01788 6.49167 6.15847 6.05877 6.43109H6.0596Z"/>
</g>
</svg>
