<svg width="18" height="18" viewBox="0 0 18 18" fill="none" xmlns="http://www.w3.org/2000/svg">
<g id="Modules">
<path id="Vector" d="M5.89602 14.7041C5.85235 14.7046 5.80903 14.6965 5.76858 14.68C5.72813 14.6635 5.69137 14.6392 5.66049 14.6083C5.62961 14.5774 5.60523 14.5407 5.58878 14.5002C5.57232 14.4598 5.56411 14.4165 5.56466 14.3728V12.7143H6.18566V14.041H14.6747V6.78493H12.1903C12.1466 6.78548 12.1032 6.77724 12.0627 6.76076C12.0223 6.74427 11.9855 6.71987 11.9546 6.68895C11.9237 6.65802 11.8994 6.62128 11.8829 6.58078C11.8665 6.54028 11.8583 6.49684 11.8589 6.45314V3.88284H6.18566V5.25084H5.56466V3.5928C5.56094 3.55005 5.56735 3.50707 5.58336 3.46726C5.59936 3.42745 5.62452 3.39197 5.65679 3.36369C5.68906 3.3354 5.72751 3.31511 5.76908 3.30446C5.81064 3.29381 5.85413 3.29308 5.89602 3.30236H12.3147C12.3556 3.30236 12.3556 3.3023 12.3965 3.34321L15.2122 6.2478C15.2553 6.29295 15.2838 6.3499 15.2941 6.41139V6.45234L15.335 14.372C15.3355 14.4157 15.3273 14.459 15.3109 14.4994C15.2944 14.5399 15.27 14.5766 15.2391 14.6075C15.2083 14.6384 15.1715 14.6627 15.1311 14.6792C15.0906 14.6957 15.0473 14.7038 15.0036 14.7033L5.89602 14.7041ZM12.4803 6.1623H14.2607L12.4803 4.33817V6.1623ZM7.13762 11.0972C7.2483 11.0917 7.3548 11.0532 7.44339 10.9866C7.53198 10.92 7.59859 10.8284 7.63465 10.7236V9.43833L7.96562 9.06519L7.67598 8.69126V7.40635C7.67598 7.15763 7.55326 7.03282 7.22067 7.03282V6.41099C7.35779 6.40096 7.49551 6.41922 7.62529 6.46463C7.75507 6.51003 7.87412 6.58164 7.97508 6.67497C8.07604 6.76829 8.15674 6.88134 8.21219 7.00715C8.26763 7.13297 8.29663 7.26887 8.29738 7.40635V8.48431L8.75271 9.06479L8.29738 9.64487V10.7228C8.25551 11.0001 8.11542 11.2533 7.90262 11.4359C7.68982 11.6186 7.41848 11.7188 7.13802 11.7182L7.13762 11.0972ZM3.07902 10.7236V9.64567L2.66504 9.06559L3.07902 8.48511V7.40715C3.07902 6.78493 3.53476 6.41189 4.23881 6.41189V7.03362C4.0314 7.03362 3.74175 7.11547 3.74175 7.40715V8.69215L3.45211 9.06599L3.70043 9.43913V10.7245C3.70043 10.8473 3.99048 11.098 4.19748 11.098V11.7198C3.92359 11.7126 3.6611 11.6086 3.45653 11.4264C3.25196 11.2441 3.11851 10.9953 3.07985 10.724L3.07902 10.7236ZM5.52211 10.9724C5.4812 10.9724 5.39939 10.8906 5.39939 10.8906V10.8497C5.49995 10.7797 5.58245 10.6868 5.64006 10.5787C5.69768 10.4706 5.72876 10.3503 5.73075 10.2278H5.68985C5.57983 10.2278 5.47431 10.1842 5.39651 10.1064C5.31872 10.0286 5.27502 9.92308 5.27502 9.81306C5.27502 9.70304 5.31872 9.59752 5.39651 9.51973C5.47431 9.44193 5.57983 9.39818 5.68985 9.39818C5.74745 9.39958 5.80415 9.41267 5.85654 9.43663C5.90894 9.46058 5.95593 9.49496 5.99467 9.5376C6.03341 9.58025 6.0631 9.63027 6.08194 9.68472C6.10077 9.73917 6.10837 9.79684 6.10426 9.85431C6.11701 10.0713 6.07426 10.288 5.98006 10.4839C5.88587 10.6798 5.74333 10.8485 5.56588 10.974L5.52211 10.9724ZM5.27379 7.90424C5.27387 7.82237 5.29824 7.74235 5.34378 7.67432C5.38932 7.60629 5.45399 7.55328 5.52965 7.52201C5.6053 7.49074 5.68855 7.48262 5.76883 7.49864C5.84911 7.51466 5.92283 7.55408 5.98069 7.612C6.03855 7.66991 6.07793 7.74374 6.09387 7.82404C6.10981 7.90433 6.1016 7.98751 6.07025 8.06314C6.0389 8.13876 5.98584 8.20343 5.91777 8.24891C5.84969 8.29438 5.76967 8.31862 5.6878 8.31862C5.57824 8.31808 5.47333 8.27422 5.39594 8.19667C5.31855 8.11912 5.27494 8.01419 5.27462 7.90463L5.27379 7.90424Z"/>
</g>
</svg>
