<svg width="16" height="17" viewBox="0 0 16 17" fill="none" xmlns="http://www.w3.org/2000/svg">
<g id="Rocket">
<g id="Vector">
<path d="M8.46489 1.44882L7.9999 2.0998L7.53491 1.44882C7.81307 1.25013 8.18673 1.25013 8.46489 1.44882Z"/>
<path fill-rule="evenodd" clip-rule="evenodd" d="M7.9999 2.0998C8.46489 1.44882 8.46565 1.44936 8.46565 1.44936L8.46654 1.45L8.46871 1.45156L8.47457 1.4558L8.49224 1.46879C8.5066 1.47944 8.52608 1.49407 8.55018 1.51265C8.59837 1.54979 8.66518 1.60277 8.7468 1.67123C8.90985 1.80798 9.13312 2.00743 9.38557 2.26671C9.88842 2.78315 10.519 3.54917 11.0154 4.54203C11.5012 5.51366 11.8479 6.68443 11.8402 8.02014C11.8489 8.03183 11.8574 8.0438 11.8655 8.05605L13.4655 10.456C13.5906 10.6436 13.6307 10.8752 13.576 11.0938L12.776 14.2938C12.7129 14.5462 12.531 14.7522 12.2884 14.846C12.0457 14.9398 11.7726 14.9098 11.5561 14.7654L9.35769 13.2998H6.64213L4.44367 14.7654C4.2272 14.9098 3.95408 14.9398 3.71143 14.846C3.46877 14.7522 3.28689 14.5462 3.22379 14.2938L2.42379 11.0938C2.36913 10.8752 2.40924 10.6436 2.53427 10.456L4.13427 8.05605C4.14241 8.04382 4.15086 8.03187 4.1596 8.0202C4.15189 6.68446 4.49852 5.51367 4.98434 4.54203C5.48078 3.54916 6.11137 2.78315 6.61422 2.26671C6.86667 2.00743 7.08995 1.80797 7.253 1.67122C7.33462 1.60277 7.40143 1.54979 7.44962 1.51265C7.47372 1.49407 7.4932 1.47944 7.50756 1.46879L7.52523 1.4558L7.53109 1.45156L7.53326 1.45L7.53415 1.44936C7.53415 1.44936 7.53491 1.44882 7.9999 2.0998C7.9999 2.0998 5.1004 4.17086 4.96437 7.71688C4.94696 8.17075 4.97487 8.64878 5.05987 9.14972C5.2337 10.1742 5.64649 11.2943 6.39991 12.4998H9.59994C13.5999 6.0998 7.9999 2.0998 7.9999 2.0998ZM10.2655 12.9436C10.2699 12.9371 10.2741 12.9305 10.2783 12.9238C11.0874 11.6293 11.5361 10.4129 11.7275 9.29118L12.7999 10.8998L11.9999 14.0998L10.2655 12.9436ZM4.27229 9.29123C4.4637 10.413 4.9124 11.6293 5.72148 12.9238C5.72565 12.9305 5.7299 12.9371 5.73425 12.9436L3.99991 14.0998L3.19991 10.8998L4.27229 9.29123Z"/>
<path d="M7.19991 14.4998C6.97899 14.4998 6.79991 14.6789 6.79991 14.8998C6.79991 15.1207 6.97899 15.2998 7.19991 15.2998H8.79991C9.02082 15.2998 9.19991 15.1207 9.19991 14.8998C9.19991 14.6789 9.02082 14.4998 8.79991 14.4998H7.19991Z"/>
<path d="M8.7999 6.8998C8.7999 7.34163 8.44173 7.6998 7.9999 7.6998C7.55807 7.6998 7.1999 7.34163 7.1999 6.8998C7.1999 6.45798 7.55807 6.0998 7.9999 6.0998C8.44173 6.0998 8.7999 6.45798 8.7999 6.8998Z"/>
</g>
</g>
</svg>
