<svg width="37" height="38" viewBox="0 0 37 38" fill="none" xmlns="http://www.w3.org/2000/svg">
<path fill-rule="evenodd" clip-rule="evenodd" d="M18.5 35.4938C27.6093 35.4938 34.9938 28.1092 34.9938 19C34.9938 9.89075 27.6093 2.50625 18.5 2.50625C9.39076 2.50625 2.00625 9.89075 2.00625 19C2.00625 28.1092 9.39076 35.4938 18.5 35.4938ZM18.5 37.2C28.5516 37.2 36.7 29.0516 36.7 19C36.7 8.94842 28.5516 0.799999 18.5 0.799999C8.44842 0.799999 0.300003 8.94842 0.300003 19C0.300003 29.0516 8.44842 37.2 18.5 37.2Z" fill="#8BA2FF"/>
<path fill-rule="evenodd" clip-rule="evenodd" d="M18.7542 12.1817C17.7727 11.5337 16.5975 11.2445 15.4273 11.363C14.2572 11.4815 13.1639 12.0004 12.3322 12.8321C11.5006 13.6637 10.9816 14.7571 10.8631 15.9272C10.7446 17.0974 11.0338 18.2725 11.6818 19.254C12.3299 20.2355 13.297 20.9631 14.4196 21.3138C15.5422 21.6645 16.7515 21.6168 17.843 21.1787C18.0861 21.0812 18.3639 21.138 18.5491 21.3232L23.25 26.0241H25.5242V24.133H24.2587C23.8975 24.133 23.6047 23.8401 23.6047 23.4789V22.2134H22.3392C21.978 22.2134 21.6851 21.9206 21.6851 21.5594V19.9108L20.8234 19.049C20.6382 18.8638 20.5813 18.586 20.6789 18.3429C21.117 17.2514 21.1647 16.0421 20.814 14.9195C20.4633 13.7968 19.7357 12.8297 18.7542 12.1817ZM15.2955 10.0615C16.7656 9.91263 18.2419 10.276 19.4749 11.0901C20.708 11.9042 21.622 13.1191 22.0626 14.5294C22.4595 15.7998 22.4502 17.1585 22.0422 18.4178L22.8017 19.1774C22.9244 19.3 22.9933 19.4664 22.9933 19.6398V20.9053H24.2587C24.62 20.9053 24.9128 21.1981 24.9128 21.5594V22.8248H26.1783C26.5395 22.8248 26.8323 23.1177 26.8323 23.4789L26.8323 26.6781C26.8323 26.8516 26.7634 27.018 26.6408 27.1406C26.5181 27.2633 26.3517 27.3322 26.1783 27.3322H22.9791C22.8056 27.3322 22.6392 27.2633 22.5166 27.1406L17.918 22.542C16.6587 22.95 15.2999 22.9593 14.0295 22.5625C12.6192 22.1219 11.4043 21.2078 10.5902 19.9748C9.7761 18.7418 9.41277 17.2654 9.56164 15.7954C9.71052 14.3254 10.3625 12.9519 11.4072 11.9071C12.452 10.8623 13.8255 10.2104 15.2955 10.0615Z" fill="#8BA2FF"/>
<path d="M16.225 15.5876C16.225 14.9594 15.7157 14.4501 15.0875 14.4501C14.4593 14.4501 13.95 14.9594 13.95 15.5876C13.95 16.2159 14.4593 16.7251 15.0875 16.7251C15.7157 16.7251 16.225 16.2159 16.225 15.5876Z" fill="#8BA2FF"/>
</svg>
