<svg viewBox="0 0 25 23" fill="none" xmlns="http://www.w3.org/2000/svg">
<path fill-rule="evenodd" clip-rule="evenodd" d="M10 1.75098C10.2948 1.75098 10.5622 1.92363 10.6835 2.19227L13.367 8.13393L19.3087 10.8175C19.5773 10.9388 19.75 11.2062 19.75 11.501C19.75 11.7957 19.5773 12.0632 19.3087 12.1845L13.367 14.868L10.6835 20.8097C10.5622 21.0783 10.2948 21.251 10 21.251C9.70524 21.251 9.43781 21.0783 9.31648 20.8097L6.63295 14.868L0.691291 12.1845C0.422658 12.0632 0.25 11.7957 0.25 11.501C0.25 11.2062 0.422658 10.9388 0.691291 10.8175L6.63295 8.13393L9.31648 2.19227C9.43781 1.92363 9.70524 1.75098 10 1.75098ZM10 4.32308L7.88338 9.00954C7.80823 9.17594 7.67496 9.3092 7.50857 9.38435L2.8221 11.501L7.50857 13.6176C7.67496 13.6928 7.80823 13.826 7.88338 13.9924L10 18.6789L12.1166 13.9924C12.1918 13.826 12.325 13.6928 12.4914 13.6176L17.1779 11.501L12.4914 9.38435C12.325 9.3092 12.1918 9.17594 12.1166 9.00954L10 4.32308Z" fill="#FFAF2B"/>
<path fill-rule="evenodd" clip-rule="evenodd" d="M20.5 0.250977C20.8331 0.250977 21.1263 0.470718 21.2198 0.790459L21.7834 2.71755L23.7105 3.28113C24.0303 3.37464 24.25 3.66784 24.25 4.00098C24.25 4.33411 24.0303 4.62732 23.7105 4.72083L21.7834 5.2844L21.2198 7.21149C21.1263 7.53124 20.8331 7.75098 20.5 7.75098C20.1669 7.75098 19.8737 7.53124 19.7802 7.21149L19.2166 5.2844L17.2895 4.72083C16.9697 4.62732 16.75 4.33411 16.75 4.00098C16.75 3.66784 16.9697 3.37464 17.2895 3.28113L19.2166 2.71755L19.7802 0.790459C19.8737 0.470718 20.1669 0.250977 20.5 0.250977Z" fill="#FFAF2B"/>
<path fill-rule="evenodd" clip-rule="evenodd" d="M20.5 15.251C20.8331 15.251 21.1263 15.4707 21.2198 15.7905L21.7834 17.7176L23.7105 18.2811C24.0303 18.3746 24.25 18.6678 24.25 19.001C24.25 19.3341 24.0303 19.6273 23.7105 19.7208L21.7834 20.2844L21.2198 22.2115C21.1263 22.5312 20.8331 22.751 20.5 22.751C20.1669 22.751 19.8737 22.5312 19.7802 22.2115L19.2166 20.2844L17.2895 19.7208C16.9697 19.6273 16.75 19.3341 16.75 19.001C16.75 18.6678 16.9697 18.3746 17.2895 18.2811L19.2166 17.7176L19.7802 15.7905C19.8737 15.4707 20.1669 15.251 20.5 15.251Z" fill="#FFAF2B"/>
</svg>
