<svg width="120" height="142" viewBox="0 0 120 142" fill="none" xmlns="http://www.w3.org/2000/svg">
<g id="Group 41901">
<path id="Ellipse 714" d="M101.947 88.5965C113.523 94.6276 119.228 102.488 119.228 110.275C119.228 118.063 113.523 125.923 101.947 131.954C90.3777 137.982 75.1963 141.003 60 141.003C44.8037 141.003 29.6223 137.982 18.0529 131.954C6.47702 125.923 0.772222 118.063 0.772222 110.275C0.772222 102.488 6.47702 94.6276 18.0529 88.5965C29.6223 82.5688 44.8037 79.5476 60 79.5476C75.1963 79.5476 90.3777 82.5688 101.947 88.5965Z" fill="#80DBFF" stroke="#80DBFF" stroke-width="0.544444"/>
<g id="Group 41597">
<g id="Group 41590">
<g id="Union">
<path fill-rule="evenodd" clip-rule="evenodd" d="M22.622 107.65V91.8417C21.7745 85.8186 25.3412 79.6274 33.3221 75.0196C47.7516 66.6888 71.1463 66.6888 85.5758 75.0196C93.4738 79.5795 97.0488 85.6902 96.3008 91.654V107.837C97.0488 113.801 93.4738 119.912 85.5758 124.472L59.5846 109.466L59.4614 109.464L59.3127 109.466L33.3221 124.472C25.3412 119.864 21.7745 113.673 22.622 107.65Z" fill="#C795E3"/>
<path d="M22.622 107.65L22.9175 107.691L22.9204 107.671V107.65H22.622ZM22.622 91.8417H22.9204V91.8208L22.9175 91.8001L22.622 91.8417ZM33.3221 75.0196L33.4713 75.278L33.3221 75.0196ZM85.5758 75.0196L85.4266 75.278L85.5758 75.0196ZM96.3008 91.654L96.0048 91.6169L96.0025 91.6354V91.654H96.3008ZM96.3008 107.837H96.0025V107.856L96.0048 107.874L96.3008 107.837ZM85.5758 124.472L85.4266 124.73L85.5758 124.816L85.725 124.73L85.5758 124.472ZM59.5846 109.466L59.7338 109.207L59.6666 109.168L59.589 109.167L59.5846 109.466ZM59.4614 109.464L59.4658 109.165L59.4571 109.166L59.4614 109.464ZM59.3127 109.466L59.3083 109.168L59.2307 109.169L59.1635 109.208L59.3127 109.466ZM33.3221 124.472L33.1729 124.73L33.3221 124.816L33.4713 124.73L33.3221 124.472ZM22.9204 107.65V91.8417H22.3236V107.65H22.9204ZM22.9175 91.8001C22.0932 85.9419 25.5506 79.851 33.4713 75.278L33.1729 74.7612C25.1318 79.4037 21.4559 85.6953 22.3266 91.8832L22.9175 91.8001ZM33.4713 75.278C40.63 71.145 50.0314 69.0699 59.449 69.0699C68.8665 69.0699 78.2679 71.145 85.4266 75.278L85.725 74.7612C78.4542 70.5634 68.9435 68.4731 59.449 68.4731C49.9544 68.4731 40.4437 70.5634 33.1729 74.7612L33.4713 75.278ZM85.4266 75.278C93.2651 79.8036 96.7323 85.8159 96.0048 91.6169L96.5969 91.6911C97.3653 85.5645 93.6825 79.3555 85.725 74.7612L85.4266 75.278ZM96.0025 91.654V107.837H96.5992V91.654H96.0025ZM96.0048 107.874C96.7323 113.675 93.2651 119.688 85.4266 124.213L85.725 124.73C93.6825 120.136 97.3653 113.927 96.5969 107.8L96.0048 107.874ZM85.725 124.213L59.7338 109.207L59.4354 109.724L85.4266 124.73L85.725 124.213ZM59.589 109.167L59.4658 109.166L59.4571 109.762L59.5802 109.764L59.589 109.167ZM59.4571 109.166L59.3083 109.168L59.317 109.764L59.4658 109.762L59.4571 109.166ZM59.1635 109.208L33.1729 124.213L33.4713 124.73L59.4619 109.724L59.1635 109.208ZM33.4713 124.213C25.5506 119.64 22.0932 113.549 22.9175 107.691L22.3266 107.608C21.4559 113.796 25.1318 120.088 33.1729 124.73L33.4713 124.213Z" fill="#091A23"/>
</g>
<g id="base-face">
<path d="M33.3221 75.0196C18.8926 83.3505 18.8926 96.8575 33.3221 105.188L59.449 90.104L85.5758 105.188C100.005 96.8575 100.005 83.3505 85.5758 75.0196C71.1463 66.6888 47.7516 66.6888 33.3221 75.0196Z" fill="#C795E3"/>
<path d="M33.3221 105.188L33.1729 105.447H33.4713L33.3221 105.188ZM85.5758 105.188L85.4266 105.447H85.725L85.5758 105.188ZM59.449 90.104L59.5982 89.8456H59.2998L59.449 90.104ZM33.4713 104.93C26.3109 100.796 22.7984 95.4193 22.7984 90.104C22.7984 84.7887 26.3109 79.4121 33.4713 75.278L33.1729 74.7612C25.9038 78.958 22.2016 84.5003 22.2016 90.104C22.2016 95.7076 25.9038 101.25 33.1729 105.447L33.4713 104.93ZM33.4713 75.278C40.63 71.145 50.0314 69.0699 59.449 69.0699C68.8665 69.0699 78.2679 71.145 85.4266 75.278L85.725 74.7612C78.4542 70.5634 68.9435 68.4731 59.449 68.4731C49.9544 68.4731 40.4437 70.5634 33.1729 74.7612L33.4713 75.278ZM85.4266 75.278C92.587 79.4121 96.0995 84.7887 96.0995 90.104C96.0995 95.4193 92.587 100.796 85.4266 104.93L85.725 105.447C92.9941 101.25 96.6963 95.7076 96.6963 90.104C96.6963 84.5003 92.9941 78.958 85.725 74.7612L85.4266 75.278ZM33.4713 105.447L59.5982 90.3624L59.2998 89.8456L33.1729 104.93L33.4713 105.447ZM59.2998 90.3624L85.4266 105.447L85.725 104.93L59.5982 89.8456L59.2998 90.3624Z" fill="#091A23"/>
</g>
<g id="Group 41589">
<path id="Vector 291" d="M33.53 105.215L59.4511 90.1699L59.4512 109.315L33.53 124.302V105.215Z" fill="#F6FFC7" stroke="#091A23" stroke-width="0.596779"/>
<path id="Vector 292" d="M85.3724 105.215L59.4513 90.1699L59.4512 109.315L85.3724 124.302V105.215Z" fill="#F6FFC7" stroke="#091A23" stroke-width="0.596779"/>
</g>
</g>
<g id="Group 41591">
<g id="Union_2">
<path fill-rule="evenodd" clip-rule="evenodd" d="M22.622 83.2518L22.622 67.4452C21.7745 61.4221 25.3412 55.2309 33.3221 50.6231C47.7516 42.2923 71.1463 42.2923 85.5758 50.6231C93.4738 55.1831 97.0488 61.2937 96.3008 67.2575V83.4395C97.0488 89.4033 93.4738 95.5139 85.5758 100.074L59.5871 85.0692L59.4614 85.0674L59.3102 85.0696L33.3221 100.074C25.3412 95.4661 21.7745 89.2749 22.622 83.2518Z" fill="#C795E3"/>
<path d="M22.622 83.2518L22.9175 83.2934L22.9204 83.2727V83.2518H22.622ZM22.622 67.4452H22.9204V67.4243L22.9175 67.4036L22.622 67.4452ZM33.3221 50.6231L33.4713 50.8816L33.3221 50.6231ZM85.5758 50.6231L85.725 50.3647L85.5758 50.6231ZM96.3008 67.2575L96.0048 67.2204L96.0025 67.2389V67.2575H96.3008ZM96.3008 83.4395H96.0025V83.4581L96.0048 83.4766L96.3008 83.4395ZM85.5758 100.074L85.4266 100.332L85.5758 100.418L85.725 100.332L85.5758 100.074ZM59.5871 85.0692L59.7363 84.8108L59.669 84.772L59.5914 84.7709L59.5871 85.0692ZM59.4614 85.0674L59.4658 84.7689L59.4571 84.769L59.4614 85.0674ZM59.3102 85.0696L59.3058 84.7713L59.2282 84.7724L59.161 84.8112L59.3102 85.0696ZM33.3221 100.074L33.1729 100.332L33.3221 100.418L33.4713 100.332L33.3221 100.074ZM22.9204 83.2518V67.4452H22.3236L22.3236 83.2518H22.9204ZM22.9175 67.4036C22.0932 61.5454 25.5506 55.4546 33.4713 50.8816L33.1729 50.3647C25.1318 55.0072 21.4559 61.2988 22.3266 67.4868L22.9175 67.4036ZM33.4713 50.8816C40.63 46.7485 50.0314 44.6734 59.449 44.6734C68.8665 44.6734 78.2679 46.7485 85.4266 50.8816L85.725 50.3647C78.4542 46.167 68.9435 44.0766 59.449 44.0766C49.9544 44.0766 40.4437 46.167 33.1729 50.3647L33.4713 50.8816ZM85.4266 50.8816C93.2651 55.4071 96.7323 61.4194 96.0048 67.2204L96.5969 67.2947C97.3653 61.168 93.6825 54.959 85.725 50.3647L85.4266 50.8816ZM96.0025 67.2575V83.4395H96.5992V67.2575H96.0025ZM96.0048 83.4766C96.7323 89.2776 93.2651 95.2899 85.4266 99.8154L85.725 100.332C93.6825 95.738 97.3653 89.529 96.5969 83.4023L96.0048 83.4766ZM85.725 99.8154L59.7363 84.8108L59.4379 85.3277L85.4266 100.332L85.725 99.8154ZM59.5914 84.7709L59.4658 84.769L59.4571 85.3658L59.5827 85.3676L59.5914 84.7709ZM59.4571 84.769L59.3058 84.7713L59.3146 85.368L59.4658 85.3658L59.4571 84.769ZM59.161 84.8112L33.1729 99.8154L33.4713 100.332L59.4594 85.328L59.161 84.8112ZM33.4713 99.8154C25.5506 95.2424 22.0932 89.1516 22.9175 83.2934L22.3266 83.2103C21.4559 89.3982 25.1318 95.6898 33.1729 100.332L33.4713 99.8154Z" fill="#091A23"/>
</g>
<g id="base-face_2">
<path d="M33.3221 50.6212C18.8926 58.952 18.8926 72.459 33.3221 80.7899L59.449 65.7055L85.5758 80.7899C100.005 72.459 100.005 58.952 85.5758 50.6212C71.1463 42.2903 47.7516 42.2903 33.3221 50.6212Z" fill="#C795E3"/>
<path d="M33.3221 80.7899L33.1729 81.0483H33.4713L33.3221 80.7899ZM85.5758 80.7899L85.4266 81.0483H85.725L85.5758 80.7899ZM59.449 65.7055L59.5982 65.4471H59.2998L59.449 65.7055ZM33.4713 80.5315C26.3109 76.3974 22.7984 71.0208 22.7984 65.7055C22.7984 60.3903 26.3109 55.0136 33.4713 50.8796L33.1729 50.3628C25.9038 54.5596 22.2016 60.1019 22.2016 65.7055C22.2016 71.3092 25.9038 76.8515 33.1729 81.0483L33.4713 80.5315ZM33.4713 50.8796C40.63 46.7465 50.0314 44.6714 59.449 44.6714C68.8665 44.6714 78.2679 46.7465 85.4266 50.8796L85.725 50.3628C78.4542 46.165 68.9435 44.0747 59.449 44.0747C49.9544 44.0747 40.4437 46.165 33.1729 50.3628L33.4713 50.8796ZM85.4266 50.8796C92.587 55.0136 96.0995 60.3903 96.0995 65.7055C96.0995 71.0208 92.587 76.3974 85.4266 80.5315L85.725 81.0483C92.9941 76.8515 96.6963 71.3092 96.6963 65.7055C96.6963 60.1019 92.9941 54.5596 85.725 50.3628L85.4266 50.8796ZM33.4713 81.0483L59.5982 65.964L59.2998 65.4471L33.1729 80.5315L33.4713 81.0483ZM59.2998 65.964L85.4266 81.0483L85.725 80.5315L59.5982 65.4471L59.2998 65.964Z" fill="#091A23"/>
</g>
<g id="Group 41589_2">
<path id="Vector 291_2" d="M33.53 80.815L59.4511 65.7695L59.4512 84.9146L33.53 99.9012V80.815Z" fill="#F6FFC7" stroke="#091A23" stroke-width="0.596779"/>
<path id="Vector 292_2" d="M85.3724 80.815L59.4513 65.7695L59.4512 84.9146L85.3724 99.9012V80.815Z" fill="#F6FFC7" stroke="#091A23" stroke-width="0.596779"/>
</g>
</g>
<g id="Group 41592">
<g id="Union_3">
<path fill-rule="evenodd" clip-rule="evenodd" d="M22.6234 43.3456C21.7759 37.3225 25.3426 31.1313 33.3235 26.5235C47.753 18.1927 71.1477 18.1927 85.5772 26.5235C93.4752 31.0834 97.0502 37.1941 96.3022 43.1578V59.3524C97.0444 65.3127 93.4689 71.4186 85.5758 75.9756L59.5846 60.9696L59.4628 60.9678L59.3126 60.97L33.3221 75.9756C25.3369 71.3654 21.7707 65.1699 22.6234 59.1438V43.3456Z" fill="#C795E3"/>
<path d="M33.3235 26.5235L33.1743 26.2651L33.3235 26.5235ZM22.6234 43.3456H22.9218V43.3247L22.9189 43.304L22.6234 43.3456ZM85.5772 26.5235L85.7264 26.2651L85.5772 26.5235ZM96.3022 43.1578L96.0062 43.1207L96.0039 43.1392V43.1578H96.3022ZM96.3022 59.3524H96.0039V59.3709L96.0061 59.3893L96.3022 59.3524ZM85.5758 75.9756L85.4266 76.234L85.5758 76.3202L85.725 76.234L85.5758 75.9756ZM59.5846 60.9696L59.7338 60.7112L59.6665 60.6724L59.5889 60.6712L59.5846 60.9696ZM59.4628 60.9678L59.4672 60.6693L59.4585 60.6694L59.4628 60.9678ZM59.3126 60.97L59.3083 60.6716L59.2306 60.6728L59.1634 60.7116L59.3126 60.97ZM33.3221 75.9756L33.1729 76.234L33.3221 76.3202L33.4713 76.234L33.3221 75.9756ZM22.6234 59.1438L22.9189 59.1856L22.9218 59.1648V59.1438H22.6234ZM33.1743 26.2651C25.1332 30.9076 21.4572 37.1992 22.3279 43.3871L22.9189 43.304C22.0946 37.4458 25.552 31.355 33.4727 26.7819L33.1743 26.2651ZM85.7264 26.2651C78.4556 22.0673 68.9449 19.977 59.4503 19.977C49.9558 19.977 40.4451 22.0673 33.1743 26.2651L33.4727 26.7819C40.6314 22.6489 50.0328 20.5738 59.4503 20.5738C68.8679 20.5738 78.2693 22.6489 85.428 26.7819L85.7264 26.2651ZM96.5983 43.195C97.3667 37.0684 93.6839 30.8594 85.7264 26.2651L85.428 26.7819C93.2665 31.3075 96.7337 37.3198 96.0062 43.1207L96.5983 43.195ZM96.6006 59.3524V43.1578H96.0039V59.3524H96.6006ZM85.725 76.234C93.6776 71.6426 97.3608 65.4385 96.5983 59.3155L96.0061 59.3893C96.728 65.1868 93.2602 71.1945 85.4266 75.7172L85.725 76.234ZM59.4354 61.228L85.4266 76.234L85.725 75.7172L59.7338 60.7112L59.4354 61.228ZM59.4585 61.2662L59.5802 61.2679L59.5889 60.6712L59.4672 60.6694L59.4585 61.2662ZM59.317 61.2684L59.4672 61.2662L59.4585 60.6694L59.3083 60.6716L59.317 61.2684ZM33.4713 76.234L59.4618 61.2284L59.1634 60.7116L33.1729 75.7172L33.4713 76.234ZM22.328 59.102C21.4519 65.2931 25.1275 71.589 33.1729 76.234L33.4713 75.7172C25.5463 71.1417 22.0895 65.0467 22.9189 59.1856L22.328 59.102ZM22.325 43.3456V59.1438H22.9218V43.3456H22.325Z" fill="#091A23"/>
</g>
<g id="base-face_3">
<path d="M33.3221 26.5235C18.8926 34.8544 18.8926 48.3614 33.3221 56.6922L59.449 41.6079L85.5758 56.6922C100.005 48.3614 100.005 34.8544 85.5758 26.5235C71.1463 18.1927 47.7516 18.1927 33.3221 26.5235Z" fill="white"/>
<path d="M33.3221 56.6922L33.1729 56.9507H33.4713L33.3221 56.6922ZM85.5758 56.6922L85.4266 56.9507H85.725L85.5758 56.6922ZM59.449 41.6079L59.5982 41.3495H59.2998L59.449 41.6079ZM33.4713 56.4338C26.3109 52.2998 22.7984 46.9232 22.7984 41.6079C22.7984 36.2926 26.3109 30.916 33.4713 26.7819L33.1729 26.2651C25.9038 30.4619 22.2016 36.0042 22.2016 41.6079C22.2016 47.2115 25.9038 52.7538 33.1729 56.9507L33.4713 56.4338ZM33.4713 26.7819C40.63 22.6489 50.0314 20.5738 59.449 20.5738C68.8665 20.5738 78.2679 22.6489 85.4266 26.7819L85.725 26.2651C78.4542 22.0673 68.9435 19.977 59.449 19.977C49.9544 19.977 40.4437 22.0673 33.1729 26.2651L33.4713 26.7819ZM85.4266 26.7819C92.587 30.916 96.0995 36.2926 96.0995 41.6079C96.0995 46.9232 92.587 52.2998 85.4266 56.4338L85.725 56.9507C92.9941 52.7538 96.6963 47.2115 96.6963 41.6079C96.6963 36.0042 92.9941 30.4619 85.725 26.2651L85.4266 26.7819ZM33.4713 56.9507L59.5982 41.8663L59.2998 41.3495L33.1729 56.4338L33.4713 56.9507ZM59.2998 41.8663L85.4266 56.9507L85.725 56.4338L59.5982 41.3495L59.2998 41.8663Z" fill="#091A23"/>
</g>
<g id="Group 41786">
<path id="Vector 635 (Stroke)" fill-rule="evenodd" clip-rule="evenodd" d="M71.082 38.5012L76.6005 36.0857L77.1206 37.2738L71.602 39.6894L71.082 38.5012Z" fill="#C795E3"/>
<path id="Vector 638 (Stroke)" fill-rule="evenodd" clip-rule="evenodd" d="M48.1996 26.6604L48.1648 32.6844L46.8678 32.6769L46.9026 26.653L48.1996 26.6604Z" fill="#80DBFF"/>
<path id="Vector 641 (Stroke)" fill-rule="evenodd" clip-rule="evenodd" d="M82.9687 41.2029L78.7337 45.487L79.6561 46.3988L83.8911 42.1147L82.9687 41.2029Z" fill="#80DBFF"/>
<path id="Vector 636 (Stroke)" fill-rule="evenodd" clip-rule="evenodd" d="M61.7638 23.4959L67.5735 25.0886L67.2306 26.3394L61.4209 24.7467L61.7638 23.4959Z" fill="#C795E3"/>
<path id="Vector 639 (Stroke)" fill-rule="evenodd" clip-rule="evenodd" d="M37.4584 36.7888L34.4163 41.9883L33.2969 41.3333L36.339 36.1338L37.4584 36.7888Z" fill="#C795E3"/>
<path id="Vector 642 (Stroke)" fill-rule="evenodd" clip-rule="evenodd" d="M84.7787 34.5374L81.7366 29.3379L80.6172 29.9929L83.6593 35.1924L84.7787 34.5374Z" fill="#DCFF1E"/>
<path id="Vector 637 (Stroke)" fill-rule="evenodd" clip-rule="evenodd" d="M44.7853 39.4608L50.595 41.0534L50.2521 42.3043L44.4424 40.7116L44.7853 39.4608Z" fill="#DCFF1E"/>
<path id="Vector 643 (Stroke)" fill-rule="evenodd" clip-rule="evenodd" d="M56.7443 32.0506L62.554 33.6433L62.2111 34.8941L56.4014 33.3014L56.7443 32.0506Z" fill="#DCFF1E"/>
</g>
<g id="Group 41589_3">
<path id="Vector 291_3" d="M33.53 56.7192L59.4511 41.6738L59.4512 60.8189L33.53 75.8055V56.7192Z" fill="#F6FFC7" stroke="#091A23" stroke-width="0.596779"/>
<path id="Vector 292_3" d="M85.3724 56.7192L59.4513 41.6738L59.4512 60.8189L85.3724 75.8055V56.7192Z" fill="#F6FFC7" stroke="#091A23" stroke-width="0.596779"/>
</g>
<g id="base-face_4">
<path d="M33.541 75.805L59.4323 60.8535L85.3551 75.8215V80.791L59.4323 66.0018L33.541 80.9074V75.805Z" fill="white"/>
<path d="M33.541 75.805L33.3918 75.5466L33.2426 75.805H33.541ZM59.4323 60.8535L59.5815 60.5951L59.2831 60.5951L59.4323 60.8535ZM85.3551 75.8215H85.6535L85.5043 75.563L85.3551 75.8215ZM33.541 80.9074H33.2426L33.6899 81.166L33.541 80.9074ZM85.3551 80.791L85.2073 81.0502L85.6535 80.791H85.3551ZM33.6902 76.0634L59.5816 61.1119L59.2831 60.5951L33.3918 75.5466L33.6902 76.0634ZM59.2831 61.1119L85.2059 76.0799L85.5043 75.563L59.5815 60.5951L59.2831 61.1119ZM33.2426 75.805V80.9074H33.8394V75.805H33.2426ZM33.6899 81.166L59.5812 66.2604L59.2835 65.7432L33.3921 80.6488L33.6899 81.166ZM59.7307 66.0018V60.8535H59.1339V66.0018H59.7307ZM59.2845 66.261L85.2073 81.0502L85.503 80.5318L59.5802 65.7427L59.2845 66.261ZM85.6535 80.791V75.8215H85.0568V80.791H85.6535Z" fill="#091A23"/>
</g>
<g id="base-face_5">
<path d="M33.541 100.018L59.4323 85.0664L85.3551 100.034V105.004L59.4323 90.2147L33.541 105.12V100.018Z" fill="white"/>
<path d="M33.541 100.018L33.3918 99.7595L33.2426 100.018H33.541ZM59.4323 85.0664L59.5815 84.808L59.2831 84.808L59.4323 85.0664ZM85.3551 100.034H85.6535L85.5043 99.7759L85.3551 100.034ZM33.541 105.12H33.2426L33.6899 105.379L33.541 105.12ZM85.3551 105.004L85.2073 105.263L85.6535 105.004H85.3551ZM33.6902 100.276L59.5816 85.3248L59.2831 84.808L33.3918 99.7595L33.6902 100.276ZM59.2831 85.3248L85.2059 100.293L85.5043 99.7759L59.5815 84.808L59.2831 85.3248ZM33.2426 100.018V105.12H33.8394V100.018H33.2426ZM33.6899 105.379L59.5812 90.4733L59.2835 89.9561L33.3921 104.862L33.6899 105.379ZM59.7307 90.2147V85.0664H59.1339V90.2147H59.7307ZM59.2845 90.4739L85.2073 105.263L85.503 104.745L59.5802 89.9555L59.2845 90.4739ZM85.6535 105.004V100.034H85.0567V105.004H85.6535Z" fill="#091A23"/>
</g>
</g>
<g id="Group 41595">
<g id="Group 41593">
<path id="Vector 291_4" d="M85.4795 80.896V76.0052C90.0718 73.4836 94.8681 68.669 96.1973 63.5703V68.999C96.1973 68.999 95.9696 71.4775 92.7258 75.1483C89.8936 78.3533 85.4795 80.896 85.4795 80.896Z" fill="white" stroke="#091A23" stroke-width="0.596779"/>
<path id="Vector 292_4" d="M85.4795 105.125V100.234C90.0718 97.7121 94.8681 92.8976 96.1973 87.7988V93.2275C96.1973 93.2275 95.9696 95.706 92.7258 99.3768C89.8936 102.582 85.4795 105.125 85.4795 105.125Z" fill="white" stroke="#091A23" stroke-width="0.596779"/>
</g>
<g id="Group 41594">
<path id="Vector 291_5" d="M33.5283 80.896V76.0052C28.936 73.4836 24.1397 68.669 22.8105 63.5703V68.999C22.8105 68.999 23.0382 71.4775 26.282 75.1483C29.1142 78.3533 33.5283 80.896 33.5283 80.896Z" fill="white" stroke="#091A23" stroke-width="0.596779"/>
<path id="Vector 292_5" d="M33.5283 105.125V100.234C28.936 97.7121 24.1397 92.8976 22.8105 87.7988V93.2275C22.8105 93.2275 23.0382 95.706 26.282 99.3768C29.1142 102.582 33.5283 105.125 33.5283 105.125Z" fill="white" stroke="#091A23" stroke-width="0.596779"/>
</g>
</g>
</g>
<g id="Group 41899">
<g id="cylinder-group">
<circle id="base-face_6" cx="2.06958" cy="2.06958" r="2.06958" transform="matrix(0.885692 0.464273 -0.885692 0.464273 59.166 7.90625)" fill="white" stroke="#091A23" stroke-width="0.544444" stroke-linejoin="bevel"/>
<path id="Union_4" d="M57.3334 10.7889C56.8643 10.543 56.5742 10.2033 56.5742 9.82812V29.0436C56.5742 29.4188 56.8643 29.7585 57.3333 30.0043C57.8401 30.27 58.5045 30.4027 59.1687 30.4023C59.833 30.4027 60.4974 30.27 61.0042 30.0043C61.4732 29.7585 61.7633 29.4188 61.7633 29.0436V9.82812C61.7633 10.2033 61.4731 10.543 61.0041 10.7889C61.0024 10.7898 61.0007 10.7906 60.9991 10.7915V10.7889C60.4936 11.0539 59.8313 11.1865 59.1687 11.1868C58.5062 11.1865 57.8439 11.0539 57.3384 10.7889V10.7915C57.3367 10.7906 57.3351 10.7898 57.3334 10.7889Z" fill="white" stroke="#091A23" stroke-width="0.544444" stroke-linejoin="bevel"/>
</g>
<g id="Vector 666">
<path d="M59.1092 0.726562L61.2685 4.58818C61.6488 5.26841 61.6136 6.07905 61.1755 6.72999C60.2312 8.13285 57.9871 8.13287 57.0428 6.73003C56.6047 6.07907 56.5695 5.26839 56.9499 4.58813L59.1092 0.726562Z" fill="#DCFF1E"/>
<path d="M61.2685 4.58818L61.5061 4.45532L61.2685 4.58818ZM59.1092 0.726562L59.3468 0.593706L59.1092 0.168792L58.8716 0.593701L59.1092 0.726562ZM56.9499 4.58813L57.1875 4.721H57.1875L56.9499 4.58813ZM61.1755 6.72999L61.4013 6.882L61.1755 6.72999ZM57.0428 6.73003L56.817 6.88204H56.817L57.0428 6.73003ZM61.5061 4.45532L59.3468 0.593706L58.8716 0.859419L61.0309 4.72103L61.5061 4.45532ZM58.8716 0.593701L56.7123 4.45527L57.1875 4.721L59.3468 0.859424L58.8716 0.593701ZM61.4013 6.882C61.8963 6.14665 61.9369 5.22591 61.5061 4.45532L61.0309 4.72103C61.3607 5.31091 61.331 6.01145 60.9496 6.57799L61.4013 6.882ZM56.817 6.88204C57.8692 8.44516 60.3491 8.44514 61.4013 6.882L60.9496 6.57799C60.1133 7.82056 58.1051 7.82058 57.2687 6.57802L56.817 6.88204ZM57.2687 6.57802C56.8873 6.01146 56.8576 5.3109 57.1875 4.721L56.7123 4.45527C56.2813 5.22589 56.322 6.14667 56.817 6.88204L57.2687 6.57802Z" fill="black"/>
</g>
<g id="Group 41138">
<path id="Vector 296" d="M59.1094 6.78321L59.1094 9.58467" stroke="#091A23" stroke-width="0.544444"/>
</g>
</g>
<path id="Rectangle 18650" d="M40.1097 76.8568L33.2305 80.9389V75.8424L59.2305 60.9277V66.1687L44.5004 74.2763V83.1609C44.5004 83.9517 44.0752 84.6813 43.3871 85.0711C41.9236 85.9001 40.1097 84.8429 40.1097 83.1609V76.8568Z" fill="white" stroke="black" stroke-width="0.596779"/>
<path id="Rectangle 18651" d="M77.9199 101.204L85.0742 105.287V100.19L59.0742 85.2754V90.5163L73.3535 98.624V107.432C73.3535 108.268 73.8104 109.037 74.5445 109.437C76.0659 110.266 77.9199 109.164 77.9199 107.432V101.204Z" fill="white" stroke="black" stroke-width="0.596779"/>
</g>
</svg>
