<svg width="19" height="14" viewBox="0 0 19 14" fill="none" xmlns="http://www.w3.org/2000/svg">
<rect x="10.5" y="0.5" width="8" height="4" rx="0.5" stroke="#dfe5ef"/>
<rect x="10.5" y="9.5" width="8" height="4" rx="0.5" stroke="#dfe5ef"/>
<rect x="0.5" y="9.5" width="8" height="4" rx="0.5" stroke="#dfe5ef"/>
<rect x="14" y="4" width="1" height="6" fill="#dfe5ef"/>
<path fill-rule="evenodd" clip-rule="evenodd" d="M14.5 7C14.7761 7 15 6.77614 15 6.5V6.5C15 6.22386 14.7761 6 14.5 6H5C4.44772 6 4 6.44772 4 7V7V9.5C4 9.77614 4.22386 10 4.5 10V10C4.77614 10 5 9.77614 5 9.5V8C5 7.44772 5.44772 7 6 7L14.5 7Z" fill="#dfe5ef"/>
</svg>
