<svg id="Group_8143" data-name="Group 8143" xmlns="http://www.w3.org/2000/svg" width="18" height="18" viewBox="0 0 18 18">
  <g id="Ico_small">
    <rect id="Rectangle_16993" data-name="Rectangle 16993" width="18" height="18" fill="#415681" opacity="0"/>
    <g id="Group_7341" data-name="Group 7341" transform="translate(5 5)">
      <path id="Path_10312" data-name="Path 10312" d="M39.739,30.344A2.844,2.844,0,1,0,36.9,27.5,2.847,2.847,0,0,0,39.739,30.344Zm0-4.432A1.588,1.588,0,1,1,38.151,27.5,1.589,1.589,0,0,1,39.739,25.912Z" transform="translate(-35.137 -24.656)" fill="#415681"/>
      <path id="Path_10313" data-name="Path 10313" d="M33.129,54.571a2.98,2.98,0,0,0-2.782-2.023.526.526,0,0,0-.348.1,2.363,2.363,0,0,1-2.858,0,.529.529,0,0,0-.348-.1A2.982,2.982,0,0,0,24,54.593a.528.528,0,1,0,.986.376,1.9,1.9,0,0,1,1.693-1.352,3.411,3.411,0,0,0,3.774,0,1.9,1.9,0,0,1,1.688,1.336.528.528,0,0,0,.984-.382Z" transform="translate(-23.969 -46.315)" fill="#415681"/>
    </g>
  </g>
</svg>
