<svg width="256" height="256" viewBox="0 0 256 256" fill="none" xmlns="http://www.w3.org/2000/svg">
<rect x="24" y="24" width="208" height="208" rx="48" fill="#091A23"/>
<path d="M199.405 134.99C188.337 148.668 176.384 164.3 152.478 164.3C131.125 164.3 123.169 145.826 122.61 130.819C127.289 140.522 136.436 148.38 150.708 148.017C178.155 147.148 196.97 122.832 196.97 100.687C196.97 74.2004 176.827 55.095 141.853 55.095C116.841 55.095 85.8513 64.4306 65.4868 79.1938C65.2655 94.3913 73.8982 114.148 76.9972 111.977C94.6518 99.5268 108.651 91.5123 122.23 87.4937C102.13 109.478 53.9045 160.524 48 169.51C48.6641 177.76 59.0676 199.905 64.1587 199.905C65.7082 199.905 67.0363 199.037 68.5858 197.517C83.1246 181.495 94.9765 167.13 105.518 153.284C106.999 173.577 117.173 198.385 145.616 198.385C171.072 198.385 196.306 180.366 207.817 139.767C209.145 134.773 202.947 130.865 199.405 134.99ZM170.408 102.207C170.408 115.016 157.569 121.312 145.838 121.312C139.567 121.312 134.75 119.697 130.94 117.599C137.95 107.188 144.889 96.5127 152.344 85.0847C165.489 87.267 170.408 94.4336 170.408 102.207Z" fill="#FF4438"/>
</svg>
