<svg width="133" height="168" viewBox="0 0 133 168" fill="none" xmlns="http://www.w3.org/2000/svg">
<path d="M0.99997 166.516C39.2706 167.095 78.929 163.619 109.642 138.397C118.156 131.406 130.252 117.126 127.63 104.791C125.352 94.071 113.137 84.6202 104.263 79.6425C95.59 74.7771 84.3874 71.8255 74.6914 74.7899C70.292 76.135 66.4381 79.3507 69.8932 83.513C79.0555 94.5509 99.6229 87.9966 104.568 75.9914C111.933 58.1106 107.516 35.581 118.089 19.2256C119.301 17.3511 124.454 6.44734 128.164 8.84583C131.991 11.3204 130.426 19.1843 131.67 22.9376C133.572 28.6751 129.701 10.9114 129.99 4.86462C130.217 0.0943445 131.232 0.0296396 126.487 3.63268C121.621 7.32844 113.223 11.9605 106.996 10.3647" stroke="currentColor" stroke-linecap="round"/>
</svg>
