<svg width="13" height="13" viewBox="0 0 13 13" fill="none" xmlns="http://www.w3.org/2000/svg">
<path fill-rule="evenodd" clip-rule="evenodd" d="M6.5 12C5.4122 12 4.34883 11.6774 3.44436 11.0731C2.53989 10.4687 1.83494 9.60975 1.41866 8.60476C1.00238 7.59977 0.893462 6.4939 1.10568 5.427C1.3179 4.36011 1.84172 3.3801 2.61091 2.61091C3.3801 1.84172 4.36011 1.3179 5.427 1.10568C6.4939 0.893462 7.59977 1.00238 8.60476 1.41866C9.60975 1.83494 10.4687 2.53989 11.0731 3.44436C11.6774 4.34883 12 5.4122 12 6.5C11.9984 7.9582 11.4184 9.35623 10.3873 10.3873C9.35623 11.4184 7.9582 11.9984 6.5 12ZM6.5 0C5.21442 0 3.95771 0.381218 2.88879 1.09545C1.81987 1.80968 0.986753 2.82484 0.494783 4.01256C0.00281349 5.20028 -0.125908 6.50721 0.124896 7.76809C0.3757 9.02896 0.994765 10.1872 1.90381 11.0962C2.81285 12.0052 3.97104 12.6243 5.23191 12.8751C6.49279 13.1259 7.79972 12.9972 8.98744 12.5052C10.1752 12.0132 11.1903 11.1801 11.9046 10.1112C12.6188 9.04229 13 7.78558 13 6.5C13 5.64641 12.8319 4.80117 12.5052 4.01256C12.1786 3.22394 11.6998 2.50739 11.0962 1.90381C10.4926 1.30023 9.77606 0.821439 8.98744 0.494783C8.19883 0.168127 7.35359 0 6.5 0ZM9.5 6H7V2.5C7 2.36739 6.94732 2.24021 6.85355 2.14645C6.75979 2.05268 6.63261 2 6.5 2C6.36739 2 6.24021 2.05268 6.14645 2.14645C6.05268 2.24021 6 2.36739 6 2.5V6.5C6 6.63261 6.05268 6.75979 6.14645 6.85355C6.24021 6.94732 6.36739 7 6.5 7H9.5C9.63261 7 9.75979 6.94732 9.85355 6.85355C9.94732 6.75979 10 6.63261 10 6.5C10 6.36739 9.94732 6.24021 9.85355 6.14645C9.75979 6.05268 9.63261 6 9.5 6Z"/>
</svg>
