<svg width="100" height="100" viewBox="0 0 100 100" fill="none" xmlns="http://www.w3.org/2000/svg">
<path d="M14.5443 37.6809C14.5412 37.6406 14.5263 37.3869 14.7609 37.2474C14.8342 37.2001 14.9225 37.1678 15.0174 37.1536C15.1122 37.1394 15.2103 37.1437 15.3022 37.1662C15.5564 37.2432 15.7783 37.3502 15.9667 37.3122C16.0999 37.2853 16.2925 37.1567 16.3849 36.7599" stroke="#7547DE" stroke-width="0.460481" stroke-miterlimit="10" stroke-linecap="round"/>
<path opacity="0.997" d="M11.0923 38.6514L9.57284 39.9881L11.3981 40.6519L11.0923 38.6514Z" fill="#4FDAE0"/>
<path d="M93.5706 31.2715L93.8542 31.8781L94.4883 31.9755L94.0295 32.4477L94.1378 33.1145L93.5706 32.7997L93.0034 33.1145L93.1117 32.4477L92.6528 31.9755L93.2871 31.8776L93.5706 31.2715Z" fill="#7547DE"/>
<path d="M87.4426 26.6667L88.2277 27.2469L89.1498 26.9279L88.8415 27.8553L89.4294 28.6355L88.4541 28.6284L87.8954 29.4296L87.6005 28.4979L86.6665 28.2143L87.459 27.6454L87.4426 26.6667Z" fill="#F74B57"/>
<path d="M93.406 28L92.6665 28.3157L93.2954 28.834L93.406 28Z" fill="#4FDAE0"/>
<path d="M87.2524 35.8098L90.6003 36.8908L85.8198 59.3681L64.1929 54.4655L70.1515 28.1806L87.9334 32.2514L87.2524 35.8098Z" fill="#D2DEFC"/>
<rect x="71.457" y="34.7412" width="7.16441" height="1.36465" rx="0.682325" transform="rotate(12.7726 71.457 34.7412)" fill="white"/>
<rect x="72.52" y="45.5088" width="13.6465" height="1.36465" rx="0.682325" transform="rotate(12.7726 72.52 45.5088)" fill="white"/>
<rect x="73.1987" y="42.5143" width="13.6465" height="1.36465" rx="0.682325" transform="rotate(12.7726 73.1987 42.5143)" fill="white"/>
<rect x="73.8774" y="39.5199" width="13.6465" height="1.36465" rx="0.682325" transform="rotate(12.7726 73.8774 39.5199)" fill="white"/>
<path d="M71.9107 32.7411C71.9937 32.3751 72.3567 32.1448 72.7232 32.2257L84.6317 34.8545C85.0012 34.9361 85.2337 35.3027 85.1501 35.6717C85.0671 36.0377 84.7041 36.268 84.3376 36.1871L72.429 33.5583C72.0596 33.4767 71.827 33.1101 71.9107 32.7411Z" fill="#FAFBFB"/>
<rect x="69.2681" y="44.4219" width="2.04698" height="2.04698" rx="0.666667" transform="rotate(12.7726 69.2681 44.4219)" fill="#4766C4"/>
<rect x="69.9468" y="41.4274" width="2.04698" height="2.04698" rx="0.666667" transform="rotate(12.7726 69.9468 41.4274)" fill="#4766C4"/>
<rect x="70.626" y="38.4329" width="2.04698" height="2.04698" rx="0.666667" transform="rotate(12.7726 70.626 38.4329)" fill="#4766C4"/>
<path d="M90.6005 36.8908L87.9336 32.2515L87.0886 35.4572C86.991 35.8277 87.2249 36.2041 87.6004 36.2804L90.6005 36.8908Z" fill="#7B90E0"/>
<path d="M5.37173 36.7599C5.26277 37.4756 5.40538 37.8187 5.56493 37.9996C5.83745 38.3085 6.19703 38.1864 6.59568 38.4956C6.94397 38.7657 7.09894 39.1916 7.17542 39.5228" stroke="#F74B57" stroke-width="0.73677" stroke-miterlimit="10" stroke-linecap="round"/>
<path fill-rule="evenodd" clip-rule="evenodd" d="M54.4616 43.9999L68.6453 43.9999C70.9236 43.9999 72.6557 41.9526 72.2782 39.7057L70.7693 30.7243C70.4862 29.0394 69.0818 27.7702 67.3769 27.6586L30.1448 25.2224C28.2259 25.0968 26.5333 26.4683 26.2583 28.3714L24.6082 39.7892C24.2872 42.0103 26.01 43.9999 28.2542 43.9999L48.2356 43.9999L49.1904 48.713C49.2653 49.0829 49.7288 49.2105 49.9825 48.9312L54.4616 43.9999Z" fill="#7547DE"/>
<path d="M33.9454 39.1105C36.0341 39.1105 37.1504 37.9722 37.1504 35.9056V31.0981H35.6694V35.784C35.6694 37.4196 35.0948 37.928 33.9565 37.928C32.785 37.928 32.3208 37.3312 32.3208 35.8835V31.0981H30.8399V35.994C30.8399 38.0275 31.9672 39.1105 33.9454 39.1105ZM38.7282 40.9782H40.0655V38.0938C40.3749 38.6574 41.038 39.1105 41.9553 39.1105C43.4472 39.1105 44.5192 37.9833 44.5192 36.1266V36.0382C44.5192 34.1705 43.403 33.0985 41.9553 33.0985C41.1043 33.0985 40.386 33.5958 40.0655 34.1484V33.22H38.7282V40.9782ZM41.6237 38.0496C40.6512 38.0496 40.0212 37.4417 40.0212 36.1487V36.0603C40.0212 34.7783 40.6843 34.1484 41.6127 34.1484C42.4857 34.1484 43.1488 34.7783 43.1488 36.0603V36.1487C43.1488 37.3865 42.6073 38.0496 41.6237 38.0496ZM45.7549 39H47.0922V30.5456H45.7549V39ZM51.2971 39.1105C52.999 39.1105 54.27 37.9391 54.27 36.1376V36.0492C54.27 34.281 52.999 33.0985 51.3082 33.0985C49.6062 33.0985 48.3353 34.292 48.3353 36.0824V36.1708C48.3353 37.928 49.5952 39.1105 51.2971 39.1105ZM51.3082 38.0717C50.2914 38.0717 49.7057 37.3312 49.7057 36.1487V36.0603C49.7057 34.8667 50.3135 34.1484 51.3082 34.1484C52.3028 34.1484 52.8996 34.8778 52.8996 36.0713V36.1487C52.8996 37.3312 52.3028 38.0717 51.3082 38.0717ZM56.9923 39.1105C57.8764 39.1105 58.3848 38.79 58.7605 38.2927V39H60.0757V35.2093C60.0757 33.6289 59.0589 33.0985 57.7659 33.0985C56.4729 33.0985 55.4009 33.6621 55.2903 35.0104H56.5834C56.6497 34.4357 56.9923 34.1042 57.6885 34.1042C58.4732 34.1042 58.7384 34.491 58.7384 35.2646V35.563H58.0201C56.3623 35.563 55.0583 36.0492 55.0583 37.3975C55.0583 38.6021 55.9313 39.1105 56.9923 39.1105ZM57.3128 38.149C56.6497 38.149 56.3844 37.8285 56.3844 37.3423C56.3844 36.635 57.0365 36.4029 58.0532 36.4029H58.7384V36.9776C58.7384 37.718 58.1306 38.149 57.3128 38.149ZM63.7745 39.1105C64.6254 39.1105 65.3659 38.6021 65.6753 38.0275V39H67.0126V30.5456H65.6753V34.1042C65.3549 33.5295 64.7691 33.0985 63.8297 33.0985C62.3267 33.0985 61.2326 34.2699 61.2326 36.1155V36.204C61.2326 38.0827 62.3267 39.1105 63.7745 39.1105ZM64.106 38.0496C63.244 38.0496 62.603 37.4417 62.603 36.1708V36.0824C62.603 34.8336 63.1777 34.1484 64.1613 34.1484C65.1338 34.1484 65.7196 34.7783 65.7196 36.0492V36.1376C65.7196 37.4307 65.0344 38.0496 64.106 38.0496Z" fill="white"/>
<path fill-rule="evenodd" clip-rule="evenodd" d="M56.8569 74.101L80.8073 75.2426C82.9083 75.3428 84.6665 73.6664 84.6665 71.563L84.6665 57.3365C84.6665 55.2158 82.8805 53.533 80.7636 53.6591L32.1864 56.5535C30.2404 56.6694 28.7217 58.2814 28.7217 60.2308L28.7217 69.2475C28.7217 71.2138 30.266 72.8335 32.2301 72.9272L50.4959 73.7978L50.0284 76.8368C49.971 77.2098 50.3619 77.4897 50.6965 77.3151L56.8569 74.101Z" fill="#253DAC"/>
<path d="M39.4866 69H40.9675V62.2586H43.1668V61.0981H37.2873V62.2586H39.4866V69ZM45.5685 69.1105C46.5079 69.1105 47.1157 68.6574 47.403 68.0938V69H48.7403V63.22H47.403V66.6571C47.403 67.5744 46.7731 68.0385 46.0548 68.0385C45.2811 68.0385 44.9164 67.6407 44.9164 66.7676V63.22H43.5792V66.9223C43.5792 68.4585 44.4302 69.1105 45.5685 69.1105ZM52.293 69.0995C52.7019 69.0995 52.9893 69.0332 53.1992 68.9558V67.8948C53.0114 67.9722 52.8124 68.0054 52.5472 68.0054C52.1272 68.0054 51.8841 67.7733 51.8841 67.2649V64.2257H53.155V63.22H51.8841V61.9491H50.5469V63.22H49.7733V64.2257H50.5469V67.3865C50.5469 68.4806 51.1436 69.0995 52.293 69.0995ZM56.9804 69.1105C58.6824 69.1105 59.9533 67.9391 59.9533 66.1376V66.0492C59.9533 64.281 58.6824 63.0985 56.9915 63.0985C55.2895 63.0985 54.0186 64.292 54.0186 66.0824V66.1708C54.0186 67.928 55.2785 69.1105 56.9804 69.1105ZM56.9915 68.0717C55.9747 68.0717 55.389 67.3312 55.389 66.1487V66.0603C55.389 64.8667 55.9968 64.1484 56.9915 64.1484C57.9861 64.1484 58.5829 64.8778 58.5829 66.0713V66.1487C58.5829 67.3312 57.9861 68.0717 56.9915 68.0717ZM61.1615 69H62.4988V65.994C62.4988 64.7673 63.2061 64.3915 64.3775 64.3805V63.1316C63.405 63.1427 62.8635 63.5737 62.4988 64.3031V63.22H61.1615V69ZM66.2393 62.2696C66.6813 62.2696 67.035 61.9381 67.035 61.5071C67.035 61.065 66.6813 60.7334 66.2393 60.7334C65.7972 60.7334 65.4436 61.065 65.4436 61.5071C65.4436 61.9381 65.7972 62.2696 66.2393 62.2696ZM65.5872 69H66.9245V63.22H65.5872V69ZM70.0685 69.1105C70.9526 69.1105 71.461 68.79 71.8367 68.2927V69H73.1519V65.2093C73.1519 63.6289 72.1351 63.0985 70.8421 63.0985C69.5491 63.0985 68.4771 63.6621 68.3665 65.0104H69.6596C69.7259 64.4357 70.0685 64.1042 70.7647 64.1042C71.5494 64.1042 71.8146 64.491 71.8146 65.2646V65.563H71.0963C69.4385 65.563 68.1345 66.0492 68.1345 67.3975C68.1345 68.6021 69.0075 69.1105 70.0685 69.1105ZM70.389 68.149C69.7259 68.149 69.4606 67.8285 69.4606 67.3423C69.4606 66.635 70.1127 66.4029 71.1294 66.4029H71.8146V66.9776C71.8146 67.718 71.2068 68.149 70.389 68.149ZM74.7177 69H76.055V60.5456H74.7177V69Z" fill="white"/>
<path fill-rule="evenodd" clip-rule="evenodd" d="M18.3855 58.0539L16.1973 58.1184C14.402 58.1714 12.8302 56.9218 12.4769 55.1608L10.7397 46.5017C10.2823 44.2216 12.026 42.0933 14.3516 42.0933L38.4514 42.0933C40.8041 42.0933 42.5539 44.2687 42.0496 46.5667L40.2827 54.6187C39.9205 56.2691 38.482 57.4615 36.793 57.5113L24.3685 57.8776L24.7994 62.003C24.8414 62.4053 24.3815 62.6624 24.0608 62.4159L18.3855 58.0539Z" fill="#37999D"/>
<path d="M16.8071 54H18.288V50.5851L20.7635 46.0982H19.3268L17.5918 49.3694L15.8125 46.0982H14.1879L16.8071 50.574V54ZM23.4469 54.1105C25.1489 54.1105 26.4198 52.9391 26.4198 51.1377V51.0493C26.4198 49.281 25.1489 48.0985 23.458 48.0985C21.756 48.0985 20.4851 49.2921 20.4851 51.0824V51.1708C20.4851 52.928 21.745 54.1105 23.4469 54.1105ZM23.458 53.0717C22.4412 53.0717 21.8555 52.3312 21.8555 51.1487V51.0603C21.8555 49.8667 22.4633 49.1484 23.458 49.1484C24.4526 49.1484 25.0494 49.8778 25.0494 51.0714V51.1487C25.0494 52.3312 24.4526 53.0717 23.458 53.0717ZM29.562 54.1105C30.5014 54.1105 31.1093 53.6574 31.3966 53.0938V54H32.7338V48.2201H31.3966V51.6571C31.3966 52.5744 30.7667 53.0385 30.0483 53.0385C29.2747 53.0385 28.91 52.6407 28.91 51.7676V48.2201H27.5728V51.9223C27.5728 53.4585 28.4237 54.1105 29.562 54.1105ZM34.3194 54H35.6566V50.994C35.6566 49.7673 36.3639 49.3915 37.5354 49.3805V48.1316C36.5629 48.1427 36.0213 48.5737 35.6566 49.3031V48.2201H34.3194V54Z" fill="white"/>
</svg>
