<svg id="Ico_btn" xmlns="http://www.w3.org/2000/svg" width="20" height="20" viewBox="0 0 20 20">
  <rect id="Rectangle_16996" data-name="Rectangle 16996" width="20" height="20" fill="#fff" opacity="0"/>
  <g id="Group_6988" data-name="Group 6988">
    <path id="Path_10264" data-name="Path 10264" d="M19601.967,2879.1a.6.6,0,0,1-.473-.709l2.736-13.9a.6.6,0,1,1,1.176.231l-2.736,13.9a.6.6,0,0,1-.586.487A.948.948,0,0,1,19601.967,2879.1Zm4.553-2.884a.594.594,0,0,1,.014-.847l3.652-3.529-3.652-3.524a.6.6,0,0,1,.832-.866l4.105,3.962a.6.6,0,0,1,.182.428.583.583,0,0,1-.178.423s0,0,0,.01l-4.105,3.957a.593.593,0,0,1-.846-.015Zm-6.984.015-4.105-3.957a.619.619,0,0,1-.182-.433.6.6,0,0,1,.178-.423s0,0,0,0l4.105-3.962a.6.6,0,0,1,.832.866l-3.652,3.524,3.652,3.529a.6.6,0,1,1-.832.861Z" transform="translate(-19593.242 -2861.412)" fill="#dfe5ef"/>
  </g>
</svg>
