<svg xmlns="http://www.w3.org/2000/svg" width="16" height="16" viewBox="0 0 16 16" fill="currentColor">
  <path d="M1.5002,9.04663086 C1.22405763,9.04663086 1.0002,9.27048848 1.0002,9.54663086 C1.0002,9.82277323 1.22405763,10.0466309 1.5002,10.0466309 L14.5002,10.0466309 C14.7763424,10.0466309 15.0002,9.82277323 15.0002,9.54663086 C15.0002,9.27048848 14.7763424,9.04663086 14.5002,9.04663086 L1.5002,9.04663086 Z M1.5002,8.04663086 L14.5002,8.04663086 C15.3286271,8.04663086 16.0002,8.71820373 16.0002,9.54663086 C16.0002,10.375058 15.3286271,11.0466309 14.5002,11.0466309 L1.5002,11.0466309 C0.671772875,11.0466309 0.0002,10.375058 0.0002,9.54663086 C0.0002,8.71820373 0.671772875,8.04663086 1.5002,8.04663086 Z M10,13 C10.2761424,13 10.5,13.2238576 10.5,13.5 C10.5,13.7761424 10.2761424,14 10,14 L4,14 C3.72385763,14 3.5,13.7761424 3.5,13.5 C3.5,13.2238576 3.72385763,13 4,13 L10,13 Z M8.00145269,2.01452848 C8.2775939,2.01533078 8.50080019,2.23983785 8.49999789,2.51597906 C8.49919559,2.79212027 8.27468852,3.01532655 7.99854731,3.01452426 L2.99874731,2.99999789 C2.7226061,2.99919559 2.49939981,2.77468852 2.50020211,2.49854731 C2.50100441,2.2224061 2.72551148,1.99919981 3.00165269,2.00000211 L8.00145269,2.01452848 Z M14,5 C14.2761424,5 14.5,5.22385763 14.5,5.5 C14.5,5.77614237 14.2761424,6 14,6 L6.0002,6 C5.72405763,6 5.5002,5.77614237 5.5002,5.5 C5.5002,5.22385763 5.72405763,5 6.0002,5 L14,5 Z"/>
</svg>
