<svg width="14" height="15" viewBox="0 0 14 15" fill="none" xmlns="http://www.w3.org/2000/svg">
<path d="M11.2002 8.2631C11.1074 8.2631 11.0183 8.29998 10.9527 8.36562C10.8871 8.43125 10.8502 8.52028 10.8502 8.6131V11.0631C10.8502 11.2488 10.7764 11.4268 10.6452 11.5581C10.5139 11.6894 10.3358 11.7631 10.1502 11.7631H3.8502C3.66454 11.7631 3.4865 11.6894 3.35522 11.5581C3.22394 11.4268 3.1502 11.2488 3.1502 11.0631V8.6131C3.1502 8.52028 3.11332 8.43125 3.04768 8.36562C2.98204 8.29998 2.89302 8.2631 2.8002 8.2631C2.70737 8.2631 2.61835 8.29998 2.55271 8.36562C2.48708 8.43125 2.4502 8.52028 2.4502 8.6131V11.0631C2.4502 11.4344 2.59769 11.7905 2.86024 12.0531C3.1228 12.3156 3.47889 12.4631 3.8502 12.4631H10.1502C10.5215 12.4631 10.8776 12.3156 11.1401 12.0531C11.4027 11.7905 11.5502 11.4344 11.5502 11.0631V8.6131C11.5502 8.52028 11.5133 8.43125 11.4477 8.36562C11.382 8.29998 11.293 8.2631 11.2002 8.2631Z" fill="#B5B6C0"/>
<path d="M6.7524 8.73421C6.7849 8.76682 6.82352 8.79269 6.86605 8.81035C6.90857 8.82801 6.95415 8.8371 7.0002 8.83711C7.04624 8.8371 7.09182 8.82801 7.13435 8.81035C7.17687 8.79269 7.21549 8.76682 7.24799 8.73421L9.2633 6.71821C9.32891 6.65257 9.36577 6.56357 9.36577 6.47076C9.36577 6.37795 9.32891 6.28894 9.2633 6.22331C9.19766 6.15769 9.10865 6.12083 9.01585 6.12083C8.92304 6.12083 8.83403 6.15769 8.7684 6.22331L7.3502 7.64221V2.88711C7.3502 2.79428 7.31332 2.70526 7.24768 2.63962C7.18205 2.57398 7.09302 2.53711 7.0002 2.53711C6.90737 2.53711 6.81835 2.57398 6.75271 2.63962C6.68707 2.70526 6.6502 2.79428 6.6502 2.88711V7.64221L5.23199 6.22331C5.16636 6.15769 5.07735 6.12083 4.98454 6.12083C4.89174 6.12083 4.80273 6.15769 4.73709 6.22331C4.67148 6.28894 4.63462 6.37795 4.63462 6.47076C4.63462 6.56357 4.67148 6.65257 4.73709 6.71821L6.7524 8.73421Z" fill="#B5B6C0"/>
</svg>
