<svg width="160" height="151" viewBox="0 0 160 151" fill="none" xmlns="http://www.w3.org/2000/svg">
<g clip-path="url(#clip0_478_57421)">
<path d="M74.8172 146.929C74.8172 140.556 12.4453 144.097 12.4453 146.929C12.4453 149.762 74.8172 153.303 74.8172 146.929Z" fill="#01112A"/>
<path d="M144.94 5.76745L144.649 5.61199C145.259 5.04751 145.796 4.55548 149.97 2.62056L150.177 2.52548L149.805 1.7331L149.598 1.82818C146.018 3.48841 145.014 4.12986 144.353 4.69735C144.47 3.28616 144.506 1.88553 144.456 0.726395L144.447 0.5L143.568 0.537732L143.577 0.764127C143.63 1.9942 143.583 3.48388 143.447 4.97808C142.496 4.48303 141.085 3.76763 139.361 3.00694L139.153 2.91488L138.796 3.7148L139.004 3.80687C140.71 4.5585 142.117 5.2724 143.069 5.76896C142.548 6.1327 141.86 6.54624 140.924 7.06091C140.796 7.13034 140.409 7.34315 140.238 7.2541L140.036 7.14845L139.626 7.92121L139.826 8.02686C139.983 8.10837 140.156 8.15063 140.341 8.15063C140.758 8.15063 141.142 7.93933 141.347 7.82613C142.124 7.40051 142.748 7.03224 143.246 6.70623C143.032 8.24118 142.638 10.3512 141.944 12.1397L141.862 12.351L142.682 12.6664L142.763 12.4551C143.547 10.4387 143.963 8.05705 144.178 6.35758L144.524 6.54172C146.262 7.46842 147.762 8.26835 149.629 8.95961L149.843 9.03809L150.149 8.21854L149.935 8.14006C148.124 7.46993 146.648 6.68208 144.937 5.77046L144.94 5.76745Z" fill="#FF7885"/>
<path d="M132.969 131.286C132.274 130.896 131.548 130.522 130.811 130.17C131.541 129.639 132.195 129.15 132.666 128.785L132.805 128.676L132.363 128.113L132.224 128.222C131.781 128.566 131.167 129.025 130.484 129.523C130.492 128.993 130.53 128.219 130.68 126.928L130.7 126.753L129.987 126.672L129.967 126.847C129.801 128.276 129.768 129.118 129.765 129.693C128.411 129.1 127.016 128.586 125.615 128.162L125.447 128.11L125.237 128.794L125.406 128.845C126.752 129.253 128.094 129.745 129.395 130.311C128.699 130.807 128.071 131.244 127.611 131.553L127.464 131.651L127.865 132.243L128.01 132.145C128.475 131.834 129.099 131.399 129.783 130.91C129.798 131.702 129.783 132.56 129.59 134.215L129.571 134.39L130.284 134.472L130.304 134.297C130.519 132.442 130.516 131.55 130.5 130.813C131.222 131.158 131.934 131.524 132.615 131.906L132.769 131.992L133.121 131.37L132.968 131.284L132.969 131.286Z" fill="#FF7885"/>
<path d="M144.579 111.564L145.517 113.454L147.614 113.757L146.096 115.229L146.455 117.306L144.579 116.325L142.703 117.306L143.061 115.229L141.543 113.757L143.641 113.454L144.579 111.564Z" fill="#FF3450"/>
<path d="M149.19 38.459L68.1748 119.019C68.5087 119.187 68.8426 119.351 69.1811 119.513L149.686 39.4597C149.524 39.1246 149.359 38.791 149.19 38.459Z" fill="#664611"/>
<path d="M151.333 43.1812L72.9219 121.151C73.2801 121.295 73.6413 121.434 74.0041 121.57L151.753 44.2558C151.616 43.8951 151.475 43.5374 151.333 43.1797V43.1812Z" fill="#664611"/>
<path d="M143.948 29.9688L59.6348 113.809C59.9232 114.02 60.2146 114.228 60.5075 114.435L144.578 30.8366C144.37 30.5453 144.161 30.2555 143.948 29.9688Z" fill="#664611"/>
<path d="M146.72 34.0625L63.7529 116.564C64.0641 116.754 64.3752 116.941 64.6894 117.127L147.286 34.9952C147.101 34.6828 146.911 34.3719 146.72 34.064V34.0625Z" fill="#664611"/>
<path d="M137.549 22.6289L52.2539 107.445C52.5013 107.697 52.7518 107.945 53.0052 108.192L138.301 23.376C138.052 23.1255 137.801 22.8764 137.549 22.6289Z" fill="#664611"/>
<path d="M140.889 26.1597L55.8047 110.765C56.0733 110.996 56.3435 111.225 56.6167 111.452L141.58 26.9657C141.352 26.6955 141.122 26.4253 140.889 26.1582V26.1597Z" fill="#664611"/>
<path d="M130.036 16.398L45.9883 99.9738C46.1947 100.265 46.4042 100.555 46.6167 100.843L130.91 17.0213C130.621 16.81 130.329 16.6033 130.036 16.3965V16.398Z" fill="#664611"/>
<path d="M133.932 19.375L48.9814 103.849C49.2091 104.121 49.4383 104.389 49.6705 104.656L134.746 20.0602C134.477 19.8293 134.206 19.6014 133.932 19.375Z" fill="#664611"/>
<path d="M121.352 11.3281L40.8896 91.339C41.0521 91.6741 41.2175 92.0091 41.3845 92.3412L122.36 11.8202C122.026 11.6526 121.691 11.4881 121.352 11.3281Z" fill="#664611"/>
<path d="M125.849 13.7109L43.2852 95.8107C43.4703 96.1231 43.6585 96.434 43.8498 96.7434L126.787 14.2724C126.476 14.0822 126.163 13.8951 125.849 13.7109Z" fill="#664611"/>
<path d="M111.321 7.60307L37.1406 81.367C37.2484 81.7564 37.3592 82.1442 37.4745 82.5291L112.49 7.93361C112.101 7.8189 111.711 7.70872 111.321 7.60156V7.60307Z" fill="#664611"/>
<path d="M116.523 9.28125L38.8291 86.5392C38.9657 86.8999 39.1053 87.2591 39.248 87.6168L117.607 9.69782C117.247 9.55594 116.886 9.41709 116.523 9.28125Z" fill="#664611"/>
<path d="M99.5429 5.61133L35.1387 69.6523C35.1705 70.1142 35.2085 70.576 35.251 71.0348L100.933 5.72302C100.472 5.68076 100.007 5.64302 99.5429 5.61133Z" fill="#664611"/>
<path d="M105.691 6.34961L35.8828 75.7652C35.9572 76.1878 36.0346 76.6074 36.1166 77.027L106.959 6.58355C106.537 6.50205 106.116 6.42357 105.691 6.35112V6.34961Z" fill="#664611"/>
<path d="M85.0392 6.3324L35.8633 55.2321C35.7616 55.8192 35.669 56.4109 35.584 57.004L86.8211 6.05469C86.2246 6.1377 85.6312 6.23128 85.0392 6.3324Z" fill="#664611"/>
<path d="M92.7465 5.51794L35.0465 62.8939C35.0253 63.4055 35.0101 63.9187 35.001 64.4334L94.2947 5.47266C93.7771 5.48171 93.2611 5.4953 92.7465 5.51794Z" fill="#664611"/>
<path d="M62.3139 15.2261L44.8073 32.6344C44.0014 33.8599 43.2379 35.1156 42.5215 36.4016L66.1024 12.9531C64.8092 13.6655 63.5464 14.4247 62.3139 15.2261Z" fill="#664611"/>
<path d="M75.7942 8.67359L38.2205 46.0362C37.9701 46.7622 37.7348 47.4957 37.5117 48.2353L78.0042 7.96875C77.2605 8.18911 76.5243 8.42456 75.7927 8.67359H75.7942Z" fill="#664611"/>
<path d="M146.036 97.9012C146.814 96.6998 147.552 95.4682 148.246 94.2109L124.241 118.08C125.507 117.391 126.744 116.659 127.952 115.883L146.036 97.9012Z" fill="#664611"/>
<path d="M155.051 73.7402L103.653 124.85C104.248 124.768 104.84 124.678 105.429 124.578L154.778 75.5061C154.878 74.9205 154.969 74.3319 155.051 73.7402Z" fill="#664611"/>
<path d="M153.157 82.4746L112.438 122.965C113.178 122.747 113.911 122.516 114.636 122.273L152.462 84.6601C152.708 83.9371 152.94 83.2081 153.157 82.4746Z" fill="#664611"/>
<path d="M155.353 59.7363L89.5693 125.151C90.0308 125.195 90.4922 125.232 90.9566 125.265L155.467 61.1173C155.434 60.6555 155.396 60.1967 155.352 59.7378L155.353 59.7363Z" fill="#664611"/>
<path d="M155.618 66.3242L96.1982 125.41C96.7143 125.403 97.2289 125.389 97.7419 125.369L155.577 67.8592C155.597 67.349 155.612 66.8374 155.618 66.3242Z" fill="#664611"/>
<path d="M153.113 48.2617L78.0312 122.922C78.4183 123.037 78.8084 123.147 79.1985 123.256L153.447 49.4239C153.34 49.036 153.229 48.6481 153.112 48.2632L153.113 48.2617Z" fill="#664611"/>
<path d="M154.479 53.7559L83.5557 124.281C83.9761 124.364 84.3981 124.442 84.8215 124.516L154.714 55.0161C154.64 54.595 154.561 54.1754 154.477 53.7574L154.479 53.7559Z" fill="#664611"/>
<path d="M144.579 55.228C152.907 55.228 159.658 48.5146 159.658 40.2331C159.658 31.9517 152.907 25.2383 144.579 25.2383C136.25 25.2383 129.499 31.9517 129.499 40.2331C129.499 48.5146 136.25 55.228 144.579 55.228Z" fill="#FF3450"/>
<path d="M121.765 110.667C123.525 110.667 124.952 109.248 124.952 107.498C124.952 105.747 123.525 104.328 121.765 104.328C120.004 104.328 118.577 105.747 118.577 107.498C118.577 109.248 120.004 110.667 121.765 110.667Z" fill="#FF7885"/>
<path d="M121.764 111.045C123.734 111.045 125.331 109.457 125.331 107.498C125.331 105.539 123.734 103.951 121.764 103.951C119.794 103.951 118.197 105.539 118.197 107.498C118.197 109.457 119.794 111.045 121.764 111.045Z" fill="#FF7885"/>
<path d="M43.4732 102.172L37.3535 105.035L39.0771 108.677L45.1968 105.814L43.4732 102.172Z" fill="#465282"/>
<path d="M13.9609 108.215L3.41961 112.029C3.41961 112.029 2.1249 111.652 1.03207 109.339C-0.0622795 107.029 0.470476 105.796 0.470476 105.796L10.1451 100.152L13.9594 108.213L13.9609 108.215Z" fill="#253DAC"/>
<path d="M32.8731 103.101L14.975 110.358C14.975 110.358 13.0185 110.972 10.2151 105.045C7.41012 99.1181 9.13285 98.0118 9.13285 98.0118L26.1659 88.9258L32.8731 103.101Z" fill="#253DAC"/>
<path d="M58.8714 95.9519L34.3829 106.292C34.3829 106.292 32.1244 107.349 27.2597 97.0703C22.3951 86.7904 24.6551 85.7339 24.6551 85.7339L48.2785 73.5645L58.8714 95.9519Z" fill="#253DAC"/>
<path d="M73.9387 93.4845L60.6456 99.7043C60.6456 99.7043 57.2988 100.835 50.6826 86.8511C44.0665 72.869 46.501 69.8097 46.501 69.8097L59.7941 63.5898L73.9387 93.4845Z" fill="#4766C4"/>
<path d="M73.9402 93.4822C75.7727 92.6247 74.0915 85.2376 70.185 76.9825C66.2785 68.7275 61.6262 62.7306 59.7936 63.588C57.9611 64.4455 59.6424 71.8327 63.5489 80.0877C67.4553 88.3427 72.1077 94.3396 73.9402 93.4822Z" fill="#A2B8F2"/>
<path d="M73.1908 91.897C74.4779 91.2947 72.6902 84.8237 69.1977 77.4436C65.7053 70.0634 61.8307 64.5689 60.5435 65.1712C59.2563 65.7735 61.0441 72.2445 64.5365 79.6246C68.029 87.0048 71.9036 92.4993 73.1908 91.897Z" fill="#01112A"/>
<path d="M10.2138 105.044C9.38657 103.297 8.95399 101.97 8.75364 100.965L7.13867 101.907C8.02963 107.905 12.445 108.763 12.445 108.763C11.7938 107.969 11.041 106.791 10.2138 105.044Z" fill="#01112A"/>
<path d="M24.4845 89.8223L22.0742 91.1082C24.0246 100.866 31.1068 103.818 31.1068 103.818C30.0777 102.443 28.7997 100.325 27.2591 97.0714C25.7185 93.8174 24.8943 91.487 24.4845 89.8223Z" fill="#01112A"/>
<path d="M46.3123 74.5762L43.1006 76.2304C46.373 92.736 56.6138 96.9047 56.6138 96.9047C55.0747 95.0377 53.097 91.9497 50.6851 86.8513C47.9576 81.0858 46.7676 77.1782 46.3123 74.5762Z" fill="#01112A"/>
<path d="M46.3954 116.251H46.8128V114.633H38.952V116.251H39.3694L26.5908 146.929H28.3515L40.9767 116.618L40.0873 116.251H42.0696V146.929H43.6952V116.251H45.6774L44.788 116.618L57.4132 146.929H59.1739L46.3954 116.251Z" fill="#465282"/>
<path d="M44.1264 111.699H41.6493V109.02L40.1982 105.62L42.4795 104.658L44.1264 108.52V111.699Z" fill="#465282"/>
<path d="M38.9609 114.723C38.9609 112.566 40.7186 110.818 42.8875 110.818C45.0565 110.818 46.8142 112.566 46.8142 114.723H38.9625H38.9609Z" fill="#465282"/>
</g>
<defs>
<clipPath id="clip0_478_57421">
<rect width="159.317" height="150" fill="white" transform="translate(0.341797 0.5)"/>
</clipPath>
</defs>
</svg>
