<svg width="624" height="319" viewBox="0 0 624 319" fill="none" xmlns="http://www.w3.org/2000/svg">
<path d="M296.145 148.118L297.679 151.187C297.679 151.528 298.395 152.108 301.259 151.699C304.84 151.187 309.443 151.187 310.466 151.187C311.284 151.187 312.853 148.118 313.535 146.584" stroke="#6A1DC3"/>
<path d="M320.695 148.119L320.184 151.699C320.184 152.04 320.286 152.825 320.695 153.234C321.104 153.643 325.298 155.45 327.344 156.303C328.197 156.303 330.413 155.791 332.459 153.745" stroke="#6A1DC3"/>
<path d="M274.662 160.906L279.265 161.417C279.777 161.587 281.004 161.724 281.823 160.906C282.641 160.087 286.426 157.325 286.938 156.814C287.449 156.302 287.96 153.745 284.38 151.188V158.833" stroke="#6A1DC3"/>
<path fill-rule="evenodd" clip-rule="evenodd" d="M62.1344 172.63C61.1722 165.988 65.0925 159.154 73.8954 154.072C89.7663 144.908 115.498 144.908 131.369 154.072C140.172 159.154 144.092 165.988 143.13 172.63H143.262V237.708C143.039 243.537 139.074 249.328 131.369 253.776C115.498 262.939 89.7663 262.939 73.8954 253.776C66.1902 249.328 62.2258 243.537 62.0022 237.708V172.63H62.1344Z" fill="white"/>
<path d="M62.1344 172.63V173.13L62.6292 172.558L62.1344 172.63ZM73.8954 154.072L74.1454 154.505L73.8954 154.072ZM131.369 154.072L131.119 154.505L131.119 154.505L131.369 154.072ZM143.13 172.63L142.635 172.558L143.13 173.13V172.63ZM143.262 172.63H143.762L143.262 172.13V172.63ZM143.262 237.708L143.762 237.727L143.762 237.708H143.262ZM131.369 253.776L131.119 253.343L131.119 253.343L131.369 253.776ZM73.8954 253.776L74.1454 253.343L74.1454 253.343L73.8954 253.776ZM62.0022 237.708H61.5022L61.5026 237.727L62.0022 237.708ZM62.0022 172.63V172.13L61.5022 172.63H62.0022ZM62.6292 172.558C61.7072 166.193 65.4437 159.528 74.1454 154.505L73.6454 153.639C64.7413 158.779 60.6372 165.782 61.6396 172.702L62.6292 172.558ZM74.1454 154.505C81.9869 149.977 92.296 147.699 102.632 147.699C112.968 147.699 123.277 149.977 131.119 154.505L131.619 153.639C123.59 149.003 113.097 146.699 102.632 146.699C92.167 146.699 81.6747 149.003 73.6454 153.639L74.1454 154.505ZM131.119 154.505C139.821 159.528 143.557 166.193 142.635 172.558L143.625 172.702C144.627 165.782 140.523 158.779 131.619 153.639L131.119 154.505ZM143.262 172.13H143.13V173.13H143.262V172.13ZM143.762 237.708V172.63H142.762V237.708H143.762ZM131.619 254.209C139.413 249.71 143.529 243.788 143.762 237.727L142.763 237.689C142.548 243.287 138.736 248.946 131.119 253.343L131.619 254.209ZM73.6454 254.209C81.6747 258.845 92.167 261.149 102.632 261.149C113.097 261.149 123.59 258.845 131.619 254.209L131.119 253.343C123.277 257.871 112.968 260.149 102.632 260.149C92.296 260.149 81.9869 257.871 74.1454 253.343L73.6454 254.209ZM61.5026 237.727C61.735 243.788 65.8516 249.71 73.6454 254.209L74.1454 253.343C66.5288 248.946 62.7166 243.287 62.5018 237.689L61.5026 237.727ZM61.5022 172.63V237.708H62.5022V172.63H61.5022ZM62.1344 172.13H62.0022V173.13H62.1344V172.13Z" fill="#173369"/>
<path d="M62.0009 193.362C62.2245 199.191 66.1888 204.982 73.894 209.431C89.7649 218.594 115.497 218.594 131.368 209.431C139.073 204.982 143.037 199.191 143.261 193.362" stroke="#173369"/>
<path d="M62.0009 215.38C62.2245 221.209 66.1888 227 73.894 231.448C89.7649 240.611 115.497 240.611 131.368 231.448C139.073 227 143.037 221.209 143.261 215.38" stroke="#173369"/>
<path d="M62.0009 238.306C62.2245 232.477 66.1888 226.686 73.894 222.237C89.7649 213.074 115.497 213.074 131.368 222.237C139.073 226.686 143.037 232.477 143.261 238.306" stroke="white" stroke-opacity="0.3"/>
<path d="M62.0009 215.3C62.2245 209.471 66.1888 203.68 73.894 199.232C89.7649 190.069 115.497 190.069 131.368 199.232C139.073 203.68 143.037 209.471 143.261 215.3" stroke="white" stroke-opacity="0.3"/>
<path d="M62.0009 196.523C62.2245 190.693 66.1888 184.903 73.894 180.454C89.7649 171.291 115.497 171.291 131.368 180.454C139.073 184.903 143.037 190.693 143.261 196.523" stroke="white" stroke-opacity="0.3"/>
<circle cx="33.1824" cy="33.1824" r="33.1824" transform="matrix(0.866025 0.5 -0.866025 0.5 102.631 137.48)" fill="white" stroke="#173369" stroke-linejoin="bevel"/>
<path d="M62.0009 171.186C62.2245 177.016 66.1888 182.806 73.894 187.255C89.7649 196.418 115.497 196.418 131.368 187.255C139.073 182.806 143.037 177.016 143.261 171.186" stroke="#173369"/>
<rect x="45.6582" y="19.9844" width="532.684" height="40.0526" rx="1.5" stroke="#173369"/>
<path d="M275.56 41.8554H271.96L271.348 43.9434H270.268L272.812 35.5434H274.708L277.252 43.9434H276.172L275.56 41.8554ZM273.688 35.9754L272.236 40.9194H275.284L273.832 35.9754H273.688ZM279.2 46.3434H278.264V37.9914H279.2V38.9274H279.344C279.552 38.5674 279.84 38.2954 280.208 38.1114C280.576 37.9194 280.976 37.8234 281.408 37.8234C281.776 37.8234 282.124 37.8914 282.452 38.0274C282.78 38.1634 283.068 38.3594 283.316 38.6154C283.572 38.8714 283.772 39.1874 283.916 39.5634C284.068 39.9394 284.144 40.3674 284.144 40.8474V41.0874C284.144 41.5754 284.072 42.0074 283.928 42.3834C283.784 42.7594 283.584 43.0754 283.328 43.3314C283.08 43.5874 282.788 43.7834 282.452 43.9194C282.116 44.0474 281.76 44.1114 281.384 44.1114C281.192 44.1114 280.996 44.0874 280.796 44.0394C280.596 43.9994 280.404 43.9354 280.22 43.8474C280.044 43.7514 279.88 43.6394 279.728 43.5114C279.576 43.3754 279.448 43.2154 279.344 43.0314H279.2V46.3434ZM281.192 43.2234C281.48 43.2234 281.744 43.1754 281.984 43.0794C282.224 42.9754 282.432 42.8314 282.608 42.6474C282.792 42.4634 282.932 42.2394 283.028 41.9754C283.132 41.7114 283.184 41.4154 283.184 41.0874V40.8474C283.184 40.5274 283.132 40.2394 283.028 39.9834C282.932 39.7194 282.792 39.4954 282.608 39.3114C282.432 39.1194 282.22 38.9714 281.972 38.8674C281.732 38.7634 281.472 38.7114 281.192 38.7114C280.912 38.7114 280.652 38.7674 280.412 38.8794C280.172 38.9834 279.96 39.1314 279.776 39.3234C279.6 39.5154 279.46 39.7474 279.356 40.0194C279.252 40.2834 279.2 40.5754 279.2 40.8954V41.0394C279.2 41.3674 279.252 41.6674 279.356 41.9394C279.46 42.2034 279.6 42.4314 279.776 42.6234C279.96 42.8154 280.172 42.9634 280.412 43.0674C280.652 43.1714 280.912 43.2234 281.192 43.2234ZM286.547 46.3434H285.611V37.9914H286.547V38.9274H286.691C286.899 38.5674 287.187 38.2954 287.555 38.1114C287.923 37.9194 288.323 37.8234 288.755 37.8234C289.123 37.8234 289.471 37.8914 289.799 38.0274C290.127 38.1634 290.415 38.3594 290.663 38.6154C290.919 38.8714 291.119 39.1874 291.263 39.5634C291.415 39.9394 291.491 40.3674 291.491 40.8474V41.0874C291.491 41.5754 291.419 42.0074 291.275 42.3834C291.131 42.7594 290.931 43.0754 290.675 43.3314C290.427 43.5874 290.135 43.7834 289.799 43.9194C289.463 44.0474 289.107 44.1114 288.731 44.1114C288.539 44.1114 288.343 44.0874 288.143 44.0394C287.943 43.9994 287.751 43.9354 287.567 43.8474C287.391 43.7514 287.227 43.6394 287.075 43.5114C286.923 43.3754 286.795 43.2154 286.691 43.0314H286.547V46.3434ZM288.539 43.2234C288.827 43.2234 289.091 43.1754 289.331 43.0794C289.571 42.9754 289.779 42.8314 289.955 42.6474C290.139 42.4634 290.279 42.2394 290.375 41.9754C290.479 41.7114 290.531 41.4154 290.531 41.0874V40.8474C290.531 40.5274 290.479 40.2394 290.375 39.9834C290.279 39.7194 290.139 39.4954 289.955 39.3114C289.779 39.1194 289.567 38.9714 289.319 38.8674C289.079 38.7634 288.819 38.7114 288.539 38.7114C288.259 38.7114 287.999 38.7674 287.759 38.8794C287.519 38.9834 287.307 39.1314 287.123 39.3234C286.947 39.5154 286.807 39.7474 286.703 40.0194C286.599 40.2834 286.547 40.5754 286.547 40.8954V41.0394C286.547 41.3674 286.599 41.6674 286.703 41.9394C286.807 42.2034 286.947 42.4314 287.123 42.6234C287.307 42.8154 287.519 42.9634 287.759 43.0674C287.999 43.1714 288.259 43.2234 288.539 43.2234ZM293.175 43.0794H295.335V36.4074H293.247V35.5434H296.271V43.0794H298.431V43.9434H293.175V43.0794ZM302.371 36.2154C302.371 35.9834 302.451 35.7874 302.611 35.6274C302.779 35.4594 302.979 35.3754 303.211 35.3754C303.443 35.3754 303.639 35.4594 303.799 35.6274C303.967 35.7874 304.051 35.9834 304.051 36.2154C304.051 36.4474 303.967 36.6474 303.799 36.8154C303.639 36.9754 303.443 37.0554 303.211 37.0554C302.979 37.0554 302.779 36.9754 302.611 36.8154C302.451 36.6474 302.371 36.4474 302.371 36.2154ZM300.667 43.0794H302.755V38.8554H300.883V37.9914H303.691V43.0794H305.635V43.9434H300.667V43.0794ZM313.438 41.8314C313.374 42.1594 313.262 42.4634 313.102 42.7434C312.95 43.0234 312.754 43.2674 312.514 43.4754C312.274 43.6754 311.994 43.8314 311.674 43.9434C311.354 44.0554 310.998 44.1114 310.606 44.1114C310.19 44.1114 309.794 44.0434 309.418 43.9074C309.05 43.7714 308.726 43.5754 308.446 43.3194C308.166 43.0554 307.942 42.7354 307.774 42.3594C307.614 41.9834 307.534 41.5514 307.534 41.0634V40.9194C307.534 40.4394 307.614 40.0074 307.774 39.6234C307.942 39.2394 308.166 38.9154 308.446 38.6514C308.726 38.3874 309.05 38.1834 309.418 38.0394C309.794 37.8954 310.19 37.8234 310.606 37.8234C310.982 37.8234 311.33 37.8794 311.65 37.9914C311.97 38.1034 312.25 38.2634 312.49 38.4714C312.738 38.6714 312.938 38.9114 313.09 39.1914C313.25 39.4714 313.358 39.7754 313.414 40.1034L312.478 40.3194C312.454 40.1114 312.394 39.9114 312.298 39.7194C312.21 39.5194 312.086 39.3474 311.926 39.2034C311.774 39.0514 311.586 38.9314 311.362 38.8434C311.138 38.7554 310.878 38.7114 310.582 38.7114C310.294 38.7114 310.022 38.7674 309.766 38.8794C309.518 38.9834 309.298 39.1354 309.106 39.3354C308.914 39.5274 308.762 39.7594 308.65 40.0314C308.546 40.3034 308.494 40.5994 308.494 40.9194V41.0634C308.494 41.3994 308.546 41.7034 308.65 41.9754C308.762 42.2394 308.914 42.4634 309.106 42.6474C309.298 42.8314 309.522 42.9754 309.778 43.0794C310.034 43.1754 310.31 43.2234 310.606 43.2234C310.902 43.2234 311.158 43.1794 311.374 43.0914C311.598 42.9954 311.786 42.8754 311.938 42.7314C312.098 42.5794 312.222 42.4074 312.31 42.2154C312.406 42.0234 312.47 41.8234 312.502 41.6154L313.438 41.8314ZM319.538 42.9354H319.394C319.202 43.3354 318.934 43.6314 318.59 43.8234C318.254 44.0154 317.898 44.1114 317.522 44.1114C317.13 44.1114 316.766 44.0474 316.43 43.9194C316.094 43.7834 315.798 43.5874 315.542 43.3314C315.294 43.0674 315.098 42.7474 314.954 42.3714C314.81 41.9954 314.738 41.5594 314.738 41.0634V40.8714C314.738 40.3834 314.81 39.9514 314.954 39.5754C315.098 39.1994 315.294 38.8834 315.542 38.6274C315.798 38.3634 316.094 38.1634 316.43 38.0274C316.766 37.8914 317.122 37.8234 317.498 37.8234C317.906 37.8234 318.274 37.9154 318.602 38.0994C318.938 38.2754 319.202 38.5514 319.394 38.9274H319.538V37.9914H320.474V42.7194C320.474 42.9594 320.582 43.0794 320.798 43.0794H321.098V43.9434H320.462C320.19 43.9434 319.966 43.8554 319.79 43.6794C319.622 43.5034 319.538 43.2794 319.538 43.0074V42.9354ZM317.618 43.2234C317.898 43.2234 318.154 43.1714 318.386 43.0674C318.626 42.9634 318.83 42.8154 318.998 42.6234C319.166 42.4314 319.298 42.2034 319.394 41.9394C319.49 41.6674 319.538 41.3674 319.538 41.0394V40.8954C319.538 40.5754 319.49 40.2834 319.394 40.0194C319.298 39.7474 319.162 39.5154 318.986 39.3234C318.818 39.1314 318.614 38.9834 318.374 38.8794C318.142 38.7674 317.89 38.7114 317.618 38.7114C317.338 38.7114 317.082 38.7634 316.85 38.8674C316.618 38.9714 316.414 39.1194 316.238 39.3114C316.07 39.4954 315.938 39.7234 315.842 39.9954C315.746 40.2594 315.698 40.5514 315.698 40.8714V41.0634C315.698 41.7434 315.874 42.2754 316.226 42.6594C316.586 43.0354 317.05 43.2234 317.618 43.2234ZM322.361 37.9914H324.233V35.5434H325.169V37.9914H327.473V38.8554H325.169V42.7194C325.169 42.9594 325.277 43.0794 325.493 43.0794H327.185V43.9434H325.157C324.885 43.9434 324.661 43.8554 324.485 43.6794C324.317 43.5034 324.233 43.2794 324.233 43.0074V38.8554H322.361V37.9914ZM331.761 36.2154C331.761 35.9834 331.841 35.7874 332.001 35.6274C332.169 35.4594 332.369 35.3754 332.601 35.3754C332.833 35.3754 333.029 35.4594 333.189 35.6274C333.357 35.7874 333.441 35.9834 333.441 36.2154C333.441 36.4474 333.357 36.6474 333.189 36.8154C333.029 36.9754 332.833 37.0554 332.601 37.0554C332.369 37.0554 332.169 36.9754 332.001 36.8154C331.841 36.6474 331.761 36.4474 331.761 36.2154ZM330.057 43.0794H332.145V38.8554H330.273V37.9914H333.081V43.0794H335.025V43.9434H330.057V43.0794ZM342.877 41.0394C342.877 41.5354 342.793 41.9754 342.625 42.3594C342.465 42.7354 342.249 43.0554 341.977 43.3194C341.705 43.5754 341.385 43.7714 341.017 43.9074C340.657 44.0434 340.281 44.1114 339.889 44.1114C339.489 44.1114 339.109 44.0434 338.749 43.9074C338.389 43.7714 338.073 43.5754 337.801 43.3194C337.529 43.0554 337.309 42.7354 337.141 42.3594C336.981 41.9754 336.901 41.5354 336.901 41.0394V40.8954C336.901 40.4074 336.981 39.9754 337.141 39.5994C337.309 39.2154 337.529 38.8914 337.801 38.6274C338.081 38.3634 338.401 38.1634 338.761 38.0274C339.121 37.8914 339.497 37.8234 339.889 37.8234C340.281 37.8234 340.657 37.8914 341.017 38.0274C341.377 38.1634 341.693 38.3634 341.965 38.6274C342.245 38.8914 342.465 39.2154 342.625 39.5994C342.793 39.9754 342.877 40.4074 342.877 40.8954V41.0394ZM339.889 43.2234C340.177 43.2234 340.441 43.1754 340.681 43.0794C340.929 42.9754 341.145 42.8274 341.329 42.6354C341.513 42.4434 341.657 42.2154 341.761 41.9514C341.865 41.6794 341.917 41.3754 341.917 41.0394V40.8954C341.917 40.5754 341.865 40.2834 341.761 40.0194C341.657 39.7474 341.513 39.5154 341.329 39.3234C341.145 39.1314 340.929 38.9834 340.681 38.8794C340.433 38.7674 340.169 38.7114 339.889 38.7114C339.609 38.7114 339.345 38.7674 339.097 38.8794C338.849 38.9834 338.633 39.1314 338.449 39.3234C338.265 39.5154 338.121 39.7474 338.017 40.0194C337.913 40.2834 337.861 40.5754 337.861 40.8954V41.0394C337.861 41.3754 337.913 41.6794 338.017 41.9514C338.121 42.2154 338.265 42.4434 338.449 42.6354C338.633 42.8274 338.845 42.9754 339.085 43.0794C339.333 43.1754 339.601 43.2234 339.889 43.2234ZM345.544 43.9434H344.608V37.9914H345.544V38.9994H345.688C346.056 38.2154 346.696 37.8234 347.608 37.8234C348.296 37.8234 348.844 38.0394 349.252 38.4714C349.66 38.8954 349.864 39.5354 349.864 40.3914V43.9434H348.928V40.5834C348.928 39.9594 348.788 39.4914 348.508 39.1794C348.228 38.8674 347.848 38.7114 347.368 38.7114C346.8 38.7114 346.352 38.9074 346.024 39.2994C345.704 39.6834 345.544 40.1994 345.544 40.8474V43.9434Z" fill="#173369"/>
<path d="M541.468 104.363H540.628V102.023C540.628 101.85 540.588 101.717 540.508 101.623C540.428 101.53 540.288 101.483 540.088 101.483H537.908V104.363H537.068V97.3633H539.568C539.928 97.3633 540.241 97.4166 540.508 97.5233C540.775 97.6233 540.995 97.7599 541.168 97.9333C541.348 98.1066 541.481 98.3099 541.568 98.5433C541.661 98.7699 541.708 99.0099 541.708 99.2633V99.5633C541.708 99.8233 541.635 100.083 541.488 100.343C541.348 100.603 541.128 100.803 540.828 100.943V101.063C541.028 101.097 541.185 101.177 541.298 101.303C541.411 101.43 541.468 101.61 541.468 101.843V104.363ZM537.908 100.703H539.468C539.941 100.703 540.291 100.603 540.518 100.403C540.751 100.197 540.868 99.8966 540.868 99.5033V99.3233C540.868 98.9699 540.751 98.6866 540.518 98.4733C540.291 98.2533 539.941 98.1433 539.468 98.1433H537.908V100.703ZM543.781 102.123C543.801 102.617 543.954 103.013 544.241 103.313C544.528 103.613 544.928 103.763 545.441 103.763C545.674 103.763 545.878 103.737 546.051 103.683C546.224 103.63 546.371 103.557 546.491 103.463C546.618 103.37 546.718 103.263 546.791 103.143C546.871 103.017 546.934 102.883 546.981 102.743L547.721 102.943C547.581 103.403 547.321 103.78 546.941 104.073C546.568 104.36 546.061 104.503 545.421 104.503C545.068 104.503 544.741 104.443 544.441 104.323C544.148 104.197 543.894 104.02 543.681 103.793C543.468 103.567 543.301 103.297 543.181 102.983C543.061 102.67 543.001 102.323 543.001 101.943V101.703C543.001 101.357 543.061 101.033 543.181 100.733C543.308 100.433 543.481 100.177 543.701 99.9633C543.921 99.7433 544.178 99.5733 544.471 99.4533C544.771 99.3266 545.094 99.2633 545.441 99.2633C545.848 99.2633 546.198 99.3399 546.491 99.4933C546.791 99.6399 547.034 99.8233 547.221 100.043C547.414 100.263 547.554 100.503 547.641 100.763C547.734 101.023 547.781 101.263 547.781 101.483V102.123H543.781ZM545.441 100.003C545.221 100.003 545.014 100.04 544.821 100.113C544.634 100.18 544.468 100.277 544.321 100.403C544.181 100.53 544.064 100.68 543.971 100.853C543.884 101.02 543.828 101.203 543.801 101.403H547.001C546.988 101.19 546.934 100.997 546.841 100.823C546.754 100.65 546.638 100.503 546.491 100.383C546.351 100.263 546.188 100.17 546.001 100.103C545.821 100.037 545.634 100.003 545.441 100.003ZM552.934 103.523H552.814C552.654 103.857 552.431 104.103 552.144 104.263C551.864 104.423 551.567 104.503 551.254 104.503C550.927 104.503 550.624 104.45 550.344 104.343C550.064 104.23 549.817 104.067 549.604 103.853C549.397 103.633 549.234 103.367 549.114 103.053C548.994 102.74 548.934 102.377 548.934 101.963V101.803C548.934 101.397 548.994 101.037 549.114 100.723C549.234 100.41 549.397 100.147 549.604 99.9333C549.817 99.7133 550.064 99.5466 550.344 99.4333C550.624 99.3199 550.921 99.2633 551.234 99.2633C551.574 99.2633 551.881 99.3399 552.154 99.4933C552.434 99.6399 552.654 99.8699 552.814 100.183H552.934V99.4033H553.714V103.343C553.714 103.543 553.804 103.643 553.984 103.643H554.234V104.363H553.704C553.477 104.363 553.291 104.29 553.144 104.143C553.004 103.997 552.934 103.81 552.934 103.583V103.523ZM551.334 103.763C551.567 103.763 551.781 103.72 551.974 103.633C552.174 103.547 552.344 103.423 552.484 103.263C552.624 103.103 552.734 102.913 552.814 102.693C552.894 102.467 552.934 102.217 552.934 101.943V101.823C552.934 101.557 552.894 101.313 552.814 101.093C552.734 100.867 552.621 100.673 552.474 100.513C552.334 100.353 552.164 100.23 551.964 100.143C551.771 100.05 551.561 100.003 551.334 100.003C551.101 100.003 550.887 100.047 550.694 100.133C550.501 100.22 550.331 100.343 550.184 100.503C550.044 100.657 549.934 100.847 549.854 101.073C549.774 101.293 549.734 101.537 549.734 101.803V101.963C549.734 102.53 549.881 102.973 550.174 103.293C550.474 103.607 550.861 103.763 551.334 103.763ZM559.297 103.603H559.177C559.097 103.757 558.994 103.89 558.867 104.003C558.747 104.117 558.614 104.21 558.467 104.283C558.327 104.357 558.177 104.41 558.017 104.443C557.857 104.483 557.704 104.503 557.557 104.503C557.224 104.503 556.914 104.447 556.627 104.333C556.34 104.22 556.087 104.057 555.867 103.843C555.654 103.63 555.484 103.367 555.357 103.053C555.237 102.733 555.177 102.37 555.177 101.963V101.803C555.177 101.403 555.24 101.047 555.367 100.733C555.494 100.413 555.664 100.147 555.877 99.9333C556.09 99.7133 556.34 99.5466 556.627 99.4333C556.914 99.3199 557.217 99.2633 557.537 99.2633C557.877 99.2633 558.194 99.3399 558.487 99.4933C558.787 99.6399 559.017 99.8699 559.177 100.183H559.297V97.3633H560.077V104.363H559.297V103.603ZM557.637 103.763C557.87 103.763 558.087 103.72 558.287 103.633C558.487 103.547 558.66 103.423 558.807 103.263C558.96 103.103 559.08 102.913 559.167 102.693C559.254 102.467 559.297 102.217 559.297 101.943V101.823C559.297 101.557 559.254 101.313 559.167 101.093C559.08 100.867 558.96 100.673 558.807 100.513C558.66 100.353 558.484 100.23 558.277 100.143C558.077 100.05 557.864 100.003 557.637 100.003C557.404 100.003 557.184 100.047 556.977 100.133C556.777 100.22 556.6 100.343 556.447 100.503C556.3 100.663 556.184 100.853 556.097 101.073C556.017 101.293 555.977 101.537 555.977 101.803V101.963C555.977 102.243 556.017 102.493 556.097 102.713C556.184 102.933 556.3 103.123 556.447 103.283C556.6 103.437 556.777 103.557 556.977 103.643C557.177 103.723 557.397 103.763 557.637 103.763Z" fill="#173369"/>
<path d="M75.7599 274.668H78.5199C79.5599 274.668 80.3199 274.916 80.7999 275.412C81.2799 275.908 81.5199 276.7 81.5199 277.788V279.948C81.5199 281.036 81.2799 281.828 80.7999 282.324C80.3199 282.82 79.5599 283.068 78.5199 283.068H75.7599V282.12H76.4799V275.604H75.7599V274.668ZM78.3759 282.132C78.7439 282.132 79.0599 282.096 79.3239 282.024C79.5959 281.952 79.8199 281.832 79.9959 281.664C80.1719 281.488 80.2999 281.256 80.3799 280.968C80.4679 280.68 80.5119 280.316 80.5119 279.876V277.86C80.5119 277.42 80.4679 277.056 80.3799 276.768C80.2999 276.48 80.1719 276.252 79.9959 276.084C79.8199 275.908 79.5959 275.784 79.3239 275.712C79.0599 275.64 78.7439 275.604 78.3759 275.604H77.4879V282.132H78.3759ZM87.5956 282.06H87.4516C87.2596 282.46 86.9916 282.756 86.6476 282.948C86.3116 283.14 85.9556 283.236 85.5796 283.236C85.1876 283.236 84.8236 283.172 84.4876 283.044C84.1516 282.908 83.8556 282.712 83.5996 282.456C83.3516 282.192 83.1556 281.872 83.0116 281.496C82.8676 281.12 82.7956 280.684 82.7956 280.188V279.996C82.7956 279.508 82.8676 279.076 83.0116 278.7C83.1556 278.324 83.3516 278.008 83.5996 277.752C83.8556 277.488 84.1516 277.288 84.4876 277.152C84.8236 277.016 85.1796 276.948 85.5556 276.948C85.9636 276.948 86.3316 277.04 86.6596 277.224C86.9956 277.4 87.2596 277.676 87.4516 278.052H87.5956V277.116H88.5316V281.844C88.5316 282.084 88.6396 282.204 88.8556 282.204H89.1556V283.068H88.5196C88.2476 283.068 88.0236 282.98 87.8476 282.804C87.6796 282.628 87.5956 282.404 87.5956 282.132V282.06ZM85.6756 282.348C85.9556 282.348 86.2116 282.296 86.4436 282.192C86.6836 282.088 86.8876 281.94 87.0556 281.748C87.2236 281.556 87.3556 281.328 87.4516 281.064C87.5476 280.792 87.5956 280.492 87.5956 280.164V280.02C87.5956 279.7 87.5476 279.408 87.4516 279.144C87.3556 278.872 87.2196 278.64 87.0436 278.448C86.8756 278.256 86.6716 278.108 86.4316 278.004C86.1996 277.892 85.9476 277.836 85.6756 277.836C85.3956 277.836 85.1396 277.888 84.9076 277.992C84.6756 278.096 84.4716 278.244 84.2956 278.436C84.1276 278.62 83.9956 278.848 83.8996 279.12C83.8036 279.384 83.7556 279.676 83.7556 279.996V280.188C83.7556 280.868 83.9316 281.4 84.2836 281.784C84.6436 282.16 85.1076 282.348 85.6756 282.348ZM90.4192 277.116H92.2912V274.668H93.2272V277.116H95.5312V277.98H93.2272V281.844C93.2272 282.084 93.3352 282.204 93.5512 282.204H95.2432V283.068H93.2152C92.9432 283.068 92.7192 282.98 92.5432 282.804C92.3752 282.628 92.2912 282.404 92.2912 282.132V277.98H90.4192V277.116ZM102.291 282.06H102.147C101.955 282.46 101.687 282.756 101.343 282.948C101.007 283.14 100.651 283.236 100.275 283.236C99.8829 283.236 99.5189 283.172 99.1829 283.044C98.8469 282.908 98.5509 282.712 98.2949 282.456C98.0469 282.192 97.8509 281.872 97.7069 281.496C97.5629 281.12 97.4909 280.684 97.4909 280.188V279.996C97.4909 279.508 97.5629 279.076 97.7069 278.7C97.8509 278.324 98.0469 278.008 98.2949 277.752C98.5509 277.488 98.8469 277.288 99.1829 277.152C99.5189 277.016 99.8749 276.948 100.251 276.948C100.659 276.948 101.027 277.04 101.355 277.224C101.691 277.4 101.955 277.676 102.147 278.052H102.291V277.116H103.227V281.844C103.227 282.084 103.335 282.204 103.551 282.204H103.851V283.068H103.215C102.943 283.068 102.719 282.98 102.543 282.804C102.375 282.628 102.291 282.404 102.291 282.132V282.06ZM100.371 282.348C100.651 282.348 100.907 282.296 101.139 282.192C101.379 282.088 101.583 281.94 101.751 281.748C101.919 281.556 102.051 281.328 102.147 281.064C102.243 280.792 102.291 280.492 102.291 280.164V280.02C102.291 279.7 102.243 279.408 102.147 279.144C102.051 278.872 101.915 278.64 101.739 278.448C101.571 278.256 101.367 278.108 101.127 278.004C100.895 277.892 100.643 277.836 100.371 277.836C100.091 277.836 99.8349 277.888 99.6029 277.992C99.3709 278.096 99.1669 278.244 98.9909 278.436C98.8229 278.62 98.6909 278.848 98.5949 279.12C98.4989 279.384 98.4509 279.676 98.4509 279.996V280.188C98.4509 280.868 98.6269 281.4 98.9789 281.784C99.3389 282.16 99.8029 282.348 100.371 282.348ZM106.039 283.068H105.103V274.668H106.039V278.052H106.183C106.391 277.692 106.679 277.42 107.047 277.236C107.415 277.044 107.815 276.948 108.247 276.948C108.615 276.948 108.963 277.016 109.291 277.152C109.619 277.288 109.907 277.484 110.155 277.74C110.411 277.996 110.611 278.312 110.755 278.688C110.907 279.064 110.983 279.492 110.983 279.972V280.212C110.983 280.7 110.911 281.132 110.767 281.508C110.623 281.884 110.423 282.2 110.167 282.456C109.919 282.712 109.627 282.908 109.291 283.044C108.955 283.172 108.599 283.236 108.223 283.236C108.031 283.236 107.835 283.212 107.635 283.164C107.435 283.124 107.243 283.06 107.059 282.972C106.883 282.876 106.719 282.764 106.567 282.636C106.415 282.5 106.287 282.34 106.183 282.156H106.039V283.068ZM108.031 282.348C108.319 282.348 108.583 282.3 108.823 282.204C109.063 282.1 109.271 281.956 109.447 281.772C109.631 281.588 109.771 281.364 109.867 281.1C109.971 280.836 110.023 280.54 110.023 280.212V279.972C110.023 279.652 109.971 279.364 109.867 279.108C109.771 278.844 109.631 278.62 109.447 278.436C109.271 278.244 109.059 278.096 108.811 277.992C108.571 277.888 108.311 277.836 108.031 277.836C107.751 277.836 107.491 277.892 107.251 278.004C107.011 278.108 106.799 278.256 106.615 278.448C106.439 278.64 106.299 278.872 106.195 279.144C106.091 279.408 106.039 279.7 106.039 280.02V280.164C106.039 280.492 106.091 280.792 106.195 281.064C106.299 281.328 106.439 281.556 106.615 281.748C106.799 281.94 107.011 282.088 107.251 282.192C107.491 282.296 107.751 282.348 108.031 282.348ZM116.986 282.06H116.842C116.65 282.46 116.382 282.756 116.038 282.948C115.702 283.14 115.346 283.236 114.97 283.236C114.578 283.236 114.214 283.172 113.878 283.044C113.542 282.908 113.246 282.712 112.99 282.456C112.742 282.192 112.546 281.872 112.402 281.496C112.258 281.12 112.186 280.684 112.186 280.188V279.996C112.186 279.508 112.258 279.076 112.402 278.7C112.546 278.324 112.742 278.008 112.99 277.752C113.246 277.488 113.542 277.288 113.878 277.152C114.214 277.016 114.57 276.948 114.946 276.948C115.354 276.948 115.722 277.04 116.05 277.224C116.386 277.4 116.65 277.676 116.842 278.052H116.986V277.116H117.922V281.844C117.922 282.084 118.03 282.204 118.246 282.204H118.546V283.068H117.91C117.638 283.068 117.414 282.98 117.238 282.804C117.07 282.628 116.986 282.404 116.986 282.132V282.06ZM115.066 282.348C115.346 282.348 115.602 282.296 115.834 282.192C116.074 282.088 116.278 281.94 116.446 281.748C116.614 281.556 116.746 281.328 116.842 281.064C116.938 280.792 116.986 280.492 116.986 280.164V280.02C116.986 279.7 116.938 279.408 116.842 279.144C116.746 278.872 116.61 278.64 116.434 278.448C116.266 278.256 116.062 278.108 115.822 278.004C115.59 277.892 115.338 277.836 115.066 277.836C114.786 277.836 114.53 277.888 114.298 277.992C114.066 278.096 113.862 278.244 113.686 278.436C113.518 278.62 113.386 278.848 113.29 279.12C113.194 279.384 113.146 279.676 113.146 279.996V280.188C113.146 280.868 113.322 281.4 113.674 281.784C114.034 282.16 114.498 282.348 115.066 282.348ZM121.25 278.652C121.25 278.94 121.37 279.16 121.61 279.312C121.858 279.464 122.306 279.564 122.954 279.612C123.65 279.668 124.178 279.836 124.538 280.116C124.906 280.388 125.09 280.788 125.09 281.316V281.388C125.09 281.676 125.03 281.936 124.91 282.168C124.798 282.392 124.638 282.584 124.43 282.744C124.23 282.904 123.982 283.024 123.686 283.104C123.398 283.192 123.082 283.236 122.738 283.236C122.274 283.236 121.874 283.176 121.538 283.056C121.21 282.928 120.934 282.764 120.71 282.564C120.494 282.356 120.33 282.124 120.218 281.868C120.106 281.604 120.042 281.34 120.026 281.076L120.914 280.86C120.954 281.316 121.13 281.684 121.442 281.964C121.754 282.236 122.17 282.372 122.69 282.372C123.13 282.372 123.482 282.288 123.746 282.12C124.018 281.944 124.154 281.7 124.154 281.388C124.154 281.052 124.022 280.812 123.758 280.668C123.494 280.524 123.066 280.432 122.474 280.392C121.786 280.344 121.258 280.184 120.89 279.912C120.522 279.64 120.338 279.244 120.338 278.724V278.652C120.338 278.372 120.398 278.128 120.518 277.92C120.638 277.704 120.798 277.524 120.998 277.38C121.206 277.236 121.438 277.128 121.694 277.056C121.95 276.984 122.218 276.948 122.498 276.948C122.89 276.948 123.234 277.004 123.53 277.116C123.826 277.22 124.074 277.36 124.274 277.536C124.474 277.704 124.626 277.9 124.73 278.124C124.842 278.348 124.914 278.572 124.946 278.796L124.058 279.012C124.018 278.628 123.862 278.328 123.59 278.112C123.326 277.896 122.978 277.788 122.546 277.788C122.378 277.788 122.214 277.808 122.054 277.848C121.902 277.88 121.766 277.932 121.646 278.004C121.526 278.076 121.43 278.168 121.358 278.28C121.286 278.384 121.25 278.508 121.25 278.652ZM128.046 280.38C128.07 280.972 128.254 281.448 128.598 281.808C128.942 282.168 129.422 282.348 130.038 282.348C130.318 282.348 130.562 282.316 130.77 282.252C130.978 282.188 131.154 282.1 131.298 281.988C131.45 281.876 131.57 281.748 131.658 281.604C131.754 281.452 131.83 281.292 131.886 281.124L132.774 281.364C132.606 281.916 132.294 282.368 131.838 282.72C131.39 283.064 130.782 283.236 130.014 283.236C129.59 283.236 129.198 283.164 128.838 283.02C128.486 282.868 128.182 282.656 127.926 282.384C127.67 282.112 127.47 281.788 127.326 281.412C127.182 281.036 127.11 280.62 127.11 280.164V279.876C127.11 279.46 127.182 279.072 127.326 278.712C127.478 278.352 127.686 278.044 127.95 277.788C128.214 277.524 128.522 277.32 128.874 277.176C129.234 277.024 129.622 276.948 130.038 276.948C130.526 276.948 130.946 277.04 131.298 277.224C131.658 277.4 131.95 277.62 132.174 277.884C132.406 278.148 132.574 278.436 132.678 278.748C132.79 279.06 132.846 279.348 132.846 279.612V280.38H128.046ZM130.038 277.836C129.774 277.836 129.526 277.88 129.294 277.968C129.07 278.048 128.87 278.164 128.694 278.316C128.526 278.468 128.386 278.648 128.274 278.856C128.17 279.056 128.102 279.276 128.07 279.516H131.91C131.894 279.26 131.83 279.028 131.718 278.82C131.614 278.612 131.474 278.436 131.298 278.292C131.13 278.148 130.934 278.036 130.71 277.956C130.494 277.876 130.27 277.836 130.038 277.836Z" fill="#173369"/>
<path d="M301.652 283.338H300.644V280.53C300.644 280.322 300.596 280.162 300.5 280.05C300.404 279.938 300.236 279.882 299.996 279.882H297.38V283.338H296.372V274.938H299.372C299.804 274.938 300.18 275.002 300.5 275.13C300.82 275.25 301.084 275.414 301.292 275.622C301.508 275.83 301.668 276.074 301.772 276.354C301.884 276.626 301.94 276.914 301.94 277.218V277.578C301.94 277.89 301.852 278.202 301.676 278.514C301.508 278.826 301.244 279.066 300.884 279.234V279.378C301.124 279.418 301.312 279.514 301.448 279.666C301.584 279.818 301.652 280.034 301.652 280.314V283.338ZM297.38 278.946H299.252C299.82 278.946 300.24 278.826 300.512 278.586C300.792 278.338 300.932 277.978 300.932 277.506V277.29C300.932 276.866 300.792 276.526 300.512 276.27C300.24 276.006 299.82 275.874 299.252 275.874H297.38V278.946ZM303.575 274.938H306.335C307.375 274.938 308.135 275.186 308.615 275.682C309.095 276.178 309.335 276.97 309.335 278.058V280.218C309.335 281.306 309.095 282.098 308.615 282.594C308.135 283.09 307.375 283.338 306.335 283.338H303.575V282.39H304.295V275.874H303.575V274.938ZM306.191 282.402C306.559 282.402 306.875 282.366 307.139 282.294C307.411 282.222 307.635 282.102 307.811 281.934C307.987 281.758 308.115 281.526 308.195 281.238C308.283 280.95 308.327 280.586 308.327 280.146V278.13C308.327 277.69 308.283 277.326 308.195 277.038C308.115 276.75 307.987 276.522 307.811 276.354C307.635 276.178 307.411 276.054 307.139 275.982C306.875 275.91 306.559 275.874 306.191 275.874H305.303V282.402H306.191ZM311.055 274.938H316.383V275.874H314.223V282.402H316.383V283.338H311.055V282.402H313.215V275.874H311.055V274.938Z" fill="#173369"/>
<path d="M505.194 283.068H504.186V280.26C504.186 280.052 504.138 279.892 504.042 279.78C503.946 279.668 503.778 279.612 503.538 279.612H500.922V283.068H499.914V274.668H502.914C503.346 274.668 503.722 274.732 504.042 274.86C504.362 274.98 504.626 275.144 504.834 275.352C505.05 275.56 505.21 275.804 505.314 276.084C505.426 276.356 505.482 276.644 505.482 276.948V277.308C505.482 277.62 505.394 277.932 505.218 278.244C505.05 278.556 504.786 278.796 504.426 278.964V279.108C504.666 279.148 504.854 279.244 504.99 279.396C505.126 279.548 505.194 279.764 505.194 280.044V283.068ZM500.922 278.676H502.794C503.362 278.676 503.782 278.556 504.054 278.316C504.334 278.068 504.474 277.708 504.474 277.236V277.02C504.474 276.596 504.334 276.256 504.054 276C503.782 275.736 503.362 275.604 502.794 275.604H500.922V278.676ZM507.969 280.38C507.993 280.972 508.177 281.448 508.521 281.808C508.865 282.168 509.345 282.348 509.961 282.348C510.241 282.348 510.485 282.316 510.693 282.252C510.901 282.188 511.077 282.1 511.221 281.988C511.373 281.876 511.493 281.748 511.581 281.604C511.677 281.452 511.753 281.292 511.809 281.124L512.697 281.364C512.529 281.916 512.217 282.368 511.761 282.72C511.313 283.064 510.705 283.236 509.937 283.236C509.513 283.236 509.121 283.164 508.761 283.02C508.409 282.868 508.105 282.656 507.849 282.384C507.593 282.112 507.393 281.788 507.249 281.412C507.105 281.036 507.033 280.62 507.033 280.164V279.876C507.033 279.46 507.105 279.072 507.249 278.712C507.401 278.352 507.609 278.044 507.873 277.788C508.137 277.524 508.445 277.32 508.797 277.176C509.157 277.024 509.545 276.948 509.961 276.948C510.449 276.948 510.869 277.04 511.221 277.224C511.581 277.4 511.873 277.62 512.097 277.884C512.329 278.148 512.497 278.436 512.601 278.748C512.713 279.06 512.769 279.348 512.769 279.612V280.38H507.969ZM509.961 277.836C509.697 277.836 509.449 277.88 509.217 277.968C508.993 278.048 508.793 278.164 508.617 278.316C508.449 278.468 508.309 278.648 508.197 278.856C508.093 279.056 508.025 279.276 507.993 279.516H511.833C511.817 279.26 511.753 279.028 511.641 278.82C511.537 278.612 511.397 278.436 511.221 278.292C511.053 278.148 510.857 278.036 510.633 277.956C510.417 277.876 510.193 277.836 509.961 277.836ZM519.241 282.156H519.097C519.001 282.34 518.877 282.5 518.725 282.636C518.581 282.772 518.421 282.884 518.245 282.972C518.077 283.06 517.897 283.124 517.705 283.164C517.513 283.212 517.329 283.236 517.153 283.236C516.753 283.236 516.381 283.168 516.037 283.032C515.693 282.896 515.389 282.7 515.125 282.444C514.869 282.188 514.665 281.872 514.513 281.496C514.369 281.112 514.297 280.676 514.297 280.188V279.996C514.297 279.516 514.373 279.088 514.525 278.712C514.677 278.328 514.881 278.008 515.137 277.752C515.393 277.488 515.693 277.288 516.037 277.152C516.381 277.016 516.745 276.948 517.129 276.948C517.537 276.948 517.917 277.04 518.269 277.224C518.629 277.4 518.905 277.676 519.097 278.052H519.241V274.668H520.177V283.068H519.241V282.156ZM517.249 282.348C517.529 282.348 517.789 282.296 518.029 282.192C518.269 282.088 518.477 281.94 518.653 281.748C518.837 281.556 518.981 281.328 519.085 281.064C519.189 280.792 519.241 280.492 519.241 280.164V280.02C519.241 279.7 519.189 279.408 519.085 279.144C518.981 278.872 518.837 278.64 518.653 278.448C518.477 278.256 518.265 278.108 518.017 278.004C517.777 277.892 517.521 277.836 517.249 277.836C516.969 277.836 516.705 277.888 516.457 277.992C516.217 278.096 516.005 278.244 515.821 278.436C515.645 278.628 515.505 278.856 515.401 279.12C515.305 279.384 515.257 279.676 515.257 279.996V280.188C515.257 280.524 515.305 280.824 515.401 281.088C515.505 281.352 515.645 281.58 515.821 281.772C516.005 281.956 516.217 282.1 516.457 282.204C516.697 282.3 516.961 282.348 517.249 282.348ZM523.829 275.34C523.829 275.108 523.909 274.912 524.069 274.752C524.237 274.584 524.437 274.5 524.669 274.5C524.901 274.5 525.097 274.584 525.257 274.752C525.425 274.912 525.509 275.108 525.509 275.34C525.509 275.572 525.425 275.772 525.257 275.94C525.097 276.1 524.901 276.18 524.669 276.18C524.437 276.18 524.237 276.1 524.069 275.94C523.909 275.772 523.829 275.572 523.829 275.34ZM522.125 282.204H524.213V277.98H522.341V277.116H525.149V282.204H527.093V283.068H522.125V282.204ZM530.564 278.652C530.564 278.94 530.684 279.16 530.924 279.312C531.172 279.464 531.62 279.564 532.268 279.612C532.964 279.668 533.492 279.836 533.852 280.116C534.22 280.388 534.404 280.788 534.404 281.316V281.388C534.404 281.676 534.344 281.936 534.224 282.168C534.112 282.392 533.952 282.584 533.744 282.744C533.544 282.904 533.296 283.024 533 283.104C532.712 283.192 532.396 283.236 532.052 283.236C531.588 283.236 531.188 283.176 530.852 283.056C530.524 282.928 530.248 282.764 530.024 282.564C529.808 282.356 529.644 282.124 529.532 281.868C529.42 281.604 529.356 281.34 529.34 281.076L530.228 280.86C530.268 281.316 530.444 281.684 530.756 281.964C531.068 282.236 531.484 282.372 532.004 282.372C532.444 282.372 532.796 282.288 533.06 282.12C533.332 281.944 533.468 281.7 533.468 281.388C533.468 281.052 533.336 280.812 533.072 280.668C532.808 280.524 532.38 280.432 531.788 280.392C531.1 280.344 530.572 280.184 530.204 279.912C529.836 279.64 529.652 279.244 529.652 278.724V278.652C529.652 278.372 529.712 278.128 529.832 277.92C529.952 277.704 530.112 277.524 530.312 277.38C530.52 277.236 530.752 277.128 531.008 277.056C531.264 276.984 531.532 276.948 531.812 276.948C532.204 276.948 532.548 277.004 532.844 277.116C533.14 277.22 533.388 277.36 533.588 277.536C533.788 277.704 533.94 277.9 534.044 278.124C534.156 278.348 534.228 278.572 534.26 278.796L533.372 279.012C533.332 278.628 533.176 278.328 532.904 278.112C532.64 277.896 532.292 277.788 531.86 277.788C531.692 277.788 531.528 277.808 531.368 277.848C531.216 277.88 531.08 277.932 530.96 278.004C530.84 278.076 530.744 278.168 530.672 278.28C530.6 278.384 530.564 278.508 530.564 278.652ZM481.652 292.668H486.74V293.604H482.66V296.388H486.668V297.324H482.66V300.132H486.812V301.068H481.652V292.668ZM489.852 301.068H488.916V295.116H489.852V296.124H489.996C490.364 295.34 491.004 294.948 491.916 294.948C492.604 294.948 493.152 295.164 493.56 295.596C493.968 296.02 494.172 296.66 494.172 297.516V301.068H493.236V297.708C493.236 297.084 493.096 296.616 492.816 296.304C492.536 295.992 492.156 295.836 491.676 295.836C491.108 295.836 490.66 296.032 490.332 296.424C490.012 296.808 489.852 297.324 489.852 297.972V301.068ZM496.06 295.116H497.932V292.668H498.868V295.116H501.172V295.98H498.868V299.844C498.868 300.084 498.976 300.204 499.192 300.204H500.884V301.068H498.856C498.584 301.068 498.36 300.98 498.184 300.804C498.016 300.628 497.932 300.404 497.932 300.132V295.98H496.06V295.116ZM504.295 298.38C504.319 298.972 504.503 299.448 504.847 299.808C505.191 300.168 505.671 300.348 506.287 300.348C506.567 300.348 506.811 300.316 507.019 300.252C507.227 300.188 507.403 300.1 507.547 299.988C507.699 299.876 507.819 299.748 507.907 299.604C508.003 299.452 508.079 299.292 508.135 299.124L509.023 299.364C508.855 299.916 508.543 300.368 508.087 300.72C507.639 301.064 507.031 301.236 506.263 301.236C505.839 301.236 505.447 301.164 505.087 301.02C504.735 300.868 504.431 300.656 504.175 300.384C503.919 300.112 503.719 299.788 503.575 299.412C503.431 299.036 503.359 298.62 503.359 298.164V297.876C503.359 297.46 503.431 297.072 503.575 296.712C503.727 296.352 503.935 296.044 504.199 295.788C504.463 295.524 504.771 295.32 505.123 295.176C505.483 295.024 505.871 294.948 506.287 294.948C506.775 294.948 507.195 295.04 507.547 295.224C507.907 295.4 508.199 295.62 508.423 295.884C508.655 296.148 508.823 296.436 508.927 296.748C509.039 297.06 509.095 297.348 509.095 297.612V298.38H504.295ZM506.287 295.836C506.023 295.836 505.775 295.88 505.543 295.968C505.319 296.048 505.119 296.164 504.943 296.316C504.775 296.468 504.635 296.648 504.523 296.856C504.419 297.056 504.351 297.276 504.319 297.516H508.159C508.143 297.26 508.079 297.028 507.967 296.82C507.863 296.612 507.723 296.436 507.547 296.292C507.379 296.148 507.183 296.036 506.959 295.956C506.743 295.876 506.519 295.836 506.287 295.836ZM510.623 295.116H512.783V295.908H512.927C513.079 295.58 513.295 295.34 513.575 295.188C513.855 295.028 514.175 294.948 514.535 294.948C515.135 294.948 515.619 295.144 515.987 295.536C516.355 295.928 516.551 296.5 516.575 297.252L515.591 297.396C515.591 296.844 515.459 296.448 515.195 296.208C514.931 295.96 514.607 295.836 514.223 295.836C513.975 295.836 513.759 295.884 513.575 295.98C513.399 296.076 513.251 296.208 513.131 296.376C513.011 296.544 512.923 296.74 512.867 296.964C512.811 297.188 512.783 297.428 512.783 297.684V300.204H514.295V301.068H510.479V300.204H511.847V295.98H510.623V295.116ZM519.027 303.468H518.091V295.116H519.027V296.052H519.171C519.379 295.692 519.667 295.42 520.035 295.236C520.403 295.044 520.803 294.948 521.235 294.948C521.603 294.948 521.951 295.016 522.279 295.152C522.607 295.288 522.895 295.484 523.143 295.74C523.399 295.996 523.599 296.312 523.743 296.688C523.895 297.064 523.971 297.492 523.971 297.972V298.212C523.971 298.7 523.899 299.132 523.755 299.508C523.611 299.884 523.411 300.2 523.155 300.456C522.907 300.712 522.615 300.908 522.279 301.044C521.943 301.172 521.587 301.236 521.211 301.236C521.019 301.236 520.823 301.212 520.623 301.164C520.423 301.124 520.231 301.06 520.047 300.972C519.871 300.876 519.707 300.764 519.555 300.636C519.403 300.5 519.275 300.34 519.171 300.156H519.027V303.468ZM521.019 300.348C521.307 300.348 521.571 300.3 521.811 300.204C522.051 300.1 522.259 299.956 522.435 299.772C522.619 299.588 522.759 299.364 522.855 299.1C522.959 298.836 523.011 298.54 523.011 298.212V297.972C523.011 297.652 522.959 297.364 522.855 297.108C522.759 296.844 522.619 296.62 522.435 296.436C522.259 296.244 522.047 296.096 521.799 295.992C521.559 295.888 521.299 295.836 521.019 295.836C520.739 295.836 520.479 295.892 520.239 296.004C519.999 296.108 519.787 296.256 519.603 296.448C519.427 296.64 519.287 296.872 519.183 297.144C519.079 297.408 519.027 297.7 519.027 298.02V298.164C519.027 298.492 519.079 298.792 519.183 299.064C519.287 299.328 519.427 299.556 519.603 299.748C519.787 299.94 519.999 300.088 520.239 300.192C520.479 300.296 520.739 300.348 521.019 300.348ZM525.318 295.116H527.478V295.908H527.622C527.774 295.58 527.99 295.34 528.27 295.188C528.55 295.028 528.87 294.948 529.23 294.948C529.83 294.948 530.314 295.144 530.682 295.536C531.05 295.928 531.246 296.5 531.27 297.252L530.286 297.396C530.286 296.844 530.154 296.448 529.89 296.208C529.626 295.96 529.302 295.836 528.918 295.836C528.67 295.836 528.454 295.884 528.27 295.98C528.094 296.076 527.946 296.208 527.826 296.376C527.706 296.544 527.618 296.74 527.562 296.964C527.506 297.188 527.478 297.428 527.478 297.684V300.204H528.99V301.068H525.174V300.204H526.542V295.98H525.318V295.116ZM534.85 293.34C534.85 293.108 534.93 292.912 535.09 292.752C535.258 292.584 535.458 292.5 535.69 292.5C535.922 292.5 536.118 292.584 536.278 292.752C536.446 292.912 536.53 293.108 536.53 293.34C536.53 293.572 536.446 293.772 536.278 293.94C536.118 294.1 535.922 294.18 535.69 294.18C535.458 294.18 535.258 294.1 535.09 293.94C534.93 293.772 534.85 293.572 534.85 293.34ZM533.146 300.204H535.234V295.98H533.362V295.116H536.17V300.204H538.114V301.068H533.146V300.204ZM541.586 296.652C541.586 296.94 541.706 297.16 541.946 297.312C542.194 297.464 542.642 297.564 543.29 297.612C543.986 297.668 544.514 297.836 544.874 298.116C545.242 298.388 545.426 298.788 545.426 299.316V299.388C545.426 299.676 545.366 299.936 545.246 300.168C545.134 300.392 544.974 300.584 544.766 300.744C544.566 300.904 544.318 301.024 544.022 301.104C543.734 301.192 543.418 301.236 543.074 301.236C542.61 301.236 542.21 301.176 541.874 301.056C541.546 300.928 541.27 300.764 541.046 300.564C540.83 300.356 540.666 300.124 540.554 299.868C540.442 299.604 540.378 299.34 540.362 299.076L541.25 298.86C541.29 299.316 541.466 299.684 541.778 299.964C542.09 300.236 542.506 300.372 543.026 300.372C543.466 300.372 543.818 300.288 544.082 300.12C544.354 299.944 544.49 299.7 544.49 299.388C544.49 299.052 544.358 298.812 544.094 298.668C543.83 298.524 543.402 298.432 542.81 298.392C542.122 298.344 541.594 298.184 541.226 297.912C540.858 297.64 540.674 297.244 540.674 296.724V296.652C540.674 296.372 540.734 296.128 540.854 295.92C540.974 295.704 541.134 295.524 541.334 295.38C541.542 295.236 541.774 295.128 542.03 295.056C542.286 294.984 542.554 294.948 542.834 294.948C543.226 294.948 543.57 295.004 543.866 295.116C544.162 295.22 544.41 295.36 544.61 295.536C544.81 295.704 544.962 295.9 545.066 296.124C545.178 296.348 545.25 296.572 545.282 296.796L544.394 297.012C544.354 296.628 544.198 296.328 543.926 296.112C543.662 295.896 543.314 295.788 542.882 295.788C542.714 295.788 542.55 295.808 542.39 295.848C542.238 295.88 542.102 295.932 541.982 296.004C541.862 296.076 541.766 296.168 541.694 296.28C541.622 296.384 541.586 296.508 541.586 296.652ZM548.381 298.38C548.405 298.972 548.589 299.448 548.933 299.808C549.277 300.168 549.757 300.348 550.373 300.348C550.653 300.348 550.897 300.316 551.105 300.252C551.313 300.188 551.489 300.1 551.633 299.988C551.785 299.876 551.905 299.748 551.993 299.604C552.089 299.452 552.165 299.292 552.221 299.124L553.109 299.364C552.941 299.916 552.629 300.368 552.173 300.72C551.725 301.064 551.117 301.236 550.349 301.236C549.925 301.236 549.533 301.164 549.173 301.02C548.821 300.868 548.517 300.656 548.261 300.384C548.005 300.112 547.805 299.788 547.661 299.412C547.517 299.036 547.445 298.62 547.445 298.164V297.876C547.445 297.46 547.517 297.072 547.661 296.712C547.813 296.352 548.021 296.044 548.285 295.788C548.549 295.524 548.857 295.32 549.209 295.176C549.569 295.024 549.957 294.948 550.373 294.948C550.861 294.948 551.281 295.04 551.633 295.224C551.993 295.4 552.285 295.62 552.509 295.884C552.741 296.148 552.909 296.436 553.013 296.748C553.125 297.06 553.181 297.348 553.181 297.612V298.38H548.381ZM550.373 295.836C550.109 295.836 549.861 295.88 549.629 295.968C549.405 296.048 549.205 296.164 549.029 296.316C548.861 296.468 548.721 296.648 548.609 296.856C548.505 297.056 548.437 297.276 548.405 297.516H552.245C552.229 297.26 552.165 297.028 552.053 296.82C551.949 296.612 551.809 296.436 551.633 296.292C551.465 296.148 551.269 296.036 551.045 295.956C550.829 295.876 550.605 295.836 550.373 295.836Z" fill="#173369"/>
<path d="M517.44 75.124C517.343 75.0264 517.185 75.0264 517.087 75.124L515.496 76.715C515.398 76.8126 515.398 76.9709 515.496 77.0685C515.594 77.1662 515.752 77.1662 515.849 77.0685L517.264 75.6543L518.678 77.0685C518.776 77.1662 518.934 77.1662 519.031 77.0685C519.129 76.9709 519.129 76.8126 519.031 76.715L517.44 75.124ZM517.514 129.49L517.514 128.523L517.014 128.523L517.014 129.49L517.514 129.49ZM517.514 126.587L517.514 124.652L517.014 124.652L517.014 126.587L517.514 126.587ZM517.514 122.717L517.514 120.781L517.014 120.781L517.014 122.717L517.514 122.717ZM517.514 118.846L517.514 116.911L517.014 116.911L517.014 118.846L517.514 118.846ZM517.514 114.975L517.514 113.04L517.014 113.04L517.014 114.975L517.514 114.975ZM517.514 111.105L517.514 109.169L517.014 109.169L517.014 111.105L517.514 111.105ZM517.514 107.234L517.514 105.299L517.014 105.299L517.014 107.234L517.514 107.234ZM517.514 103.363L517.514 101.428L517.014 101.428L517.014 103.363L517.514 103.363ZM517.514 99.4925L517.514 97.5571L517.014 97.5571L517.014 99.4925L517.514 99.4925ZM517.514 95.6218L517.514 93.6865L517.014 93.6865L517.014 95.6218L517.514 95.6218ZM517.514 91.7511L517.514 89.8158L517.014 89.8158L517.014 91.7511L517.514 91.7511ZM517.514 87.8805L517.514 85.9451L517.014 85.9451L517.014 87.8805L517.514 87.8805ZM517.514 84.0098L517.514 82.0745L517.014 82.0745L517.014 84.0098L517.514 84.0098ZM517.514 80.1391L517.514 78.2038L517.014 78.2038L517.014 80.1391L517.514 80.1391ZM517.514 76.2684L517.514 75.3008L517.014 75.3008L517.014 76.2684L517.514 76.2684ZM517.44 75.124C517.343 75.0264 517.185 75.0264 517.087 75.124L515.496 76.715C515.398 76.8126 515.398 76.9709 515.496 77.0685C515.594 77.1662 515.752 77.1662 515.849 77.0685L517.264 75.6543L518.678 77.0685C518.776 77.1662 518.934 77.1662 519.031 77.0685C519.129 76.9709 519.129 76.8126 519.031 76.715L517.44 75.124ZM517.514 129.49L517.514 128.523L517.014 128.523L517.014 129.49L517.514 129.49ZM517.514 126.587L517.514 124.652L517.014 124.652L517.014 126.587L517.514 126.587ZM517.514 122.717L517.514 120.781L517.014 120.781L517.014 122.717L517.514 122.717ZM517.514 118.846L517.514 116.911L517.014 116.911L517.014 118.846L517.514 118.846ZM517.514 114.975L517.514 113.04L517.014 113.04L517.014 114.975L517.514 114.975ZM517.514 111.105L517.514 109.169L517.014 109.169L517.014 111.105L517.514 111.105ZM517.514 107.234L517.514 105.299L517.014 105.299L517.014 107.234L517.514 107.234ZM517.514 103.363L517.514 101.428L517.014 101.428L517.014 103.363L517.514 103.363ZM517.514 99.4925L517.514 97.5571L517.014 97.5571L517.014 99.4925L517.514 99.4925ZM517.514 95.6218L517.514 93.6865L517.014 93.6865L517.014 95.6218L517.514 95.6218ZM517.514 91.7511L517.514 89.8158L517.014 89.8158L517.014 91.7511L517.514 91.7511ZM517.514 87.8805L517.514 85.9451L517.014 85.9451L517.014 87.8805L517.514 87.8805ZM517.514 84.0098L517.514 82.0745L517.014 82.0745L517.014 84.0098L517.514 84.0098ZM517.514 80.1391L517.514 78.2038L517.014 78.2038L517.014 80.1391L517.514 80.1391ZM517.514 76.2684L517.514 75.3008L517.014 75.3008L517.014 76.2684L517.514 76.2684Z" fill="#173369"/>
<path d="M60.6027 104.363H59.0727L58.4227 97.7233H58.3027L57.6527 104.363H56.1227L55.4127 97.3633H56.1727L56.8427 104.003H56.9627L57.5927 97.3633H59.1327L59.7627 104.003H59.8827L60.5527 97.3633H61.3127L60.6027 104.363ZM62.0157 99.4033H63.8157V100.063H63.9357C64.0624 99.7899 64.2424 99.5899 64.4757 99.4633C64.7091 99.3299 64.9757 99.2633 65.2757 99.2633C65.7757 99.2633 66.1791 99.4266 66.4857 99.7533C66.7924 100.08 66.9557 100.557 66.9757 101.183L66.1557 101.303C66.1557 100.843 66.0457 100.513 65.8257 100.313C65.6057 100.107 65.3357 100.003 65.0157 100.003C64.8091 100.003 64.6291 100.043 64.4757 100.123C64.3291 100.203 64.2057 100.313 64.1057 100.453C64.0057 100.593 63.9324 100.757 63.8857 100.943C63.8391 101.13 63.8157 101.33 63.8157 101.543V103.643H65.0757V104.363H61.8957V103.643H63.0357V100.123H62.0157V99.4033ZM69.9588 97.9233C69.9588 97.7299 70.0254 97.5666 70.1588 97.4333C70.2988 97.2933 70.4654 97.2233 70.6588 97.2233C70.8521 97.2233 71.0154 97.2933 71.1488 97.4333C71.2888 97.5666 71.3588 97.7299 71.3588 97.9233C71.3588 98.1166 71.2888 98.2833 71.1488 98.4233C71.0154 98.5566 70.8521 98.6233 70.6588 98.6233C70.4654 98.6233 70.2988 98.5566 70.1588 98.4233C70.0254 98.2833 69.9588 98.1166 69.9588 97.9233ZM68.5388 103.643H70.2788V100.123H68.7188V99.4033H71.0588V103.643H72.6788V104.363H68.5388V103.643ZM74.3718 99.4033H75.9318V97.3633H76.7118V99.4033H78.6318V100.123H76.7118V103.343C76.7118 103.543 76.8018 103.643 76.9818 103.643H78.3918V104.363H76.7018C76.4752 104.363 76.2885 104.29 76.1418 104.143C76.0018 103.997 75.9318 103.81 75.9318 103.583V100.123H74.3718V99.4033ZM81.2349 102.123C81.2549 102.617 81.4082 103.013 81.6949 103.313C81.9815 103.613 82.3815 103.763 82.8949 103.763C83.1282 103.763 83.3315 103.737 83.5049 103.683C83.6782 103.63 83.8249 103.557 83.9449 103.463C84.0715 103.37 84.1715 103.263 84.2449 103.143C84.3249 103.017 84.3882 102.883 84.4349 102.743L85.1749 102.943C85.0349 103.403 84.7749 103.78 84.3949 104.073C84.0215 104.36 83.5149 104.503 82.8749 104.503C82.5215 104.503 82.1949 104.443 81.8949 104.323C81.6015 104.197 81.3482 104.02 81.1349 103.793C80.9215 103.567 80.7549 103.297 80.6349 102.983C80.5149 102.67 80.4549 102.323 80.4549 101.943V101.703C80.4549 101.357 80.5149 101.033 80.6349 100.733C80.7615 100.433 80.9349 100.177 81.1549 99.9633C81.3749 99.7433 81.6315 99.5733 81.9249 99.4533C82.2249 99.3266 82.5482 99.2633 82.8949 99.2633C83.3015 99.2633 83.6515 99.3399 83.9449 99.4933C84.2449 99.6399 84.4882 99.8233 84.6749 100.043C84.8682 100.263 85.0082 100.503 85.0949 100.763C85.1882 101.023 85.2349 101.263 85.2349 101.483V102.123H81.2349ZM82.8949 100.003C82.6749 100.003 82.4682 100.04 82.2749 100.113C82.0882 100.18 81.9215 100.277 81.7749 100.403C81.6349 100.53 81.5182 100.68 81.4249 100.853C81.3382 101.02 81.2815 101.203 81.2549 101.403H84.4549C84.4415 101.19 84.3882 100.997 84.2949 100.823C84.2082 100.65 84.0915 100.503 83.9449 100.383C83.8049 100.263 83.6415 100.17 83.4549 100.103C83.2749 100.037 83.0882 100.003 82.8949 100.003Z" fill="#173369"/>
<path d="M166.414 214.357H171.334V215.137H169.294V221.357H168.454V215.137H166.414V214.357ZM172.527 216.397H174.327V217.057H174.447C174.573 216.784 174.753 216.584 174.987 216.457C175.22 216.324 175.487 216.257 175.787 216.257C176.287 216.257 176.69 216.421 176.997 216.747C177.303 217.074 177.467 217.551 177.487 218.177L176.667 218.297C176.667 217.837 176.557 217.507 176.337 217.307C176.117 217.101 175.847 216.997 175.527 216.997C175.32 216.997 175.14 217.037 174.987 217.117C174.84 217.197 174.717 217.307 174.617 217.447C174.517 217.587 174.443 217.751 174.397 217.937C174.35 218.124 174.327 218.324 174.327 218.537V220.637H175.587V221.357H172.407V220.637H173.547V217.117H172.527V216.397ZM182.53 220.517H182.41C182.25 220.851 182.026 221.097 181.74 221.257C181.46 221.417 181.163 221.497 180.85 221.497C180.523 221.497 180.22 221.444 179.94 221.337C179.66 221.224 179.413 221.061 179.2 220.847C178.993 220.627 178.83 220.361 178.71 220.047C178.59 219.734 178.53 219.371 178.53 218.957V218.797C178.53 218.391 178.59 218.031 178.71 217.717C178.83 217.404 178.993 217.141 179.2 216.927C179.413 216.707 179.66 216.541 179.94 216.427C180.22 216.314 180.516 216.257 180.83 216.257C181.17 216.257 181.476 216.334 181.75 216.487C182.03 216.634 182.25 216.864 182.41 217.177H182.53V216.397H183.31V220.337C183.31 220.537 183.4 220.637 183.58 220.637H183.83V221.357H183.3C183.073 221.357 182.886 221.284 182.74 221.137C182.6 220.991 182.53 220.804 182.53 220.577V220.517ZM180.93 220.757C181.163 220.757 181.376 220.714 181.57 220.627C181.77 220.541 181.94 220.417 182.08 220.257C182.22 220.097 182.33 219.907 182.41 219.687C182.49 219.461 182.53 219.211 182.53 218.937V218.817C182.53 218.551 182.49 218.307 182.41 218.087C182.33 217.861 182.216 217.667 182.07 217.507C181.93 217.347 181.76 217.224 181.56 217.137C181.366 217.044 181.156 216.997 180.93 216.997C180.696 216.997 180.483 217.041 180.29 217.127C180.096 217.214 179.926 217.337 179.78 217.497C179.64 217.651 179.53 217.841 179.45 218.067C179.37 218.287 179.33 218.531 179.33 218.797V218.957C179.33 219.524 179.476 219.967 179.77 220.287C180.07 220.601 180.456 220.757 180.93 220.757ZM189.693 219.597C189.639 219.871 189.546 220.124 189.413 220.357C189.286 220.591 189.123 220.794 188.923 220.967C188.723 221.134 188.489 221.264 188.223 221.357C187.956 221.451 187.659 221.497 187.333 221.497C186.986 221.497 186.656 221.441 186.343 221.327C186.036 221.214 185.766 221.051 185.533 220.837C185.299 220.617 185.113 220.351 184.973 220.037C184.839 219.724 184.773 219.364 184.773 218.957V218.837C184.773 218.437 184.839 218.077 184.973 217.757C185.113 217.437 185.299 217.167 185.533 216.947C185.766 216.727 186.036 216.557 186.343 216.437C186.656 216.317 186.986 216.257 187.333 216.257C187.646 216.257 187.936 216.304 188.203 216.397C188.469 216.491 188.703 216.624 188.903 216.797C189.109 216.964 189.276 217.164 189.403 217.397C189.536 217.631 189.626 217.884 189.673 218.157L188.893 218.337C188.873 218.164 188.823 217.997 188.743 217.837C188.669 217.671 188.566 217.527 188.433 217.407C188.306 217.281 188.149 217.181 187.963 217.107C187.776 217.034 187.559 216.997 187.313 216.997C187.073 216.997 186.846 217.044 186.633 217.137C186.426 217.224 186.243 217.351 186.083 217.517C185.923 217.677 185.796 217.871 185.703 218.097C185.616 218.324 185.573 218.571 185.573 218.837V218.957C185.573 219.237 185.616 219.491 185.703 219.717C185.796 219.937 185.923 220.124 186.083 220.277C186.243 220.431 186.429 220.551 186.643 220.637C186.856 220.717 187.086 220.757 187.333 220.757C187.579 220.757 187.793 220.721 187.973 220.647C188.159 220.567 188.316 220.467 188.443 220.347C188.576 220.221 188.679 220.077 188.753 219.917C188.833 219.757 188.886 219.591 188.913 219.417L189.693 219.597ZM192.456 218.457H192.626L194.516 216.397H195.476V216.457L193.416 218.727V218.907L195.716 221.297V221.357H194.756L192.646 219.177H192.456V221.357H191.676V214.357H192.456V218.457ZM205.652 220.717C205.939 220.717 206.182 220.671 206.382 220.577C206.589 220.477 206.755 220.347 206.882 220.187C207.015 220.021 207.112 219.834 207.172 219.627C207.239 219.414 207.272 219.191 207.272 218.957V218.837H208.112V218.957C208.112 219.311 208.059 219.644 207.952 219.957C207.845 220.264 207.689 220.534 207.482 220.767C207.275 220.994 207.019 221.174 206.712 221.307C206.405 221.434 206.052 221.497 205.652 221.497C204.879 221.497 204.275 221.254 203.842 220.767C203.409 220.281 203.192 219.571 203.192 218.637V217.077C203.192 216.171 203.409 215.467 203.842 214.967C204.275 214.467 204.879 214.217 205.652 214.217C206.052 214.217 206.405 214.284 206.712 214.417C207.019 214.544 207.275 214.724 207.482 214.957C207.689 215.184 207.845 215.454 207.952 215.767C208.059 216.074 208.112 216.404 208.112 216.757V216.877H207.272V216.757C207.265 216.531 207.229 216.311 207.162 216.097C207.102 215.884 207.005 215.697 206.872 215.537C206.745 215.371 206.582 215.241 206.382 215.147C206.182 215.047 205.939 214.997 205.652 214.997C205.112 214.997 204.705 215.194 204.432 215.587C204.165 215.981 204.032 216.497 204.032 217.137V218.577C204.032 219.264 204.165 219.794 204.432 220.167C204.705 220.534 205.112 220.717 205.652 220.717ZM210.325 221.357H209.545V214.357H210.325V217.297H210.445C210.598 216.977 210.812 216.724 211.085 216.537C211.365 216.351 211.705 216.257 212.105 216.257C212.645 216.257 213.082 216.437 213.415 216.797C213.755 217.151 213.925 217.684 213.925 218.397V221.357H213.145V218.557C213.145 218.037 213.028 217.647 212.795 217.387C212.562 217.127 212.245 216.997 211.845 216.997C211.372 216.997 210.998 217.161 210.725 217.487C210.458 217.807 210.325 218.237 210.325 218.777V221.357ZM219.268 220.517H219.148C218.988 220.851 218.765 221.097 218.478 221.257C218.198 221.417 217.901 221.497 217.588 221.497C217.261 221.497 216.958 221.444 216.678 221.337C216.398 221.224 216.151 221.061 215.938 220.847C215.731 220.627 215.568 220.361 215.448 220.047C215.328 219.734 215.268 219.371 215.268 218.957V218.797C215.268 218.391 215.328 218.031 215.448 217.717C215.568 217.404 215.731 217.141 215.938 216.927C216.151 216.707 216.398 216.541 216.678 216.427C216.958 216.314 217.255 216.257 217.568 216.257C217.908 216.257 218.215 216.334 218.488 216.487C218.768 216.634 218.988 216.864 219.148 217.177H219.268V216.397H220.048V220.337C220.048 220.537 220.138 220.637 220.318 220.637H220.568V221.357H220.038C219.811 221.357 219.625 221.284 219.478 221.137C219.338 220.991 219.268 220.804 219.268 220.577V220.517ZM217.668 220.757C217.901 220.757 218.115 220.714 218.308 220.627C218.508 220.541 218.678 220.417 218.818 220.257C218.958 220.097 219.068 219.907 219.148 219.687C219.228 219.461 219.268 219.211 219.268 218.937V218.817C219.268 218.551 219.228 218.307 219.148 218.087C219.068 217.861 218.955 217.667 218.808 217.507C218.668 217.347 218.498 217.224 218.298 217.137C218.105 217.044 217.895 216.997 217.668 216.997C217.435 216.997 217.221 217.041 217.028 217.127C216.835 217.214 216.665 217.337 216.518 217.497C216.378 217.651 216.268 217.841 216.188 218.067C216.108 218.287 216.068 218.531 216.068 218.797V218.957C216.068 219.524 216.215 219.967 216.508 220.287C216.808 220.601 217.195 220.757 217.668 220.757ZM222.571 221.357H221.791V216.397H222.571V217.237H222.691C222.998 216.584 223.531 216.257 224.291 216.257C224.864 216.257 225.321 216.437 225.661 216.797C226.001 217.151 226.171 217.684 226.171 218.397V221.357H225.391V218.557C225.391 218.037 225.274 217.647 225.041 217.387C224.808 217.127 224.491 216.997 224.091 216.997C223.618 216.997 223.244 217.161 222.971 217.487C222.704 217.807 222.571 218.237 222.571 218.777V221.357ZM231.684 220.597H231.564C231.404 220.897 231.184 221.124 230.904 221.277C230.631 221.424 230.331 221.497 230.004 221.497C229.671 221.497 229.357 221.441 229.064 221.327C228.771 221.214 228.511 221.051 228.284 220.837C228.064 220.624 227.887 220.361 227.754 220.047C227.627 219.727 227.564 219.364 227.564 218.957V218.797C227.564 218.397 227.631 218.041 227.764 217.727C227.897 217.407 228.074 217.141 228.294 216.927C228.514 216.707 228.771 216.541 229.064 216.427C229.357 216.314 229.664 216.257 229.984 216.257C230.344 216.257 230.657 216.337 230.924 216.497C231.197 216.651 231.411 216.877 231.564 217.177H231.684V216.397H232.464V222.577C232.464 222.804 232.391 222.991 232.244 223.137C232.104 223.284 231.921 223.357 231.694 223.357H228.464V222.637H231.414C231.594 222.637 231.684 222.537 231.684 222.337V220.597ZM230.024 220.757C230.257 220.757 230.474 220.714 230.674 220.627C230.874 220.541 231.047 220.417 231.194 220.257C231.347 220.097 231.467 219.907 231.554 219.687C231.641 219.461 231.684 219.211 231.684 218.937V218.817C231.684 218.551 231.641 218.307 231.554 218.087C231.467 217.861 231.347 217.667 231.194 217.507C231.047 217.347 230.871 217.224 230.664 217.137C230.464 217.044 230.251 216.997 230.024 216.997C229.791 216.997 229.571 217.041 229.364 217.127C229.164 217.214 228.987 217.337 228.834 217.497C228.687 217.657 228.571 217.847 228.484 218.067C228.404 218.287 228.364 218.531 228.364 218.797V218.957C228.364 219.237 228.404 219.487 228.484 219.707C228.571 219.927 228.687 220.117 228.834 220.277C228.987 220.431 229.164 220.551 229.364 220.637C229.564 220.717 229.784 220.757 230.024 220.757ZM234.607 219.117C234.627 219.611 234.78 220.007 235.067 220.307C235.354 220.607 235.754 220.757 236.267 220.757C236.5 220.757 236.704 220.731 236.877 220.677C237.05 220.624 237.197 220.551 237.317 220.457C237.444 220.364 237.544 220.257 237.617 220.137C237.697 220.011 237.76 219.877 237.807 219.737L238.547 219.937C238.407 220.397 238.147 220.774 237.767 221.067C237.394 221.354 236.887 221.497 236.247 221.497C235.894 221.497 235.567 221.437 235.267 221.317C234.974 221.191 234.72 221.014 234.507 220.787C234.294 220.561 234.127 220.291 234.007 219.977C233.887 219.664 233.827 219.317 233.827 218.937V218.697C233.827 218.351 233.887 218.027 234.007 217.727C234.134 217.427 234.307 217.171 234.527 216.957C234.747 216.737 235.004 216.567 235.297 216.447C235.597 216.321 235.92 216.257 236.267 216.257C236.674 216.257 237.024 216.334 237.317 216.487C237.617 216.634 237.86 216.817 238.047 217.037C238.24 217.257 238.38 217.497 238.467 217.757C238.56 218.017 238.607 218.257 238.607 218.477V219.117H234.607ZM236.267 216.997C236.047 216.997 235.84 217.034 235.647 217.107C235.46 217.174 235.294 217.271 235.147 217.397C235.007 217.524 234.89 217.674 234.797 217.847C234.71 218.014 234.654 218.197 234.627 218.397H237.827C237.814 218.184 237.76 217.991 237.667 217.817C237.58 217.644 237.464 217.497 237.317 217.377C237.177 217.257 237.014 217.164 236.827 217.097C236.647 217.031 236.46 216.997 236.267 216.997ZM241.19 217.677C241.19 217.917 241.29 218.101 241.49 218.227C241.697 218.354 242.07 218.437 242.61 218.477C243.19 218.524 243.63 218.664 243.93 218.897C244.237 219.124 244.39 219.457 244.39 219.897V219.957C244.39 220.197 244.34 220.414 244.24 220.607C244.147 220.794 244.013 220.954 243.84 221.087C243.673 221.221 243.467 221.321 243.22 221.387C242.98 221.461 242.717 221.497 242.43 221.497C242.043 221.497 241.71 221.447 241.43 221.347C241.157 221.241 240.927 221.104 240.74 220.937C240.56 220.764 240.423 220.571 240.33 220.357C240.237 220.137 240.183 219.917 240.17 219.697L240.91 219.517C240.943 219.897 241.09 220.204 241.35 220.437C241.61 220.664 241.957 220.777 242.39 220.777C242.757 220.777 243.05 220.707 243.27 220.567C243.497 220.421 243.61 220.217 243.61 219.957C243.61 219.677 243.5 219.477 243.28 219.357C243.06 219.237 242.703 219.161 242.21 219.127C241.637 219.087 241.197 218.954 240.89 218.727C240.583 218.501 240.43 218.171 240.43 217.737V217.677C240.43 217.444 240.48 217.241 240.58 217.067C240.68 216.887 240.813 216.737 240.98 216.617C241.153 216.497 241.347 216.407 241.56 216.347C241.773 216.287 241.997 216.257 242.23 216.257C242.557 216.257 242.843 216.304 243.09 216.397C243.337 216.484 243.543 216.601 243.71 216.747C243.877 216.887 244.003 217.051 244.09 217.237C244.183 217.424 244.243 217.611 244.27 217.797L243.53 217.977C243.497 217.657 243.367 217.407 243.14 217.227C242.92 217.047 242.63 216.957 242.27 216.957C242.13 216.957 241.993 216.974 241.86 217.007C241.733 217.034 241.62 217.077 241.52 217.137C241.42 217.197 241.34 217.274 241.28 217.367C241.22 217.454 241.19 217.557 241.19 217.677ZM195.766 237.177V237.917H195.406C194.939 237.917 194.492 237.831 194.066 237.657C193.639 237.484 193.262 237.231 192.936 236.897C192.609 236.571 192.349 236.174 192.156 235.707C191.962 235.241 191.866 234.711 191.866 234.117V231.597C191.866 231.011 191.962 230.484 192.156 230.017C192.349 229.544 192.609 229.144 192.936 228.817C193.262 228.484 193.639 228.231 194.066 228.057C194.492 227.884 194.939 227.797 195.406 227.797H195.766V228.537H195.406C195.046 228.537 194.699 228.611 194.366 228.757C194.032 228.897 193.739 229.101 193.486 229.367C193.232 229.634 193.029 229.961 192.876 230.347C192.722 230.727 192.646 231.157 192.646 231.637V234.077C192.646 234.557 192.722 234.991 192.876 235.377C193.029 235.757 193.232 236.081 193.486 236.347C193.739 236.614 194.032 236.817 194.366 236.957C194.699 237.104 195.046 237.177 195.406 237.177H195.766ZM199.529 235.717C199.815 235.717 200.059 235.671 200.259 235.577C200.465 235.477 200.632 235.347 200.759 235.187C200.892 235.021 200.989 234.834 201.049 234.627C201.115 234.414 201.149 234.191 201.149 233.957V233.837H201.989V233.957C201.989 234.311 201.935 234.644 201.829 234.957C201.722 235.264 201.565 235.534 201.359 235.767C201.152 235.994 200.895 236.174 200.589 236.307C200.282 236.434 199.929 236.497 199.529 236.497C198.755 236.497 198.152 236.254 197.719 235.767C197.285 235.281 197.069 234.571 197.069 233.637V232.077C197.069 231.171 197.285 230.467 197.719 229.967C198.152 229.467 198.755 229.217 199.529 229.217C199.929 229.217 200.282 229.284 200.589 229.417C200.895 229.544 201.152 229.724 201.359 229.957C201.565 230.184 201.722 230.454 201.829 230.767C201.935 231.074 201.989 231.404 201.989 231.757V231.877H201.149V231.757C201.142 231.531 201.105 231.311 201.039 231.097C200.979 230.884 200.882 230.697 200.749 230.537C200.622 230.371 200.459 230.241 200.259 230.147C200.059 230.047 199.815 229.997 199.529 229.997C198.989 229.997 198.582 230.194 198.309 230.587C198.042 230.981 197.909 231.497 197.909 232.137V233.577C197.909 234.264 198.042 234.794 198.309 235.167C198.582 235.534 198.989 235.717 199.529 235.717ZM203.282 229.357H205.582C206.449 229.357 207.082 229.564 207.482 229.977C207.882 230.391 208.082 231.051 208.082 231.957V233.757C208.082 234.664 207.882 235.324 207.482 235.737C207.082 236.151 206.449 236.357 205.582 236.357H203.282V235.567H203.882V230.137H203.282V229.357ZM205.462 235.577C205.769 235.577 206.032 235.547 206.252 235.487C206.479 235.427 206.665 235.327 206.812 235.187C206.959 235.041 207.065 234.847 207.132 234.607C207.205 234.367 207.242 234.064 207.242 233.697V232.017C207.242 231.651 207.205 231.347 207.132 231.107C207.065 230.867 206.959 230.677 206.812 230.537C206.665 230.391 206.479 230.287 206.252 230.227C206.032 230.167 205.769 230.137 205.462 230.137H204.722V235.577H205.462ZM211.775 235.717C212.062 235.717 212.305 235.671 212.505 235.577C212.712 235.477 212.878 235.347 213.005 235.187C213.138 235.021 213.235 234.834 213.295 234.627C213.362 234.414 213.395 234.191 213.395 233.957V233.837H214.235V233.957C214.235 234.311 214.182 234.644 214.075 234.957C213.968 235.264 213.812 235.534 213.605 235.767C213.398 235.994 213.142 236.174 212.835 236.307C212.528 236.434 212.175 236.497 211.775 236.497C211.002 236.497 210.398 236.254 209.965 235.767C209.532 235.281 209.315 234.571 209.315 233.637V232.077C209.315 231.171 209.532 230.467 209.965 229.967C210.398 229.467 211.002 229.217 211.775 229.217C212.175 229.217 212.528 229.284 212.835 229.417C213.142 229.544 213.398 229.724 213.605 229.957C213.812 230.184 213.968 230.454 214.075 230.767C214.182 231.074 214.235 231.404 214.235 231.757V231.877H213.395V231.757C213.388 231.531 213.352 231.311 213.285 231.097C213.225 230.884 213.128 230.697 212.995 230.537C212.868 230.371 212.705 230.241 212.505 230.147C212.305 230.047 212.062 229.997 211.775 229.997C211.235 229.997 210.828 230.194 210.555 230.587C210.288 230.981 210.155 231.497 210.155 232.137V233.577C210.155 234.264 210.288 234.794 210.555 235.167C210.828 235.534 211.235 235.717 211.775 235.717ZM215.818 237.177C216.178 237.177 216.525 237.104 216.858 236.957C217.191 236.817 217.485 236.614 217.738 236.347C217.991 236.081 218.195 235.757 218.348 235.377C218.501 234.991 218.578 234.557 218.578 234.077V231.637C218.578 231.157 218.501 230.727 218.348 230.347C218.195 229.961 217.991 229.634 217.738 229.367C217.485 229.101 217.191 228.897 216.858 228.757C216.525 228.611 216.178 228.537 215.818 228.537H215.458V227.797H215.818C216.285 227.797 216.731 227.884 217.158 228.057C217.585 228.231 217.961 228.484 218.288 228.817C218.615 229.144 218.875 229.544 219.068 230.017C219.261 230.484 219.358 231.011 219.358 231.597V234.117C219.358 234.711 219.261 235.241 219.068 235.707C218.875 236.174 218.615 236.571 218.288 236.897C217.961 237.231 217.585 237.484 217.158 237.657C216.731 237.831 216.285 237.917 215.818 237.917H215.458V237.177H215.818Z" fill="#173369"/>
<path d="M373.935 214.357V218.997C373.935 219.564 374.065 219.994 374.325 220.287C374.591 220.574 374.981 220.717 375.495 220.717C376.008 220.717 376.395 220.574 376.655 220.287C376.921 219.994 377.055 219.564 377.055 218.997V214.357H377.895V218.997C377.895 219.811 377.681 220.431 377.255 220.857C376.828 221.284 376.241 221.497 375.495 221.497C374.748 221.497 374.161 221.284 373.735 220.857C373.308 220.431 373.095 219.811 373.095 218.997V214.357H373.935ZM380.028 223.357H379.248V216.397H380.028V217.177H380.148C380.321 216.877 380.561 216.651 380.868 216.497C381.174 216.337 381.508 216.257 381.868 216.257C382.174 216.257 382.464 216.314 382.738 216.427C383.011 216.541 383.251 216.704 383.458 216.917C383.671 217.131 383.838 217.394 383.958 217.707C384.084 218.021 384.148 218.377 384.148 218.777V218.977C384.148 219.384 384.088 219.744 383.968 220.057C383.848 220.371 383.681 220.634 383.468 220.847C383.261 221.061 383.018 221.224 382.738 221.337C382.458 221.444 382.161 221.497 381.848 221.497C381.688 221.497 381.524 221.477 381.358 221.437C381.191 221.404 381.031 221.351 380.878 221.277C380.731 221.197 380.594 221.104 380.468 220.997C380.341 220.884 380.234 220.751 380.148 220.597H380.028V223.357ZM381.688 220.757C381.928 220.757 382.148 220.717 382.348 220.637C382.548 220.551 382.721 220.431 382.868 220.277C383.021 220.124 383.138 219.937 383.218 219.717C383.304 219.497 383.348 219.251 383.348 218.977V218.777C383.348 218.511 383.304 218.271 383.218 218.057C383.138 217.837 383.021 217.651 382.868 217.497C382.721 217.337 382.544 217.214 382.338 217.127C382.138 217.041 381.921 216.997 381.688 216.997C381.454 216.997 381.238 217.044 381.038 217.137C380.838 217.224 380.661 217.347 380.508 217.507C380.361 217.667 380.244 217.861 380.158 218.087C380.071 218.307 380.028 218.551 380.028 218.817V218.937C380.028 219.211 380.071 219.461 380.158 219.687C380.244 219.907 380.361 220.097 380.508 220.257C380.661 220.417 380.838 220.541 381.038 220.627C381.238 220.714 381.454 220.757 381.688 220.757ZM389.391 220.597H389.271C389.191 220.751 389.087 220.884 388.961 220.997C388.841 221.111 388.707 221.204 388.561 221.277C388.421 221.351 388.271 221.404 388.111 221.437C387.951 221.477 387.797 221.497 387.651 221.497C387.317 221.497 387.007 221.441 386.721 221.327C386.434 221.214 386.181 221.051 385.961 220.837C385.747 220.624 385.577 220.361 385.451 220.047C385.331 219.727 385.271 219.364 385.271 218.957V218.797C385.271 218.397 385.334 218.041 385.461 217.727C385.587 217.407 385.757 217.141 385.971 216.927C386.184 216.707 386.434 216.541 386.721 216.427C387.007 216.314 387.311 216.257 387.631 216.257C387.971 216.257 388.287 216.334 388.581 216.487C388.881 216.634 389.111 216.864 389.271 217.177H389.391V214.357H390.171V221.357H389.391V220.597ZM387.731 220.757C387.964 220.757 388.181 220.714 388.381 220.627C388.581 220.541 388.754 220.417 388.901 220.257C389.054 220.097 389.174 219.907 389.261 219.687C389.347 219.461 389.391 219.211 389.391 218.937V218.817C389.391 218.551 389.347 218.307 389.261 218.087C389.174 217.861 389.054 217.667 388.901 217.507C388.754 217.347 388.577 217.224 388.371 217.137C388.171 217.044 387.957 216.997 387.731 216.997C387.497 216.997 387.277 217.041 387.071 217.127C386.871 217.214 386.694 217.337 386.541 217.497C386.394 217.657 386.277 217.847 386.191 218.067C386.111 218.287 386.071 218.531 386.071 218.797V218.957C386.071 219.237 386.111 219.487 386.191 219.707C386.277 219.927 386.394 220.117 386.541 220.277C386.694 220.431 386.871 220.551 387.071 220.637C387.271 220.717 387.491 220.757 387.731 220.757ZM395.274 220.517H395.154C394.994 220.851 394.77 221.097 394.484 221.257C394.204 221.417 393.907 221.497 393.594 221.497C393.267 221.497 392.964 221.444 392.684 221.337C392.404 221.224 392.157 221.061 391.944 220.847C391.737 220.627 391.574 220.361 391.454 220.047C391.334 219.734 391.274 219.371 391.274 218.957V218.797C391.274 218.391 391.334 218.031 391.454 217.717C391.574 217.404 391.737 217.141 391.944 216.927C392.157 216.707 392.404 216.541 392.684 216.427C392.964 216.314 393.26 216.257 393.574 216.257C393.914 216.257 394.22 216.334 394.494 216.487C394.774 216.634 394.994 216.864 395.154 217.177H395.274V216.397H396.054V220.337C396.054 220.537 396.144 220.637 396.324 220.637H396.574V221.357H396.044C395.817 221.357 395.63 221.284 395.484 221.137C395.344 220.991 395.274 220.804 395.274 220.577V220.517ZM393.674 220.757C393.907 220.757 394.12 220.714 394.314 220.627C394.514 220.541 394.684 220.417 394.824 220.257C394.964 220.097 395.074 219.907 395.154 219.687C395.234 219.461 395.274 219.211 395.274 218.937V218.817C395.274 218.551 395.234 218.307 395.154 218.087C395.074 217.861 394.96 217.667 394.814 217.507C394.674 217.347 394.504 217.224 394.304 217.137C394.11 217.044 393.9 216.997 393.674 216.997C393.44 216.997 393.227 217.041 393.034 217.127C392.84 217.214 392.67 217.337 392.524 217.497C392.384 217.651 392.274 217.841 392.194 218.067C392.114 218.287 392.074 218.531 392.074 218.797V218.957C392.074 219.524 392.22 219.967 392.514 220.287C392.814 220.601 393.2 220.757 393.674 220.757ZM397.627 216.397H399.187V214.357H399.967V216.397H401.887V217.117H399.967V220.337C399.967 220.537 400.057 220.637 400.237 220.637H401.647V221.357H399.957C399.73 221.357 399.544 221.284 399.397 221.137C399.257 220.991 399.187 220.804 399.187 220.577V217.117H397.627V216.397ZM404.49 219.117C404.51 219.611 404.663 220.007 404.95 220.307C405.237 220.607 405.637 220.757 406.15 220.757C406.383 220.757 406.587 220.731 406.76 220.677C406.933 220.624 407.08 220.551 407.2 220.457C407.327 220.364 407.427 220.257 407.5 220.137C407.58 220.011 407.643 219.877 407.69 219.737L408.43 219.937C408.29 220.397 408.03 220.774 407.65 221.067C407.277 221.354 406.77 221.497 406.13 221.497C405.777 221.497 405.45 221.437 405.15 221.317C404.857 221.191 404.603 221.014 404.39 220.787C404.177 220.561 404.01 220.291 403.89 219.977C403.77 219.664 403.71 219.317 403.71 218.937V218.697C403.71 218.351 403.77 218.027 403.89 217.727C404.017 217.427 404.19 217.171 404.41 216.957C404.63 216.737 404.887 216.567 405.18 216.447C405.48 216.321 405.803 216.257 406.15 216.257C406.557 216.257 406.907 216.334 407.2 216.487C407.5 216.634 407.743 216.817 407.93 217.037C408.123 217.257 408.263 217.497 408.35 217.757C408.443 218.017 408.49 218.257 408.49 218.477V219.117H404.49ZM406.15 216.997C405.93 216.997 405.723 217.034 405.53 217.107C405.343 217.174 405.177 217.271 405.03 217.397C404.89 217.524 404.773 217.674 404.68 217.847C404.593 218.014 404.537 218.197 404.51 218.397H407.71C407.697 218.184 407.643 217.991 407.55 217.817C407.463 217.644 407.347 217.497 407.2 217.377C407.06 217.257 406.897 217.164 406.71 217.097C406.53 217.031 406.343 216.997 406.15 216.997ZM416.026 214.357H418.326C419.193 214.357 419.826 214.564 420.226 214.977C420.626 215.391 420.826 216.051 420.826 216.957V218.757C420.826 219.664 420.626 220.324 420.226 220.737C419.826 221.151 419.193 221.357 418.326 221.357H416.026V220.567H416.626V215.137H416.026V214.357ZM418.206 220.577C418.513 220.577 418.776 220.547 418.996 220.487C419.223 220.427 419.409 220.327 419.556 220.187C419.703 220.041 419.809 219.847 419.876 219.607C419.949 219.367 419.986 219.064 419.986 218.697V217.017C419.986 216.651 419.949 216.347 419.876 216.107C419.809 215.867 419.703 215.677 419.556 215.537C419.409 215.391 419.223 215.287 418.996 215.227C418.776 215.167 418.513 215.137 418.206 215.137H417.466V220.577H418.206ZM425.889 220.517H425.769C425.609 220.851 425.386 221.097 425.099 221.257C424.819 221.417 424.522 221.497 424.209 221.497C423.882 221.497 423.579 221.444 423.299 221.337C423.019 221.224 422.772 221.061 422.559 220.847C422.352 220.627 422.189 220.361 422.069 220.047C421.949 219.734 421.889 219.371 421.889 218.957V218.797C421.889 218.391 421.949 218.031 422.069 217.717C422.189 217.404 422.352 217.141 422.559 216.927C422.772 216.707 423.019 216.541 423.299 216.427C423.579 216.314 423.876 216.257 424.189 216.257C424.529 216.257 424.836 216.334 425.109 216.487C425.389 216.634 425.609 216.864 425.769 217.177H425.889V216.397H426.669V220.337C426.669 220.537 426.759 220.637 426.939 220.637H427.189V221.357H426.659C426.432 221.357 426.246 221.284 426.099 221.137C425.959 220.991 425.889 220.804 425.889 220.577V220.517ZM424.289 220.757C424.522 220.757 424.736 220.714 424.929 220.627C425.129 220.541 425.299 220.417 425.439 220.257C425.579 220.097 425.689 219.907 425.769 219.687C425.849 219.461 425.889 219.211 425.889 218.937V218.817C425.889 218.551 425.849 218.307 425.769 218.087C425.689 217.861 425.576 217.667 425.429 217.507C425.289 217.347 425.119 217.224 424.919 217.137C424.726 217.044 424.516 216.997 424.289 216.997C424.056 216.997 423.842 217.041 423.649 217.127C423.456 217.214 423.286 217.337 423.139 217.497C422.999 217.651 422.889 217.841 422.809 218.067C422.729 218.287 422.689 218.531 422.689 218.797V218.957C422.689 219.524 422.836 219.967 423.129 220.287C423.429 220.601 423.816 220.757 424.289 220.757ZM428.242 216.397H429.802V214.357H430.582V216.397H432.502V217.117H430.582V220.337C430.582 220.537 430.672 220.637 430.852 220.637H432.262V221.357H430.572C430.345 221.357 430.159 221.284 430.012 221.137C429.872 220.991 429.802 220.804 429.802 220.577V217.117H428.242V216.397ZM438.135 220.517H438.015C437.855 220.851 437.632 221.097 437.345 221.257C437.065 221.417 436.768 221.497 436.455 221.497C436.128 221.497 435.825 221.444 435.545 221.337C435.265 221.224 435.018 221.061 434.805 220.847C434.598 220.627 434.435 220.361 434.315 220.047C434.195 219.734 434.135 219.371 434.135 218.957V218.797C434.135 218.391 434.195 218.031 434.315 217.717C434.435 217.404 434.598 217.141 434.805 216.927C435.018 216.707 435.265 216.541 435.545 216.427C435.825 216.314 436.122 216.257 436.435 216.257C436.775 216.257 437.082 216.334 437.355 216.487C437.635 216.634 437.855 216.864 438.015 217.177H438.135V216.397H438.915V220.337C438.915 220.537 439.005 220.637 439.185 220.637H439.435V221.357H438.905C438.678 221.357 438.492 221.284 438.345 221.137C438.205 220.991 438.135 220.804 438.135 220.577V220.517ZM436.535 220.757C436.768 220.757 436.982 220.714 437.175 220.627C437.375 220.541 437.545 220.417 437.685 220.257C437.825 220.097 437.935 219.907 438.015 219.687C438.095 219.461 438.135 219.211 438.135 218.937V218.817C438.135 218.551 438.095 218.307 438.015 218.087C437.935 217.861 437.822 217.667 437.675 217.507C437.535 217.347 437.365 217.224 437.165 217.137C436.972 217.044 436.762 216.997 436.535 216.997C436.302 216.997 436.088 217.041 435.895 217.127C435.702 217.214 435.532 217.337 435.385 217.497C435.245 217.651 435.135 217.841 435.055 218.067C434.975 218.287 434.935 218.531 434.935 218.797V218.957C434.935 219.524 435.082 219.967 435.375 220.287C435.675 220.601 436.062 220.757 436.535 220.757Z" fill="#173369"/>
<path d="M103.628 129.667C103.53 129.765 103.372 129.765 103.274 129.667L101.683 128.076C101.586 127.978 101.586 127.82 101.683 127.722C101.781 127.625 101.939 127.625 102.037 127.722L103.451 129.137L104.865 127.722C104.963 127.625 105.121 127.625 105.219 127.722C105.317 127.82 105.317 127.978 105.219 128.076L103.628 129.667ZM103.701 75.3008L103.701 76.2685L103.201 76.2685L103.201 75.3008L103.701 75.3008ZM103.701 78.2038L103.701 80.1391L103.201 80.1391L103.201 78.2038L103.701 78.2038ZM103.701 82.0745L103.701 84.0098L103.201 84.0098L103.201 82.0745L103.701 82.0745ZM103.701 85.9451L103.701 87.8805L103.201 87.8805L103.201 85.9451L103.701 85.9451ZM103.701 89.8158L103.701 91.7512L103.201 91.7512L103.201 89.8158L103.701 89.8158ZM103.701 93.6865L103.701 95.6218L103.201 95.6218L103.201 93.6865L103.701 93.6865ZM103.701 97.5572L103.701 99.4925L103.201 99.4925L103.201 97.5572L103.701 97.5572ZM103.701 101.428L103.701 103.363L103.201 103.363L103.201 101.428L103.701 101.428ZM103.701 105.299L103.701 107.234L103.201 107.234L103.201 105.299L103.701 105.299ZM103.701 109.169L103.701 111.105L103.201 111.105L103.201 109.169L103.701 109.169ZM103.701 113.04L103.701 114.975L103.201 114.975L103.201 113.04L103.701 113.04ZM103.701 116.911L103.701 118.846L103.201 118.846L103.201 116.911L103.701 116.911ZM103.701 120.781L103.701 122.717L103.201 122.717L103.201 120.781L103.701 120.781ZM103.701 124.652L103.701 126.587L103.201 126.587L103.201 124.652L103.701 124.652ZM103.701 128.523L103.701 129.49L103.201 129.49L103.201 128.523L103.701 128.523ZM103.628 129.667C103.53 129.765 103.372 129.765 103.274 129.667L101.683 128.076C101.586 127.978 101.586 127.82 101.683 127.722C101.781 127.625 101.939 127.625 102.037 127.722L103.451 129.137L104.865 127.722C104.963 127.625 105.121 127.625 105.219 127.722C105.317 127.82 105.317 127.978 105.219 128.076L103.628 129.667ZM103.701 75.3008L103.701 76.2685L103.201 76.2685L103.201 75.3008L103.701 75.3008ZM103.701 78.2038L103.701 80.1391L103.201 80.1391L103.201 78.2038L103.701 78.2038ZM103.701 82.0745L103.701 84.0098L103.201 84.0098L103.201 82.0745L103.701 82.0745ZM103.701 85.9451L103.701 87.8805L103.201 87.8805L103.201 85.9451L103.701 85.9451ZM103.701 89.8158L103.701 91.7512L103.201 91.7512L103.201 89.8158L103.701 89.8158ZM103.701 93.6865L103.701 95.6218L103.201 95.6218L103.201 93.6865L103.701 93.6865ZM103.701 97.5572L103.701 99.4925L103.201 99.4925L103.201 97.5572L103.701 97.5572ZM103.701 101.428L103.701 103.363L103.201 103.363L103.201 101.428L103.701 101.428ZM103.701 105.299L103.701 107.234L103.201 107.234L103.201 105.299L103.701 105.299ZM103.701 109.169L103.701 111.105L103.201 111.105L103.201 109.169L103.701 109.169ZM103.701 113.04L103.701 114.975L103.201 114.975L103.201 113.04L103.701 113.04ZM103.701 116.911L103.701 118.846L103.201 118.846L103.201 116.911L103.701 116.911ZM103.701 120.781L103.701 122.717L103.201 122.717L103.201 120.781L103.701 120.781ZM103.701 124.652L103.701 126.587L103.201 126.587L103.201 124.652L103.701 124.652ZM103.701 128.523L103.701 129.49L103.201 129.49L103.201 128.523L103.701 128.523Z" fill="#173369"/>
<path d="M246.541 201.837C246.639 201.739 246.639 201.581 246.541 201.483L244.95 199.892C244.853 199.795 244.695 199.795 244.597 199.892C244.499 199.99 244.499 200.148 244.597 200.246L246.011 201.66L244.597 203.074C244.499 203.172 244.499 203.33 244.597 203.428C244.695 203.526 244.853 203.526 244.95 203.428L246.541 201.837ZM246.365 201.41L245.346 201.41L245.346 201.91L246.365 201.91L246.365 201.41ZM243.309 201.41L241.273 201.41L241.273 201.91L243.309 201.91L243.309 201.41ZM239.236 201.41L237.199 201.41L237.199 201.91L239.236 201.91L239.236 201.41ZM235.162 201.41L233.125 201.41L233.125 201.91L235.162 201.91L235.162 201.41ZM231.089 201.41L229.052 201.41L229.052 201.91L231.089 201.91L231.089 201.41ZM227.015 201.41L224.978 201.41L224.978 201.91L227.015 201.91L227.015 201.41ZM222.941 201.41L220.905 201.41L220.905 201.91L222.941 201.91L222.941 201.41ZM218.868 201.41L216.831 201.41L216.831 201.91L218.868 201.91L218.868 201.41ZM214.794 201.41L212.757 201.41L212.757 201.91L214.794 201.91L214.794 201.41ZM210.721 201.41L208.684 201.41L208.684 201.91L210.721 201.91L210.721 201.41ZM206.647 201.41L204.61 201.41L204.61 201.91L206.647 201.91L206.647 201.41ZM202.573 201.41L200.537 201.41L200.537 201.91L202.573 201.91L202.573 201.41ZM198.5 201.41L196.463 201.41L196.463 201.91L198.5 201.91L198.5 201.41ZM194.426 201.41L192.389 201.41L192.389 201.91L194.426 201.91L194.426 201.41ZM190.353 201.41L188.316 201.41L188.316 201.91L190.353 201.91L190.353 201.41ZM186.279 201.41L184.242 201.41L184.242 201.91L186.279 201.91L186.279 201.41ZM182.205 201.41L180.169 201.41L180.169 201.91L182.205 201.91L182.205 201.41ZM178.132 201.41L176.095 201.41L176.095 201.91L178.132 201.91L178.132 201.41ZM174.058 201.41L172.021 201.41L172.021 201.91L174.058 201.91L174.058 201.41ZM169.985 201.41L167.948 201.41L167.948 201.91L169.985 201.91L169.985 201.41ZM165.911 201.41L164.893 201.41L164.893 201.91L165.911 201.91L165.911 201.41ZM246.541 201.837C246.639 201.739 246.639 201.581 246.541 201.483L244.95 199.892C244.853 199.795 244.695 199.795 244.597 199.892C244.499 199.99 244.499 200.148 244.597 200.246L246.011 201.66L244.597 203.074C244.499 203.172 244.499 203.33 244.597 203.428C244.695 203.526 244.853 203.526 244.95 203.428L246.541 201.837ZM246.365 201.41L245.346 201.41L245.346 201.91L246.365 201.91L246.365 201.41ZM243.309 201.41L241.273 201.41L241.273 201.91L243.309 201.91L243.309 201.41ZM239.236 201.41L237.199 201.41L237.199 201.91L239.236 201.91L239.236 201.41ZM235.162 201.41L233.125 201.41L233.125 201.91L235.162 201.91L235.162 201.41ZM231.089 201.41L229.052 201.41L229.052 201.91L231.089 201.91L231.089 201.41ZM227.015 201.41L224.978 201.41L224.978 201.91L227.015 201.91L227.015 201.41ZM222.941 201.41L220.905 201.41L220.905 201.91L222.941 201.91L222.941 201.41ZM218.868 201.41L216.831 201.41L216.831 201.91L218.868 201.91L218.868 201.41ZM214.794 201.41L212.757 201.41L212.757 201.91L214.794 201.91L214.794 201.41ZM210.721 201.41L208.684 201.41L208.684 201.91L210.721 201.91L210.721 201.41ZM206.647 201.41L204.61 201.41L204.61 201.91L206.647 201.91L206.647 201.41ZM202.573 201.41L200.537 201.41L200.537 201.91L202.573 201.91L202.573 201.41ZM198.5 201.41L196.463 201.41L196.463 201.91L198.5 201.91L198.5 201.41ZM194.426 201.41L192.389 201.41L192.389 201.91L194.426 201.91L194.426 201.41ZM190.353 201.41L188.316 201.41L188.316 201.91L190.353 201.91L190.353 201.41ZM186.279 201.41L184.242 201.41L184.242 201.91L186.279 201.91L186.279 201.41ZM182.205 201.41L180.169 201.41L180.169 201.91L182.205 201.91L182.205 201.41ZM178.132 201.41L176.095 201.41L176.095 201.91L178.132 201.91L178.132 201.41ZM174.058 201.41L172.021 201.41L172.021 201.91L174.058 201.91L174.058 201.41ZM169.985 201.41L167.948 201.41L167.948 201.91L169.985 201.91L169.985 201.41ZM165.911 201.41L164.893 201.41L164.893 201.91L165.911 201.91L165.911 201.41Z" fill="#173369"/>
<path d="M443.595 201.483C443.692 201.581 443.692 201.739 443.595 201.837L442.004 203.428C441.906 203.525 441.748 203.525 441.65 203.428C441.553 203.33 441.553 203.172 441.65 203.074L443.064 201.66L441.65 200.246C441.553 200.148 441.553 199.99 441.65 199.892C441.748 199.795 441.906 199.795 442.004 199.892L443.595 201.483ZM361.946 201.41L362.964 201.41L362.964 201.91L361.946 201.91L361.946 201.41ZM365.001 201.41L367.038 201.41L367.038 201.91L365.001 201.91L365.001 201.41ZM369.075 201.41L371.112 201.41L371.112 201.91L369.075 201.91L369.075 201.41ZM373.148 201.41L375.185 201.41L375.185 201.91L373.148 201.91L373.148 201.41ZM377.222 201.41L379.259 201.41L379.259 201.91L377.222 201.91L377.222 201.41ZM381.296 201.41L383.332 201.41L383.332 201.91L381.296 201.91L381.296 201.41ZM385.369 201.41L387.406 201.41L387.406 201.91L385.369 201.91L385.369 201.41ZM389.443 201.41L391.48 201.41L391.48 201.91L389.443 201.91L389.443 201.41ZM393.516 201.41L395.553 201.41L395.553 201.91L393.516 201.91L393.516 201.41ZM397.59 201.41L399.627 201.41L399.627 201.91L397.59 201.91L397.59 201.41ZM401.664 201.41L403.7 201.41L403.7 201.91L401.664 201.91L401.664 201.41ZM405.737 201.41L407.774 201.41L407.774 201.91L405.737 201.91L405.737 201.41ZM409.811 201.41L411.848 201.41L411.848 201.91L409.811 201.91L409.811 201.41ZM413.884 201.41L415.921 201.41L415.921 201.91L413.884 201.91L413.884 201.41ZM417.958 201.41L419.995 201.41L419.995 201.91L417.958 201.91L417.958 201.41ZM422.032 201.41L424.068 201.41L424.068 201.91L422.032 201.91L422.032 201.41ZM426.105 201.41L428.142 201.41L428.142 201.91L426.105 201.91L426.105 201.41ZM430.179 201.41L432.216 201.41L432.216 201.91L430.179 201.91L430.179 201.41ZM434.252 201.41L436.289 201.41L436.289 201.91L434.252 201.91L434.252 201.41ZM438.326 201.41L440.363 201.41L440.363 201.91L438.326 201.91L438.326 201.41ZM442.4 201.41L443.418 201.41L443.418 201.91L442.4 201.91L442.4 201.41ZM443.595 201.483C443.692 201.581 443.692 201.739 443.595 201.837L442.004 203.428C441.906 203.525 441.748 203.525 441.65 203.428C441.553 203.33 441.553 203.172 441.65 203.074L443.064 201.66L441.65 200.246C441.553 200.148 441.553 199.99 441.65 199.892C441.748 199.795 441.906 199.795 442.004 199.892L443.595 201.483ZM361.946 201.41L362.964 201.41L362.964 201.91L361.946 201.91L361.946 201.41ZM365.001 201.41L367.038 201.41L367.038 201.91L365.001 201.91L365.001 201.41ZM369.075 201.41L371.112 201.41L371.112 201.91L369.075 201.91L369.075 201.41ZM373.148 201.41L375.185 201.41L375.185 201.91L373.148 201.91L373.148 201.41ZM377.222 201.41L379.259 201.41L379.259 201.91L377.222 201.91L377.222 201.41ZM381.296 201.41L383.332 201.41L383.332 201.91L381.296 201.91L381.296 201.41ZM385.369 201.41L387.406 201.41L387.406 201.91L385.369 201.91L385.369 201.41ZM389.443 201.41L391.48 201.41L391.48 201.91L389.443 201.91L389.443 201.41ZM393.516 201.41L395.553 201.41L395.553 201.91L393.516 201.91L393.516 201.41ZM397.59 201.41L399.627 201.41L399.627 201.91L397.59 201.91L397.59 201.41ZM401.664 201.41L403.7 201.41L403.7 201.91L401.664 201.91L401.664 201.41ZM405.737 201.41L407.774 201.41L407.774 201.91L405.737 201.91L405.737 201.41ZM409.811 201.41L411.848 201.41L411.848 201.91L409.811 201.91L409.811 201.41ZM413.884 201.41L415.921 201.41L415.921 201.91L413.884 201.91L413.884 201.41ZM417.958 201.41L419.995 201.41L419.995 201.91L417.958 201.91L417.958 201.41ZM422.032 201.41L424.068 201.41L424.068 201.91L422.032 201.91L422.032 201.41ZM426.105 201.41L428.142 201.41L428.142 201.91L426.105 201.91L426.105 201.41ZM430.179 201.41L432.216 201.41L432.216 201.91L430.179 201.91L430.179 201.41ZM434.252 201.41L436.289 201.41L436.289 201.91L434.252 201.91L434.252 201.41ZM438.326 201.41L440.363 201.41L440.363 201.91L438.326 201.91L438.326 201.41ZM442.4 201.41L443.418 201.41L443.418 201.91L442.4 201.91L442.4 201.41Z" fill="#173369"/>
<path d="M295.013 163.28C285.816 168.589 285.816 177.198 295.013 182.507L328.315 163.28C319.119 157.97 304.209 157.97 295.013 163.28Z" fill="white"/>
<path d="M318.451 162.678L316.649 163.718L314.847 164.759L311.243 166.839L304.034 171.001L296.826 175.163L295.024 176.203L293.434 177.151" stroke="white" stroke-linejoin="bevel"/>
<rect x="297.133" y="191.623" width="17.6083" height="51.1849" fill="white"/>
<path d="M337.375 157.258L334.771 158.754C334.771 158.754 333.628 159.522 334.2 160.658C334.771 161.795 337.728 166.415 337.728 166.415C337.728 166.415 338.674 167.316 340.864 167.567C343.046 167.813 346.384 167.739 346.384 167.739" fill="white"/>
<path d="M302.018 194.256L301.788 190.708C301.788 190.708 301.592 189.621 299.743 189.035C297.902 188.445 290.01 186.378 290.01 186.378C290.01 186.378 288.237 186.142 286.413 186.969C284.589 187.795 282.041 189.641 282.041 189.641" fill="white"/>
<path d="M332.316 189.714L327.961 187.2C327.961 187.2 326.546 186.462 324.518 186.767C322.49 187.072 314.257 188.617 314.257 188.617C314.257 188.617 312.68 189.134 312.279 190.457C311.879 191.781 312.211 194.138 312.211 194.138" fill="white"/>
<path d="M346.384 173.589L340.847 173.757C340.847 173.757 338.964 173.87 337.984 174.958C337.003 176.045 333.518 180.616 333.518 180.616C333.518 180.616 333.143 181.64 334.574 182.693C336.006 183.746 339.27 185.178 339.27 185.178" fill="white"/>
<path d="M296.947 177.875C303.126 180.695 312.109 180.459 317.819 177.162C323.529 173.865 323.93 168.704 319.089 165.141" fill="white"/>
<path d="M316.779 164.92C316.14 164.551 316.132 163.945 316.779 163.571C317.427 163.197 318.467 163.197 319.115 163.571C319.762 163.945 319.762 164.546 319.115 164.92C318.467 165.294 317.427 165.294 316.779 164.92Z" fill="white"/>
<path d="M294.578 177.738C293.939 177.369 293.93 176.763 294.578 176.389C295.226 176.016 296.265 176.016 296.913 176.389C297.561 176.763 297.561 177.364 296.913 177.738C296.265 178.112 295.226 178.112 294.578 177.738Z" fill="white"/>
<path d="M311.043 174.431C310.404 174.062 310.396 173.457 311.043 173.083C311.691 172.709 312.731 172.709 313.379 173.083C314.026 173.457 314.026 174.057 313.379 174.431C312.731 174.805 311.691 174.805 311.043 174.431Z" fill="white"/>
<path d="M291.245 170.687C290.606 170.317 290.598 169.712 291.245 169.338C291.893 168.964 292.933 168.964 293.581 169.338C294.228 169.712 294.228 170.313 293.581 170.687C292.933 171.06 291.893 171.06 291.245 170.687Z" fill="white"/>
<path d="M304.2 163.207C303.561 162.838 303.552 162.233 304.2 161.859C304.848 161.485 305.887 161.485 306.535 161.859C307.183 162.233 307.183 162.833 306.535 163.207C305.887 163.581 304.848 163.581 304.2 163.207Z" fill="white"/>
<path d="M322.021 172.158L306.475 163.183Z" fill="white"/>
<path d="M309.075 179.632L293.529 170.657Z" fill="white"/>
<path d="M302.018 261.484L301.788 257.936C301.788 257.936 301.592 256.849 299.743 256.263C297.902 255.673 290.01 253.606 290.01 253.606C290.01 253.606 288.237 253.37 286.413 254.197C284.589 255.023 282.041 256.869 282.041 256.869" fill="white"/>
<path d="M331.835 256.565L327.961 254.428C327.961 254.428 326.546 253.69 324.518 253.995C322.49 254.3 314.257 255.845 314.257 255.845C314.257 255.845 312.68 256.362 312.279 257.685C311.879 259.009 312.211 262.408 312.211 262.408" fill="white"/>
<path d="M291.508 163.183C290.869 162.814 290.86 162.208 291.508 161.834C292.156 161.461 293.195 161.461 293.843 161.834C294.491 162.208 294.491 162.809 293.843 163.183C293.195 163.557 292.156 163.557 291.508 163.183Z" fill="white"/>
<path d="M346.384 167.739C346.384 167.739 343.046 167.813 340.864 167.567C338.674 167.316 337.728 166.415 337.728 166.415C337.728 166.415 334.771 161.795 334.2 160.658C333.628 159.522 334.771 158.754 334.771 158.754L337.375 157.258L337.526 157.436V166.099M339.27 185.178C339.27 185.178 336.006 183.746 334.574 182.693C333.143 181.64 333.518 180.616 333.518 180.616C333.518 180.616 337.003 176.045 337.984 174.958C338.964 173.87 340.847 173.757 340.847 173.757L346.384 173.589V174.188V238.137L346.143 240.899H343.92L341.447 240.942L339.076 241.033L338.939 252.245V184.82M296.947 177.875C303.126 180.695 312.109 180.459 317.819 177.162C323.529 173.865 323.93 168.704 319.089 165.141M311.282 173.181L299.103 166.15L293.843 163.183M322.021 172.158L306.475 163.183M309.075 179.632L293.529 170.657M293.843 163.183C294.491 162.809 294.491 162.208 293.843 161.834C293.195 161.461 292.156 161.461 291.508 161.834C290.86 162.208 290.869 162.814 291.508 163.183C292.156 163.557 293.195 163.557 293.843 163.183ZM302.018 194.256L301.788 190.708C301.788 190.708 301.592 189.621 299.743 189.035C297.902 188.445 290.01 186.378 290.01 186.378C290.01 186.378 288.237 186.142 286.413 186.969C284.589 187.795 282.041 189.641 282.041 189.641L282.042 189.863V256.42L282.041 256.869C282.041 256.869 284.589 255.023 286.413 254.197C288.237 253.37 290.01 253.606 290.01 253.606C290.01 253.606 297.902 255.673 299.743 256.263C301.592 256.849 301.788 257.936 301.788 257.936L302.018 261.484L302.01 262.661V195.66L302.018 194.256ZM332.316 189.714L327.961 187.2C327.961 187.2 326.546 186.462 324.518 186.767C322.49 187.072 314.257 188.617 314.257 188.617C314.257 188.617 312.68 189.134 312.279 190.457C311.879 191.781 312.211 194.138 312.211 194.138L312.19 194.3V261.189L312.211 262.408C312.211 262.408 311.879 259.009 312.279 257.685C312.68 256.362 314.257 255.845 314.257 255.845C314.257 255.845 322.49 254.3 324.518 253.995C326.546 253.69 327.961 254.428 327.961 254.428L331.835 256.565L332.316 256.325V190.418V189.714ZM316.779 164.92C316.14 164.551 316.132 163.945 316.779 163.571C317.427 163.197 318.467 163.197 319.115 163.571C319.762 163.945 319.762 164.546 319.115 164.92C318.467 165.294 317.427 165.294 316.779 164.92ZM294.578 177.738C293.939 177.369 293.93 176.763 294.578 176.389C295.226 176.016 296.265 176.016 296.913 176.389C297.561 176.763 297.561 177.364 296.913 177.738C296.265 178.112 295.226 178.112 294.578 177.738ZM311.043 174.431C310.404 174.062 310.396 173.457 311.043 173.083C311.691 172.709 312.731 172.709 313.379 173.083C314.026 173.457 314.026 174.057 313.379 174.431C312.731 174.805 311.691 174.805 311.043 174.431ZM291.245 170.687C290.606 170.317 290.598 169.712 291.245 169.338C291.893 168.964 292.933 168.964 293.581 169.338C294.228 169.712 294.228 170.313 293.581 170.687C292.933 171.06 291.893 171.06 291.245 170.687ZM304.2 163.207C303.561 162.838 303.552 162.233 304.2 161.859C304.848 161.485 305.887 161.485 306.535 161.859C307.183 162.233 307.183 162.833 306.535 163.207C305.887 163.581 304.848 163.581 304.2 163.207Z" stroke="#6A1DC3" stroke-miterlimit="10"/>
<line x1="516.9" y1="184.094" x2="516.9" y2="203.42" stroke="#FF4438" stroke-opacity="0.3"/>
<path d="M517.324 261.436L467.088 232.437L517.298 203.424L567.534 232.432L517.324 261.436Z" fill="white" stroke="#FF4438" stroke-opacity="0.3"/>
<line x1="516.9" y1="164.768" x2="516.9" y2="184.094" stroke="#FF4438" stroke-opacity="0.3"/>
<path d="M465.887 231.722L517.324 261.437L568.768 231.699" stroke="#FF4438"/>
<path d="M517.324 242.1L467.088 213.101L517.298 184.088L567.534 213.096L517.324 242.1Z" fill="white" stroke="#FF4438" stroke-opacity="0.3"/>
<path d="M466.287 212.689L517.324 242.104L568.481 212.58" stroke="#FF4438"/>
<path d="M517.324 222.764L467.088 193.765L517.298 164.752L567.534 193.76L517.324 222.764Z" fill="white" stroke="white" stroke-opacity="0.3"/>
<line x1="516.9" y1="222.766" x2="516.9" y2="261.429" stroke="#FF4438"/>
<path d="M517.324 203.428L467.088 174.429L517.298 145.416L567.534 174.424L517.324 203.428Z" fill="white" stroke="#173369"/>
<path d="M466.303 193.727L466.303 232.426" stroke="#FF4438"/>
<line x1="568.033" y1="193.727" x2="568.033" y2="232.4" stroke="#FF4438"/>
<line x1="516.9" y1="203.592" x2="516.9" y2="222.918" stroke="#173369"/>
<line x1="516.9" y1="145.441" x2="516.9" y2="164.768" stroke="white" stroke-opacity="0.3"/>
<line x1="465.982" y1="174.432" x2="465.982" y2="193.758" stroke="#173369"/>
<line x1="568.033" y1="174.432" x2="568.033" y2="193.758" stroke="#173369"/>
<path d="M465.863 193.146L517.321 222.733L568.763 193.072" stroke="#173369"/>
<path d="M277.73 241.719V251.437" stroke="#6A1DC3"/>
<path d="M279.777 180.341L277.22 183.408L277.731 242.229H271.082V169.087C273.128 168.576 277.731 168.576 277.731 170.11C277.731 173.727 279.266 175.738 280.289 177.784C281.043 179.293 279.948 180.17 279.777 180.341Z" stroke="#6A1DC3"/>
</svg>
