<svg width="103" height="100" viewBox="0 0 103 100" fill="none" xmlns="http://www.w3.org/2000/svg">
<path d="M98.4099 99.9844H5.67188V26.2988H37.7133L43.7256 30.8889H98.4099V99.9844Z" fill="#664611"/>
<path d="M26.0261 89.427L79.6309 70.0957L54.4921 -0.00053076L0.887357 19.3307L26.0261 89.427Z" fill="#AD353D"/>
<path d="M39.4215 14.2856L21.7578 51.8838L22.26 53.2795L40.8277 13.7676L39.4215 14.2856Z" fill="#FCB7BC"/>
<path d="M44.7017 12.3728L23.666 57.1798L24.1682 58.5899L46.1079 11.8691L44.7017 12.3728Z" fill="#FCB7BC"/>
<path d="M28.8604 18.0856L17.9551 41.2805L18.4716 42.6907L30.2666 17.582L28.8604 18.0856Z" fill="#FCB7BC"/>
<path d="M34.1406 16.1872L19.8633 46.5765L20.3655 47.9867L35.5468 15.6836L34.1406 16.1872Z" fill="#FCB7BC"/>
<path d="M18.2852 21.8981L14.167 30.6898L14.6692 32.0999L19.6914 21.3945L18.2852 21.8981Z" fill="#FCB7BC"/>
<path d="M23.5804 20.0004L16.0615 35.9865L16.5637 37.3966L24.9723 19.4824L23.5804 20.0004Z" fill="#FCB7BC"/>
<path d="M13.0049 23.7985L12.2588 25.3957L12.761 26.8058L14.4111 23.2949L13.0049 23.7985Z" fill="#FCB7BC"/>
<path d="M60.9738 43.1367L54.2441 57.4537L55.6503 56.9501L61.4761 44.5468L60.9738 43.1367Z" fill="#FCB7BC"/>
<path d="M63.3843 49.8418L62.8677 48.4316L59.5244 55.5541L60.9306 55.0505L63.3843 49.8418Z" fill="#FCB7BC"/>
<path d="M57.1707 32.5332L43.6826 61.2678L45.0888 60.7642L57.673 33.9433L57.1707 32.5332Z" fill="#FCB7BC"/>
<path d="M59.08 37.8418L48.9639 59.3676L50.3701 58.8496L59.5822 39.2375L59.08 37.8418Z" fill="#FCB7BC"/>
<path d="M53.3836 21.9414L33.1084 65.0793L34.5146 64.5613L53.8858 23.3515L53.3836 21.9414Z" fill="#FCB7BC"/>
<path d="M55.2768 27.2363L38.4023 63.1654L39.7942 62.6618L55.7791 28.6464L55.2768 27.2363Z" fill="#FCB7BC"/>
<path d="M49.5809 11.3516L25.5605 62.4753L26.0628 63.8854L50.0831 12.7617L49.5809 11.3516Z" fill="#FCB7BC"/>
<path d="M51.4754 16.6465L27.8281 66.9788L29.2343 66.4752L51.9776 18.0566L51.4754 16.6465Z" fill="#FCB7BC"/>
<path d="M43.4814 35.1787C43.4814 38.8047 44.2132 42.2724 45.5477 45.4235C44.7729 42.9487 44.3567 40.3011 44.3567 37.5672C44.3567 27.0489 50.5412 17.9983 59.4376 13.7968L58.5767 11.4082C49.6659 15.6098 43.4814 24.6604 43.4814 35.193V35.1787Z" fill="#061457"/>
<path d="M70.5732 63.8544C85.0517 63.8544 96.7889 52.0846 96.7889 37.5659C96.7889 23.0471 85.0517 11.2773 70.5732 11.2773C56.0946 11.2773 44.3574 23.0471 44.3574 37.5659C44.3574 52.0846 56.0946 63.8544 70.5732 63.8544Z" fill="#20575A"/>
<path d="M5.21262 99.9861H98.8689C99.6438 99.9861 100.275 99.3674 100.304 98.5904L102.112 34.5742H69.2381L63.2259 40.6032H1.96973L3.77771 98.6048C3.80641 99.3818 4.43777 100.001 5.21262 100.001V99.9861Z" fill="#B37A1E"/>
<path d="M51.3164 47.7246H9.84766V62.7898H51.3164V47.7246Z" fill="#C1CBD9"/>
<path d="M51.3164 47.7241L8.95801 46.832L9.84765 62.7893V47.7241H51.3164Z" fill="#292F47"/>
<path d="M19.4476 55.9849H18.931C18.7444 55.9849 18.5723 55.9849 18.4001 55.9417C18.2996 55.9273 18.2566 55.8842 18.2566 55.7978C18.2566 55.6971 18.3283 55.6396 18.4575 55.6396C18.5149 55.6396 18.5579 55.6396 18.601 55.6396C18.644 55.6396 18.7014 55.6396 18.7444 55.6396C18.8736 55.6396 19.0027 55.6396 19.1319 55.6539C19.261 55.6539 19.3902 55.6539 19.5049 55.6539C19.9498 55.6539 20.4089 55.6252 20.9112 55.5532C21.4134 55.4957 21.8869 55.3806 22.3604 55.2367C22.8339 55.0928 23.2501 54.8769 23.6088 54.6036C23.9675 54.3302 24.2401 53.9992 24.4123 53.5963C24.4554 53.4956 24.4841 53.3805 24.5128 53.2654C24.5415 53.1503 24.5558 53.0352 24.5558 52.9201C24.5558 52.5747 24.4554 52.2726 24.2545 52.0423C24.0536 51.8121 23.7953 51.6251 23.4796 51.4812C23.164 51.3373 22.8196 51.2366 22.4609 51.179C22.1021 51.1214 21.7578 51.0927 21.4277 51.0927H21.2412C20.8538 51.1071 20.4233 51.1358 19.9785 51.179C19.5193 51.2222 19.0745 51.3085 18.6297 51.4092C18.1848 51.5099 17.7687 51.6682 17.3813 51.8553C16.9939 52.0423 16.6782 52.2869 16.4342 52.5891C16.3195 52.7186 16.2334 52.8625 16.1616 53.0208C16.0899 53.1791 16.0612 53.3373 16.0612 53.4956C16.0612 53.5532 16.0612 53.5963 16.0899 53.6395C16.1042 53.6827 16.1186 53.7402 16.1186 53.7834C16.1186 53.8266 16.1042 53.8553 16.0612 53.8841C16.0325 53.9129 15.9894 53.9273 15.932 53.9273C15.8316 53.9273 15.7598 53.8697 15.7455 53.769C15.7311 53.6683 15.7168 53.5819 15.7168 53.5244C15.7168 53.3373 15.7598 53.1503 15.8316 52.9776C15.9033 52.8049 16.0038 52.6323 16.1186 52.4884C16.3769 52.1431 16.7212 51.8553 17.123 51.6394C17.5248 51.4236 17.9696 51.2509 18.4431 51.1214C18.9166 51.0063 19.4045 50.9056 19.8924 50.8624C20.3802 50.8049 20.8394 50.7761 21.2842 50.7617H21.4708C21.8438 50.7617 22.2456 50.7905 22.6474 50.8624C23.0492 50.9344 23.4366 51.0495 23.781 51.2222C24.1397 51.3804 24.4267 51.6107 24.6419 51.8697C24.8571 52.1431 24.9719 52.474 24.9719 52.8769C24.9719 53.1503 24.9145 53.4093 24.8141 53.6539C24.6276 54.0999 24.3406 54.4597 23.9532 54.7618C23.5657 55.0496 23.1209 55.2798 22.6043 55.4525C22.1021 55.6252 21.5712 55.7403 21.0403 55.8122C20.495 55.8842 19.9928 55.9129 19.5193 55.9129L19.4476 55.9849ZM17.2234 58.69C17.0943 58.69 16.9795 58.6324 16.9078 58.5029C16.836 58.3734 16.7643 58.2439 16.7356 58.0857C16.6925 57.9274 16.6782 57.8123 16.6782 57.7403C16.6782 57.6828 16.6782 57.6252 16.6925 57.5677C16.6925 57.5101 16.7212 57.4526 16.7356 57.395C16.9078 56.8051 17.1517 56.2151 17.4674 55.6252C17.7831 55.0352 18.1274 54.4597 18.5149 53.8985C18.9023 53.3373 19.3041 52.8193 19.7345 52.3445C19.8063 52.2582 19.8924 52.1718 19.9785 52.0855C20.0646 51.9992 20.1507 51.9128 20.2224 51.8409C20.2798 51.7833 20.3515 51.7258 20.4376 51.6682C20.5094 51.6107 20.5668 51.5531 20.6098 51.4812C20.6242 51.4524 20.6529 51.4236 20.6672 51.3948C20.6816 51.3661 20.7246 51.3661 20.7677 51.3661C20.8107 51.3661 20.8538 51.3661 20.8825 51.4092C20.9112 51.438 20.9399 51.4668 20.9399 51.5099C20.9399 51.5387 20.9399 51.5531 20.9399 51.5675C20.9399 51.5963 20.8968 51.6394 20.8107 51.7114C20.739 51.7833 20.6529 51.8553 20.5668 51.9272C20.4807 51.9992 20.4233 52.0567 20.3946 52.0855C20.3228 52.1431 20.2511 52.215 20.1794 52.2869C20.1076 52.3589 20.0502 52.4308 19.9928 52.5028C19.5767 52.9776 19.1893 53.4812 18.8018 54.028C18.4144 54.5748 18.0844 55.1359 17.7831 55.7259C17.4817 56.3014 17.2521 56.8914 17.0656 57.4813C17.0369 57.5964 17.0082 57.7116 17.0082 57.8123C17.0082 58.0137 17.0369 58.1432 17.1087 58.2296C17.1804 58.3015 17.2378 58.3591 17.3095 58.3734C17.3669 58.4022 17.41 58.4454 17.41 58.5029C17.41 58.5461 17.3956 58.5893 17.3669 58.6181C17.3382 58.6468 17.2952 58.6756 17.2378 58.6756L17.2234 58.69Z" fill="#01112A"/>
<path d="M24.7277 58.1433C24.4837 58.1433 24.2972 58.0714 24.1537 57.9419C24.0102 57.8124 23.9385 57.611 23.9385 57.3807C23.9385 57.2368 23.9385 57.093 23.9815 56.9635C24.0102 56.8196 24.0533 56.6901 24.0963 56.5462C24.125 56.4742 24.1824 56.3303 24.2685 56.1577C24.3546 55.9706 24.455 55.7836 24.5842 55.5821C24.699 55.3807 24.8281 55.208 24.9429 55.0641C25.0577 54.9202 25.1581 54.8483 25.2442 54.8483C25.2873 54.8483 25.3303 54.8483 25.3877 54.8915C25.4451 54.9202 25.4738 54.949 25.4738 55.0066C25.4738 55.0353 25.4738 55.0641 25.4308 55.1073C25.2729 55.2943 25.1008 55.5102 24.9142 55.7692C24.742 56.0282 24.5842 56.2872 24.4694 56.5749C24.3546 56.8627 24.2829 57.1217 24.2829 57.3807C24.2829 57.7117 24.4407 57.87 24.7564 57.87C24.9716 57.87 25.1868 57.7692 25.4021 57.5534C25.6173 57.352 25.8613 57.0642 26.1195 56.7188C26.1913 56.6181 26.263 56.5174 26.3204 56.4311C26.3778 56.3447 26.4352 56.2584 26.4926 56.1864C26.55 56.1433 26.5931 56.1145 26.6505 56.1145C26.7365 56.1145 26.7796 56.1433 26.7796 56.2152C26.7796 56.2872 26.7222 56.4167 26.6074 56.5893C26.4926 56.762 26.3635 56.9347 26.22 57.1217C25.9473 57.4671 25.7034 57.7261 25.4882 57.8987C25.2873 58.0714 25.0147 58.1721 24.7133 58.1721L24.7277 58.1433ZM25.9186 53.7691C25.9186 53.7691 25.8469 53.7691 25.8039 53.7403C25.7608 53.7403 25.7465 53.6972 25.7465 53.6396C25.7465 53.6108 25.7465 53.5677 25.7752 53.5389C25.8326 53.4382 25.933 53.3374 26.0908 53.2655C26.2487 53.1936 26.3635 53.1504 26.4352 53.1504C26.4783 53.1504 26.507 53.1504 26.55 53.1792C26.5931 53.1936 26.6074 53.2367 26.6074 53.2799C26.6074 53.395 26.5357 53.5101 26.3922 53.6108C26.2487 53.7116 26.0908 53.7547 25.9186 53.7547V53.7691Z" fill="#01112A"/>
<path d="M24.4558 61.7852C24.3266 61.7852 24.2262 61.742 24.1545 61.6701C24.0971 61.5981 24.0684 61.4974 24.0684 61.3823C24.0684 61.2384 24.0971 61.0802 24.1545 60.9075C24.2118 60.7348 24.2836 60.5621 24.3697 60.3751C24.4558 60.2024 24.5275 60.0441 24.6136 59.9003C24.6997 59.7564 24.7428 59.67 24.7858 59.5981C24.958 59.2959 25.1445 58.9938 25.3454 58.706C25.5463 58.4182 25.7615 58.1304 25.9768 57.8426C26.1777 57.5836 26.3929 57.3103 26.6081 57.0513C26.8234 56.7923 27.0386 56.5333 27.2825 56.303C27.2969 56.1735 27.3112 56.044 27.3256 55.9145C27.3399 55.785 27.3256 55.6411 27.3256 55.5116V55.2814C27.3256 55.2814 27.3256 55.1375 27.3256 55.08C27.3256 55.0224 27.3112 54.9649 27.2825 54.9073C27.2539 54.8498 27.2395 54.7922 27.2252 54.749C27.2252 54.7346 27.2252 54.7203 27.2252 54.7059C27.2252 54.6915 27.2252 54.6771 27.2252 54.6771C27.2252 54.6339 27.2682 54.6051 27.3543 54.5764C27.4404 54.5476 27.5121 54.5332 27.5552 54.5332C27.67 54.5332 27.7417 54.5908 27.7561 54.7203C27.7848 54.8498 27.7848 54.9505 27.7848 55.0224C27.7848 55.1663 27.7848 55.3246 27.7561 55.4685C27.7417 55.6124 27.7274 55.7563 27.713 55.9001C27.7848 55.8282 27.8996 55.7275 28.043 55.598C28.1865 55.4685 28.33 55.3534 28.4879 55.2239C28.6457 55.0944 28.8035 54.9936 28.9614 54.9073C29.1192 54.821 29.2627 54.7778 29.3919 54.7778C29.5927 54.7778 29.7506 54.8498 29.8654 54.9936C29.9802 55.1375 30.0519 55.3102 30.095 55.4973C30.138 55.6843 30.1524 55.8426 30.138 55.9721C30.1954 55.9721 30.3245 55.9433 30.5111 55.9289C30.6976 55.9289 30.8411 55.9145 30.9559 55.9145C31.042 55.9145 31.1137 55.9145 31.1281 55.9577C31.1424 56.0009 31.1711 56.0153 31.1711 56.044C31.1711 56.0728 31.1711 56.0872 31.1424 56.116C31.1137 56.1448 31.0851 56.1591 31.0277 56.1735C30.9416 56.1735 30.8411 56.1879 30.712 56.2167C30.5828 56.2311 30.468 56.2455 30.3532 56.2743C30.2385 56.2886 30.1524 56.3174 30.095 56.3318C30.0376 56.5764 29.9228 56.821 29.7506 57.08C29.5784 57.339 29.3632 57.5693 29.1192 57.7851C28.8753 58.0009 28.6027 58.1736 28.3013 58.3031C28.0144 58.4326 27.713 58.5045 27.4117 58.5045C27.3256 58.5045 27.2395 58.5045 27.1391 58.4758L27.0817 58.634C26.9669 58.8786 26.8377 59.1664 26.6655 59.5118C26.4933 59.8571 26.2925 60.1736 26.0629 60.5046C26.0055 60.5909 25.905 60.706 25.7902 60.8499C25.6755 60.9938 25.5463 61.1377 25.4028 61.296C25.2593 61.4543 25.1015 61.5694 24.9437 61.6701C24.7858 61.7708 24.628 61.8284 24.4701 61.8284L24.4558 61.7852ZM24.5562 61.4255C24.6567 61.4255 24.7715 61.3679 24.9006 61.2528C25.0297 61.1377 25.1732 61.0082 25.3024 60.8499C25.4315 60.6916 25.5607 60.5478 25.6755 60.4039C25.7902 60.26 25.862 60.1593 25.905 60.0873C26.1203 59.7564 26.3212 59.411 26.479 59.0657C26.6368 58.7204 26.7516 58.4326 26.809 58.2168C26.7947 58.188 26.7803 58.1448 26.766 58.1016C26.766 58.0585 26.766 58.0153 26.766 57.9721C26.766 57.8426 26.7947 57.7131 26.8664 57.598C26.9238 57.4829 27.0099 57.3678 27.1104 57.2815C27.1104 57.2383 27.1391 57.1808 27.1534 57.1232C27.1534 57.0656 27.1821 57.0081 27.1821 56.9505C26.9812 57.1808 26.809 57.3678 26.6799 57.5405C26.5364 57.6988 26.4073 57.8714 26.2925 58.0153C26.0772 58.3031 25.862 58.5909 25.6611 58.8786C25.4602 59.1664 25.2737 59.4686 25.1015 59.7851C25.0584 59.8427 25.0154 59.9434 24.9437 60.0729C24.8719 60.2024 24.8002 60.3463 24.7284 60.4902C24.6567 60.6341 24.5849 60.7924 24.5419 60.9219C24.4845 61.0658 24.4701 61.1665 24.4701 61.2528C24.4701 61.3391 24.5132 61.3967 24.5849 61.3967L24.5562 61.4255ZM27.4978 58.1736C27.7848 58.1736 28.0574 58.0873 28.33 57.929C28.6027 57.7707 28.8466 57.5693 29.0618 57.339C29.2771 57.1088 29.4349 56.893 29.5497 56.6915C29.5784 56.634 29.6071 56.5764 29.6214 56.5189C29.6501 56.4613 29.6645 56.4038 29.6932 56.3606C29.2484 56.4757 28.8322 56.6196 28.4735 56.7779C28.1004 56.9505 27.7561 57.1664 27.3973 57.4398C27.3686 57.5549 27.3399 57.67 27.3112 57.7707C27.2825 57.8858 27.2539 58.0009 27.2252 58.1016C27.2825 58.1304 27.3686 58.1448 27.4834 58.1448L27.4978 58.1736ZM27.5408 56.9649C27.8852 56.7347 28.2439 56.5333 28.6027 56.3894C28.9614 56.2455 29.3632 56.116 29.7793 56.0296C29.7936 55.9145 29.808 55.785 29.808 55.6699C29.808 55.598 29.808 55.5116 29.7793 55.4253C29.7649 55.3246 29.7219 55.2383 29.6788 55.1663C29.6358 55.0944 29.5497 55.0512 29.4349 55.0512C29.3201 55.0512 29.1766 55.1088 29.0044 55.2239C28.8322 55.339 28.6457 55.4829 28.4592 55.6411C28.2726 55.7994 28.1004 55.9577 27.9426 56.116C27.7848 56.2743 27.67 56.375 27.6126 56.4469L27.5408 56.9649Z" fill="#01112A"/>
<path d="M31.7881 58.1426C31.5012 58.1426 31.3146 58.0562 31.1998 57.8836C31.0994 57.7109 31.042 57.5095 31.042 57.2648C31.042 56.9915 31.085 56.6893 31.1711 56.3296C31.2572 55.9842 31.372 55.6101 31.5299 55.236C31.6734 54.8619 31.8455 54.4878 32.0321 54.1281C32.2186 53.7683 32.4052 53.4374 32.5917 53.1352C32.7782 52.8331 32.9648 52.5885 33.137 52.4014C33.2804 52.2431 33.4383 52.1136 33.5674 52.0273C33.6966 51.941 33.8544 51.869 34.0122 51.8115C34.1127 51.7683 34.2275 51.7539 34.3279 51.7539C34.4714 51.7539 34.5862 51.7827 34.701 51.8546C34.8014 51.9266 34.8588 52.0417 34.8588 52.2144C34.8588 52.387 34.8014 52.5453 34.6867 52.7611C34.5719 52.9626 34.4284 53.164 34.2562 53.3798C34.084 53.5813 33.9118 53.7827 33.7396 53.9554C33.5674 54.1281 33.4096 54.2864 33.2661 54.4015C32.9648 54.6461 32.6778 54.8907 32.4052 55.1065C32.1325 55.3223 31.9029 55.5382 31.7164 55.7684C31.616 56.0418 31.5442 56.3152 31.4868 56.5742C31.4294 56.8332 31.4007 57.0634 31.4007 57.2792C31.4007 57.4663 31.4294 57.6246 31.5012 57.7397C31.5729 57.8548 31.6877 57.9267 31.8599 57.9267C32.0321 57.9267 32.1899 57.8692 32.3478 57.7541C32.5056 57.639 32.6491 57.5095 32.8069 57.3368C32.9504 57.1641 33.0796 56.9915 33.2087 56.8188C33.2948 56.7037 33.3809 56.5742 33.4526 56.4591C33.5387 56.344 33.5961 56.2432 33.6535 56.1713C33.6822 56.1281 33.7253 56.0994 33.797 56.0994C33.8688 56.0994 33.9118 56.1425 33.9118 56.2145C33.9118 56.2576 33.8975 56.3296 33.8544 56.4015C33.7683 56.5454 33.6535 56.7181 33.5244 56.9195C33.3952 57.121 33.2374 57.308 33.0652 57.5095C32.893 57.6965 32.7065 57.8692 32.4912 57.9843C32.276 58.1138 32.0608 58.1714 31.8168 58.1714L31.7881 58.1426ZM33.3952 52.6172C33.2374 52.7899 33.0796 53.0057 32.893 53.2791C32.7208 53.5525 32.5486 53.8547 32.3765 54.1712C32.2043 54.5022 32.0464 54.8331 31.9029 55.1641C32.1325 54.9626 32.3334 54.7756 32.5199 54.6317C32.7065 54.4878 32.893 54.3295 33.0796 54.1712C33.2374 54.0274 33.4239 53.8547 33.6105 53.6388C33.797 53.423 33.9692 53.2072 34.1414 52.977C34.3136 52.7467 34.414 52.5309 34.4858 52.3439C34.5001 52.2719 34.5145 52.2 34.5145 52.1568C34.5145 52.0417 34.4571 51.9841 34.3423 51.9841C34.3136 51.9841 34.2849 51.9841 34.2562 51.9841C34.2275 51.9841 34.1844 51.9985 34.1557 52.0129C34.0266 52.0561 33.8975 52.128 33.7827 52.2287C33.6535 52.3151 33.5387 52.4446 33.4096 52.5885L33.3952 52.6172Z" fill="#01112A"/>
<path d="M34.0558 58.1433C33.8119 58.1433 33.6253 58.0714 33.4818 57.9419C33.3383 57.8124 33.2666 57.611 33.2666 57.3807C33.2666 57.2368 33.2666 57.093 33.3096 56.9635C33.3383 56.8196 33.3814 56.6901 33.4244 56.5462C33.4531 56.4742 33.5105 56.3303 33.5966 56.1577C33.6827 55.9706 33.7832 55.7836 33.9123 55.5821C34.0271 55.3807 34.1562 55.208 34.271 55.0641C34.3858 54.9202 34.4863 54.8483 34.5724 54.8483C34.6154 54.8483 34.6585 54.8483 34.7159 54.8915C34.7733 54.9202 34.802 54.949 34.802 55.0066C34.802 55.0353 34.8019 55.0641 34.7589 55.1073C34.6011 55.2943 34.4289 55.5102 34.2423 55.7692C34.0701 56.0282 33.9123 56.2872 33.7975 56.5749C33.6827 56.8627 33.611 57.1217 33.611 57.3807C33.611 57.7117 33.7688 57.87 34.0845 57.87C34.2997 57.87 34.515 57.7692 34.7302 57.5534C34.9454 57.352 35.1894 57.0642 35.4477 56.7188C35.5194 56.6181 35.5912 56.5174 35.6485 56.4311C35.7059 56.3447 35.7633 56.2584 35.8207 56.1864C35.8781 56.1433 35.9212 56.1145 35.9786 56.1145C36.0647 56.1145 36.1077 56.1433 36.1077 56.2152C36.1077 56.2872 36.0503 56.4167 35.9355 56.5893C35.8207 56.762 35.6916 56.9347 35.5481 57.1217C35.2755 57.4671 35.0315 57.7261 34.8163 57.8987C34.6154 58.0714 34.3428 58.1721 34.0415 58.1721L34.0558 58.1433ZM35.2468 53.7691C35.2468 53.7691 35.175 53.7691 35.132 53.7403C35.0889 53.7403 35.0746 53.6972 35.0746 53.6396C35.0746 53.6108 35.0746 53.5677 35.1033 53.5389C35.1607 53.4382 35.2611 53.3374 35.419 53.2655C35.5768 53.1936 35.6916 53.1504 35.7633 53.1504C35.8064 53.1504 35.8351 53.1504 35.8781 53.1792C35.9212 53.1936 35.9355 53.2367 35.9355 53.2799C35.9355 53.395 35.8638 53.5101 35.7203 53.6108C35.5768 53.7116 35.419 53.7547 35.2468 53.7547V53.7691Z" fill="#01112A"/>
<path d="M36.4083 58.1592C36.4083 58.1592 36.3366 58.1592 36.2935 58.1304C36.2505 58.116 36.2361 58.0873 36.2361 58.0441C36.2361 57.9865 36.2361 57.9434 36.2648 57.9002C36.3366 57.7275 36.437 57.5117 36.5661 57.2671C36.6953 57.0225 36.8101 56.7635 36.9392 56.4901C37.0684 56.2167 37.1688 55.9721 37.2549 55.7419C37.341 55.5116 37.384 55.3246 37.384 55.1807C37.384 55.1375 37.384 55.0944 37.3553 55.0512C37.341 55.008 37.298 54.9936 37.2406 54.9936C37.1545 54.9936 37.0684 55.0224 36.9966 55.0944C36.9105 55.1663 36.8388 55.2526 36.7814 55.339C36.724 55.4253 36.6666 55.4973 36.6235 55.5548C36.4801 55.7419 36.3653 55.9289 36.2648 56.0872C36.1644 56.2455 36.0639 56.4038 35.9635 56.562C35.863 56.7203 35.7339 56.8786 35.5904 57.0656C35.5761 57.0944 35.5474 57.1232 35.5187 57.1376C35.49 57.152 35.4613 57.1664 35.4182 57.1664C35.3752 57.1664 35.3321 57.1376 35.3034 57.1088C35.2747 57.0656 35.2604 57.0225 35.2891 56.9937C35.4469 56.7491 35.5904 56.5045 35.7483 56.2886C35.9061 56.0728 36.0352 55.8714 36.15 55.6987C36.2648 55.5404 36.3366 55.4253 36.3796 55.3678C36.4944 55.2095 36.6235 55.0656 36.7527 54.9217C36.8818 54.7778 37.0684 54.7059 37.2979 54.7059C37.4845 54.7059 37.628 54.7634 37.6997 54.8641C37.7715 54.9649 37.8145 55.0944 37.8145 55.2383C37.8145 55.4973 37.7141 55.8282 37.4988 56.2311C37.7571 55.9577 38.0441 55.6987 38.3454 55.4685C38.6468 55.2383 38.9337 55.0512 39.192 54.8929C39.4503 54.7346 39.6512 54.6483 39.7947 54.6051C39.8521 54.5764 39.9238 54.562 39.9956 54.5476C40.0673 54.5476 40.1247 54.5332 40.1821 54.5332C40.2539 54.5332 40.3113 54.5476 40.3543 54.5908C40.3973 54.6339 40.426 54.6915 40.426 54.7922C40.426 54.8929 40.3686 55.0368 40.2395 55.2095C40.1104 55.3821 39.9525 55.598 39.7803 55.8282C39.5938 56.0584 39.4216 56.2886 39.2638 56.5333C39.1059 56.7635 38.9768 56.9937 38.905 57.1951C38.8907 57.2383 38.8763 57.2959 38.862 57.339C38.8476 57.3822 38.862 57.4254 38.862 57.4685C38.862 57.6556 38.9481 57.7563 39.1346 57.7563C39.2494 57.7563 39.3929 57.6988 39.5651 57.5836C39.6655 57.5261 39.766 57.4398 39.8521 57.3678C39.9525 57.2815 40.0243 57.2095 40.0673 57.152C40.1678 57.0369 40.2539 56.9218 40.3256 56.8354C40.3973 56.7491 40.4547 56.6484 40.5265 56.5476C40.5982 56.4469 40.6843 56.3174 40.7848 56.1591C40.8135 56.1304 40.8278 56.1016 40.8422 56.0872C40.8565 56.0728 40.8996 56.0584 40.9426 56.0584C41.0144 56.0584 41.0574 56.1016 41.0574 56.2023C41.0574 56.2455 41.0287 56.3174 40.957 56.4181C40.8996 56.5189 40.8135 56.634 40.7274 56.7635C40.6413 56.893 40.5552 57.0081 40.4691 57.1088C40.383 57.2095 40.3256 57.2815 40.2969 57.3246C40.2252 57.411 40.1247 57.5117 40.0099 57.6124C39.8951 57.7131 39.766 57.7995 39.6512 57.8714C39.5364 57.929 39.4216 57.9865 39.2925 58.0153C39.1777 58.0441 39.0485 58.0585 38.9337 58.0585C38.7472 58.0585 38.6181 58.0009 38.532 57.9002C38.4459 57.7995 38.4028 57.6844 38.4028 57.5549C38.4028 57.3678 38.4602 57.152 38.5894 56.9218C38.7185 56.6771 38.862 56.4469 39.0342 56.2023C39.2064 55.9577 39.3786 55.7419 39.522 55.5548C39.6799 55.3678 39.7803 55.2239 39.8377 55.1375C39.8377 55.1231 39.8664 55.0944 39.8664 55.08C39.8664 55.0656 39.8664 55.0512 39.8664 55.0368C39.8664 54.9793 39.8234 54.9505 39.7373 54.9505C39.6942 54.9505 39.6512 54.9505 39.5938 54.9793C39.3068 55.0944 38.9911 55.2814 38.6755 55.5116C38.3598 55.7419 38.0728 56.0009 37.8002 56.2743C37.5275 56.5476 37.3266 56.8066 37.1688 57.0513L36.7383 57.7275C36.7383 57.7275 36.6666 57.8426 36.6379 57.9002C36.6092 57.9578 36.5805 58.0153 36.5374 58.0729C36.4944 58.1304 36.437 58.1592 36.3796 58.1592H36.4083Z" fill="#01112A"/>
<path d="M41.4881 58.2287C41.1151 58.2287 40.8568 58.1136 40.7133 57.8977C40.5698 57.6819 40.498 57.4229 40.498 57.1351C40.498 56.9193 40.5554 56.6603 40.6559 56.3725C40.7563 56.0703 40.9142 55.7826 41.1007 55.4948C41.2872 55.207 41.5025 54.9768 41.7608 54.7897C42.0047 54.6027 42.2773 54.502 42.5643 54.502C42.7509 54.502 42.8943 54.5595 43.0091 54.6602C43.1239 54.761 43.1813 54.8904 43.1813 55.0487C43.1813 55.3509 43.0809 55.6387 42.8943 55.9121C42.7078 56.1855 42.4495 56.4157 42.1482 56.6027C41.8469 56.7898 41.5168 56.8761 41.1725 56.8761C41.1294 56.8761 41.0864 56.8761 41.0433 56.8761C41.0003 56.8761 40.9572 56.8761 40.9142 56.8617C40.8855 56.9481 40.8855 57.0632 40.8855 57.1783C40.8855 57.3653 40.9285 57.538 41.0146 57.6963C41.1007 57.8546 41.2729 57.9265 41.5312 57.9265C41.7464 57.9265 41.9473 57.869 42.1482 57.7682C42.3491 57.6675 42.5069 57.538 42.6504 57.4085C42.7795 57.279 42.8943 57.1495 42.9948 57.0488C43.0809 56.9481 43.1813 56.8186 43.2818 56.6747C43.3822 56.5308 43.5114 56.3581 43.6548 56.1279C43.6835 56.0847 43.7266 56.056 43.784 56.056C43.8844 56.056 43.9275 56.1135 43.9275 56.2142C43.9275 56.243 43.9275 56.2718 43.9131 56.3006C43.7266 56.6315 43.5114 56.9481 43.2674 57.2358C43.0378 57.538 42.7652 57.7682 42.4782 57.9697C42.1912 58.1711 41.8612 58.2575 41.5025 58.2575L41.4881 58.2287ZM41.2155 56.5452C41.4881 56.5452 41.7464 56.4732 41.976 56.3293C42.2199 56.1855 42.4065 55.9984 42.5643 55.7826C42.7222 55.5667 42.7939 55.3365 42.7939 55.1063C42.7939 55.0343 42.7795 54.9624 42.7365 54.9192C42.6935 54.8761 42.6361 54.8473 42.5356 54.8473C42.3491 54.8473 42.1769 54.9048 42.0047 55.0343C41.8325 55.1638 41.6747 55.3221 41.5455 55.5092C41.402 55.6962 41.2873 55.8833 41.1868 56.0703C41.0864 56.2574 41.0146 56.4157 40.9716 56.5452C41.0146 56.5452 41.0433 56.5452 41.0864 56.5596C41.1294 56.574 41.1725 56.5596 41.2155 56.5596V56.5452Z" fill="#01112A"/>
<path d="M8.21191 39.7402L8.51324 40.5892H63.2262L64.0585 39.7402H8.21191Z" fill="#061457"/>
<path d="M5.67188 39.9707V40.5894H8.51299L8.2834 39.9707H5.67188Z" fill="#061457"/>
<path d="M96.502 33.9414C96.5307 34.1429 96.5737 34.3587 96.6024 34.5601H98.4104V33.9414H96.502Z" fill="#01112A"/>
<path d="M96.3726 33.1191H67.7893L61.7771 39.1481H56.6401V38.1409H55.9226V39.1481H44.0703C44.099 39.6229 44.1277 40.1121 44.1708 40.587H52.9093V46.5584C52.9093 47.5944 53.7416 48.4289 54.7747 48.4289C55.8078 48.4289 56.6401 47.5944 56.6401 46.5584V40.587H63.212L69.2242 34.558H96.5879C96.5305 34.0688 96.4444 33.594 96.3726 33.1191ZM55.9226 46.5584C55.9226 47.1915 55.4061 47.7095 54.7747 47.7095C54.1434 47.7095 53.6268 47.1915 53.6268 46.5584V40.587H55.9226V46.5584Z" fill="#061457"/>
<path d="M56.4251 34.7324C54.7463 34.7324 53.3975 36.0994 53.3975 37.7685V46.6752C53.3975 47.7112 54.2297 48.5458 55.2628 48.5458C56.296 48.5458 57.1282 47.7112 57.1282 46.6752V38.2577H56.4108V46.6752C56.4108 47.3083 55.8942 47.8263 55.2628 47.8263C54.6315 47.8263 54.1149 47.3083 54.1149 46.6752V37.7685C54.1149 36.4879 55.148 35.4519 56.4251 35.4519C57.7022 35.4519 58.7353 36.4879 58.7353 37.7685V40.5743H59.4528V37.7685C59.4528 36.085 58.0896 34.7324 56.4251 34.7324Z" fill="#FF7885"/>
</svg>
