<svg width="162" height="140" viewBox="0 0 162 140" fill="none" xmlns="http://www.w3.org/2000/svg">
<path d="M129.474 40.2129L132.29 45.3548L137.42 48.1776L132.29 50.987L129.474 56.129L126.672 50.987L121.542 48.1776L126.672 45.3548L129.474 40.2129Z" fill="#7CDCFE"/>
<path d="M129.619 0L130.78 2.10999L132.89 3.26304L130.78 4.42393L129.619 6.53392L128.466 4.42393L126.356 3.26304L128.466 2.10999L129.619 0Z" fill="#8BA2FF"/>
<path d="M102.282 15.4863L104.239 19.0645L107.795 21.0126L104.239 22.9607L102.282 26.5255L100.339 22.9607L96.7822 21.0126L100.339 19.0645L102.282 15.4863Z" fill="#FF6280"/>
<mask id="mask0_2267_116657" style="mask-type:luminance" maskUnits="userSpaceOnUse" x="141" y="11" width="21" height="20">
<path d="M151.525 27.2925L145.423 30.5002L146.59 23.7047L141.652 18.892L148.475 17.9017L151.525 11.7207L154.577 17.9017L161.397 18.892L156.462 23.7047L157.627 30.5002L151.525 27.2925Z" fill="white"/>
</mask>
<g mask="url(#mask0_2267_116657)">
<path d="M147.735 -14.5996L82.8096 67.3389" stroke="#FBBC46" stroke-miterlimit="10"/>
<path d="M150.7 -14.5996L85.7744 67.3389" stroke="#FBBC46" stroke-miterlimit="10"/>
<path d="M153.663 -14.5996L88.7373 67.3389" stroke="#FBBC46" stroke-miterlimit="10"/>
<path d="M156.626 -14.5996L91.7002 67.3389" stroke="#FBBC46" stroke-miterlimit="10"/>
<path d="M159.589 -14.5996L94.6631 67.3389" stroke="#FBBC46" stroke-miterlimit="10"/>
<path d="M162.552 -14.5996L97.626 67.3389" stroke="#FBBC46" stroke-miterlimit="10"/>
<path d="M165.517 -14.5996L100.591 67.3389" stroke="#FBBC46" stroke-miterlimit="10"/>
<path d="M171.442 -14.5996L106.516 67.3389" stroke="#FBBC46" stroke-miterlimit="10"/>
<path d="M168.479 -14.5996L103.553 67.3389" stroke="#FBBC46" stroke-miterlimit="10"/>
<path d="M174.404 -14.5996L109.479 67.3389" stroke="#FBBC46" stroke-miterlimit="10"/>
<path d="M177.367 -14.5996L112.441 67.3389" stroke="#FBBC46" stroke-miterlimit="10"/>
<path d="M180.332 -14.5996L115.406 67.3389" stroke="#FBBC46" stroke-miterlimit="10"/>
<path d="M183.295 -14.5996L118.369 67.3389" stroke="#FBBC46" stroke-miterlimit="10"/>
<path d="M186.258 -14.5996L121.332 67.3389" stroke="#FBBC46" stroke-miterlimit="10"/>
<path d="M189.221 -14.5996L124.295 67.3389" stroke="#FBBC46" stroke-miterlimit="10"/>
<path d="M189.221 -10.6934L124.295 71.2452" stroke="#FBBC46" stroke-miterlimit="10"/>
</g>
<g clip-path="url(#clip0_2267_116657)">
<path d="M42.4072 140.001C64.6911 140.001 82.7557 136.963 82.7557 133.215C82.7557 129.468 64.6911 126.43 42.4072 126.43C20.1233 126.43 2.05859 129.468 2.05859 133.215C2.05859 136.963 20.1233 140.001 42.4072 140.001Z" fill="#171717"/>
<path d="M26.8435 72.2771L25.4612 67.2695L24.4008 67.2805L23.1713 67.2933L21.889 72.3246L21.418 74.1757L25.1156 74.1392L27.3528 74.1173L26.8435 72.2771Z" fill="#4464AD"/>
<path d="M26.8434 72.2771L25.4611 67.2695L24.4008 67.2805L24.0225 67.2841V74.1502L25.1156 74.1392L27.3527 74.1173L26.8434 72.2771Z" fill="#212851"/>
<path d="M28.7374 75.6669C28.1972 74.3743 27.6389 73.6021 27.1769 73.6094C26.9713 73.6131 25.8892 73.6313 24.7451 73.6514C26.9204 73.991 28.3682 79.6448 28.3755 80.0391L30.1925 79.5462C30.1925 79.5462 29.2776 76.9612 28.7374 75.6687V75.6669Z" fill="#4464AD"/>
<path d="M24.2975 73.6582C23.0025 73.6801 21.7657 73.702 21.7657 73.702C21.7657 73.702 20.5017 72.9718 19.1357 79.4909L21.1765 80.1536C21.1765 80.1536 22.1513 74.0872 24.2994 73.6582H24.2975Z" fill="#778DC7"/>
<path d="M24.2977 73.6599C22.1497 74.0889 21.1748 80.1553 21.1748 80.1553L22.6535 80.1298C22.6535 80.1298 23.1755 77.4845 24.5814 77.4608L24.5178 73.6562C24.445 73.6562 24.3705 73.6581 24.2977 73.6599Z" fill="#212851"/>
<path d="M24.7431 73.6523C24.6685 73.6523 24.5921 73.6542 24.5176 73.656L24.5812 77.4605C25.9872 77.4368 26.4692 80.0729 26.4692 80.0729L28.3716 80.0401C28.3644 79.6457 26.9166 73.9919 24.7413 73.6523H24.7431Z" fill="#111729"/>
<path d="M19.3755 79.5703L6.93848 132.689L8.64089 133.584L21.1743 80.1545L19.3755 79.5703Z" fill="#778DC7"/>
<g style="mix-blend-mode:multiply">
<path d="M20.261 79.8574L7.66211 133.07L8.64063 133.584L21.1741 80.155L20.261 79.8574Z" fill="#4464AD"/>
</g>
<path d="M29.9027 79.625L28.373 80.0394L42.718 132.505L44.8588 132.178L29.9027 79.625Z" fill="#778DC7"/>
<g style="mix-blend-mode:multiply">
<path d="M29.9027 79.625L29.0479 79.8568L43.7548 132.346L44.8588 132.178L29.9027 79.625Z" fill="#4464AD"/>
</g>
<path d="M23.0643 78.8648C23.0643 78.8648 23.4135 79.533 23.4244 80.2614L25.7744 80.2212C25.7744 80.2212 25.8289 79.2117 26.0781 78.8137C26.0781 78.8137 25.5561 77.4427 24.5812 77.4591C23.6063 77.4756 23.0625 78.8648 23.0625 78.8648H23.0643Z" fill="#111729"/>
<path d="M25.6106 80.2266L23.8973 80.2558L23.5845 80.2612L23.5645 130.688L23.8846 130.682L25.8107 130.649L25.6106 80.2266Z" fill="#778DC7"/>
<path d="M24.5303 130.671L25.8107 130.649L25.6106 80.2266L24.5303 80.2448V130.671Z" fill="#4464AD"/>
<path d="M6.93884 132.086L9.05049 132.504C9.05049 132.504 8.95227 134.129 8.16291 134.412C7.37354 134.695 5.96396 134.251 6.93884 132.086Z" fill="#212851"/>
<path d="M45.0246 131.951L42.5801 132.504C42.5801 132.504 42.6783 134.129 43.4677 134.412C44.257 134.695 45.9976 134.116 45.0227 131.951H45.0246Z" fill="#212851"/>
<path d="M23.4517 129.77H26.038C26.038 129.77 26.3509 131.354 25.5233 131.783C24.6957 132.212 22.7587 131.79 23.4517 129.77Z" fill="#212851"/>
<path d="M9.69569 66.1698L1.42009 69.8246C1.42009 69.8246 0.277878 70.5475 0.954476 72.7455C1.63107 74.9435 3.17343 74.4123 3.73726 74.2991C4.3593 74.175 12.4039 71.7725 12.4039 71.7725L9.69751 66.168L9.69569 66.1698Z" fill="#2C4898"/>
<path d="M5.84324 70.3277C5.03205 70.6746 4.23177 71.047 3.41876 71.3902C3.01862 71.5582 2.44388 71.8119 2.00009 71.6385C1.32712 71.3738 1.09068 70.7786 1.10887 70.147C0.828769 70.5431 0.52139 71.3446 0.952449 72.7466C1.62905 74.9446 3.1714 74.4134 3.73523 74.3002C4.35727 74.1761 12.4019 71.7736 12.4019 71.7736L10.7158 68.2812C9.08982 68.9585 7.4638 69.6358 5.84324 70.3277Z" fill="#212851"/>
<path d="M71.1302 39.457L8.19014 65.9134C7.82274 66.0357 7.79546 67.8631 8.45933 69.8895C9.12319 71.9141 10.229 73.3691 10.5964 73.2486L76.8813 56.9863L71.8795 40.0485L71.1302 39.4589V39.457Z" fill="#FBBC46"/>
<path d="M72.6353 42.6074L8.00195 67.8954C8.06379 68.3682 8.16928 68.8958 8.3257 69.449L73.7266 46.3042L72.6353 42.6074Z" fill="#FED99C"/>
<path d="M62.7849 52.858C52.2376 56.3375 18.4113 67.4626 15.9341 68.1709C14.2262 68.6584 12.0291 69.3156 10.2667 68.673C9.04989 68.2294 8.37147 67.2892 8.03499 66.119C7.8331 66.6648 7.90767 68.2075 8.45877 69.8888C9.12264 71.9134 10.2285 73.3684 10.5959 73.2479L76.8807 56.9856L74.4762 48.8398C70.5803 50.1944 66.6935 51.5691 62.7849 52.858Z" fill="#FBBC46"/>
<path d="M72.601 58.0361L76.8807 56.9864L71.8789 40.0486L71.1296 39.459L67.5083 40.9815C66.0951 47.1739 68.7797 53.1563 72.601 58.0379V58.0361Z" fill="#F6A200"/>
<path d="M78.2358 35.9004L69.54 39.5552C68.4451 43.2958 69.4327 47.5494 70.7059 51.1111C71.548 53.4662 72.8667 56.2228 74.8619 58.0009L84.6944 55.5893L79.0761 36.5649" fill="#2C4898"/>
<path d="M78.236 35.9004L69.5402 39.5552C69.2601 40.5155 69.1183 41.5086 69.0801 42.5163C70.8371 41.923 72.594 41.3242 74.3583 40.7528C76.1607 40.1704 77.9977 39.6447 79.8184 39.0714L79.0781 36.5631" fill="#111729"/>
<path d="M71.2314 52.4725C72.0663 54.4697 73.2412 56.5599 74.8618 58.004L84.6943 55.5924L82.599 48.5C78.825 49.8747 75.0564 51.2694 71.2314 52.4743V52.4725Z" fill="#111729"/>
<path d="M78.2356 35.901C80.409 35.1835 83.6192 39.0081 85.4035 44.4429C87.1878 49.8794 86.8695 54.8706 84.696 55.588C82.5207 56.3073 79.3123 52.4809 77.5299 47.0461C75.7456 41.6096 76.0621 36.6202 78.2374 35.901" fill="#111729"/>
<path d="M78.7816 36.8904C78.4469 37.0018 78.1668 37.2391 77.9395 37.5841C79.6691 38.2213 81.7699 41.2444 83.0721 45.2151C84.3744 49.1857 84.4744 52.8697 83.4614 54.4142C83.847 54.5548 84.2144 54.5803 84.549 54.4708C86.3897 53.8629 86.5915 49.4322 85.0001 44.5779C83.4068 39.7255 80.6222 36.2825 78.7816 36.8922V36.8904Z" fill="#D1DDF3"/>
<path d="M83.0738 45.213C81.7697 41.2423 79.6708 38.2192 77.9411 37.582C76.9262 39.1265 77.0299 42.8105 78.3322 46.7811C79.6345 50.7518 81.7334 53.775 83.4631 54.4121C84.4761 52.8676 84.3761 49.1836 83.0738 45.213Z" fill="#212851"/>
<path d="M80.9347 41.7421C81.4294 42.8904 81.3294 44.0369 80.7128 44.3034C80.0963 44.5718 79.1959 43.858 78.7012 42.7115C78.2065 41.5651 78.3065 40.4168 78.9231 40.1502C79.5397 39.8819 80.44 40.5957 80.9347 41.744V41.7421Z" fill="white"/>
<path d="M82.4719 46.3657C82.6774 46.844 82.6374 47.3205 82.3792 47.4319C82.1227 47.5432 81.7462 47.2457 81.5407 46.7692C81.3352 46.2909 81.377 45.8144 81.6334 45.703C81.8899 45.5917 82.2646 45.8893 82.4701 46.3657H82.4719Z" fill="white"/>
<path d="M0.739792 64.9803C1.12356 66.1687 1.96931 65.6594 1.96931 65.6594L10.8415 62.2346L9.50102 59.4141L0.903485 63.6202C0.903485 63.6202 0.354203 63.7918 0.739792 64.9803Z" fill="#2C4898"/>
<path d="M8.6248 63.0908L10.8419 62.2346L9.50147 59.4141L7.66992 60.3104C7.69175 61.2762 8.03368 62.3277 8.6248 63.0908Z" fill="#2C4898"/>
<path d="M3.94238 69.4542L2.87109 64.2185L4.03513 63.9629L6.57056 68.4922L3.94238 69.4542Z" fill="#2C4898"/>
<path d="M4.80813 65.343L4.03513 63.9629L2.87109 64.2185L3.21485 65.8998C3.76959 65.8086 4.28431 65.5658 4.80631 65.343H4.80813Z" fill="#111729"/>
<path d="M3.77734 68.6437L3.94286 69.4543L6.57104 68.4922L6.06905 67.5977C5.32152 67.9865 4.55943 68.3881 3.77734 68.6455V68.6437Z" fill="#111729"/>
<path d="M1.74414 62.9833L2.87181 65.5756L4.72154 64.8673L3.65389 61.9336L1.74414 62.9833Z" fill="#212851"/>
<path d="M3.65325 63.9314C3.65325 64.1943 3.44045 64.4097 3.17672 64.4097C2.913 64.4097 2.7002 64.1961 2.7002 63.9314C2.7002 63.6667 2.913 63.4531 3.17672 63.4531C3.44045 63.4531 3.65325 63.6667 3.65325 63.9314Z" fill="#18191B"/>
<path d="M8.81861 61.5962C9.02778 62.0782 9.34061 62.6368 9.78258 62.9818L11.8087 62.3411L10.3719 58.4325L10.1864 58.3047L8.41484 59.1901C8.23659 59.9879 8.50214 60.866 8.81679 61.5944L8.81861 61.5962Z" fill="#778DC7"/>
<path d="M9.44258 59.3764C9.8118 59.2304 10.1901 59.0953 10.563 58.9492L10.3738 58.4344L10.1883 58.3066L8.41677 59.192C8.3713 59.3965 8.35493 59.6065 8.36038 59.8182C8.72051 59.6704 9.08063 59.5207 9.44258 59.3764Z" fill="#4464AD"/>
<path d="M8.94629 61.8724C9.14818 62.2795 9.42282 62.7012 9.78294 62.9824L11.8091 62.3416L11.2744 60.8848C10.5032 61.2243 9.73202 61.5694 8.94629 61.8742V61.8724Z" fill="#4464AD"/>
<path d="M11.8053 59.9964C12.2528 61.11 12.2546 62.1616 11.809 62.3405C11.3634 62.5212 10.6395 61.7636 10.1902 60.65C9.7428 59.5346 9.74098 58.4849 10.1866 58.3059C10.6322 58.1252 11.3561 58.8828 11.8053 59.9964Z" fill="#111729"/>
<path d="M10.3148 58.5059C10.2457 58.5333 10.1911 58.5862 10.1475 58.6629C10.5185 58.7724 11.0005 59.3767 11.3261 60.1909C11.6534 61.0051 11.7244 61.7755 11.5334 62.1132C11.6152 62.137 11.6935 62.1388 11.7626 62.1096C12.1391 61.9562 12.1227 61.027 11.7226 60.0303C11.3224 59.0353 10.6913 58.3525 10.3148 58.5059Z" fill="#96A5A8"/>
<path d="M11.3282 60.1901C11.0008 59.3759 10.5207 58.7716 10.1496 58.6621C9.95865 58.9998 10.0296 59.7702 10.357 60.5844C10.6844 61.3987 11.1663 62.0029 11.5356 62.1125C11.7265 61.7747 11.6556 61.0043 11.3282 60.1901Z" fill="#212851"/>
<path d="M10.8317 59.4923C10.9518 59.726 10.9463 59.967 10.8208 60.0327C10.6953 60.0966 10.4971 59.9597 10.377 59.726C10.2588 59.4923 10.2625 59.2513 10.3879 59.1856C10.5134 59.1217 10.7117 59.2586 10.8317 59.4923Z" fill="white"/>
<path d="M11.2177 60.4392C11.2668 60.5378 11.265 60.6382 11.2122 60.6638C11.1595 60.6912 11.0777 60.6346 11.0267 60.536C10.9776 60.4392 10.9794 60.3388 11.0322 60.3114C11.0849 60.2841 11.1668 60.3425 11.2177 60.4392Z" fill="white"/>
<path d="M26.3394 64.3539C25.741 62.5118 25.3391 60.2153 25.8502 58.2363L18.6368 61.2339C18.6313 61.2449 18.624 61.2558 18.6204 61.265C18.3221 61.9076 18.1439 62.583 18.1075 63.2932C18.0493 64.4214 18.162 65.5496 18.4767 66.634C18.9387 68.2241 19.6862 69.8215 20.8357 71.03L29.3696 68.9726C27.88 67.8955 26.8887 66.0352 26.3413 64.3502L26.3394 64.3539Z" fill="#111729"/>
<path d="M18.0913 63.9317C18.0077 64.2639 18.2987 65.3027 18.2805 65.6495C18.2714 65.823 18.275 65.7554 18.275 65.9289C20.1539 65.1585 25.3502 63.4625 26.0086 63.1923C26.0013 62.9385 25.6267 61.1349 25.6394 60.8848" fill="#9FB6E0"/>
<path d="M26.6322 65.1523C25.972 65.3495 20.7938 67.113 18.8477 67.7447C19.3096 68.9496 19.9517 70.107 20.8356 71.0344L29.3695 68.9769C28.1127 68.0678 27.2124 66.6 26.6322 65.1523Z" fill="#111729"/>
</g>
<defs>
<clipPath id="clip0_2267_116657">
<rect width="85.9535" height="104.186" fill="white" transform="translate(0.603516 35.8145)"/>
</clipPath>
</defs>
</svg>
