<svg width="624" height="320" viewBox="0 0 624 320" fill="none" xmlns="http://www.w3.org/2000/svg">
<path d="M296.145 148.952L297.679 152.021C297.679 152.362 298.395 152.942 301.259 152.533C304.84 152.021 309.443 152.021 310.466 152.021C311.284 152.021 312.853 148.952 313.535 147.418" stroke="#C795E3"/>
<path d="M320.695 148.953L320.184 152.533C320.184 152.874 320.286 153.659 320.695 154.068C321.104 154.477 325.298 156.284 327.344 157.137C328.197 157.137 330.413 156.625 332.459 154.579" stroke="#C795E3"/>
<path d="M274.662 161.74L279.265 162.251C279.777 162.421 281.004 162.558 281.823 161.74C282.641 160.921 286.426 158.159 286.938 157.648C287.449 157.136 287.96 154.579 284.38 152.021V159.667" stroke="#C795E3"/>
<path fill-rule="evenodd" clip-rule="evenodd" d="M62.1344 173.464C61.1722 166.822 65.0925 159.988 73.8954 154.906C89.7663 145.742 115.498 145.742 131.369 154.906C140.172 159.988 144.092 166.822 143.13 173.464H143.262V238.542C143.039 244.371 139.074 250.162 131.369 254.61C115.498 263.773 89.7663 263.773 73.8954 254.61C66.1902 250.162 62.2258 244.371 62.0022 238.542V173.464H62.1344Z" fill="#202020"/>
<path d="M62.1344 173.464V173.964L62.6292 173.392L62.1344 173.464ZM73.8954 154.906L74.1454 155.339L73.8954 154.906ZM131.369 154.906L131.119 155.339L131.119 155.339L131.369 154.906ZM143.13 173.464L142.635 173.392L143.13 173.964V173.464ZM143.262 173.464H143.762L143.262 172.964V173.464ZM143.262 238.542L143.762 238.561L143.762 238.542H143.262ZM131.369 254.61L131.119 254.177L131.119 254.177L131.369 254.61ZM73.8954 254.61L74.1454 254.177L74.1454 254.177L73.8954 254.61ZM62.0022 238.542H61.5022L61.5026 238.561L62.0022 238.542ZM62.0022 173.464V172.964L61.5022 173.464H62.0022ZM62.6292 173.392C61.7072 167.027 65.4437 160.362 74.1454 155.339L73.6454 154.472C64.7413 159.613 60.6372 166.616 61.6396 173.536L62.6292 173.392ZM74.1454 155.339C81.9869 150.811 92.296 148.533 102.632 148.533C112.968 148.533 123.277 150.811 131.119 155.339L131.619 154.472C123.59 149.837 113.097 147.533 102.632 147.533C92.167 147.533 81.6747 149.837 73.6454 154.472L74.1454 155.339ZM131.119 155.339C139.821 160.362 143.557 167.027 142.635 173.392L143.625 173.536C144.627 166.616 140.523 159.613 131.619 154.472L131.119 155.339ZM143.262 172.964H143.13V173.964H143.262V172.964ZM143.762 238.542V173.464H142.762V238.542H143.762ZM131.619 255.043C139.413 250.543 143.529 244.622 143.762 238.561L142.763 238.523C142.548 244.121 138.736 249.78 131.119 254.177L131.619 255.043ZM73.6454 255.043C81.6747 259.679 92.167 261.983 102.632 261.983C113.097 261.983 123.59 259.679 131.619 255.043L131.119 254.177C123.277 258.705 112.968 260.983 102.632 260.983C92.296 260.983 81.9869 258.705 74.1454 254.177L73.6454 255.043ZM61.5026 238.561C61.735 244.622 65.8516 250.543 73.6454 255.043L74.1454 254.177C66.5288 249.78 62.7166 244.121 62.5018 238.523L61.5026 238.561ZM61.5022 173.464V238.542H62.5022V173.464H61.5022ZM62.1344 172.964H62.0022V173.964H62.1344V172.964Z" fill="white"/>
<path d="M62.0009 194.196C62.2245 200.025 66.1888 205.816 73.894 210.264C89.7649 219.428 115.497 219.428 131.368 210.264C139.073 205.816 143.037 200.025 143.261 194.196" stroke="white"/>
<path d="M62.0009 216.214C62.2245 222.043 66.1888 227.833 73.894 232.282C89.7649 241.445 115.497 241.445 131.368 232.282C139.073 227.833 143.037 222.043 143.261 216.214" stroke="white"/>
<path d="M62.0009 239.14C62.2245 233.31 66.1888 227.52 73.894 223.071C89.7649 213.908 115.497 213.908 131.368 223.071C139.073 227.52 143.037 233.31 143.261 239.14" stroke="white" stroke-opacity="0.3"/>
<path d="M62.0009 216.134C62.2245 210.305 66.1888 204.514 73.894 200.066C89.7649 190.902 115.497 190.902 131.368 200.066C139.073 204.514 143.037 210.305 143.261 216.134" stroke="white" stroke-opacity="0.3"/>
<path d="M62.0009 197.357C62.2245 191.527 66.1888 185.737 73.894 181.288C89.7649 172.125 115.497 172.125 131.368 181.288C139.073 185.737 143.037 191.527 143.261 197.357" stroke="white" stroke-opacity="0.3"/>
<circle cx="33.1824" cy="33.1824" r="33.1824" transform="matrix(0.866025 0.5 -0.866025 0.5 102.631 138.314)" fill="#202020" stroke="white" stroke-linejoin="bevel"/>
<path d="M62.0009 172.02C62.2245 177.85 66.1888 183.64 73.894 188.089C89.7649 197.252 115.497 197.252 131.368 188.089C139.073 183.64 143.037 177.85 143.261 172.02" stroke="white"/>
<rect x="45.6582" y="20.8184" width="532.684" height="40.0526" rx="1.5" stroke="white"/>
<path d="M275.56 42.6893H271.96L271.348 44.7773H270.268L272.812 36.3773H274.708L277.252 44.7773H276.172L275.56 42.6893ZM273.688 36.8093L272.236 41.7533H275.284L273.832 36.8093H273.688ZM279.2 47.1773H278.264V38.8253H279.2V39.7613H279.344C279.552 39.4013 279.84 39.1293 280.208 38.9453C280.576 38.7533 280.976 38.6573 281.408 38.6573C281.776 38.6573 282.124 38.7253 282.452 38.8613C282.78 38.9973 283.068 39.1933 283.316 39.4493C283.572 39.7053 283.772 40.0213 283.916 40.3973C284.068 40.7733 284.144 41.2013 284.144 41.6813V41.9213C284.144 42.4093 284.072 42.8413 283.928 43.2173C283.784 43.5933 283.584 43.9093 283.328 44.1653C283.08 44.4213 282.788 44.6173 282.452 44.7533C282.116 44.8813 281.76 44.9453 281.384 44.9453C281.192 44.9453 280.996 44.9213 280.796 44.8733C280.596 44.8333 280.404 44.7693 280.22 44.6813C280.044 44.5853 279.88 44.4733 279.728 44.3453C279.576 44.2093 279.448 44.0493 279.344 43.8653H279.2V47.1773ZM281.192 44.0573C281.48 44.0573 281.744 44.0093 281.984 43.9133C282.224 43.8093 282.432 43.6653 282.608 43.4813C282.792 43.2973 282.932 43.0733 283.028 42.8093C283.132 42.5453 283.184 42.2493 283.184 41.9213V41.6813C283.184 41.3613 283.132 41.0733 283.028 40.8173C282.932 40.5533 282.792 40.3293 282.608 40.1453C282.432 39.9533 282.22 39.8053 281.972 39.7013C281.732 39.5973 281.472 39.5453 281.192 39.5453C280.912 39.5453 280.652 39.6013 280.412 39.7133C280.172 39.8173 279.96 39.9653 279.776 40.1573C279.6 40.3493 279.46 40.5813 279.356 40.8533C279.252 41.1173 279.2 41.4093 279.2 41.7293V41.8733C279.2 42.2013 279.252 42.5013 279.356 42.7733C279.46 43.0373 279.6 43.2653 279.776 43.4573C279.96 43.6493 280.172 43.7973 280.412 43.9013C280.652 44.0053 280.912 44.0573 281.192 44.0573ZM286.547 47.1773H285.611V38.8253H286.547V39.7613H286.691C286.899 39.4013 287.187 39.1293 287.555 38.9453C287.923 38.7533 288.323 38.6573 288.755 38.6573C289.123 38.6573 289.471 38.7253 289.799 38.8613C290.127 38.9973 290.415 39.1933 290.663 39.4493C290.919 39.7053 291.119 40.0213 291.263 40.3973C291.415 40.7733 291.491 41.2013 291.491 41.6813V41.9213C291.491 42.4093 291.419 42.8413 291.275 43.2173C291.131 43.5933 290.931 43.9093 290.675 44.1653C290.427 44.4213 290.135 44.6173 289.799 44.7533C289.463 44.8813 289.107 44.9453 288.731 44.9453C288.539 44.9453 288.343 44.9213 288.143 44.8733C287.943 44.8333 287.751 44.7693 287.567 44.6813C287.391 44.5853 287.227 44.4733 287.075 44.3453C286.923 44.2093 286.795 44.0493 286.691 43.8653H286.547V47.1773ZM288.539 44.0573C288.827 44.0573 289.091 44.0093 289.331 43.9133C289.571 43.8093 289.779 43.6653 289.955 43.4813C290.139 43.2973 290.279 43.0733 290.375 42.8093C290.479 42.5453 290.531 42.2493 290.531 41.9213V41.6813C290.531 41.3613 290.479 41.0733 290.375 40.8173C290.279 40.5533 290.139 40.3293 289.955 40.1453C289.779 39.9533 289.567 39.8053 289.319 39.7013C289.079 39.5973 288.819 39.5453 288.539 39.5453C288.259 39.5453 287.999 39.6013 287.759 39.7133C287.519 39.8173 287.307 39.9653 287.123 40.1573C286.947 40.3493 286.807 40.5813 286.703 40.8533C286.599 41.1173 286.547 41.4093 286.547 41.7293V41.8733C286.547 42.2013 286.599 42.5013 286.703 42.7733C286.807 43.0373 286.947 43.2653 287.123 43.4573C287.307 43.6493 287.519 43.7973 287.759 43.9013C287.999 44.0053 288.259 44.0573 288.539 44.0573ZM293.175 43.9133H295.335V37.2413H293.247V36.3773H296.271V43.9133H298.431V44.7773H293.175V43.9133ZM302.371 37.0493C302.371 36.8173 302.451 36.6213 302.611 36.4613C302.779 36.2933 302.979 36.2093 303.211 36.2093C303.443 36.2093 303.639 36.2933 303.799 36.4613C303.967 36.6213 304.051 36.8173 304.051 37.0493C304.051 37.2813 303.967 37.4813 303.799 37.6493C303.639 37.8093 303.443 37.8893 303.211 37.8893C302.979 37.8893 302.779 37.8093 302.611 37.6493C302.451 37.4813 302.371 37.2813 302.371 37.0493ZM300.667 43.9133H302.755V39.6893H300.883V38.8253H303.691V43.9133H305.635V44.7773H300.667V43.9133ZM313.438 42.6653C313.374 42.9933 313.262 43.2973 313.102 43.5773C312.95 43.8573 312.754 44.1013 312.514 44.3093C312.274 44.5093 311.994 44.6653 311.674 44.7773C311.354 44.8893 310.998 44.9453 310.606 44.9453C310.19 44.9453 309.794 44.8773 309.418 44.7413C309.05 44.6053 308.726 44.4093 308.446 44.1533C308.166 43.8893 307.942 43.5693 307.774 43.1933C307.614 42.8173 307.534 42.3853 307.534 41.8973V41.7533C307.534 41.2733 307.614 40.8413 307.774 40.4573C307.942 40.0733 308.166 39.7493 308.446 39.4853C308.726 39.2213 309.05 39.0173 309.418 38.8733C309.794 38.7293 310.19 38.6573 310.606 38.6573C310.982 38.6573 311.33 38.7133 311.65 38.8253C311.97 38.9373 312.25 39.0973 312.49 39.3053C312.738 39.5053 312.938 39.7453 313.09 40.0253C313.25 40.3053 313.358 40.6093 313.414 40.9373L312.478 41.1533C312.454 40.9453 312.394 40.7453 312.298 40.5533C312.21 40.3533 312.086 40.1813 311.926 40.0373C311.774 39.8853 311.586 39.7653 311.362 39.6773C311.138 39.5893 310.878 39.5453 310.582 39.5453C310.294 39.5453 310.022 39.6013 309.766 39.7133C309.518 39.8173 309.298 39.9693 309.106 40.1693C308.914 40.3613 308.762 40.5933 308.65 40.8653C308.546 41.1373 308.494 41.4333 308.494 41.7533V41.8973C308.494 42.2333 308.546 42.5373 308.65 42.8093C308.762 43.0733 308.914 43.2973 309.106 43.4813C309.298 43.6653 309.522 43.8093 309.778 43.9133C310.034 44.0093 310.31 44.0573 310.606 44.0573C310.902 44.0573 311.158 44.0133 311.374 43.9253C311.598 43.8293 311.786 43.7093 311.938 43.5653C312.098 43.4133 312.222 43.2413 312.31 43.0493C312.406 42.8573 312.47 42.6573 312.502 42.4493L313.438 42.6653ZM319.538 43.7693H319.394C319.202 44.1693 318.934 44.4653 318.59 44.6573C318.254 44.8493 317.898 44.9453 317.522 44.9453C317.13 44.9453 316.766 44.8813 316.43 44.7533C316.094 44.6173 315.798 44.4213 315.542 44.1653C315.294 43.9013 315.098 43.5813 314.954 43.2053C314.81 42.8293 314.738 42.3933 314.738 41.8973V41.7053C314.738 41.2173 314.81 40.7853 314.954 40.4093C315.098 40.0333 315.294 39.7173 315.542 39.4613C315.798 39.1973 316.094 38.9973 316.43 38.8613C316.766 38.7253 317.122 38.6573 317.498 38.6573C317.906 38.6573 318.274 38.7493 318.602 38.9333C318.938 39.1093 319.202 39.3853 319.394 39.7613H319.538V38.8253H320.474V43.5533C320.474 43.7933 320.582 43.9133 320.798 43.9133H321.098V44.7773H320.462C320.19 44.7773 319.966 44.6893 319.79 44.5133C319.622 44.3373 319.538 44.1133 319.538 43.8413V43.7693ZM317.618 44.0573C317.898 44.0573 318.154 44.0053 318.386 43.9013C318.626 43.7973 318.83 43.6493 318.998 43.4573C319.166 43.2653 319.298 43.0373 319.394 42.7733C319.49 42.5013 319.538 42.2013 319.538 41.8733V41.7293C319.538 41.4093 319.49 41.1173 319.394 40.8533C319.298 40.5813 319.162 40.3493 318.986 40.1573C318.818 39.9653 318.614 39.8173 318.374 39.7133C318.142 39.6013 317.89 39.5453 317.618 39.5453C317.338 39.5453 317.082 39.5973 316.85 39.7013C316.618 39.8053 316.414 39.9533 316.238 40.1453C316.07 40.3293 315.938 40.5573 315.842 40.8293C315.746 41.0933 315.698 41.3853 315.698 41.7053V41.8973C315.698 42.5773 315.874 43.1093 316.226 43.4933C316.586 43.8693 317.05 44.0573 317.618 44.0573ZM322.361 38.8253H324.233V36.3773H325.169V38.8253H327.473V39.6893H325.169V43.5533C325.169 43.7933 325.277 43.9133 325.493 43.9133H327.185V44.7773H325.157C324.885 44.7773 324.661 44.6893 324.485 44.5133C324.317 44.3373 324.233 44.1133 324.233 43.8413V39.6893H322.361V38.8253ZM331.761 37.0493C331.761 36.8173 331.841 36.6213 332.001 36.4613C332.169 36.2933 332.369 36.2093 332.601 36.2093C332.833 36.2093 333.029 36.2933 333.189 36.4613C333.357 36.6213 333.441 36.8173 333.441 37.0493C333.441 37.2813 333.357 37.4813 333.189 37.6493C333.029 37.8093 332.833 37.8893 332.601 37.8893C332.369 37.8893 332.169 37.8093 332.001 37.6493C331.841 37.4813 331.761 37.2813 331.761 37.0493ZM330.057 43.9133H332.145V39.6893H330.273V38.8253H333.081V43.9133H335.025V44.7773H330.057V43.9133ZM342.877 41.8733C342.877 42.3693 342.793 42.8093 342.625 43.1933C342.465 43.5693 342.249 43.8893 341.977 44.1533C341.705 44.4093 341.385 44.6053 341.017 44.7413C340.657 44.8773 340.281 44.9453 339.889 44.9453C339.489 44.9453 339.109 44.8773 338.749 44.7413C338.389 44.6053 338.073 44.4093 337.801 44.1533C337.529 43.8893 337.309 43.5693 337.141 43.1933C336.981 42.8093 336.901 42.3693 336.901 41.8733V41.7293C336.901 41.2413 336.981 40.8093 337.141 40.4333C337.309 40.0493 337.529 39.7253 337.801 39.4613C338.081 39.1973 338.401 38.9973 338.761 38.8613C339.121 38.7253 339.497 38.6573 339.889 38.6573C340.281 38.6573 340.657 38.7253 341.017 38.8613C341.377 38.9973 341.693 39.1973 341.965 39.4613C342.245 39.7253 342.465 40.0493 342.625 40.4333C342.793 40.8093 342.877 41.2413 342.877 41.7293V41.8733ZM339.889 44.0573C340.177 44.0573 340.441 44.0093 340.681 43.9133C340.929 43.8093 341.145 43.6613 341.329 43.4693C341.513 43.2773 341.657 43.0493 341.761 42.7853C341.865 42.5133 341.917 42.2093 341.917 41.8733V41.7293C341.917 41.4093 341.865 41.1173 341.761 40.8533C341.657 40.5813 341.513 40.3493 341.329 40.1573C341.145 39.9653 340.929 39.8173 340.681 39.7133C340.433 39.6013 340.169 39.5453 339.889 39.5453C339.609 39.5453 339.345 39.6013 339.097 39.7133C338.849 39.8173 338.633 39.9653 338.449 40.1573C338.265 40.3493 338.121 40.5813 338.017 40.8533C337.913 41.1173 337.861 41.4093 337.861 41.7293V41.8733C337.861 42.2093 337.913 42.5133 338.017 42.7853C338.121 43.0493 338.265 43.2773 338.449 43.4693C338.633 43.6613 338.845 43.8093 339.085 43.9133C339.333 44.0093 339.601 44.0573 339.889 44.0573ZM345.544 44.7773H344.608V38.8253H345.544V39.8333H345.688C346.056 39.0493 346.696 38.6573 347.608 38.6573C348.296 38.6573 348.844 38.8733 349.252 39.3053C349.66 39.7293 349.864 40.3693 349.864 41.2253V44.7773H348.928V41.4173C348.928 40.7933 348.788 40.3253 348.508 40.0133C348.228 39.7013 347.848 39.5453 347.368 39.5453C346.8 39.5453 346.352 39.7413 346.024 40.1333C345.704 40.5173 345.544 41.0333 345.544 41.6813V44.7773Z" fill="white"/>
<path d="M541.468 105.197H540.628V102.857C540.628 102.684 540.588 102.551 540.508 102.457C540.428 102.364 540.288 102.317 540.088 102.317H537.908V105.197H537.068V98.1973H539.568C539.928 98.1973 540.241 98.2506 540.508 98.3573C540.775 98.4573 540.995 98.5939 541.168 98.7673C541.348 98.9406 541.481 99.1439 541.568 99.3773C541.661 99.6039 541.708 99.8439 541.708 100.097V100.397C541.708 100.657 541.635 100.917 541.488 101.177C541.348 101.437 541.128 101.637 540.828 101.777V101.897C541.028 101.931 541.185 102.011 541.298 102.137C541.411 102.264 541.468 102.444 541.468 102.677V105.197ZM537.908 101.537H539.468C539.941 101.537 540.291 101.437 540.518 101.237C540.751 101.031 540.868 100.731 540.868 100.337V100.157C540.868 99.8039 540.751 99.5206 540.518 99.3073C540.291 99.0873 539.941 98.9773 539.468 98.9773H537.908V101.537ZM543.781 102.957C543.801 103.451 543.954 103.847 544.241 104.147C544.528 104.447 544.928 104.597 545.441 104.597C545.674 104.597 545.878 104.571 546.051 104.517C546.224 104.464 546.371 104.391 546.491 104.297C546.618 104.204 546.718 104.097 546.791 103.977C546.871 103.851 546.934 103.717 546.981 103.577L547.721 103.777C547.581 104.237 547.321 104.614 546.941 104.907C546.568 105.194 546.061 105.337 545.421 105.337C545.068 105.337 544.741 105.277 544.441 105.157C544.148 105.031 543.894 104.854 543.681 104.627C543.468 104.401 543.301 104.131 543.181 103.817C543.061 103.504 543.001 103.157 543.001 102.777V102.537C543.001 102.191 543.061 101.867 543.181 101.567C543.308 101.267 543.481 101.011 543.701 100.797C543.921 100.577 544.178 100.407 544.471 100.287C544.771 100.161 545.094 100.097 545.441 100.097C545.848 100.097 546.198 100.174 546.491 100.327C546.791 100.474 547.034 100.657 547.221 100.877C547.414 101.097 547.554 101.337 547.641 101.597C547.734 101.857 547.781 102.097 547.781 102.317V102.957H543.781ZM545.441 100.837C545.221 100.837 545.014 100.874 544.821 100.947C544.634 101.014 544.468 101.111 544.321 101.237C544.181 101.364 544.064 101.514 543.971 101.687C543.884 101.854 543.828 102.037 543.801 102.237H547.001C546.988 102.024 546.934 101.831 546.841 101.657C546.754 101.484 546.638 101.337 546.491 101.217C546.351 101.097 546.188 101.004 546.001 100.937C545.821 100.871 545.634 100.837 545.441 100.837ZM552.934 104.357H552.814C552.654 104.691 552.431 104.937 552.144 105.097C551.864 105.257 551.567 105.337 551.254 105.337C550.927 105.337 550.624 105.284 550.344 105.177C550.064 105.064 549.817 104.901 549.604 104.687C549.397 104.467 549.234 104.201 549.114 103.887C548.994 103.574 548.934 103.211 548.934 102.797V102.637C548.934 102.231 548.994 101.871 549.114 101.557C549.234 101.244 549.397 100.981 549.604 100.767C549.817 100.547 550.064 100.381 550.344 100.267C550.624 100.154 550.921 100.097 551.234 100.097C551.574 100.097 551.881 100.174 552.154 100.327C552.434 100.474 552.654 100.704 552.814 101.017H552.934V100.237H553.714V104.177C553.714 104.377 553.804 104.477 553.984 104.477H554.234V105.197H553.704C553.477 105.197 553.291 105.124 553.144 104.977C553.004 104.831 552.934 104.644 552.934 104.417V104.357ZM551.334 104.597C551.567 104.597 551.781 104.554 551.974 104.467C552.174 104.381 552.344 104.257 552.484 104.097C552.624 103.937 552.734 103.747 552.814 103.527C552.894 103.301 552.934 103.051 552.934 102.777V102.657C552.934 102.391 552.894 102.147 552.814 101.927C552.734 101.701 552.621 101.507 552.474 101.347C552.334 101.187 552.164 101.064 551.964 100.977C551.771 100.884 551.561 100.837 551.334 100.837C551.101 100.837 550.887 100.881 550.694 100.967C550.501 101.054 550.331 101.177 550.184 101.337C550.044 101.491 549.934 101.681 549.854 101.907C549.774 102.127 549.734 102.371 549.734 102.637V102.797C549.734 103.364 549.881 103.807 550.174 104.127C550.474 104.441 550.861 104.597 551.334 104.597ZM559.297 104.437H559.177C559.097 104.591 558.994 104.724 558.867 104.837C558.747 104.951 558.614 105.044 558.467 105.117C558.327 105.191 558.177 105.244 558.017 105.277C557.857 105.317 557.704 105.337 557.557 105.337C557.224 105.337 556.914 105.281 556.627 105.167C556.34 105.054 556.087 104.891 555.867 104.677C555.654 104.464 555.484 104.201 555.357 103.887C555.237 103.567 555.177 103.204 555.177 102.797V102.637C555.177 102.237 555.24 101.881 555.367 101.567C555.494 101.247 555.664 100.981 555.877 100.767C556.09 100.547 556.34 100.381 556.627 100.267C556.914 100.154 557.217 100.097 557.537 100.097C557.877 100.097 558.194 100.174 558.487 100.327C558.787 100.474 559.017 100.704 559.177 101.017H559.297V98.1973H560.077V105.197H559.297V104.437ZM557.637 104.597C557.87 104.597 558.087 104.554 558.287 104.467C558.487 104.381 558.66 104.257 558.807 104.097C558.96 103.937 559.08 103.747 559.167 103.527C559.254 103.301 559.297 103.051 559.297 102.777V102.657C559.297 102.391 559.254 102.147 559.167 101.927C559.08 101.701 558.96 101.507 558.807 101.347C558.66 101.187 558.484 101.064 558.277 100.977C558.077 100.884 557.864 100.837 557.637 100.837C557.404 100.837 557.184 100.881 556.977 100.967C556.777 101.054 556.6 101.177 556.447 101.337C556.3 101.497 556.184 101.687 556.097 101.907C556.017 102.127 555.977 102.371 555.977 102.637V102.797C555.977 103.077 556.017 103.327 556.097 103.547C556.184 103.767 556.3 103.957 556.447 104.117C556.6 104.271 556.777 104.391 556.977 104.477C557.177 104.557 557.397 104.597 557.637 104.597Z" fill="white"/>
<path d="M75.7599 275.502H78.5199C79.5599 275.502 80.3199 275.75 80.7999 276.246C81.2799 276.742 81.5199 277.534 81.5199 278.622V280.782C81.5199 281.87 81.2799 282.662 80.7999 283.158C80.3199 283.654 79.5599 283.902 78.5199 283.902H75.7599V282.954H76.4799V276.438H75.7599V275.502ZM78.3759 282.966C78.7439 282.966 79.0599 282.93 79.3239 282.858C79.5959 282.786 79.8199 282.666 79.9959 282.498C80.1719 282.322 80.2999 282.09 80.3799 281.802C80.4679 281.514 80.5119 281.15 80.5119 280.71V278.694C80.5119 278.254 80.4679 277.89 80.3799 277.602C80.2999 277.314 80.1719 277.086 79.9959 276.918C79.8199 276.742 79.5959 276.618 79.3239 276.546C79.0599 276.474 78.7439 276.438 78.3759 276.438H77.4879V282.966H78.3759ZM87.5956 282.894H87.4516C87.2596 283.294 86.9916 283.59 86.6476 283.782C86.3116 283.974 85.9556 284.07 85.5796 284.07C85.1876 284.07 84.8236 284.006 84.4876 283.878C84.1516 283.742 83.8556 283.546 83.5996 283.29C83.3516 283.026 83.1556 282.706 83.0116 282.33C82.8676 281.954 82.7956 281.518 82.7956 281.022V280.83C82.7956 280.342 82.8676 279.91 83.0116 279.534C83.1556 279.158 83.3516 278.842 83.5996 278.586C83.8556 278.322 84.1516 278.122 84.4876 277.986C84.8236 277.85 85.1796 277.782 85.5556 277.782C85.9636 277.782 86.3316 277.874 86.6596 278.058C86.9956 278.234 87.2596 278.51 87.4516 278.886H87.5956V277.95H88.5316V282.678C88.5316 282.918 88.6396 283.038 88.8556 283.038H89.1556V283.902H88.5196C88.2476 283.902 88.0236 283.814 87.8476 283.638C87.6796 283.462 87.5956 283.238 87.5956 282.966V282.894ZM85.6756 283.182C85.9556 283.182 86.2116 283.13 86.4436 283.026C86.6836 282.922 86.8876 282.774 87.0556 282.582C87.2236 282.39 87.3556 282.162 87.4516 281.898C87.5476 281.626 87.5956 281.326 87.5956 280.998V280.854C87.5956 280.534 87.5476 280.242 87.4516 279.978C87.3556 279.706 87.2196 279.474 87.0436 279.282C86.8756 279.09 86.6716 278.942 86.4316 278.838C86.1996 278.726 85.9476 278.67 85.6756 278.67C85.3956 278.67 85.1396 278.722 84.9076 278.826C84.6756 278.93 84.4716 279.078 84.2956 279.27C84.1276 279.454 83.9956 279.682 83.8996 279.954C83.8036 280.218 83.7556 280.51 83.7556 280.83V281.022C83.7556 281.702 83.9316 282.234 84.2836 282.618C84.6436 282.994 85.1076 283.182 85.6756 283.182ZM90.4192 277.95H92.2912V275.502H93.2272V277.95H95.5312V278.814H93.2272V282.678C93.2272 282.918 93.3352 283.038 93.5512 283.038H95.2432V283.902H93.2152C92.9432 283.902 92.7192 283.814 92.5432 283.638C92.3752 283.462 92.2912 283.238 92.2912 282.966V278.814H90.4192V277.95ZM102.291 282.894H102.147C101.955 283.294 101.687 283.59 101.343 283.782C101.007 283.974 100.651 284.07 100.275 284.07C99.8829 284.07 99.5189 284.006 99.1829 283.878C98.8469 283.742 98.5509 283.546 98.2949 283.29C98.0469 283.026 97.8509 282.706 97.7069 282.33C97.5629 281.954 97.4909 281.518 97.4909 281.022V280.83C97.4909 280.342 97.5629 279.91 97.7069 279.534C97.8509 279.158 98.0469 278.842 98.2949 278.586C98.5509 278.322 98.8469 278.122 99.1829 277.986C99.5189 277.85 99.8749 277.782 100.251 277.782C100.659 277.782 101.027 277.874 101.355 278.058C101.691 278.234 101.955 278.51 102.147 278.886H102.291V277.95H103.227V282.678C103.227 282.918 103.335 283.038 103.551 283.038H103.851V283.902H103.215C102.943 283.902 102.719 283.814 102.543 283.638C102.375 283.462 102.291 283.238 102.291 282.966V282.894ZM100.371 283.182C100.651 283.182 100.907 283.13 101.139 283.026C101.379 282.922 101.583 282.774 101.751 282.582C101.919 282.39 102.051 282.162 102.147 281.898C102.243 281.626 102.291 281.326 102.291 280.998V280.854C102.291 280.534 102.243 280.242 102.147 279.978C102.051 279.706 101.915 279.474 101.739 279.282C101.571 279.09 101.367 278.942 101.127 278.838C100.895 278.726 100.643 278.67 100.371 278.67C100.091 278.67 99.8349 278.722 99.6029 278.826C99.3709 278.93 99.1669 279.078 98.9909 279.27C98.8229 279.454 98.6909 279.682 98.5949 279.954C98.4989 280.218 98.4509 280.51 98.4509 280.83V281.022C98.4509 281.702 98.6269 282.234 98.9789 282.618C99.3389 282.994 99.8029 283.182 100.371 283.182ZM106.039 283.902H105.103V275.502H106.039V278.886H106.183C106.391 278.526 106.679 278.254 107.047 278.07C107.415 277.878 107.815 277.782 108.247 277.782C108.615 277.782 108.963 277.85 109.291 277.986C109.619 278.122 109.907 278.318 110.155 278.574C110.411 278.83 110.611 279.146 110.755 279.522C110.907 279.898 110.983 280.326 110.983 280.806V281.046C110.983 281.534 110.911 281.966 110.767 282.342C110.623 282.718 110.423 283.034 110.167 283.29C109.919 283.546 109.627 283.742 109.291 283.878C108.955 284.006 108.599 284.07 108.223 284.07C108.031 284.07 107.835 284.046 107.635 283.998C107.435 283.958 107.243 283.894 107.059 283.806C106.883 283.71 106.719 283.598 106.567 283.47C106.415 283.334 106.287 283.174 106.183 282.99H106.039V283.902ZM108.031 283.182C108.319 283.182 108.583 283.134 108.823 283.038C109.063 282.934 109.271 282.79 109.447 282.606C109.631 282.422 109.771 282.198 109.867 281.934C109.971 281.67 110.023 281.374 110.023 281.046V280.806C110.023 280.486 109.971 280.198 109.867 279.942C109.771 279.678 109.631 279.454 109.447 279.27C109.271 279.078 109.059 278.93 108.811 278.826C108.571 278.722 108.311 278.67 108.031 278.67C107.751 278.67 107.491 278.726 107.251 278.838C107.011 278.942 106.799 279.09 106.615 279.282C106.439 279.474 106.299 279.706 106.195 279.978C106.091 280.242 106.039 280.534 106.039 280.854V280.998C106.039 281.326 106.091 281.626 106.195 281.898C106.299 282.162 106.439 282.39 106.615 282.582C106.799 282.774 107.011 282.922 107.251 283.026C107.491 283.13 107.751 283.182 108.031 283.182ZM116.986 282.894H116.842C116.65 283.294 116.382 283.59 116.038 283.782C115.702 283.974 115.346 284.07 114.97 284.07C114.578 284.07 114.214 284.006 113.878 283.878C113.542 283.742 113.246 283.546 112.99 283.29C112.742 283.026 112.546 282.706 112.402 282.33C112.258 281.954 112.186 281.518 112.186 281.022V280.83C112.186 280.342 112.258 279.91 112.402 279.534C112.546 279.158 112.742 278.842 112.99 278.586C113.246 278.322 113.542 278.122 113.878 277.986C114.214 277.85 114.57 277.782 114.946 277.782C115.354 277.782 115.722 277.874 116.05 278.058C116.386 278.234 116.65 278.51 116.842 278.886H116.986V277.95H117.922V282.678C117.922 282.918 118.03 283.038 118.246 283.038H118.546V283.902H117.91C117.638 283.902 117.414 283.814 117.238 283.638C117.07 283.462 116.986 283.238 116.986 282.966V282.894ZM115.066 283.182C115.346 283.182 115.602 283.13 115.834 283.026C116.074 282.922 116.278 282.774 116.446 282.582C116.614 282.39 116.746 282.162 116.842 281.898C116.938 281.626 116.986 281.326 116.986 280.998V280.854C116.986 280.534 116.938 280.242 116.842 279.978C116.746 279.706 116.61 279.474 116.434 279.282C116.266 279.09 116.062 278.942 115.822 278.838C115.59 278.726 115.338 278.67 115.066 278.67C114.786 278.67 114.53 278.722 114.298 278.826C114.066 278.93 113.862 279.078 113.686 279.27C113.518 279.454 113.386 279.682 113.29 279.954C113.194 280.218 113.146 280.51 113.146 280.83V281.022C113.146 281.702 113.322 282.234 113.674 282.618C114.034 282.994 114.498 283.182 115.066 283.182ZM121.25 279.486C121.25 279.774 121.37 279.994 121.61 280.146C121.858 280.298 122.306 280.398 122.954 280.446C123.65 280.502 124.178 280.67 124.538 280.95C124.906 281.222 125.09 281.622 125.09 282.15V282.222C125.09 282.51 125.03 282.77 124.91 283.002C124.798 283.226 124.638 283.418 124.43 283.578C124.23 283.738 123.982 283.858 123.686 283.938C123.398 284.026 123.082 284.07 122.738 284.07C122.274 284.07 121.874 284.01 121.538 283.89C121.21 283.762 120.934 283.598 120.71 283.398C120.494 283.19 120.33 282.958 120.218 282.702C120.106 282.438 120.042 282.174 120.026 281.91L120.914 281.694C120.954 282.15 121.13 282.518 121.442 282.798C121.754 283.07 122.17 283.206 122.69 283.206C123.13 283.206 123.482 283.122 123.746 282.954C124.018 282.778 124.154 282.534 124.154 282.222C124.154 281.886 124.022 281.646 123.758 281.502C123.494 281.358 123.066 281.266 122.474 281.226C121.786 281.178 121.258 281.018 120.89 280.746C120.522 280.474 120.338 280.078 120.338 279.558V279.486C120.338 279.206 120.398 278.962 120.518 278.754C120.638 278.538 120.798 278.358 120.998 278.214C121.206 278.07 121.438 277.962 121.694 277.89C121.95 277.818 122.218 277.782 122.498 277.782C122.89 277.782 123.234 277.838 123.53 277.95C123.826 278.054 124.074 278.194 124.274 278.37C124.474 278.538 124.626 278.734 124.73 278.958C124.842 279.182 124.914 279.406 124.946 279.63L124.058 279.846C124.018 279.462 123.862 279.162 123.59 278.946C123.326 278.73 122.978 278.622 122.546 278.622C122.378 278.622 122.214 278.642 122.054 278.682C121.902 278.714 121.766 278.766 121.646 278.838C121.526 278.91 121.43 279.002 121.358 279.114C121.286 279.218 121.25 279.342 121.25 279.486ZM128.046 281.214C128.07 281.806 128.254 282.282 128.598 282.642C128.942 283.002 129.422 283.182 130.038 283.182C130.318 283.182 130.562 283.15 130.77 283.086C130.978 283.022 131.154 282.934 131.298 282.822C131.45 282.71 131.57 282.582 131.658 282.438C131.754 282.286 131.83 282.126 131.886 281.958L132.774 282.198C132.606 282.75 132.294 283.202 131.838 283.554C131.39 283.898 130.782 284.07 130.014 284.07C129.59 284.07 129.198 283.998 128.838 283.854C128.486 283.702 128.182 283.49 127.926 283.218C127.67 282.946 127.47 282.622 127.326 282.246C127.182 281.87 127.11 281.454 127.11 280.998V280.71C127.11 280.294 127.182 279.906 127.326 279.546C127.478 279.186 127.686 278.878 127.95 278.622C128.214 278.358 128.522 278.154 128.874 278.01C129.234 277.858 129.622 277.782 130.038 277.782C130.526 277.782 130.946 277.874 131.298 278.058C131.658 278.234 131.95 278.454 132.174 278.718C132.406 278.982 132.574 279.27 132.678 279.582C132.79 279.894 132.846 280.182 132.846 280.446V281.214H128.046ZM130.038 278.67C129.774 278.67 129.526 278.714 129.294 278.802C129.07 278.882 128.87 278.998 128.694 279.15C128.526 279.302 128.386 279.482 128.274 279.69C128.17 279.89 128.102 280.11 128.07 280.35H131.91C131.894 280.094 131.83 279.862 131.718 279.654C131.614 279.446 131.474 279.27 131.298 279.126C131.13 278.982 130.934 278.87 130.71 278.79C130.494 278.71 130.27 278.67 130.038 278.67Z" fill="white"/>
<path d="M301.652 284.172H300.644V281.364C300.644 281.156 300.596 280.996 300.5 280.884C300.404 280.772 300.236 280.716 299.996 280.716H297.38V284.172H296.372V275.772H299.372C299.804 275.772 300.18 275.836 300.5 275.964C300.82 276.084 301.084 276.248 301.292 276.456C301.508 276.664 301.668 276.908 301.772 277.188C301.884 277.46 301.94 277.748 301.94 278.052V278.412C301.94 278.724 301.852 279.036 301.676 279.348C301.508 279.66 301.244 279.9 300.884 280.068V280.212C301.124 280.252 301.312 280.348 301.448 280.5C301.584 280.652 301.652 280.868 301.652 281.148V284.172ZM297.38 279.78H299.252C299.82 279.78 300.24 279.66 300.512 279.42C300.792 279.172 300.932 278.812 300.932 278.34V278.124C300.932 277.7 300.792 277.36 300.512 277.104C300.24 276.84 299.82 276.708 299.252 276.708H297.38V279.78ZM303.575 275.772H306.335C307.375 275.772 308.135 276.02 308.615 276.516C309.095 277.012 309.335 277.804 309.335 278.892V281.052C309.335 282.14 309.095 282.932 308.615 283.428C308.135 283.924 307.375 284.172 306.335 284.172H303.575V283.224H304.295V276.708H303.575V275.772ZM306.191 283.236C306.559 283.236 306.875 283.2 307.139 283.128C307.411 283.056 307.635 282.936 307.811 282.768C307.987 282.592 308.115 282.36 308.195 282.072C308.283 281.784 308.327 281.42 308.327 280.98V278.964C308.327 278.524 308.283 278.16 308.195 277.872C308.115 277.584 307.987 277.356 307.811 277.188C307.635 277.012 307.411 276.888 307.139 276.816C306.875 276.744 306.559 276.708 306.191 276.708H305.303V283.236H306.191ZM311.055 275.772H316.383V276.708H314.223V283.236H316.383V284.172H311.055V283.236H313.215V276.708H311.055V275.772Z" fill="white"/>
<path d="M505.194 283.902H504.186V281.094C504.186 280.886 504.138 280.726 504.042 280.614C503.946 280.502 503.778 280.446 503.538 280.446H500.922V283.902H499.914V275.502H502.914C503.346 275.502 503.722 275.566 504.042 275.694C504.362 275.814 504.626 275.978 504.834 276.186C505.05 276.394 505.21 276.638 505.314 276.918C505.426 277.19 505.482 277.478 505.482 277.782V278.142C505.482 278.454 505.394 278.766 505.218 279.078C505.05 279.39 504.786 279.63 504.426 279.798V279.942C504.666 279.982 504.854 280.078 504.99 280.23C505.126 280.382 505.194 280.598 505.194 280.878V283.902ZM500.922 279.51H502.794C503.362 279.51 503.782 279.39 504.054 279.15C504.334 278.902 504.474 278.542 504.474 278.07V277.854C504.474 277.43 504.334 277.09 504.054 276.834C503.782 276.57 503.362 276.438 502.794 276.438H500.922V279.51ZM507.969 281.214C507.993 281.806 508.177 282.282 508.521 282.642C508.865 283.002 509.345 283.182 509.961 283.182C510.241 283.182 510.485 283.15 510.693 283.086C510.901 283.022 511.077 282.934 511.221 282.822C511.373 282.71 511.493 282.582 511.581 282.438C511.677 282.286 511.753 282.126 511.809 281.958L512.697 282.198C512.529 282.75 512.217 283.202 511.761 283.554C511.313 283.898 510.705 284.07 509.937 284.07C509.513 284.07 509.121 283.998 508.761 283.854C508.409 283.702 508.105 283.49 507.849 283.218C507.593 282.946 507.393 282.622 507.249 282.246C507.105 281.87 507.033 281.454 507.033 280.998V280.71C507.033 280.294 507.105 279.906 507.249 279.546C507.401 279.186 507.609 278.878 507.873 278.622C508.137 278.358 508.445 278.154 508.797 278.01C509.157 277.858 509.545 277.782 509.961 277.782C510.449 277.782 510.869 277.874 511.221 278.058C511.581 278.234 511.873 278.454 512.097 278.718C512.329 278.982 512.497 279.27 512.601 279.582C512.713 279.894 512.769 280.182 512.769 280.446V281.214H507.969ZM509.961 278.67C509.697 278.67 509.449 278.714 509.217 278.802C508.993 278.882 508.793 278.998 508.617 279.15C508.449 279.302 508.309 279.482 508.197 279.69C508.093 279.89 508.025 280.11 507.993 280.35H511.833C511.817 280.094 511.753 279.862 511.641 279.654C511.537 279.446 511.397 279.27 511.221 279.126C511.053 278.982 510.857 278.87 510.633 278.79C510.417 278.71 510.193 278.67 509.961 278.67ZM519.241 282.99H519.097C519.001 283.174 518.877 283.334 518.725 283.47C518.581 283.606 518.421 283.718 518.245 283.806C518.077 283.894 517.897 283.958 517.705 283.998C517.513 284.046 517.329 284.07 517.153 284.07C516.753 284.07 516.381 284.002 516.037 283.866C515.693 283.73 515.389 283.534 515.125 283.278C514.869 283.022 514.665 282.706 514.513 282.33C514.369 281.946 514.297 281.51 514.297 281.022V280.83C514.297 280.35 514.373 279.922 514.525 279.546C514.677 279.162 514.881 278.842 515.137 278.586C515.393 278.322 515.693 278.122 516.037 277.986C516.381 277.85 516.745 277.782 517.129 277.782C517.537 277.782 517.917 277.874 518.269 278.058C518.629 278.234 518.905 278.51 519.097 278.886H519.241V275.502H520.177V283.902H519.241V282.99ZM517.249 283.182C517.529 283.182 517.789 283.13 518.029 283.026C518.269 282.922 518.477 282.774 518.653 282.582C518.837 282.39 518.981 282.162 519.085 281.898C519.189 281.626 519.241 281.326 519.241 280.998V280.854C519.241 280.534 519.189 280.242 519.085 279.978C518.981 279.706 518.837 279.474 518.653 279.282C518.477 279.09 518.265 278.942 518.017 278.838C517.777 278.726 517.521 278.67 517.249 278.67C516.969 278.67 516.705 278.722 516.457 278.826C516.217 278.93 516.005 279.078 515.821 279.27C515.645 279.462 515.505 279.69 515.401 279.954C515.305 280.218 515.257 280.51 515.257 280.83V281.022C515.257 281.358 515.305 281.658 515.401 281.922C515.505 282.186 515.645 282.414 515.821 282.606C516.005 282.79 516.217 282.934 516.457 283.038C516.697 283.134 516.961 283.182 517.249 283.182ZM523.829 276.174C523.829 275.942 523.909 275.746 524.069 275.586C524.237 275.418 524.437 275.334 524.669 275.334C524.901 275.334 525.097 275.418 525.257 275.586C525.425 275.746 525.509 275.942 525.509 276.174C525.509 276.406 525.425 276.606 525.257 276.774C525.097 276.934 524.901 277.014 524.669 277.014C524.437 277.014 524.237 276.934 524.069 276.774C523.909 276.606 523.829 276.406 523.829 276.174ZM522.125 283.038H524.213V278.814H522.341V277.95H525.149V283.038H527.093V283.902H522.125V283.038ZM530.564 279.486C530.564 279.774 530.684 279.994 530.924 280.146C531.172 280.298 531.62 280.398 532.268 280.446C532.964 280.502 533.492 280.67 533.852 280.95C534.22 281.222 534.404 281.622 534.404 282.15V282.222C534.404 282.51 534.344 282.77 534.224 283.002C534.112 283.226 533.952 283.418 533.744 283.578C533.544 283.738 533.296 283.858 533 283.938C532.712 284.026 532.396 284.07 532.052 284.07C531.588 284.07 531.188 284.01 530.852 283.89C530.524 283.762 530.248 283.598 530.024 283.398C529.808 283.19 529.644 282.958 529.532 282.702C529.42 282.438 529.356 282.174 529.34 281.91L530.228 281.694C530.268 282.15 530.444 282.518 530.756 282.798C531.068 283.07 531.484 283.206 532.004 283.206C532.444 283.206 532.796 283.122 533.06 282.954C533.332 282.778 533.468 282.534 533.468 282.222C533.468 281.886 533.336 281.646 533.072 281.502C532.808 281.358 532.38 281.266 531.788 281.226C531.1 281.178 530.572 281.018 530.204 280.746C529.836 280.474 529.652 280.078 529.652 279.558V279.486C529.652 279.206 529.712 278.962 529.832 278.754C529.952 278.538 530.112 278.358 530.312 278.214C530.52 278.07 530.752 277.962 531.008 277.89C531.264 277.818 531.532 277.782 531.812 277.782C532.204 277.782 532.548 277.838 532.844 277.95C533.14 278.054 533.388 278.194 533.588 278.37C533.788 278.538 533.94 278.734 534.044 278.958C534.156 279.182 534.228 279.406 534.26 279.63L533.372 279.846C533.332 279.462 533.176 279.162 532.904 278.946C532.64 278.73 532.292 278.622 531.86 278.622C531.692 278.622 531.528 278.642 531.368 278.682C531.216 278.714 531.08 278.766 530.96 278.838C530.84 278.91 530.744 279.002 530.672 279.114C530.6 279.218 530.564 279.342 530.564 279.486ZM481.652 293.502H486.74V294.438H482.66V297.222H486.668V298.158H482.66V300.966H486.812V301.902H481.652V293.502ZM489.852 301.902H488.916V295.95H489.852V296.958H489.996C490.364 296.174 491.004 295.782 491.916 295.782C492.604 295.782 493.152 295.998 493.56 296.43C493.968 296.854 494.172 297.494 494.172 298.35V301.902H493.236V298.542C493.236 297.918 493.096 297.45 492.816 297.138C492.536 296.826 492.156 296.67 491.676 296.67C491.108 296.67 490.66 296.866 490.332 297.258C490.012 297.642 489.852 298.158 489.852 298.806V301.902ZM496.06 295.95H497.932V293.502H498.868V295.95H501.172V296.814H498.868V300.678C498.868 300.918 498.976 301.038 499.192 301.038H500.884V301.902H498.856C498.584 301.902 498.36 301.814 498.184 301.638C498.016 301.462 497.932 301.238 497.932 300.966V296.814H496.06V295.95ZM504.295 299.214C504.319 299.806 504.503 300.282 504.847 300.642C505.191 301.002 505.671 301.182 506.287 301.182C506.567 301.182 506.811 301.15 507.019 301.086C507.227 301.022 507.403 300.934 507.547 300.822C507.699 300.71 507.819 300.582 507.907 300.438C508.003 300.286 508.079 300.126 508.135 299.958L509.023 300.198C508.855 300.75 508.543 301.202 508.087 301.554C507.639 301.898 507.031 302.07 506.263 302.07C505.839 302.07 505.447 301.998 505.087 301.854C504.735 301.702 504.431 301.49 504.175 301.218C503.919 300.946 503.719 300.622 503.575 300.246C503.431 299.87 503.359 299.454 503.359 298.998V298.71C503.359 298.294 503.431 297.906 503.575 297.546C503.727 297.186 503.935 296.878 504.199 296.622C504.463 296.358 504.771 296.154 505.123 296.01C505.483 295.858 505.871 295.782 506.287 295.782C506.775 295.782 507.195 295.874 507.547 296.058C507.907 296.234 508.199 296.454 508.423 296.718C508.655 296.982 508.823 297.27 508.927 297.582C509.039 297.894 509.095 298.182 509.095 298.446V299.214H504.295ZM506.287 296.67C506.023 296.67 505.775 296.714 505.543 296.802C505.319 296.882 505.119 296.998 504.943 297.15C504.775 297.302 504.635 297.482 504.523 297.69C504.419 297.89 504.351 298.11 504.319 298.35H508.159C508.143 298.094 508.079 297.862 507.967 297.654C507.863 297.446 507.723 297.27 507.547 297.126C507.379 296.982 507.183 296.87 506.959 296.79C506.743 296.71 506.519 296.67 506.287 296.67ZM510.623 295.95H512.783V296.742H512.927C513.079 296.414 513.295 296.174 513.575 296.022C513.855 295.862 514.175 295.782 514.535 295.782C515.135 295.782 515.619 295.978 515.987 296.37C516.355 296.762 516.551 297.334 516.575 298.086L515.591 298.23C515.591 297.678 515.459 297.282 515.195 297.042C514.931 296.794 514.607 296.67 514.223 296.67C513.975 296.67 513.759 296.718 513.575 296.814C513.399 296.91 513.251 297.042 513.131 297.21C513.011 297.378 512.923 297.574 512.867 297.798C512.811 298.022 512.783 298.262 512.783 298.518V301.038H514.295V301.902H510.479V301.038H511.847V296.814H510.623V295.95ZM519.027 304.302H518.091V295.95H519.027V296.886H519.171C519.379 296.526 519.667 296.254 520.035 296.07C520.403 295.878 520.803 295.782 521.235 295.782C521.603 295.782 521.951 295.85 522.279 295.986C522.607 296.122 522.895 296.318 523.143 296.574C523.399 296.83 523.599 297.146 523.743 297.522C523.895 297.898 523.971 298.326 523.971 298.806V299.046C523.971 299.534 523.899 299.966 523.755 300.342C523.611 300.718 523.411 301.034 523.155 301.29C522.907 301.546 522.615 301.742 522.279 301.878C521.943 302.006 521.587 302.07 521.211 302.07C521.019 302.07 520.823 302.046 520.623 301.998C520.423 301.958 520.231 301.894 520.047 301.806C519.871 301.71 519.707 301.598 519.555 301.47C519.403 301.334 519.275 301.174 519.171 300.99H519.027V304.302ZM521.019 301.182C521.307 301.182 521.571 301.134 521.811 301.038C522.051 300.934 522.259 300.79 522.435 300.606C522.619 300.422 522.759 300.198 522.855 299.934C522.959 299.67 523.011 299.374 523.011 299.046V298.806C523.011 298.486 522.959 298.198 522.855 297.942C522.759 297.678 522.619 297.454 522.435 297.27C522.259 297.078 522.047 296.93 521.799 296.826C521.559 296.722 521.299 296.67 521.019 296.67C520.739 296.67 520.479 296.726 520.239 296.838C519.999 296.942 519.787 297.09 519.603 297.282C519.427 297.474 519.287 297.706 519.183 297.978C519.079 298.242 519.027 298.534 519.027 298.854V298.998C519.027 299.326 519.079 299.626 519.183 299.898C519.287 300.162 519.427 300.39 519.603 300.582C519.787 300.774 519.999 300.922 520.239 301.026C520.479 301.13 520.739 301.182 521.019 301.182ZM525.318 295.95H527.478V296.742H527.622C527.774 296.414 527.99 296.174 528.27 296.022C528.55 295.862 528.87 295.782 529.23 295.782C529.83 295.782 530.314 295.978 530.682 296.37C531.05 296.762 531.246 297.334 531.27 298.086L530.286 298.23C530.286 297.678 530.154 297.282 529.89 297.042C529.626 296.794 529.302 296.67 528.918 296.67C528.67 296.67 528.454 296.718 528.27 296.814C528.094 296.91 527.946 297.042 527.826 297.21C527.706 297.378 527.618 297.574 527.562 297.798C527.506 298.022 527.478 298.262 527.478 298.518V301.038H528.99V301.902H525.174V301.038H526.542V296.814H525.318V295.95ZM534.85 294.174C534.85 293.942 534.93 293.746 535.09 293.586C535.258 293.418 535.458 293.334 535.69 293.334C535.922 293.334 536.118 293.418 536.278 293.586C536.446 293.746 536.53 293.942 536.53 294.174C536.53 294.406 536.446 294.606 536.278 294.774C536.118 294.934 535.922 295.014 535.69 295.014C535.458 295.014 535.258 294.934 535.09 294.774C534.93 294.606 534.85 294.406 534.85 294.174ZM533.146 301.038H535.234V296.814H533.362V295.95H536.17V301.038H538.114V301.902H533.146V301.038ZM541.586 297.486C541.586 297.774 541.706 297.994 541.946 298.146C542.194 298.298 542.642 298.398 543.29 298.446C543.986 298.502 544.514 298.67 544.874 298.95C545.242 299.222 545.426 299.622 545.426 300.15V300.222C545.426 300.51 545.366 300.77 545.246 301.002C545.134 301.226 544.974 301.418 544.766 301.578C544.566 301.738 544.318 301.858 544.022 301.938C543.734 302.026 543.418 302.07 543.074 302.07C542.61 302.07 542.21 302.01 541.874 301.89C541.546 301.762 541.27 301.598 541.046 301.398C540.83 301.19 540.666 300.958 540.554 300.702C540.442 300.438 540.378 300.174 540.362 299.91L541.25 299.694C541.29 300.15 541.466 300.518 541.778 300.798C542.09 301.07 542.506 301.206 543.026 301.206C543.466 301.206 543.818 301.122 544.082 300.954C544.354 300.778 544.49 300.534 544.49 300.222C544.49 299.886 544.358 299.646 544.094 299.502C543.83 299.358 543.402 299.266 542.81 299.226C542.122 299.178 541.594 299.018 541.226 298.746C540.858 298.474 540.674 298.078 540.674 297.558V297.486C540.674 297.206 540.734 296.962 540.854 296.754C540.974 296.538 541.134 296.358 541.334 296.214C541.542 296.07 541.774 295.962 542.03 295.89C542.286 295.818 542.554 295.782 542.834 295.782C543.226 295.782 543.57 295.838 543.866 295.95C544.162 296.054 544.41 296.194 544.61 296.37C544.81 296.538 544.962 296.734 545.066 296.958C545.178 297.182 545.25 297.406 545.282 297.63L544.394 297.846C544.354 297.462 544.198 297.162 543.926 296.946C543.662 296.73 543.314 296.622 542.882 296.622C542.714 296.622 542.55 296.642 542.39 296.682C542.238 296.714 542.102 296.766 541.982 296.838C541.862 296.91 541.766 297.002 541.694 297.114C541.622 297.218 541.586 297.342 541.586 297.486ZM548.381 299.214C548.405 299.806 548.589 300.282 548.933 300.642C549.277 301.002 549.757 301.182 550.373 301.182C550.653 301.182 550.897 301.15 551.105 301.086C551.313 301.022 551.489 300.934 551.633 300.822C551.785 300.71 551.905 300.582 551.993 300.438C552.089 300.286 552.165 300.126 552.221 299.958L553.109 300.198C552.941 300.75 552.629 301.202 552.173 301.554C551.725 301.898 551.117 302.07 550.349 302.07C549.925 302.07 549.533 301.998 549.173 301.854C548.821 301.702 548.517 301.49 548.261 301.218C548.005 300.946 547.805 300.622 547.661 300.246C547.517 299.87 547.445 299.454 547.445 298.998V298.71C547.445 298.294 547.517 297.906 547.661 297.546C547.813 297.186 548.021 296.878 548.285 296.622C548.549 296.358 548.857 296.154 549.209 296.01C549.569 295.858 549.957 295.782 550.373 295.782C550.861 295.782 551.281 295.874 551.633 296.058C551.993 296.234 552.285 296.454 552.509 296.718C552.741 296.982 552.909 297.27 553.013 297.582C553.125 297.894 553.181 298.182 553.181 298.446V299.214H548.381ZM550.373 296.67C550.109 296.67 549.861 296.714 549.629 296.802C549.405 296.882 549.205 296.998 549.029 297.15C548.861 297.302 548.721 297.482 548.609 297.69C548.505 297.89 548.437 298.11 548.405 298.35H552.245C552.229 298.094 552.165 297.862 552.053 297.654C551.949 297.446 551.809 297.27 551.633 297.126C551.465 296.982 551.269 296.87 551.045 296.79C550.829 296.71 550.605 296.67 550.373 296.67Z" fill="white"/>
<path d="M517.44 75.958C517.343 75.8603 517.185 75.8603 517.087 75.958L515.496 77.549C515.398 77.6466 515.398 77.8049 515.496 77.9025C515.594 78.0001 515.752 78.0001 515.849 77.9025L517.264 76.4883L518.678 77.9025C518.776 78.0001 518.934 78.0001 519.031 77.9025C519.129 77.8049 519.129 77.6466 519.031 77.549L517.44 75.958ZM517.514 130.324L517.514 129.357L517.014 129.357L517.014 130.324L517.514 130.324ZM517.514 127.421L517.514 125.486L517.014 125.486L517.014 127.421L517.514 127.421ZM517.514 123.551L517.514 121.615L517.014 121.615L517.014 123.551L517.514 123.551ZM517.514 119.68L517.514 117.745L517.014 117.745L517.014 119.68L517.514 119.68ZM517.514 115.809L517.514 113.874L517.014 113.874L517.014 115.809L517.514 115.809ZM517.514 111.939L517.514 110.003L517.014 110.003L517.014 111.939L517.514 111.939ZM517.514 108.068L517.514 106.132L517.014 106.132L517.014 108.068L517.514 108.068ZM517.514 104.197L517.514 102.262L517.014 102.262L517.014 104.197L517.514 104.197ZM517.514 100.326L517.514 98.3911L517.014 98.3911L517.014 100.326L517.514 100.326ZM517.514 96.4558L517.514 94.5205L517.014 94.5205L517.014 96.4558L517.514 96.4558ZM517.514 92.5851L517.514 90.6498L517.014 90.6498L517.014 92.5851L517.514 92.5851ZM517.514 88.7144L517.514 86.7791L517.014 86.7791L517.014 88.7144L517.514 88.7144ZM517.514 84.8438L517.514 82.9084L517.014 82.9084L517.014 84.8438L517.514 84.8438ZM517.514 80.9731L517.514 79.0378L517.014 79.0378L517.014 80.9731L517.514 80.9731ZM517.514 77.1024L517.514 76.1347L517.014 76.1347L517.014 77.1024L517.514 77.1024ZM517.44 75.958C517.343 75.8603 517.185 75.8603 517.087 75.958L515.496 77.549C515.398 77.6466 515.398 77.8049 515.496 77.9025C515.594 78.0001 515.752 78.0001 515.849 77.9025L517.264 76.4883L518.678 77.9025C518.776 78.0001 518.934 78.0001 519.031 77.9025C519.129 77.8049 519.129 77.6466 519.031 77.549L517.44 75.958ZM517.514 130.324L517.514 129.357L517.014 129.357L517.014 130.324L517.514 130.324ZM517.514 127.421L517.514 125.486L517.014 125.486L517.014 127.421L517.514 127.421ZM517.514 123.551L517.514 121.615L517.014 121.615L517.014 123.551L517.514 123.551ZM517.514 119.68L517.514 117.745L517.014 117.745L517.014 119.68L517.514 119.68ZM517.514 115.809L517.514 113.874L517.014 113.874L517.014 115.809L517.514 115.809ZM517.514 111.939L517.514 110.003L517.014 110.003L517.014 111.939L517.514 111.939ZM517.514 108.068L517.514 106.132L517.014 106.132L517.014 108.068L517.514 108.068ZM517.514 104.197L517.514 102.262L517.014 102.262L517.014 104.197L517.514 104.197ZM517.514 100.326L517.514 98.3911L517.014 98.3911L517.014 100.326L517.514 100.326ZM517.514 96.4558L517.514 94.5205L517.014 94.5205L517.014 96.4558L517.514 96.4558ZM517.514 92.5851L517.514 90.6498L517.014 90.6498L517.014 92.5851L517.514 92.5851ZM517.514 88.7144L517.514 86.7791L517.014 86.7791L517.014 88.7144L517.514 88.7144ZM517.514 84.8438L517.514 82.9084L517.014 82.9084L517.014 84.8438L517.514 84.8438ZM517.514 80.9731L517.514 79.0378L517.014 79.0378L517.014 80.9731L517.514 80.9731ZM517.514 77.1024L517.514 76.1347L517.014 76.1347L517.014 77.1024L517.514 77.1024Z" fill="white"/>
<path d="M60.6027 105.197H59.0727L58.4227 98.5573H58.3027L57.6527 105.197H56.1227L55.4127 98.1973H56.1727L56.8427 104.837H56.9627L57.5927 98.1973H59.1327L59.7627 104.837H59.8827L60.5527 98.1973H61.3127L60.6027 105.197ZM62.0157 100.237H63.8157V100.897H63.9357C64.0624 100.624 64.2424 100.424 64.4757 100.297C64.7091 100.164 64.9757 100.097 65.2757 100.097C65.7757 100.097 66.1791 100.261 66.4857 100.587C66.7924 100.914 66.9557 101.391 66.9757 102.017L66.1557 102.137C66.1557 101.677 66.0457 101.347 65.8257 101.147C65.6057 100.941 65.3357 100.837 65.0157 100.837C64.8091 100.837 64.6291 100.877 64.4757 100.957C64.3291 101.037 64.2057 101.147 64.1057 101.287C64.0057 101.427 63.9324 101.591 63.8857 101.777C63.8391 101.964 63.8157 102.164 63.8157 102.377V104.477H65.0757V105.197H61.8957V104.477H63.0357V100.957H62.0157V100.237ZM69.9588 98.7573C69.9588 98.5639 70.0254 98.4006 70.1588 98.2673C70.2988 98.1273 70.4654 98.0573 70.6588 98.0573C70.8521 98.0573 71.0154 98.1273 71.1488 98.2673C71.2888 98.4006 71.3588 98.5639 71.3588 98.7573C71.3588 98.9506 71.2888 99.1173 71.1488 99.2573C71.0154 99.3906 70.8521 99.4573 70.6588 99.4573C70.4654 99.4573 70.2988 99.3906 70.1588 99.2573C70.0254 99.1173 69.9588 98.9506 69.9588 98.7573ZM68.5388 104.477H70.2788V100.957H68.7188V100.237H71.0588V104.477H72.6788V105.197H68.5388V104.477ZM74.3718 100.237H75.9318V98.1973H76.7118V100.237H78.6318V100.957H76.7118V104.177C76.7118 104.377 76.8018 104.477 76.9818 104.477H78.3918V105.197H76.7018C76.4752 105.197 76.2885 105.124 76.1418 104.977C76.0018 104.831 75.9318 104.644 75.9318 104.417V100.957H74.3718V100.237ZM81.2349 102.957C81.2549 103.451 81.4082 103.847 81.6949 104.147C81.9815 104.447 82.3815 104.597 82.8949 104.597C83.1282 104.597 83.3315 104.571 83.5049 104.517C83.6782 104.464 83.8249 104.391 83.9449 104.297C84.0715 104.204 84.1715 104.097 84.2449 103.977C84.3249 103.851 84.3882 103.717 84.4349 103.577L85.1749 103.777C85.0349 104.237 84.7749 104.614 84.3949 104.907C84.0215 105.194 83.5149 105.337 82.8749 105.337C82.5215 105.337 82.1949 105.277 81.8949 105.157C81.6015 105.031 81.3482 104.854 81.1349 104.627C80.9215 104.401 80.7549 104.131 80.6349 103.817C80.5149 103.504 80.4549 103.157 80.4549 102.777V102.537C80.4549 102.191 80.5149 101.867 80.6349 101.567C80.7615 101.267 80.9349 101.011 81.1549 100.797C81.3749 100.577 81.6315 100.407 81.9249 100.287C82.2249 100.161 82.5482 100.097 82.8949 100.097C83.3015 100.097 83.6515 100.174 83.9449 100.327C84.2449 100.474 84.4882 100.657 84.6749 100.877C84.8682 101.097 85.0082 101.337 85.0949 101.597C85.1882 101.857 85.2349 102.097 85.2349 102.317V102.957H81.2349ZM82.8949 100.837C82.6749 100.837 82.4682 100.874 82.2749 100.947C82.0882 101.014 81.9215 101.111 81.7749 101.237C81.6349 101.364 81.5182 101.514 81.4249 101.687C81.3382 101.854 81.2815 102.037 81.2549 102.237H84.4549C84.4415 102.024 84.3882 101.831 84.2949 101.657C84.2082 101.484 84.0915 101.337 83.9449 101.217C83.8049 101.097 83.6415 101.004 83.4549 100.937C83.2749 100.871 83.0882 100.837 82.8949 100.837Z" fill="white"/>
<path d="M166.414 215.191H171.334V215.971H169.294V222.191H168.454V215.971H166.414V215.191ZM172.527 217.231H174.327V217.891H174.447C174.573 217.618 174.753 217.418 174.987 217.291C175.22 217.158 175.487 217.091 175.787 217.091C176.287 217.091 176.69 217.255 176.997 217.581C177.303 217.908 177.467 218.385 177.487 219.011L176.667 219.131C176.667 218.671 176.557 218.341 176.337 218.141C176.117 217.935 175.847 217.831 175.527 217.831C175.32 217.831 175.14 217.871 174.987 217.951C174.84 218.031 174.717 218.141 174.617 218.281C174.517 218.421 174.443 218.585 174.397 218.771C174.35 218.958 174.327 219.158 174.327 219.371V221.471H175.587V222.191H172.407V221.471H173.547V217.951H172.527V217.231ZM182.53 221.351H182.41C182.25 221.685 182.026 221.931 181.74 222.091C181.46 222.251 181.163 222.331 180.85 222.331C180.523 222.331 180.22 222.278 179.94 222.171C179.66 222.058 179.413 221.895 179.2 221.681C178.993 221.461 178.83 221.195 178.71 220.881C178.59 220.568 178.53 220.205 178.53 219.791V219.631C178.53 219.225 178.59 218.865 178.71 218.551C178.83 218.238 178.993 217.975 179.2 217.761C179.413 217.541 179.66 217.375 179.94 217.261C180.22 217.148 180.516 217.091 180.83 217.091C181.17 217.091 181.476 217.168 181.75 217.321C182.03 217.468 182.25 217.698 182.41 218.011H182.53V217.231H183.31V221.171C183.31 221.371 183.4 221.471 183.58 221.471H183.83V222.191H183.3C183.073 222.191 182.886 222.118 182.74 221.971C182.6 221.825 182.53 221.638 182.53 221.411V221.351ZM180.93 221.591C181.163 221.591 181.376 221.548 181.57 221.461C181.77 221.375 181.94 221.251 182.08 221.091C182.22 220.931 182.33 220.741 182.41 220.521C182.49 220.295 182.53 220.045 182.53 219.771V219.651C182.53 219.385 182.49 219.141 182.41 218.921C182.33 218.695 182.216 218.501 182.07 218.341C181.93 218.181 181.76 218.058 181.56 217.971C181.366 217.878 181.156 217.831 180.93 217.831C180.696 217.831 180.483 217.875 180.29 217.961C180.096 218.048 179.926 218.171 179.78 218.331C179.64 218.485 179.53 218.675 179.45 218.901C179.37 219.121 179.33 219.365 179.33 219.631V219.791C179.33 220.358 179.476 220.801 179.77 221.121C180.07 221.435 180.456 221.591 180.93 221.591ZM189.693 220.431C189.639 220.705 189.546 220.958 189.413 221.191C189.286 221.425 189.123 221.628 188.923 221.801C188.723 221.968 188.489 222.098 188.223 222.191C187.956 222.285 187.659 222.331 187.333 222.331C186.986 222.331 186.656 222.275 186.343 222.161C186.036 222.048 185.766 221.885 185.533 221.671C185.299 221.451 185.113 221.185 184.973 220.871C184.839 220.558 184.773 220.198 184.773 219.791V219.671C184.773 219.271 184.839 218.911 184.973 218.591C185.113 218.271 185.299 218.001 185.533 217.781C185.766 217.561 186.036 217.391 186.343 217.271C186.656 217.151 186.986 217.091 187.333 217.091C187.646 217.091 187.936 217.138 188.203 217.231C188.469 217.325 188.703 217.458 188.903 217.631C189.109 217.798 189.276 217.998 189.403 218.231C189.536 218.465 189.626 218.718 189.673 218.991L188.893 219.171C188.873 218.998 188.823 218.831 188.743 218.671C188.669 218.505 188.566 218.361 188.433 218.241C188.306 218.115 188.149 218.015 187.963 217.941C187.776 217.868 187.559 217.831 187.313 217.831C187.073 217.831 186.846 217.878 186.633 217.971C186.426 218.058 186.243 218.185 186.083 218.351C185.923 218.511 185.796 218.705 185.703 218.931C185.616 219.158 185.573 219.405 185.573 219.671V219.791C185.573 220.071 185.616 220.325 185.703 220.551C185.796 220.771 185.923 220.958 186.083 221.111C186.243 221.265 186.429 221.385 186.643 221.471C186.856 221.551 187.086 221.591 187.333 221.591C187.579 221.591 187.793 221.555 187.973 221.481C188.159 221.401 188.316 221.301 188.443 221.181C188.576 221.055 188.679 220.911 188.753 220.751C188.833 220.591 188.886 220.425 188.913 220.251L189.693 220.431ZM192.456 219.291H192.626L194.516 217.231H195.476V217.291L193.416 219.561V219.741L195.716 222.131V222.191H194.756L192.646 220.011H192.456V222.191H191.676V215.191H192.456V219.291ZM205.652 221.551C205.939 221.551 206.182 221.505 206.382 221.411C206.589 221.311 206.755 221.181 206.882 221.021C207.015 220.855 207.112 220.668 207.172 220.461C207.239 220.248 207.272 220.025 207.272 219.791V219.671H208.112V219.791C208.112 220.145 208.059 220.478 207.952 220.791C207.845 221.098 207.689 221.368 207.482 221.601C207.275 221.828 207.019 222.008 206.712 222.141C206.405 222.268 206.052 222.331 205.652 222.331C204.879 222.331 204.275 222.088 203.842 221.601C203.409 221.115 203.192 220.405 203.192 219.471V217.911C203.192 217.005 203.409 216.301 203.842 215.801C204.275 215.301 204.879 215.051 205.652 215.051C206.052 215.051 206.405 215.118 206.712 215.251C207.019 215.378 207.275 215.558 207.482 215.791C207.689 216.018 207.845 216.288 207.952 216.601C208.059 216.908 208.112 217.238 208.112 217.591V217.711H207.272V217.591C207.265 217.365 207.229 217.145 207.162 216.931C207.102 216.718 207.005 216.531 206.872 216.371C206.745 216.205 206.582 216.075 206.382 215.981C206.182 215.881 205.939 215.831 205.652 215.831C205.112 215.831 204.705 216.028 204.432 216.421C204.165 216.815 204.032 217.331 204.032 217.971V219.411C204.032 220.098 204.165 220.628 204.432 221.001C204.705 221.368 205.112 221.551 205.652 221.551ZM210.325 222.191H209.545V215.191H210.325V218.131H210.445C210.598 217.811 210.812 217.558 211.085 217.371C211.365 217.185 211.705 217.091 212.105 217.091C212.645 217.091 213.082 217.271 213.415 217.631C213.755 217.985 213.925 218.518 213.925 219.231V222.191H213.145V219.391C213.145 218.871 213.028 218.481 212.795 218.221C212.562 217.961 212.245 217.831 211.845 217.831C211.372 217.831 210.998 217.995 210.725 218.321C210.458 218.641 210.325 219.071 210.325 219.611V222.191ZM219.268 221.351H219.148C218.988 221.685 218.765 221.931 218.478 222.091C218.198 222.251 217.901 222.331 217.588 222.331C217.261 222.331 216.958 222.278 216.678 222.171C216.398 222.058 216.151 221.895 215.938 221.681C215.731 221.461 215.568 221.195 215.448 220.881C215.328 220.568 215.268 220.205 215.268 219.791V219.631C215.268 219.225 215.328 218.865 215.448 218.551C215.568 218.238 215.731 217.975 215.938 217.761C216.151 217.541 216.398 217.375 216.678 217.261C216.958 217.148 217.255 217.091 217.568 217.091C217.908 217.091 218.215 217.168 218.488 217.321C218.768 217.468 218.988 217.698 219.148 218.011H219.268V217.231H220.048V221.171C220.048 221.371 220.138 221.471 220.318 221.471H220.568V222.191H220.038C219.811 222.191 219.625 222.118 219.478 221.971C219.338 221.825 219.268 221.638 219.268 221.411V221.351ZM217.668 221.591C217.901 221.591 218.115 221.548 218.308 221.461C218.508 221.375 218.678 221.251 218.818 221.091C218.958 220.931 219.068 220.741 219.148 220.521C219.228 220.295 219.268 220.045 219.268 219.771V219.651C219.268 219.385 219.228 219.141 219.148 218.921C219.068 218.695 218.955 218.501 218.808 218.341C218.668 218.181 218.498 218.058 218.298 217.971C218.105 217.878 217.895 217.831 217.668 217.831C217.435 217.831 217.221 217.875 217.028 217.961C216.835 218.048 216.665 218.171 216.518 218.331C216.378 218.485 216.268 218.675 216.188 218.901C216.108 219.121 216.068 219.365 216.068 219.631V219.791C216.068 220.358 216.215 220.801 216.508 221.121C216.808 221.435 217.195 221.591 217.668 221.591ZM222.571 222.191H221.791V217.231H222.571V218.071H222.691C222.998 217.418 223.531 217.091 224.291 217.091C224.864 217.091 225.321 217.271 225.661 217.631C226.001 217.985 226.171 218.518 226.171 219.231V222.191H225.391V219.391C225.391 218.871 225.274 218.481 225.041 218.221C224.808 217.961 224.491 217.831 224.091 217.831C223.618 217.831 223.244 217.995 222.971 218.321C222.704 218.641 222.571 219.071 222.571 219.611V222.191ZM231.684 221.431H231.564C231.404 221.731 231.184 221.958 230.904 222.111C230.631 222.258 230.331 222.331 230.004 222.331C229.671 222.331 229.357 222.275 229.064 222.161C228.771 222.048 228.511 221.885 228.284 221.671C228.064 221.458 227.887 221.195 227.754 220.881C227.627 220.561 227.564 220.198 227.564 219.791V219.631C227.564 219.231 227.631 218.875 227.764 218.561C227.897 218.241 228.074 217.975 228.294 217.761C228.514 217.541 228.771 217.375 229.064 217.261C229.357 217.148 229.664 217.091 229.984 217.091C230.344 217.091 230.657 217.171 230.924 217.331C231.197 217.485 231.411 217.711 231.564 218.011H231.684V217.231H232.464V223.411C232.464 223.638 232.391 223.825 232.244 223.971C232.104 224.118 231.921 224.191 231.694 224.191H228.464V223.471H231.414C231.594 223.471 231.684 223.371 231.684 223.171V221.431ZM230.024 221.591C230.257 221.591 230.474 221.548 230.674 221.461C230.874 221.375 231.047 221.251 231.194 221.091C231.347 220.931 231.467 220.741 231.554 220.521C231.641 220.295 231.684 220.045 231.684 219.771V219.651C231.684 219.385 231.641 219.141 231.554 218.921C231.467 218.695 231.347 218.501 231.194 218.341C231.047 218.181 230.871 218.058 230.664 217.971C230.464 217.878 230.251 217.831 230.024 217.831C229.791 217.831 229.571 217.875 229.364 217.961C229.164 218.048 228.987 218.171 228.834 218.331C228.687 218.491 228.571 218.681 228.484 218.901C228.404 219.121 228.364 219.365 228.364 219.631V219.791C228.364 220.071 228.404 220.321 228.484 220.541C228.571 220.761 228.687 220.951 228.834 221.111C228.987 221.265 229.164 221.385 229.364 221.471C229.564 221.551 229.784 221.591 230.024 221.591ZM234.607 219.951C234.627 220.445 234.78 220.841 235.067 221.141C235.354 221.441 235.754 221.591 236.267 221.591C236.5 221.591 236.704 221.565 236.877 221.511C237.05 221.458 237.197 221.385 237.317 221.291C237.444 221.198 237.544 221.091 237.617 220.971C237.697 220.845 237.76 220.711 237.807 220.571L238.547 220.771C238.407 221.231 238.147 221.608 237.767 221.901C237.394 222.188 236.887 222.331 236.247 222.331C235.894 222.331 235.567 222.271 235.267 222.151C234.974 222.025 234.72 221.848 234.507 221.621C234.294 221.395 234.127 221.125 234.007 220.811C233.887 220.498 233.827 220.151 233.827 219.771V219.531C233.827 219.185 233.887 218.861 234.007 218.561C234.134 218.261 234.307 218.005 234.527 217.791C234.747 217.571 235.004 217.401 235.297 217.281C235.597 217.155 235.92 217.091 236.267 217.091C236.674 217.091 237.024 217.168 237.317 217.321C237.617 217.468 237.86 217.651 238.047 217.871C238.24 218.091 238.38 218.331 238.467 218.591C238.56 218.851 238.607 219.091 238.607 219.311V219.951H234.607ZM236.267 217.831C236.047 217.831 235.84 217.868 235.647 217.941C235.46 218.008 235.294 218.105 235.147 218.231C235.007 218.358 234.89 218.508 234.797 218.681C234.71 218.848 234.654 219.031 234.627 219.231H237.827C237.814 219.018 237.76 218.825 237.667 218.651C237.58 218.478 237.464 218.331 237.317 218.211C237.177 218.091 237.014 217.998 236.827 217.931C236.647 217.865 236.46 217.831 236.267 217.831ZM241.19 218.511C241.19 218.751 241.29 218.935 241.49 219.061C241.697 219.188 242.07 219.271 242.61 219.311C243.19 219.358 243.63 219.498 243.93 219.731C244.237 219.958 244.39 220.291 244.39 220.731V220.791C244.39 221.031 244.34 221.248 244.24 221.441C244.147 221.628 244.013 221.788 243.84 221.921C243.673 222.055 243.467 222.155 243.22 222.221C242.98 222.295 242.717 222.331 242.43 222.331C242.043 222.331 241.71 222.281 241.43 222.181C241.157 222.075 240.927 221.938 240.74 221.771C240.56 221.598 240.423 221.405 240.33 221.191C240.237 220.971 240.183 220.751 240.17 220.531L240.91 220.351C240.943 220.731 241.09 221.038 241.35 221.271C241.61 221.498 241.957 221.611 242.39 221.611C242.757 221.611 243.05 221.541 243.27 221.401C243.497 221.255 243.61 221.051 243.61 220.791C243.61 220.511 243.5 220.311 243.28 220.191C243.06 220.071 242.703 219.995 242.21 219.961C241.637 219.921 241.197 219.788 240.89 219.561C240.583 219.335 240.43 219.005 240.43 218.571V218.511C240.43 218.278 240.48 218.075 240.58 217.901C240.68 217.721 240.813 217.571 240.98 217.451C241.153 217.331 241.347 217.241 241.56 217.181C241.773 217.121 241.997 217.091 242.23 217.091C242.557 217.091 242.843 217.138 243.09 217.231C243.337 217.318 243.543 217.435 243.71 217.581C243.877 217.721 244.003 217.885 244.09 218.071C244.183 218.258 244.243 218.445 244.27 218.631L243.53 218.811C243.497 218.491 243.367 218.241 243.14 218.061C242.92 217.881 242.63 217.791 242.27 217.791C242.13 217.791 241.993 217.808 241.86 217.841C241.733 217.868 241.62 217.911 241.52 217.971C241.42 218.031 241.34 218.108 241.28 218.201C241.22 218.288 241.19 218.391 241.19 218.511ZM195.766 238.011V238.751H195.406C194.939 238.751 194.492 238.665 194.066 238.491C193.639 238.318 193.262 238.065 192.936 237.731C192.609 237.405 192.349 237.008 192.156 236.541C191.962 236.075 191.866 235.545 191.866 234.951V232.431C191.866 231.845 191.962 231.318 192.156 230.851C192.349 230.378 192.609 229.978 192.936 229.651C193.262 229.318 193.639 229.065 194.066 228.891C194.492 228.718 194.939 228.631 195.406 228.631H195.766V229.371H195.406C195.046 229.371 194.699 229.445 194.366 229.591C194.032 229.731 193.739 229.935 193.486 230.201C193.232 230.468 193.029 230.795 192.876 231.181C192.722 231.561 192.646 231.991 192.646 232.471V234.911C192.646 235.391 192.722 235.825 192.876 236.211C193.029 236.591 193.232 236.915 193.486 237.181C193.739 237.448 194.032 237.651 194.366 237.791C194.699 237.938 195.046 238.011 195.406 238.011H195.766ZM199.529 236.551C199.815 236.551 200.059 236.505 200.259 236.411C200.465 236.311 200.632 236.181 200.759 236.021C200.892 235.855 200.989 235.668 201.049 235.461C201.115 235.248 201.149 235.025 201.149 234.791V234.671H201.989V234.791C201.989 235.145 201.935 235.478 201.829 235.791C201.722 236.098 201.565 236.368 201.359 236.601C201.152 236.828 200.895 237.008 200.589 237.141C200.282 237.268 199.929 237.331 199.529 237.331C198.755 237.331 198.152 237.088 197.719 236.601C197.285 236.115 197.069 235.405 197.069 234.471V232.911C197.069 232.005 197.285 231.301 197.719 230.801C198.152 230.301 198.755 230.051 199.529 230.051C199.929 230.051 200.282 230.118 200.589 230.251C200.895 230.378 201.152 230.558 201.359 230.791C201.565 231.018 201.722 231.288 201.829 231.601C201.935 231.908 201.989 232.238 201.989 232.591V232.711H201.149V232.591C201.142 232.365 201.105 232.145 201.039 231.931C200.979 231.718 200.882 231.531 200.749 231.371C200.622 231.205 200.459 231.075 200.259 230.981C200.059 230.881 199.815 230.831 199.529 230.831C198.989 230.831 198.582 231.028 198.309 231.421C198.042 231.815 197.909 232.331 197.909 232.971V234.411C197.909 235.098 198.042 235.628 198.309 236.001C198.582 236.368 198.989 236.551 199.529 236.551ZM203.282 230.191H205.582C206.449 230.191 207.082 230.398 207.482 230.811C207.882 231.225 208.082 231.885 208.082 232.791V234.591C208.082 235.498 207.882 236.158 207.482 236.571C207.082 236.985 206.449 237.191 205.582 237.191H203.282V236.401H203.882V230.971H203.282V230.191ZM205.462 236.411C205.769 236.411 206.032 236.381 206.252 236.321C206.479 236.261 206.665 236.161 206.812 236.021C206.959 235.875 207.065 235.681 207.132 235.441C207.205 235.201 207.242 234.898 207.242 234.531V232.851C207.242 232.485 207.205 232.181 207.132 231.941C207.065 231.701 206.959 231.511 206.812 231.371C206.665 231.225 206.479 231.121 206.252 231.061C206.032 231.001 205.769 230.971 205.462 230.971H204.722V236.411H205.462ZM211.775 236.551C212.062 236.551 212.305 236.505 212.505 236.411C212.712 236.311 212.878 236.181 213.005 236.021C213.138 235.855 213.235 235.668 213.295 235.461C213.362 235.248 213.395 235.025 213.395 234.791V234.671H214.235V234.791C214.235 235.145 214.182 235.478 214.075 235.791C213.968 236.098 213.812 236.368 213.605 236.601C213.398 236.828 213.142 237.008 212.835 237.141C212.528 237.268 212.175 237.331 211.775 237.331C211.002 237.331 210.398 237.088 209.965 236.601C209.532 236.115 209.315 235.405 209.315 234.471V232.911C209.315 232.005 209.532 231.301 209.965 230.801C210.398 230.301 211.002 230.051 211.775 230.051C212.175 230.051 212.528 230.118 212.835 230.251C213.142 230.378 213.398 230.558 213.605 230.791C213.812 231.018 213.968 231.288 214.075 231.601C214.182 231.908 214.235 232.238 214.235 232.591V232.711H213.395V232.591C213.388 232.365 213.352 232.145 213.285 231.931C213.225 231.718 213.128 231.531 212.995 231.371C212.868 231.205 212.705 231.075 212.505 230.981C212.305 230.881 212.062 230.831 211.775 230.831C211.235 230.831 210.828 231.028 210.555 231.421C210.288 231.815 210.155 232.331 210.155 232.971V234.411C210.155 235.098 210.288 235.628 210.555 236.001C210.828 236.368 211.235 236.551 211.775 236.551ZM215.818 238.011C216.178 238.011 216.525 237.938 216.858 237.791C217.191 237.651 217.485 237.448 217.738 237.181C217.991 236.915 218.195 236.591 218.348 236.211C218.501 235.825 218.578 235.391 218.578 234.911V232.471C218.578 231.991 218.501 231.561 218.348 231.181C218.195 230.795 217.991 230.468 217.738 230.201C217.485 229.935 217.191 229.731 216.858 229.591C216.525 229.445 216.178 229.371 215.818 229.371H215.458V228.631H215.818C216.285 228.631 216.731 228.718 217.158 228.891C217.585 229.065 217.961 229.318 218.288 229.651C218.615 229.978 218.875 230.378 219.068 230.851C219.261 231.318 219.358 231.845 219.358 232.431V234.951C219.358 235.545 219.261 236.075 219.068 236.541C218.875 237.008 218.615 237.405 218.288 237.731C217.961 238.065 217.585 238.318 217.158 238.491C216.731 238.665 216.285 238.751 215.818 238.751H215.458V238.011H215.818Z" fill="white"/>
<path d="M373.935 215.191V219.831C373.935 220.398 374.065 220.828 374.325 221.121C374.591 221.408 374.981 221.551 375.495 221.551C376.008 221.551 376.395 221.408 376.655 221.121C376.921 220.828 377.055 220.398 377.055 219.831V215.191H377.895V219.831C377.895 220.645 377.681 221.265 377.255 221.691C376.828 222.118 376.241 222.331 375.495 222.331C374.748 222.331 374.161 222.118 373.735 221.691C373.308 221.265 373.095 220.645 373.095 219.831V215.191H373.935ZM380.028 224.191H379.248V217.231H380.028V218.011H380.148C380.321 217.711 380.561 217.485 380.868 217.331C381.174 217.171 381.508 217.091 381.868 217.091C382.174 217.091 382.464 217.148 382.738 217.261C383.011 217.375 383.251 217.538 383.458 217.751C383.671 217.965 383.838 218.228 383.958 218.541C384.084 218.855 384.148 219.211 384.148 219.611V219.811C384.148 220.218 384.088 220.578 383.968 220.891C383.848 221.205 383.681 221.468 383.468 221.681C383.261 221.895 383.018 222.058 382.738 222.171C382.458 222.278 382.161 222.331 381.848 222.331C381.688 222.331 381.524 222.311 381.358 222.271C381.191 222.238 381.031 222.185 380.878 222.111C380.731 222.031 380.594 221.938 380.468 221.831C380.341 221.718 380.234 221.585 380.148 221.431H380.028V224.191ZM381.688 221.591C381.928 221.591 382.148 221.551 382.348 221.471C382.548 221.385 382.721 221.265 382.868 221.111C383.021 220.958 383.138 220.771 383.218 220.551C383.304 220.331 383.348 220.085 383.348 219.811V219.611C383.348 219.345 383.304 219.105 383.218 218.891C383.138 218.671 383.021 218.485 382.868 218.331C382.721 218.171 382.544 218.048 382.338 217.961C382.138 217.875 381.921 217.831 381.688 217.831C381.454 217.831 381.238 217.878 381.038 217.971C380.838 218.058 380.661 218.181 380.508 218.341C380.361 218.501 380.244 218.695 380.158 218.921C380.071 219.141 380.028 219.385 380.028 219.651V219.771C380.028 220.045 380.071 220.295 380.158 220.521C380.244 220.741 380.361 220.931 380.508 221.091C380.661 221.251 380.838 221.375 381.038 221.461C381.238 221.548 381.454 221.591 381.688 221.591ZM389.391 221.431H389.271C389.191 221.585 389.087 221.718 388.961 221.831C388.841 221.945 388.707 222.038 388.561 222.111C388.421 222.185 388.271 222.238 388.111 222.271C387.951 222.311 387.797 222.331 387.651 222.331C387.317 222.331 387.007 222.275 386.721 222.161C386.434 222.048 386.181 221.885 385.961 221.671C385.747 221.458 385.577 221.195 385.451 220.881C385.331 220.561 385.271 220.198 385.271 219.791V219.631C385.271 219.231 385.334 218.875 385.461 218.561C385.587 218.241 385.757 217.975 385.971 217.761C386.184 217.541 386.434 217.375 386.721 217.261C387.007 217.148 387.311 217.091 387.631 217.091C387.971 217.091 388.287 217.168 388.581 217.321C388.881 217.468 389.111 217.698 389.271 218.011H389.391V215.191H390.171V222.191H389.391V221.431ZM387.731 221.591C387.964 221.591 388.181 221.548 388.381 221.461C388.581 221.375 388.754 221.251 388.901 221.091C389.054 220.931 389.174 220.741 389.261 220.521C389.347 220.295 389.391 220.045 389.391 219.771V219.651C389.391 219.385 389.347 219.141 389.261 218.921C389.174 218.695 389.054 218.501 388.901 218.341C388.754 218.181 388.577 218.058 388.371 217.971C388.171 217.878 387.957 217.831 387.731 217.831C387.497 217.831 387.277 217.875 387.071 217.961C386.871 218.048 386.694 218.171 386.541 218.331C386.394 218.491 386.277 218.681 386.191 218.901C386.111 219.121 386.071 219.365 386.071 219.631V219.791C386.071 220.071 386.111 220.321 386.191 220.541C386.277 220.761 386.394 220.951 386.541 221.111C386.694 221.265 386.871 221.385 387.071 221.471C387.271 221.551 387.491 221.591 387.731 221.591ZM395.274 221.351H395.154C394.994 221.685 394.77 221.931 394.484 222.091C394.204 222.251 393.907 222.331 393.594 222.331C393.267 222.331 392.964 222.278 392.684 222.171C392.404 222.058 392.157 221.895 391.944 221.681C391.737 221.461 391.574 221.195 391.454 220.881C391.334 220.568 391.274 220.205 391.274 219.791V219.631C391.274 219.225 391.334 218.865 391.454 218.551C391.574 218.238 391.737 217.975 391.944 217.761C392.157 217.541 392.404 217.375 392.684 217.261C392.964 217.148 393.26 217.091 393.574 217.091C393.914 217.091 394.22 217.168 394.494 217.321C394.774 217.468 394.994 217.698 395.154 218.011H395.274V217.231H396.054V221.171C396.054 221.371 396.144 221.471 396.324 221.471H396.574V222.191H396.044C395.817 222.191 395.63 222.118 395.484 221.971C395.344 221.825 395.274 221.638 395.274 221.411V221.351ZM393.674 221.591C393.907 221.591 394.12 221.548 394.314 221.461C394.514 221.375 394.684 221.251 394.824 221.091C394.964 220.931 395.074 220.741 395.154 220.521C395.234 220.295 395.274 220.045 395.274 219.771V219.651C395.274 219.385 395.234 219.141 395.154 218.921C395.074 218.695 394.96 218.501 394.814 218.341C394.674 218.181 394.504 218.058 394.304 217.971C394.11 217.878 393.9 217.831 393.674 217.831C393.44 217.831 393.227 217.875 393.034 217.961C392.84 218.048 392.67 218.171 392.524 218.331C392.384 218.485 392.274 218.675 392.194 218.901C392.114 219.121 392.074 219.365 392.074 219.631V219.791C392.074 220.358 392.22 220.801 392.514 221.121C392.814 221.435 393.2 221.591 393.674 221.591ZM397.627 217.231H399.187V215.191H399.967V217.231H401.887V217.951H399.967V221.171C399.967 221.371 400.057 221.471 400.237 221.471H401.647V222.191H399.957C399.73 222.191 399.544 222.118 399.397 221.971C399.257 221.825 399.187 221.638 399.187 221.411V217.951H397.627V217.231ZM404.49 219.951C404.51 220.445 404.663 220.841 404.95 221.141C405.237 221.441 405.637 221.591 406.15 221.591C406.383 221.591 406.587 221.565 406.76 221.511C406.933 221.458 407.08 221.385 407.2 221.291C407.327 221.198 407.427 221.091 407.5 220.971C407.58 220.845 407.643 220.711 407.69 220.571L408.43 220.771C408.29 221.231 408.03 221.608 407.65 221.901C407.277 222.188 406.77 222.331 406.13 222.331C405.777 222.331 405.45 222.271 405.15 222.151C404.857 222.025 404.603 221.848 404.39 221.621C404.177 221.395 404.01 221.125 403.89 220.811C403.77 220.498 403.71 220.151 403.71 219.771V219.531C403.71 219.185 403.77 218.861 403.89 218.561C404.017 218.261 404.19 218.005 404.41 217.791C404.63 217.571 404.887 217.401 405.18 217.281C405.48 217.155 405.803 217.091 406.15 217.091C406.557 217.091 406.907 217.168 407.2 217.321C407.5 217.468 407.743 217.651 407.93 217.871C408.123 218.091 408.263 218.331 408.35 218.591C408.443 218.851 408.49 219.091 408.49 219.311V219.951H404.49ZM406.15 217.831C405.93 217.831 405.723 217.868 405.53 217.941C405.343 218.008 405.177 218.105 405.03 218.231C404.89 218.358 404.773 218.508 404.68 218.681C404.593 218.848 404.537 219.031 404.51 219.231H407.71C407.697 219.018 407.643 218.825 407.55 218.651C407.463 218.478 407.347 218.331 407.2 218.211C407.06 218.091 406.897 217.998 406.71 217.931C406.53 217.865 406.343 217.831 406.15 217.831ZM416.026 215.191H418.326C419.193 215.191 419.826 215.398 420.226 215.811C420.626 216.225 420.826 216.885 420.826 217.791V219.591C420.826 220.498 420.626 221.158 420.226 221.571C419.826 221.985 419.193 222.191 418.326 222.191H416.026V221.401H416.626V215.971H416.026V215.191ZM418.206 221.411C418.513 221.411 418.776 221.381 418.996 221.321C419.223 221.261 419.409 221.161 419.556 221.021C419.703 220.875 419.809 220.681 419.876 220.441C419.949 220.201 419.986 219.898 419.986 219.531V217.851C419.986 217.485 419.949 217.181 419.876 216.941C419.809 216.701 419.703 216.511 419.556 216.371C419.409 216.225 419.223 216.121 418.996 216.061C418.776 216.001 418.513 215.971 418.206 215.971H417.466V221.411H418.206ZM425.889 221.351H425.769C425.609 221.685 425.386 221.931 425.099 222.091C424.819 222.251 424.522 222.331 424.209 222.331C423.882 222.331 423.579 222.278 423.299 222.171C423.019 222.058 422.772 221.895 422.559 221.681C422.352 221.461 422.189 221.195 422.069 220.881C421.949 220.568 421.889 220.205 421.889 219.791V219.631C421.889 219.225 421.949 218.865 422.069 218.551C422.189 218.238 422.352 217.975 422.559 217.761C422.772 217.541 423.019 217.375 423.299 217.261C423.579 217.148 423.876 217.091 424.189 217.091C424.529 217.091 424.836 217.168 425.109 217.321C425.389 217.468 425.609 217.698 425.769 218.011H425.889V217.231H426.669V221.171C426.669 221.371 426.759 221.471 426.939 221.471H427.189V222.191H426.659C426.432 222.191 426.246 222.118 426.099 221.971C425.959 221.825 425.889 221.638 425.889 221.411V221.351ZM424.289 221.591C424.522 221.591 424.736 221.548 424.929 221.461C425.129 221.375 425.299 221.251 425.439 221.091C425.579 220.931 425.689 220.741 425.769 220.521C425.849 220.295 425.889 220.045 425.889 219.771V219.651C425.889 219.385 425.849 219.141 425.769 218.921C425.689 218.695 425.576 218.501 425.429 218.341C425.289 218.181 425.119 218.058 424.919 217.971C424.726 217.878 424.516 217.831 424.289 217.831C424.056 217.831 423.842 217.875 423.649 217.961C423.456 218.048 423.286 218.171 423.139 218.331C422.999 218.485 422.889 218.675 422.809 218.901C422.729 219.121 422.689 219.365 422.689 219.631V219.791C422.689 220.358 422.836 220.801 423.129 221.121C423.429 221.435 423.816 221.591 424.289 221.591ZM428.242 217.231H429.802V215.191H430.582V217.231H432.502V217.951H430.582V221.171C430.582 221.371 430.672 221.471 430.852 221.471H432.262V222.191H430.572C430.345 222.191 430.159 222.118 430.012 221.971C429.872 221.825 429.802 221.638 429.802 221.411V217.951H428.242V217.231ZM438.135 221.351H438.015C437.855 221.685 437.632 221.931 437.345 222.091C437.065 222.251 436.768 222.331 436.455 222.331C436.128 222.331 435.825 222.278 435.545 222.171C435.265 222.058 435.018 221.895 434.805 221.681C434.598 221.461 434.435 221.195 434.315 220.881C434.195 220.568 434.135 220.205 434.135 219.791V219.631C434.135 219.225 434.195 218.865 434.315 218.551C434.435 218.238 434.598 217.975 434.805 217.761C435.018 217.541 435.265 217.375 435.545 217.261C435.825 217.148 436.122 217.091 436.435 217.091C436.775 217.091 437.082 217.168 437.355 217.321C437.635 217.468 437.855 217.698 438.015 218.011H438.135V217.231H438.915V221.171C438.915 221.371 439.005 221.471 439.185 221.471H439.435V222.191H438.905C438.678 222.191 438.492 222.118 438.345 221.971C438.205 221.825 438.135 221.638 438.135 221.411V221.351ZM436.535 221.591C436.768 221.591 436.982 221.548 437.175 221.461C437.375 221.375 437.545 221.251 437.685 221.091C437.825 220.931 437.935 220.741 438.015 220.521C438.095 220.295 438.135 220.045 438.135 219.771V219.651C438.135 219.385 438.095 219.141 438.015 218.921C437.935 218.695 437.822 218.501 437.675 218.341C437.535 218.181 437.365 218.058 437.165 217.971C436.972 217.878 436.762 217.831 436.535 217.831C436.302 217.831 436.088 217.875 435.895 217.961C435.702 218.048 435.532 218.171 435.385 218.331C435.245 218.485 435.135 218.675 435.055 218.901C434.975 219.121 434.935 219.365 434.935 219.631V219.791C434.935 220.358 435.082 220.801 435.375 221.121C435.675 221.435 436.062 221.591 436.535 221.591Z" fill="white"/>
<path d="M103.628 130.501C103.53 130.599 103.372 130.599 103.274 130.501L101.683 128.91C101.586 128.812 101.586 128.654 101.683 128.556C101.781 128.459 101.939 128.459 102.037 128.556L103.451 129.971L104.865 128.556C104.963 128.459 105.121 128.459 105.219 128.556C105.317 128.654 105.317 128.812 105.219 128.91L103.628 130.501ZM103.701 76.1348L103.701 77.1024L103.201 77.1024L103.201 76.1348L103.701 76.1348ZM103.701 79.0378L103.701 80.9731L103.201 80.9731L103.201 79.0378L103.701 79.0378ZM103.701 82.9084L103.701 84.8438L103.201 84.8438L103.201 82.9084L103.701 82.9084ZM103.701 86.7791L103.701 88.7145L103.201 88.7145L103.201 86.7791L103.701 86.7791ZM103.701 90.6498L103.701 92.5851L103.201 92.5851L103.201 90.6498L103.701 90.6498ZM103.701 94.5205L103.701 96.4558L103.201 96.4558L103.201 94.5205L103.701 94.5205ZM103.701 98.3912L103.701 100.326L103.201 100.326L103.201 98.3912L103.701 98.3912ZM103.701 102.262L103.701 104.197L103.201 104.197L103.201 102.262L103.701 102.262ZM103.701 106.133L103.701 108.068L103.201 108.068L103.201 106.133L103.701 106.133ZM103.701 110.003L103.701 111.939L103.201 111.939L103.201 110.003L103.701 110.003ZM103.701 113.874L103.701 115.809L103.201 115.809L103.201 113.874L103.701 113.874ZM103.701 117.745L103.701 119.68L103.201 119.68L103.201 117.745L103.701 117.745ZM103.701 121.615L103.701 123.551L103.201 123.551L103.201 121.615L103.701 121.615ZM103.701 125.486L103.701 127.421L103.201 127.421L103.201 125.486L103.701 125.486ZM103.701 129.357L103.701 130.324L103.201 130.324L103.201 129.357L103.701 129.357ZM103.628 130.501C103.53 130.599 103.372 130.599 103.274 130.501L101.683 128.91C101.586 128.812 101.586 128.654 101.683 128.556C101.781 128.459 101.939 128.459 102.037 128.556L103.451 129.971L104.865 128.556C104.963 128.459 105.121 128.459 105.219 128.556C105.317 128.654 105.317 128.812 105.219 128.91L103.628 130.501ZM103.701 76.1348L103.701 77.1024L103.201 77.1024L103.201 76.1348L103.701 76.1348ZM103.701 79.0378L103.701 80.9731L103.201 80.9731L103.201 79.0378L103.701 79.0378ZM103.701 82.9084L103.701 84.8438L103.201 84.8438L103.201 82.9084L103.701 82.9084ZM103.701 86.7791L103.701 88.7145L103.201 88.7145L103.201 86.7791L103.701 86.7791ZM103.701 90.6498L103.701 92.5851L103.201 92.5851L103.201 90.6498L103.701 90.6498ZM103.701 94.5205L103.701 96.4558L103.201 96.4558L103.201 94.5205L103.701 94.5205ZM103.701 98.3912L103.701 100.326L103.201 100.326L103.201 98.3912L103.701 98.3912ZM103.701 102.262L103.701 104.197L103.201 104.197L103.201 102.262L103.701 102.262ZM103.701 106.133L103.701 108.068L103.201 108.068L103.201 106.133L103.701 106.133ZM103.701 110.003L103.701 111.939L103.201 111.939L103.201 110.003L103.701 110.003ZM103.701 113.874L103.701 115.809L103.201 115.809L103.201 113.874L103.701 113.874ZM103.701 117.745L103.701 119.68L103.201 119.68L103.201 117.745L103.701 117.745ZM103.701 121.615L103.701 123.551L103.201 123.551L103.201 121.615L103.701 121.615ZM103.701 125.486L103.701 127.421L103.201 127.421L103.201 125.486L103.701 125.486ZM103.701 129.357L103.701 130.324L103.201 130.324L103.201 129.357L103.701 129.357Z" fill="white"/>
<path d="M246.541 202.671C246.639 202.573 246.639 202.415 246.541 202.317L244.95 200.726C244.853 200.629 244.695 200.629 244.597 200.726C244.499 200.824 244.499 200.982 244.597 201.08L246.011 202.494L244.597 203.908C244.499 204.006 244.499 204.164 244.597 204.262C244.695 204.36 244.853 204.36 244.95 204.262L246.541 202.671ZM246.365 202.244L245.346 202.244L245.346 202.744L246.365 202.744L246.365 202.244ZM243.309 202.244L241.273 202.244L241.273 202.744L243.309 202.744L243.309 202.244ZM239.236 202.244L237.199 202.244L237.199 202.744L239.236 202.744L239.236 202.244ZM235.162 202.244L233.125 202.244L233.125 202.744L235.162 202.744L235.162 202.244ZM231.089 202.244L229.052 202.244L229.052 202.744L231.089 202.744L231.089 202.244ZM227.015 202.244L224.978 202.244L224.978 202.744L227.015 202.744L227.015 202.244ZM222.941 202.244L220.905 202.244L220.905 202.744L222.941 202.744L222.941 202.244ZM218.868 202.244L216.831 202.244L216.831 202.744L218.868 202.744L218.868 202.244ZM214.794 202.244L212.757 202.244L212.757 202.744L214.794 202.744L214.794 202.244ZM210.721 202.244L208.684 202.244L208.684 202.744L210.721 202.744L210.721 202.244ZM206.647 202.244L204.61 202.244L204.61 202.744L206.647 202.744L206.647 202.244ZM202.573 202.244L200.537 202.244L200.537 202.744L202.573 202.744L202.573 202.244ZM198.5 202.244L196.463 202.244L196.463 202.744L198.5 202.744L198.5 202.244ZM194.426 202.244L192.389 202.244L192.389 202.744L194.426 202.744L194.426 202.244ZM190.353 202.244L188.316 202.244L188.316 202.744L190.353 202.744L190.353 202.244ZM186.279 202.244L184.242 202.244L184.242 202.744L186.279 202.744L186.279 202.244ZM182.205 202.244L180.169 202.244L180.169 202.744L182.205 202.744L182.205 202.244ZM178.132 202.244L176.095 202.244L176.095 202.744L178.132 202.744L178.132 202.244ZM174.058 202.244L172.021 202.244L172.021 202.744L174.058 202.744L174.058 202.244ZM169.985 202.244L167.948 202.244L167.948 202.744L169.985 202.744L169.985 202.244ZM165.911 202.244L164.893 202.244L164.893 202.744L165.911 202.744L165.911 202.244ZM246.541 202.671C246.639 202.573 246.639 202.415 246.541 202.317L244.95 200.726C244.853 200.629 244.695 200.629 244.597 200.726C244.499 200.824 244.499 200.982 244.597 201.08L246.011 202.494L244.597 203.908C244.499 204.006 244.499 204.164 244.597 204.262C244.695 204.36 244.853 204.36 244.95 204.262L246.541 202.671ZM246.365 202.244L245.346 202.244L245.346 202.744L246.365 202.744L246.365 202.244ZM243.309 202.244L241.273 202.244L241.273 202.744L243.309 202.744L243.309 202.244ZM239.236 202.244L237.199 202.244L237.199 202.744L239.236 202.744L239.236 202.244ZM235.162 202.244L233.125 202.244L233.125 202.744L235.162 202.744L235.162 202.244ZM231.089 202.244L229.052 202.244L229.052 202.744L231.089 202.744L231.089 202.244ZM227.015 202.244L224.978 202.244L224.978 202.744L227.015 202.744L227.015 202.244ZM222.941 202.244L220.905 202.244L220.905 202.744L222.941 202.744L222.941 202.244ZM218.868 202.244L216.831 202.244L216.831 202.744L218.868 202.744L218.868 202.244ZM214.794 202.244L212.757 202.244L212.757 202.744L214.794 202.744L214.794 202.244ZM210.721 202.244L208.684 202.244L208.684 202.744L210.721 202.744L210.721 202.244ZM206.647 202.244L204.61 202.244L204.61 202.744L206.647 202.744L206.647 202.244ZM202.573 202.244L200.537 202.244L200.537 202.744L202.573 202.744L202.573 202.244ZM198.5 202.244L196.463 202.244L196.463 202.744L198.5 202.744L198.5 202.244ZM194.426 202.244L192.389 202.244L192.389 202.744L194.426 202.744L194.426 202.244ZM190.353 202.244L188.316 202.244L188.316 202.744L190.353 202.744L190.353 202.244ZM186.279 202.244L184.242 202.244L184.242 202.744L186.279 202.744L186.279 202.244ZM182.205 202.244L180.169 202.244L180.169 202.744L182.205 202.744L182.205 202.244ZM178.132 202.244L176.095 202.244L176.095 202.744L178.132 202.744L178.132 202.244ZM174.058 202.244L172.021 202.244L172.021 202.744L174.058 202.744L174.058 202.244ZM169.985 202.244L167.948 202.244L167.948 202.744L169.985 202.744L169.985 202.244ZM165.911 202.244L164.893 202.244L164.893 202.744L165.911 202.744L165.911 202.244Z" fill="white"/>
<path d="M443.595 202.317C443.692 202.415 443.692 202.573 443.595 202.671L442.004 204.262C441.906 204.359 441.748 204.359 441.65 204.262C441.553 204.164 441.553 204.006 441.65 203.908L443.064 202.494L441.65 201.08C441.553 200.982 441.553 200.824 441.65 200.726C441.748 200.629 441.906 200.629 442.004 200.726L443.595 202.317ZM361.946 202.244L362.964 202.244L362.964 202.744L361.946 202.744L361.946 202.244ZM365.001 202.244L367.038 202.244L367.038 202.744L365.001 202.744L365.001 202.244ZM369.075 202.244L371.112 202.244L371.112 202.744L369.075 202.744L369.075 202.244ZM373.148 202.244L375.185 202.244L375.185 202.744L373.148 202.744L373.148 202.244ZM377.222 202.244L379.259 202.244L379.259 202.744L377.222 202.744L377.222 202.244ZM381.296 202.244L383.332 202.244L383.332 202.744L381.296 202.744L381.296 202.244ZM385.369 202.244L387.406 202.244L387.406 202.744L385.369 202.744L385.369 202.244ZM389.443 202.244L391.48 202.244L391.48 202.744L389.443 202.744L389.443 202.244ZM393.516 202.244L395.553 202.244L395.553 202.744L393.516 202.744L393.516 202.244ZM397.59 202.244L399.627 202.244L399.627 202.744L397.59 202.744L397.59 202.244ZM401.664 202.244L403.7 202.244L403.7 202.744L401.664 202.744L401.664 202.244ZM405.737 202.244L407.774 202.244L407.774 202.744L405.737 202.744L405.737 202.244ZM409.811 202.244L411.848 202.244L411.848 202.744L409.811 202.744L409.811 202.244ZM413.884 202.244L415.921 202.244L415.921 202.744L413.884 202.744L413.884 202.244ZM417.958 202.244L419.995 202.244L419.995 202.744L417.958 202.744L417.958 202.244ZM422.032 202.244L424.068 202.244L424.068 202.744L422.032 202.744L422.032 202.244ZM426.105 202.244L428.142 202.244L428.142 202.744L426.105 202.744L426.105 202.244ZM430.179 202.244L432.216 202.244L432.216 202.744L430.179 202.744L430.179 202.244ZM434.252 202.244L436.289 202.244L436.289 202.744L434.252 202.744L434.252 202.244ZM438.326 202.244L440.363 202.244L440.363 202.744L438.326 202.744L438.326 202.244ZM442.4 202.244L443.418 202.244L443.418 202.744L442.4 202.744L442.4 202.244ZM443.595 202.317C443.692 202.415 443.692 202.573 443.595 202.671L442.004 204.262C441.906 204.359 441.748 204.359 441.65 204.262C441.553 204.164 441.553 204.006 441.65 203.908L443.064 202.494L441.65 201.08C441.553 200.982 441.553 200.824 441.65 200.726C441.748 200.629 441.906 200.629 442.004 200.726L443.595 202.317ZM361.946 202.244L362.964 202.244L362.964 202.744L361.946 202.744L361.946 202.244ZM365.001 202.244L367.038 202.244L367.038 202.744L365.001 202.744L365.001 202.244ZM369.075 202.244L371.112 202.244L371.112 202.744L369.075 202.744L369.075 202.244ZM373.148 202.244L375.185 202.244L375.185 202.744L373.148 202.744L373.148 202.244ZM377.222 202.244L379.259 202.244L379.259 202.744L377.222 202.744L377.222 202.244ZM381.296 202.244L383.332 202.244L383.332 202.744L381.296 202.744L381.296 202.244ZM385.369 202.244L387.406 202.244L387.406 202.744L385.369 202.744L385.369 202.244ZM389.443 202.244L391.48 202.244L391.48 202.744L389.443 202.744L389.443 202.244ZM393.516 202.244L395.553 202.244L395.553 202.744L393.516 202.744L393.516 202.244ZM397.59 202.244L399.627 202.244L399.627 202.744L397.59 202.744L397.59 202.244ZM401.664 202.244L403.7 202.244L403.7 202.744L401.664 202.744L401.664 202.244ZM405.737 202.244L407.774 202.244L407.774 202.744L405.737 202.744L405.737 202.244ZM409.811 202.244L411.848 202.244L411.848 202.744L409.811 202.744L409.811 202.244ZM413.884 202.244L415.921 202.244L415.921 202.744L413.884 202.744L413.884 202.244ZM417.958 202.244L419.995 202.244L419.995 202.744L417.958 202.744L417.958 202.244ZM422.032 202.244L424.068 202.244L424.068 202.744L422.032 202.744L422.032 202.244ZM426.105 202.244L428.142 202.244L428.142 202.744L426.105 202.744L426.105 202.244ZM430.179 202.244L432.216 202.244L432.216 202.744L430.179 202.744L430.179 202.244ZM434.252 202.244L436.289 202.244L436.289 202.744L434.252 202.744L434.252 202.244ZM438.326 202.244L440.363 202.244L440.363 202.744L438.326 202.744L438.326 202.244ZM442.4 202.244L443.418 202.244L443.418 202.744L442.4 202.744L442.4 202.244Z" fill="white"/>
<path d="M295.013 164.114C285.816 169.423 285.816 178.032 295.013 183.341L328.315 164.114C319.119 158.804 304.209 158.804 295.013 164.114Z" fill="#202020"/>
<path d="M318.451 163.512L316.649 164.552L314.847 165.593L311.243 167.673L304.034 171.835L296.826 175.997L295.024 177.037L293.434 177.985" stroke="#202020" stroke-linejoin="bevel"/>
<rect x="297.133" y="192.457" width="17.6083" height="51.1849" fill="#202020"/>
<path d="M337.375 158.092L334.771 159.588C334.771 159.588 333.628 160.356 334.2 161.492C334.771 162.629 337.728 167.249 337.728 167.249C337.728 167.249 338.674 168.15 340.864 168.401C343.046 168.647 346.384 168.573 346.384 168.573" fill="#202020"/>
<path d="M302.018 195.09L301.788 191.542C301.788 191.542 301.592 190.455 299.743 189.869C297.902 189.279 290.01 187.212 290.01 187.212C290.01 187.212 288.237 186.976 286.413 187.803C284.589 188.629 282.041 190.475 282.041 190.475" fill="#202020"/>
<path d="M332.316 190.548L327.961 188.034C327.961 188.034 326.546 187.296 324.518 187.601C322.49 187.906 314.257 189.451 314.257 189.451C314.257 189.451 312.68 189.968 312.279 191.291C311.879 192.615 312.211 194.972 312.211 194.972" fill="#202020"/>
<path d="M346.384 174.423L340.847 174.591C340.847 174.591 338.964 174.704 337.984 175.791C337.003 176.879 333.518 181.45 333.518 181.45C333.518 181.45 333.143 182.474 334.574 183.527C336.006 184.58 339.27 186.012 339.27 186.012" fill="#202020"/>
<path d="M296.947 178.709C303.126 181.529 312.109 181.293 317.819 177.996C323.529 174.699 323.93 169.538 319.089 165.975" fill="#202020"/>
<path d="M316.779 165.754C316.14 165.385 316.132 164.779 316.779 164.405C317.427 164.031 318.467 164.031 319.115 164.405C319.762 164.779 319.762 165.38 319.115 165.754C318.467 166.128 317.427 166.128 316.779 165.754Z" fill="#202020"/>
<path d="M294.578 178.572C293.939 178.203 293.93 177.597 294.578 177.223C295.226 176.849 296.265 176.849 296.913 177.223C297.561 177.597 297.561 178.198 296.913 178.572C296.265 178.946 295.226 178.946 294.578 178.572Z" fill="#202020"/>
<path d="M311.043 175.265C310.404 174.896 310.396 174.291 311.043 173.917C311.691 173.543 312.731 173.543 313.379 173.917C314.026 174.291 314.026 174.891 313.379 175.265C312.731 175.639 311.691 175.639 311.043 175.265Z" fill="#202020"/>
<path d="M291.245 171.521C290.606 171.151 290.598 170.546 291.245 170.172C291.893 169.798 292.933 169.798 293.581 170.172C294.228 170.546 294.228 171.147 293.581 171.521C292.933 171.894 291.893 171.894 291.245 171.521Z" fill="#202020"/>
<path d="M304.2 164.041C303.561 163.672 303.552 163.067 304.2 162.693C304.848 162.319 305.887 162.319 306.535 162.693C307.183 163.067 307.183 163.667 306.535 164.041C305.887 164.415 304.848 164.415 304.2 164.041Z" fill="#202020"/>
<path d="M322.021 172.992L306.475 164.017Z" fill="#202020"/>
<path d="M309.075 180.466L293.529 171.491Z" fill="#202020"/>
<path d="M302.018 262.318L301.788 258.77C301.788 258.77 301.592 257.683 299.743 257.097C297.902 256.507 290.01 254.44 290.01 254.44C290.01 254.44 288.237 254.204 286.413 255.031C284.589 255.857 282.041 257.702 282.041 257.702" fill="#202020"/>
<path d="M331.835 257.399L327.961 255.262C327.961 255.262 326.546 254.524 324.518 254.829C322.49 255.134 314.257 256.679 314.257 256.679C314.257 256.679 312.68 257.196 312.279 258.519C311.879 259.843 312.211 263.242 312.211 263.242" fill="#202020"/>
<path d="M291.508 164.017C290.869 163.648 290.86 163.042 291.508 162.668C292.156 162.294 293.195 162.294 293.843 162.668C294.491 163.042 294.491 163.643 293.843 164.017C293.195 164.391 292.156 164.391 291.508 164.017Z" fill="#202020"/>
<path d="M346.384 168.573C346.384 168.573 343.046 168.647 340.864 168.401C338.674 168.15 337.728 167.249 337.728 167.249C337.728 167.249 334.771 162.629 334.2 161.492C333.628 160.356 334.771 159.588 334.771 159.588L337.375 158.092L337.526 158.27V166.933M339.27 186.012C339.27 186.012 336.006 184.58 334.574 183.527C333.143 182.474 333.518 181.45 333.518 181.45C333.518 181.45 337.003 176.879 337.984 175.791C338.964 174.704 340.847 174.591 340.847 174.591L346.384 174.423V175.022V238.971L346.143 241.733H343.92L341.447 241.776L339.076 241.867L338.939 253.079V185.654M296.947 178.709C303.126 181.529 312.109 181.293 317.819 177.996C323.529 174.699 323.93 169.538 319.089 165.975M311.282 174.015L299.103 166.984L293.843 164.017M322.021 172.992L306.475 164.017M309.075 180.466L293.529 171.491M293.843 164.017C294.491 163.643 294.491 163.042 293.843 162.668C293.195 162.294 292.156 162.294 291.508 162.668C290.86 163.042 290.869 163.648 291.508 164.017C292.156 164.391 293.195 164.391 293.843 164.017ZM302.018 195.09L301.788 191.542C301.788 191.542 301.592 190.455 299.743 189.869C297.902 189.279 290.01 187.212 290.01 187.212C290.01 187.212 288.237 186.976 286.413 187.803C284.589 188.629 282.041 190.475 282.041 190.475L282.042 190.697V257.254L282.041 257.702C282.041 257.702 284.589 255.857 286.413 255.031C288.237 254.204 290.01 254.44 290.01 254.44C290.01 254.44 297.902 256.507 299.743 257.097C301.592 257.683 301.788 258.77 301.788 258.77L302.018 262.318L302.01 263.495V196.494L302.018 195.09ZM332.316 190.548L327.961 188.034C327.961 188.034 326.546 187.296 324.518 187.601C322.49 187.906 314.257 189.451 314.257 189.451C314.257 189.451 312.68 189.968 312.279 191.291C311.879 192.615 312.211 194.972 312.211 194.972L312.19 195.134V262.023L312.211 263.242C312.211 263.242 311.879 259.843 312.279 258.519C312.68 257.196 314.257 256.679 314.257 256.679C314.257 256.679 322.49 255.134 324.518 254.829C326.546 254.524 327.961 255.262 327.961 255.262L331.835 257.399L332.316 257.159V191.252V190.548ZM316.779 165.754C316.14 165.385 316.132 164.779 316.779 164.405C317.427 164.031 318.467 164.031 319.115 164.405C319.762 164.779 319.762 165.38 319.115 165.754C318.467 166.128 317.427 166.128 316.779 165.754ZM294.578 178.572C293.939 178.203 293.93 177.597 294.578 177.223C295.226 176.849 296.265 176.849 296.913 177.223C297.561 177.597 297.561 178.198 296.913 178.572C296.265 178.946 295.226 178.946 294.578 178.572ZM311.043 175.265C310.404 174.896 310.396 174.291 311.043 173.917C311.691 173.543 312.731 173.543 313.379 173.917C314.026 174.291 314.026 174.891 313.379 175.265C312.731 175.639 311.691 175.639 311.043 175.265ZM291.245 171.521C290.606 171.151 290.598 170.546 291.245 170.172C291.893 169.798 292.933 169.798 293.581 170.172C294.228 170.546 294.228 171.147 293.581 171.521C292.933 171.894 291.893 171.894 291.245 171.521ZM304.2 164.041C303.561 163.672 303.552 163.067 304.2 162.693C304.848 162.319 305.887 162.319 306.535 162.693C307.183 163.067 307.183 163.667 306.535 164.041C305.887 164.415 304.848 164.415 304.2 164.041Z" stroke="#C795E3" stroke-miterlimit="10"/>
<line x1="516.9" y1="184.928" x2="516.9" y2="204.254" stroke="#FF4438" stroke-opacity="0.3"/>
<path d="M517.324 262.27L467.088 233.271L517.298 204.258L567.534 233.266L517.324 262.27Z" fill="#202020" stroke="#FF4438" stroke-opacity="0.3"/>
<line x1="516.9" y1="165.602" x2="516.9" y2="184.928" stroke="#FF4438" stroke-opacity="0.3"/>
<path d="M465.887 232.556L517.324 262.271L568.768 232.533" stroke="#FF4438"/>
<path d="M517.324 242.934L467.088 213.935L517.298 184.922L567.534 213.93L517.324 242.934Z" fill="#202020" stroke="#FF4438" stroke-opacity="0.3"/>
<path d="M466.287 213.523L517.324 242.938L568.481 213.414" stroke="#FF4438"/>
<path d="M517.324 223.598L467.088 194.599L517.298 165.586L567.534 194.594L517.324 223.598Z" fill="#202020" stroke="white" stroke-opacity="0.3"/>
<line x1="516.9" y1="223.6" x2="516.9" y2="262.263" stroke="#FF4438"/>
<path d="M517.324 204.262L467.088 175.263L517.298 146.25L567.534 175.258L517.324 204.262Z" fill="#202020" stroke="white"/>
<path d="M466.303 194.561L466.303 233.26" stroke="#FF4438"/>
<line x1="568.033" y1="194.561" x2="568.033" y2="233.234" stroke="#FF4438"/>
<line x1="516.9" y1="204.426" x2="516.9" y2="223.752" stroke="white"/>
<line x1="465.982" y1="175.266" x2="465.982" y2="194.592" stroke="white"/>
<line x1="568.033" y1="175.266" x2="568.033" y2="194.592" stroke="white"/>
<path d="M465.863 193.98L517.321 223.567L568.763 193.906" stroke="white"/>
<path d="M277.73 242.553V252.271" stroke="#C795E3"/>
<path d="M279.777 181.174L277.22 184.242L277.731 243.063H271.082V169.921C273.128 169.41 277.731 169.41 277.731 170.944C277.731 174.561 279.266 176.572 280.289 178.618C281.043 180.127 279.948 181.004 279.777 181.174Z" stroke="#C795E3"/>
</svg>
