<svg viewBox="0 0 10 15" fill="none" xmlns="http://www.w3.org/2000/svg">
<mask id="path-1-inside-1_2187_3071" fill="white">
<path fill-rule="evenodd" clip-rule="evenodd" d="M7.84625 9.98802C7.84625 9.65436 8.01751 9.34817 8.27277 9.13329C9.32879 8.24433 9.99981 6.91264 9.99981 5.42422C9.99981 2.7478 7.83014 0.578125 5.15371 0.578125C2.47729 0.578125 0.307617 2.7478 0.307617 5.42422C0.307617 6.91283 0.978809 8.24468 2.03507 9.13364C2.29039 9.34852 2.4617 9.65474 2.4617 9.98845V11.4238C2.4617 11.9761 2.90941 12.4238 3.4617 12.4238H6.84625C7.39853 12.4238 7.84625 11.9761 7.84625 11.4238V9.98802Z"/>
</mask>
<path d="M8.27277 9.13329L7.62877 8.36826L8.27277 9.13329ZM8.99981 5.42422C8.99981 6.6052 8.46874 7.66118 7.62877 8.36826L8.91677 9.89832C10.1888 8.82748 10.9998 7.22007 10.9998 5.42422H8.99981ZM5.15371 1.57812C7.27785 1.57812 8.99981 3.30008 8.99981 5.42422H10.9998C10.9998 2.19551 8.38242 -0.421875 5.15371 -0.421875V1.57812ZM1.30762 5.42422C1.30762 3.30008 3.02957 1.57812 5.15371 1.57812V-0.421875C1.925 -0.421875 -0.692383 2.19551 -0.692383 5.42422H1.30762ZM2.67898 8.36854C1.83883 7.66146 1.30762 6.60536 1.30762 5.42422H-0.692383C-0.692383 7.2203 0.118789 8.8279 1.39116 9.89874L2.67898 8.36854ZM3.4617 11.4238V9.98845H1.4617V11.4238H3.4617ZM6.84625 11.4238H3.4617V13.4238H6.84625V11.4238ZM6.84625 9.98802V11.4238H8.84625V9.98802H6.84625ZM1.4617 11.4238C1.4617 12.5284 2.35713 13.4238 3.4617 13.4238V11.4238H3.4617H1.4617ZM1.39116 9.89874C1.42557 9.9277 1.44553 9.95575 1.4551 9.97433C1.46383 9.99129 1.4617 9.99532 1.4617 9.98845H3.4617C3.4617 9.30341 3.11317 8.73395 2.67898 8.36854L1.39116 9.89874ZM6.84625 13.4238C7.95082 13.4238 8.84625 12.5284 8.84625 11.4238H6.84625V11.4238V13.4238ZM7.62877 8.36826C7.19468 8.73368 6.84625 9.30308 6.84625 9.98802H8.84625C8.84625 9.99489 8.84411 9.99086 8.85284 9.9739C8.86241 9.95533 8.88236 9.92728 8.91677 9.89832L7.62877 8.36826Z" fill="white" mask="url(#path-1-inside-1_2187_3071)"/>
<line x1="4.03857" y1="13.9238" x2="6.2693" y2="13.9238" stroke="white" stroke-linecap="round"/>
<path d="M5.69336 3.26953C6.23195 3.44906 7.30912 4.13127 7.30912 5.42388" stroke="white" stroke-linecap="round"/>
</svg>
