<svg width="38" height="33" viewBox="0 0 38 33" fill="none" xmlns="http://www.w3.org/2000/svg">
<path d="M36.5102 25.1127C34.4858 26.1716 23.9794 30.493 21.7161 31.6792C19.4529 32.8653 18.2408 32.8315 16.4707 31.9854C14.7006 31.1393 3.55837 26.6076 1.53911 25.6421C0.521688 25.1646 0.00259797 24.7571 0.00259797 24.3756V20.5317C0.00259797 20.5317 14.5579 17.373 16.9068 16.5217C19.2557 15.6704 20.068 15.6496 22.0639 16.3816C24.0598 17.1135 36.0249 19.2729 38 19.9892V23.7786C38 24.1731 37.5458 24.5572 36.5102 25.1101V25.1127Z" fill="#A32422"/>
<path d="M36.5102 21.2869C34.4858 22.3407 23.9794 26.6621 21.7161 27.8275C19.4529 28.9928 18.2408 28.9824 16.4707 28.1389C14.7006 27.2954 3.55836 22.7637 1.5391 21.806C-0.480163 20.8483 -0.519095 20.1787 1.46123 19.4052C3.44156 18.6318 14.5579 14.2792 16.9068 13.4227C19.2556 12.5662 20.068 12.548 22.0639 13.2826C24.0598 14.0171 34.5221 18.1724 36.4869 18.8965C38.4516 19.6207 38.5424 20.215 36.5102 21.2662V21.2869Z" fill="#DC382C"/>
<path d="M36.5102 18.8524C34.4858 19.9088 23.9794 24.2276 21.7161 25.393C19.4529 26.5583 18.2512 26.5479 16.4811 25.6992C14.711 24.8505 3.55837 20.3448 1.53911 19.3819C0.521688 18.8991 0.00259797 18.4942 0.00259797 18.1101V14.2792C0.00259797 14.2792 14.5579 11.1102 16.9068 10.2589C19.2557 9.40757 20.068 9.38421 22.0639 10.1265C24.0598 10.8688 36.0249 13.0075 38 13.729V17.5184C38 17.9129 37.5458 18.3074 36.5102 18.8524Z" fill="#A32422"/>
<path d="M36.5102 15.0086C34.4858 16.0675 23.9794 20.3863 21.7161 21.5517C19.4529 22.7171 18.2408 22.7093 16.4707 21.8632C14.7006 21.017 3.55835 16.5035 1.53909 15.538C-0.480168 14.5725 -0.516505 13.9159 1.46123 13.1424C3.43896 12.369 14.5579 8.00604 16.9068 7.1729C19.2556 6.33976 20.068 6.28785 22.0639 7.01198C24.0598 7.73611 34.5221 11.9278 36.4869 12.6311C38.4516 13.3345 38.5424 13.9522 36.5102 15.0008V15.0086Z" fill="#DC382C"/>
<path d="M36.5102 12.356C34.4858 13.415 23.9794 17.7364 21.7161 18.8992C19.4529 20.0619 18.2512 20.0541 16.4811 19.2106C14.711 18.3671 3.55837 13.8484 1.53911 12.8855C0.521688 12.4079 0.00259797 12.0004 0.00259797 11.6163V7.77245C0.00259797 7.77245 14.5579 4.61378 16.9068 3.76507C19.2557 2.91636 20.068 2.8904 22.0639 3.62232C24.0598 4.35424 36.0197 6.51366 37.9948 7.23519V11.0245C38 11.4242 37.5458 11.8136 36.5102 12.356Z" fill="#A32422"/>
<path d="M36.5102 8.51732C34.4858 9.5555 23.9794 13.9029 21.7161 15.0579C19.4529 16.2128 18.2408 16.2102 16.4707 15.3693C14.7006 14.5284 3.55836 10.0045 1.5391 9.04419C-0.480163 8.08388 -0.519095 7.41684 1.46123 6.6434C3.44156 5.86996 14.5579 1.5096 16.9068 0.66348C19.2556 -0.182637 20.068 -0.208591 22.0639 0.523326C24.0598 1.25524 34.5221 5.41575 36.4869 6.13729C38.4516 6.85882 38.5424 7.45837 36.5102 8.50953V8.51732Z" fill="#DC382C"/>
<path d="M19.5983 3.05909L22.1055 2.23633L21.4255 3.86109L23.9768 4.81621L20.6883 5.15881L19.9486 6.9341L18.7599 4.95377L14.9576 4.61117L17.797 3.58856L16.9431 2.01572L19.5983 3.05909Z" fill="white"/>
<path d="M19.7566 13.4227L13.6105 10.8714L22.4143 9.51915L19.7566 13.4227Z" fill="white"/>
<path d="M11.2357 5.80244C13.8312 5.80244 15.9413 6.62001 15.9413 7.61926C15.9413 8.61851 13.826 9.43608 11.2357 9.43608C8.64544 9.43608 6.52755 8.61851 6.52755 7.61926C6.52755 6.62001 8.63765 5.80244 11.2357 5.80244Z" fill="white"/>
<path d="M27.8726 5.30154L33.0816 7.35973L27.8778 9.41792L27.8726 5.30154Z" fill="#741113"/>
<path d="M27.8726 5.30154L27.8778 9.41792L27.3119 9.63854L22.1055 7.58035L27.8726 5.30154Z" fill="#AC2724"/>
</svg>
