<svg width="18" height="14" viewBox="0 0 18 14" fill="currentColor" xmlns="http://www.w3.org/2000/svg">
<path d="M6.44674 5.48279C6.25148 5.67806 6.25148 5.99464 6.44674 6.1899C6.642 6.38516 6.95858 6.38516 7.15385 6.1899L6.44674 5.48279ZM10.5336 4.9032L10.31 5.35041L10.31 5.35041L10.5336 4.9032ZM7.15385 6.1899C7.33961 6.00414 7.84145 5.6231 8.46354 5.38064C9.08569 5.13814 9.74123 5.06602 10.31 5.35041L10.7572 4.45598C9.83269 3.99371 8.8549 4.15483 8.10038 4.44891C7.3458 4.74302 6.72765 5.20189 6.44674 5.48279L7.15385 6.1899ZM10.31 5.35041C10.579 5.4849 10.9969 5.7563 11.3399 6.113C11.6891 6.47612 11.9003 6.86302 11.9003 7.23633H12.9003C12.9003 6.48964 12.4893 5.86552 12.0607 5.41985C11.6259 4.96776 11.1105 4.63259 10.7572 4.45598L10.31 5.35041Z"/>
<path d="M13.3875 5.39274L12.6481 7.34437" stroke="currentColor" stroke-linecap="round"/>
<path d="M10.5703 6.70007L12.5549 7.34575" stroke="currentColor" stroke-linecap="round"/>
<path d="M12.1092 11.1725C12.3271 11.0028 12.3661 10.6886 12.1964 10.4708C12.0267 10.2529 11.7125 10.2139 11.4947 10.3836L12.1092 11.1725ZM7.98208 11.244L8.25909 10.8277L8.25909 10.8277L7.98208 11.244ZM11.4947 10.3836C11.2874 10.5451 10.7424 10.8613 10.0952 11.0253C9.44793 11.1893 8.7885 11.18 8.25909 10.8277L7.70506 11.6602C8.56558 12.2329 9.55577 12.1935 10.3408 11.9947C11.1259 11.7958 11.7959 11.4166 12.1092 11.1725L11.4947 10.3836ZM8.25909 10.8277C8.00873 10.6611 7.6275 10.3403 7.33105 9.94401C7.02928 9.54063 6.86737 9.13065 6.91338 8.76018L5.921 8.63694C5.82897 9.37793 6.15994 10.0479 6.53033 10.543C6.90605 11.0453 7.37629 11.4414 7.70506 11.6602L8.25909 10.8277Z"/>
<path d="M5.21045 10.4071L6.18474 8.56152" stroke="currentColor" stroke-linecap="round"/>
<path d="M8.1669 9.45647L6.27701 8.57111" stroke="currentColor" stroke-linecap="round"/>
<mask id="path-7-inside-1_135_5010">
<path fill-rule="evenodd" clip-rule="evenodd" d="M12.9388 0.683772C12.8027 0.27543 12.4206 0 11.9901 0H6.89832C6.46789 0 6.08575 0.27543 5.94964 0.683773L5.3166 2.58289C5.18048 2.99124 4.79834 3.26667 4.36791 3.26667H1.88867C1.33639 3.26667 0.888672 3.71438 0.888672 4.26667V13C0.888672 13.5523 1.33639 14 1.88867 14H16.9998C17.5521 14 17.9998 13.5523 17.9998 13V4.26667C17.9998 3.71438 17.5521 3.26667 16.9998 3.26667H14.5205C14.0901 3.26667 13.708 2.99124 13.5719 2.58289L12.9388 0.683772Z"/>
</mask>
<path d="M12.9388 0.683772L11.9901 1L12.9388 0.683772ZM5.94964 0.683773L5.00095 0.367545L5.94964 0.683773ZM6.89832 1H11.9901V-1H6.89832V1ZM6.26528 2.89912L6.89832 1L5.00095 0.367545L4.36791 2.26667L6.26528 2.89912ZM1.88867 4.26667H4.36791V2.26667H1.88867V4.26667ZM1.88867 13V4.26667H-0.111328V13H1.88867ZM16.9998 13H1.88867V15H16.9998V13ZM16.9998 4.26667V13H18.9998V4.26667H16.9998ZM14.5205 4.26667H16.9998V2.26667H14.5205V4.26667ZM11.9901 1L12.6232 2.89912L14.5205 2.26667L13.8875 0.367544L11.9901 1ZM14.5205 2.26667L14.5205 2.26667L12.6232 2.89912C12.8954 3.71581 13.6597 4.26667 14.5205 4.26667V2.26667ZM18.9998 4.26667C18.9998 3.1621 18.1044 2.26667 16.9998 2.26667V4.26667L16.9998 4.26667H18.9998ZM16.9998 15C18.1044 15 18.9998 14.1046 18.9998 13H16.9998L16.9998 13V15ZM-0.111328 13C-0.111328 14.1046 0.784106 15 1.88867 15V13L1.88867 13H-0.111328ZM1.88867 2.26667C0.784103 2.26667 -0.111328 3.1621 -0.111328 4.26667H1.88867L1.88867 4.26667V2.26667ZM4.36791 2.26667L4.36791 2.26667V4.26667C5.22877 4.26667 5.99305 3.71581 6.26528 2.89912L4.36791 2.26667ZM11.9901 1L11.9901 1L13.8875 0.367544C13.6153 -0.449139 12.851 -1 11.9901 -1V1ZM6.89832 -1C6.03746 -1 5.27318 -0.449139 5.00095 0.367545L6.89832 1L6.89832 1V-1Z" mask="url(#path-7-inside-1_135_5010)"/>
</svg>
