<svg width="14" height="18" viewBox="0 0 14 18" fill="none" xmlns="http://www.w3.org/2000/svg">
<path d="M7.58123 0.686267L6.99999 1.5L6.41876 0.686265C6.76646 0.437911 7.23354 0.437912 7.58123 0.686267Z" fill="white"/>
<path fill-rule="evenodd" clip-rule="evenodd" d="M6.99999 1.5C7.58123 0.686267 7.58218 0.686948 7.58218 0.686948L7.5833 0.687745L7.58601 0.689694L7.59333 0.694999L7.61542 0.71123C7.63338 0.724541 7.65772 0.742836 7.68785 0.766057C7.74808 0.812482 7.8316 0.87871 7.93362 0.964278C8.13743 1.13521 8.41652 1.38454 8.73209 1.70863C9.36065 2.35418 10.1489 3.3117 10.7694 4.55279C11.3767 5.76731 11.81 7.23078 11.8003 8.90042C11.8113 8.91503 11.8219 8.92999 11.8321 8.9453L13.8321 11.9453C13.9883 12.1797 14.0385 12.4692 13.9701 12.7425L12.9701 16.7425C12.8913 17.058 12.6639 17.3155 12.3606 17.4327C12.0573 17.55 11.7159 17.5124 11.4453 17.3321L8.69723 15.5H5.30278L2.5547 17.3321C2.28412 17.5124 1.94273 17.55 1.63941 17.4327C1.33609 17.3155 1.10873 17.058 1.02986 16.7425L0.0298623 12.7425C-0.0384709 12.4692 0.0116705 12.1797 0.167954 11.9453L2.16795 8.9453C2.17814 8.93002 2.1887 8.91508 2.19963 8.9005C2.18999 7.23082 2.62327 5.76733 3.23055 4.55278C3.8511 3.3117 4.63933 2.35418 5.26789 1.70863C5.58347 1.38453 5.86256 1.13521 6.06637 0.964275C6.16839 0.878707 6.25191 0.812479 6.31215 0.766055C6.34228 0.742833 6.36662 0.724538 6.38457 0.711227L6.40666 0.694996L6.41399 0.689691L6.41669 0.687743L6.41781 0.686945C6.41781 0.686945 6.41876 0.686265 6.99999 1.5C6.99999 1.5 3.37562 4.08882 3.20559 8.52135C3.18383 9.08868 3.2187 9.68622 3.32496 10.3124C3.54224 11.593 4.05823 12.9932 5 14.5H9.00004C14 6.5 6.99999 1.5 6.99999 1.5ZM9.83205 15.0547C9.83747 15.0466 9.84279 15.0383 9.84799 15.03C10.8594 13.4118 11.4202 11.8914 11.6595 10.4892L13 12.5L12 16.5L9.83205 15.0547ZM2.34048 10.4893C2.57975 11.8914 3.14062 13.4118 4.15198 15.03C4.15718 15.0383 4.1625 15.0466 4.16793 15.0547L2 16.5L1 12.5L2.34048 10.4893Z" fill="white"/>
<path d="M6 17C5.72386 17 5.5 17.2239 5.5 17.5C5.5 17.7761 5.72386 18 6 18H8C8.27615 18 8.5 17.7761 8.5 17.5C8.5 17.2239 8.27615 17 8 17H6Z" fill="white"/>
<path d="M8 7.5C8 8.05228 7.55228 8.5 7 8.5C6.44772 8.5 6 8.05228 6 7.5C6 6.94772 6.44772 6.5 7 6.5C7.55228 6.5 8 6.94772 8 7.5Z" fill="white"/>
</svg>
