<svg width="14" height="15" viewBox="0 0 14 15" fill="none" xmlns="http://www.w3.org/2000/svg">
<path d="M4.38232 2.25H1.9967C1.83833 2.25 1.78216 2.25193 1.75648 2.25648C1.75193 2.28216 1.75 2.33833 1.75 2.4967V12.5033C1.75 12.6617 1.75193 12.7178 1.75648 12.7435C1.78216 12.7481 1.83833 12.75 1.9967 12.75H12.0033C12.1617 12.75 12.2178 12.7481 12.2435 12.7435C12.2481 12.7178 12.25 12.6617 12.25 12.5033V4.54215C12.25 4.42823 12.2489 4.38513 12.2467 4.3638C12.2331 4.34719 12.2035 4.31592 12.1229 4.23536L10.2646 2.37708C10.1841 2.29652 10.1528 2.26685 10.1362 2.2533C10.1149 2.25114 10.0718 2.25 9.95785 2.25H9.61768C9.62254 2.31964 9.625 2.40063 9.625 2.4967V4.6283C9.625 5.01834 9.58439 5.15978 9.50813 5.30237C9.43187 5.44496 9.31996 5.55687 9.17737 5.63313C9.03478 5.70939 8.89334 5.75 8.5033 5.75H5.4967C5.10666 5.75 4.96522 5.70939 4.82263 5.63313C4.68004 5.55687 4.56813 5.44496 4.49187 5.30237C4.41561 5.15978 4.375 5.01834 4.375 4.6283V2.4967C4.375 2.40063 4.37746 2.31964 4.38232 2.25ZM1.9967 1.375H9.95785C10.1838 1.375 10.2619 1.38318 10.3486 1.40314C10.4352 1.42311 10.5118 1.45486 10.5872 1.50199C10.6626 1.54912 10.7236 1.5986 10.8834 1.75836L12.7416 3.61664C12.9014 3.7764 12.9509 3.83745 12.998 3.91281C13.0451 3.98818 13.0769 4.06483 13.0969 4.15145C13.1168 4.23807 13.125 4.31622 13.125 4.54215V12.5033C13.125 12.8933 13.0844 13.0348 13.0081 13.1774C12.9319 13.32 12.82 13.4319 12.6774 13.5081C12.5348 13.5844 12.3933 13.625 12.0033 13.625H1.9967C1.60666 13.625 1.46522 13.5844 1.32263 13.5081C1.18004 13.4319 1.06813 13.32 0.991871 13.1774C0.915611 13.0348 0.875 12.8933 0.875 12.5033V2.4967C0.875 2.10666 0.915611 1.96522 0.991871 1.82263C1.06813 1.68004 1.18004 1.56813 1.32263 1.49187C1.46522 1.41561 1.60666 1.375 1.9967 1.375ZM5.25 2.4967V4.6283C5.25 4.78667 5.25193 4.84284 5.25648 4.86852C5.28216 4.87307 5.33833 4.875 5.4967 4.875H8.5033C8.66167 4.875 8.71784 4.87307 8.74352 4.86852C8.74807 4.84284 8.75 4.78667 8.75 4.6283V2.4967C8.75 2.33833 8.74807 2.28216 8.74352 2.25648C8.71784 2.25193 8.66167 2.25 8.5033 2.25H5.4967C5.33833 2.25 5.28216 2.25193 5.25648 2.25648C5.25193 2.28216 5.25 2.33833 5.25 2.4967ZM7 11C6.0335 11 5.25 10.2165 5.25 9.25C5.25 8.2835 6.0335 7.5 7 7.5C7.9665 7.5 8.75 8.2835 8.75 9.25C8.75 10.2165 7.9665 11 7 11ZM7 10.125C7.48325 10.125 7.875 9.73325 7.875 9.25C7.875 8.76675 7.48325 8.375 7 8.375C6.51675 8.375 6.125 8.76675 6.125 9.25C6.125 9.73325 6.51675 10.125 7 10.125Z" fill="#B5B6C0"/>
</svg>
