<svg width="14" height="15" viewBox="0 0 14 15" fill="none" xmlns="http://www.w3.org/2000/svg">
<path d="M2.45 8.2002C2.45 8.0069 2.2933 7.8502 2.1 7.8502C1.9067 7.8502 1.75 8.0069 1.75 8.2002L1.75 11.0002C1.75 11.5801 2.2201 12.0502 2.8 12.0502L11.2 12.0502C11.7799 12.0502 12.25 11.5801 12.25 11.0002L12.25 8.2002C12.25 8.0069 12.0933 7.8502 11.9 7.8502C11.7067 7.8502 11.55 8.0069 11.55 8.2002L11.55 11.0002C11.55 11.1935 11.3933 11.3502 11.2 11.3502L2.8 11.3502C2.6067 11.3502 2.45 11.1935 2.45 11.0002L2.45 8.2002Z" fill="#B5B6C0"/>
<path d="M7.24749 3.05271C7.1108 2.91602 6.8892 2.91602 6.75251 3.05271L4.65251 5.15271C4.51583 5.28939 4.51583 5.511 4.65251 5.64768C4.7892 5.78437 5.0108 5.78437 5.14749 5.64768L6.65 4.14517L6.65 8.9002C6.65 9.0935 6.8067 9.2502 7 9.2502C7.1933 9.2502 7.35 9.0935 7.35 8.9002L7.35 4.14517L8.85251 5.64768C8.9892 5.78437 9.2108 5.78437 9.34749 5.64768C9.48417 5.511 9.48417 5.28939 9.34749 5.15271L7.24749 3.05271Z" fill="#B5B6C0"/>
</svg>
