<svg viewBox="0 0 24 24" xmlns="http://www.w3.org/2000/svg">
<path d="M12.4241 0.775346C12.1898 0.54103 11.8099 0.541031 11.5755 0.775346L7.97554 4.37535C7.74123 4.60966 7.74123 4.98956 7.97554 5.22387C8.20986 5.45819 8.58975 5.45819 8.82407 5.22387L11.3998 2.64814L11.3998 10.7996C11.3998 11.131 11.6684 11.3996 11.9998 11.3996C12.3312 11.3996 12.5998 11.131 12.5998 10.7996L12.5998 2.64814L15.1755 5.22387C15.4099 5.45819 15.7898 5.45819 16.0241 5.22387C16.2584 4.98956 16.2584 4.60966 16.0241 4.37535L12.4241 0.775346Z"/>
<path d="M12.8571 18.2581C12.8571 17.7847 13.2409 17.4009 13.7143 17.4009H18.8571C19.3305 17.4009 19.7143 17.7847 19.7143 18.2581C19.7143 18.7315 19.3305 19.1152 18.8571 19.1152H13.7143C13.2409 19.1152 12.8571 18.7315 12.8571 18.2581Z"/>
<path clip-rule="evenodd" d="M1.71429 13.1152C0.767512 13.1152 0 13.8827 0 14.8295V21.6867C0 22.6334 0.767512 23.4009 1.71429 23.4009H22.2857C23.2325 23.4009 24 22.6334 24 21.6867V14.8295C24 13.8827 23.2325 13.1152 22.2857 13.1152H1.71429ZM1.71429 14.8295H22.2857V21.6867H1.71429V14.8295Z"/>
</svg>
