<svg version="1.1" id="Layer_1" xmlns="http://www.w3.org/2000/svg" x="0" y="0" viewBox="0 0 15 15" xml:space="preserve"><path d="M15 7.5C15 3.36 11.64 0 7.5 0 3.36 0 0 3.36 0 7.5 0 11.64 3.36 15 7.5 15c4.14 0 7.5-3.36 7.5-7.5zM13.82 9H10.4c.08-.63.12-1.27.1-1.92-.02-.37-.05-.73-.09-1.08h3.41c.11.48.18.98.18 1.5s-.07 1.02-.18 1.5zm-8.03 1H9.2c-.33 1.36-.91 2.6-1.7 3.56-.79-.96-1.38-2.19-1.71-3.56zm-.18-1c-.06-.37-.1-.73-.11-1.11-.02-.64.01-1.27.1-1.89h3.79c.05.37.09.73.1 1.11.03.64 0 1.27-.09 1.89H5.61zm3.6-4H5.79c.33-1.36.91-2.6 1.71-3.56.79.96 1.38 2.19 1.71 3.56zm4.29 0h-3.26c-.33-1.51-.95-2.85-1.76-3.92 2.27.35 4.16 1.86 5.02 3.92zM6.52 1.08C5.71 2.16 5.1 3.5 4.77 5H1.5a6.518 6.518 0 015.02-3.92zM1.18 6H4.6c-.08.63-.12 1.27-.1 1.92.02.37.05.73.09 1.08H1.18C1.07 8.52 1 8.02 1 7.5s.07-1.02.18-1.5zm.32 4h3.26c.33 1.51.95 2.85 1.76 3.92A6.518 6.518 0 011.5 10zm6.98 3.92c.81-1.08 1.42-2.42 1.75-3.92h3.27a6.518 6.518 0 01-5.02 3.92z" fill="#ffffff"/></svg>
