<?xml version="1.0" encoding="iso-8859-1"?>
<!-- Generator: Adobe Illustrator 25.2.3, SVG Export Plug-In . SVG Version: 6.00 Build 0)  -->
<svg version="1.1" id="Layer_1" xmlns="http://www.w3.org/2000/svg" xmlns:xlink="http://www.w3.org/1999/xlink" x="0px" y="0px"
	 viewBox="0 0 57.176 59.044" style="enable-background:new 0 0 57.176 59.044;" xml:space="preserve">
<path id="Path_9179" style="fill:#DFE5EF;" d="M50.139,28.421v-2.029c-0.004-3.981-3.23-7.207-7.211-7.211h-1.067l4.262-15.906
	c0.238-0.794,0.092-1.654-0.395-2.324C45.235,0.333,44.481-0.019,43.691,0c-1.713,0.07-3.189,1.227-3.665,2.874l-4.37,16.307H19.202
	L14.833,2.874c-0.476-1.647-1.952-2.805-3.665-2.875c-0.79-0.019-1.543,0.332-2.036,0.95c-0.489,0.67-0.637,1.53-0.4,2.325
	l4.262,15.906h-1.067c-3.981,0.004-7.207,3.23-7.211,7.211v2.029H0v12.639h4.716v2.029c0.004,3.981,3.23,7.207,7.211,7.211h8.528
	v8.745h13.95v-8.745h8.528c3.979-0.007,7.202-3.232,7.206-7.211v-2.029h4.72V28.421H50.139z M4.716,39.511H1.548v-9.542h3.168
	V39.511z M41.522,3.275c0.301-0.966,1.161-1.652,2.17-1.731c0.309-0.018,0.608,0.109,0.809,0.345
	c0.194,0.289,0.241,0.653,0.128,0.982l-4.37,16.31h-3L41.522,3.275z M10.231,2.875c-0.113-0.329-0.066-0.693,0.128-0.982
	c0.201-0.236,0.5-0.363,0.809-0.345c1.008,0.079,1.867,0.762,2.17,1.727L17.6,19.181h-3L10.231,2.875z M32.857,57.499H22.002v-7.2
	h10.855V57.499z M48.595,29.199v13.889c-0.003,3.126-2.537,5.66-5.663,5.663H11.927c-3.126-0.003-5.66-2.537-5.663-5.663v-16.7
	c0.003-3.126,2.537-5.66,5.663-5.663h31.006c3.126,0.003,5.66,2.537,5.663,5.663L48.595,29.199z M53.311,39.515h-3.172v-9.546h3.168
	L53.311,39.515z"/>
<path id="Path_9180" style="fill:#DFE5EF;" d="M10.757,35.56l16.672,10.552L44.098,35.56V22.789H10.757V35.56z M12.305,24.339
	h30.249v10.368L27.429,44.28l-15.124-9.573V24.339z"/>
<path id="Path_9181" style="fill:#DFE5EF;" d="M33.672,33.18l1.067-1.067l1.067,1.067l1.094-1.094l-1.066-1.068l1.067-1.067
	l-1.094-1.094l-1.067,1.067l-1.067-1.067l-1.094,1.094l1.066,1.067l-1.067,1.067L33.672,33.18z"/>
<path id="Path_9182" style="fill:#DFE5EF;" d="M21.187,28.927l-1.068,1.071l-1.068-1.067l-1.094,1.094l1.068,1.067l-1.068,1.067
	l1.094,1.094l1.068-1.067l1.068,1.067l1.094-1.094l-1.068-1.067l1.068-1.067L21.187,28.927z"/>
<path id="Path_9183" style="fill:#DFE5EF;" d="M28.497,33.251l1.094-1.094l-1.068-1.067l1.068-1.067l-1.094-1.094l-1.067,1.069
	l-1.069-1.071l-1.094,1.094l1.068,1.067l-1.068,1.067l1.094,1.096l1.068-1.067L28.497,33.251z"/>
<path id="_Color" style="fill:#8BA2FF;" d="M48.176,59l-5-5l1.41-1.41l3.59,3.58l7.59-7.59l1.41,1.42L48.176,59z"/>
</svg>
