<svg width="35" height="51" viewBox="0 0 35 51" fill="none" xmlns="http://www.w3.org/2000/svg">
<path d="M21.2744 6.64025C20.3597 5.92886 18.2866 3.7439 19.1402 2.52439C20.2073 1 14.5671 0.695123 11.9756 1.60976C9.38413 2.52439 5.26827 4.35366 6.9451 6.64025C8.28657 8.46951 6.48779 9.73984 5.42072 10.1463" stroke="#091A23" stroke-linejoin="round"/>
<path d="M17.1592 10.8464C16.6719 10.7244 17.3622 9.67769 17.7683 9.16955L22.7938 7.95004L27.5148 10.9988V12.5232L26.4488 12.0659C23.5553 11.7102 17.6465 10.9683 17.1592 10.8464Z" fill="#80DBFF" stroke="#091A23" stroke-width="0.5" stroke-linejoin="round"/>
<path d="M8.63109 11.9135L22.0324 10.6939L25.2305 40.4195L12.286 42.2488C10.2555 41.6899 5.73763 39.8098 3.91017 36.761C1.62585 32.95 0.559839 30.2061 1.16899 23.3464C1.65631 17.8586 6.34678 13.4378 8.63109 11.9135Z" fill="#8A99A0" stroke="#091A23" stroke-width="0.5"/>
<path d="M12.1337 39.5049C12.9866 39.261 13.7074 40.013 13.9612 40.4195C13.4536 41.4866 12.286 43.7122 11.6769 44.0781C11.0677 44.4439 10.9154 43.9257 10.9154 43.6208L12.1337 39.5049Z" fill="#80DBFF"/>
<path d="M29.6468 40.2671L28.2763 39.0476L29.3423 37.9805L30.5606 39.5049C30.8042 40.3586 30.0529 40.3687 29.6468 40.2671Z" fill="#80DBFF"/>
<path d="M12.1337 39.5049C12.9866 39.261 13.7074 40.013 13.9612 40.4195C13.4536 41.4866 12.286 43.7122 11.6769 44.0781C11.0677 44.4439 10.9154 43.9257 10.9154 43.6208L12.1337 39.5049Z" stroke="#091A23" stroke-width="0.5"/>
<path d="M29.6468 40.2671L28.2763 39.0476L29.3423 37.9805L30.5606 39.5049C30.8042 40.3586 30.0529 40.3687 29.6468 40.2671Z" stroke="#091A23" stroke-width="0.5"/>
<path d="M9.33795 25.7854C9.33795 34.1092 14.9925 40.7793 21.8801 40.7793C28.7677 40.7793 34.4223 34.1092 34.4223 25.7854C34.4223 17.4616 28.7677 10.7915 21.8801 10.7915C14.9925 10.7915 9.33795 17.4616 9.33795 25.7854Z" fill="#8A99A0" stroke="#091A23" stroke-width="0.5"/>
<path d="M10.5563 25.7854C10.5563 33.266 15.6643 39.2549 21.8802 39.2549C28.096 39.2549 33.204 33.266 33.204 25.7854C33.204 18.3049 28.096 12.3159 21.8802 12.3159C15.6643 12.3159 10.5563 18.3049 10.5563 25.7854Z" fill="#E8EBEC" stroke="#091A23" stroke-width="0.5"/>
<path d="M23.0985 6.42567C29.3423 7.49275 27.8194 11.9135 27.8194 12.2184C24.53 9.16959 18.3268 8.81389 15.6364 9.01714C16.0425 7.79762 18.1034 5.57201 23.0985 6.42567Z" fill="#80DBFF" stroke="#091A23" stroke-width="0.5"/>
<path d="M23.403 4.44395C24.0122 4.59638 23.403 6.27321 23.403 6.42565H22.4893C22.5908 5.71427 22.9157 4.32199 23.403 4.44395Z" fill="#80DBFF"/>
<path d="M13.352 10.9988C13.1997 10.8464 11.5246 6.88297 6.04222 9.77931C5.93782 9.83447 5.83632 9.89048 5.73764 9.9473C5.67801 9.98165 5.61941 10.0163 5.56183 10.0512C5.16338 9.3129 4.52837 8.30272 4.21477 8.40736C3.89743 8.51324 4.55207 9.6227 5.06234 10.3788C1.77764 12.7109 2.46236 16.0612 3.30104 17.5537C5.73764 16.8931 11.1591 14.6574 13.352 10.9988Z" fill="#80DBFF"/>
<path d="M20.6619 6.12078C19.7989 5.51102 18.2557 3.98663 18.9867 2.76712C19.9004 1.24273 15.4841 0.480532 12.5906 1.39517C9.69713 2.3098 5.73764 4.44394 6.95595 6.42565C7.93059 8.01102 6.54985 9.43399 5.73764 9.94731M5.73764 9.94731C5.83631 9.89048 5.93782 9.83447 6.04222 9.77931C11.5246 6.88297 13.1997 10.8464 13.352 10.9988C11.1591 14.6574 5.73764 16.8931 3.30104 17.5537C2.40906 15.9664 1.69124 12.2775 5.73764 9.94731ZM23.403 6.42565C23.403 6.27321 24.0122 4.59638 23.403 4.44395C22.9157 4.32199 22.5908 5.71427 22.4893 6.42565H23.403ZM5.73764 10.3891C5.38231 9.67769 4.58026 8.28541 4.21477 8.40736C3.84928 8.52931 4.77315 9.98257 5.28078 10.6939L5.73764 10.3891Z" stroke="#091A23" stroke-width="0.5"/>
<rect width="9.61888" height="0.914151" rx="0.457076" transform="matrix(-0.683405 0.730039 0.729362 0.684128 27.6095 19.0781)" fill="#091A23"/>
<rect width="6.85578" height="0.914478" rx="0.457239" transform="matrix(0.909455 0.415801 0.415119 -0.909767 15.5701 24.1063)" fill="#091A23"/>
<ellipse cx="16.5994" cy="2.7439" rx="16.5994" ry="2.7439" transform="matrix(-1 0 0 1 34.6723 45.5122)" fill="#091A23"/>
<line x1="21.9817" y1="13.1951" x2="21.9817" y2="15.6342" stroke="#091A23" stroke-width="0.5"/>
<line x1="11.2134" y1="25.9024" x2="13.6525" y2="25.9024" stroke="#091A23" stroke-width="0.5"/>
<line x1="21.9817" y1="36.061" x2="21.9817" y2="38.5" stroke="#091A23" stroke-width="0.5"/>
<line x1="30.1158" y1="25.9024" x2="32.5549" y2="25.9024" stroke="#091A23" stroke-width="0.5"/>
</svg>
