<svg xmlns="http://www.w3.org/2000/svg" width="16" height="16" viewBox="0 0 16 16" fill="none">
  <path d="M9.29373 9.8313L6.51112 1.83128C5.71112 0.631283 5.17779 1.33128 5.01112 1.83128L1.01112 13.8313C0.844457 14.1646 0.811123 14.8313 2.01112 14.8313C3.21112 14.8313 3.84445 14.8313 4.01111 14.8313C4.63015 14.8313 5.89681 14.5313 6.01111 13.3313L6.51111 12.3313M9.29373 9.8313L10.5111 13.3313C10.6778 13.998 10.6111 15.1313 9.01112 14.3313L5.01112 10.8313C4.51112 10.498 4.01112 9.8313 6.01112 9.8313C8.01112 9.8313 9.03286 9.8313 9.29373 9.8313ZM7.19534 9.8313L8.25026 6.8313" stroke="currentColor"/>
  <path d="M6.01111 1.3313H10.0111C10.3444 1.3313 11.1111 1.5313 11.5111 2.3313C11.9111 3.1313 14.0111 9.66463 15.0111 12.8313C15.1778 13.498 15.1111 14.8313 13.5111 14.8313C11.9111 14.8313 10.8444 14.8313 10.5111 14.8313L9.01111 14.3313" stroke="currentColor"/>
</svg>