<svg width="10" height="14" viewBox="0 0 10 14" fill="none" xmlns="http://www.w3.org/2000/svg">
<g clip-path="url(#clip0_1_2)">
<path fill-rule="evenodd" clip-rule="evenodd" d="M7.84649 9.40995C7.84649 9.07629 8.01774 8.77011 8.27299 8.55523C9.329 7.66625 10 6.33456 10 4.84615C10 2.1697 7.83031 0 5.15385 0C2.47739 0 0.307695 2.1697 0.307695 4.84615C0.307695 6.33481 0.978915 7.6667 2.03523 8.55567C2.29056 8.77055 2.46187 9.07678 2.46187 9.41049V10.8462C2.46187 11.3985 2.90959 11.8462 3.46187 11.8462H6.84649C7.39877 11.8462 7.84649 11.3985 7.84649 10.8462V9.40995Z" fill="#FFAF2B"/>
<mask id="mask0_1_2" style="mask-type:luminance" maskUnits="userSpaceOnUse" x="0" y="0" width="10" height="12">
<path fill-rule="evenodd" clip-rule="evenodd" d="M7.84649 9.40995C7.84649 9.07629 8.01774 8.77011 8.27299 8.55523C9.329 7.66625 10 6.33456 10 4.84615C10 2.1697 7.83031 0 5.15385 0C2.47739 0 0.307695 2.1697 0.307695 4.84615C0.307695 6.33481 0.978915 7.6667 2.03523 8.55567C2.29056 8.77055 2.46187 9.07678 2.46187 9.41049V10.8462C2.46187 11.3985 2.90959 11.8462 3.46187 11.8462H6.84649C7.39877 11.8462 7.84649 11.3985 7.84649 10.8462V9.40995Z" fill="#FFAF2B"/>
</mask>
<g mask="url(#mask0_1_2)">
<path d="M8.99993 4.84615C8.99993 6.02714 8.46887 7.08311 7.62892 7.79021L8.91693 9.32024C10.189 8.2494 10.9999 6.64199 10.9999 4.84615H8.99993ZM5.15378 1C7.27795 1 8.99993 2.72198 8.99993 4.84615H10.9999C10.9999 1.61741 8.38252 -1 5.15378 -1V1ZM1.30763 4.84615C1.30763 2.72198 3.02961 1 5.15378 1V-1C1.92504 -1 -0.692386 1.61741 -0.692386 4.84615H1.30763ZM2.67906 7.79056C1.83887 7.08346 1.30763 6.02733 1.30763 4.84615H-0.692386C-0.692386 6.64229 0.118844 8.24993 1.39126 9.32078L2.67906 7.79056ZM3.4618 10.8462V9.41049H1.4618V10.8462H3.4618ZM6.84642 10.8462H3.4618V12.8462H6.84642V10.8462ZM6.84642 9.40995V10.8462H8.84642V9.40995H6.84642ZM1.4618 10.8462C1.4618 11.9508 2.35723 12.8462 3.4618 12.8462V10.8462H1.4618ZM1.39126 9.32078C1.42567 9.34974 1.44564 9.37779 1.4552 9.39637C1.46394 9.41333 1.4618 9.41736 1.4618 9.41049H3.4618C3.4618 8.72544 3.11326 8.15597 2.67906 7.79056L1.39126 9.32078ZM6.84642 12.8462C7.95099 12.8462 8.84642 11.9508 8.84642 10.8462H6.84642V12.8462ZM7.62892 7.79021C7.19484 8.15562 6.84642 8.72502 6.84642 9.40995H8.84642C8.84642 9.41682 8.84428 9.41279 8.85301 9.39583C8.86258 9.37726 8.88253 9.3492 8.91693 9.32024L7.62892 7.79021Z" fill="#FFAF2B"/>
</g>
<path d="M4.03711 13.5H6.26788" stroke="#FFAF2B" stroke-linecap="round"/>
<path d="M5.69241 2.69238C6.23087 2.87187 7.3078 3.55392 7.3078 4.84623" stroke="#FFAF2B" stroke-linecap="round"/>
</g>
<defs>
<clipPath id="clip0_1_2">
<rect width="14" height="10" fill="white" transform="matrix(0 1 -1 0 10 0)"/>
</clipPath>
</defs>
</svg>
