<svg viewBox="0 0 12 17" xmlns="http://www.w3.org/2000/svg">
<mask fill="white" id="path-1-inside-1_122_550">
<path fill-rule="evenodd" clip-rule="evenodd" d="M8.61543 11.1782C8.61543 10.8445 8.78603 10.5377 9.04424 10.3263C10.285 9.31066 11.0769 7.76704 11.0769 6.03846C11.0769 2.97965 8.59727 0.5 5.53846 0.5C2.47965 0.5 0 2.97965 0 6.03846C0 7.76708 0.791926 9.31073 2.03277 10.3264C2.29098 10.5378 2.46159 10.8446 2.46159 11.1783V13.0387C2.46159 13.5909 2.90931 14.0387 3.46159 14.0387H7.61543C8.16772 14.0387 8.61543 13.5909 8.61543 13.0387V11.1782Z"/>
</mask>
<path d="M2.03277 10.3264L1.39936 11.1002L2.03277 10.3264ZM9.04424 10.3263L8.41082 9.55253L9.04424 10.3263ZM10.0769 6.03846C10.0769 7.45455 9.42955 8.71863 8.41082 9.55253L9.67766 11.1002C11.1405 9.90269 12.0769 8.07953 12.0769 6.03846H10.0769ZM5.53846 1.5C8.04498 1.5 10.0769 3.53194 10.0769 6.03846H12.0769C12.0769 2.42737 9.14956 -0.5 5.53846 -0.5V1.5ZM1 6.03846C1 3.53194 3.03194 1.5 5.53846 1.5V-0.5C1.92737 -0.5 -1 2.42737 -1 6.03846H1ZM2.66617 9.55259C1.64741 8.71869 1 7.45458 1 6.03846H-1C-1 8.07958 -0.0635551 9.90277 1.39936 11.1002L2.66617 9.55259ZM3.46159 13.0387V11.1783H1.46159V13.0387H3.46159ZM7.61543 13.0387H3.46159V15.0387H7.61543V13.0387ZM7.61543 11.1782V13.0387H9.61543V11.1782H7.61543ZM1.46159 13.0387C1.46159 14.1432 2.35702 15.0387 3.46159 15.0387V13.0387H3.46159H1.46159ZM1.39936 11.1002C1.4298 11.1251 1.44742 11.1497 1.45582 11.166C1.46346 11.1807 1.46159 11.1843 1.46159 11.1783H3.46159C3.46159 10.4951 3.11502 9.91999 2.66617 9.55259L1.39936 11.1002ZM7.61543 15.0387C8.72001 15.0387 9.61543 14.1432 9.61543 13.0387H7.61543V15.0387ZM8.41082 9.55253C7.96199 9.91994 7.61543 10.495 7.61543 11.1782H9.61543C9.61543 11.1842 9.61356 11.1806 9.6212 11.1659C9.6296 11.1496 9.64722 11.1251 9.67766 11.1002L8.41082 9.55253Z" mask="url(#path-1-inside-1_122_550)"/>
<line x1="4.19238" y1="16" x2="6.88469" y2="16" stroke="currentColor" stroke-linecap="round"/>
<path stroke="currentColor" d="M6.15405 3.57684C6.76944 3.78197 8.00021 4.56146 8.00021 6.03838" stroke-linecap="round"/>
</svg>
