<svg viewBox="0 0 170 58" fill="none" xmlns="http://www.w3.org/2000/svg">
<g filter="url(#filter0_d_1874_78527)">
<path d="M104.295 29.9517C103.097 29.1535 102.773 27.5299 103.571 26.3329C104.369 25.1359 105.992 24.8115 107.189 25.6089C108.386 26.4072 108.711 28.0308 107.913 29.2277C107.115 30.4248 105.491 30.7492 104.295 29.9517Z" fill="#F74B57"/>
</g>
<ellipse cx="4.4519" cy="0.705823" rx="4.4519" ry="0.705823" transform="matrix(0.976991 -0.21328 0.213281 0.976991 101 27.8262)" fill="#F98189"/>
<path d="M22.2082 33.6334C21.3083 31.708 22.1428 29.4091 24.0671 28.5088C25.9926 27.6088 28.2914 28.4434 29.1918 30.3676C30.0917 32.2931 29.2572 34.5919 27.3329 35.4923C25.4074 36.3922 23.1086 35.5577 22.2082 33.6334Z" fill="#7547DE"/>
<ellipse cx="6.57606" cy="0.862259" rx="6.57606" ry="0.862259" transform="matrix(0.945876 0.324526 -0.324529 0.945876 19.5596 28.7637)" fill="#9E7EE8"/>
<path opacity="0.3" fill-rule="evenodd" clip-rule="evenodd" d="M123 57.7892H27.2529C28.2048 52.7563 32.6255 48.9499 37.9352 48.9499C40.8639 48.9499 43.5222 50.1079 45.477 51.9911C48.1241 48.2414 52.491 45.7926 57.4299 45.7926C60.7851 45.7926 63.8764 46.9227 66.3438 48.8232C69.0065 46.0321 72.7624 44.293 76.9245 44.293C81.9451 44.293 86.3747 46.8235 89.0073 50.6787C90.8554 48.6926 93.4922 47.4503 96.4191 47.4503C99.4644 47.4503 102.196 48.7951 104.051 50.9232C105.846 50.1363 107.83 49.6997 109.915 49.6997C115.643 49.6997 120.601 52.993 123 57.7892Z" fill="#C1CBD9"/>
<path d="M68.6958 38.7133C69.9501 37.459 71.8606 37.3536 72.9739 38.467C74.0873 39.5803 74.0043 41.4684 72.7276 42.7451C70.6864 44.7863 67.3236 44.7328 67.0158 44.425C66.7081 44.1172 66.6546 40.7545 68.6958 38.7133Z" fill="#4766C4"/>
<path d="M75.955 42.522C74.7007 41.2677 74.5953 39.3572 75.7086 38.2439C76.822 37.1305 78.7101 37.2135 79.9868 38.4902C82.0279 40.5314 81.9745 43.8941 81.6667 44.2019C81.3589 44.5097 77.9962 44.5631 75.955 42.522Z" fill="#4766C4"/>
<path d="M74.0738 52.4829C74.0738 52.4829 71.6421 49.8286 71.7199 47.9171C71.7976 46.0057 74.4995 43.6792 74.4995 43.6792C74.4995 43.6792 76.8686 46.2892 76.7914 48.1873C76.7142 50.0855 74.0738 52.4829 74.0738 52.4829Z" fill="#FFAF2B"/>
<path d="M74.1661 50.1205C75.2555 50.1731 76.1813 49.3325 76.2339 48.243C76.2865 47.1536 75.4459 46.2278 74.3564 46.1752C73.267 46.1227 72.3412 46.9633 72.2886 48.0527C72.2361 49.1422 73.0766 50.0679 74.1661 50.1205Z" fill="#FFC76B"/>
<ellipse cx="5.63325" cy="10.3276" rx="5.63325" ry="10.3276" transform="matrix(-1 -7.29593e-08 1.45871e-06 -1 79.9351 46.6553)" fill="#7B90E0"/>
<path d="M72.1148 35.7133C70.9869 34.5449 71.02 32.6765 72.1875 31.5486C73.3559 30.4208 75.2243 30.4539 76.3522 31.6214C77.48 32.7898 77.4469 34.6582 76.2794 35.786C75.111 36.9139 73.2426 36.8808 72.1148 35.7133Z" fill="white"/>
<path d="M35.0091 17L35.2008 20.0006H34.803L35.0091 17Z" fill="#C1CBD9"/>
<path d="M34.991 23.0016L34.803 20.001H35.2008L34.991 23.0016Z" fill="#C1CBD9"/>
<path d="M38.0001 20.0114L35.002 20.1994V19.8018L38.0001 20.0114Z" fill="#C1CBD9"/>
<path d="M32 19.9898L35.0018 19.8018V20.1994L32 19.9898Z" fill="#C1CBD9"/>
<path d="M90.3592 0.21176C90.3592 0.32646 90.2621 0.423512 90.1474 0.423512C90.0326 0.423512 89.9355 0.32646 89.9355 0.21176C89.9355 0.0970591 90.0326 0 90.1474 0C90.2621 0 90.3592 0.0970591 90.3592 0.21176Z" fill="#FFFAEF"/>
<path d="M133 29C133 29.5556 132.556 30 132 30C131.444 30 131 29.5556 131 29C131 28.4444 131.444 28 132 28C132.556 28 133 28.4444 133 29Z" fill="#C1CBD9"/>
<path d="M133 21.5C133 21.7778 132.778 22 132.5 22C132.222 22 132 21.7778 132 21.5C132 21.2222 132.222 21 132.5 21C132.778 21 133 21.2222 133 21.5Z" fill="#C1CBD9"/>
<path d="M17 37C17 37.5556 16.5555 38 16 38C15.4444 38 15 37.5556 15 37C15 36.4444 15.4444 36 16 36C16.5555 36 17 36.4444 17 37Z" fill="#C1CBD9"/>
<path d="M26 41.5C26 41.7778 25.7778 42 25.5 42C25.2222 42 25 41.7778 25 41.5C25 41.2222 25.2222 41 25.5 41C25.7778 41 26 41.2222 26 41.5Z" fill="#C1CBD9"/>
<path d="M119 18.5C119 18.7778 118.778 19 118.5 19C118.222 19 118 18.7778 118 18.5C118 18.2222 118.222 18 118.5 18C118.778 18 119 18.2222 119 18.5Z" fill="#C1CBD9"/>
<defs>
<filter id="filter0_d_1874_78527" x="102.101" y="23.9324" width="7.69569" height="7.69569" filterUnits="userSpaceOnUse" color-interpolation-filters="sRGB">
<feFlood flood-opacity="0" result="BackgroundImageFix"/>
<feColorMatrix in="SourceAlpha" type="matrix" values="0 0 0 0 0 0 0 0 0 0 0 0 0 0 0 0 0 0 127 0" result="hardAlpha"/>
<feOffset dx="0.206574"/>
<feGaussianBlur stdDeviation="0.619723"/>
<feComposite in2="hardAlpha" operator="out"/>
<feColorMatrix type="matrix" values="0 0 0 0 0 0 0 0 0 0 0 0 0 0 0 0 0 0 0.12 0"/>
<feBlend mode="normal" in2="BackgroundImageFix" result="effect1_dropShadow_1874_78527"/>
<feBlend mode="normal" in="SourceGraphic" in2="effect1_dropShadow_1874_78527" result="shape"/>
</filter>
</defs>
</svg>
