<svg width="12" height="12" viewBox="0 0 12 12" fill="none" xmlns="http://www.w3.org/2000/svg">
<path d="M5.35184 4H0.5C0.224 4 0 3.776 0 3.5C0 3.224 0.224 3 0.5 3H5.35244L3.12 0.721327C2.94 0.538436 2.965 0.261912 3.175 0.105274C3.383 -0.0513651 3.698 -0.0312384 3.88 0.152528L6.88 3.21529C7.04 3.37893 7.04 3.62046 6.88 3.78409L3.88 6.84686C3.78 6.94837 3.641 7 3.5 7C3.385 7 3.269 6.965 3.175 6.89412C2.965 6.73748 2.94 6.46095 3.12 6.27806L5.35184 4ZM6.64795 8H11.5C11.776 8 12 8.224 12 8.5C12 8.776 11.776 9 11.5 9H6.64777L8.88 11.2785C9.06 11.4614 9.035 11.7379 8.825 11.8945C8.731 11.9654 8.615 12.0004 8.5 12.0004C8.359 12.0004 8.22 11.9488 8.12 11.8473L5.12 8.78449C4.96 8.62085 4.96 8.37933 5.12 8.21569L8.12 5.15293C8.302 4.96916 8.617 4.94903 8.825 5.10567C9.035 5.26231 9.06 5.53883 8.88 5.72172L6.64795 8Z" />
</svg>
