<svg viewBox="0 0 33 33" fill="none" xmlns="http://www.w3.org/2000/svg">
<g clip-path="url(#clip0_122_531)">
<path fill-rule="evenodd" clip-rule="evenodd" d="M16.5007 0.5C12.6999 0.498095 9.0226 1.84928 6.12725 4.3116C3.2319 6.77391 1.30766 10.1865 0.69912 13.9383C0.0905816 17.69 0.837495 21.5359 2.8061 24.7871C4.77471 28.0384 7.83642 30.4827 11.443 31.6822C12.243 31.828 12.5345 31.3267 12.5345 30.9107C12.5345 30.532 12.5203 29.524 12.5132 28.1907C8.06873 29.1578 7.12295 26.0449 7.12295 26.0449C6.82826 25.0776 6.19781 24.2473 5.34517 23.7036C3.89273 22.7116 5.4554 22.7311 5.4554 22.7311C5.9627 22.8012 6.44728 22.9863 6.87216 23.2722C7.29703 23.5581 7.65097 23.9373 7.90695 24.3809C8.1238 24.7755 8.41668 25.1232 8.76867 25.4039C9.12067 25.6846 9.5248 25.8928 9.95772 26.0165C10.3906 26.1401 10.8438 26.1767 11.2909 26.1243C11.7381 26.0718 12.1704 25.9312 12.563 25.7107C12.6367 24.9014 12.9967 24.145 13.5781 23.5773C10.0225 23.1738 6.28917 21.7996 6.28917 15.6698C6.26626 14.08 6.85643 12.5425 7.93717 11.3764C7.44807 9.99648 7.50403 8.48189 8.09362 7.14178C8.09362 7.14178 9.43584 6.71156 12.4936 8.78267C15.1156 8.06508 17.8823 8.06508 20.5043 8.78267C23.5585 6.71156 24.9007 7.14178 24.9007 7.14178C25.4922 8.48137 25.5488 9.99645 25.059 11.3764C26.1398 12.5423 26.7295 14.0801 26.7052 15.6698C26.7052 21.8173 22.9718 23.1684 19.3985 23.5649C19.7803 23.9529 20.0748 24.4181 20.2621 24.9292C20.4495 25.4403 20.5254 25.9856 20.4847 26.5284C20.4847 28.6618 20.4652 30.3933 20.4652 30.9178C20.4652 31.3462 20.7532 31.844 21.5656 31.6876C25.1767 30.4907 28.2432 28.0464 30.215 24.7931C32.1868 21.5397 32.9349 17.6902 32.3251 13.9352C31.7153 10.1801 29.7874 6.76519 26.8874 4.30302C23.9874 1.84086 20.305 0.492563 16.5007 0.5Z"/>
</g>
<defs>
<clipPath id="clip0_122_531">
<rect width="32.0018" height="32" transform="translate(0.499023 0.5)"/>
</clipPath>
</defs>
</svg>
