<?xml version="1.0" encoding="utf-8"?>
<!-- Generator: Adobe Illustrator 23.0.4, SVG Export Plug-In . SVG Version: 6.00 Build 0)  -->
<svg version="1.1" id="Layer_1" xmlns="http://www.w3.org/2000/svg" xmlns:xlink="http://www.w3.org/1999/xlink" x="0px" y="0px"
	 viewBox="0 0 527 97.99" style="enable-background:new 0 0 527 97.99;" xml:space="preserve">
<style type="text/css">
	.st0{fill:#A32321;}
	.st1{fill:#DC382D;}
	.st2{fill:#494C4D;}
</style>
<g>
	<g>
		<polygon class="st0" points="69.2,89.74 83.79,83.12 83.79,22.43 69.2,29.05 		"/>
		<polygon class="st1" points="69.2,29.05 83.79,22.43 69.2,16.74 		"/>
		<polygon class="st0" points="87.4,81.48 101.99,74.86 101.99,39.17 87.4,45.79 		"/>
		<polygon class="st1" points="87.4,45.79 101.99,39.17 87.4,33.49 		"/>
		<g>
			<polygon class="st1" points="9.42,37.15 0.25,40.73 51,63.74 51,56.1 			"/>
			<polygon class="st1" points="9.42,58.1 0.25,61.67 51,84.69 51,77.05 			"/>
			<polygon class="st1" points="0.25,19.78 51,42.8 51,12.31 65.59,5.69 51,0 			"/>
			<polygon class="st0" points="51,12.31 51,42.8 0.25,19.78 0.25,32.98 51,56.1 51,63.74 0.25,40.73 0.25,53.92 51,77.05 51,84.69 
				0.25,61.67 0.25,74.86 0,74.86 51,97.99 51,97.99 65.59,91.37 65.59,5.69 			"/>
		</g>
	</g>
	<g>
		<path class="st2" d="M150.02,36.59c1.05,0.87,1.57,1.89,1.57,3.07c0,1.59-0.41,2.78-1.23,3.57c-0.82,0.79-1.79,1.19-2.92,1.19
			c-0.77,0-1.64-0.18-2.61-0.54c-0.15-0.05-0.5-0.15-1.04-0.31c-0.54-0.15-1.12-0.23-1.73-0.23c-1.33,0-2.61,0.41-3.84,1.23
			c-1.23,0.82-2.24,2.06-3.03,3.72c-0.79,1.66-1.19,3.65-1.19,5.95v18.2c0,1.33-0.44,2.45-1.31,3.34c-0.87,0.9-1.97,1.34-3.3,1.34
			c-1.33,0-2.43-0.45-3.3-1.34c-0.87-0.89-1.31-2.01-1.31-3.34V40.74c0-1.33,0.44-2.44,1.31-3.34c0.87-0.89,1.97-1.34,3.3-1.34
			c1.33,0,2.43,0.45,3.3,1.34c0.87,0.9,1.31,2.01,1.31,3.34v1c1.18-2.1,2.87-3.7,5.07-4.8c2.2-1.1,4.55-1.65,7.06-1.65
			C147.68,35.28,148.97,35.72,150.02,36.59z"/>
		<path class="st2" d="M191.83,58.63c-0.92,0.77-2,1.15-3.22,1.15h-25.34c0.61,3.02,2.02,5.39,4.22,7.1
			c2.2,1.72,4.69,2.57,7.45,2.57c2.1,0,3.74-0.19,4.91-0.58c1.18-0.38,2.11-0.79,2.8-1.23c0.69-0.43,1.16-0.73,1.42-0.88
			c0.92-0.46,1.79-0.69,2.61-0.69c1.07,0,2,0.38,2.76,1.15s1.15,1.66,1.15,2.69c0,1.38-0.72,2.64-2.15,3.76
			c-1.43,1.18-3.35,2.18-5.76,2.99c-2.41,0.82-4.84,1.23-7.29,1.23c-4.3,0-8.05-0.89-11.25-2.69c-3.2-1.79-5.67-4.26-7.41-7.41
			c-1.74-3.15-2.61-6.69-2.61-10.63c0-4.4,0.92-8.27,2.76-11.59c1.84-3.33,4.28-5.87,7.29-7.64c3.02-1.77,6.25-2.65,9.68-2.65
			c3.38,0,6.56,0.92,9.56,2.76c2.99,1.84,5.39,4.33,7.18,7.45c1.79,3.12,2.69,6.5,2.69,10.14
			C193.24,56.86,192.76,57.86,191.83,58.63z M163.35,52.1h20.12v-0.54c-0.21-2.15-1.25-3.99-3.15-5.53c-1.89-1.54-4.04-2.3-6.45-2.3
			C167.93,43.73,164.42,46.52,163.35,52.1z"/>
		<path class="st2" d="M237.52,21.62c0.87,0.87,1.3,2,1.3,3.38v47.45c0,1.33-0.44,2.45-1.3,3.34c-0.87,0.9-1.97,1.34-3.3,1.34
			c-1.33,0-2.42-0.43-3.26-1.31c-0.85-0.87-1.29-1.97-1.34-3.3c-1.28,1.49-3.01,2.75-5.18,3.8c-2.18,1.05-4.47,1.57-6.87,1.57
			c-3.53,0-6.73-0.91-9.6-2.73c-2.87-1.82-5.13-4.34-6.79-7.56c-1.66-3.22-2.5-6.88-2.5-10.98c0-4.09,0.82-7.77,2.46-11.02
			c1.64-3.25,3.88-5.78,6.72-7.6c2.84-1.82,5.98-2.73,9.41-2.73c2.46,0,4.76,0.45,6.91,1.34c2.15,0.9,3.97,2.03,5.45,3.42V24.99
			c0-1.33,0.43-2.44,1.3-3.34c0.87-0.89,1.97-1.34,3.3-1.34C235.55,20.31,236.65,20.75,237.52,21.62z M226.85,65.81
			c2.1-2.43,3.15-5.49,3.15-9.18c0-3.69-1.05-6.76-3.15-9.21c-2.1-2.46-4.81-3.69-8.14-3.69c-3.28,0-5.96,1.23-8.06,3.69
			c-2.1,2.46-3.15,5.53-3.15,9.21c0,3.69,1.04,6.75,3.11,9.18c2.07,2.43,4.77,3.65,8.1,3.65C222.04,69.45,224.75,68.24,226.85,65.81
			z"/>
		<path class="st2" d="M249.12,30.22c-0.72-0.56-1.08-1.56-1.08-2.99v-1.46c0-1.43,0.38-2.43,1.15-2.99c0.77-0.56,2-0.84,3.69-0.84
			c1.79,0,3.04,0.28,3.76,0.84c0.72,0.56,1.07,1.56,1.07,2.99v1.46c0,1.49-0.37,2.5-1.11,3.03s-2.01,0.81-3.8,0.81
			C251.06,31.06,249.83,30.78,249.12,30.22z M256.18,75.79c-0.87,0.9-1.97,1.34-3.3,1.34s-2.43-0.45-3.3-1.34
			c-0.87-0.89-1.31-2.01-1.31-3.34V40.74c0-1.33,0.44-2.44,1.31-3.34c0.87-0.89,1.97-1.34,3.3-1.34s2.43,0.45,3.3,1.34
			c0.87,0.9,1.3,2.01,1.3,3.34v31.71C257.48,73.78,257.05,74.89,256.18,75.79z"/>
		<path class="st2" d="M263.86,68.46c0-1.33,0.66-2.46,2-3.38c0.72-0.46,1.46-0.69,2.23-0.69c1.08,0,2.1,0.49,3.07,1.46
			c1.54,1.59,3.13,2.76,4.8,3.53c1.66,0.77,3.67,1.15,6.03,1.15c3.99-0.15,5.99-1.66,5.99-4.53c0-1.48-0.68-2.61-2.03-3.38
			c-1.36-0.77-3.47-1.54-6.34-2.3c-2.97-0.82-5.39-1.64-7.26-2.46c-1.87-0.82-3.48-2.06-4.84-3.72c-1.36-1.66-2.04-3.9-2.04-6.72
			c0-2.46,0.7-4.59,2.11-6.41c1.41-1.82,3.25-3.22,5.53-4.22c2.28-1,4.7-1.5,7.26-1.5c2.61,0,5.22,0.49,7.83,1.46
			c2.61,0.97,4.66,2.41,6.14,4.3c0.66,0.82,1,1.74,1,2.76c0,1.18-0.49,2.15-1.46,2.92c-0.72,0.56-1.54,0.84-2.46,0.84
			c-1.13,0-2.05-0.36-2.77-1.08c-0.92-1.13-2.11-2.02-3.57-2.69c-1.46-0.66-3.11-1-4.95-1c-3.89,0-5.84,1.41-5.84,4.22
			c0,1.13,0.36,2.03,1.07,2.73c0.72,0.69,1.62,1.23,2.73,1.61c1.1,0.38,2.65,0.86,4.65,1.42c2.76,0.77,5.07,1.56,6.91,2.38
			c1.84,0.82,3.4,2.07,4.69,3.76c1.28,1.69,1.92,3.92,1.92,6.68c0,2.51-0.74,4.7-2.23,6.57c-1.49,1.87-3.39,3.29-5.72,4.26
			c-2.33,0.97-4.72,1.46-7.18,1.46c-3.38,0-6.53-0.56-9.44-1.69c-2.92-1.13-5.3-2.94-7.14-5.45
			C264.09,70.14,263.86,69.38,263.86,68.46z"/>
		<path class="st2" d="M304.78,31.33c-0.56-0.49-0.85-1.19-0.85-2.11v-0.77c0-0.92,0.29-1.62,0.88-2.11
			c0.59-0.49,1.39-0.73,2.42-0.73c2.05,0,3.07,0.95,3.07,2.84v0.77c0,0.92-0.27,1.63-0.81,2.11c-0.54,0.49-1.32,0.73-2.34,0.73
			C306.14,32.06,305.35,31.82,304.78,31.33z M308.82,76.48c-0.44,0.44-0.99,0.65-1.65,0.65c-0.67,0-1.22-0.22-1.65-0.65
			c-0.44-0.43-0.65-0.98-0.65-1.65V39.51c0-0.66,0.22-1.22,0.65-1.65c0.44-0.43,0.99-0.65,1.65-0.65c0.66,0,1.21,0.22,1.65,0.65
			c0.43,0.44,0.65,0.99,0.65,1.65v35.32C309.47,75.49,309.25,76.05,308.82,76.48z"/>
		<path class="st2" d="M350.43,41.16c2.23,2.79,3.34,6.49,3.34,11.1v22.58c0,0.67-0.23,1.22-0.69,1.65c-0.46,0.44-1,0.65-1.61,0.65
			c-0.67,0-1.22-0.22-1.65-0.65c-0.44-0.43-0.65-0.98-0.65-1.65V52.48c0-3.33-0.83-6.03-2.5-8.1c-1.66-2.07-4.24-3.11-7.72-3.11
			c-2.2,0-4.29,0.51-6.26,1.54c-1.97,1.02-3.57,2.39-4.8,4.11c-1.23,1.72-1.84,3.57-1.84,5.57v22.34c0,0.67-0.22,1.22-0.65,1.65
			c-0.44,0.44-0.99,0.65-1.65,0.65c-0.67,0-1.22-0.22-1.65-0.65c-0.44-0.43-0.65-0.98-0.65-1.65v-34.4c0-0.66,0.22-1.22,0.65-1.65
			c0.43-0.43,0.98-0.65,1.65-0.65c0.66,0,1.21,0.22,1.65,0.65c0.44,0.44,0.65,0.99,0.65,1.65v4.22c1.38-2.2,3.37-4.03,5.95-5.49
			c2.58-1.46,5.23-2.19,7.95-2.19C344.71,36.97,348.21,38.37,350.43,41.16z"/>
		<path class="st2" d="M362.99,69.22c0-0.66,0.33-1.18,1-1.54c0.31-0.31,0.71-0.46,1.23-0.46c0.61,0,1.18,0.26,1.69,0.77
			c3.02,3.99,7.04,5.99,12.06,5.99c2.46,0,4.59-0.58,6.41-1.73c1.82-1.15,2.72-2.83,2.72-5.03c0-2.15-0.84-3.76-2.53-4.84
			s-4.04-2-7.06-2.76c-4.25-1.08-7.58-2.47-9.98-4.18c-2.41-1.71-3.61-4.24-3.61-7.56c0-2.1,0.59-3.98,1.77-5.64
			c1.18-1.66,2.78-2.96,4.8-3.88c2.02-0.92,4.31-1.38,6.87-1.38c2.2,0,4.42,0.42,6.64,1.27c2.23,0.84,4.13,2.19,5.72,4.03
			c0.46,0.36,0.69,0.87,0.69,1.54c0,0.61-0.26,1.15-0.77,1.61c-0.36,0.31-0.82,0.46-1.38,0.46c-0.51,0-0.97-0.2-1.38-0.61
			c-1.23-1.38-2.69-2.43-4.38-3.15c-1.69-0.72-3.51-1.07-5.45-1.07c-2.41,0-4.47,0.56-6.18,1.69c-1.72,1.13-2.57,2.82-2.57,5.07
			c0.1,2.05,1.04,3.61,2.8,4.68c1.77,1.08,4.36,2.05,7.79,2.92c2.66,0.67,4.86,1.41,6.6,2.23c1.74,0.82,3.16,1.97,4.26,3.46
			c1.1,1.49,1.65,3.46,1.65,5.91c0,3.33-1.33,5.98-3.99,7.95c-2.66,1.97-5.96,2.96-9.91,2.96c-6.25,0-11.21-2.33-14.9-6.99
			C363.19,70.25,362.99,69.68,362.99,69.22z"/>
		<path class="st2" d="M401.61,31.33c-0.56-0.49-0.84-1.19-0.84-2.11v-0.77c0-0.92,0.29-1.62,0.88-2.11
			c0.59-0.49,1.39-0.73,2.42-0.73c2.05,0,3.07,0.95,3.07,2.84v0.77c0,0.92-0.27,1.63-0.81,2.11c-0.54,0.49-1.32,0.73-2.34,0.73
			C402.97,32.06,402.17,31.82,401.61,31.33z M405.64,76.48c-0.44,0.44-0.99,0.65-1.65,0.65c-0.67,0-1.22-0.22-1.65-0.65
			c-0.44-0.43-0.65-0.98-0.65-1.65V39.51c0-0.66,0.22-1.22,0.65-1.65c0.43-0.43,0.98-0.65,1.65-0.65c0.67,0,1.22,0.22,1.65,0.65
			c0.43,0.44,0.65,0.99,0.65,1.65v35.32C406.29,75.49,406.08,76.05,405.64,76.48z"/>
		<path class="st2" d="M453.09,38.55c0.44,0.44,0.65,1.01,0.65,1.73v33.25c0,3.99-0.83,7.41-2.5,10.25c-1.66,2.84-3.94,5-6.83,6.49
			c-2.89,1.48-6.21,2.23-9.94,2.23c-1.79,0-3.67-0.23-5.64-0.69c-1.97-0.46-3.66-1.05-5.07-1.77c-1.41-0.72-2.21-1.46-2.42-2.23
			c-0.36-0.36-0.54-0.77-0.54-1.23c0-0.51,0.23-0.92,0.69-1.23c0.21-0.15,0.46-0.23,0.77-0.23c0.31,0,0.9,0.18,1.77,0.54l1.61,0.69
			c3.17,1.23,6.14,1.84,8.91,1.84c4.56,0,8.13-1.29,10.71-3.88c2.58-2.59,3.88-6.08,3.88-10.48v-4.76c-1.28,2.76-3.3,4.93-6.07,6.49
			c-2.76,1.56-5.66,2.34-8.68,2.34c-3.53,0-6.72-0.88-9.56-2.65c-2.84-1.77-5.08-4.21-6.72-7.33c-1.64-3.12-2.46-6.63-2.46-10.52
			c0-3.84,0.82-7.32,2.46-10.44c1.64-3.12,3.88-5.57,6.72-7.33c2.84-1.77,6-2.65,9.48-2.65c3.23,0,6.18,0.81,8.87,2.42
			c2.69,1.61,4.67,3.55,5.95,5.8v-4.91c0-0.66,0.22-1.23,0.65-1.69c0.43-0.46,0.98-0.69,1.65-0.69
			C452.11,37.89,452.66,38.11,453.09,38.55z M442.34,71.57c2.23-1.36,3.97-3.28,5.22-5.76c1.25-2.48,1.88-5.29,1.88-8.41
			c0-3.12-0.63-5.91-1.88-8.37c-1.26-2.46-3-4.36-5.22-5.72c-2.23-1.36-4.75-2.03-7.56-2.03c-2.76,0-5.26,0.7-7.49,2.11
			c-2.23,1.41-3.97,3.34-5.22,5.8c-1.26,2.46-1.88,5.2-1.88,8.22c0,3.07,0.62,5.84,1.88,8.29c1.25,2.46,2.99,4.39,5.22,5.8
			c2.23,1.41,4.72,2.11,7.49,2.11C437.59,73.6,440.12,72.92,442.34,71.57z"/>
		<path class="st2" d="M494.06,41.93c2.25,2.89,3.38,6.62,3.38,11.17v21.73c0,0.67-0.22,1.22-0.65,1.65
			c-0.44,0.44-0.99,0.65-1.65,0.65c-0.67,0-1.22-0.22-1.65-0.65c-0.44-0.43-0.65-0.98-0.65-1.65V53.1c0-3.33-0.79-6.03-2.38-8.1
			c-1.59-2.07-4.07-3.11-7.45-3.11c-2.15,0-4.19,0.51-6.11,1.54c-1.92,1.02-3.47,2.39-4.64,4.11c-1.18,1.72-1.77,3.57-1.77,5.57
			v21.73c0,0.67-0.22,1.22-0.65,1.65c-0.44,0.44-0.99,0.65-1.65,0.65c-0.67,0-1.22-0.22-1.65-0.65c-0.44-0.43-0.65-0.98-0.65-1.65
			V22.61c0-0.66,0.22-1.22,0.65-1.65c0.43-0.43,0.98-0.65,1.65-0.65c0.66,0,1.21,0.22,1.65,0.65c0.44,0.44,0.65,0.99,0.65,1.65v22.5
			c1.38-2.2,3.3-4.01,5.76-5.41c2.46-1.41,4.96-2.11,7.52-2.11C488.38,37.59,491.81,39.03,494.06,41.93z"/>
		<path class="st2" d="M517.17,42.35v25.72c0,1.95,0.36,3.26,1.07,3.95c0.72,0.69,1.66,1.04,2.84,1.04c0.31,0,0.69-0.06,1.15-0.19
			c0.46-0.13,0.82-0.19,1.07-0.19c0.46,0,0.86,0.19,1.19,0.58c0.33,0.38,0.5,0.83,0.5,1.34c0,0.72-0.41,1.32-1.23,1.8
			c-0.82,0.49-1.79,0.73-2.92,0.73c-1.38,0-2.61-0.13-3.69-0.38c-1.08-0.26-2.11-1.02-3.11-2.3c-1-1.28-1.5-3.33-1.5-6.14V42.35
			h-5.61c-0.61,0-1.14-0.2-1.57-0.61c-0.44-0.41-0.65-0.92-0.65-1.54c0-0.61,0.22-1.13,0.65-1.54c0.44-0.41,0.96-0.61,1.57-0.61
			h5.61v-8.52c0-0.66,0.22-1.22,0.65-1.65c0.43-0.43,0.98-0.65,1.65-0.65c0.66,0,1.21,0.22,1.65,0.65c0.44,0.44,0.65,0.99,0.65,1.65
			v8.52h7.68c0.56,0,1.06,0.23,1.5,0.69c0.43,0.46,0.65,0.97,0.65,1.54c0,0.61-0.21,1.11-0.61,1.5c-0.41,0.38-0.92,0.58-1.54,0.58
			H517.17z"/>
	</g>
</g>
</svg>
