<svg width="186" height="36" viewBox="0 0 186 36" fill="none" xmlns="http://www.w3.org/2000/svg">
<path d="M84.4449 10.6009C81.5528 10.6009 79.2396 12.4136 79.2396 15.5373C79.2396 16.4627 79.5866 18.5459 79.5866 20.1654C79.5866 21.515 79.0851 22.4025 78.0826 22.4025C77.234 22.4025 76.1543 21.4385 75.4224 19.6644C75.1526 19.0089 74.7283 19.0089 74.3813 19.4333C72.7235 21.4771 71.7211 22.4418 70.6414 22.4418C70.0633 22.4418 69.9087 22.1721 69.9087 21.7477C69.9087 20.1661 72.0681 17.3894 74.9216 13.9959C75.461 13.3404 73.2637 11.4504 71.1043 10.5637C67.6728 14.1891 61.6188 22.4426 59.0738 22.4426C58.6881 22.4426 58.3411 22.2501 58.3411 21.6711C58.3411 21.0543 58.9965 19.7811 59.6905 18.6247C62.3894 14.1891 69.2147 6.74582 71.2581 4.8952C71.7976 4.43218 69.8314 2.15719 67.0939 1C64.3088 3.64586 61.0207 7.61315 57.1447 13.2118C56.4916 11.4296 55.0098 10.3712 53.0578 10.3712C50.1657 10.3712 47.4281 12.2999 43.8034 16.7347C40.1013 21.2467 37.0554 23.1754 33.8163 23.1754C31.6183 23.1754 31.1174 22.3653 31.1174 21.0156C31.1174 20.9004 31.1278 20.7807 31.1434 20.6596C31.7669 20.8707 32.5048 20.9777 33.3155 20.9777C38.0586 20.9777 41.4515 16.9666 41.4515 14.0739C41.4515 11.683 39.7164 10.1014 37.1713 10.1014C33.0071 10.1014 30.1536 12.8008 27.6859 15.848C24.4468 19.8978 22.5192 22.6745 18.2004 22.6745C14.4805 22.6745 13.0946 19.3932 12.9973 16.7272C13.8125 18.4508 15.4056 19.8465 17.892 19.7819C22.6738 19.6273 25.9508 15.3084 25.9508 11.3746C25.9508 6.66927 22.4419 3.27573 16.3494 3.27573C11.9919 3.27573 6.59339 4.93385 3.0459 7.55667C3.00726 10.256 4.51127 13.7663 5.05075 13.3805C8.12638 11.1687 10.5652 9.74545 12.9304 9.03121C9.429 12.9361 1.02843 22.0041 0 23.6005C0.115921 25.0661 1.92831 29 2.81481 29C3.08455 29 3.31639 28.8454 3.58613 28.5756C6.11856 25.7291 8.1836 23.1776 10.0198 20.7183C10.2776 24.3229 12.0499 28.7302 17.0048 28.7302C20.4371 28.7302 23.3188 26.6589 25.4566 23.2319C25.6855 26.2256 27.613 28.6143 32.0426 28.6143C35.9274 28.6143 39.6644 25.7729 41.6715 23.3047C41.1937 26.2434 42.6702 28.6143 45.6544 28.6143C48.4038 28.6143 51.2565 26.5927 52.8333 23.6548C52.6201 26.3229 53.5497 28.6143 56.1817 28.6143C58.7595 28.6143 61.4479 25.9075 62.8442 23.4385C62.7617 26.0442 63.5798 28.6143 67.0553 28.6143C69.2786 28.6143 72.1788 26.9978 74.1629 23.443C74.9112 26.6239 76.589 28.6143 79.626 28.6143C82.9424 28.6143 85.1018 26.3385 85.1018 23.2534C85.1018 20.4381 84.2146 17.7388 84.2146 16.5043C84.2146 15.8101 84.2532 15.2698 85.0245 15.2698C85.6413 15.2698 86.2967 16.0026 86.8756 17.2363C87.5696 17.0052 89.1888 15.5396 89.4593 14.2278C88.5319 11.6429 86.6036 10.6009 84.4449 10.6009ZM21.3221 11.6429C21.3221 13.9186 19.0854 15.0364 17.0419 15.0364C15.9496 15.0364 15.1106 14.7495 14.4463 14.3764C15.6672 12.5273 16.8762 10.6306 18.1751 8.60089C20.4653 8.98885 21.3221 10.262 21.3221 11.6429ZM36.7077 14.6893C37.3244 14.6893 37.7101 15.1137 37.7101 15.7306C37.7101 17.1189 35.8591 19.2014 33.1215 19.2014C32.6103 19.2014 32.1347 19.1137 31.729 18.9576C32.8273 16.861 35.1606 14.6893 36.7077 14.6893ZM49.0466 22.4797C48.2366 22.4797 47.851 22.0167 47.851 21.3226C47.851 19.1628 51.2825 14.8432 53.5579 14.8432C54.2519 14.8432 54.6762 15.3062 54.6762 16.0777C54.6762 17.929 51.553 22.4797 49.0466 22.4797Z" fill="#FF4438"/>
<path d="M97.1629 27V5.55H98.8429V27H97.1629ZM104.213 27V11.31H105.803V14.37C106.523 12.66 108.563 11.07 111.353 11.07C114.683 11.07 116.933 12.87 116.933 17.34V27H115.343V17.25C115.343 13.92 113.783 12.45 110.993 12.45C108.383 12.45 105.803 14.19 105.803 17.49V27H104.213ZM126.413 27.27C122.723 27.27 120.593 25.32 120.383 22.32H121.913C122.183 24.45 123.503 25.92 126.413 25.92C129.053 25.92 130.403 24.72 130.403 22.83C130.403 20.82 129.233 20.19 126.293 19.65C122.453 18.96 120.893 17.97 120.893 15.27C120.893 12.6 123.413 11.07 126.053 11.07C128.873 11.07 131.093 12.24 131.513 15.33H129.983C129.593 13.32 128.303 12.42 126.023 12.42C123.833 12.42 122.363 13.53 122.363 15.21C122.363 17.01 123.443 17.67 126.653 18.24C130.013 18.84 131.933 19.65 131.933 22.71C131.933 25.35 129.983 27.27 126.413 27.27ZM136.488 7.95C135.858 7.95 135.348 7.44 135.348 6.81C135.348 6.21 135.858 5.7 136.488 5.7C137.118 5.7 137.598 6.21 137.598 6.81C137.598 7.44 137.118 7.95 136.488 7.95ZM135.708 27V11.31H137.298V27H135.708ZM148.45 32.64C143.92 32.64 141.82 30.42 141.43 27.9H143.05C143.47 29.91 145.15 31.29 148.42 31.29C151.78 31.29 154.12 29.76 154.12 25.89V22.68C153.28 24.57 151.09 26.49 148.18 26.49C144.19 26.49 141.1 23.55 141.1 18.99V18.78C141.1 14.31 144.25 11.07 148.39 11.07C151.48 11.07 153.22 12.78 154.12 14.7V11.31H155.71V25.95C155.68 30.57 152.65 32.64 148.45 32.64ZM148.33 25.14C151.51 25.14 154.15 22.83 154.15 18.9V18.66C154.15 14.7 151.81 12.42 148.54 12.42C145.18 12.42 142.75 14.82 142.75 18.72V18.96C142.75 22.86 145.21 25.14 148.33 25.14ZM160.639 27V3.81H162.229V14.37C162.949 12.66 164.989 11.07 167.779 11.07C171.109 11.07 173.359 12.87 173.359 17.34V27H171.769V17.25C171.769 13.92 170.209 12.45 167.419 12.45C164.809 12.45 162.229 14.19 162.229 17.49V27H160.639ZM182.51 27.21C180.02 27.21 178.67 25.74 178.67 23.22V12.66H176.36V11.31H178.67V7.74H180.26V11.31H184.37V12.66H180.26V23.1C180.26 24.99 181.16 25.86 182.6 25.86C183.41 25.86 184.04 25.71 184.58 25.53V26.88C184.07 27.06 183.47 27.21 182.51 27.21Z" fill="#171717"/>
</svg>
