<svg xmlns="http://www.w3.org/2000/svg" width="174.582" height="32.455" viewBox="0 0 174.582 32.455">
  <g id="redis-insight-fullLogo" transform="translate(0.002)">
    <g id="RedisLogo">
      <path id="Path_10331" data-name="Path 10331" d="M19537.5,3022.836v-4.406l3.045-1.19-3.045-1.392v-4.373l3.045-1.157-3.045-1.392v-4.373l16.818-6.556,4.838,1.886v28.38l-4.838,2.189Zm22.846-15.234v-4.075l4.834,1.891v20.1l-4.834,2.184Zm6.023,5.563v-4.07l4.838,1.886V3022.8l-4.838,2.184Z" transform="translate(-19537.502 -2997.999)" fill="#dc382d"/>
      <path id="Path_10330" data-name="Path 10330" d="M19537.5,3020.95v-4.406l16.822,7.617v-2.515l-16.822-7.684v-4.373l16.822,7.617v-2.515l-16.822-7.65v-4.373l16.822,7.617v-10.1l4.834-2.189v28.38l-4.834,2.189Zm22.85-15.234,4.834-2.184v20.1l-4.834,2.188Zm6.023,5.563,4.838-2.184v11.821l-4.838,2.184Z" transform="translate(-19537.5 -2996.112)" fill="#a32321"/>
    </g>
    <path id="Path_10332" data-name="Path 10332" d="M19527.545,3014.671a9.139,9.139,0,0,1-1.689-.595,1.415,1.415,0,0,1-.791-.729.522.522,0,0,1-.168-.4.427.427,0,0,1,.23-.393.362.362,0,0,1,.27-.067,3.046,3.046,0,0,1,.594.163l.529.235a8.443,8.443,0,0,0,2.949.595,4.752,4.752,0,0,0,3.541-1.29,4.7,4.7,0,0,0,1.295-3.478v-1.588a4.691,4.691,0,0,1-2.025,2.149,5.646,5.646,0,0,1-2.877.763,5.932,5.932,0,0,1-3.182-.892,6.251,6.251,0,0,1-2.215-2.418,7.5,7.5,0,0,1-.826-3.478,7.008,7.008,0,0,1,.826-3.444,6.021,6.021,0,0,1,2.215-2.418,5.947,5.947,0,0,1,6.1-.1,5.339,5.339,0,0,1,1.986,1.924v-1.622a.82.82,0,0,1,.2-.566.662.662,0,0,1,.527-.23,1.967,1.967,0,0,1,.531.3.761.761,0,0,1,.2.561v11a6.406,6.406,0,0,1-.824,3.377,5.7,5.7,0,0,1-2.25,2.154,7.076,7.076,0,0,1-3.281.729A7.25,7.25,0,0,1,19527.545,3014.671Zm-.561-15.961a4.635,4.635,0,0,0-1.723,1.924,6.249,6.249,0,0,0,0,5.464,4.651,4.651,0,0,0,1.723,1.919,4.52,4.52,0,0,0,2.484.7,4.812,4.812,0,0,0,2.514-.662,4.619,4.619,0,0,0,1.721-1.924,6.293,6.293,0,0,0,.631-2.778,5.888,5.888,0,0,0-.631-2.782,4.515,4.515,0,0,0-1.721-1.89,4.634,4.634,0,0,0-2.514-.662A4.557,4.557,0,0,0,19526.984,2998.71Zm-51.523,10.928a5.032,5.032,0,0,1-2.352-1.789,1.827,1.827,0,0,1-.2-.825,1.369,1.369,0,0,1,.662-1.127,1.266,1.266,0,0,1,.725-.23,1.433,1.433,0,0,1,1.025.494,4.664,4.664,0,0,0,3.58,1.559q1.986-.1,1.986-1.492a1.262,1.262,0,0,0-.662-1.127,10.325,10.325,0,0,0-2.086-.758,14.692,14.692,0,0,1-2.418-.83,4.46,4.46,0,0,1-1.588-1.223,3.472,3.472,0,0,1-.664-2.221,3.326,3.326,0,0,1,.7-2.116,4.552,4.552,0,0,1,1.818-1.391,5.985,5.985,0,0,1,2.418-.5,7.155,7.155,0,0,1,2.586.5,4.4,4.4,0,0,1,2.02,1.42,1.351,1.351,0,0,1,.332.93,1.119,1.119,0,0,1-.5.96,1.184,1.184,0,0,1-.824.264,1.385,1.385,0,0,1-.932-.365,3.285,3.285,0,0,0-1.189-.892,3.735,3.735,0,0,0-1.654-.331c-1.291,0-1.92.461-1.92,1.391a1.207,1.207,0,0,0,.365.892,2.349,2.349,0,0,0,.893.528,13.93,13.93,0,0,0,1.521.465,18.01,18.01,0,0,1,2.289.8,4.066,4.066,0,0,1,1.553,1.257,3.519,3.519,0,0,1,.627,2.221,3.391,3.391,0,0,1-.729,2.183,4.732,4.732,0,0,1-1.885,1.425,5.916,5.916,0,0,1-2.385.494A8.636,8.636,0,0,1,19475.461,3009.638Zm-35.6-.365a6.219,6.219,0,0,1-2.447-2.451,7.285,7.285,0,0,1-.865-3.507,7.557,7.557,0,0,1,.932-3.843,6.318,6.318,0,0,1,2.418-2.519,6.1,6.1,0,0,1,3.211-.892,5.821,5.821,0,0,1,3.178.926,6.911,6.911,0,0,1,3.277,5.829,1.329,1.329,0,0,1-.527.926,1.544,1.544,0,0,1-1.061.4h-8.375a3.8,3.8,0,0,0,1.387,2.351,3.935,3.935,0,0,0,2.451.864,4.759,4.759,0,0,0,2.547-.595,2.986,2.986,0,0,0,.465-.3,1.778,1.778,0,0,1,.863-.235,1.258,1.258,0,0,1,.926.4,1.193,1.193,0,0,1,.365.892,1.646,1.646,0,0,1-.7,1.262,5.952,5.952,0,0,1-1.924.993,7.555,7.555,0,0,1-2.414.4A7.343,7.343,0,0,1,19439.859,3009.274Zm-.232-7.681h6.658v-.168a2.511,2.511,0,0,0-1.025-1.818,3.312,3.312,0,0,0-2.121-.763h-.105A3.073,3.073,0,0,0,19439.627,3001.593Zm66.229,6.222a2.34,2.34,0,0,1-.129-.561.494.494,0,0,1,.332-.494.533.533,0,0,1,.4-.168.816.816,0,0,1,.561.264,4.739,4.739,0,0,0,4.006,1.986,3.956,3.956,0,0,0,2.121-.561,1.821,1.821,0,0,0,.893-1.655,1.692,1.692,0,0,0-.824-1.588,9.27,9.27,0,0,0-2.352-.931,10.321,10.321,0,0,1-3.314-1.391,2.869,2.869,0,0,1-1.191-2.514,3.07,3.07,0,0,1,.6-1.856,4.128,4.128,0,0,1,1.594-1.291,5.51,5.51,0,0,1,2.283-.465,5.717,5.717,0,0,1,2.184.432,4.66,4.66,0,0,1,1.889,1.324.6.6,0,0,1,.23.5.677.677,0,0,1-.264.528.716.716,0,0,1-.465.168.647.647,0,0,1-.461-.2,4.239,4.239,0,0,0-1.459-1.055,4.112,4.112,0,0,0-1.822-.365,3.75,3.75,0,0,0-2.055.561,1.883,1.883,0,0,0-.857,1.688,1.84,1.84,0,0,0,.926,1.554,10.252,10.252,0,0,0,2.586.964,12.813,12.813,0,0,1,2.182.725,3.714,3.714,0,0,1,1.426,1.161,3.246,3.246,0,0,1,.533,1.952,3.042,3.042,0,0,1-1.328,2.62,5.355,5.355,0,0,1-3.277.993A5.962,5.962,0,0,1,19505.855,3007.815Zm-51.49,1.391a6.137,6.137,0,0,1-2.248-2.514,8.394,8.394,0,0,1,0-7.287,6.538,6.538,0,0,1,2.215-2.514,5.656,5.656,0,0,1,3.113-.9,6.378,6.378,0,0,1,2.283.432,5.659,5.659,0,0,1,1.791,1.127v-4.936a1.469,1.469,0,0,1,1.525-1.521,1.406,1.406,0,0,1,1.121.4,1.491,1.491,0,0,1,.432,1.123v15.7a1.524,1.524,0,1,1-3.047,0,4.9,4.9,0,0,1-1.721,1.257,5.034,5.034,0,0,1-2.285.532A5.878,5.878,0,0,1,19454.365,3009.207Zm.926-9.173a4.529,4.529,0,0,0-1.021,3.046,4.453,4.453,0,0,0,1.021,3.046,3.43,3.43,0,0,0,2.682,1.228,3.58,3.58,0,0,0,2.682-1.228,4.428,4.428,0,0,0,1.027-3.046,4.645,4.645,0,0,0-1.027-3.046,3.551,3.551,0,0,0-5.363,0Zm46.064,9.672a.78.78,0,0,1-.2-.561v-7.422a4.138,4.138,0,0,0-.824-2.682,3.06,3.06,0,0,0-2.553-1.027,4.619,4.619,0,0,0-2.088.5,4.267,4.267,0,0,0-1.588,1.358,3.165,3.165,0,0,0-.6,1.852v7.388a.828.828,0,0,1-.2.561.77.77,0,0,1-.529.23.625.625,0,0,1-.533-.23.794.794,0,0,1-.2-.561v-11.394a.845.845,0,0,1,.2-.561.659.659,0,0,1,.533-.23.609.609,0,0,1,.529.23.771.771,0,0,1,.2.561v1.391a5.626,5.626,0,0,1,1.986-1.823,5.186,5.186,0,0,1,2.65-.724,4.217,4.217,0,0,1,3.41,1.42,5.8,5.8,0,0,1,1.094,3.68v7.484a.723.723,0,0,1-.234.561.826.826,0,0,1-.527.23A.622.622,0,0,1,19501.355,3009.706Zm47.648-.034a.8.8,0,0,1-.2-.561v-7.187a4.314,4.314,0,0,0-.791-2.682,2.924,2.924,0,0,0-2.484-1.027,4.32,4.32,0,0,0-2.02.494,4.026,4.026,0,0,0-1.527,1.357,3.217,3.217,0,0,0-.594,1.857v7.187a.839.839,0,0,1-.2.561.759.759,0,0,1-.529.23.608.608,0,0,1-.527-.23.78.78,0,0,1-.2-.561v-17.285a.7.7,0,0,1,.2-.533.736.736,0,0,1,.527-.2.69.69,0,0,1,.529.2.757.757,0,0,1,.2.533v7.45a5.242,5.242,0,0,1,1.918-1.789,5.029,5.029,0,0,1,2.484-.7,4.011,4.011,0,0,1,3.344,1.425,5.94,5.94,0,0,1,1.129,3.708v7.187a.845.845,0,0,1-.2.561.782.782,0,0,1-.531.23A.612.612,0,0,1,19549,3009.672Zm-30.234,0a.794.794,0,0,1-.2-.561v-11.691a.846.846,0,0,1,.2-.561.666.666,0,0,1,.533-.235.612.612,0,0,1,.529.235.772.772,0,0,1,.2.561v11.691a.571.571,0,0,1-.2.561.77.77,0,0,1-.529.23A.616.616,0,0,1,19518.77,3009.672Zm-32.051,0a.772.772,0,0,1-.2-.561v-11.691a.821.821,0,0,1,.2-.561.77.77,0,0,1,.527-.235.663.663,0,0,1,.533.235.787.787,0,0,1,.2.561v11.691a.672.672,0,0,1-.2.561.783.783,0,0,1-.533.23A.6.6,0,0,1,19486.719,3009.672Zm-59.371-.2a1.469,1.469,0,0,1-.432-1.094v-10.564a1.476,1.476,0,0,1,1.518-1.525,1.618,1.618,0,0,1,1.1.432,1.477,1.477,0,0,1,.432,1.094v.331a3.924,3.924,0,0,1,1.689-1.588,5.238,5.238,0,0,1,2.35-.566,1.963,1.963,0,0,1,1.189.465,1.271,1.271,0,0,1,.533,1.027,1.612,1.612,0,0,1-.4,1.19,1.306,1.306,0,0,1-.959.4,3.171,3.171,0,0,1-.863-.163c-.029,0-.162-.067-.326-.1a1.553,1.553,0,0,0-.568-.067,2.254,2.254,0,0,0-1.256.4,3.094,3.094,0,0,0-.992,1.223,4.563,4.563,0,0,0-.4,1.991v6.025a1.546,1.546,0,0,1-2.613,1.094Zm40.824-.033a1.474,1.474,0,0,1-.428-1.094v-10.53a1.47,1.47,0,0,1,1.521-1.525,1.614,1.614,0,0,1,1.094.432,1.479,1.479,0,0,1,.434,1.094v10.5a1.634,1.634,0,0,1-.434,1.127,1.615,1.615,0,0,1-2.187,0Zm88.646.23a1.963,1.963,0,0,1-1.025-.763,3.31,3.31,0,0,1-.494-2.02v-8.606h-1.857a.807.807,0,0,1-.527-.2.657.657,0,0,1-.2-.494.667.667,0,0,1,.2-.5.738.738,0,0,1,.527-.2h1.857v-2.816a.622.622,0,0,1,.234-.532.775.775,0,0,1,.561-.2.839.839,0,0,1,.561.2.775.775,0,0,1,.23.532v2.85h2.553a.581.581,0,0,1,.494.23.841.841,0,0,1,.236.494.678.678,0,0,1-.2.5.663.663,0,0,1-.5.2h-2.68v8.51a1.772,1.772,0,0,0,.363,1.3,1.28,1.28,0,0,0,.926.331,2.409,2.409,0,0,0,.4-.067,2.044,2.044,0,0,1,.365-.067.469.469,0,0,1,.393.2.7.7,0,0,1,.168.432.71.71,0,0,1-.4.595,1.773,1.773,0,0,1-.959.235A4.592,4.592,0,0,1,19556.818,3009.672Zm-38.311-14.968a.836.836,0,0,1-.264-.7v-.264a.861.861,0,0,1,.295-.7,1.2,1.2,0,0,1,.8-.23c.662,0,1.025.331,1.025.926v.264a.938.938,0,0,1-.268.7,1.03,1.03,0,0,1-.758.23c-.051,0-.1.007-.143.007A1.021,1.021,0,0,1,19518.508,2994.7Zm-32.053,0a.849.849,0,0,1-.3-.7v-.264a.848.848,0,0,1,.3-.7,1.172,1.172,0,0,1,.791-.23c.662,0,1.027.331,1.027.926v.264a.96.96,0,0,1-.264.7,1.045,1.045,0,0,1-.764.23c-.049,0-.094.007-.139.007A.941.941,0,0,1,19486.455,2994.7Zm-18.445-.365a1.249,1.249,0,0,1-.365-.993v-.494a1.267,1.267,0,0,1,.365-1,2.058,2.058,0,0,1,1.227-.264,2.407,2.407,0,0,1,1.258.264,1.125,1.125,0,0,1,.365,1v.494a1.157,1.157,0,0,1-.365.993,2.276,2.276,0,0,1-1.258.264c-.074,0-.145.007-.215.007A1.56,1.56,0,0,1,19468.01,2994.34Z" transform="translate(-19385.588 -2984.339)" fill="#494c4d"/>
  </g>
</svg>
