<?xml version="1.0" encoding="iso-8859-1"?>
<!-- Generator: Adobe Illustrator 25.2.3, SVG Export Plug-In . SVG Version: 6.00 Build 0)  -->
<svg version="1.1" id="Layer_1" xmlns="http://www.w3.org/2000/svg" xmlns:xlink="http://www.w3.org/1999/xlink" x="0px" y="0px"
	 viewBox="0 0 34.508 33.154" style="enable-background:new 0 0 34.508 33.154;" xml:space="preserve">
<path id="Path_8798" style="fill:#A32321;" d="M23.413,30.359l4.936-2.24V7.589l-4.936,2.24V30.359z"/>
<path id="Path_8799" style="fill:#DC382D;" d="M23.413,9.829l4.936-2.24l-4.936-1.925V9.829z"/>
<path id="Path_8800" style="fill:#A32321;" d="M29.571,27.568l4.936-2.24V13.253l-4.936,2.24V27.568z"/>
<path id="Path_8801" style="fill:#DC382D;" d="M29.571,15.493l4.936-2.24l-4.936-1.922V15.493z"/>
<path id="Path_8802" style="fill:#DC382D;" d="M3.188,12.569L0.085,13.78l17.171,7.785v-2.584L3.188,12.569z"/>
<path id="Path_8803" style="fill:#DC382D;" d="M3.188,19.658l-3.103,1.208l17.171,7.792V26.07L3.188,19.658z"/>
<path id="Path_8804" style="fill:#DC382D;" d="M0.085,6.692l17.171,7.789V4.165l4.936-2.24L17.256,0L0.085,6.692z"/>
<path id="Path_8805" style="fill:#A32321;" d="M17.256,4.165v10.316L0.085,6.692v4.466l17.171,7.823v2.585L0.085,13.781v4.463
	l17.171,7.826v2.585l-17.171-7.79v4.463H0l17.256,7.826l0,0l4.936-2.24V1.925L17.256,4.165z"/>
</svg>
