<svg width="28" height="28" viewBox="0 0 28 28" fill="none" xmlns="http://www.w3.org/2000/svg">
<path d="M26.3828 15.4672C24.4542 17.8972 22.3713 20.6743 18.2056 20.6743C14.4847 20.6743 13.0985 17.3923 13.001 14.7261C13.8163 16.45 15.4102 17.8461 17.8971 17.7815C22.6799 17.6272 25.9585 13.3072 25.9585 9.37292C25.9585 4.66722 22.4485 1.27295 16.3542 1.27295C11.9957 1.27295 6.59569 2.93151 3.04713 5.55436C3.00856 8.25435 4.51284 11.7643 5.05284 11.3786C8.1292 9.16673 10.5686 7.74287 12.9347 7.02892C9.43226 10.9346 1.02888 20.0035 0 21.6C0.115714 23.0657 1.92856 27 2.8157 27C3.0857 27 3.31713 26.8457 3.58713 26.5757C6.12056 23.7292 8.18578 21.1771 10.0227 18.7172C10.2807 22.3225 12.0535 26.73 17.0099 26.73C21.4456 26.73 25.8428 23.5286 27.8485 16.3158C28.0799 15.4286 26.9999 14.7343 26.3828 15.4672ZM21.3299 9.64292C21.3299 11.9186 19.0928 13.0372 17.0485 13.0372C15.9558 13.0372 15.1164 12.7503 14.4525 12.3774C15.674 10.5278 16.8831 8.63125 18.1822 6.60095C20.4728 6.98865 21.3299 8.26187 21.3299 9.64292Z" fill="#FF4438"/>
</svg>
