<svg viewBox="0 0 172 64" fill="none" xmlns="http://www.w3.org/2000/svg">
<g clip-path="url(#clip0_96_147)">
<path d="M140.162 12.4835C141.779 9.63636 144.425 6.57025 145.38 5.62121C149.79 7.44628 153.905 11.1694 153.317 12.1185C151.627 14.8926 149.055 18.0317 148.099 18.9807C143.69 17.1556 139.575 13.5055 140.162 12.4835ZM171.249 25.0399C170.734 27.522 167.648 30.2961 166.325 30.7342C165.223 28.3981 163.973 27.011 162.797 27.011C161.328 27.011 161.254 28.0331 161.254 29.3471C161.254 31.6832 162.944 36.7934 162.944 42.1226C162.944 47.9628 158.829 52.27 152.509 52.27C146.721 52.27 143.523 48.5014 142.097 42.4807C138.316 49.2103 132.788 52.27 128.551 52.27C121.927 52.27 120.368 47.4064 120.525 42.4733C117.863 47.146 112.74 52.27 107.827 52.27C102.811 52.27 101.039 47.9332 101.446 42.8827C98.4405 48.4432 93.0044 52.27 87.7639 52.27C82.0772 52.27 79.2624 47.7824 80.1733 42.22C76.3476 46.8911 69.2259 52.27 61.8219 52.27C53.3797 52.27 49.7049 47.7478 49.2693 42.0811C45.1947 48.5683 39.7026 52.489 33.1607 52.489C23.7171 52.489 20.3393 44.147 19.8478 37.3234C16.3479 41.9791 12.413 46.8094 7.58606 52.197C7.07163 52.708 6.63068 53 6.11625 53C4.42598 53 0.971936 45.5537 0.751465 42.7796C2.71173 39.7579 18.7228 22.5935 25.396 15.2013C20.8879 16.5526 16.24 19.2475 10.3787 23.4339C9.34982 24.1639 6.4837 17.5207 6.55719 12.4105C13.3183 7.44628 23.6069 4.30716 31.9113 4.30716C43.5228 4.30716 50.2104 10.7314 50.2104 19.6377C50.2104 27.084 43.9637 35.2603 34.8509 35.5523C30.1126 35.6746 27.0758 33.0324 25.5225 29.7696C25.7081 34.8158 28.3493 41.0275 35.4389 41.0275C43.6698 41.0275 47.3443 35.7714 53.5175 28.1061C58.2208 22.3388 63.6591 17.2286 71.5961 17.2286C76.4464 17.2286 79.7535 20.2218 79.7535 24.7479C79.7535 30.2231 73.2863 37.8154 64.247 37.8154C62.7032 37.8154 61.2959 37.6134 60.108 37.214C60.0781 37.4442 60.0581 37.6706 60.0581 37.8884C60.0581 40.4435 61.0135 41.9766 65.2024 41.9766C71.3756 41.9766 77.1813 38.3264 84.2364 29.7851C91.1445 21.3898 96.3623 17.7397 101.874 17.7397C105.595 17.7397 108.419 19.7428 109.663 23.1164C117.05 12.5182 123.317 5.00901 128.624 0C133.842 2.19008 137.59 6.49724 136.561 7.37328C132.666 10.8774 119.659 24.9669 114.514 33.3623C113.192 35.5523 111.942 37.9614 111.942 39.1295C111.942 40.2245 112.604 40.5895 113.339 40.5895C118.189 40.5895 129.727 24.9669 136.267 18.1047C140.383 19.7837 144.572 23.3609 143.543 24.6019C138.105 31.0262 133.989 36.2824 133.989 39.2755C133.989 40.0785 134.283 40.5895 135.386 40.5895C137.443 40.5895 139.354 38.7645 142.514 34.8953C143.176 34.0923 143.984 34.0923 144.498 35.3333C145.895 38.6915 147.952 40.5165 149.569 40.5165C151.48 40.5165 152.435 38.8375 152.435 36.2824C152.435 33.2163 151.774 29.2741 151.774 27.522C151.774 21.6088 156.183 18.1777 161.695 18.1777C165.811 18.1777 169.485 20.1488 171.249 25.0399ZM35.3941 14.3913C32.919 18.234 30.6152 21.8236 28.2879 25.3243C29.5527 26.0299 31.1522 26.573 33.2342 26.573C37.1291 26.573 41.3916 24.4559 41.3916 20.1488C41.3916 17.5349 39.7584 15.1251 35.3941 14.3913ZM61.226 33.9955C61.9983 34.2919 62.9051 34.4573 63.8796 34.4573C69.0974 34.4573 72.6249 30.5152 72.6249 27.8871C72.6249 26.719 71.89 25.916 70.7142 25.916C67.7657 25.916 63.3185 30.0262 61.226 33.9955ZM104.961 28.5441C104.961 27.084 104.152 26.208 102.829 26.208C98.4935 26.208 91.9529 34.3843 91.9529 38.4725C91.9529 39.7865 92.6878 40.6625 94.231 40.6625C99.0079 40.6625 104.961 32.0482 104.961 28.5441Z" fill="#FF4438"/>
</g>
<defs>
<clipPath id="clip0_96_147">
<rect width="170.497" height="64" fill="white" transform="translate(0.751465)"/>
</clipPath>
</defs>
</svg>
