<svg xmlns="http://www.w3.org/2000/svg" xmlns:xlink="http://www.w3.org/1999/xlink" width="42.65" height="41.626" viewBox="0 0 42.65 41.626">
  <defs>
    <clipPath id="clip-path">
      <rect id="Rectangle_17051" data-name="Rectangle 17051" width="42.65" height="41.626" fill="#3f597d"/>
    </clipPath>
  </defs>
  <g id="Group_6907" data-name="Group 6907" transform="translate(0 6)">
    <g id="Group_6906" data-name="Group 6906" transform="translate(0 -6)" clip-path="url(#clip-path)">
      <path id="Path_10248" data-name="Path 10248" d="M40.665,16.867V13.595a2.82,2.82,0,0,0-1.985-2.681V7.641a2.827,2.827,0,0,0-2.824-2.822H23.3A1.077,1.077,0,0,1,22.22,3.743,3.747,3.747,0,0,0,18.479,0H7.712A3.746,3.746,0,0,0,3.969,3.743V6.412A3.734,3.734,0,0,0,1.985,9.7v2.669A3.734,3.734,0,0,0,0,15.651V35.9a5.735,5.735,0,0,0,5.728,5.728H36.922A5.735,5.735,0,0,0,42.65,35.9V19.549a2.82,2.82,0,0,0-1.985-2.681M7.712,1.985H18.479a1.759,1.759,0,0,1,1.756,1.758A3.065,3.065,0,0,0,23.3,6.8H35.856a.838.838,0,0,1,.84.838v3.132H21.313A1.077,1.077,0,0,1,20.235,9.7a3.747,3.747,0,0,0-3.741-3.743H5.954V3.743A1.76,1.76,0,0,1,7.712,1.985M5.728,7.939H16.494A1.759,1.759,0,0,1,18.251,9.7a3.065,3.065,0,0,0,3.062,3.06H37.841a.838.838,0,0,1,.84.838v3.132H19.328a1.077,1.077,0,0,1-1.078-1.076,3.747,3.747,0,0,0-3.741-3.743H3.969V9.7A1.76,1.76,0,0,1,5.728,7.939M40.665,35.9a3.747,3.747,0,0,1-3.743,3.743H5.728A3.746,3.746,0,0,1,1.985,35.9V15.651a1.76,1.76,0,0,1,1.758-1.758H14.51a1.759,1.759,0,0,1,1.756,1.758,3.065,3.065,0,0,0,3.062,3.06h20.5a.838.838,0,0,1,.84.838Z" transform="translate(0 0.001)" fill="#3f597d"/>
      <path id="Path_10249" data-name="Path 10249" d="M8.886,22.807l9.659-5.577L8.886,11.653Z" transform="translate(8.75 11.475)" fill="#3f597d"/>
    </g>
  </g>
</svg>
