<?xml version="1.0" encoding="iso-8859-1"?>
<!-- Generator: Adobe Illustrator 25.2.3, SVG Export Plug-In . SVG Version: 6.00 Build 0)  -->
<svg version="1.1" id="Layer_1" xmlns="http://www.w3.org/2000/svg" xmlns:xlink="http://www.w3.org/1999/xlink" x="0px" y="0px"
	 viewBox="0 0 57.176 59.044" style="enable-background:new 0 0 57.176 59.044;" xml:space="preserve">
<path id="Path_9170" style="fill:none;" d="M33.535,11.339h7.961l-9.047-8.263v7.177c-0.003,0.597,0.479,1.083,1.076,1.086
	C33.528,11.339,33.532,11.339,33.535,11.339z"/>
<path id="Path_9171" style="fill:none;" d="M36.249,38.42c-1.273-3.604-0.357-7.618,2.352-10.314c1.075-1.072,2.372-1.896,3.8-2.413
	V13.028h-8.866c-1.491,0.008-2.706-1.195-2.714-2.686c0-0.009,0-0.019,0-0.028V1.689H2.714C2.152,1.685,1.693,2.136,1.689,2.698
	c0,0.005,0,0.011,0,0.016v48.01c-0.004,0.562,0.447,1.021,1.009,1.025c0.005,0,0.011,0,0.016,0h20.085L36.249,38.42z M7.238,21.289
	h30.4c0.466,0,0.844,0.378,0.844,0.844s-0.378,0.844-0.844,0.844h-30.4c-0.456,0.011-0.833-0.35-0.844-0.806
	c0-0.013,0-0.026,0-0.038C6.404,21.672,6.776,21.299,7.238,21.289z M7.238,28.346H32.57c0.466,0,0.844,0.378,0.844,0.844
	s-0.378,0.844-0.844,0.844H7.238c-0.455,0.013-0.836-0.345-0.849-0.8c0-0.015,0-0.03,0-0.046c0.033-0.453,0.395-0.813,0.849-0.841
	V28.346z M7.238,35.463h23.1c0.466,0,0.844,0.378,0.844,0.845c0,0.466-0.378,0.844-0.844,0.844h-23.1
	c-0.456,0.011-0.833-0.35-0.844-0.806c0-0.013,0-0.026,0-0.038c0.011-0.462,0.382-0.833,0.844-0.843
	C7.238,35.465,7.238,35.463,7.238,35.463z M6.389,43.426c-0.011-0.456,0.35-0.833,0.806-0.844c0.013,0,0.026,0,0.038,0h17.496
	c0.466,0,0.845,0.378,0.845,0.845c0,0.466-0.378,0.844-0.845,0.844H7.238C6.793,44.222,6.44,43.871,6.389,43.426z"/>
<path id="Path_9172" style="fill:none;" d="M34.982,51.812h6.393c0.562,0.004,1.021-0.447,1.025-1.009c0-0.005,0-0.011,0-0.016
	v-6.275h-0.118L34.982,51.812z"/>
<path id="Path_9173" style="fill:#b5b6c0;" d="M7.237,37.154h23.1c0.466,0,0.844-0.378,0.844-0.844c0-0.466-0.378-0.845-0.844-0.845
	h-23.1c-0.456-0.011-0.833,0.35-0.844,0.806c0,0.013,0,0.026,0,0.038C6.403,36.771,6.775,37.144,7.237,37.154z"/>
<path id="Path_9174" style="fill:#b5b6c0;" d="M7.237,22.98h30.4c0.466,0,0.844-0.378,0.844-0.844s-0.378-0.845-0.844-0.845h-30.4
	c-0.456-0.011-0.833,0.35-0.844,0.806c0,0.013,0,0.026,0,0.038C6.423,22.588,6.784,22.949,7.237,22.98z"/>
<path id="Path_9175" style="fill:#b5b6c0;" d="M7.237,30.037h25.332c0.466,0,0.844-0.378,0.844-0.845
	c0-0.466-0.378-0.844-0.844-0.844H7.237c-0.456-0.011-0.833,0.35-0.844,0.806c0,0.013,0,0.026,0,0.038
	C6.403,29.654,6.775,30.027,7.237,30.037z"/>
<path id="Path_9176" style="fill:#b5b6c0;" d="M24.728,44.21c0.466,0,0.845-0.378,0.845-0.845c0-0.466-0.378-0.844-0.845-0.844
	H7.237c-0.466,0-0.845,0.378-0.845,0.844c0,0.466,0.378,0.845,0.845,0.845l0,0H24.728z"/>
<path id="Path_9177" style="fill:#b5b6c0;" d="M55.429,34.56v-0.181c-0.007-0.737-0.286-1.446-0.784-1.99
	c-0.595-0.6-1.563-0.603-2.162-0.009c-0.003,0.003-0.006,0.006-0.009,0.009l-3.5,3.5c-0.483,0.483-0.543,0.543-0.965,0.543h-3.5
	c0-0.06-0.06-0.121-0.06-0.181c-0.134-0.556-0.235-1.12-0.3-1.689v-0.483c0.159-0.29,0.362-0.554,0.6-0.784l4.7-4.7
	c0.292-0.288,0.448-0.686,0.431-1.095c-0.007-0.506-0.225-0.987-0.6-1.327c-0.428-0.352-0.955-0.561-1.508-0.6
	c-0.121,0-0.181-0.06-0.3-0.06c-1.089-0.239-2.209-0.3-3.317-0.181V11.52L31.6,0H2.714C1.223-0.008,0.008,1.195,0,2.686
	c0,0.009,0,0.019,0,0.028v48.01c-0.008,1.491,1.195,2.706,2.686,2.714c0.009,0,0.019,0,0.028,0h18.939c0,0.121-0.06,0.181-0.06,0.3
	c-0.002,0.497,0.193,0.974,0.543,1.327l3.437,3.435c0.737,0.724,1.917,0.724,2.654,0l5.066-5.066h8.082
	c1.491,0.008,2.706-1.195,2.714-2.686c0-0.009,0-0.019,0-0.028v-5.85c0.501,0.071,1.005,0.113,1.511,0.124l0,0
	c2.628,0.01,5.149-1.035,7-2.9C54.671,40.164,55.718,37.376,55.429,34.56z M45.6,43.366c-1.093-0.018-2.175-0.221-3.2-0.6
	l-0.543-0.241L27.021,57.359c-0.121,0.06-0.181,0.121-0.241,0l-3.438-3.438c-0.06,0-0.06-0.06-0.06-0.121s0-0.06,0.06-0.121
	l14.9-14.9l-0.241-0.543c-1.282-3.074-0.592-6.618,1.749-8.987c1.409-1.505,3.367-2.375,5.428-2.413
	c0.612-0.009,1.221,0.072,1.809,0.241c0.101,0.014,0.201,0.034,0.3,0.06c0.257,0.024,0.504,0.106,0.724,0.241v0.06l-4.584,4.644
	c-0.73,0.555-1.137,1.436-1.086,2.352c0.057,0.733,0.178,1.459,0.362,2.171c0.127,0.81,0.809,1.416,1.628,1.448h3.619
	c0.845,0.019,1.649-0.361,2.171-1.025l3.379-3.373c0.116,0.312,0.196,0.635,0.241,0.965v0.18c0.234,2.307-0.638,4.589-2.352,6.152
	C49.867,42.509,47.777,43.38,45.6,43.366z M32.449,3.076l8.987,8.263h-7.9c-0.562,0.004-1.021-0.447-1.025-1.009
	c0-0.005,0-0.011,0-0.016V3.076H32.449z M1.628,50.784V2.774C1.624,2.212,2.075,1.753,2.637,1.749c0.006,0,0.011,0,0.017,0H30.7
	v8.565c-0.008,1.491,1.195,2.706,2.686,2.714c0.009,0,0.019,0,0.028,0h8.866v12.666c-5.195,1.836-7.94,7.515-6.152,12.726
	L22.8,51.81H2.714C2.134,51.819,1.652,51.364,1.628,50.784z M42.4,50.784c0.004,0.562-0.447,1.021-1.009,1.025
	c-0.005,0-0.011,0-0.016,0h-6.393l7.358-7.358h0.121v6.333L42.4,50.784z"/>
</svg>
