<svg width="16" height="16" viewBox="0 0 16 16" fill="none" xmlns="http://www.w3.org/2000/svg">
<path d="M7.55556 16C11.7284 16 15.1111 12.6173 15.1111 8.44447C15.1111 4.27165 11.7284 0.888916 7.55556 0.888916C3.38274 0.888916 0 4.27165 0 8.44447C0 12.6173 3.38274 16 7.55556 16Z" fill="#FFCC4D"/>
<path d="M7.99973 12.6666C8.49065 12.6666 8.88862 12.1691 8.88862 11.5554C8.88862 10.9418 8.49065 10.4443 7.99973 10.4443C7.50881 10.4443 7.11084 10.9418 7.11084 11.5554C7.11084 12.1691 7.50881 12.6666 7.99973 12.6666Z" fill="#664500"/>
<path d="M3.60505 9.50367C3.52416 9.50367 3.44194 9.48144 3.36861 9.43522C3.16105 9.30456 3.09883 9.03033 3.22949 8.82233C3.63661 8.17656 4.87438 7.07211 6.64727 7.50589C6.88549 7.56411 7.03127 7.805 6.97305 8.04322C6.91438 8.28144 6.67261 8.42633 6.43572 8.369C4.83394 7.977 3.99038 9.28278 3.98194 9.29611C3.89705 9.43033 3.75261 9.50367 3.60505 9.50367ZM8.92638 7.84056C8.79749 7.84056 8.67038 7.785 8.58238 7.67789C8.42683 7.48811 8.45438 7.20767 8.64461 7.05211C10.0562 5.89478 11.6499 6.35789 12.2957 6.765C12.5033 6.89567 12.5655 7.17033 12.4344 7.37789C12.3042 7.58456 12.0308 7.64767 11.8228 7.51789C11.7615 7.48056 10.4664 6.70767 9.20772 7.73967C9.12505 7.80767 9.02549 7.84056 8.92638 7.84056Z" fill="#664500"/>
<path d="M5.93169 13.8992C5.90147 13.8992 5.8708 13.8952 5.84058 13.8867C5.66369 13.8365 5.56058 13.6525 5.6108 13.4752C5.80502 12.7907 5.72547 12.129 5.39302 11.6592C5.17213 11.3472 4.85747 11.1565 4.52947 11.1356C4.34547 11.1245 4.20591 10.9659 4.21747 10.7823C4.22902 10.5987 4.3868 10.4485 4.5708 10.4707C5.10102 10.5036 5.5988 10.7965 5.93658 11.2739C6.38591 11.909 6.50102 12.7774 6.25169 13.6565C6.21035 13.8036 6.07658 13.8992 5.93169 13.8992ZM10.837 12.5387C10.7739 12.5387 10.7104 12.521 10.6539 12.4836C10.1352 12.1414 9.84502 11.5427 9.85747 10.8414C9.87035 10.1147 10.217 9.44008 10.7392 9.12186C10.8961 9.02586 11.101 9.07563 11.197 9.23341C11.293 9.39074 11.2432 9.59519 11.0855 9.69119C10.7588 9.8903 10.5326 10.3574 10.5237 10.853C10.5148 11.3219 10.6966 11.7134 11.0206 11.9272C11.1744 12.0285 11.2166 12.2352 11.1152 12.389C11.0512 12.4863 10.9455 12.5387 10.837 12.5387Z" fill="#E2A62D"/>
<path d="M7.63533 1.20877C7.61622 1.18699 7.58644 1.17499 7.55133 1.16832C7.55133 1.16832 0.473995 -0.175231 0.167773 0.0949907C-0.138005 0.365657 0.329106 7.55455 0.329106 7.55455C0.331328 7.59055 0.339328 7.62121 0.358884 7.64299C0.627328 7.94699 2.47355 6.75232 4.48288 4.97588C6.49266 3.19899 7.90377 1.51277 7.63533 1.20877Z" fill="#DD2E44"/>
<path d="M0.155072 0.120365C0.148406 0.133698 0.142628 0.15192 0.138184 0.175031C0.20885 0.784365 0.891517 5.79814 1.31685 7.36525C1.95507 7.00837 2.60352 6.52348 3.36529 5.91948C2.71818 4.73503 0.514628 0.064809 0.155072 0.120365Z" fill="#EA596E"/>
<path d="M13.2898 12.9907L8.5907 12.4116C8.08848 12.3663 7.20537 12.3619 7.2507 11.5663C7.29204 10.845 8.15737 10.9561 8.79693 11.0507L13.5249 11.8392L13.2898 12.9907Z" fill="#3B88C3"/>
<path d="M13.5243 11.8394L11.6478 11.5177C11.4283 11.4781 11.2327 11.8052 11.2229 12.1514C11.2118 12.5363 11.3238 12.731 11.5456 12.7763L13.3874 13.0039L13.5243 11.8394Z" fill="#88C9F9"/>
<path d="M15.519 11.707L14.3536 12.7786L12.2705 10.5132L13.4358 9.44168C14.0407 8.88524 14.991 8.92524 15.5474 9.53013L15.6074 9.59546C16.1634 10.2008 16.1238 11.1506 15.519 11.707Z" fill="#3B88C3"/>
<path d="M14.3529 12.7792C14.8534 12.319 14.7929 11.4389 14.2177 10.8133C13.6426 10.1878 12.7705 10.0537 12.27 10.5139C11.7695 10.9741 11.83 11.8543 12.4052 12.4798C12.9804 13.1054 13.8524 13.2394 14.3529 12.7792Z" fill="#88C9F9"/>
<path d="M13.9366 12.3262C14.1869 12.0961 14.11 11.6054 13.7649 11.2301C13.4199 10.8548 12.9373 10.7371 12.687 10.9672C12.4368 11.1973 12.5136 11.688 12.8587 12.0633C13.2037 12.4386 13.6864 12.5563 13.9366 12.3262Z" fill="#226699"/>
<path d="M1.111 15.5555C1.47919 15.5555 1.77767 15.257 1.77767 14.8888C1.77767 14.5206 1.47919 14.2222 1.111 14.2222C0.742813 14.2222 0.444336 14.5206 0.444336 14.8888C0.444336 15.257 0.742813 15.5555 1.111 15.5555Z" fill="#55ACEE"/>
<path d="M12.8889 1.77778C13.3798 1.77778 13.7778 1.37981 13.7778 0.888889C13.7778 0.397969 13.3798 0 12.8889 0C12.398 0 12 0.397969 12 0.888889C12 1.37981 12.398 1.77778 12.8889 1.77778Z" fill="#55ACEE"/>
<path d="M2.16177 12.9982L1.12266 10.5022L0.183105 13.1889L2.16177 12.9982ZM11.5555 2.22225L9.77777 2.66669L10.2222 0.888916L11.5555 2.22225Z" fill="#EA596E"/>
<path d="M14.2217 5.77786L15.9999 3.55519L14.6666 2.66675L14.2217 5.77786Z" fill="#77B255"/>
</svg>
