<svg width="1369" height="819" viewBox="0 0 1369 819" fill="none" xmlns="http://www.w3.org/2000/svg">
<path d="M1037.06 592.582L1037.06 517.387L917.437 586.426L917.437 661.621L1037.06 592.582Z" fill="#B9C2C6" stroke="#091A23" stroke-width="0.8"/>
<rect width="75.1951" height="75.195" transform="matrix(-3.53623e-08 -1 -0.866025 -0.500001 917.441 661.619)" fill="#E8EBEC" stroke="#091A23" stroke-width="0.8"/>
<path d="M917.441 586.42L1037.3 517.218L972.181 479.62L852.32 548.822L917.441 586.42Z" fill="#B9C2C6" stroke="#091A23" stroke-width="0.8"/>
<path d="M1083.63 490.941L1018.51 528.539L1018.48 390.426L1083.61 352.828L1083.63 490.941Z" fill="#B9C2C6" stroke="#091A23" stroke-width="0.8"/>
<rect width="75.1951" height="75.195" transform="matrix(-0.866024 0.500001 -0.866025 -0.500001 1083.6 352.829)" fill="#B9C2C6" stroke="#091A23" stroke-width="0.8"/>
<path d="M1018.48 390.429L1018.48 528.833L953.355 491.235L953.355 352.831L1018.48 390.429Z" fill="#E8EBEC" stroke="#091A23" stroke-width="0.8"/>
<path d="M870.17 632.697L873.062 638.542L873.062 653.21L873.062 653.212L873.044 653.221L835.575 674.854L817.839 672.134L817.857 672.124L817.839 672.125L817.839 657.466L835.733 647.135L832.246 639.618L799.26 634.475L775.513 648.185L770.54 637.345L770.511 637.317L770.511 637.281L770.511 622.613L808.088 600.918L838.439 605.649L870.261 587.391L896.492 602.545L896.492 616.901L870.17 632.697Z" fill="#5C707A"/>
<path d="M1020.24 506.72L1020.24 506.927M870.17 632.697L873.062 638.542L873.062 653.21L873.062 653.212L873.044 653.221L835.575 674.854L817.839 672.134L817.857 672.124L817.839 672.125L817.839 657.466L835.733 647.135L832.246 639.618L799.26 634.475L775.513 648.185L770.54 637.345L770.511 637.317L770.511 637.281L770.511 622.613L808.088 600.918L838.439 605.649L870.261 587.391L896.492 602.545L896.492 616.901L870.17 632.697Z" stroke="#091A23" stroke-width="0.8"/>
<path fill-rule="evenodd" clip-rule="evenodd" d="M838.442 605.539L870.133 587.247L896.616 602.605L864.954 620.94L873.069 638.433L835.582 660.076L817.836 657.355L841.093 643.928L832.238 624.842L799.252 619.699L775.518 633.402L770.518 622.503L808.094 600.808L838.442 605.539Z" fill="#B9C2C6"/>
<path d="M870.133 587.247L870.333 586.901L870.133 586.785L869.933 586.901L870.133 587.247ZM838.442 605.539L838.38 605.934L838.519 605.956L838.642 605.885L838.442 605.539ZM896.616 602.605L896.817 602.951L897.414 602.605L896.817 602.259L896.616 602.605ZM864.954 620.94L864.753 620.594L864.437 620.777L864.591 621.109L864.954 620.94ZM873.069 638.433L873.269 638.779L873.586 638.596L873.432 638.264L873.069 638.433ZM835.582 660.076L835.521 660.471L835.66 660.493L835.782 660.422L835.582 660.076ZM817.836 657.355L817.636 657.009L816.65 657.578L817.776 657.75L817.836 657.355ZM841.093 643.928L841.293 644.274L841.609 644.091L841.456 643.759L841.093 643.928ZM832.238 624.842L832.601 624.673L832.511 624.479L832.3 624.446L832.238 624.842ZM799.252 619.699L799.313 619.303L799.174 619.282L799.052 619.352L799.252 619.699ZM775.518 633.402L775.154 633.568L775.337 633.968L775.718 633.748L775.518 633.402ZM770.518 622.503L770.318 622.156L770.002 622.339L770.154 622.67L770.518 622.503ZM808.094 600.808L808.156 600.412L808.017 600.391L807.894 600.461L808.094 600.808ZM869.933 586.901L838.242 605.193L838.642 605.885L870.333 587.594L869.933 586.901ZM896.817 602.259L870.333 586.901L869.932 587.593L896.416 602.951L896.817 602.259ZM865.154 621.287L896.817 602.951L896.416 602.259L864.753 620.594L865.154 621.287ZM873.432 638.264L865.317 620.772L864.591 621.109L872.706 638.601L873.432 638.264ZM835.782 660.422L873.269 638.779L872.869 638.086L835.382 659.729L835.782 660.422ZM817.776 657.75L835.521 660.471L835.642 659.681L817.897 656.96L817.776 657.75ZM840.893 643.581L817.636 657.009L818.036 657.701L841.293 644.274L840.893 643.581ZM831.875 625.01L840.73 644.096L841.456 643.759L832.601 624.673L831.875 625.01ZM799.19 620.094L832.177 625.237L832.3 624.446L799.313 619.303L799.19 620.094ZM775.718 633.748L799.452 620.045L799.052 619.352L775.318 633.055L775.718 633.748ZM770.154 622.67L775.154 633.568L775.881 633.235L770.881 622.336L770.154 622.67ZM807.894 600.461L770.318 622.156L770.718 622.849L808.294 601.154L807.894 600.461ZM838.503 605.144L808.156 600.412L808.033 601.203L838.38 605.934L838.503 605.144Z" fill="#091A23"/>
<path d="M1079.32 568.221C1081.88 566.745 1083.45 564.014 1083.45 561.059L1083.42 491.083L1018.66 528.428L1018.69 603.16L1079.32 568.221Z" fill="#8A99A0" stroke="#091A23" stroke-width="0.8"/>
<path d="M1093.35 862.443L1028.06 900.138L1028.04 686.745L1093.33 649.049L1093.35 862.443Z" fill="#B9C2C6" stroke="#091A23" stroke-width="0.8"/>
<rect width="75.3907" height="75.3905" transform="matrix(-0.866024 0.500001 -0.866025 -0.500001 1093.33 649.054)" fill="#B9C2C6" stroke="#091A23" stroke-width="0.8"/>
<path d="M1028.03 686.747L1028.03 899.925L962.741 862.23L962.741 649.051L1028.03 686.747Z" fill="#E8EBEC" stroke="#091A23" stroke-width="0.8"/>
<path d="M1251.04 953.266L1185.75 990.961L1185.73 777.568L1251.02 739.873L1251.04 953.266Z" fill="#B9C2C6" stroke="#091A23" stroke-width="0.8"/>
<rect width="75.3907" height="75.3905" transform="matrix(-0.866024 0.500001 -0.866025 -0.500001 1251.02 739.877)" fill="#B9C2C6" stroke="#091A23" stroke-width="0.8"/>
<path d="M1185.72 777.57L1185.72 990.748L1120.43 953.053L1120.43 739.875L1185.72 777.57Z" fill="#E8EBEC" stroke="#091A23" stroke-width="0.8"/>
<path d="M1120.57 273.09L931.716 382.234L1120.5 491.327L1309.28 382.234L1120.57 273.09Z" fill="#B9C2C6" stroke="#091A23" stroke-width="0.8"/>
<path d="M1119.88 490.689L1119.74 817.736L931.379 709.193L931.507 382.237L1119.88 490.689Z" fill="#E8EBEC" stroke="#091A23" stroke-width="0.8"/>
<path d="M1119.88 491.466L1120.01 817.736L1308.37 709.194L1308.25 383.014L1119.88 491.466Z" fill="#B9C2C6" stroke="#091A23" stroke-width="0.8"/>
<path d="M1052.92 591.207L1053.21 591.05C1053.21 591.05 1053.21 591.049 1053.21 591.048L1053.21 591.048L1053.21 591.048C1053.44 590.928 1053.68 590.819 1053.93 590.722C1053.93 590.722 1053.93 590.722 1053.93 590.722L1053.9 590.647L1058.06 588.235C1058.06 588.235 1058.06 588.235 1058.06 588.235C1061.26 586.389 1065.52 586.928 1069.88 589.445L1070.08 589.099L1069.88 589.445C1074.58 592.157 1078.85 596.826 1081.95 602.197C1085.05 607.568 1086.96 613.603 1086.96 619.026C1086.96 624.062 1085.3 628.02 1082.1 629.866L1076.92 632.855L1076.92 632.855C1073.96 634.567 1069.8 634.362 1065.1 631.648C1060.4 628.937 1056.13 624.268 1053.03 618.897C1049.93 613.526 1048.02 607.49 1048.02 602.067C1048.02 596.62 1049.94 592.907 1052.92 591.207Z" fill="#B9C2C6" stroke="#091A23" stroke-width="0.8"/>
<path d="M1081.83 622.007C1081.83 632.805 1074.25 637.181 1064.9 631.782C1055.55 626.383 1047.97 613.253 1047.97 602.455C1047.97 591.657 1055.55 587.28 1064.9 592.679C1074.25 598.078 1081.83 611.209 1081.83 622.007Z" fill="#80DBFF" stroke="#091A23" stroke-width="0.8"/>
<path d="M1010.37 566.611L1010.66 566.454C1010.66 566.453 1010.66 566.453 1010.66 566.452L1010.66 566.452L1010.67 566.452C1010.9 566.331 1011.14 566.223 1011.39 566.125C1011.39 566.125 1011.39 566.125 1011.39 566.125L1011.36 566.051L1015.52 563.639C1015.52 563.639 1015.52 563.639 1015.52 563.639C1018.72 561.793 1022.98 562.331 1027.34 564.849L1027.54 564.503L1027.34 564.849C1032.03 567.561 1036.31 572.229 1039.41 577.6C1042.51 582.971 1044.42 589.007 1044.42 594.43C1044.42 599.466 1042.75 603.423 1039.55 605.27L1034.38 608.259L1034.38 608.259C1031.42 609.971 1027.25 609.766 1022.55 607.052C1017.86 604.341 1013.58 599.672 1010.48 594.301C1007.38 588.93 1005.48 582.894 1005.48 577.471C1005.48 572.024 1007.39 568.311 1010.37 566.611Z" fill="#B9C2C6" stroke="#091A23" stroke-width="0.8"/>
<path d="M1039.29 597.41C1039.29 608.208 1031.7 612.585 1022.35 607.186C1013 601.787 1005.42 588.657 1005.42 577.859C1005.42 567.061 1013 562.684 1022.35 568.083C1031.7 573.482 1039.29 586.612 1039.29 597.41Z" fill="#DCFF1E" stroke="#091A23" stroke-width="0.8"/>
<path d="M969.176 542.927L969.466 542.77C969.467 542.769 969.468 542.768 969.469 542.768L969.469 542.768L969.471 542.767C969.704 542.647 969.945 542.538 970.191 542.441C970.191 542.441 970.191 542.441 970.192 542.441L970.162 542.366L974.325 539.954C974.325 539.954 974.325 539.954 974.325 539.954C977.523 538.108 981.781 538.647 986.142 541.165L986.342 540.818L986.142 541.165C990.838 543.876 995.112 548.545 998.213 553.916C1001.31 559.287 1003.22 565.323 1003.22 570.746C1003.22 575.782 1001.56 579.739 998.36 581.585L993.182 584.575L993.181 584.575C990.222 586.287 986.06 586.082 981.358 583.368C976.662 580.656 972.388 575.988 969.287 570.616C966.186 565.245 964.28 559.21 964.28 553.787C964.28 548.34 966.196 544.627 969.176 542.927Z" fill="#B9C2C6" stroke="#091A23" stroke-width="0.8"/>
<path d="M998.091 573.726C998.091 584.524 990.51 588.901 981.159 583.502C971.807 578.103 964.227 564.973 964.227 554.175C964.227 543.377 971.807 539 981.159 544.399C990.51 549.798 998.091 562.928 998.091 573.726Z" fill="#C795E3" stroke="#091A23" stroke-width="0.8"/>
<path d="M964.552 508.648C964.552 489.881 971.135 476.552 981.771 470.413L986.425 467.624C997.046 461.328 1011.79 462.287 1028.08 471.692C1060.43 490.37 1086.66 535.855 1086.66 573.308V573.347L1081.77 576.244L964.552 508.648Z" fill="#B9C2C6" stroke="#091A23" stroke-width="0.8"/>
<path d="M964.585 508.588C964.585 471.118 990.825 455.906 1023.18 474.584C1055.53 493.261 1081.77 538.79 1081.77 576.243L964.585 508.588Z" fill="white" stroke="#091A23" stroke-width="0.8" stroke-miterlimit="10"/>
<rect width="5.79861" height="14.1669" transform="matrix(0.866025 0.500001 0 1 1020.69 487.755)" fill="#091A23" stroke="#091A23" stroke-width="0.8"/>
<rect width="5.79862" height="14.1669" transform="matrix(0.331794 -0.732135 0.799944 0.844974 981.293 499.333)" fill="#091A23" stroke="#091A23" stroke-width="0.8"/>
<rect width="5.79862" height="14.1669" transform="matrix(-0.331794 -1.11526 -0.799944 -0.0787246 1065.07 547.707)" fill="#091A23" stroke="#091A23" stroke-width="0.8"/>
<rect width="5.79861" height="14.1669" transform="matrix(0.612371 -0.353554 0.612371 1.06066 990.073 487.14)" fill="#091A23" stroke="#091A23" stroke-width="0.8"/>
<rect width="5.79861" height="14.1669" transform="matrix(-0.612371 -1.06066 -0.612371 0.353554 1056.32 525.388)" fill="#091A23" stroke="#091A23" stroke-width="0.8"/>
<rect width="5.79861" height="14.1669" transform="matrix(0.80073 0.0813733 0.329893 1.11507 1003.93 483.072)" fill="#091A23" stroke="#091A23" stroke-width="0.8"/>
<rect width="5.79861" height="14.1669" transform="matrix(-0.80073 -0.843233 -0.329893 0.73414 1042.47 505.328)" fill="#091A23" stroke="#091A23" stroke-width="0.8"/>
<ellipse cx="6.13452" cy="6.13453" rx="6.13452" ry="6.13453" transform="matrix(0.866025 0.500001 0 1 1017.89 517.869)" fill="#FF4438" stroke="#FF4438" stroke-width="0.8"/>
<path d="M1003.93 496.171L1018.93 520.467" stroke="#FF4438" stroke-width="0.8"/>
<path d="M1191.07 387.082L1119.85 427.977L1048.96 387.045L1048.93 345.96L1120.3 305.255L1190.99 346.068L1191.07 387.082Z" fill="#B9C2C6" stroke="#091A23" stroke-width="0.8"/>
<path d="M1190.95 387.091L1119.96 428.04L1119.94 387.059L1190.92 346.115L1190.95 387.091Z" fill="#5C707A" stroke="#091A23" stroke-width="0.8"/>
<path d="M1119.8 305.053L1190.76 346.061L1119.8 387.079L1048.86 346.084L1119.8 305.053Z" fill="#5C707A" stroke="#091A23" stroke-width="0.8"/>
<path d="M1191.07 346.141L1119.85 387.036L1048.96 346.104L1048.93 305.02L1120.3 264.314L1190.99 305.127L1191.07 346.141Z" fill="#E8EBEC" stroke="#091A23" stroke-width="0.8"/>
<path d="M1190.95 346.15L1119.96 387.099L1119.94 346.118L1190.92 305.174L1190.95 346.15Z" fill="#B9C2C6" stroke="#091A23" stroke-width="0.8"/>
<path d="M1119.8 264.113L1190.76 305.121L1119.8 346.138L1048.86 305.143L1119.8 264.113Z" fill="#B9C2C6" stroke="#091A23" stroke-width="0.8"/>
<path d="M1120.49 48.0832L963.159 139.411L963.16 320.744L1120.73 411.847L1277.67 320.645V139.228L1120.49 48.0832Z" fill="#E8EBEC" stroke="#091A23" stroke-width="0.8"/>
<path d="M1120.34 48.2992L963.159 139.134L1120.34 229.991L1277.48 139.185L1120.34 48.2992Z" fill="#B9C2C6" stroke="#091A23" stroke-width="0.8"/>
<circle cx="27.8207" cy="27.8207" r="27.4207" transform="matrix(-0.866025 0.500001 -0.866025 -0.500001 1167.27 139.066)" fill="#5C707A" stroke="#091A23" stroke-width="0.8"/>
<path d="M1277.84 320.606L1277.76 139.066L1120.49 229.76L1120.56 411.249L1277.84 320.606Z" fill="#B9C2C6" stroke="#091A23" stroke-width="0.8"/>
<path d="M1221.16 224.999L1168.82 255.385L1168.82 315.717L1195.03 330.873L1247.31 300.319V240.161L1221.16 224.999Z" fill="#E8EBEC" stroke="#091A23" stroke-width="0.8"/>
<path d="M1221.11 225.071L1168.82 255.293L1194.96 270.408L1247.25 240.19L1221.11 225.071Z" fill="#B9C2C6" stroke="#091A23" stroke-width="0.8"/>
<path d="M1247.26 300.713L1247.23 240.312L1194.9 270.487L1194.93 330.872L1247.26 300.713Z" fill="#B9C2C6" stroke="#091A23" stroke-width="0.8"/>
<path d="M1234.16 293.156L1234.15 262.955L1207.99 278.043L1208 308.235L1234.16 293.156Z" fill="#B9C2C6" stroke="#091A23" stroke-width="0.8"/>
<path d="M982.982 304.756L1081.18 361.561L1081.19 346.341L1056.64 332.145L1032.09 317.949L1007.54 303.753L995.267 296.655L982.993 289.557L982.982 304.756Z" fill="white" stroke="#091A23" stroke-width="0.8"/>
<path d="M996.727 208.467L996.527 208.813C1002.24 212.114 1007.44 217.793 1011.21 224.322C1014.98 230.852 1017.3 238.193 1017.3 244.793C1017.3 250.921 1015.28 255.762 1011.36 258.025L1005.07 261.653L1005.07 261.654C1001.44 263.752 996.357 263.492 990.635 260.189C984.919 256.888 979.721 251.209 975.951 244.679C972.182 238.15 969.862 230.809 969.862 224.208C969.862 217.578 972.195 213.035 975.849 210.951L976.202 210.76C976.203 210.759 976.205 210.759 976.206 210.758L976.206 210.758L976.207 210.757C976.494 210.61 976.789 210.476 977.092 210.357L977.056 210.265L982.097 207.344C982.097 207.344 982.098 207.344 982.098 207.344C986.017 205.081 991.221 205.75 996.527 208.813L996.727 208.467Z" fill="#B9C2C6" stroke="#091A23" stroke-width="0.8"/>
<path d="M1011.06 248.457C1011.06 261.611 1001.83 266.943 990.435 260.366C979.043 253.789 969.809 237.793 969.809 224.639C969.809 211.485 979.043 206.153 990.435 212.73C1001.83 219.307 1011.06 235.303 1011.06 248.457Z" fill="#80DBFF" stroke="#091A23" stroke-width="0.8"/>
<path d="M1000.58 242.403C1000.58 248.869 996.037 251.491 990.436 248.257C984.836 245.024 980.296 237.161 980.296 230.694C980.296 224.227 984.836 221.606 990.436 224.84C996.037 228.073 1000.58 235.936 1000.58 242.403Z" fill="#BFEDFF" stroke="#091A23" stroke-width="0.8"/>
<path d="M1086.5 253.22L1086.3 253.566C1092.02 256.867 1097.21 262.546 1100.98 269.076C1104.75 275.605 1107.07 282.946 1107.07 289.547C1107.07 295.675 1105.05 300.515 1101.13 302.778L1094.84 306.407L1094.84 306.407C1091.22 308.506 1086.13 308.245 1080.41 304.942C1074.69 301.641 1069.49 295.962 1065.72 289.433C1061.95 282.904 1059.63 275.562 1059.63 268.962C1059.63 262.331 1061.97 257.788 1065.62 255.704L1065.97 255.513C1065.98 255.512 1065.98 255.512 1065.98 255.511L1065.98 255.511L1065.98 255.51C1066.27 255.363 1066.56 255.229 1066.86 255.11L1066.83 255.019L1071.87 252.097C1071.87 252.097 1071.87 252.097 1071.87 252.097C1075.79 249.834 1080.99 250.503 1086.3 253.566L1086.5 253.22Z" fill="#B9C2C6" stroke="#091A23" stroke-width="0.8"/>
<path d="M1100.83 293.21C1100.83 306.364 1091.6 311.696 1080.21 305.119C1068.82 298.542 1059.58 282.547 1059.58 269.392C1059.58 256.238 1068.82 250.906 1080.21 257.483C1091.6 264.06 1100.83 280.056 1100.83 293.21Z" fill="#80DBFF" stroke="#091A23" stroke-width="0.8"/>
<path d="M1090.35 287.156C1090.35 293.623 1085.81 296.244 1080.21 293.01C1074.61 289.777 1070.07 281.914 1070.07 275.447C1070.07 268.98 1074.61 266.359 1080.21 269.593C1085.81 272.826 1090.35 280.689 1090.35 287.156Z" fill="#BFEDFF" stroke="#091A23" stroke-width="0.8"/>
<path d="M1037.62 306.257L1052.02 297.94L1037.62 256.353L1023.21 264.67L1037.62 306.257Z" fill="#5C707A" stroke="#091A23" stroke-width="0.8"/>
<path d="M1008.81 289.622L1037.62 306.258L1023.21 264.67L1008.81 289.622Z" fill="#B9C2C6" stroke="#091A23" stroke-width="0.8"/>
<mask id="path-61-inside-1_3_344" fill="white">
<path fill-rule="evenodd" clip-rule="evenodd" d="M1139.26 132.095C1165.72 123.475 1184.85 98.601 1184.85 69.2605C1184.85 32.7705 1155.26 3.18952 1118.77 3.18952C1082.28 3.18952 1052.7 32.7705 1052.7 69.2605C1052.7 98.973 1072.32 124.105 1099.3 132.415V136.251H1099.32C1099.39 139.142 1101.34 142.02 1105.16 144.226C1112.96 148.729 1125.61 148.729 1133.41 144.226C1137.42 141.911 1139.37 138.858 1139.26 135.824V132.095Z"/>
</mask>
<path fill-rule="evenodd" clip-rule="evenodd" d="M1139.26 132.095C1165.72 123.475 1184.85 98.601 1184.85 69.2605C1184.85 32.7705 1155.26 3.18952 1118.77 3.18952C1082.28 3.18952 1052.7 32.7705 1052.7 69.2605C1052.7 98.973 1072.32 124.105 1099.3 132.415V136.251H1099.32C1099.39 139.142 1101.34 142.02 1105.16 144.226C1112.96 148.729 1125.61 148.729 1133.41 144.226C1137.42 141.911 1139.37 138.858 1139.26 135.824V132.095Z" fill="#F1FFA5"/>
<path d="M1139.26 132.095L1139.01 131.335L1138.46 131.515V132.095H1139.26ZM1099.3 132.415H1100.1V131.825L1099.54 131.651L1099.3 132.415ZM1099.3 136.251H1098.5V137.051H1099.3V136.251ZM1099.32 136.251L1100.12 136.229L1100.09 135.451H1099.32V136.251ZM1105.16 144.226L1104.76 144.919L1105.16 144.226ZM1133.41 144.226L1133.81 144.919L1133.41 144.226ZM1139.26 135.824H1138.46V135.839L1138.46 135.854L1139.26 135.824ZM1184.05 69.2605C1184.05 98.2446 1165.15 122.818 1139.01 131.335L1139.5 132.856C1166.29 124.131 1185.65 98.9575 1185.65 69.2605H1184.05ZM1118.77 3.98952C1154.82 3.98952 1184.05 33.2123 1184.05 69.2605H1185.65C1185.65 32.3287 1155.71 2.38952 1118.77 2.38952V3.98952ZM1053.5 69.2605C1053.5 33.2123 1082.73 3.98952 1118.77 3.98952V2.38952C1081.84 2.38952 1051.9 32.3287 1051.9 69.2605H1053.5ZM1099.54 131.651C1072.88 123.441 1053.5 98.612 1053.5 69.2605H1051.9C1051.9 99.334 1071.76 124.769 1099.07 133.18L1099.54 131.651ZM1100.1 136.251V132.415H1098.5V136.251H1100.1ZM1099.32 135.451H1099.3V137.051H1099.32V135.451ZM1105.56 143.533C1101.89 141.409 1100.18 138.746 1100.12 136.229L1098.52 136.272C1098.6 139.538 1100.8 142.63 1104.76 144.919L1105.56 143.533ZM1133.01 143.533C1129.26 145.698 1124.3 146.804 1119.29 146.804C1114.28 146.804 1109.31 145.698 1105.56 143.533L1104.76 144.919C1108.81 147.257 1114.07 148.404 1119.29 148.404C1124.5 148.404 1129.76 147.257 1133.81 144.919L1133.01 143.533ZM1138.46 135.854C1138.55 138.485 1136.87 141.305 1133.01 143.533L1133.81 144.919C1137.97 142.518 1140.18 139.23 1140.06 135.795L1138.46 135.854ZM1138.46 132.095V135.824H1140.06V132.095H1138.46Z" fill="#091A23" mask="url(#path-61-inside-1_3_344)"/>
<ellipse cx="1109.77" cy="66.3314" rx="54.3404" ry="54.3405" fill="#DCFF1E" fill-opacity="0.66"/>
<ellipse cx="1127.55" cy="74.8192" rx="54.3404" ry="54.3405" fill="#DCFF1E" fill-opacity="0.39"/>
<path fill-rule="evenodd" clip-rule="evenodd" d="M1139.33 132.016C1139.24 132.043 1139.16 132.07 1139.08 132.097V135.832C1139.11 136.68 1138.98 137.529 1138.69 138.363C1137.71 135.52 1135.31 132.808 1131.5 130.606C1127.09 128.062 1121.51 126.611 1115.76 126.253C1123.39 125.778 1131.32 127.229 1137.17 130.606C1137.94 131.056 1138.66 131.527 1139.33 132.016Z" fill="#091A23" fill-opacity="0.25"/>
<path d="M1095.75 69.4044L1105.94 42.2098C1106.13 41.7099 1106.91 42.3153 1106.91 42.9608V105.506C1106.91 106.208 1107.79 106.806 1107.9 106.177L1117.59 48.9788C1117.69 48.403 1118.48 48.8567 1118.57 49.5451L1128.24 117.899C1128.34 118.652 1129.23 119.071 1129.23 118.369V55.8282C1129.23 55.1832 1130 55.4767 1130.19 56.1927L1140.45 95.2111" stroke="#091A23" stroke-width="0.8"/>
<ellipse cx="3.43702" cy="3.43703" rx="3.43702" ry="3.43703" transform="matrix(0.866025 0.500001 0 1 1137.48 92.6067)" stroke="#091A23" stroke-width="0.8"/>
<ellipse cx="3.43702" cy="3.43703" rx="3.43702" ry="3.43703" transform="matrix(0.866025 0.500001 0 1 1092.93 66.8886)" stroke="#091A23" stroke-width="0.8"/>
<path d="M1095.75 74.8182L1114.4 131.769" stroke="#091A23" stroke-width="0.8"/>
<path d="M1140.45 100.627L1121.8 136.042" stroke="#091A23" stroke-width="0.8"/>
<line y1="-0.4" x2="18.8774" y2="-0.4" transform="matrix(-0.377381 -0.926058 -0.926057 0.377383 1175.78 140.554)" stroke="#091A23" stroke-width="0.8"/>
<line y1="-0.4" x2="18.8774" y2="-0.4" transform="matrix(0.414559 0.910022 0.910021 -0.414562 1059.8 0)" stroke="#091A23" stroke-width="0.8"/>
<line x1="1199.05" y1="109.863" x2="1180.27" y2="107.921" stroke="#091A23" stroke-width="0.8"/>
<line x1="1037.78" y1="31.6106" x2="1056.62" y2="32.7908" stroke="#091A23" stroke-width="0.8"/>
<path d="M1077.61 656.284L973.789 596.343L973.789 698.004L1077.61 757.944L1077.61 656.284Z" fill="#E8EBEC" stroke="#091A23" stroke-width="0.8"/>
<path d="M1063.05 661.597L985.669 616.919L985.669 692.695L1063.05 737.373L1063.05 661.597Z" fill="#E8EBEC" stroke="#091A23" stroke-width="0.8"/>
<path d="M1262.14 722.729L1262.14 647.534L1142.52 716.572L1142.52 791.768L1262.14 722.729Z" fill="#B9C2C6" stroke="#091A23" stroke-width="0.8"/>
<rect width="75.1951" height="75.195" transform="matrix(-3.53623e-08 -1 -0.866025 -0.500001 1142.52 791.765)" fill="#E8EBEC" stroke="#091A23" stroke-width="0.8"/>
<path d="M1142.52 716.567L1262.38 647.365L1197.26 609.767L1077.4 678.969L1142.52 716.567Z" fill="#B9C2C6" stroke="#091A23" stroke-width="0.8"/>
<path d="M1308.7 621.088L1243.58 658.686L1243.56 520.573L1308.68 482.975L1308.7 621.088Z" fill="#B9C2C6" stroke="#091A23" stroke-width="0.8"/>
<rect width="75.1951" height="75.195" transform="matrix(-0.866024 0.500001 -0.866025 -0.500001 1308.68 482.977)" fill="#B9C2C6" stroke="#091A23" stroke-width="0.8"/>
<path d="M1243.55 520.576L1243.55 658.98L1178.43 621.382L1178.43 482.978L1243.55 520.576Z" fill="#E8EBEC" stroke="#091A23" stroke-width="0.8"/>
<path d="M1095.25 762.845L1098.14 768.69L1098.14 783.358L1098.14 783.36L1098.12 783.369L1060.65 805.002L1042.92 802.282L1042.93 802.272L1042.92 802.273L1042.92 787.614L1060.81 777.283L1057.32 769.766L1024.34 764.623L1000.59 778.333L995.618 767.493L995.589 767.465L995.589 767.429L995.589 752.761L1033.17 731.065L1063.52 735.797L1095.34 717.539L1121.57 732.693L1121.57 747.049L1095.25 762.845Z" fill="#5C707A"/>
<path d="M1245.32 636.868L1245.32 637.075M1095.25 762.845L1098.14 768.69L1098.14 783.358L1098.14 783.36L1098.12 783.369L1060.65 805.002L1042.92 802.282L1042.93 802.272L1042.92 802.273L1042.92 787.614L1060.81 777.283L1057.32 769.766L1024.34 764.623L1000.59 778.333L995.618 767.493L995.589 767.465L995.589 767.429L995.589 752.761L1033.17 731.065L1063.52 735.797L1095.34 717.539L1121.57 732.693L1121.57 747.049L1095.25 762.845Z" stroke="#091A23" stroke-width="0.8"/>
<path fill-rule="evenodd" clip-rule="evenodd" d="M1063.52 735.695L1095.21 717.404L1121.7 732.761L1090.03 751.097L1098.15 768.589L1060.66 790.232L1042.91 787.511L1066.17 774.083L1057.32 754.996L1024.33 749.853L1000.6 763.557L995.598 752.659L1033.17 730.964L1063.52 735.695Z" fill="#B9C2C6"/>
<path d="M1095.21 717.404L1095.41 717.058L1095.21 716.942L1095.01 717.057L1095.21 717.404ZM1063.52 735.695L1063.46 736.091L1063.6 736.112L1063.72 736.042L1063.52 735.695ZM1121.7 732.761L1121.9 733.107L1122.49 732.762L1121.9 732.415L1121.7 732.761ZM1090.03 751.097L1089.83 750.751L1089.52 750.934L1089.67 751.265L1090.03 751.097ZM1098.15 768.589L1098.35 768.936L1098.67 768.753L1098.51 768.421L1098.15 768.589ZM1060.66 790.232L1060.6 790.628L1060.74 790.649L1060.86 790.579L1060.66 790.232ZM1042.91 787.511L1042.71 787.165L1041.73 787.734L1042.85 787.906L1042.91 787.511ZM1066.17 774.083L1066.37 774.429L1066.69 774.246L1066.54 773.914L1066.17 774.083ZM1057.32 754.996L1057.68 754.828L1057.59 754.634L1057.38 754.601L1057.32 754.996ZM1024.33 749.853L1024.39 749.458L1024.25 749.437L1024.13 749.507L1024.33 749.853ZM1000.6 763.557L1000.23 763.724L1000.42 764.123L1000.8 763.903L1000.6 763.557ZM995.598 752.659L995.398 752.313L995.082 752.495L995.234 752.826L995.598 752.659ZM1033.17 730.964L1033.24 730.569L1033.1 730.547L1032.97 730.618L1033.17 730.964ZM1095.01 717.057L1063.32 735.349L1063.72 736.042L1095.41 717.75L1095.01 717.057ZM1121.9 732.415L1095.41 717.058L1095.01 717.75L1121.5 733.107L1121.9 732.415ZM1090.23 751.443L1121.9 733.107L1121.5 732.415L1089.83 750.751L1090.23 751.443ZM1098.51 768.421L1090.4 750.928L1089.67 751.265L1097.79 768.757L1098.51 768.421ZM1060.86 790.579L1098.35 768.936L1097.95 768.243L1060.46 789.886L1060.86 790.579ZM1042.85 787.906L1060.6 790.628L1060.72 789.837L1042.97 787.116L1042.85 787.906ZM1065.97 773.736L1042.71 787.165L1043.11 787.858L1066.37 774.429L1065.97 773.736ZM1056.96 755.165L1065.81 774.251L1066.54 773.914L1057.68 754.828L1056.96 755.165ZM1024.27 750.249L1057.26 755.392L1057.38 754.601L1024.39 749.458L1024.27 750.249ZM1000.8 763.903L1024.53 750.2L1024.13 749.507L1000.4 763.21L1000.8 763.903ZM995.234 752.826L1000.23 763.724L1000.96 763.39L995.961 752.492L995.234 752.826ZM1032.97 730.618L995.398 752.313L995.798 753.006L1033.37 731.311L1032.97 730.618ZM1063.58 735.3L1033.24 730.569L1033.11 731.359L1063.46 736.091L1063.58 735.3Z" fill="#091A23"/>
<path d="M1304.39 698.369C1306.95 696.893 1308.53 694.162 1308.53 691.207L1308.5 621.231L1243.74 658.576L1243.77 733.308L1304.39 698.369Z" fill="#8A99A0" stroke="#091A23" stroke-width="0.8"/>
<line y1="-0.4" x2="71.4861" y2="-0.4" transform="matrix(0.863112 0.505013 -0.505011 0.863113 1243.87 658.817)" stroke="#314B58" stroke-width="0.8"/>
<line y1="-0.4" x2="64.9289" y2="-0.4" transform="matrix(0.640283 0.768139 -0.768137 0.640285 1243.87 658.976)" stroke="#314B58" stroke-width="0.8"/>
<line y1="-0.4" x2="64.9288" y2="-0.4" transform="matrix(0.985369 -0.170434 0.170433 0.985369 1244.45 658.577)" stroke="#314B58" stroke-width="0.8"/>
<line y1="-0.4" x2="65.375" y2="-0.4" transform="matrix(0.317992 0.948094 -0.948093 0.317993 1243.87 658.976)" stroke="#314B58" stroke-width="0.8"/>
<line y1="-0.4" x2="65.3748" y2="-0.4" transform="matrix(0.980069 0.198658 -0.198656 0.980069 1244.45 658.577)" stroke="#314B58" stroke-width="0.8"/>
<path d="M1077.9 283L89.999 867" stroke="#DCFF1E" stroke-width="12" stroke-linecap="round"/>
<path d="M988.505 238L0.600575 822" stroke="#DCFF1E" stroke-width="12" stroke-linecap="round"/>
</svg>
