<svg width="16" height="16" viewBox="0 0 16 16" fill="none" xmlns="http://www.w3.org/2000/svg">
<path d="M13.8331 13.2676L10.5139 9.94839C11.2484 9.08323 11.6511 7.98491 11.6499 6.84999C11.6499 5.57695 11.1441 4.35606 10.244 3.45588C9.3438 2.55571 8.1229 2.04999 6.84986 2.04999C5.57682 2.04999 4.35592 2.55571 3.45574 3.45588C2.55557 4.35606 2.04985 5.57695 2.04985 6.84999C2.04985 8.12303 2.55557 9.34393 3.45574 10.2441C4.35592 11.1443 5.57682 11.65 6.84986 11.65C7.98474 11.651 9.083 11.2484 9.94826 10.514L13.2675 13.8332C13.3424 13.908 13.444 13.95 13.5499 13.95C13.6024 13.9501 13.6545 13.9398 13.7031 13.9198C13.7517 13.8997 13.7958 13.8703 13.8331 13.8332C13.908 13.7582 13.9502 13.6565 13.9502 13.5504C13.9502 13.4443 13.908 13.3426 13.8331 13.2676ZM6.84986 10.85C5.78932 10.8489 4.77252 10.4272 4.0226 9.67725C3.27268 8.92733 2.85091 7.91053 2.84985 6.84999C2.85112 5.78951 3.27296 4.77283 4.02283 4.02296C4.7727 3.27309 5.78938 2.85126 6.84986 2.84999C7.9104 2.85105 8.9272 3.27281 9.67712 4.02273C10.427 4.77265 10.8488 5.78945 10.8499 6.84999C10.8499 7.91085 10.4284 8.92827 9.67828 9.67842C8.92814 10.4286 7.91072 10.85 6.84986 10.85Z" fill="#898A90"/>
</svg>
