<svg xmlns="http://www.w3.org/2000/svg" width="22" height="22" viewBox="0 0 22 22">
  <g id="Group_8755" data-name="Group 8755" transform="translate(0 0.25)">
    <circle id="Ellipse_433" data-name="Ellipse 433" cx="11" cy="11" r="11" transform="translate(0 -0.25)" fill="#00b96c"/>
    <g id="helpCenter" transform="translate(2 1.75)">
      <rect id="Rectangle_16996" data-name="Rectangle 16996" width="18" height="18" fill="#bdc3d7" opacity="0"/>
      <path id="Path_10557" data-name="Path 10557" d="M15.915,9.972A.624.624,0,0,1,15.5,9.81a9.681,9.681,0,0,0,.067-.991.63.63,0,1,1,.351,1.153m-13.83,0a.631.631,0,1,1,.351-1.153A9.681,9.681,0,0,0,2.5,9.81a.625.625,0,0,1-.418.161M15.874,7.2a2.136,2.136,0,0,0-.509.064,6.57,6.57,0,0,0-5.191-4.862c-.113-.021-.215-.036-.33-.05A2.166,2.166,0,0,1,10.8.365L10.659,0S8.884.555,8.678,2.082c-.089-.416-.916-.936-1.326-1.034l-.2.33a1.436,1.436,0,0,1,.675,1.027A6.571,6.571,0,0,0,2.635,7.267,2.139,2.139,0,1,0,2.9,11.331a6.571,6.571,0,0,0,.691,1.292l1.765-1.2-.015-.02a4.386,4.386,0,0,1-.8-2.375,3.171,3.171,0,0,1,.8-2.512,2.356,2.356,0,0,1,3.537.453h.234a2.356,2.356,0,0,1,3.537-.453,3.174,3.174,0,0,1,.8,2.513,4.393,4.393,0,0,1-.8,2.375l-.015.019,1.765,1.2a6.58,6.58,0,0,0,.691-1.292A2.135,2.135,0,1,0,15.874,7.2" transform="translate(0 1.001)" fill="#fff" fill-rule="evenodd"/>
    </g>
  </g>
</svg>
