<svg width="248" height="215" viewBox="0 0 248 215" fill="none" xmlns="http://www.w3.org/2000/svg">
<path d="M198.692 61.7556L203.017 69.6521L210.894 73.987L203.017 78.3016L198.692 86.1981L194.388 78.3016L186.51 73.987L194.388 69.6521L198.692 61.7556Z" fill="#7CDCFE"/>
<path d="M198.915 0L200.698 3.24035L203.938 5.0111L200.698 6.79389L198.915 10.0342L197.144 6.79389L193.904 5.0111L197.144 3.24035L198.915 0Z" fill="#8BA2FF"/>
<path d="M156.932 23.7833L159.937 29.2783L165.398 32.27L159.937 35.2618L156.932 40.7364L153.947 35.2618L148.486 32.27L153.947 29.2783L156.932 23.7833Z" fill="#FF6280"/>
<mask id="mask0_33_1429" style="mask-type:luminance" maskUnits="userSpaceOnUse" x="217" y="18" width="31" height="29">
<path d="M232.555 41.9138L223.184 46.84L224.976 36.404L217.394 29.0131L227.871 27.4922L232.555 18L237.242 27.4922L247.717 29.0131L240.138 36.404L241.926 46.84L232.555 41.9138Z" fill="white"/>
</mask>
<g mask="url(#mask0_33_1429)">
<path d="M226.736 -22.4206L127.029 103.414" stroke="#FBBC46" stroke-miterlimit="10"/>
<path d="M231.29 -22.4206L131.582 103.414" stroke="#FBBC46" stroke-miterlimit="10"/>
<path d="M235.839 -22.4206L136.132 103.414" stroke="#FBBC46" stroke-miterlimit="10"/>
<path d="M240.39 -22.4206L140.682 103.414" stroke="#FBBC46" stroke-miterlimit="10"/>
<path d="M244.939 -22.4206L145.232 103.414" stroke="#FBBC46" stroke-miterlimit="10"/>
<path d="M249.49 -22.4206L149.782 103.414" stroke="#FBBC46" stroke-miterlimit="10"/>
<path d="M254.043 -22.4206L154.335 103.414" stroke="#FBBC46" stroke-miterlimit="10"/>
<path d="M263.143 -22.4206L163.435 103.414" stroke="#FBBC46" stroke-miterlimit="10"/>
<path d="M258.593 -22.4206L158.885 103.414" stroke="#FBBC46" stroke-miterlimit="10"/>
<path d="M267.693 -22.4206L167.985 103.414" stroke="#FBBC46" stroke-miterlimit="10"/>
<path d="M272.243 -22.4206L172.535 103.414" stroke="#FBBC46" stroke-miterlimit="10"/>
<path d="M276.796 -22.4206L177.088 103.414" stroke="#FBBC46" stroke-miterlimit="10"/>
<path d="M281.346 -22.4206L181.638 103.414" stroke="#FBBC46" stroke-miterlimit="10"/>
<path d="M285.896 -22.4206L186.188 103.414" stroke="#FBBC46" stroke-miterlimit="10"/>
<path d="M290.446 -22.4206L190.738 103.414" stroke="#FBBC46" stroke-miterlimit="10"/>
<path d="M290.446 -16.4206L190.738 109.414" stroke="#FBBC46" stroke-miterlimit="10"/>
</g>
<g clip-path="url(#clip0_33_1429)">
<path d="M64.9816 215C99.2033 215 126.945 210.334 126.945 204.579C126.945 198.824 99.2033 194.158 64.9816 194.158C30.7599 194.158 3.0177 198.824 3.0177 204.579C3.0177 210.334 30.7599 215 64.9816 215Z" fill="#F4F6F7"/>
<path d="M41.0802 110.996L38.9574 103.306L37.329 103.322L35.4408 103.342L33.4716 111.069L32.7482 113.912L38.4267 113.855L41.8623 113.822L41.0802 110.996Z" fill="#4464AD"/>
<path d="M41.0803 110.996L38.9575 103.306L37.329 103.322L36.748 103.328V113.872L38.4267 113.855L41.8624 113.822L41.0803 110.996Z" fill="#212851"/>
<path d="M43.988 116.202C43.1584 114.217 42.3009 113.031 41.5914 113.042C41.2758 113.048 39.6138 113.076 37.8569 113.107C41.1976 113.628 43.4209 122.311 43.4321 122.917L46.2225 122.16C46.2225 122.16 44.8175 118.19 43.988 116.205V116.202Z" fill="#4464AD"/>
<path d="M37.1698 113.118C35.1811 113.152 33.2817 113.185 33.2817 113.185C33.2817 113.185 31.3405 112.064 29.2428 122.076L32.3767 123.093C32.3767 123.093 33.8739 113.777 37.1726 113.118H37.1698Z" fill="#778DC7"/>
<path d="M37.1698 113.118C33.871 113.777 32.3739 123.093 32.3739 123.093L34.6448 123.054C34.6448 123.054 35.4464 118.992 37.6055 118.955L37.5078 113.113C37.396 113.113 37.2815 113.115 37.1698 113.118Z" fill="#212851"/>
<path d="M37.8542 113.107C37.7396 113.107 37.6223 113.11 37.5078 113.113L37.6056 118.955C39.7647 118.919 40.5049 122.967 40.5049 122.967L43.4266 122.917C43.4154 122.311 41.192 113.628 37.8514 113.107H37.8542Z" fill="#111729"/>
<path d="M29.6115 122.196L10.5117 203.772L13.1261 205.145L32.3739 123.093L29.6115 122.196Z" fill="#778DC7"/>
<g style="mix-blend-mode:multiply">
<path d="M30.9718 122.636L11.6234 204.355L13.1261 205.145L32.3739 123.093L30.9718 122.636Z" fill="#4464AD"/>
</g>
<path d="M45.7784 122.28L43.4293 122.917L65.4591 203.489L68.7467 202.987L45.7784 122.28Z" fill="#778DC7"/>
<g style="mix-blend-mode:multiply">
<path d="M45.7784 122.28L44.4656 122.636L67.0512 203.245L68.7467 202.987L45.7784 122.28Z" fill="#4464AD"/>
</g>
<path d="M35.276 121.114C35.276 121.114 35.8123 122.14 35.829 123.259L39.4378 123.197C39.4378 123.197 39.5216 121.647 39.9043 121.035C39.9043 121.035 39.1026 118.93 37.6055 118.955C36.1084 118.98 35.2732 121.114 35.2732 121.114H35.276Z" fill="#111729"/>
<path d="M39.1865 123.203L36.5553 123.247L36.0749 123.256L36.0442 200.696L36.5358 200.688L39.4938 200.637L39.1865 123.203Z" fill="#778DC7"/>
<path d="M37.5273 200.671L39.4937 200.637L39.1865 123.203L37.5273 123.231V200.671Z" fill="#4464AD"/>
<path d="M10.5118 202.847L13.7547 203.489C13.7547 203.489 13.6038 205.984 12.3916 206.418C11.1793 206.853 9.01464 206.172 10.5118 202.847Z" fill="#212851"/>
<path d="M69.001 202.639L65.2469 203.489C65.2469 203.489 65.3978 205.984 66.61 206.418C67.8223 206.853 70.4953 205.964 68.9982 202.639H69.001Z" fill="#212851"/>
<path d="M35.871 199.289H39.8429C39.8429 199.289 40.3233 201.722 39.0524 202.381C37.7815 203.04 34.8068 202.392 35.871 199.289Z" fill="#212851"/>
<path d="M14.7463 101.615L2.03735 107.228C2.03735 107.228 0.283238 108.338 1.3223 111.714C2.36136 115.089 4.72998 114.273 5.59586 114.099C6.55113 113.909 18.9054 110.219 18.9054 110.219L14.7491 101.612L14.7463 101.615Z" fill="#2C4898"/>
<path d="M8.83036 108.002C7.5846 108.534 6.3556 109.106 5.10705 109.633C4.49255 109.891 3.60991 110.281 2.92837 110.015C1.89489 109.608 1.53178 108.694 1.55971 107.724C1.12956 108.332 0.657517 109.563 1.3195 111.716C2.35856 115.092 4.72718 114.276 5.59306 114.102C6.54833 113.912 18.9026 110.222 18.9026 110.222L16.3133 104.859C13.8162 105.899 11.3191 106.939 8.83036 108.002Z" fill="#212851"/>
<path d="M109.091 60.5931L12.4334 101.223C11.8692 101.41 11.8273 104.217 12.8468 107.329C13.8663 110.438 15.5646 112.672 16.1288 112.487L117.923 87.5131L110.242 61.5015L109.091 60.5959V60.5931Z" fill="#FBBC46"/>
<path d="M111.404 65.4321L12.1458 104.267C12.2407 104.993 12.4027 105.804 12.6429 106.653L113.08 71.1094L111.404 65.4321Z" fill="#FED99C"/>
<path d="M96.2763 81.1742C80.0786 86.5178 28.1311 103.603 24.3268 104.691C21.704 105.439 18.3299 106.448 15.6233 105.462C13.7546 104.78 12.7128 103.336 12.196 101.539C11.886 102.378 12.0005 104.747 12.8468 107.329C13.8664 110.438 15.5646 112.672 16.1288 112.487L117.923 87.5131L114.231 75.0035C108.248 77.0838 102.279 79.1949 96.2763 81.1742Z" fill="#FBBC46"/>
<path d="M111.351 89.1251L117.923 87.5131L110.242 61.5015L109.091 60.5959L103.53 62.9341C101.36 72.4439 105.483 81.6312 111.351 89.1279V89.1251Z" fill="#F6A200"/>
<path d="M120.004 55.1318L106.65 60.7445C104.969 66.4891 106.485 73.0214 108.441 78.4912C109.734 82.1078 111.759 86.3412 114.823 89.0718L129.923 85.3683L121.295 56.1523" fill="#2C4898"/>
<path d="M120.004 55.1318L106.65 60.7445C106.22 62.2192 106.002 63.7444 105.943 65.2919C108.642 64.3808 111.34 63.4612 114.049 62.5837C116.817 61.6893 119.638 60.8819 122.434 60.0016L121.298 56.1495" fill="#111729"/>
<path d="M109.248 80.5798C110.53 83.6469 112.334 86.857 114.823 89.0747L129.923 85.3711L126.705 74.4792C120.909 76.5903 115.122 78.7323 109.248 80.5826V80.5798Z" fill="#111729"/>
<path d="M120.004 55.1318C123.342 54.03 128.272 59.9035 131.012 68.2497C133.752 76.5987 133.264 84.2637 129.926 85.3655C126.585 86.4701 121.658 80.5938 118.921 72.2476C116.181 63.8985 116.667 56.2364 120.007 55.1318" fill="#111729"/>
<path d="M120.842 56.6513C120.328 56.8223 119.898 57.1868 119.549 57.7167C122.205 58.6951 125.432 63.3378 127.431 69.4356C129.431 75.5334 129.585 81.191 128.029 83.5628C128.621 83.7787 129.186 83.818 129.699 83.6497C132.526 82.7161 132.836 75.9119 130.392 68.4572C127.945 61.0053 123.669 55.7177 120.842 56.6541V56.6513Z" fill="#D1DDF3"/>
<path d="M127.434 69.4328C125.431 63.335 122.208 58.6923 119.552 57.7139C117.993 60.0857 118.152 65.7433 120.152 71.8411C122.152 77.9389 125.376 82.5816 128.032 83.56C129.588 81.1882 129.434 75.5306 127.434 69.4328Z" fill="#212851"/>
<path d="M124.149 64.1032C124.909 65.8667 124.756 67.6273 123.809 68.0366C122.862 68.4488 121.479 67.3526 120.719 65.5919C119.96 63.8313 120.113 62.0678 121.06 61.6585C122.007 61.2464 123.39 62.3426 124.149 64.106V64.1032Z" fill="white"/>
<path d="M126.51 71.2019C126.825 71.9364 126.764 72.6681 126.367 72.8391C125.973 73.0102 125.395 72.5532 125.08 71.8214C124.764 71.0869 124.828 70.3552 125.222 70.1842C125.616 70.0131 126.191 70.4701 126.507 71.2019H126.51Z" fill="white"/>
<path d="M0.992642 99.7899C1.582 101.615 2.88083 100.833 2.88083 100.833L16.506 95.5733L14.4474 91.2418L1.24403 97.7013C1.24403 97.7013 0.400488 97.9648 0.992642 99.7899Z" fill="#2C4898"/>
<path d="M13.1011 96.8882L16.5059 95.5733L14.4474 91.2418L11.6346 92.6184C11.6682 94.1015 12.1933 95.7163 13.1011 96.8882Z" fill="#2C4898"/>
<path d="M5.91142 106.659L4.26624 98.618L6.05387 98.2255L9.94756 105.181L5.91142 106.659Z" fill="#2C4898"/>
<path d="M7.24097 100.345L6.05387 98.2255L4.26624 98.618L4.79415 101.2C5.64607 101.06 6.43653 100.687 7.23818 100.345H7.24097Z" fill="#111729"/>
<path d="M5.65723 105.414L5.91141 106.659L9.94755 105.181L9.17663 103.807C8.02863 104.405 6.85829 105.021 5.65723 105.417V105.414Z" fill="#111729"/>
<path d="M2.53442 96.7228L4.26619 100.704L7.10686 99.6161L5.46726 95.1107L2.53442 96.7228Z" fill="#212851"/>
<path d="M5.46729 98.1779C5.46729 98.5816 5.14049 98.9124 4.73547 98.9124C4.33046 98.9124 4.00366 98.5844 4.00366 98.1779C4.00366 97.7713 4.33046 97.4433 4.73547 97.4433C5.14049 97.4433 5.46729 97.7713 5.46729 98.1779Z" fill="#18191B"/>
<path d="M13.3999 94.5921C13.7211 95.3322 14.2015 96.1901 14.8803 96.72L17.9919 95.7359L15.7853 89.7335L15.5004 89.5372L12.7798 90.897C12.5061 92.1221 12.9139 93.4707 13.3971 94.5893L13.3999 94.5921Z" fill="#778DC7"/>
<path d="M14.3579 91.1829C14.925 90.9586 15.5059 90.7512 16.0785 90.5269L15.7881 89.7363L15.5032 89.54L12.7826 90.8998C12.7128 91.2138 12.6876 91.5362 12.696 91.8614C13.2491 91.6343 13.8021 91.4044 14.3579 91.1829Z" fill="#4464AD"/>
<path d="M13.5955 95.0182C13.9055 95.6434 14.3273 96.2911 14.8803 96.7228L17.9919 95.7387L17.1707 93.5015C15.9864 94.023 14.8021 94.5528 13.5955 95.021V95.0182Z" fill="#4464AD"/>
<path d="M17.9863 92.1362C18.6734 93.8463 18.6762 95.4612 17.9919 95.7359C17.3076 96.0135 16.1959 94.85 15.506 93.1398C14.8189 91.4269 14.8161 89.8148 15.5004 89.54C16.1847 89.2625 17.2964 90.426 17.9863 92.1362Z" fill="#111729"/>
<path d="M15.6986 89.8456C15.5925 89.8877 15.5087 89.969 15.4417 90.0867C16.0115 90.255 16.7517 91.1829 17.2516 92.4333C17.7544 93.6837 17.8633 94.8668 17.5701 95.3855C17.6957 95.4219 17.8159 95.4247 17.922 95.3799C18.5002 95.1444 18.475 93.7174 17.8605 92.1866C17.246 90.6587 16.2768 89.6101 15.6986 89.8456Z" fill="#96A5A8"/>
<path d="M17.2545 92.4333C16.7517 91.1829 16.0143 90.255 15.4445 90.0867C15.1512 90.6054 15.2601 91.7885 15.7629 93.0389C16.2657 94.2893 17.0059 95.2173 17.5729 95.3855C17.8662 94.8668 17.7572 93.6837 17.2545 92.4333Z" fill="#212851"/>
<path d="M16.4919 91.3624C16.6762 91.7212 16.6679 92.0913 16.4751 92.1922C16.2824 92.2904 15.978 92.0801 15.7936 91.7212C15.612 91.3624 15.6176 90.9923 15.8104 90.8914C16.0031 90.7932 16.3075 91.0035 16.4919 91.3624Z" fill="white"/>
<path d="M17.0842 92.8174C17.1596 92.9688 17.1568 93.123 17.0758 93.1623C16.9948 93.2043 16.8691 93.1174 16.7909 92.966C16.7155 92.8174 16.7182 92.6632 16.7992 92.6212C16.8803 92.5791 17.0059 92.6688 17.0842 92.8174Z" fill="white"/>
<path d="M40.3066 98.8283C39.3877 95.9995 38.7704 92.4726 39.5552 89.4335L28.4775 94.037C28.4691 94.0538 28.4579 94.0706 28.4524 94.0846C27.9943 95.0715 27.7205 96.1088 27.6647 97.1994C27.5753 98.932 27.7485 100.665 28.2317 102.33C28.9412 104.772 30.0892 107.225 31.8544 109.081L44.96 105.921C42.6724 104.267 41.1501 101.41 40.3094 98.8227L40.3066 98.8283Z" fill="#111729"/>
<path d="M27.6396 98.1778C27.5111 98.6881 27.958 100.283 27.9301 100.816C27.9161 101.082 27.9217 100.979 27.9217 101.245C30.8071 100.062 38.7872 97.4573 39.7983 97.0424C39.7871 96.6527 39.2117 93.8828 39.2313 93.4987" fill="#9FB6E0"/>
<path d="M40.7563 100.053C39.7424 100.356 31.7902 103.064 28.8015 104.035C29.511 105.885 30.497 107.662 31.8545 109.087L44.96 105.927C43.03 104.531 41.6473 102.277 40.7563 100.053Z" fill="#111729"/>
</g>
<defs>
<clipPath id="clip0_33_1429">
<rect width="132" height="160" fill="white" transform="translate(0.783203 55)"/>
</clipPath>
</defs>
</svg>
