<svg width="248" height="215" viewBox="0 0 248 215" fill="none" xmlns="http://www.w3.org/2000/svg">
<path d="M198.442 61.7556L202.767 69.6521L210.644 73.987L202.767 78.3016L198.442 86.1981L194.138 78.3016L186.26 73.987L194.138 69.6521L198.442 61.7556Z" fill="#7CDCFE"/>
<path d="M198.665 0L200.448 3.24035L203.688 5.0111L200.448 6.79389L198.665 10.0342L196.894 6.79389L193.654 5.0111L196.894 3.24035L198.665 0Z" fill="#8BA2FF"/>
<path d="M156.682 23.7833L159.687 29.2783L165.148 32.27L159.687 35.2618L156.682 40.7364L153.697 35.2618L148.236 32.27L153.697 29.2783L156.682 23.7833Z" fill="#FF6280"/>
<mask id="mask0_2_1186" style="mask-type:luminance" maskUnits="userSpaceOnUse" x="217" y="18" width="31" height="29">
<path d="M232.305 41.9138L222.934 46.84L224.726 36.404L217.144 29.0131L227.622 27.4922L232.305 18L236.993 27.4922L247.467 29.0131L239.888 36.404L241.676 46.84L232.305 41.9138Z" fill="white"/>
</mask>
<g mask="url(#mask0_2_1186)">
<path d="M226.486 -22.4206L126.779 103.414" stroke="#FBBC46" stroke-miterlimit="10"/>
<path d="M231.04 -22.4206L131.332 103.414" stroke="#FBBC46" stroke-miterlimit="10"/>
<path d="M235.59 -22.4206L135.882 103.414" stroke="#FBBC46" stroke-miterlimit="10"/>
<path d="M240.14 -22.4206L140.432 103.414" stroke="#FBBC46" stroke-miterlimit="10"/>
<path d="M244.69 -22.4206L144.982 103.414" stroke="#FBBC46" stroke-miterlimit="10"/>
<path d="M249.24 -22.4206L149.532 103.414" stroke="#FBBC46" stroke-miterlimit="10"/>
<path d="M253.793 -22.4206L154.085 103.414" stroke="#FBBC46" stroke-miterlimit="10"/>
<path d="M262.893 -22.4206L163.185 103.414" stroke="#FBBC46" stroke-miterlimit="10"/>
<path d="M258.343 -22.4206L158.635 103.414" stroke="#FBBC46" stroke-miterlimit="10"/>
<path d="M267.443 -22.4206L167.735 103.414" stroke="#FBBC46" stroke-miterlimit="10"/>
<path d="M271.993 -22.4206L172.285 103.414" stroke="#FBBC46" stroke-miterlimit="10"/>
<path d="M276.546 -22.4206L176.838 103.414" stroke="#FBBC46" stroke-miterlimit="10"/>
<path d="M281.096 -22.4206L181.388 103.414" stroke="#FBBC46" stroke-miterlimit="10"/>
<path d="M285.646 -22.4206L185.938 103.414" stroke="#FBBC46" stroke-miterlimit="10"/>
<path d="M290.196 -22.4206L190.488 103.414" stroke="#FBBC46" stroke-miterlimit="10"/>
<path d="M290.196 -16.4206L190.488 109.414" stroke="#FBBC46" stroke-miterlimit="10"/>
</g>
<g clip-path="url(#clip0_2_1186)">
<path d="M64.7317 215C98.9533 215 126.696 210.334 126.696 204.579C126.696 198.824 98.9533 194.158 64.7317 194.158C30.51 194.158 2.76779 198.824 2.76779 204.579C2.76779 210.334 30.51 215 64.7317 215Z" fill="#171717"/>
<path d="M40.8304 110.996L38.7076 103.306L37.0792 103.322L35.191 103.342L33.2218 111.069L32.4984 113.912L38.1769 113.855L41.6125 113.822L40.8304 110.996Z" fill="#4464AD"/>
<path d="M40.8305 110.996L38.7076 103.306L37.0792 103.322L36.4982 103.328V113.872L38.1769 113.855L41.6125 113.822L40.8305 110.996Z" fill="#212851"/>
<path d="M43.7381 116.202C42.9086 114.217 42.0511 113.031 41.3416 113.042C41.026 113.048 39.364 113.076 37.6071 113.107C40.9478 113.628 43.1711 122.311 43.1823 122.917L45.9727 122.16C45.9727 122.16 44.5677 118.19 43.7381 116.205V116.202Z" fill="#4464AD"/>
<path d="M36.92 113.118C34.9312 113.152 33.0319 113.185 33.0319 113.185C33.0319 113.185 31.0906 112.064 28.993 122.076L32.1269 123.093C32.1269 123.093 33.624 113.777 36.9228 113.118H36.92Z" fill="#778DC7"/>
<path d="M36.92 113.118C33.6213 113.777 32.1241 123.093 32.1241 123.093L34.395 123.054C34.395 123.054 35.1966 118.992 37.3557 118.955L37.258 113.113C37.1462 113.113 37.0317 113.115 36.92 113.118Z" fill="#212851"/>
<path d="M37.6043 113.107C37.4898 113.107 37.3725 113.11 37.258 113.113L37.3557 118.955C39.5149 118.919 40.255 122.967 40.255 122.967L43.1767 122.917C43.1655 122.311 40.9422 113.628 37.6015 113.107H37.6043Z" fill="#111729"/>
<path d="M29.3617 122.196L10.2619 203.772L12.8763 205.145L32.1241 123.093L29.3617 122.196Z" fill="#778DC7"/>
<g style="mix-blend-mode:multiply">
<path d="M30.7219 122.636L11.3736 204.355L12.8763 205.145L32.1241 123.093L30.7219 122.636Z" fill="#4464AD"/>
</g>
<path d="M45.5286 122.28L43.1795 122.917L65.2093 203.489L68.4969 202.987L45.5286 122.28Z" fill="#778DC7"/>
<g style="mix-blend-mode:multiply">
<path d="M45.5286 122.28L44.2158 122.636L66.8014 203.245L68.4969 202.987L45.5286 122.28Z" fill="#4464AD"/>
</g>
<path d="M35.0262 121.114C35.0262 121.114 35.5625 122.14 35.5793 123.259L39.1881 123.197C39.1881 123.197 39.2719 121.647 39.6545 121.035C39.6545 121.035 38.8529 118.93 37.3557 118.955C35.8586 118.98 35.0234 121.114 35.0234 121.114H35.0262Z" fill="#111729"/>
<path d="M38.9367 123.203L36.3055 123.247L35.8251 123.256L35.7943 200.696L36.2859 200.688L39.2439 200.637L38.9367 123.203Z" fill="#778DC7"/>
<path d="M37.2775 200.671L39.2439 200.637L38.9367 123.203L37.2775 123.231V200.671Z" fill="#4464AD"/>
<path d="M10.2619 202.847L13.5048 203.489C13.5048 203.489 13.3539 205.984 12.1417 206.418C10.9295 206.853 8.76476 206.172 10.2619 202.847Z" fill="#212851"/>
<path d="M68.751 202.639L64.997 203.489C64.997 203.489 65.1478 205.984 66.3601 206.418C67.5723 206.853 70.2454 205.964 68.7482 202.639H68.751Z" fill="#212851"/>
<path d="M35.6212 199.289H39.5931C39.5931 199.289 40.0735 201.722 38.8026 202.381C37.5317 203.04 34.557 202.392 35.6212 199.289Z" fill="#212851"/>
<path d="M14.4963 101.615L1.78738 107.228C1.78738 107.228 0.0332687 108.338 1.07233 111.714C2.11139 115.089 4.48001 114.273 5.34589 114.099C6.30116 113.909 18.6554 110.219 18.6554 110.219L14.4991 101.612L14.4963 101.615Z" fill="#2C4898"/>
<path d="M8.58039 108.002C7.33463 108.534 6.10563 109.106 4.85708 109.633C4.24258 109.891 3.35994 110.281 2.6784 110.015C1.64493 109.608 1.28181 108.694 1.30974 107.724C0.879595 108.332 0.407548 109.563 1.06953 111.716C2.10859 115.092 4.47721 114.276 5.34309 114.102C6.29836 113.912 18.6526 110.222 18.6526 110.222L16.0633 104.859C13.5662 105.899 11.0691 106.939 8.58039 108.002Z" fill="#212851"/>
<path d="M108.842 60.5931L12.1836 101.223C11.6194 101.41 11.5775 104.217 12.597 107.329C13.6165 110.438 15.3148 112.672 15.879 112.487L117.674 87.5131L109.992 61.5015L108.842 60.5959V60.5931Z" fill="#FBBC46"/>
<path d="M111.154 65.4321L11.8959 104.267C11.9909 104.993 12.1529 105.804 12.3931 106.653L112.83 71.1094L111.154 65.4321Z" fill="#FED99C"/>
<path d="M96.0264 81.1742C79.8288 86.5178 27.8813 103.603 24.077 104.691C21.4542 105.439 18.08 106.448 15.3734 105.462C13.5048 104.78 12.4629 103.336 11.9462 101.539C11.6361 102.378 11.7507 104.747 12.597 107.329C13.6165 110.438 15.3148 112.672 15.879 112.487L117.674 87.5131L113.981 75.0035C107.998 77.0838 102.029 79.1949 96.0264 81.1742Z" fill="#FBBC46"/>
<path d="M111.101 89.1251L117.674 87.5131L109.992 61.5015L108.842 60.5959L103.28 62.9341C101.11 72.4439 105.233 81.6312 111.101 89.1279V89.1251Z" fill="#F6A200"/>
<path d="M119.754 55.1318L106.4 60.7445C104.719 66.4891 106.235 73.0214 108.191 78.4912C109.484 82.1078 111.509 86.3412 114.573 89.0718L129.673 85.3683L121.045 56.1523" fill="#2C4898"/>
<path d="M119.754 55.1318L106.4 60.7445C105.97 62.2192 105.752 63.7444 105.694 65.2919C108.392 64.3808 111.09 63.4612 113.799 62.5837C116.567 61.6893 119.389 60.8819 122.185 60.0016L121.048 56.1495" fill="#111729"/>
<path d="M108.998 80.5798C110.28 83.6469 112.084 86.857 114.573 89.0747L129.673 85.3711L126.455 74.4792C120.659 76.5903 114.872 78.7323 108.998 80.5826V80.5798Z" fill="#111729"/>
<path d="M119.754 55.1318C123.092 54.03 128.022 59.9035 130.762 68.2497C133.502 76.5987 133.014 84.2637 129.676 85.3655C126.335 86.4701 121.408 80.5938 118.671 72.2476C115.931 63.8985 116.417 56.2364 119.757 55.1318" fill="#111729"/>
<path d="M120.592 56.6513C120.078 56.8223 119.648 57.1868 119.299 57.7167C121.956 58.6951 125.182 63.3378 127.182 69.4356C129.181 75.5334 129.335 81.191 127.779 83.5628C128.371 83.7787 128.936 83.818 129.45 83.6497C132.276 82.7161 132.586 75.9119 130.142 68.4572C127.695 61.0053 123.419 55.7177 120.592 56.6541V56.6513Z" fill="#D1DDF3"/>
<path d="M127.184 69.4328C125.182 63.335 121.958 58.6923 119.302 57.7139C117.743 60.0857 117.903 65.7433 119.902 71.8411C121.902 77.9389 125.126 82.5816 127.782 83.56C129.338 81.1882 129.184 75.5306 127.184 69.4328Z" fill="#212851"/>
<path d="M123.9 64.1032C124.659 65.8667 124.506 67.6273 123.559 68.0366C122.612 68.4488 121.229 67.3526 120.47 65.5919C119.71 63.8313 119.863 62.0678 120.81 61.6585C121.757 61.2464 123.14 62.3426 123.9 64.106V64.1032Z" fill="white"/>
<path d="M126.26 71.2019C126.575 71.9364 126.514 72.6681 126.117 72.8391C125.723 73.0102 125.145 72.5532 124.83 71.8214C124.514 71.0869 124.578 70.3552 124.972 70.1842C125.366 70.0131 125.941 70.4701 126.257 71.2019H126.26Z" fill="white"/>
<path d="M0.742733 99.7899C1.33209 101.615 2.63092 100.833 2.63092 100.833L16.256 95.5733L14.1975 91.2418L0.994119 97.7013C0.994119 97.7013 0.150579 97.9648 0.742733 99.7899Z" fill="#2C4898"/>
<path d="M12.8512 96.8882L16.256 95.5733L14.1975 91.2418L11.3847 92.6184C11.4183 94.1015 11.9434 95.7163 12.8512 96.8882Z" fill="#2C4898"/>
<path d="M5.66154 106.659L4.01636 98.618L5.80399 98.2255L9.69768 105.181L5.66154 106.659Z" fill="#2C4898"/>
<path d="M6.99109 100.345L5.80399 98.2255L4.01636 98.618L4.54427 101.2C5.39619 101.06 6.18666 100.687 6.9883 100.345H6.99109Z" fill="#111729"/>
<path d="M5.40735 105.414L5.66153 106.659L9.69767 105.181L8.92675 103.807C7.77876 104.405 6.60842 105.021 5.40735 105.417V105.414Z" fill="#111729"/>
<path d="M2.28458 96.7228L4.01635 100.704L6.85701 99.6161L5.21741 95.1107L2.28458 96.7228Z" fill="#212851"/>
<path d="M5.21741 98.1779C5.21741 98.5816 4.89061 98.9124 4.4856 98.9124C4.08059 98.9124 3.75378 98.5844 3.75378 98.1779C3.75378 97.7713 4.08059 97.4433 4.4856 97.4433C4.89061 97.4433 5.21741 97.7713 5.21741 98.1779Z" fill="#18191B"/>
<path d="M13.15 94.5921C13.4712 95.3322 13.9517 96.1901 14.6304 96.72L17.742 95.7359L15.5354 89.7335L15.2505 89.5372L12.5299 90.897C12.2562 92.1221 12.664 93.4707 13.1472 94.5893L13.15 94.5921Z" fill="#778DC7"/>
<path d="M14.1081 91.1829C14.6751 90.9586 15.2561 90.7512 15.8287 90.5269L15.5382 89.7363L15.2533 89.54L12.5327 90.8998C12.4629 91.2138 12.4378 91.5362 12.4462 91.8614C12.9992 91.6343 13.5523 91.4044 14.1081 91.1829Z" fill="#4464AD"/>
<path d="M13.3456 95.0182C13.6556 95.6434 14.0774 96.2911 14.6304 96.7228L17.742 95.7387L16.9208 93.5015C15.7365 94.023 14.5522 94.5528 13.3456 95.021V95.0182Z" fill="#4464AD"/>
<path d="M17.7364 92.1362C18.4235 93.8463 18.4263 95.4612 17.742 95.7359C17.0577 96.0135 15.946 94.85 15.2561 93.1398C14.569 91.4269 14.5662 89.8148 15.2505 89.54C15.9348 89.2625 17.0465 90.426 17.7364 92.1362Z" fill="#111729"/>
<path d="M15.4488 89.8456C15.3427 89.8877 15.2589 89.969 15.1918 90.0867C15.7616 90.255 16.5018 91.1829 17.0018 92.4333C17.5046 93.6837 17.6135 94.8668 17.3202 95.3855C17.4459 95.4219 17.566 95.4247 17.6722 95.3799C18.2504 95.1444 18.2252 93.7174 17.6107 92.1866C16.9962 90.6587 16.027 89.6101 15.4488 89.8456Z" fill="#96A5A8"/>
<path d="M17.0046 92.4333C16.5018 91.1829 15.7645 90.255 15.1946 90.0867C14.9014 90.6054 15.0103 91.7885 15.5131 93.0389C16.0158 94.2893 16.756 95.2173 17.323 95.3855C17.6163 94.8668 17.5074 93.6837 17.0046 92.4333Z" fill="#212851"/>
<path d="M16.2421 91.3624C16.4264 91.7212 16.418 92.0913 16.2253 92.1922C16.0326 92.2904 15.7281 92.0801 15.5438 91.7212C15.3622 91.3624 15.3678 90.9923 15.5605 90.8914C15.7533 90.7932 16.0577 91.0035 16.2421 91.3624Z" fill="white"/>
<path d="M16.8342 92.8174C16.9097 92.9688 16.9069 93.123 16.8259 93.1623C16.7449 93.2043 16.6192 93.1174 16.541 92.966C16.4655 92.8174 16.4683 92.6632 16.5493 92.6212C16.6303 92.5791 16.756 92.6688 16.8342 92.8174Z" fill="white"/>
<path d="M40.0567 98.8283C39.1378 95.9995 38.5205 92.4726 39.3054 89.4335L28.2276 94.037C28.2192 94.0538 28.2081 94.0706 28.2025 94.0846C27.7444 95.0715 27.4707 96.1088 27.4148 97.1994C27.3254 98.932 27.4986 100.665 27.9818 102.33C28.6913 104.772 29.8393 107.225 31.6046 109.081L44.7102 105.921C42.4226 104.267 40.9003 101.41 40.0595 98.8227L40.0567 98.8283Z" fill="#111729"/>
<path d="M27.3897 98.1778C27.2612 98.6881 27.7081 100.283 27.6801 100.816C27.6662 101.082 27.6718 100.979 27.6718 101.245C30.5571 100.062 38.5372 97.4573 39.5484 97.0424C39.5372 96.6527 38.9618 93.8828 38.9813 93.4987" fill="#9FB6E0"/>
<path d="M40.5064 100.053C39.4925 100.356 31.5403 103.064 28.5516 104.035C29.2611 105.885 30.2471 107.662 31.6045 109.087L44.7101 105.927C42.7801 104.531 41.3974 102.277 40.5064 100.053Z" fill="#111729"/>
</g>
<defs>
<clipPath id="clip0_2_1186">
<rect width="132" height="160" fill="white" transform="translate(0.533264 55)"/>
</clipPath>
</defs>
</svg>
