
<svg width="160" height="150" viewBox="0 0 160 150" fill="none" xmlns="http://www.w3.org/2000/svg">
  <g clip-path="url(#clip0_25_969)">
    <path d="M74.8165 146.429C74.8165 140.055 12.4446 143.596 12.4446 146.429C12.4446 149.262 74.8165 152.803 74.8165 146.429Z" fill="#01112A"/>
    <path d="M144.94 5.26745L144.648 5.11199C145.259 4.54751 145.796 4.05548 149.97 2.12056L150.176 2.02548L149.804 1.2331L149.598 1.32818C146.017 2.98841 145.014 3.62986 144.352 4.19735C144.469 2.78616 144.506 1.38553 144.456 0.226395L144.447 0L143.568 0.0377324L143.577 0.264127C143.63 1.4942 143.583 2.98388 143.446 4.47808C142.496 3.98303 141.085 3.26763 139.36 2.50694L139.152 2.41488L138.796 3.2148L139.004 3.30687C140.71 4.0585 142.117 4.7724 143.068 5.26896C142.548 5.6327 141.86 6.04624 140.924 6.56091C140.796 6.63034 140.409 6.84315 140.238 6.7541L140.036 6.64845L139.626 7.42121L139.826 7.52686C139.983 7.60837 140.156 7.65063 140.341 7.65063C140.758 7.65063 141.142 7.43933 141.347 7.32613C142.124 6.90051 142.748 6.53224 143.246 6.20623C143.032 7.74118 142.637 9.85118 141.944 11.6397L141.862 11.851L142.681 12.1664L142.763 11.9551C143.546 9.93872 143.962 7.55705 144.178 5.85758L144.524 6.04172C146.262 6.96842 147.761 7.76835 149.628 8.45961L149.842 8.53809L150.149 7.71854L149.935 7.64006C148.124 6.96993 146.647 6.18208 144.937 5.27046L144.94 5.26745Z" fill="#FF7885"/>
    <path d="M132.969 130.785C132.274 130.396 131.548 130.022 130.811 129.67C131.541 129.139 132.195 128.65 132.665 128.284L132.805 128.176L132.363 127.613L132.224 127.721C131.78 128.066 131.167 128.524 130.484 129.022C130.492 128.493 130.53 127.718 130.68 126.428L130.7 126.253L129.986 126.171L129.967 126.346C129.801 127.776 129.768 128.618 129.765 129.193C128.411 128.6 127.016 128.085 125.615 127.661L125.447 127.61L125.237 128.293L125.406 128.345C126.752 128.752 128.094 129.244 129.394 129.81C128.699 130.307 128.071 130.743 127.611 131.052L127.464 131.151L127.864 131.742L128.01 131.644C128.475 131.333 129.098 130.898 129.783 130.409C129.798 131.202 129.783 132.059 129.59 133.715L129.57 133.89L130.284 133.971L130.304 133.796C130.519 131.941 130.516 131.049 130.499 130.313C131.222 130.657 131.934 131.024 132.615 131.406L132.768 131.492L133.121 130.87L132.967 130.784L132.969 130.785Z" fill="#FF7885"/>
    <path d="M144.579 111.064L145.517 112.954L147.614 113.257L146.096 114.729L146.455 116.806L144.579 115.825L142.703 116.806L143.061 114.729L141.543 113.257L143.641 112.954L144.579 111.064Z" fill="#FF3450"/>
    <path d="M149.19 37.9604L68.1746 118.521C68.5085 118.688 68.8424 118.853 69.1809 119.014L149.686 38.9611C149.524 38.6261 149.358 38.2925 149.19 37.9604Z" fill="#B02C30"/>
    <path d="M151.333 42.6812L72.9224 120.651C73.2806 120.795 73.6418 120.934 74.0046 121.07L151.754 43.7558C151.617 43.3951 151.476 43.0374 151.333 42.6797V42.6812Z" fill="#B02C30"/>
    <path d="M143.949 29.4692L59.6353 113.309C59.9236 113.52 60.2151 113.729 60.508 113.936L144.579 30.3371C144.371 30.0458 144.161 29.756 143.949 29.4692Z" fill="#B02C30"/>
    <path d="M146.72 33.564L63.7532 116.065C64.0643 116.255 64.3755 116.442 64.6897 116.628L147.287 34.4967C147.101 34.1843 146.912 33.8734 146.72 33.5655V33.564Z" fill="#B02C30"/>
    <path d="M137.55 22.1294L52.2542 106.946C52.5016 107.198 52.752 107.445 53.0055 107.693L138.301 22.8765C138.052 22.626 137.802 22.3769 137.55 22.1294Z" fill="#B02C30"/>
    <path d="M140.889 25.6612L55.8042 110.266C56.0729 110.497 56.343 110.727 56.6162 110.953L141.579 26.4671C141.352 26.197 141.121 25.9268 140.889 25.6597V25.6612Z" fill="#B02C30"/>
    <path d="M130.036 15.899L45.9885 99.4748C46.1949 99.7661 46.4044 100.056 46.6169 100.344L130.911 16.5223C130.621 16.311 130.329 16.1042 130.036 15.8975V15.899Z" fill="#B02C30"/>
    <path d="M133.933 18.8755L48.9817 103.349C49.2094 103.621 49.4386 103.89 49.6708 104.157L134.746 19.5607C134.478 19.3298 134.206 19.1019 133.933 18.8755Z" fill="#B02C30"/>
    <path d="M121.353 10.8291L40.8901 90.84C41.0525 91.175 41.218 91.5101 41.3849 91.8421L122.361 11.3211C122.027 11.1536 121.691 10.9891 121.353 10.8291Z" fill="#B02C30"/>
    <path d="M125.849 13.2109L43.2852 95.3107C43.4703 95.6231 43.6585 95.934 43.8498 96.2434L126.787 13.7724C126.476 13.5822 126.163 13.3951 125.849 13.2109Z" fill="#B02C30"/>
    <path d="M111.322 7.10258L37.1411 80.8665C37.2489 81.2559 37.3597 81.6438 37.475 82.0286L112.49 7.43312C112.102 7.31841 111.712 7.20823 111.322 7.10107V7.10258Z" fill="#B02C30"/>
    <path d="M116.523 8.78125L38.8289 86.0392C38.9655 86.3999 39.1051 86.7591 39.2478 87.1168L117.607 9.19782C117.247 9.05594 116.886 8.91709 116.523 8.78125Z" fill="#B02C30"/>
    <path d="M99.5434 5.11182L35.1392 69.1528C35.171 69.6147 35.209 70.0765 35.2515 70.5353L100.934 5.2235C100.472 5.18124 100.008 5.14351 99.5434 5.11182Z" fill="#B02C30"/>
    <path d="M105.691 5.8501L35.8828 75.2657C35.9572 75.6883 36.0346 76.1079 36.1166 76.5275L106.959 6.08404C106.537 6.00254 106.116 5.92405 105.691 5.85161V5.8501Z" fill="#B02C30"/>
    <path d="M85.039 5.83191L35.863 54.7316C35.7613 55.3187 35.6687 55.9104 35.5837 56.5035L86.8209 5.5542C86.2244 5.63721 85.6309 5.73079 85.039 5.83191Z" fill="#B02C30"/>
    <path d="M92.7465 5.01842L35.0465 62.3944C35.0253 62.906 35.0101 63.4192 35.001 63.9338L94.2947 4.97314C93.7771 4.9822 93.2611 4.99578 92.7465 5.01842Z" fill="#B02C30"/>
    <path d="M62.3141 14.7261L44.8076 32.1344C44.0016 33.3599 43.2381 34.6156 42.5217 35.9016L66.1026 12.4531C64.8094 13.1655 63.5466 13.9247 62.3141 14.7261Z" fill="#B02C30"/>
    <path d="M75.794 8.17457L38.2203 45.5372C37.9699 46.2632 37.7346 46.9967 37.5115 47.7363L78.004 7.46973C77.2602 7.69008 76.5241 7.92553 75.7925 8.17457H75.794Z" fill="#B02C30"/>
    <path d="M146.036 97.4026C146.815 96.2012 147.552 94.9696 148.246 93.7124L124.241 117.582C125.507 116.892 126.744 116.16 127.953 115.384L146.036 97.4026Z" fill="#B02C30"/>
    <path d="M155.052 73.2402L103.654 124.35C104.249 124.268 104.841 124.178 105.429 124.078L154.778 75.0061C154.879 74.4205 154.97 73.8319 155.052 73.2402Z" fill="#B02C30"/>
    <path d="M153.157 81.9746L112.439 122.465C113.178 122.247 113.911 122.016 114.637 121.773L152.462 84.1601C152.708 83.4371 152.94 82.7081 153.157 81.9746Z" fill="#B02C30"/>
    <path d="M155.354 59.2368L89.5698 124.651C90.0312 124.695 90.4927 124.733 90.9571 124.766L155.468 60.6178C155.434 60.156 155.396 59.6971 155.352 59.2383L155.354 59.2368Z" fill="#B02C30"/>
    <path d="M155.618 65.8252L96.198 124.911C96.7141 124.904 97.2286 124.89 97.7416 124.87L155.577 67.3601C155.596 66.85 155.612 66.3384 155.618 65.8252Z" fill="#B02C30"/>
    <path d="M153.113 47.7617L78.0312 122.422C78.4183 122.537 78.8084 122.647 79.1985 122.756L153.447 48.9239C153.34 48.536 153.229 48.1481 153.112 47.7632L153.113 47.7617Z" fill="#B02C30"/>
    <path d="M154.479 53.2554L83.5562 123.78C83.9766 123.863 84.3985 123.942 84.822 124.016L154.715 54.5156C154.64 54.0945 154.561 53.675 154.478 53.2569L154.479 53.2554Z" fill="#B02C30"/>
    <path d="M144.579 54.727C152.907 54.727 159.658 48.0136 159.658 39.7322C159.658 31.4507 152.907 24.7373 144.579 24.7373C136.25 24.7373 129.499 31.4507 129.499 39.7322C129.499 48.0136 136.25 54.727 144.579 54.727Z" fill="#FF3450"/>
    <path d="M121.764 110.168C123.525 110.168 124.952 108.749 124.952 106.999C124.952 105.248 123.525 103.829 121.764 103.829C120.004 103.829 118.577 105.248 118.577 106.999C118.577 108.749 120.004 110.168 121.764 110.168Z" fill="#FF7885"/>
    <path d="M121.764 110.545C123.734 110.545 125.331 108.957 125.331 106.999C125.331 105.04 123.734 103.452 121.764 103.452C119.794 103.452 118.198 105.04 118.198 106.999C118.198 108.957 119.794 110.545 121.764 110.545Z" fill="#FF7885"/>
    <path d="M43.4735 101.672L37.3538 104.536L39.0773 108.178L45.1971 105.314L43.4735 101.672Z" fill="#465282"/>
    <path d="M13.9609 107.716L3.41961 111.53C3.41961 111.53 2.1249 111.153 1.03207 108.84C-0.0622795 106.53 0.470476 105.297 0.470476 105.297L10.1451 99.6533L13.9594 107.714L13.9609 107.716Z" fill="#253DAC"/>
    <path d="M32.8729 102.601L14.9747 109.857C14.9747 109.857 13.0182 110.472 10.2148 104.545C7.40988 98.6176 9.13261 97.5113 9.13261 97.5113L26.1656 88.4253L32.8729 102.601Z" fill="#253DAC"/>
    <path d="M58.8717 95.4514L34.3831 105.792C34.3831 105.792 32.1246 106.848 27.26 96.5698C22.3953 86.2899 24.6554 85.2334 24.6554 85.2334L48.2788 73.064L58.8717 95.4514Z" fill="#253DAC"/>
    <path d="M73.9392 92.985L60.6461 99.2048C60.6461 99.2048 57.2993 100.335 50.6831 86.3516C44.0669 72.3695 46.5015 69.3101 46.5015 69.3101L59.7946 63.0903L73.9392 92.985Z" fill="#4766C4"/>
    <path d="M73.9402 92.9817C75.7727 92.1242 74.0915 84.7371 70.185 76.482C66.2785 68.227 61.6262 62.2301 59.7936 63.0875C57.9611 63.945 59.6424 71.3322 63.5489 79.5872C67.4553 87.8422 72.1077 93.8392 73.9402 92.9817Z" fill="#A2B8F2"/>
    <path d="M73.1908 91.3975C74.4779 90.7952 72.6902 84.3242 69.1977 76.944C65.7053 69.5639 61.8307 64.0694 60.5435 64.6717C59.2563 65.274 61.0441 71.745 64.5365 79.1251C68.029 86.5053 71.9036 91.9998 73.1908 91.3975Z" fill="#01112A"/>
    <path d="M10.2133 104.545C9.38608 102.797 8.9535 101.471 8.75315 100.465L7.13818 101.407C8.02915 107.405 12.4445 108.264 12.4445 108.264C11.7933 107.47 11.0405 106.291 10.2133 104.545Z" fill="#01112A"/>
    <path d="M24.4838 89.3223L22.0735 90.6082C24.0239 100.366 31.1061 103.318 31.1061 103.318C30.077 101.943 28.799 99.8255 27.2584 96.5714C25.7178 93.3174 24.8936 90.987 24.4838 89.3223Z" fill="#01112A"/>
    <path d="M46.3116 74.0767L43.0999 75.7309C46.3723 92.2365 56.613 96.4052 56.613 96.4052C55.074 94.5382 53.0962 91.4502 50.6844 86.3518C47.9569 80.5863 46.7669 76.6787 46.3116 74.0767Z" fill="#01112A"/>
    <path d="M46.3951 115.751H46.8125V114.133H38.9517V115.751H39.3691L26.5906 146.429H28.3512L40.9765 116.118L40.0871 115.751H42.0693V146.429H43.6949V115.751H45.6772L44.7878 116.118L57.413 146.429H59.1737L46.3951 115.751Z" fill="#465282"/>
    <path d="M44.1261 111.199H41.649V108.52L40.198 105.12L42.4793 104.158L44.1261 108.02V111.199Z" fill="#465282"/>
    <path d="M38.9609 114.224C38.9609 112.067 40.7186 110.319 42.8875 110.319C45.0565 110.319 46.8142 112.067 46.8142 114.224H38.9625H38.9609Z" fill="#465282"/>
  </g>
  <defs>
    <clipPath id="clip0_25_969">
      <rect width="159.317" height="150" fill="white" transform="translate(0.341553)"/>
    </clipPath>
  </defs>
</svg>
