<svg width="10" height="15" viewBox="0 0 10 15" fill="none" xmlns="http://www.w3.org/2000/svg">
<path d="M0 14C0 14.2761 0.223858 14.5 0.5 14.5H9.5C9.77614 14.5 10 14.2761 10 14C10 13.7239 9.77614 13.5 9.5 13.5H0.5C0.223858 13.5 0 13.7239 0 14Z"/>
<path d="M0 11C0 11.2761 0.223858 11.5 0.5 11.5H9.5C9.77614 11.5 10 11.2761 10 11C10 10.7239 9.77614 10.5 9.5 10.5H6V4.5H7.50001C7.69402 4.5 7.87051 4.38777 7.9528 4.21208C8.03509 4.03639 8.00832 3.82895 7.88412 3.67991L5.38412 0.679908C5.28912 0.565911 5.1484 0.5 5.00001 0.5C4.85162 0.5 4.71089 0.565911 4.6159 0.679908L2.1159 3.67991C1.99169 3.82895 1.96492 4.03639 2.04721 4.21208C2.1295 4.38777 2.306 4.5 2.50001 4.5H4V10.5H0.5C0.223858 10.5 0 10.7239 0 11Z"/>
</svg>
