<svg width="14" height="14" viewBox="0 0 14 14" fill="none" xmlns="http://www.w3.org/2000/svg">
<path fill-rule="evenodd" clip-rule="evenodd" d="M7.0001 0.599976C3.46547 0.599976 0.600097 3.46535 0.600098 6.99998C0.600098 10.5346 3.46548 13.4 7.0001 13.4C10.5347 13.4 13.4001 10.5346 13.4001 6.99997C13.4001 3.46535 10.5347 0.599975 7.0001 0.599976ZM7.00029 9.403C6.66892 9.403 6.40029 9.67163 6.40029 10.003C6.40029 10.3344 6.66892 10.603 7.00029 10.603C7.33166 10.603 7.60029 10.3344 7.60029 10.003C7.60029 9.67163 7.33166 9.403 7.00029 9.403ZM6.50029 7.79988C6.50029 8.07602 6.72415 8.29988 7.00029 8.29988C7.27643 8.29988 7.50029 8.07602 7.50029 7.79988L7.50029 3.79988C7.50029 3.52373 7.27643 3.29988 7.00029 3.29988C6.72415 3.29988 6.50029 3.52373 6.50029 3.79988L6.50029 7.79988Z" fill="#A06C18"/>
</svg>
