<svg viewBox="0 0 14 12" fill="none" xmlns="http://www.w3.org/2000/svg">
<path d="M3.89599 11.7041C3.85232 11.7046 3.809 11.6965 3.76855 11.68C3.7281 11.6635 3.69134 11.6392 3.66046 11.6083C3.62958 11.5774 3.6052 11.5407 3.58874 11.5002C3.57229 11.4598 3.56408 11.4165 3.56462 11.3728V9.71435H4.18563V11.041H12.6747V3.78493H10.1903C10.1466 3.78548 10.1032 3.77724 10.0627 3.76076C10.0222 3.74427 9.98548 3.71987 9.9546 3.68895C9.92371 3.65802 9.89932 3.62128 9.88289 3.58078C9.86645 3.54028 9.85831 3.49684 9.85892 3.45314V0.882839H4.18563V2.25084H3.56462V0.5928C3.56091 0.550054 3.56732 0.507068 3.58333 0.467257C3.59933 0.427446 3.62449 0.391968 3.65676 0.363685C3.68903 0.335403 3.72748 0.315109 3.76905 0.304459C3.81061 0.293809 3.8541 0.29308 3.89599 0.302362H10.3146C10.3555 0.302362 10.3555 0.302302 10.3964 0.343211L13.2122 3.2478C13.2552 3.29295 13.2837 3.3499 13.294 3.41139V3.45234L13.3349 11.372C13.3355 11.4157 13.3273 11.459 13.3108 11.4994C13.2944 11.5399 13.27 11.5766 13.2391 11.6075C13.2082 11.6384 13.1715 11.6627 13.131 11.6792C13.0906 11.6957 13.0472 11.7038 13.0036 11.7033L3.89599 11.7041ZM10.4803 3.1623H12.2607L10.4803 1.33817V3.1623ZM5.13759 8.09716C5.24827 8.09167 5.35477 8.05317 5.44336 7.9866C5.53195 7.92003 5.59856 7.82841 5.63462 7.72363V6.43833L5.96559 6.06519L5.67595 5.69126V4.40635C5.67595 4.15763 5.55323 4.03282 5.22064 4.03282V3.41099C5.35776 3.40096 5.49548 3.41922 5.62526 3.46463C5.75504 3.51003 5.87409 3.58164 5.97505 3.67497C6.07601 3.76829 6.15671 3.88134 6.21215 4.00715C6.2676 4.13297 6.29659 4.26887 6.29735 4.40635V5.48431L6.75268 6.06479L6.29735 6.64487V7.72283C6.25548 8.00014 6.11539 8.25325 5.90259 8.43594C5.68979 8.61863 5.41845 8.71878 5.13799 8.71819L5.13759 8.09716ZM1.07899 7.72363V6.64567L0.665009 6.06559L1.07899 5.48511V4.40715C1.07899 3.78493 1.53473 3.41189 2.23877 3.41189V4.03362C2.03137 4.03362 1.74172 4.11547 1.74172 4.40715V5.69215L1.45208 6.06599L1.70039 6.43913V7.72453C1.70039 7.84725 1.99045 8.09796 2.19745 8.09796V8.71979C1.92356 8.71257 1.66107 8.60861 1.4565 8.42635C1.25192 8.24409 1.11848 7.99527 1.07982 7.72403L1.07899 7.72363ZM3.52208 7.97242C3.48117 7.97242 3.39936 7.89062 3.39936 7.89062V7.84967C3.49992 7.77971 3.58242 7.68682 3.64003 7.57871C3.69765 7.47059 3.72873 7.35034 3.73072 7.22784H3.68982C3.5798 7.22784 3.47428 7.18419 3.39648 7.10639C3.31869 7.0286 3.27499 6.92308 3.27499 6.81306C3.27499 6.70304 3.31869 6.59752 3.39648 6.51973C3.47428 6.44193 3.5798 6.39818 3.68982 6.39818C3.74742 6.39958 3.80411 6.41267 3.85651 6.43663C3.90891 6.46058 3.9559 6.49496 3.99464 6.5376C4.03338 6.58025 4.06307 6.63027 4.08191 6.68472C4.10074 6.73917 4.10834 6.79684 4.10423 6.85431C4.11698 7.0713 4.07423 7.28802 3.98003 7.48392C3.88584 7.67983 3.7433 7.84847 3.56585 7.97402L3.52208 7.97242ZM3.27376 4.90424C3.27384 4.82237 3.29821 4.74235 3.34375 4.67432C3.38929 4.60629 3.45396 4.55328 3.52962 4.52201C3.60527 4.49074 3.68851 4.48262 3.7688 4.49864C3.84908 4.51466 3.9228 4.55408 3.98066 4.612C4.03852 4.66991 4.0779 4.74374 4.09384 4.82404C4.10978 4.90433 4.10157 4.98751 4.07022 5.06314C4.03887 5.13876 3.98581 5.20343 3.91774 5.24891C3.84966 5.29438 3.76964 5.31862 3.68777 5.31862C3.57821 5.31808 3.4733 5.27422 3.39591 5.19667C3.31852 5.11912 3.27491 5.01419 3.27459 4.90463L3.27376 4.90424Z" />
</svg>
