<svg viewBox="0 0 16 14" fill="none" xmlns="http://www.w3.org/2000/svg">
<path d="M6.28182 12.3431L5.70909 11.3907L8 12.4678L10.2909 11.3907L9.71818 12.3431C9.71818 12.3431 8.12273 13.1302 8 13.1302C7.87727 13.1302 6.28182 12.3431 6.28182 12.3431ZM4.52273 9.7748L3.95001 8.82208L8 10.7276L12.05 8.82208L11.4773 9.7748C11.4773 9.7748 8.08182 11.3903 8 11.3903C7.91818 11.3903 4.52273 9.7752 4.52273 9.7752V9.7748ZM2.68182 7.16484L2.1091 6.21243L8 8.98777L13.8909 6.21243L13.3182 7.16484C13.3182 7.16484 8.16364 9.65045 8 9.65045C7.83637 9.65045 2.68182 7.16524 2.68182 7.16524V7.16484ZM0.840912 4.26515L8 0.869778L15.1591 4.26515L8 7.66063L0.840912 4.26515ZM2.27273 4.26515L8 6.9578L13.6864 4.26515L8 1.5725L2.27273 4.26515Z"/>
</svg>
