<svg viewBox="0 0 14 12" fill="none" xmlns="http://www.w3.org/2000/svg">
  <path d="M10.9917 10.962C9.54717 10.3545 8.72162 9.99042 8.72162 9.99042C7.86453 10.3808 6.93975 10.6008 5.99871 10.6384C1.66603 10.8814 0.386807 8.53238 0.79958 8.08729C0.840489 8.57329 2.40894 10.274 5.99871 10.112C6.92472 10.0603 7.83363 9.84062 8.68112 9.46388C8.71166 9.44435 8.74715 9.43402 8.78339 9.43402C8.81964 9.43402 8.85513 9.44435 8.88567 9.46388C8.88567 9.46388 10.0409 9.94952 11.2375 10.476C12.6403 11.0835 13.301 10.3124 13.2592 9.99042C13.7342 10.3946 13.2376 11.2271 12.142 11.2271C11.7444 11.2186 11.3529 11.1284 10.9917 10.962ZM10.9917 9.26183C9.54717 8.65392 8.72162 8.28984 8.72162 8.28984C7.86454 8.68022 6.93976 8.9003 5.99871 8.93783C1.66603 9.18042 0.386807 6.8318 0.79958 6.38671C0.840489 6.8318 2.40894 8.57334 5.99871 8.37084C6.92467 8.31909 7.83354 8.09966 8.68112 7.72325C8.71166 7.70372 8.74715 7.69338 8.78339 7.69338C8.81964 7.69338 8.85513 7.70372 8.88567 7.72325C8.88567 7.72325 10.0409 8.20879 11.2375 8.73529C12.6403 9.30188 13.301 8.5717 13.2592 8.28984C13.7342 8.69402 13.2376 9.5269 12.1416 9.5269C11.7442 9.51842 11.3527 9.4282 10.9917 9.26183ZM12.023 7.6827C11.7391 7.6915 11.4569 7.63558 11.1978 7.5191L8.76334 6.42606C6.76285 7.17561 4.55378 7.14633 2.5738 6.34416C1.41852 5.81807 0.716926 5.08907 0.552063 4.23898C0.388426 3.34757 0.797518 2.49795 1.78997 1.84995C2.84242 1.18862 4.05442 0.824862 5.29711 0.797365C6.56573 0.697252 7.83975 0.905494 9.01044 1.40441C10.1657 1.89041 10.8673 2.61945 11.0326 3.46954C11.1161 3.94328 11.0282 4.43127 10.7847 4.84613L12.8481 5.77757C13.0041 5.83734 13.1426 5.93539 13.2508 6.06271C13.3589 6.19004 13.4333 6.34254 13.4671 6.50616C13.5013 6.67924 13.4799 6.85872 13.4057 7.01882C13.3315 7.17892 13.2085 7.31138 13.0543 7.39715C12.7844 7.57518 12.4698 7.67349 12.1465 7.6807L12.023 7.6827ZM8.88729 5.86026L11.4454 6.99425C11.6554 7.07765 11.8796 7.11936 12.1056 7.117C12.3081 7.10611 12.5055 7.05015 12.6837 6.9533C12.7655 6.91239 12.8882 6.78972 12.8473 6.66986C12.8222 6.60469 12.7835 6.54568 12.7337 6.49677C12.6838 6.44787 12.6241 6.41016 12.5585 6.38631L10.1653 5.29327C10.09 5.2456 10.0325 5.17438 10.0017 5.09072C9.96074 5.0089 10.0017 4.92709 10.0426 4.84772C10.1802 4.68006 10.2808 4.48509 10.3376 4.27574C10.3944 4.06638 10.4063 3.84739 10.3723 3.63314C10.2496 2.98514 9.67071 2.3781 8.72162 1.9731C7.64259 1.51057 6.46764 1.31604 5.29711 1.40611C4.18932 1.44354 3.10963 1.76419 2.16104 2.33755C1.37722 2.86364 1.04707 3.47092 1.17062 4.15928C1.29335 4.80728 1.8722 5.41431 2.82129 5.81971C3.90045 6.28227 5.07557 6.47667 6.2462 6.38631C7.06783 6.34538 7.87684 6.16749 8.6398 5.85986C8.65606 5.84454 8.67546 5.83287 8.69665 5.82581C8.71785 5.81874 8.74032 5.81641 8.76252 5.81892C8.80466 5.82014 8.84597 5.86026 8.88729 5.86026ZM5.75162 5.37467C5.18576 5.37298 4.62546 5.26301 4.10095 5.05067C3.86533 4.97657 3.65166 4.84541 3.47895 4.66885C3.30623 4.49228 3.17981 4.27572 3.11093 4.03853C3.08277 3.80855 3.12731 3.57554 3.23832 3.37216C3.34933 3.16878 3.52122 3.00526 3.72988 2.90454C4.25392 2.58588 4.85005 2.40495 5.4628 2.3785C6.12556 2.3335 6.78965 2.44433 7.40189 2.70209C7.64992 2.77869 7.87277 2.92058 8.04704 3.11298C8.2213 3.30539 8.34056 3.54115 8.39231 3.79553C8.39537 4.01083 8.33928 4.22286 8.23013 4.40847C8.12099 4.59408 7.96299 4.74614 7.77335 4.84812C7.23429 5.16699 6.62484 5.34788 5.99911 5.37467H5.75162ZM4.06002 3.43109C3.89639 3.51291 3.68899 3.71458 3.73031 3.91708C3.78343 4.06392 3.87117 4.19572 3.98611 4.3014C4.10106 4.40709 4.23979 4.4835 4.39056 4.52413C4.91121 4.74586 5.47646 4.84299 6.04126 4.80767C6.55172 4.81565 7.05346 4.67493 7.48533 4.40268C7.57265 4.35095 7.6475 4.28056 7.70456 4.19663C7.76162 4.11271 7.79948 4.0173 7.81547 3.91708C7.75569 3.77423 7.66574 3.646 7.55178 3.54115C7.43781 3.4363 7.30255 3.35725 7.15522 3.30954C6.71467 3.11106 6.23506 3.01435 5.75202 3.02649H5.50657C4.99506 3.01788 4.4921 3.15847 4.0592 3.43109H4.06002Z" />
</svg>
