<svg viewBox="0 0 14 14" fill="none" xmlns="http://www.w3.org/2000/svg">
  <path fill-rule="evenodd" clip-rule="evenodd" d="M4.95455 0.965908C4.85197 0.965908 4.75617 1.01718 4.69926 1.10253L0.608354 7.2389C0.545588 7.33305 0.539736 7.4541 0.593129 7.55386C0.646521 7.65363 0.750489 7.71591 0.863642 7.71591H2.91649L1.79491 11.8284C1.75775 11.9646 1.8184 12.1086 1.94185 12.1773C2.0653 12.2459 2.21964 12.2214 2.31575 12.1179L7.63393 6.39059C7.71697 6.30117 7.73912 6.17104 7.69034 6.05918C7.64156 5.94732 7.53113 5.875 7.4091 5.875H5.56819L8.88182 1.45682C8.95155 1.36385 8.96277 1.23946 8.9108 1.13551C8.85882 1.03157 8.75258 0.965908 8.63637 0.965908H4.95455ZM1.43694 7.10227L5.11876 1.57954H8.02273L4.7091 5.99773C4.63937 6.0907 4.62815 6.21509 4.68012 6.31903C4.7321 6.42298 4.83834 6.48864 4.95455 6.48864H6.7055L2.7153 10.7858L3.61419 7.48982C3.63936 7.39756 3.62006 7.29885 3.56202 7.22285C3.50397 7.14686 3.41381 7.10227 3.31819 7.10227H1.43694Z"/>
  <path d="M9.97035 2.42057L10.3375 1.49168L9.76679 1.26613L9.39967 2.19502C9.28641 2.4816 9.36923 2.8085 9.60529 3.00658L10.7205 3.94231C10.9565 4.14039 11.2928 4.16519 11.5554 4.00388L12.4064 3.48104L12.0852 2.95819L11.2342 3.48103C11.1967 3.50408 11.1486 3.50053 11.1149 3.47224L9.99973 2.53651C9.966 2.50821 9.95417 2.46151 9.97035 2.42057Z" />
  <path d="M13.1452 4.7942L12.2669 5.26979C12.2281 5.29075 12.2072 5.33413 12.2148 5.37748L12.4676 6.81111C12.4753 6.85446 12.5098 6.88806 12.5533 6.89451L13.5413 7.04103L13.4513 7.64802L12.4633 7.50151C12.1585 7.45631 11.9168 7.22113 11.8633 6.91766L11.6105 5.48404C11.557 5.18057 11.7037 4.87691 11.9747 4.73018L12.853 4.25459L13.1452 4.7942Z" />
  <path d="M13.1732 9.12883L12.1946 8.92859C12.1515 8.91976 12.1076 8.93952 12.0856 8.97765L11.3577 10.2384C11.3357 10.2765 11.3405 10.3244 11.3697 10.3573L12.0324 11.1047L11.5733 11.5118L10.9106 10.7645C10.7062 10.5339 10.6722 10.1984 10.8263 9.93154L11.5541 8.67083C11.7082 8.40396 12.0158 8.26563 12.3177 8.32741L13.2962 8.52765L13.1732 9.12883Z" />
  <path d="M10.4085 12.4673L9.78757 11.6849C9.7602 11.6504 9.71384 11.6373 9.67248 11.6524L8.30453 12.1503C8.26316 12.1653 8.23607 12.2052 8.23727 12.2492L8.26455 13.2476L7.65114 13.2643L7.62387 12.2659C7.61545 11.9579 7.80509 11.679 8.09465 11.5736L9.4626 11.0757C9.75217 10.9703 10.0767 11.0621 10.2682 11.3034L10.8891 12.0858L10.4085 12.4673Z" />
  <path d="M6.17188 12.2492L6.14461 13.2476L6.75801 13.2644L6.78529 12.266C6.79371 11.9579 6.60407 11.6791 6.31451 11.5737L4.94656 11.0758C4.65699 10.9704 4.33247 11.0621 4.14092 11.3035L3.52004 12.0859L4.00071 12.4673L4.62159 11.685C4.64895 11.6505 4.69531 11.6374 4.73668 11.6524L6.10463 12.1503C6.146 12.1654 6.17309 12.2052 6.17188 12.2492Z" />
</svg>
