<svg viewBox="0 0 13 12" fill="none" xmlns="http://www.w3.org/2000/svg">
<path d="M11.4247 4.02411V2.65122L10.0117 2.23514V1.15348L8.4326 0.279669L6.52092 1.02874L4.69229 0.279669L2.98842 1.15348V2.23514L1.57542 2.65122V4.02411L0.370239 6.02082L1.57542 7.97629V9.34918L2.98842 9.76526V10.8465L4.56751 11.7203L6.47919 10.9717L8.30783 11.7203L10.0117 10.8465V9.76526L11.4247 9.34918V7.97629L12.6299 6.02082L11.4247 4.02411ZM6.18833 10.3891L4.60924 11.013L3.61187 10.4308V9.26579L2.19888 8.8497V8.01804H3.23797L4.1936 8.80846L4.60924 8.30888L3.86101 7.68465L4.60924 7.06073L4.19442 6.56165L3.23879 7.35207H1.95056L1.11929 5.93743L1.90883 4.60618H3.23879L4.19442 5.3966L4.61006 4.89752L3.82051 4.3567L4.56874 3.73277L4.15351 3.27664L3.23919 4.02531H2.2001V3.15189L3.6131 2.73581V1.57116L4.69351 0.988587L6.18956 1.57116L6.18833 10.3891ZM11.0921 7.35207H9.76215L8.8061 6.56165L8.39047 7.06113L9.13869 7.68505L8.39047 8.30928L8.8061 8.80886L9.76215 8.01844H10.8012V8.89185L9.38824 9.30793V10.4726L8.30783 11.0552L6.81178 10.4308V1.61081L8.39087 0.986989L9.38824 1.52822V2.69287L10.8012 3.10895V3.94101H9.76215L8.8061 3.19244L8.39047 3.69152L9.13869 4.31535L8.39047 4.93927L8.8061 5.43875L9.76215 4.64833H11.0504L11.8816 6.06257L11.0921 7.35207Z" />
</svg>
