<svg width="20" height="17" viewBox="0 0 20 17" fill="none" xmlns="http://www.w3.org/2000/svg">
<path d="M2.95918 12.7755V13.0976C2.95918 13.911 3.87855 14.3841 4.54042 13.9114L7.26984 11.9618C7.43944 11.8406 7.6416 11.7755 7.85002 11.7755H14.3878C15.4327 11.7755 15.6939 10.6871 15.6939 10.1429V2.30612C15.6939 1.26122 14.6054 1 14.0612 1H1.97959C1.19592 1 1 1.87075 1 2.30612V10.1429C1 10.9256 1.46913 11.3566 1.98566 11.5762C2.49389 11.7924 2.95918 12.2232 2.95918 12.7755Z" stroke="#898A90"/>
<circle cx="5.24571" cy="6.55088" r="0.979592" fill="#898A90"/>
<circle cx="8.50987" cy="6.55088" r="0.979592" fill="#898A90"/>
<circle cx="11.7755" cy="6.55088" r="0.979592" fill="#898A90"/>
<path d="M17.6525 2.95898C18.1967 2.95898 19.2851 3.28552 19.2851 4.59164C19.2851 5.89776 19.2851 10.1427 19.2851 12.1018C19.2851 12.5084 19.0665 13.2187 18.3023 13.552C17.7961 13.7728 17.326 14.1822 17.326 14.7345V15.0566C17.326 15.87 16.4066 16.3431 15.7447 15.8703L13.0153 13.9208C12.8457 13.7996 12.6425 13.7345 12.4341 13.7345H8.18311" stroke="#898A90" stroke-linecap="round"/>
</svg>
