<svg width="51" height="45" viewBox="0 0 51 45" fill="none" xmlns="http://www.w3.org/2000/svg">
<path d="M5.85775 31.4649V37.4505C5.85775 38.2639 6.77712 38.737 7.43899 38.2642L18.0973 30.6512C18.2669 30.5301 18.4664 30.4649 18.6748 30.4649H37.1084C39.9656 30.4649 40.6799 27.4887 40.6799 26.0005V4.57151C40.6799 1.7143 37.7037 1 36.2156 1H3.17912C1.03621 1 0.500488 3.381 0.500488 4.57151V26.0005C0.500488 28.9883 2.99987 30.1015 4.86235 30.3856C5.40832 30.4688 5.85775 30.9126 5.85775 31.4649Z" fill="#292F47" stroke="#DFE5EF"/>
<circle cx="12.1103" cy="16.1786" r="2.67863" fill="#DFE5EF"/>
<circle cx="21.0356" cy="16.1786" r="2.67863" fill="#DFE5EF"/>
<circle cx="29.9653" cy="16.1786" r="2.67863" fill="#DFE5EF"/>
<path d="M46.0355 6.35693C47.5236 6.35693 50.4999 7.24981 50.4999 10.8213C50.4999 14.3928 50.4999 26.0002 50.4999 31.3575C50.4999 32.7224 49.5985 35.3393 46.1422 35.7632C45.594 35.8304 45.1426 36.2696 45.1426 36.8219V42.8074C45.1426 43.6208 44.2233 44.0939 43.5614 43.6212L32.9031 36.0081C32.7335 35.887 32.5303 35.8219 32.3219 35.8219H20.1421" stroke="#DFE5EF" stroke-linecap="round"/>
</svg>
