<svg width="133" height="150" viewBox="0 0 133 150" fill="none" xmlns="http://www.w3.org/2000/svg">
<g clip-path="url(#clip0_126_15893)">
<path d="M37.8151 83.6485L19.0389 81.686L11.1179 63.6262L4.94678 65.2409C4.94678 65.2409 9.50613 84.322 14.6042 87.2792C19.7023 90.2364 37.1427 90.7716 37.1427 90.7716L37.8151 83.6485Z" fill="#8C9CD0"/>
<path d="M47.7893 92.8123C50.8409 89.3729 50.5313 84.1066 47.0979 81.0497C43.6645 77.9928 38.4074 78.3029 35.3559 81.7423C32.3043 85.1818 32.6139 90.4481 36.0473 93.505C39.4807 96.5619 44.7378 96.2517 47.7893 92.8123Z" fill="#465282"/>
<path d="M41.5728 95.62C39.3466 95.62 37.2583 94.7502 35.6822 93.1757C34.1104 91.6013 33.2422 89.5049 33.2422 87.2748C33.2422 85.0446 34.1104 82.9527 35.6822 81.3738C37.2539 79.7993 39.3466 78.9295 41.5728 78.9295C43.799 78.9295 45.8873 79.7993 47.4634 81.3738C49.0352 82.9483 49.9034 85.0446 49.9034 87.2748C49.9034 89.5049 49.0352 91.5968 47.4634 93.1757C45.8917 94.7502 43.799 95.62 41.5728 95.62ZM41.5728 78.9563C39.3555 78.9563 37.2672 79.8216 35.7 81.3916C34.1327 82.9616 33.2689 85.0535 33.2689 87.2748C33.2689 89.496 34.1327 91.5879 35.7 93.1579C37.2672 94.7279 39.3555 95.5932 41.5728 95.5932C43.7901 95.5932 45.8784 94.7279 47.4456 93.1579C49.0129 91.5879 49.8767 89.496 49.8767 87.2748C49.8767 85.0535 49.0129 82.9616 47.4456 81.3916C45.8784 79.8216 43.7901 78.9563 41.5728 78.9563Z" fill="#465282"/>
<path d="M17.3784 88.7053C20.7283 87.8996 22.792 84.5261 21.9878 81.1702C21.1835 77.8144 17.8159 75.7471 14.466 76.5528C11.116 77.3585 9.05236 80.732 9.85661 84.0878C10.6609 87.4436 14.0285 89.5109 17.3784 88.7053Z" fill="#465282"/>
<path d="M11.1892 65.0926C13.1802 63.0982 13.1802 59.8646 11.1892 57.8702C9.19829 55.8758 5.97035 55.8758 3.97941 57.8702C1.98848 59.8646 1.98848 63.0982 3.97941 65.0926C5.97035 67.0871 9.19828 67.0871 11.1892 65.0926Z" fill="#465282"/>
<path d="M15.5274 58.7165L11.3364 62.2619L9.82247 60.466L14.0135 56.9206C14.4727 56.5321 15.1629 56.5904 15.5507 57.0505L15.6542 57.1731C16.042 57.6332 15.9838 58.3246 15.5245 58.7131L15.5274 58.7165Z" fill="#465282"/>
<path d="M10.1963 52.2123V57.5468C10.1963 57.636 10.125 57.7029 10.0405 57.7029H8.01011C7.92106 57.7029 7.85428 57.6316 7.85428 57.5468V52.2123C7.85428 51.6102 8.34405 51.1195 8.94514 51.1195H9.10543C9.70651 51.1195 10.1963 51.6102 10.1963 52.2123Z" fill="#465282"/>
<path d="M6.41588 52.2318L7.57844 57.4377C7.59788 57.5247 7.54294 57.6056 7.46039 57.6241L5.47903 58.0681C5.39212 58.0876 5.31139 58.0326 5.29292 57.9499L4.13037 52.744C3.99914 52.1564 4.37018 51.5705 4.95676 51.439L5.11319 51.404C5.69978 51.2725 6.28466 51.6442 6.41588 52.2318Z" fill="#465282"/>
<path d="M2.34914 53.5331L5.01396 58.1568C5.05848 58.2341 5.03018 58.3277 4.95692 58.37L3.1986 59.387C3.12148 59.4316 3.02801 59.4032 2.98572 59.3299L0.3209 54.7062C0.020357 54.1847 0.199628 53.5145 0.720184 53.2134L0.858999 53.1331C1.37956 52.832 2.0486 53.0116 2.34914 53.5331Z" fill="#465282"/>
<path d="M119.32 130.417L124.934 128.025L108.736 89.8737L103.123 92.2652L119.32 130.417Z" fill="#8C9CD0"/>
<path d="M109.54 93.5235C112.509 90.0125 112.075 84.755 108.57 81.7806C105.065 78.8062 99.8171 79.2413 96.8479 82.7523C93.8787 86.2633 94.3129 91.5208 97.8178 94.4952C101.323 97.4696 106.571 97.0345 109.54 93.5235Z" fill="#465282"/>
<path d="M103.209 96.4942C102.385 96.4942 101.552 96.3693 100.742 96.1195C98.6181 95.4639 96.8728 94.0143 95.8353 92.0473C94.7979 90.0758 94.5842 87.8189 95.2387 85.6914C95.8932 83.5638 97.3403 81.8154 99.3038 80.7761C101.272 79.7369 103.525 79.5228 105.649 80.1784C107.772 80.8341 109.518 82.2837 110.555 84.2507C111.593 86.2221 111.806 88.479 111.152 90.6066C110.497 92.7342 109.05 94.4826 107.087 95.5219C105.871 96.1642 104.544 96.4942 103.204 96.4942H103.209ZM103.186 79.8216C101.851 79.8216 100.528 80.1472 99.3172 80.7895C97.3536 81.8287 95.9155 83.5683 95.2609 85.6958C94.6064 87.8189 94.8157 90.0714 95.8531 92.0384C96.8906 94.0054 98.627 95.446 100.751 96.1017C102.87 96.7574 105.119 96.5477 107.082 95.5085C109.046 94.4692 110.484 92.7297 111.139 90.6022C111.793 88.4791 111.579 86.2266 110.546 84.2596C109.509 82.2926 107.772 80.8519 105.649 80.1963C104.838 79.9465 104.015 79.8216 103.191 79.8216H103.186Z" fill="#465282"/>
<path d="M120.038 113.047C120.96 109.722 119.017 106.278 115.698 105.354C112.378 104.43 108.94 106.376 108.017 109.701C107.095 113.026 109.038 116.471 112.357 117.395C115.677 118.319 119.115 116.373 120.038 113.047Z" fill="#465282"/>
<path d="M128.267 129.202C127.377 126.525 124.487 125.08 121.82 125.977C119.148 126.869 117.706 129.764 118.601 132.435C119.491 135.112 122.381 136.557 125.048 135.66C127.719 134.768 129.162 131.873 128.267 129.202Z" fill="#465282"/>
<path d="M116.767 135.964L119.622 131.272L121.626 132.495L118.771 137.188C118.458 137.702 117.785 137.866 117.272 137.552L117.135 137.469C116.622 137.155 116.458 136.481 116.771 135.967L116.767 135.964Z" fill="#465282"/>
<path d="M123.876 140.442L122.19 135.382C122.162 135.297 122.208 135.211 122.289 135.184L124.214 134.54C124.299 134.512 124.385 134.558 124.412 134.639L126.098 139.699C126.288 140.27 125.979 140.891 125.408 141.081L125.256 141.132C124.686 141.323 124.067 141.013 123.876 140.442Z" fill="#465282"/>
<path d="M127.457 139.221L124.708 134.652C124.662 134.576 124.689 134.482 124.761 134.438L126.5 133.388C126.577 133.342 126.671 133.369 126.714 133.441L129.463 138.011C129.773 138.526 129.606 139.2 129.091 139.511L128.954 139.593C128.439 139.904 127.767 139.737 127.457 139.221Z" fill="#465282"/>
<path d="M130.903 136.694L126.917 133.156C126.85 133.097 126.847 132.999 126.904 132.936L128.25 131.413C128.309 131.347 128.407 131.344 128.47 131.4L132.456 134.938C132.906 135.337 132.948 136.029 132.549 136.48L132.443 136.6C132.044 137.051 131.353 137.093 130.903 136.694Z" fill="#465282"/>
<path d="M39.084 78.6084C39.084 78.6084 39.6851 137.096 72.451 138.243C105.217 139.389 106.593 79.0277 106.593 78.6084C106.593 78.6084 102.723 69.884 72.8383 70.2275C42.9532 70.5709 39.084 78.6084 39.084 78.6084Z" fill="#8C9CD0"/>
<path d="M57.4904 68.314H85.1849C86.9923 68.314 88.4575 66.8462 88.4575 65.0357V64.5584C88.4575 62.7479 86.9923 61.2801 85.1849 61.2801H57.4904C55.683 61.2801 54.2179 62.7479 54.2179 64.5584V65.0357C54.2179 66.8462 55.683 68.314 57.4904 68.314Z" fill="#465282"/>
<path d="M70.1491 16.3024H72.54V4.19267H70.1491V16.3024Z" fill="#465282"/>
<path d="M107.913 52.3491C111.688 51.4503 114.021 47.6558 113.124 43.874C112.227 40.0922 108.439 37.7551 104.664 38.6539C100.889 39.5528 98.5555 43.3472 99.4528 47.1291C100.35 50.9109 104.138 53.248 107.913 52.3491Z" fill="#8C9CD0"/>
<path d="M36.9091 51.8948C40.6934 51.0349 43.0653 47.2647 42.2069 43.4738C41.3485 39.683 37.5849 37.3069 33.8007 38.1668C30.0165 39.0267 27.6446 42.7968 28.5029 46.5877C29.3613 50.3786 33.1249 52.7546 36.9091 51.8948Z" fill="#8C9CD0"/>
<path d="M69.9527 13.6753C69.9527 13.6753 41.3855 13.3319 36.8618 38.1178C32.3381 62.9037 56.4973 63.3675 63.4476 63.8359C66.6 64.05 73.3411 64.0723 79.2896 63.9652C92.4601 63.7378 101.761 61.182 104.931 48.9429C105.301 47.5156 105.55 46.0482 105.644 44.5584C106.481 31.1463 97.4157 13.0107 69.9572 13.6708L69.9527 13.6753Z" fill="#8C9CD0"/>
<path d="M90.6746 51.4273L49.173 52.0785C44.8229 52.1454 41.2431 48.6708 41.1718 44.3131C41.1051 39.9554 44.5735 36.3693 48.9236 36.298L90.4253 35.6468C94.7754 35.5799 98.3552 39.0544 98.4264 43.4122C98.4932 47.7699 95.0247 51.356 90.6746 51.4273Z" fill="#465282"/>
<path d="M57.7843 43.4478C57.5171 44.8216 56.1858 45.7137 54.8189 45.446C53.4475 45.1784 52.557 43.8448 52.8242 42.4755C53.0913 41.1017 54.4226 40.2096 55.7895 40.4773C57.1609 40.7449 58.0514 42.0785 57.7843 43.4478Z" fill="white"/>
<path d="M86.7789 42.984C86.5117 44.3577 85.1805 45.2498 83.8135 44.9822C82.4422 44.7145 81.5517 43.3809 81.8188 42.0116C82.086 40.6378 83.4173 39.7458 84.7842 40.0134C86.1555 40.281 87.046 41.6146 86.7789 42.984Z" fill="white"/>
<path d="M82.607 101.838C82.1528 108.073 76.7386 112.756 70.5185 112.302C64.2983 111.847 59.6188 106.423 60.0729 100.187C60.5271 93.9518 65.9413 89.2685 72.1659 89.7235C78.3905 90.1784 83.0656 95.6021 82.6114 101.838H82.607Z" fill="#465282"/>
<path d="M79.5527 101.615C79.2233 106.155 75.2783 109.572 70.7413 109.237C66.2086 108.907 62.798 104.955 63.1319 100.41C63.4614 95.8698 67.4063 92.4532 71.9434 92.7877C76.4761 93.1178 79.8867 97.0696 79.5527 101.615Z" fill="white"/>
<path d="M73.4839 105.553L74.9888 104.871V98.5995L73.4839 99.2864V105.553Z" fill="#A62521"/>
<path d="M73.4839 99.2864L74.9888 98.5995L73.4839 98.0152V99.2864Z" fill="#DC3A2E"/>
<path d="M75.3628 104.701L76.8677 104.019V100.33L75.3628 101.013V104.701Z" fill="#A62521"/>
<path d="M75.3628 101.012L76.8677 100.33L75.3628 99.7413V101.012Z" fill="#DC3A2E"/>
<path d="M67.3219 100.12L66.3735 100.491L71.6097 102.868V102.079L67.3219 100.12Z" fill="#DC3A2E"/>
<path d="M67.3219 102.284L66.3735 102.654L71.6097 105.031V104.242L67.3219 102.284Z" fill="#DC3A2E"/>
<path d="M66.3735 98.3274L71.6097 100.705V97.5558L73.1146 96.8733L71.6097 96.2846L66.3735 98.3274Z" fill="#DC3A2E"/>
<path d="M71.6095 97.5558V100.705L66.3733 98.3274V99.6923L71.6095 102.079V102.868L66.3733 100.491V101.856L71.6095 104.242V105.031L66.3733 102.654V104.019H66.3511L71.6095 106.409L73.1144 105.723V96.8734L71.6095 97.5558Z" fill="#A62521"/>
<path d="M74.1324 6.73719C75.6712 5.19565 75.6712 2.69632 74.1324 1.15477C72.5936 -0.386769 70.0986 -0.386772 68.5598 1.15477C67.0209 2.69631 67.0209 5.19565 68.5598 6.7372C70.0986 8.27874 72.5936 8.27874 74.1324 6.73719Z" fill="#8C9CD0"/>
<path d="M65.055 42.2792C65.242 42.3015 65.1485 43.1847 65.7006 44.3622C65.9677 44.9465 66.413 45.5843 67.0408 46.1285C67.6686 46.6726 68.5012 47.0874 69.4139 47.1856C70.3312 47.2569 71.2261 46.9982 71.943 46.579C72.6643 46.1597 73.2164 45.6111 73.5815 45.0848C74.3384 44.0277 74.4052 43.1401 74.5922 43.1535C74.6634 43.1535 74.7436 43.3765 74.7436 43.7957C74.7436 44.215 74.6234 44.8261 74.285 45.504C73.9466 46.182 73.3589 46.9135 72.5084 47.4799C71.6714 48.0509 70.5315 48.4389 69.3071 48.3363C68.0871 48.2114 67.0363 47.6271 66.315 46.9135C65.5848 46.1998 65.1351 45.3747 64.9258 44.6477C64.7121 43.9162 64.7032 43.2917 64.7834 42.8814C64.859 42.471 64.9748 42.2614 65.0461 42.2748L65.055 42.2792Z" fill="white"/>
<path d="M103.088 53.8359C103.048 53.8136 103.56 53.033 104.05 51.628C104.557 50.2319 104.998 48.207 105.208 45.9456C105.435 43.6797 105.399 41.6146 105.341 40.1249C105.305 39.38 105.27 38.7779 105.239 38.3586C105.208 37.9438 105.199 37.7119 105.216 37.7074C105.234 37.7074 105.27 37.9349 105.328 38.3497C105.39 38.7645 105.448 39.3666 105.506 40.116C105.604 41.6102 105.666 43.6887 105.439 45.9679C105.225 48.2471 104.753 50.2855 104.206 51.686C103.939 52.3863 103.663 52.9349 103.449 53.2962C103.231 53.653 103.102 53.8492 103.088 53.8403V53.8359Z" fill="#465282"/>
<path d="M36.9287 37.306C36.9287 37.306 36.8931 37.5379 36.7862 37.9438C36.7328 38.1445 36.666 38.3943 36.6081 38.6842C36.5458 38.9741 36.4612 39.2997 36.4078 39.6699C36.2698 40.4014 36.1584 41.2846 36.0961 42.2703C36.0471 43.256 36.0471 44.3399 36.1406 45.4728C36.2475 46.6057 36.4345 47.6717 36.6571 48.6351C36.8931 49.5897 37.1558 50.4416 37.423 51.1374C37.5432 51.4897 37.6812 51.7975 37.7925 52.074C37.8994 52.3506 38.0062 52.5825 38.0997 52.7698C38.2734 53.149 38.3624 53.3631 38.3491 53.372C38.3357 53.3809 38.2199 53.1802 38.0196 52.81C37.9172 52.6271 37.797 52.3996 37.6767 52.1276C37.5521 51.8555 37.4007 51.5522 37.2716 51.1998C36.9822 50.504 36.7016 49.6521 36.4523 48.6887C36.2163 47.7208 36.016 46.6414 35.9091 45.4951C35.8111 44.3488 35.8201 43.2516 35.8824 42.2569C35.9581 41.2623 36.0872 40.3747 36.2475 39.6387C36.3143 39.2685 36.4078 38.9429 36.4835 38.653C36.5547 38.3631 36.6304 38.1178 36.7016 37.917C36.8352 37.5201 36.9154 37.3015 36.9287 37.306Z" fill="#465282"/>
<path d="M38.9458 78.5593C38.9458 78.5593 39.0037 78.5727 39.1194 78.6084L39.6137 78.7779C40.0589 78.934 40.6956 79.1615 41.5104 79.4469C41.9245 79.5941 42.3787 79.7592 42.8818 79.9376C43.3849 80.1071 43.9415 80.2632 44.5337 80.4505C45.7225 80.8029 47.0627 81.2623 48.5854 81.6191C49.3424 81.8154 50.1349 82.0161 50.9586 82.2302C51.7868 82.4398 52.6595 82.5959 53.5589 82.7877C55.3488 83.1981 57.2945 83.479 59.3338 83.8091C63.4256 84.3666 67.9582 84.7458 72.7224 84.7681C77.491 84.7502 82.0237 84.3666 86.1155 83.8091C88.1547 83.479 90.096 83.1981 91.8904 82.7877C92.7898 82.5915 93.6625 82.4398 94.4906 82.2302C95.3143 82.0161 96.1069 81.8154 96.8638 81.6191C98.3866 81.2623 99.7223 80.8029 100.916 80.4505C101.508 80.2676 102.064 80.1071 102.567 79.9376C103.066 79.7592 103.525 79.5941 103.939 79.4469C104.754 79.157 105.39 78.934 105.836 78.7779C106.045 78.7065 106.21 78.6485 106.33 78.6084C106.441 78.5727 106.499 78.5549 106.503 78.5593C106.508 78.5638 106.45 78.5861 106.339 78.6307C106.218 78.6798 106.058 78.7422 105.849 78.8225C105.408 78.9875 104.771 79.2284 103.966 79.5361C103.556 79.6878 103.097 79.8617 102.603 80.0446C102.1 80.2186 101.548 80.3836 100.956 80.5754C99.7668 80.9411 98.4311 81.4095 96.9083 81.7797C96.1514 81.9804 95.3589 82.19 94.5307 82.4041C93.7025 82.6182 92.8298 82.7788 91.9304 82.975C90.1361 83.3943 88.1903 83.6842 86.1467 84.0187C82.0459 84.5897 77.5044 84.9777 72.7224 84.9956C67.9449 84.9733 63.3989 84.5852 59.3026 84.0143C57.2589 83.6753 55.3132 83.3898 53.5188 82.9661C52.6194 82.7654 51.7467 82.6048 50.9185 82.3952C50.0948 82.1766 49.2978 81.967 48.5409 81.7708C47.0182 81.4005 45.6824 80.9322 44.4936 80.5665C43.9014 80.3747 43.3493 80.2096 42.8462 80.0357C42.3475 79.8484 41.8933 79.6789 41.4837 79.5272C40.6734 79.2195 40.0411 78.9831 39.6003 78.8136C39.3955 78.7333 39.2308 78.6708 39.1105 78.6218C38.9992 78.5772 38.9458 78.5549 38.9458 78.5504V78.5593Z" fill="#465282"/>
<g opacity="0.3">
<path d="M39.084 78.6084C39.084 78.6084 42.9532 70.5665 72.8383 70.2275C102.723 69.884 106.593 78.6084 106.593 78.6084C106.593 78.6084 76.4493 93.5013 39.0884 78.6084H39.084Z" fill="black"/>
</g>
<path d="M66.3377 15.5308C66.3377 15.5308 66.3021 15.5397 66.2353 15.5486C66.1552 15.5575 66.0528 15.5664 65.9326 15.5754C65.6654 15.6021 65.2736 15.6111 64.7705 15.6735C63.7642 15.7627 62.3127 15.9634 60.5539 16.3738C58.7952 16.7797 56.7382 17.4398 54.5742 18.4433C52.4103 19.4425 50.1529 20.8162 48.0246 22.5647C45.9097 24.3265 44.1332 26.289 42.744 28.2248C41.3504 30.165 40.3129 32.0606 39.5783 33.711C38.8436 35.3613 38.3716 36.7529 38.0911 37.7252C37.9353 38.2069 37.8551 38.5905 37.775 38.8492C37.7394 38.9652 37.7127 39.0633 37.6904 39.1392C37.6681 39.2061 37.6592 39.2373 37.6548 39.2373C37.6548 39.2373 37.6548 39.2016 37.6681 39.1347C37.686 39.0544 37.7038 38.9563 37.7305 38.8358C37.7928 38.5772 37.8641 38.1891 38.0021 37.6985C38.2559 36.7172 38.7056 35.3122 39.4269 33.6441C40.1437 31.9759 41.1723 30.058 42.5703 28.0999C43.964 26.1418 45.745 24.1615 47.8777 22.3818C50.0238 20.62 52.3035 19.2462 54.4852 18.2471C56.6714 17.248 58.7462 16.5968 60.5183 16.2087C62.2904 15.8162 63.7508 15.6423 64.7615 15.5798C65.2647 15.5352 65.6609 15.5397 65.9281 15.5263C66.0483 15.5263 66.1507 15.5263 66.2309 15.5263C66.2977 15.5263 66.3333 15.5263 66.3333 15.5308H66.3377Z" fill="white"/>
<path d="M38.3849 49.8662C38.3582 49.8751 38.1846 49.5451 37.9798 48.9741C37.7705 48.4077 37.5434 47.5959 37.4009 46.686C37.2585 45.7716 37.2318 44.9331 37.254 44.3265C37.2763 43.7199 37.3386 43.3542 37.3698 43.3542C37.441 43.3542 37.3431 44.8484 37.628 46.6503C37.9041 48.4523 38.4562 49.8394 38.3849 49.8662Z" fill="white"/>
<path d="M30.8911 47.5602C30.8911 47.5602 30.7887 47.4888 30.6506 47.3194C30.5082 47.1499 30.3256 46.8912 30.1475 46.5388C29.7824 45.8475 29.4707 44.7502 29.6266 43.5415C29.7869 42.3327 30.379 41.3559 30.9089 40.7806C31.176 40.4906 31.4165 40.2855 31.599 40.1606C31.7771 40.0357 31.884 39.9777 31.8929 39.9911C31.9196 40.0223 31.5189 40.2988 31.0336 40.8876C30.5482 41.4719 30.0095 42.4175 29.8581 43.5682C29.7067 44.719 29.9828 45.7761 30.2944 46.463C30.6061 47.1588 30.9267 47.529 30.8911 47.5558V47.5602Z" fill="white"/>
<path d="M71.6094 1.19538C71.6005 1.23998 71.2042 1.09279 70.5631 1.16862C69.9397 1.23552 69.0403 1.59681 68.506 2.4175C67.9851 3.24712 68.0296 4.215 68.23 4.81268C68.4259 5.42821 68.7242 5.73151 68.6886 5.75827C68.6797 5.76719 68.5951 5.70474 68.4748 5.56202C68.3502 5.41929 68.1988 5.18735 68.0741 4.87067C67.8203 4.25515 67.7357 3.20697 68.3101 2.29707C68.8978 1.39609 69.8818 1.03927 70.5497 1.01251C70.8881 0.994664 71.1641 1.03481 71.3422 1.08833C71.5248 1.14185 71.6139 1.19092 71.6094 1.19984V1.19538Z" fill="white"/>
<path d="M110.413 42.1499C110.364 42.2034 109.669 41.5388 108.623 41.0393C107.581 40.5263 106.633 40.3925 106.646 40.3211C106.646 40.2632 107.639 40.2988 108.725 40.8296C109.812 41.3515 110.457 42.1142 110.413 42.1499Z" fill="white"/>
<path d="M49.3602 120.236C49.3602 120.236 49.3379 120.21 49.3023 120.152C49.2622 120.08 49.2132 119.996 49.1554 119.889C49.0218 119.639 48.8437 119.295 48.6166 118.867C48.5008 118.644 48.3717 118.394 48.2337 118.122C48.1046 117.846 47.9665 117.542 47.8152 117.221C47.5124 116.575 47.1695 115.839 46.8401 115C46.6709 114.585 46.4928 114.148 46.3058 113.693C46.1366 113.234 45.9585 112.752 45.7759 112.257C45.393 111.271 45.068 110.187 44.6895 109.063C43.9905 106.793 43.3048 104.269 42.7037 101.592C42.116 98.9117 41.6663 96.3381 41.3101 93.9875C40.9806 91.6325 40.7223 89.5094 40.5799 87.7163C40.4953 86.8198 40.4418 86.0125 40.3973 85.2989C40.3483 84.5852 40.3127 83.9741 40.2994 83.4701C40.2815 82.984 40.2726 82.6004 40.2593 82.3149V82.0161C40.2593 81.9492 40.2593 81.9135 40.2593 81.9135C40.2593 81.9135 40.2682 81.9492 40.2771 82.0161L40.3038 82.3149C40.3261 82.6004 40.3528 82.984 40.3839 83.4701C40.4107 83.9697 40.4596 84.5852 40.522 85.2944C40.5799 86.0036 40.6422 86.8154 40.7401 87.7074C40.9049 89.496 41.1809 91.6146 41.5193 93.9608C41.8844 96.3069 42.343 98.8716 42.9263 101.548C43.5274 104.219 44.2042 106.735 44.8854 109.005C45.2594 110.129 45.5756 111.213 45.9496 112.199C46.1277 112.694 46.3013 113.176 46.4661 113.635C46.6486 114.09 46.8178 114.527 46.987 114.942C47.3076 115.781 47.6371 116.521 47.9265 117.172C48.0689 117.498 48.2025 117.801 48.3272 118.082C48.4608 118.354 48.581 118.604 48.6923 118.831C48.9016 119.269 49.0708 119.616 49.1954 119.871L49.3201 120.143C49.3468 120.205 49.3602 120.236 49.3557 120.241L49.3602 120.236Z" fill="white"/>
<path d="M31.9151 83.8716C31.9106 83.934 30.4547 83.8849 28.6603 83.7556C26.866 83.6262 25.4189 83.4701 25.4234 83.4077C25.4278 83.3452 26.8838 83.3943 28.6781 83.5237C30.468 83.653 31.9195 83.8091 31.9151 83.8716Z" fill="white"/>
<path d="M15.1651 74.3488C15.1072 74.38 14.3503 73.0865 13.4687 71.4585C12.5871 69.8305 11.9237 68.488 11.9771 68.4567C12.035 68.4255 12.7919 69.719 13.6735 71.347C14.5551 72.975 15.2185 74.3176 15.1651 74.3488Z" fill="white"/>
<path d="M65.1442 134.3C65.1442 134.3 64.9572 134.291 64.6233 134.237C64.2893 134.188 63.8129 134.072 63.2297 133.898C62.6464 133.729 61.9696 133.47 61.2438 133.136C60.5225 132.788 59.7523 132.355 58.9909 131.824C58.234 131.285 57.5661 130.705 56.9962 130.143C56.4352 129.572 55.9632 129.019 55.607 128.528C55.2463 128.042 54.9792 127.627 54.8189 127.328C54.6542 127.034 54.5696 126.864 54.5829 126.86C54.6185 126.838 54.9925 127.484 55.7361 128.43C56.1057 128.903 56.5821 129.434 57.1476 129.991C57.7175 130.54 58.3809 131.106 59.1245 131.632C59.8725 132.154 60.6294 132.587 61.3373 132.944C62.0497 133.287 62.7132 133.555 63.2786 133.747C64.414 134.13 65.1531 134.26 65.1442 134.304V134.3Z" fill="white"/>
<path d="M71.979 113.666C71.979 113.666 71.8721 113.684 71.6673 113.698C71.4625 113.698 71.1597 113.747 70.7679 113.724C69.9843 113.724 68.8489 113.595 67.5042 113.194C66.8319 112.997 66.1195 112.703 65.3759 112.337C64.6502 111.945 63.8843 111.494 63.163 110.905C61.7071 109.755 60.3535 108.145 59.4808 106.173C58.6393 104.188 58.3855 102.096 58.5414 100.245C58.6037 99.3176 58.7996 98.4478 59.0089 97.6494C59.2493 96.8599 59.5209 96.1374 59.837 95.5085C60.4604 94.2507 61.1461 93.3318 61.6804 92.7565C61.9297 92.4532 62.1701 92.2614 62.3126 92.1142C62.464 91.9715 62.5441 91.9001 62.5486 91.909C62.5664 91.9269 62.2503 92.2257 61.7471 92.8145C61.2396 93.4032 60.5806 94.3265 59.984 95.5798C59.6812 96.2043 59.4229 96.9224 59.1959 97.7029C58.9955 98.4924 58.813 99.3488 58.7551 100.263C58.6126 102.087 58.8664 104.135 59.6945 106.084C60.5494 108.015 61.8718 109.603 63.2966 110.74C64.0046 111.325 64.7526 111.775 65.465 112.168C66.1907 112.533 66.8898 112.832 67.5532 113.037C68.8756 113.457 69.9976 113.604 70.7723 113.635C71.5471 113.666 71.979 113.644 71.979 113.666Z" fill="white"/>
<path d="M18.0725 78.5415C18.0547 78.5772 17.7297 78.4121 17.1642 78.2828C16.6032 78.1534 15.7973 78.1044 14.9424 78.3051C14.0875 78.5147 13.3929 78.9251 12.9521 79.2953C12.5113 79.6655 12.2932 79.9599 12.262 79.9376C12.2442 79.9286 12.4134 79.5897 12.8453 79.1748C13.2727 78.76 13.994 78.3006 14.889 78.0821C15.7839 77.868 16.6344 77.9483 17.2043 78.1267C17.7786 78.3006 18.0814 78.5236 18.0681 78.5415H18.0725Z" fill="white"/>
<path d="M83.8178 34.1927C83.8178 34.2551 78.3502 34.3087 71.6091 34.3087C64.868 34.3087 59.4004 34.2551 59.4004 34.1927C59.4004 34.1302 64.868 34.0767 71.6091 34.0767C78.3502 34.0767 83.8178 34.1302 83.8178 34.1927Z" fill="white"/>
<path d="M62.985 62.083C62.985 62.083 62.9137 62.1008 62.7802 62.1187C62.6154 62.132 62.4195 62.1499 62.1835 62.1722C61.9253 62.1945 61.6091 62.2168 61.2396 62.2212C60.87 62.2302 60.4515 62.2525 59.9884 62.2346C59.0579 62.2346 57.9536 62.1677 56.7292 62.0384C55.5092 61.8956 54.1735 61.6771 52.7888 61.3559C51.4085 61.0259 50.1173 60.62 48.9596 60.2052C47.8064 59.777 46.7913 59.3354 45.9586 58.9251C45.5357 58.7288 45.1705 58.5237 44.8455 58.3497C44.516 58.1802 44.2444 58.0196 44.0218 57.8858C43.8214 57.7609 43.6522 57.6584 43.5098 57.5736C43.394 57.5022 43.3361 57.4576 43.3406 57.4532C43.345 57.4487 43.4118 57.4755 43.532 57.5335C43.679 57.6093 43.8526 57.6985 44.0619 57.8055C44.289 57.9304 44.5695 58.0776 44.9034 58.2337C45.2329 58.3943 45.6024 58.5906 46.0299 58.7734C46.8669 59.1659 47.8866 59.5852 49.0353 60C50.1885 60.4059 51.4753 60.7984 52.8466 61.1285C54.218 61.4496 55.5449 61.6682 56.7559 61.8243C57.967 61.967 59.0668 62.0473 59.9929 62.0696C60.456 62.0964 60.8745 62.083 61.2396 62.0874C61.6091 62.0919 61.9253 62.0874 62.1835 62.0785C62.4195 62.0785 62.6154 62.0741 62.7802 62.0696C62.9182 62.0696 62.9894 62.0741 62.9894 62.083H62.985Z" fill="white"/>
<path d="M98.5246 82.1811C98.5246 82.1811 98.489 82.2034 98.4178 82.2302C98.3332 82.2614 98.2263 82.3015 98.0972 82.3506C97.7989 82.4576 97.3848 82.6048 96.8594 82.7922C96.3206 82.9884 95.6617 83.2114 94.8825 83.4434C94.1033 83.6753 93.2262 83.9652 92.2377 84.215C91.7435 84.3444 91.227 84.4826 90.6882 84.6254C90.1495 84.7681 89.5796 84.8796 88.9963 85.0179C87.8297 85.3033 86.5652 85.5263 85.2384 85.7761C82.5758 86.2266 79.6238 86.6013 76.5115 86.8064C73.3992 86.9893 70.4249 86.9759 67.7267 86.8555C66.3776 86.7708 65.0953 86.7039 63.902 86.5656C63.3054 86.5031 62.7266 86.4585 62.1745 86.3827C61.6224 86.3069 61.0925 86.2355 60.5849 86.1642C59.5698 86.0393 58.6659 85.8609 57.8645 85.7226C57.063 85.5888 56.3818 85.446 55.8252 85.3212C55.282 85.2007 54.8546 85.1026 54.5429 85.0357L54.209 84.9554C54.1333 84.9376 54.0977 84.9242 54.0977 84.9197C54.0977 84.9153 54.1377 84.9197 54.2134 84.9331C54.3025 84.9465 54.4138 84.9688 54.5518 84.9911C54.8635 85.0491 55.2954 85.1294 55.843 85.2364C56.404 85.3479 57.0853 85.4817 57.8867 85.5977C58.6882 85.7226 59.592 85.8921 60.6072 86.0036C61.1148 86.066 61.6446 86.1374 62.1923 86.2043C62.7444 86.2712 63.3232 86.3113 63.9199 86.3738C65.1131 86.5031 66.391 86.5611 67.7356 86.6414C70.4294 86.7485 73.3948 86.7574 76.4981 86.5745C79.6015 86.3738 82.5446 86.0036 85.2028 85.5665C86.5296 85.3212 87.7897 85.1071 88.9562 84.8305C89.5395 84.6967 90.1094 84.5897 90.6482 84.4514C91.1869 84.3131 91.7034 84.1838 92.1976 84.0544C93.1905 83.818 94.0677 83.537 94.8469 83.3185C95.626 83.0999 96.2939 82.8858 96.8327 82.7074C97.3625 82.5379 97.781 82.4041 98.0838 82.306C98.2174 82.2659 98.3243 82.2346 98.4133 82.2079C98.489 82.1856 98.5246 82.1766 98.5291 82.1811H98.5246Z" fill="white"/>
<path d="M70.9993 150.004C89.1594 150.004 103.881 148.493 103.881 146.628C103.881 144.763 89.1594 143.252 70.9993 143.252C52.8393 143.252 38.1177 144.763 38.1177 146.628C38.1177 148.493 52.8393 150.004 70.9993 150.004Z" fill="#3D3D3D"/>
</g>
<defs>
<clipPath id="clip0_126_15893">
<rect width="132.653" height="150" fill="white" transform="translate(0.17334)"/>
</clipPath>
</defs>
</svg>
