<svg width="16" height="16" viewBox="0 0 16 16" fill="none" xmlns="http://www.w3.org/2000/svg">
<path fill-rule="evenodd" clip-rule="evenodd" d="M8.0001 14.4C11.5347 14.4 14.4001 11.5346 14.4001 7.99998C14.4001 4.46535 11.5347 1.59998 8.0001 1.59998C4.46548 1.59998 1.6001 4.46535 1.6001 7.99998C1.6001 11.5346 4.46548 14.4 8.0001 14.4ZM8.0001 5.59685C8.33147 5.59685 8.6001 5.32822 8.6001 4.99685C8.6001 4.66548 8.33147 4.39685 8.0001 4.39685C7.66873 4.39685 7.4001 4.66548 7.4001 4.99685C7.4001 5.32822 7.66873 5.59685 8.0001 5.59685ZM8.5001 7.19998C8.5001 6.92383 8.27624 6.69998 8.0001 6.69998C7.72395 6.69998 7.5001 6.92383 7.5001 7.19998V11.2C7.5001 11.4761 7.72395 11.7 8.0001 11.7C8.27624 11.7 8.5001 11.4761 8.5001 11.2V7.19998Z" fill="#D8AB52"/>
</svg>
