<svg width="20" height="20" viewBox="0 0 20 20" fill="none" xmlns="http://www.w3.org/2000/svg">
<path d="M9.38431 2.75384C9.35028 2.35337 8.99708 2.05294 8.60136 2.1232C6.98038 2.411 5.48111 3.19346 4.31459 4.37185C2.97676 5.72329 2.16408 7.5071 2.02227 9.40343C1.88047 11.2998 2.4188 13.1846 3.54076 14.72C4.66271 16.2554 6.2949 17.3409 8.14468 17.7819C9.99446 18.2229 11.9408 17.9906 13.6349 17.1266C15.3289 16.2625 16.6597 14.8233 17.3887 13.067C18.1178 11.3107 18.1973 9.35211 17.6132 7.54243C17.1038 5.96448 16.1188 4.58974 14.8021 3.60154C14.4806 3.3603 14.0299 3.46905 13.8188 3.81109C13.6078 4.15313 13.717 4.59846 14.0335 4.84616C15.058 5.64797 15.8251 6.741 16.2281 7.98954C16.706 9.46998 16.6409 11.0722 16.0445 12.509C15.4481 13.9458 14.3594 15.1232 12.9736 15.83C11.5877 16.5368 9.99547 16.7269 8.48222 16.3661C6.96898 16.0053 5.63374 15.1173 4.7159 13.8613C3.79807 12.6052 3.35767 11.0633 3.47368 9.51196C3.58969 7.96064 4.25451 6.50136 5.34895 5.39579C6.27195 4.4634 7.44961 3.83401 8.7257 3.58071C9.11993 3.50245 9.41834 3.15431 9.38431 2.75384Z"/>
<path d="M13.25 9.56699C13.5833 9.75944 13.5833 10.2406 13.25 10.433L8.75 13.0311C8.41667 13.2235 8 12.983 8 12.5981L8 7.40192C8 7.01702 8.41667 6.77646 8.75 6.96891L13.25 9.56699Z"/>
<path d="M8 1L9.64645 2.64645C9.84171 2.84171 9.84171 3.15829 9.64645 3.35355L8 5" stroke="currentColor" stroke-width="1.5" stroke-linecap="round"/>
</svg>
