<svg width="22" height="22" viewBox="0 0 22 22" fill="none" xmlns="http://www.w3.org/2000/svg">
<path d="M18.7 8.91H17.1842C17.1049 8.68306 17.0135 8.46054 16.9103 8.2434L17.9806 7.1731C18.0318 7.12202 18.0725 7.06133 18.1003 6.99451C18.128 6.92769 18.1423 6.85605 18.1423 6.7837C18.1423 6.71135 18.128 6.63971 18.1003 6.57289C18.0725 6.50607 18.0318 6.44538 17.9806 6.3943L15.6046 4.0194C15.5015 3.91629 15.3616 3.85837 15.2157 3.85837C15.0699 3.85837 14.93 3.91629 14.8269 4.0194L13.7566 5.0897C13.5395 4.98646 13.317 4.89503 13.09 4.8158V3.3C13.09 3.15413 13.0321 3.01424 12.9289 2.91109C12.8258 2.80795 12.6859 2.75 12.54 2.75H9.46C9.31413 2.75 9.17423 2.80795 9.07109 2.91109C8.96794 3.01424 8.91001 3.15413 8.91001 3.3V4.8158C8.68304 4.89503 8.46051 4.98646 8.2434 5.0897L7.1731 4.0194C7.06996 3.91629 6.93009 3.85837 6.78425 3.85837C6.63841 3.85837 6.49854 3.91629 6.3954 4.0194L4.01941 6.3943C3.96817 6.44538 3.9275 6.50607 3.89975 6.57289C3.872 6.63971 3.85772 6.71135 3.8577 6.7837C3.85772 6.85605 3.872 6.92769 3.89975 6.99451C3.9275 7.06133 3.96817 7.12202 4.01941 7.1731L5.0897 8.2434C4.98654 8.46054 4.89511 8.68306 4.81581 8.91H3.3C3.15413 8.91 3.01424 8.96794 2.9111 9.07109C2.80795 9.17423 2.75 9.31413 2.75 9.46V12.54C2.75 12.6859 2.80795 12.8258 2.9111 12.9289C3.01424 13.0321 3.15413 13.09 3.3 13.09H4.81581C4.89511 13.3169 4.98654 13.5395 5.0897 13.7566L4.01941 14.8269C3.96817 14.878 3.9275 14.9387 3.89975 15.0055C3.872 15.0723 3.85772 15.1439 3.8577 15.2163C3.85772 15.2887 3.872 15.3603 3.89975 15.4271C3.9275 15.4939 3.96817 15.5546 4.01941 15.6057L6.3954 17.9806C6.49854 18.0837 6.63841 18.1416 6.78425 18.1416C6.93009 18.1416 7.06996 18.0837 7.1731 17.9806L8.2434 16.9103C8.46051 17.0135 8.68303 17.105 8.91001 17.1842V18.7C8.91001 18.8459 8.96794 18.9858 9.07109 19.0889C9.17423 19.1921 9.31413 19.25 9.46 19.25H12.54C12.6859 19.25 12.8258 19.1921 12.9289 19.0889C13.0321 18.9858 13.09 18.8459 13.09 18.7V17.1842C13.317 17.105 13.5395 17.0135 13.7566 16.9103L14.8269 17.9806C14.93 18.0837 15.0699 18.1416 15.2157 18.1416C15.3616 18.1416 15.5015 18.0837 15.6046 17.9806L17.9806 15.6057C18.0318 15.5546 18.0725 15.4939 18.1003 15.4271C18.128 15.3603 18.1423 15.2887 18.1423 15.2163C18.1423 15.1439 18.128 15.0723 18.1003 15.0055C18.0725 14.9387 18.0318 14.878 17.9806 14.8269L16.9103 13.7566C17.0135 13.5395 17.1049 13.3169 17.1842 13.09H18.7C18.8459 13.09 18.9858 13.0321 19.0889 12.9289C19.1921 12.8258 19.25 12.6859 19.25 12.54V9.46C19.25 9.31413 19.1921 9.17423 19.0889 9.07109C18.9858 8.96794 18.8459 8.91 18.7 8.91ZM18.15 11.99H16.7816C16.6618 11.99 16.5454 12.0292 16.4499 12.1014C16.3544 12.1737 16.2851 12.2752 16.2525 12.3904C16.1356 12.8086 15.9694 13.2115 15.7575 13.5905C15.6983 13.6952 15.675 13.8165 15.6913 13.9357C15.7076 14.0549 15.7625 14.1655 15.8477 14.2505L16.8146 15.2174L15.2163 16.8146L14.2505 15.8488C14.1656 15.7635 14.0551 15.7083 13.9359 15.6918C13.8167 15.6753 13.6954 15.6984 13.5905 15.7575C13.2104 15.9699 12.8065 16.1364 12.3871 16.2536C12.2719 16.2864 12.1705 16.356 12.0985 16.4517C12.0264 16.5474 11.9875 16.664 11.9878 16.7838V18.15H10.0078V16.7827C10.0081 16.6629 9.96922 16.5463 9.89715 16.4506C9.82507 16.3549 9.72372 16.2853 9.6085 16.2525C9.18914 16.1354 8.78519 15.9688 8.40511 15.7564C8.30026 15.6973 8.17891 15.6742 8.0597 15.6907C7.94048 15.7072 7.82997 15.7624 7.7451 15.8477L6.77929 16.8135L5.18101 15.2163L6.14791 14.2494C6.23306 14.1644 6.288 14.0538 6.30429 13.9346C6.32058 13.8154 6.29733 13.6941 6.23811 13.5894C6.02619 13.2104 5.86001 12.8075 5.74309 12.3893C5.71052 12.2741 5.64123 12.1726 5.54574 12.1003C5.45024 12.0281 5.33377 11.9889 5.21401 11.9889H3.85V10.0089H5.2184C5.33816 10.0089 5.45464 9.96974 5.55014 9.89747C5.64563 9.82521 5.71493 9.72374 5.74751 9.6085C5.86474 9.18952 6.03126 8.78593 6.24359 8.4062C6.30268 8.30135 6.32576 8.18002 6.30927 8.0608C6.29278 7.94159 6.23764 7.83107 6.1523 7.7462L5.18541 6.7804L6.78371 5.1832L7.7495 6.149C7.83437 6.23433 7.94489 6.28947 8.06411 6.30597C8.18333 6.32246 8.30466 6.29939 8.4095 6.2403C8.78959 6.02788 9.19354 5.86135 9.6129 5.7442C9.72812 5.71137 9.82947 5.64183 9.90154 5.54612C9.97362 5.45042 10.0125 5.33381 10.0122 5.214V3.85H11.9922V5.2173C11.9919 5.3371 12.0308 5.45372 12.1029 5.54942C12.1749 5.64512 12.2763 5.71467 12.3915 5.7475C12.8109 5.86465 13.2148 6.03118 13.5949 6.2436C13.6997 6.30269 13.8211 6.32576 13.9403 6.30926C14.0595 6.29277 14.17 6.23763 14.2549 6.1523L15.2207 5.1865L16.819 6.7837L15.8521 7.7495C15.7668 7.83437 15.7116 7.94489 15.6951 8.0641C15.6786 8.18332 15.7017 8.30465 15.7608 8.4095C15.9731 8.78924 16.1397 9.19282 16.2569 9.6118C16.2895 9.72704 16.3588 9.8285 16.4543 9.90077C16.5498 9.97304 16.6662 10.0122 16.786 10.0122H18.15V11.99Z"/>
<path d="M11 8.46011C10.2707 8.46011 9.57119 8.74984 9.05546 9.26556C8.53974 9.78129 8.25 10.4808 8.25 11.2101C8.25 11.9395 8.53974 12.6389 9.05546 13.1547C9.57119 13.6704 10.2707 13.9601 11 13.9601C11.7293 13.9601 12.4288 13.6704 12.9445 13.1547C13.4603 12.6389 13.75 11.9395 13.75 11.2101C13.75 10.4808 13.4603 9.78129 12.9445 9.26556C12.4288 8.74984 11.7293 8.46011 11 8.46011ZM11 12.8601C10.5624 12.8601 10.1427 12.6863 9.83327 12.3768C9.52384 12.0674 9.35 11.6477 9.35 11.2101C9.35 10.7725 9.52384 10.3528 9.83327 10.0434C10.1427 9.73395 10.5624 9.56011 11 9.56011C11.4376 9.56011 11.8573 9.73395 12.1667 10.0434C12.4762 10.3528 12.65 10.7725 12.65 11.2101C12.65 11.6477 12.4762 12.0674 12.1667 12.3768C11.8573 12.6863 11.4376 12.8601 11 12.8601Z"/>
</svg>
