<?xml version="1.0" encoding="utf-8"?>
<svg version="1.1" id="Layer_1" xmlns="http://www.w3.org/2000/svg" xmlns:xlink="http://www.w3.org/1999/xlink" x="0px" y="0px"
	 viewBox="0 0 16 16" style="enable-background:new 0 0 16 16;" xml:space="preserve">
<style type="text/css">
	.st0{fill:none;stroke:#728baf;stroke-linecap:round;}
</style>
<path class="st0" d="M3.9,3.7C3.5,3.7,2.6,4,2.6,5.1s0,1.7,0,1.8c0,0.5-0.4,1.4-1.8,1.4c0.6,0,1.8,0.2,1.8,0.9s0,1.8,0,2.3
	s0.3,1.4,1.4,1.4"/>
<path class="st0" d="M12.1,3.7c0.5,0,1.4,0.3,1.4,1.4s0,1.7,0,1.8c0,0.5,0.4,1.4,1.8,1.4c-0.6,0-1.8,0.2-1.8,0.9s0,1.8,0,2.3
	s-0.3,1.4-1.4,1.4"/>
</svg>
