<svg width="20" height="20" viewBox="0 0 20 20" fill="none" xmlns="http://www.w3.org/2000/svg">
<path d="M14.5683 3.43173C13.2731 2.52921 11.6983 2 10 2C5.58172 2 2 5.58172 2 10C2 11.6983 2.52921 13.2731 3.43173 14.5683L3.5 14.5L6.49853 11.8763C6.84598 11.5723 6.63096 11 6.16928 11H4.08296C4.0284 10.6748 4 10.3407 4 10C4 6.68629 6.68629 4 10 4C11.1443 4 12.2138 4.32035 13.1237 4.87627L14.5683 3.43173Z" fill="#5BC69B"/>
<path d="M5.43164 16.5682C6.72685 17.4707 8.30158 17.9999 9.99991 17.9999C14.4182 17.9999 17.9999 14.4182 17.9999 9.99991C17.9999 8.30158 17.4707 6.72685 16.5682 5.43164L16.4999 5.49991L13.5014 8.12362C13.1539 8.42764 13.369 8.99991 13.8306 8.99991H15.917C15.9715 9.32512 15.9999 9.6592 15.9999 9.99991C15.9999 13.3136 13.3136 15.9999 9.99991 15.9999C8.85558 15.9999 7.78607 15.6796 6.87618 15.1236L5.43164 16.5682Z" fill="#5BC69B"/>
</svg>
