<svg width="20" height="20" viewBox="0 0 20 20" fill="none" xmlns="http://www.w3.org/2000/svg">
<path d="M10 6C10.5522 6 11 6.44769 11 7V10C11 10.5523 10.5522 11 10 11C9.44775 11 9 10.5523 9 10V7C9 6.44769 9.44775 6 10 6Z" fill="#DC373C"/>
<path d="M10 14C10.5522 14 11 13.5523 11 13C11 12.4477 10.5522 12 10 12C9.44775 12 9 12.4477 9 13C9 13.5523 9.44775 14 10 14Z" fill="#DC373C"/>
<path fill-rule="evenodd" clip-rule="evenodd" d="M10 18C14.4185 18 18 14.4183 18 10C18 5.58173 14.4185 2 10 2C5.58154 2 2 5.58173 2 10C2 14.4183 5.58154 18 10 18ZM10 16C13.3135 16 16 13.3137 16 10C16 6.68628 13.3135 4 10 4C6.68652 4 4 6.68628 4 10C4 13.3137 6.68652 16 10 16Z" fill="#DC373C"/>
</svg>
