<svg width="20" height="20" viewBox="0 0 20 20" fill="none" xmlns="http://www.w3.org/2000/svg">
<path fill-rule="evenodd" clip-rule="evenodd" d="M12.4856 7.12584C12.9684 7.39405 13.1424 8.00286 12.8742 8.48564L10.3742 12.9856C10.2218 13.2599 9.94946 13.4468 9.6387 13.4903C9.32794 13.5339 9.01478 13.429 8.79289 13.2071L7.29289 11.7071C6.90237 11.3166 6.90237 10.6834 7.29289 10.2929C7.68342 9.90237 8.31658 9.90237 8.70711 10.2929L9.26967 10.8555L11.1258 7.51436C11.3941 7.03157 12.0029 6.85763 12.4856 7.12584Z" fill="#5BC69B"/>
<path fill-rule="evenodd" clip-rule="evenodd" d="M10 16C13.3137 16 16 13.3137 16 10C16 6.68629 13.3137 4 10 4C6.68629 4 4 6.68629 4 10C4 13.3137 6.68629 16 10 16ZM10 18C14.4183 18 18 14.4183 18 10C18 5.58172 14.4183 2 10 2C5.58172 2 2 5.58172 2 10C2 14.4183 5.58172 18 10 18Z" fill="#5BC69B"/>
</svg>
