<svg id="Ico_btn" xmlns="http://www.w3.org/2000/svg" width="20" height="20" viewBox="0 0 20 20">
  <rect id="Rectangle_16996" data-name="Rectangle 16996" width="20" height="20" fill="none"/>
  <g id="Group_6990" data-name="Group 6990">
    <path id="Path_10265" data-name="Path 10265" d="M19606,2878a1,1,0,0,1-1-1v-12a1,1,0,0,1,1-1h2a1,1,0,0,1,1,1v12a1,1,0,0,1-1,1Zm0-1h2v-12h-2Zm-5,1a1,1,0,0,1-1-1v-12a1,1,0,0,1,1-1h2a1,1,0,0,1,1,1v12a1,1,0,0,1-1,1Zm0-1h2v-12h-2Zm-5,1a1,1,0,0,1-1-1v-12a1,1,0,0,1,1-1h2a1,1,0,0,1,1,1v12a1,1,0,0,1-1,1Zm0-1h2v-12h-2Z" transform="translate(-19592 -2861)" fill="#728baf"/>
  </g>
</svg>
