<svg width="10" height="11" viewBox="0 0 10 11" fill="none" xmlns="http://www.w3.org/2000/svg">
<path d="M8.4477 10.5V4.46391H9.82656V10.5H8.4477ZM5.68997 10.5V7.48196H7.06884V10.5H5.68997ZM2.93224 10.5V5.97293H4.31111V10.5H2.93224ZM0.174513 10.5V8.23823H1.55338V10.5H0.174513ZM0 5.03009C0.000729872 4.77992 0.0923281 4.54024 0.254228 4.36363C0.416128 4.18701 0.635349 4.08783 0.863945 4.08783C1.00252 4.08766 1.13887 4.12453 1.26145 4.19526L2.81159 2.52149C2.7778 2.41844 2.76041 2.30986 2.75988 2.20038C2.75988 2.07664 2.78233 1.95409 2.8256 1.83977C2.86886 1.72546 2.93201 1.62163 3.01196 1.53414C3.09191 1.44664 3.18651 1.37724 3.29096 1.32989C3.39542 1.28254 3.50753 1.25812 3.6206 1.25812C3.73375 1.25796 3.84565 1.28224 3.95023 1.32952C4.05482 1.3768 4.15025 1.44618 4.23031 1.5337C4.31038 1.62121 4.37442 1.72508 4.41775 1.83948C4.46109 1.95387 4.48346 2.07654 4.48346 2.20038C4.48345 2.23832 4.48031 2.27621 4.47592 2.31385L5.94851 3.64662C6.07903 3.56371 6.22741 3.52001 6.37833 3.51989C6.52707 3.51906 6.67318 3.56064 6.80276 3.64058L8.33998 1.80802C8.2961 1.69207 8.27479 1.56775 8.27534 1.44225C8.27534 1.19236 8.36595 0.952645 8.52742 0.775942C8.68888 0.599239 8.90771 0.5 9.13606 0.5C9.36465 0.499999 9.58387 0.599178 9.74577 0.775794C9.90767 0.952411 9.99927 1.19208 10 1.44225C9.99942 1.69281 9.90761 1.93289 9.74577 2.11012C9.58393 2.28734 9.365 2.38732 9.13606 2.38812C9.03412 2.38738 8.9331 2.36688 8.83766 2.3277L7.21965 4.25929C7.23304 4.32611 7.23886 4.39432 7.23904 4.46273C7.23904 4.58647 7.21767 4.70894 7.17441 4.82326C7.13114 4.93758 7.06691 5.04148 6.98697 5.12897C6.90702 5.21646 6.81242 5.28587 6.70796 5.33322C6.6035 5.38057 6.49139 5.40491 6.37833 5.40491C6.26522 5.40499 6.15321 5.38068 6.04869 5.33337C5.94417 5.28605 5.84969 5.21669 5.76969 5.12919C5.68968 5.04169 5.62555 4.93776 5.58225 4.82341C5.53895 4.70905 5.51761 4.58652 5.51761 4.46273C5.51799 4.39161 5.52559 4.3207 5.54024 4.25141L4.12151 2.96815C3.97559 3.08187 3.80081 3.14307 3.62167 3.14322C3.5062 3.14315 3.39173 3.11749 3.28558 3.06777L1.69557 4.78318C1.71585 4.86173 1.72588 4.94301 1.72574 5.02464C1.72544 5.27443 1.63506 5.51395 1.47366 5.69058C1.31226 5.86721 1.09327 5.96657 0.865022 5.96689C0.637046 5.96738 0.418411 5.86911 0.256383 5.6936C0.0943542 5.51809 0.0018933 5.27958 0 5.03009Z" fill="white"/>
</svg>
