<svg xmlns="http://www.w3.org/2000/svg" viewBox="0 0 13 13">
  <path fill-rule="evenodd" clip-rule="evenodd" d="M6.2765 0.0527864C6.41727 -0.0175955 6.58295 -0.0175955 6.72372 0.0527864L12.7237 3.05279C12.8931 3.13748 13.0001 3.31061 13.0001 3.5C13.0001 3.68939 12.8931 3.86252 12.7237 3.94721L6.72372 6.94721C6.58295 7.0176 6.41727 7.0176 6.2765 6.94721L0.276503 3.94721C0.107111 3.86252 0.000109524 3.68939 0.000109524 3.5C0.000109524 3.31061 0.107111 3.13748 0.276503 3.05279L6.2765 0.0527864ZM1.61814 3.5L6.50011 5.94098L11.3821 3.5L6.50011 1.05902L1.61814 3.5Z"/>
  <path d="M0.0528959 6.27639C0.176391 6.0294 0.476727 5.92929 0.723716 6.05279L6.50011 8.94098L12.2765 6.05279C12.5235 5.92929 12.8238 6.0294 12.9473 6.27639C13.0708 6.52338 12.9707 6.82372 12.7237 6.94721L6.72372 9.94721C6.58295 10.0176 6.41727 10.0176 6.2765 9.94721L0.276503 6.94721C0.0295135 6.82372 -0.0705987 6.52338 0.0528959 6.27639Z"/>
  <path d="M0.723716 9.05279C0.476727 8.92929 0.176391 9.0294 0.0528959 9.27639C-0.0705987 9.52338 0.0295135 9.82372 0.276503 9.94721L6.2765 12.9472C6.41727 13.0176 6.58295 13.0176 6.72372 12.9472L12.7237 9.94721C12.9707 9.82372 13.0708 9.52338 12.9473 9.27639C12.8238 9.0294 12.5235 8.92929 12.2765 9.05279L6.50011 11.941L0.723716 9.05279Z"/>
</svg>
