<svg id="bulk" xmlns="http://www.w3.org/2000/svg" width="16" height="16" viewBox="0 0 16 16">
  <rect id="Rectangle_17859" data-name="Rectangle 17859" width="16" height="16" fill="#fff" opacity="0"/>
  <g id="Group_8244" data-name="Group 8244" transform="translate(0.957 1.294)">
    <path id="Path_10579" data-name="Path 10579" d="M20913.8-1411.98a.535.535,0,0,1-.156-.415l.094-.851c.074-.01.152-.026.23-.042l.039-.007-1.062.181a.532.532,0,0,1-.084.01.5.5,0,0,1-.342-.137.5.5,0,0,1-.152-.41l.1-.917-.846.145a.492.492,0,0,1-.42-.126.488.488,0,0,1-.152-.415l.221-2.106a.467.467,0,0,1,.143-.294l4.664-4.664a4.123,4.123,0,0,1,1.039-4.065,4.125,4.125,0,0,1,5.82,0,4.141,4.141,0,0,1,.572.72,4.1,4.1,0,0,1,.75.593,4.1,4.1,0,0,1,.543.67,4.025,4.025,0,0,1,.734.585,4.114,4.114,0,0,1,0,5.819,4.079,4.079,0,0,1-2.9,1.2,4.33,4.33,0,0,1-1.156-.163l-1.412,1.408a.478.478,0,0,1-.3.142l-.873.079-.078.872a.5.5,0,0,1-.441.446l-.877.079-.078.872a.5.5,0,0,1-.4.441l-2.783.478a.473.473,0,0,1-.086.005A.493.493,0,0,1,20913.8-1411.98Zm.895-.961,1.77-.3.084-.9a.487.487,0,0,1,.441-.441l.871-.084.084-.872a.484.484,0,0,1,.441-.441l1.107-.105,1.492-1.492a.489.489,0,0,1,.352-.147.45.45,0,0,1,.168.032,3.158,3.158,0,0,0,1.119.2,3.1,3.1,0,0,0,2.211-.914,3.134,3.134,0,0,0,.625-3.53v.063a4.1,4.1,0,0,1-1.2,2.91,4.083,4.083,0,0,1-2.9,1.2,4.07,4.07,0,0,1-1.154-.168l-1.414,1.413a.49.49,0,0,1-.3.137l-.877.084-.078.872a.489.489,0,0,1-.441.441l-.877.084-.078.872a.5.5,0,0,1-.4.441l-.984.167Zm-1.277-1.255,1.77-.3.08-.9a.5.5,0,0,1,.445-.446l.873-.079.078-.872a.5.5,0,0,1,.445-.446l1.1-.1,1.492-1.492a.5.5,0,0,1,.352-.147.507.507,0,0,1,.174.032,3.127,3.127,0,0,0,1.119.2,3.122,3.122,0,0,0,2.211-.914,3.143,3.143,0,0,0,.574-3.626,4.1,4.1,0,0,1-1.2,3.011,4.111,4.111,0,0,1-4.061,1.035l-1.412,1.413a.5.5,0,0,1-.3.137l-.873.079-.078.872a.5.5,0,0,1-.447.446l-.871.079-.078.872a.5.5,0,0,1-.4.441l-.932.16Zm4.4-11.2a3.118,3.118,0,0,0-.715,3.325.486.486,0,0,1-.115.525l-4.758,4.758-.133,1.276,1.771-.3.078-.9a.493.493,0,0,1,.447-.441l.871-.084.084-.872a.484.484,0,0,1,.441-.441l1.107-.1,1.492-1.492a.491.491,0,0,1,.52-.116,3.126,3.126,0,0,0,3.33-.709,3.114,3.114,0,0,0,0-4.422,3.117,3.117,0,0,0-2.211-.918A3.114,3.114,0,0,0,20917.814-1425.393Zm1.98,2.442a1.483,1.483,0,0,1,0-2.1,1.486,1.486,0,0,1,2.09,0,1.483,1.483,0,0,1,0,2.1,1.469,1.469,0,0,1-1.045.433A1.462,1.462,0,0,1,20919.795-1422.951Zm.7-1.4a.483.483,0,0,0,0,.7.483.483,0,0,0,.7,0,.493.493,0,0,0,0-.7.5.5,0,0,0-.352-.146A.491.491,0,0,0,20920.492-1424.348Z" transform="translate(-20912 1426.422)" fill="#fff"/>
  </g>
</svg>
