<svg viewBox="0 0 12 12" xmlns="http://www.w3.org/2000/svg">
<path fill-rule="evenodd" clip-rule="evenodd" d="M8.67297 2.24485C8.82188 2.0978 8.82625 2.01556 8.82625 2C8.82625 1.98444 8.82188 1.9022 8.67297 1.75515C8.52137 1.60544 8.26364 1.4361 7.88477 1.27784C7.13024 0.962672 6.03585 0.75 4.78812 0.75C3.5404 0.75 2.44601 0.962672 1.69148 1.27784C1.3126 1.4361 1.05487 1.60544 0.903273 1.75515C0.75437 1.9022 0.75 1.98444 0.75 2C0.75 2.01556 0.75437 2.0978 0.903273 2.24485C1.05487 2.39456 1.3126 2.5639 1.69148 2.72216C2.44601 3.03733 3.5404 3.25 4.78812 3.25C6.03585 3.25 7.13024 3.03733 7.88477 2.72216C8.26364 2.5639 8.52137 2.39456 8.67297 2.24485ZM9.576 2.02069L9.57625 2C9.57625 0.895431 7.43253 0 4.78812 0C2.14372 0 0 0.895431 0 2V6V10C0 11.1046 2.14372 12 4.78812 12C6.09315 12 7.27623 11.7819 8.13989 11.4283V12H8.88989H9.30514H10.0551V11.25V9.25H11.1431H12.0001L11.5855 8.5L9.576 4.86551V2.02069ZM8.85778 4.43353V3.05425C8.013 3.62201 6.50624 4 4.78812 4C3.06983 4 1.56294 3.62193 0.718219 3.05408V6H0.75C0.75 6.01556 0.75437 6.0978 0.903273 6.24485C1.05487 6.39456 1.3126 6.5639 1.69148 6.72216C2.44601 7.03733 3.5404 7.25 4.78812 7.25C5.84579 7.25 6.79327 7.09719 7.51696 6.85866L8.66897 4.77502L8.85778 4.43353ZM7.01221 7.7716C6.34765 7.91747 5.59096 8 4.78812 8C3.06983 8 1.56294 7.62193 0.718219 7.05408V10H0.75C0.75 10.0156 0.75437 10.0978 0.903273 10.2449C1.05487 10.3946 1.3126 10.5639 1.69148 10.7222C2.44601 11.0373 3.5404 11.25 4.78812 11.25C6.03585 11.25 7.13024 11.0373 7.88477 10.7222C7.9769 10.6837 8.06187 10.6445 8.13989 10.6052V9.25H7.05182H6.19482L6.60949 8.5L7.01221 7.7716ZM8.88989 9.25V11.25H9.30514V9.25H9.29984V8.5H10.7285L9.09747 5.55005L7.46649 8.5H8.89984V9.25H8.88989Z"/>
</svg>
