<svg width="48" height="53" viewBox="0 0 48 53" fill="none" xmlns="http://www.w3.org/2000/svg">
<g id="NewFeature-2" clip-path="url(#clip0_74_1694)">
<path id="Vector" d="M39.9529 11.2199C37.1059 11.2199 34.798 8.91429 34.798 6.07016C34.798 3.22603 37.1059 0.92041 39.9529 0.92041C42.8 0.92041 45.1079 3.22603 45.1079 6.07016C45.1079 8.91429 42.8 11.2199 39.9529 11.2199Z" fill="#FFF5E4"/>
<path id="Vector_2" d="M34.7979 11.8963C33.1875 11.8963 31.882 10.5921 31.882 8.98329C31.882 7.3745 33.1875 6.07031 34.7979 6.07031C36.4084 6.07031 37.7139 7.3745 37.7139 8.98329C37.7139 10.5921 36.4084 11.8963 34.7979 11.8963Z" fill="#FFDA98"/>
<path id="Vector_3" d="M34.798 17.7841C34.1827 17.7841 33.6838 17.2858 33.6838 16.6711C33.6838 16.0564 34.1827 15.5581 34.798 15.5581C35.4133 15.5581 35.9121 16.0564 35.9121 16.6711C35.9121 17.2858 35.4133 17.7841 34.798 17.7841Z" fill="#FFE9EC"/>
<path id="Vector_4" d="M46.2425 11.5801C45.7643 11.5801 45.3766 11.1928 45.3766 10.7151C45.3766 10.2374 45.7643 9.8501 46.2425 9.8501C46.7207 9.8501 47.1084 10.2374 47.1084 10.7151C47.1084 11.1928 46.7207 11.5801 46.2425 11.5801Z" fill="#FFE9EC"/>
<path id="Vector_5" d="M36.1089 24.4822C34.703 24.4822 33.5634 23.3437 33.5634 21.9394C33.5634 20.535 34.703 19.3965 36.1089 19.3965C37.5147 19.3965 38.6543 20.535 38.6543 21.9394C38.6543 23.3437 37.5147 24.4822 36.1089 24.4822Z" fill="#FFF5E4"/>
<path id="Vector_6" d="M17.2634 30.5117C18.2839 29.97 19.2149 29.5009 20.0108 29.0689C22.9036 27.4987 26.4522 23.8256 26.4522 23.8256L26.8157 23.0714C26.8157 23.0714 28.8372 21.0519 29.3816 20.5081C29.9266 19.9637 30.8662 20.5877 31.6551 21.3758C32.444 22.1639 33.0687 23.1031 32.5243 23.647C31.9793 24.1914 29.9583 26.2103 29.9583 26.2103L29.2034 26.5734C29.2034 26.5734 25.5266 30.1185 23.9547 33.0083C23.5223 33.8034 23.0527 34.7335 22.5105 35.7529H17.2629V30.5106L17.2634 30.5117Z" fill="#FFA400"/>
<path id="Vector_7" d="M17.2634 30.5117C18.2839 29.97 19.2149 29.5009 20.0108 29.0689C22.9036 27.4987 26.4522 23.8256 26.4522 23.8256L26.8157 23.0714C26.8157 23.0714 28.8372 21.0519 29.3816 20.5081C29.9266 19.9637 30.8662 20.5877 31.6551 21.3758C32.444 22.1639 33.0687 23.1031 32.5243 23.647C31.9793 24.1914 29.9583 26.2103 29.9583 26.2103L29.2034 26.5734C29.2034 26.5734 25.5266 30.1185 23.9547 33.0083C23.5223 33.8034 23.0527 34.7335 22.5105 35.7529H17.2629V30.5106L17.2634 30.5117Z" fill="#FFA400"/>
<path id="Vector_8" d="M17.2636 35.754H22.5112C21.0821 38.4405 19.144 41.7505 16.0267 44.8646C12.9094 47.9788 9.60845 51.2764 8.30369 52.5799C6.99946 53.8828 4.6398 51.8983 2.87139 50.1317C1.10299 48.3651 -0.883507 46.0083 0.420717 44.7049C1.72494 43.402 4.93273 40.1974 8.14375 36.9897C11.2611 33.8755 14.5744 31.9394 17.2636 30.5117V35.754Z" fill="#00523C"/>
<path id="Vector_9" d="M23.9554 33.0095C25.5272 30.1196 29.204 26.5746 29.204 26.5746L29.959 26.2115C29.959 26.2115 31.9805 24.192 32.5249 23.6482C33.0699 23.1038 32.4452 22.165 31.6558 21.377C32.4447 22.165 33.0693 23.1043 32.5249 23.6482C31.98 24.1926 29.959 26.2115 29.959 26.2115L29.204 26.5746C29.204 26.5746 25.5272 30.1196 23.9554 33.0095Z" fill="#00122C"/>
<path id="Vector_10" d="M8.30369 52.5798C9.60791 51.2769 12.8157 48.0723 16.0267 44.8645C12.8157 48.0723 9.60845 51.2763 8.30369 52.5798C6.99892 53.8832 4.6398 51.8982 2.87139 50.1316C4.6398 51.8982 6.99892 53.8827 8.30369 52.5798Z" fill="#00122C"/>
<path id="Vector_11" d="M30.8565 22.1746C30.171 21.4898 29.7555 20.7944 29.9286 20.6215C30.1017 20.4486 30.7977 20.8637 31.4833 21.5485C32.1689 22.2334 32.5843 22.9287 32.4112 23.1016C32.2382 23.2745 31.5421 22.8595 30.8565 22.1746Z" fill="#FFDA98"/>
<path id="Vector_12" d="M18.5753 34.4435H23.1982C22.9812 34.8599 22.754 35.2978 22.5106 35.7539H17.263V30.5117C17.7202 30.2691 18.158 30.0415 18.5748 29.8247V34.443L18.5753 34.4435Z" fill="#C77300"/>
<path id="Vector_13" d="M5.78055 49.3889C7.08477 48.086 10.2926 44.8815 13.5036 41.6737C16.1955 38.9845 17.5073 39.4488 20.7608 35.7542C20.9768 35.3663 21.1814 34.9876 21.3769 34.6207C21.9191 33.6013 22.3887 32.6712 22.8211 31.8761C24.3929 28.9863 28.0698 25.4412 28.0698 25.4412L28.8247 25.0781C28.8247 25.0781 30.8457 23.0587 31.3906 22.5148C31.802 22.1038 31.5468 21.468 31.0573 20.8418C31.1591 20.9209 31.2603 21.0064 31.3605 21.0962C31.4106 21.1409 31.4601 21.1866 31.5091 21.2334C31.5091 21.2334 31.5102 21.2345 31.5107 21.235C31.5597 21.2813 31.6082 21.3286 31.6561 21.3765C32.445 22.1646 33.0696 23.1039 32.5252 23.6477C31.9803 24.1921 29.9593 26.211 29.9593 26.211L29.2044 26.5741C29.2044 26.5741 25.5275 30.1192 23.9557 33.009C23.5233 33.8041 23.0537 34.7342 22.5115 35.7536C21.0823 38.4401 19.1443 41.7501 16.027 44.8643C12.8159 48.0721 9.60868 51.2761 8.30392 52.5795C6.99969 53.8824 4.64003 51.8979 2.87162 50.1313C2.77954 50.0393 2.68692 49.9457 2.5943 49.851C2.59268 49.8494 2.59053 49.8473 2.58891 49.8457C2.49683 49.7515 2.40475 49.6558 2.31267 49.5589C2.31267 49.5589 2.31213 49.5579 2.31159 49.5579C3.98899 51.1453 4.6131 50.5547 5.78055 49.3884V49.3889Z" fill="#00122C"/>
<path id="Vector_14" d="M31.4948 21.5596C32.1739 22.2407 32.5837 22.9298 32.4113 23.1014C32.2773 23.2353 31.8282 23.0158 31.3134 22.5909C31.3414 22.5629 31.3672 22.5371 31.3904 22.5139C31.6424 22.2622 31.644 21.926 31.4948 21.5591V21.5596Z" fill="#00122C"/>
<g id="Group">
<path id="Vector_15" d="M44.3543 12.7062L46.0597 14.4099C46.112 14.5061 46.1599 14.6057 46.2046 14.7068L44.0576 12.562C44.1589 12.6067 44.2579 12.6545 44.3549 12.7067L44.3543 12.7062Z" fill="#FFADB8"/>
<path id="Vector_16" d="M43.1918 12.2858L46.4803 15.571C46.4927 15.6324 46.504 15.6942 46.5132 15.7561L43.006 12.2524C43.0685 12.2621 43.1298 12.2734 43.1912 12.2853L43.1918 12.2858Z" fill="#FFADB8"/>
<path id="Vector_17" d="M42.3573 12.2031C42.3605 12.2031 42.3637 12.2031 42.3675 12.2031L46.564 16.3953C46.564 16.3986 46.564 16.4018 46.564 16.4056C46.564 16.4524 46.5618 16.4981 46.5602 16.5443L42.2183 12.2069C42.2647 12.2053 42.311 12.2031 42.3573 12.2031Z" fill="#FFADB8"/>
<path id="Vector_18" d="M41.6797 12.2578L46.5083 17.0816C46.5013 17.1246 46.4938 17.1676 46.4851 17.2107L41.5504 12.2809C41.5935 12.2729 41.6366 12.2648 41.6797 12.2578Z" fill="#FFADB8"/>
<path id="Vector_19" d="M39.2681 13.5547L45.2114 19.492C45.185 19.5162 45.1581 19.5399 45.1312 19.5641L39.1965 13.6354C39.2202 13.6085 39.2439 13.5816 39.2686 13.5552L39.2681 13.5547Z" fill="#FFADB8"/>
<path id="Vector_20" d="M39.6476 13.1919L45.5737 19.112C45.5506 19.1394 45.5269 19.1669 45.5032 19.1938L39.5658 13.2624C39.5927 13.2387 39.6196 13.215 39.6476 13.1919Z" fill="#FFADB8"/>
<path id="Vector_21" d="M40.549 12.6104L46.1558 18.2115C46.1396 18.2454 46.1218 18.2793 46.1046 18.3126L40.4472 12.661C40.4811 12.6438 40.5145 12.6265 40.5485 12.6099L40.549 12.6104Z" fill="#FFADB8"/>
<path id="Vector_22" d="M41.0809 12.4004L46.3662 17.6803C46.3538 17.7185 46.3409 17.7562 46.328 17.7938L40.9673 12.4386C41.005 12.4251 41.0427 12.4122 41.0809 12.4004Z" fill="#FFADB8"/>
<path id="Vector_23" d="M40.0735 12.877L45.8892 18.6868C45.8692 18.7174 45.8493 18.7481 45.8288 18.7782L39.9819 12.9372C40.0121 12.9168 40.0428 12.8969 40.0735 12.877Z" fill="#FFADB8"/>
<path id="Vector_24" d="M38.9354 13.9629L44.8022 19.8238C44.7726 19.8448 44.7436 19.8668 44.7134 19.8873L38.8724 14.0522C38.8928 14.0221 38.9144 13.993 38.9359 13.9634L38.9354 13.9629Z" fill="#FFADB8"/>
<path id="Vector_25" d="M40.5919 16.3594L44.3452 20.1089C44.3118 20.1266 44.2784 20.1433 44.2445 20.1605L40.516 16.4358L40.5919 16.3599V16.3594Z" fill="#FFADB8"/>
<path id="Vector_26" d="M40.5164 16.4357L38.5983 14.5195C38.6155 14.4857 38.6322 14.4523 38.6499 14.4189L40.5923 16.3593L40.5164 16.4352V16.4357Z" fill="#FFADB8"/>
<path id="Vector_27" d="M38.4183 14.9287L43.835 20.3399C43.7978 20.3539 43.7601 20.3668 43.7224 20.3797L38.3784 15.0411C38.3914 15.0035 38.4043 14.9658 38.4183 14.9287Z" fill="#FFADB8"/>
<path id="Vector_28" d="M38.2489 15.5015L43.2617 20.5092C43.2197 20.5183 43.1777 20.527 43.1352 20.535L38.2236 15.6284C38.2317 15.5859 38.2398 15.544 38.2494 15.502L38.2489 15.5015Z" fill="#FFADB8"/>
<path id="Vector_29" d="M38.1586 16.1523L42.6104 20.5995C42.5619 20.6022 42.5129 20.6038 42.4639 20.6049L38.1533 16.2987C38.1543 16.2497 38.156 16.2008 38.1586 16.1523Z" fill="#FFADB8"/>
<path id="Vector_30" d="M38.1829 16.917L41.8452 20.5756C41.786 20.5686 41.7267 20.56 41.6681 20.5503L38.2082 17.094C38.1986 17.0353 38.1905 16.9762 38.1829 16.917Z" fill="#FFADB8"/>
<path id="Vector_31" d="M38.4264 17.9014L40.8599 20.3324C40.7705 20.2985 40.6827 20.2614 40.5965 20.2216L38.5368 18.1639C38.497 18.0779 38.4598 17.9902 38.4259 17.9009L38.4264 17.9014Z" fill="#FFADB8"/>
</g>
<g id="Group_2">
<path id="Vector_32" d="M44.1061 1.38872L47.3672 4.64598C47.3424 4.6718 47.3171 4.69762 47.2913 4.72237L44.0296 1.46403C44.0544 1.43821 44.0802 1.41293 44.1061 1.38818V1.38872Z" fill="#FFA400"/>
<path id="Vector_33" d="M44.53 1.0708L47.6855 4.22262C47.6667 4.25436 47.6473 4.28556 47.6274 4.31676L44.4363 1.1289C44.467 1.10899 44.4988 1.08963 44.5305 1.0708H44.53Z" fill="#FFA400"/>
<path id="Vector_34" d="M45.6926 0.755859C45.6926 0.755859 45.6969 0.755859 45.699 0.755859L48 3.0545C48 3.0545 48 3.0588 48 3.06096C48 3.10829 47.9984 3.1551 47.9952 3.2019L45.5515 0.760701C45.5983 0.758011 45.6452 0.755859 45.6926 0.755859Z" fill="#FFA400"/>
<path id="Vector_35" d="M46.6485 0.963579L47.7928 2.10618C47.8294 2.18687 47.8622 2.26971 47.8892 2.35471L46.3992 0.866211C46.4842 0.893646 46.5677 0.925923 46.6479 0.962503L46.6485 0.963579Z" fill="#FFA400"/>
<path id="Vector_36" d="M45.0493 0.847656L47.9087 3.70415C47.8974 3.74288 47.885 3.78161 47.8721 3.81981L44.9335 0.884237C44.9718 0.870788 45.01 0.858953 45.0493 0.847656Z" fill="#FFA400"/>
<path id="Vector_37" d="M43.7674 1.79102L46.9639 4.98426C46.9332 5.0047 46.9019 5.02407 46.8702 5.0429L43.7087 1.88462C43.7275 1.85288 43.7469 1.82168 43.7674 1.79102Z" fill="#FFA400"/>
<path id="Vector_38" d="M43.5199 2.28467L44.5791 3.34281L46.4697 5.23153C46.432 5.24498 46.3938 5.25735 46.355 5.26919L44.5032 3.41919L43.4827 2.39979C43.494 2.36106 43.5069 2.32286 43.5204 2.28521L43.5199 2.28467Z" fill="#FFA400"/>
<path id="Vector_39" d="M43.3923 2.89795L45.8564 5.35959C45.808 5.36282 45.7595 5.36497 45.71 5.3655L43.3864 3.04427C43.3864 2.99532 43.3891 2.94636 43.3923 2.89795Z" fill="#FFA400"/>
<path id="Vector_40" d="M43.5736 3.97283C43.5402 3.89483 43.5106 3.81468 43.4853 3.73291L45.0205 5.26659C44.9381 5.24185 44.8579 5.21226 44.7803 5.17837L43.5736 3.97283Z" fill="#FFA400"/>
</g>
<g id="Group_3">
<path id="Vector_41" d="M30.823 21.4093L30.7374 21.3436C34.3873 16.6 37.5246 11.4465 40.0619 6.02726C40.5977 4.88305 41.1088 3.66353 40.9714 2.43755C40.8374 1.24278 39.8207 -0.00418215 38.5768 0.11578C38.048 0.167422 37.5671 0.519777 37.2828 1.05288C37.4497 1.16585 37.6026 1.31271 37.733 1.48969C38.1094 2.00182 38.1874 2.62207 37.937 3.10783L37.9311 3.11913L37.9209 3.12666C37.7421 3.25899 37.4777 3.252 37.3059 3.11052L37.2989 3.10353C36.8908 2.61723 36.8105 1.89208 37.0889 1.21157C37.1056 1.17069 37.1234 1.13088 37.1422 1.09161C36.8687 0.930229 36.5623 0.865138 36.2667 0.915704C35.768 1.00178 35.3518 1.40846 35.1811 1.97761C35.0104 2.54675 35.1326 3.11536 35.5015 3.46126L35.4277 3.5398C35.0287 3.16539 34.8946 2.55536 35.0777 1.94641C35.2607 1.33745 35.7093 0.902256 36.2483 0.809191C36.5677 0.754321 36.8972 0.823178 37.1912 0.994782C37.4928 0.434243 38.0033 0.063061 38.566 0.00819059C39.8718 -0.119302 40.9386 1.18037 41.0781 2.42518C41.2192 3.67913 40.7011 4.91425 40.1594 6.07245C37.6188 11.4992 34.4772 16.6587 30.8225 21.4087L30.823 21.4093ZM37.1891 1.25246C36.9263 1.89369 36.999 2.57473 37.3786 3.03037C37.5084 3.13419 37.7103 3.14065 37.8471 3.04704C38.0717 2.59947 37.9952 2.02818 37.6463 1.55317C37.5267 1.39017 37.3867 1.25461 37.2343 1.14971C37.2187 1.18306 37.2036 1.21749 37.1891 1.25246Z" fill="#00122C"/>
<path id="Vector_42" d="M28.1646 28.7696C28.4882 29.0923 29.0434 29.1515 29.4279 28.904C29.8124 28.6566 29.9884 28.1273 29.8285 27.6996L29.7413 27.4672L29.9168 27.6431C30.4295 28.1558 31.311 28.2537 31.9232 27.8658C32.536 27.478 32.8231 26.6398 32.577 25.9577L32.5409 25.8571L32.6432 25.8878C33.3686 26.1057 34.7282 26.3585 35.6792 25.6021C36.6609 24.8216 36.7072 23.3148 36.2457 22.2292C36.0061 21.666 35.6835 21.2383 35.2856 20.9591C34.6006 20.4777 33.6265 20.4518 32.9168 20.8962L32.8597 20.8047C33.605 20.3383 34.6281 20.3658 35.3475 20.8709C35.7616 21.1619 36.0971 21.6047 36.3448 22.1867C36.8219 23.3094 36.7697 24.8721 35.746 25.6861C34.7982 26.4397 33.4746 26.2348 32.7094 26.019C32.9119 26.727 32.6044 27.5608 31.9803 27.9562C31.3788 28.3376 30.5339 28.2795 29.9771 27.8405C30.0541 28.2747 29.8587 28.7545 29.4855 28.9944C29.3089 29.1079 29.0994 29.1633 28.8894 29.1633C28.5938 29.1633 28.297 29.0541 28.0881 28.8454L28.164 28.769L28.1646 28.7696Z" fill="#00122C"/>
<path id="Vector_43" d="M36.281 16.6334L31.2084 21.8009L31.1314 21.7255L36.204 16.558C37.5238 15.2132 38.9734 14.006 40.6244 14.2755C40.6697 14.2831 40.7149 14.2917 40.7607 14.3024C41.2776 13.3799 42.3357 12.7171 43.445 12.1372L43.4951 12.2324C42.4122 12.7989 41.3783 13.4439 40.8689 14.3309C41.3659 14.4762 41.8495 14.8183 41.9593 15.3358C42.0272 15.6559 41.8673 16.0298 41.5716 16.2455C41.3331 16.4193 41.0687 16.4461 40.8463 16.3192C40.4914 16.1169 40.4074 15.6478 40.4473 15.2767C40.4812 14.9603 40.5717 14.6699 40.7084 14.4009C40.6745 14.3934 40.6411 14.3869 40.6077 14.3815C39.0052 14.1195 37.5814 15.3089 36.2815 16.6334H36.281ZM40.5539 15.2885C40.5178 15.6258 40.5894 16.0497 40.8991 16.2261C41.0832 16.331 41.3051 16.3068 41.5075 16.1589C41.7703 15.9674 41.9125 15.6382 41.8533 15.3584C41.7515 14.8764 41.2878 14.5596 40.8156 14.4278C40.6783 14.6919 40.5867 14.9776 40.5533 15.2885H40.5539Z" fill="#00122C"/>
<path id="Vector_44" d="M34.6483 11.9241C34.308 13.185 33.7835 14.4024 33.2757 15.5789C32.4524 17.4886 31.6005 19.4634 30.3975 21.2101L30.3086 21.1493C31.5057 19.4107 32.3549 17.4412 33.1766 15.5364C33.6828 14.3631 34.2057 13.1495 34.5439 11.8961C34.8853 10.6314 34.9811 9.52538 34.8379 8.51458C34.7496 7.89164 34.5767 7.40049 34.3091 7.01317C33.986 6.54516 33.5019 6.2353 33.0151 6.1842L33.0264 6.07715C33.5444 6.13094 34.0571 6.45801 34.3979 6.95185C34.6753 7.35315 34.854 7.85936 34.9445 8.49898C35.0899 9.5243 34.993 10.6448 34.6478 11.9235L34.6483 11.9241Z" fill="#00122C"/>
</g>
</g>
<defs>
<clipPath id="clip0_74_1694">
<rect width="48" height="53" fill="white" transform="matrix(-1 0 0 1 48 0)"/>
</clipPath>
</defs>
</svg>
