<svg width="14" height="14" viewBox="0 0 14 14" fill="none" xmlns="http://www.w3.org/2000/svg">
<path fill-rule="evenodd" clip-rule="evenodd" d="M5.22309 10.5272L5.22389 10.528C5.35186 10.6547 5.5197 10.719 5.68752 10.719C5.85534 10.719 6.02318 10.6547 6.15116 10.528L12.2773 4.40179C12.5329 4.14496 12.5329 3.73056 12.2773 3.47372L12.2766 3.47293C12.0197 3.21741 11.6049 3.21782 11.3481 3.47334L5.68753 9.13474L2.65155 6.09793C2.39472 5.84241 1.98032 5.84241 1.72349 6.09793L1.7227 6.09873C1.46717 6.35556 1.46757 6.77035 1.72309 7.02719L5.22309 10.5272ZM2.164 6.12567C2.05997 6.13122 1.95752 6.17367 1.87777 6.25301C1.70715 6.42451 1.70715 6.70101 1.87777 6.87251L5.37777 10.3725C5.46352 10.4574 5.57552 10.5003 5.68752 10.5003C5.69543 10.5003 5.70334 10.5 5.71124 10.4996C5.7034 10.5 5.69556 10.5002 5.68772 10.5002C5.57572 10.5002 5.46372 10.4574 5.37797 10.3725L1.87797 6.8725C1.70734 6.701 1.70734 6.4245 1.87797 6.253C1.95766 6.17371 2.06003 6.13127 2.164 6.12567ZM11.789 3.50067C11.685 3.50622 11.5825 3.54867 11.5028 3.62801L5.68762 9.44403L5.68772 9.44412L11.503 3.628C11.5827 3.54871 11.685 3.50627 11.789 3.50067Z" fill="#1AE26E"/>
</svg>
