<svg width="11" height="11" viewBox="0 0 11 11" fill="none" xmlns="http://www.w3.org/2000/svg">
<g clip-path="url(#clip0_30_302)">
<path d="M3.22592 2.41453C3.35324 2.45637 3.46974 2.5249 3.56783 2.6151L3.63782 2.68674L7.43147 7.00891C7.77302 7.39805 7.73445 7.99039 7.34531 8.33194C7.25233 8.41355 7.14436 8.47574 7.02777 8.51525L6.9388 8.54058L1.29432 9.85042C0.789954 9.96746 0.286205 9.65347 0.169164 9.1491C0.138142 9.01542 0.136939 8.87698 0.16512 8.74351L0.191757 8.64449L2.04259 3.01248C2.20424 2.52059 2.73403 2.25288 3.22592 2.41453ZM2.65867 3.15581L2.63635 3.20761L0.785518 8.83962C0.767666 8.89394 0.765061 8.95212 0.777986 9.00782C0.812665 9.15726 0.949193 9.25657 1.09718 9.24939L1.15304 9.24159L2.98865 8.81569L2.11465 7.87325C1.99728 7.74671 2.00471 7.54899 2.13125 7.43162C2.24372 7.32729 2.41245 7.32157 2.53099 7.41046L2.57288 7.44822L3.6899 8.65256L5.33615 8.27069L3.33767 6.02007C3.22307 5.89103 3.23477 5.69351 3.36382 5.5789C3.47853 5.47703 3.64734 5.47496 3.76392 5.56639L3.80499 5.60505L6.02927 8.10944L6.79752 7.93176C6.83099 7.92399 6.86284 7.91078 6.89183 7.89276L6.93302 7.86221C7.04832 7.76101 7.07129 7.59376 6.99501 7.46674L6.96174 7.4212L3.16809 3.09902C3.14354 3.07104 3.11428 3.04779 3.08178 3.03023L3.03079 3.00829L2.97586 2.99553C2.84745 2.97771 2.72049 3.04186 2.65867 3.15581ZM9.94604 6.30505C10.3644 7.0598 10.0917 8.01079 9.33696 8.42915C9.18601 8.51283 8.99581 8.45829 8.91214 8.30734C8.82847 8.15639 8.883 7.96619 9.03395 7.88252C9.4868 7.6315 9.65042 7.0609 9.3994 6.60805C9.14838 6.1552 8.57779 5.99159 8.12494 6.24261C7.97399 6.32628 7.78379 6.27174 7.70011 6.12079C7.61644 5.96984 7.67098 5.77964 7.82193 5.69597C8.57668 5.2776 9.52767 5.5503 9.94604 6.30505ZM6.80288 2.42618C6.94848 2.4745 7.03476 2.61961 7.01395 2.7663L7.00104 2.8212L6.5782 4.09319L7.87044 3.64252C8.01528 3.59196 8.17218 3.65428 8.24521 3.78319L8.26847 3.83457C8.31903 3.97941 8.25672 4.13631 8.1278 4.20933L8.07643 4.2326L6.18519 4.89281C5.95664 4.97259 5.73546 4.77512 5.77341 4.5483L5.7856 4.49934L6.40785 2.62434C6.46221 2.46053 6.63907 2.37181 6.80288 2.42618ZM9.20445 3.00006C9.37703 3.00006 9.51695 3.13997 9.51695 3.31256C9.51695 3.48515 9.37703 3.62506 9.20445 3.62506C9.03186 3.62506 8.89195 3.48515 8.89195 3.31256C8.89195 3.13997 9.03186 3.00006 9.20445 3.00006ZM5.05544 0.752139C5.77917 1.22213 5.98486 2.18983 5.51487 2.91356C5.42087 3.05831 5.22733 3.09944 5.08258 3.00545C4.93784 2.91145 4.8967 2.71791 4.9907 2.57316C5.2727 2.13892 5.14928 1.5583 4.71504 1.27631C4.28081 0.994312 3.70019 1.11773 3.41819 1.55196C3.32419 1.69671 3.13065 1.73785 2.98591 1.64385C2.84116 1.54985 2.80002 1.35631 2.89402 1.21156C3.36402 0.487836 4.33172 0.282145 5.05544 0.752139ZM8.57945 1.75006C8.75203 1.75006 8.89195 1.88997 8.89195 2.06256C8.89195 2.23515 8.75203 2.37506 8.57945 2.37506C8.40686 2.37506 8.26695 2.23515 8.26695 2.06256C8.26695 1.88997 8.40686 1.75006 8.57945 1.75006ZM6.70445 1.12506C6.87703 1.12506 7.01695 1.26497 7.01695 1.43756C7.01695 1.61015 6.87703 1.75006 6.70445 1.75006C6.53186 1.75006 6.39195 1.61015 6.39195 1.43756C6.39195 1.26497 6.53186 1.12506 6.70445 1.12506ZM9.20445 0.500061C9.37703 0.500061 9.51695 0.639972 9.51695 0.812561C9.51695 0.98515 9.37703 1.12506 9.20445 1.12506C9.03186 1.12506 8.89195 0.98515 8.89195 0.812561C8.89195 0.639972 9.03186 0.500061 9.20445 0.500061Z" fill="white"/>
</g>
<defs>
<clipPath id="clip0_30_302">
<rect width="10" height="10" fill="white" transform="translate(0.141846 0.5)"/>
</clipPath>
</defs>
</svg>
