<svg xmlns="http://www.w3.org/2000/svg" width="17" height="16" viewBox="0 0 17 16" fill="none">
<path fill-rule="evenodd" clip-rule="evenodd" d="M2.8999 3.20002C2.8999 2.7582 3.25807 2.40002 3.6999 2.40002H5.2999C5.74173 2.40002 6.0999 2.7582 6.0999 3.20002V12.8C6.0999 13.2419 5.74173 13.6 5.2999 13.6H3.6999C3.25807 13.6 2.8999 13.2419 2.8999 12.8V3.20002ZM6.8999 3.20002C6.8999 2.7582 7.25807 2.40002 7.6999 2.40002H9.2999C9.74173 2.40002 10.0999 2.7582 10.0999 3.20002V12.8C10.0999 13.2419 9.74173 13.6 9.2999 13.6H7.6999C7.25807 13.6 6.8999 13.2419 6.8999 12.8V3.20002ZM10.8999 3.20002C10.8999 2.7582 11.2581 2.40002 11.6999 2.40002H13.2999C13.7417 2.40002 14.0999 2.7582 14.0999 3.20002V12.8C14.0999 13.2419 13.7417 13.6 13.2999 13.6H11.6999C11.2581 13.6 10.8999 13.2419 10.8999 12.8V3.20002ZM5.2999 3.20002V12.8H3.6999V3.20002H5.2999ZM9.2999 3.20002V12.8H7.6999V3.20002H9.2999ZM11.6999 3.20002V12.8H13.2999V3.20002H11.6999Z" fill="currentColor"/>
</svg>