<svg viewBox="0 0 16 15" xmlns="http://www.w3.org/2000/svg">
<path fill-rule="evenodd" clip-rule="evenodd" d="M7.64645 0.396446L4.46447 3.57843C4.2692 3.77369 4.2692 4.09027 4.46447 4.28553C4.65973 4.4808 4.97631 4.4808 5.17157 4.28553L7.5 1.95711V9.75C7.5 10.0261 7.72386 10.25 8 10.25C8.27614 10.25 8.5 10.0261 8.5 9.75V1.95711L10.8284 4.28553C11.0237 4.4808 11.3403 4.4808 11.5355 4.28553C11.7308 4.09027 11.7308 3.77369 11.5355 3.57843L8.35355 0.396446C8.15829 0.201185 7.84171 0.201185 7.64645 0.396446ZM0.5 12.75V9.75H1.5V12.75C1.5 13.3023 1.94772 13.75 2.5 13.75H13.5C14.0523 13.75 14.5 13.3023 14.5 12.75V9.75H15.5V12.75C15.5 13.8546 14.6046 14.75 13.5 14.75H2.5C1.39543 14.75 0.5 13.8546 0.5 12.75Z"/>
</svg>
