<svg width="34" height="34" viewBox="0 0 34 34" fill="none" xmlns="http://www.w3.org/2000/svg">
<path d="M21.673 19.0882H23.4219V13.2586H20.5071C19.9241 12.8233 18.6084 12.0927 17.9551 12.0927C15.6232 12.0927 12.7628 11.8841 12.3456 12.0927C11.6266 12.4522 11.7627 13.8416 11.7627 13.8416C11.7627 13.8416 11.1797 14.348 11.1797 15.0075V16.1734C11.1797 16.1734 10.5968 16.6798 10.5968 17.3393V18.5053C10.5968 18.5053 10.0138 18.7385 10.0138 19.6712C10.0138 20.6039 10.5968 20.8371 11.1797 20.8371H15.2604C15.7268 20.8371 15.4548 21.6144 15.2604 22.003C14.6775 23.1689 14.2166 25.1876 14.6775 25.6485C15.2604 26.2314 16.0875 25.9873 16.4264 25.6484C16.8386 25.2362 17.0093 24.3349 17.0093 24.3349C17.0093 24.3349 17.5923 22.586 18.1752 22.003L19.9241 20.2541C20.3905 19.7878 20.5071 19.0882 21.673 19.0882Z"/>
</svg>
