<svg width="32" height="32" viewBox="0 0 32 32" fill="none" xmlns="http://www.w3.org/2000/svg">
<path d="M9.61443 16.4567H8V21.8382H10.6907C11.2289 22.24 12.4434 22.9144 13.0465 22.9144C15.1991 22.9144 17.8397 23.107 18.2247 22.9144C19.1174 22.6448 19.8392 18.6696 19.8392 18.3704L20.3773 15.9186C20.3773 15.0575 19.8392 14.8423 19.301 14.8423H15.534C15.1035 14.8423 15.3546 14.1248 15.534 13.766C16.0722 12.6897 16.4976 10.8262 16.0722 10.4008C15.534 9.86267 14.7705 10.088 14.4577 10.4008C14.0772 10.7814 13.9196 11.6134 13.9196 11.6134C13.9196 11.6134 13.3814 13.2279 12.8433 13.766L11.2289 15.3804C10.7983 15.8109 10.6907 16.4567 9.61443 16.4567Z" stroke-width="0.75"/>
<path d="M16.0723 12.6897C16.6104 12.1516 17.1486 10.5371 17.1486 10.5371C17.1486 10.5371 17.3062 9.70507 17.6867 9.32454C17.9995 9.0117 18.763 8.78638 19.3011 9.32453C19.7266 9.74996 19.3011 11.6134 18.763 12.6897C18.5836 13.0485 18.3325 13.766 18.763 13.766C19.1935 13.766 21.4537 13.766 22.53 13.766C23.0681 13.766 23.6063 13.9812 23.6063 14.8423L23.0681 17.2941C23.0681 17.5933 22.3464 21.5686 21.4537 21.8382C21.0686 22.0307 20.9156 21.9154 18.763 21.9154" stroke-width="0.75"/>
</svg>
