<svg width="14" height="15" viewBox="0 0 14 15" fill="none" xmlns="http://www.w3.org/2000/svg">
<g id="document" clip-path="url(#clip0_478_59100)">
<path id="Vector" fill-rule="evenodd" clip-rule="evenodd" d="M9.45 0.5C9.68975 0.5 9.91988 0.598875 10.0852 0.773L12.8853 3.7725C13.0392 3.93525 13.125 4.15137 13.125 4.37537V13.625C13.125 14.108 12.733 14.5 12.25 14.5H1.75C1.267 14.5 0.875 14.108 0.875 13.625V1.375C0.875 0.892 1.267 0.5 1.75 0.5H9.45ZM12.25 4.875H9.1875C8.946 4.875 8.75 4.679 8.75 4.4375V1.375H1.75V13.625H12.25V4.875ZM4.8125 11C4.57088 11 4.375 10.8041 4.375 10.5625C4.375 10.3209 4.57088 10.125 4.8125 10.125H9.1875C9.42912 10.125 9.625 10.3209 9.625 10.5625C9.625 10.8041 9.42912 11 9.1875 11H4.8125ZM4.8125 8.375C4.57088 8.375 4.375 8.17912 4.375 7.9375C4.375 7.69588 4.57088 7.5 4.8125 7.5H9.1875C9.42912 7.5 9.625 7.69588 9.625 7.9375C9.625 8.17912 9.42912 8.375 9.1875 8.375H4.8125Z" fill="#B5B6C0"/>
</g>
<defs>
<clipPath id="clip0_478_59100">
<rect width="14" height="14" transform="translate(0 0.5)"/>
</clipPath>
</defs>
</svg>
