<svg width="12" height="14" viewBox="0 0 12 14" fill="none" xmlns="http://www.w3.org/2000/svg">
<path d="M11.933 0.423806C11.889 0.347984 11.8258 0.285067 11.7498 0.241364C11.6738 0.19766 11.5877 0.174706 11.5 0.174805H0.499985C0.412316 0.174706 0.326166 0.19766 0.250168 0.241364C0.174169 0.285067 0.110996 0.347984 0.0669861 0.423806C0.0231019 0.499815 0 0.586037 0 0.673806C0 0.761574 0.0231019 0.847796 0.0669861 0.923806L3.99998 7.80781V11.7508C4.00006 11.8418 4.02496 11.9311 4.07201 12.0089C4.11906 12.0868 4.18647 12.1504 4.26698 12.1928L7.26698 13.7678C7.33837 13.8058 7.41811 13.8254 7.49899 13.8248C7.59027 13.8249 7.67985 13.8 7.75799 13.7528C7.83178 13.7084 7.89283 13.6456 7.93523 13.5706C7.97763 13.4956 7.99993 13.411 7.99998 13.3248V7.80781L11.934 0.922806C11.9775 0.846828 12.0004 0.760745 12.0002 0.673172C12 0.5856 11.9768 0.499609 11.933 0.423806ZM6.99998 7.67481V12.4978L4.99998 11.4478V7.67481L4.93398 7.4268L1.36198 1.17481H10.638L7.06599 7.4268L6.99998 7.67481Z" fill="#B5B6C0"/>
</svg>
