<svg id="edit" xmlns="http://www.w3.org/2000/svg" width="16" height="16" viewBox="0 0 16 16">
  <rect id="Rectangle_16996" data-name="Rectangle 16996" width="16" height="16" fill="#728baf" opacity="0"/>
  <path id="Union_11" data-name="Union 11" d="M21508.432-1496.859l-3.271-3.272a.5.5,0,0,1-.162-.367.5.5,0,0,1,.146-.356l3.287-3.288a.5.5,0,0,1,.707,0,.5.5,0,0,1,0,.707l-2.434,2.435h7.791a.5.5,0,0,1,.5.5.5.5,0,0,1-.5.5h-7.8l2.439,2.435a.5.5,0,0,1,0,.707.5.5,0,0,1-.355.146A.5.5,0,0,1,21508.432-1496.859Zm3.43-5.713a.5.5,0,0,1,0-.707l2.436-2.435h-7.793a.5.5,0,0,1-.5-.5.5.5,0,0,1,.5-.5h7.8l-2.441-2.435a.5.5,0,0,1,0-.707.5.5,0,0,1,.355-.146.5.5,0,0,1,.352.146l3.271,3.278a.463.463,0,0,1,.162.362v.005a.5.5,0,0,1-.145.351l-3.289,3.288a.5.5,0,0,1-.352.146A.509.509,0,0,1,21511.861-1502.572Z" transform="translate(-21502.002 1511)" fill="#728baf"/>
</svg>
