<svg width="13" height="12" viewBox="0 0 13 12" fill="none" xmlns="http://www.w3.org/2000/svg">
<path fill-rule="evenodd" clip-rule="evenodd" d="M6.18254 1.07548e-06C4.75728 -0.000673441 3.37832 0.506035 2.29261 1.42939C1.20689 2.35274 0.485319 3.63243 0.257112 5.0393C0.0289046 6.44617 0.308965 7.88834 1.04714 9.10754C1.78532 10.3267 2.9334 11.2434 4.28579 11.6933C4.58579 11.748 4.69529 11.5628 4.69529 11.4038C4.69529 11.2613 4.69004 10.884 4.68704 10.3838C3.01829 10.746 2.66579 9.579 2.66579 9.579C2.55533 9.21654 2.31917 8.90539 1.99979 8.7015C1.45529 8.3265 2.04104 8.337 2.04104 8.337C2.23071 8.36363 2.41183 8.43312 2.57063 8.5402C2.72943 8.64728 2.86175 8.78914 2.95754 8.955C3.03855 9.10327 3.14822 9.23395 3.28018 9.33946C3.41214 9.44497 3.56375 9.5232 3.72621 9.56961C3.88867 9.61601 4.05873 9.62967 4.2265 9.60978C4.39428 9.58989 4.55644 9.53685 4.70354 9.45375C4.73075 9.14937 4.86588 8.86474 5.08454 8.65125C3.75254 8.50125 2.35154 7.98525 2.35154 5.68575C2.34293 5.08952 2.56424 4.51287 2.96954 4.0755C2.78778 3.55777 2.81031 2.9902 3.03254 2.4885C3.03254 2.4885 3.53579 2.32725 4.68254 3.1035C5.66595 2.83429 6.70363 2.83429 7.68704 3.1035C8.83229 2.32725 9.33704 2.4885 9.33704 2.4885C9.55877 2.99078 9.57997 3.55885 9.39629 4.07625C9.79947 4.51446 10.0184 5.09113 10.0075 5.6865C10.0075 7.99125 8.60429 8.499 7.26779 8.6475C7.411 8.79302 7.52142 8.96749 7.59166 9.15919C7.6619 9.3509 7.69033 9.55541 7.67504 9.759C7.67504 10.5608 7.66754 11.208 7.66754 11.4045C7.66754 11.565 7.77554 11.7518 8.08004 11.6933C9.43249 11.2433 10.5806 10.3267 11.3188 9.10738C12.057 7.8881 12.337 6.44585 12.1087 5.03893C11.8804 3.63201 11.1586 2.35232 10.0728 1.42902C8.98694 0.505729 7.60786 -0.000851924 6.18254 1.07548e-06" fill="#DFE5EF"/>
</svg>
