<?xml version="1.0" encoding="UTF-8"?><svg xmlns="http://www.w3.org/2000/svg" viewBox="0 0 54.62 43.9"><g id="b"><path d="M38.01,5.73c-6.89,0-12.47,5.58-12.47,12.47s5.58,12.47,12.47,12.47,12.47-5.58,12.47-12.47c0-5.81-3.97-10.68-9.34-12.07-1-.26-2.05-.4-3.13-.4Zm0,19.27c-3.76,0-6.81-3.05-6.81-6.81s3.05-6.81,6.81-6.81,6.81,3.05,6.81,6.81-3.05,6.81-6.81,6.81Z" fill="#3d3d3d"/><path d="M37.51,5.17c-6.89,0-12.47,5.58-12.47,12.47s5.58,12.47,12.47,12.47,12.47-5.58,12.47-12.47c0-5.81-3.97-10.68-9.34-12.07-1-.26-2.05-.4-3.13-.4Zm0,19.27c-3.76,0-6.81-3.05-6.81-6.81s3.05-6.81,6.81-6.81,6.81,3.05,6.81,6.81-3.05,6.81-6.81,6.81Z" fill="#f74b57"/></g><g id="c"><path d="M40.63,5.57c-.18-.05-.37-.07-.55-.11l-.72,5.63c1.88,.53,3.43,1.86,4.26,3.59l4.96-2.73c-1.61-3.13-4.48-5.49-7.96-6.39Z" fill="#fff"/><path d="M25.44,14.3c-.05,.18-.07,.36-.11,.54l5.65,.78c.56-1.87,1.91-3.39,3.66-4.2l-2.69-4.97c-3.16,1.56-5.57,4.4-6.51,7.85Z" fill="#fff"/><path d="M34.71,29.79c.18,.04,.37,.06,.55,.09l.53-5.68c-1.89-.48-3.47-1.76-4.36-3.47l-4.85,2.9c1.7,3.09,4.64,5.37,8.12,6.17Z" fill="#fff"/><path d="M49.55,20.96c.05-.18,.07-.36,.11-.54l-5.65-.8c-.56,1.87-1.92,3.38-3.67,4.19l2.67,4.98c3.17-1.55,5.58-4.38,6.54-7.83Z" fill="#fff"/></g><g id="d"><polygon points="43.63 14.68 48.59 11.95 48.83 12.44 43.63 14.68" opacity=".3"/><polygon points="40.34 23.78 43.05 28.76 42.56 29 40.34 23.78" opacity=".3"/><polygon points="31.44 20.73 26.58 23.63 26.32 23.15 31.44 20.73" opacity=".3"/><polygon points="34.72 11.49 31.96 6.47 32.45 6.24 34.72 11.49" opacity=".3"/></g><g id="e"><path d="M25.02,39.19l-5.93,.18,5.93-.18Z" fill="#7db77e"/><path d="M35.47,15.42l-24.87,.4c-3.25,.05-5.7,2.96-5.2,6.17l2,12.85c.43,2.77,2.85,4.78,5.65,4.7l6-.18,4.98,4.29c.5,.43,1.26,.04,1.21-.62l-.33-3.84,8.45-.25c3.09-.09,5.67-2.37,6.14-5.43l1.77-11.44c.54-3.53-2.22-6.7-5.79-6.65Z" fill="#8ba2ff"/></g><g id="f"><rect x="10.37" y="21.82" width="26.67" height="2.06" rx="1.03" ry="1.03" fill="#fff"/><rect x="10.37" y="26.76" width="25.22" height="2.06" rx="1.03" ry="1.03" fill="#fff"/><rect x="10.37" y="31.7" width="16.17" height="2.06" rx="1.03" ry="1.03" fill="#fff"/></g></svg>