<svg width="35" height="34" viewBox="0 0 35 34" fill="none" xmlns="http://www.w3.org/2000/svg">
<path d="M12.3543 16.9118H10.6055V22.7414H13.5203C14.1032 23.1767 15.4189 23.9073 16.0723 23.9073C18.4041 23.9073 21.2646 24.1159 21.6817 23.9073C22.4008 23.5478 22.2647 22.1584 22.2647 22.1584C22.2647 22.1584 22.8476 21.652 22.8476 20.9925V19.8266C22.8476 19.8266 23.4306 19.3202 23.4306 18.6607V17.4947C23.4306 17.4947 24.0136 17.2615 24.0136 16.3288C24.0136 15.3961 23.4306 15.1629 22.8476 15.1629H18.7669C18.3005 15.1629 18.5726 14.3856 18.7669 13.997C19.3499 12.8311 19.8107 10.8124 19.3499 10.3515C18.7669 9.76858 17.9399 10.0127 17.601 10.3516C17.1888 10.7638 17.018 11.6651 17.018 11.6651C17.018 11.6651 16.4351 13.414 15.8521 13.997L14.1032 15.7459C13.6369 16.2122 13.5203 16.9118 12.3543 16.9118Z"/>
</svg>
