<svg width="18" height="24" viewBox="0 0 18 24" fill="none" xmlns="http://www.w3.org/2000/svg">
<mask id="path-1-inside-1_145_9122" fill="white">
<path fill-rule="evenodd" clip-rule="evenodd" d="M13.6157 15.7502C13.6157 15.4165 13.7848 15.1082 14.0496 14.9052C16.0305 13.3868 17.3078 10.9964 17.3078 8.30769C17.3078 3.71948 13.5883 0 9.00007 0C4.41186 0 0.692383 3.71948 0.692383 8.30769C0.692383 10.9966 1.96985 13.3872 3.95099 14.9055C4.21585 15.1085 4.38496 15.4169 4.38496 15.7506V19.3076C4.38496 19.8599 4.83268 20.3076 5.38496 20.3076H12.6157C13.168 20.3076 13.6157 19.8599 13.6157 19.3076V15.7502Z"/>
</mask>
<path fill-rule="evenodd" clip-rule="evenodd" d="M13.6157 15.7502C13.6157 15.4165 13.7848 15.1082 14.0496 14.9052C16.0305 13.3868 17.3078 10.9964 17.3078 8.30769C17.3078 3.71948 13.5883 0 9.00007 0C4.41186 0 0.692383 3.71948 0.692383 8.30769C0.692383 10.9966 1.96985 13.3872 3.95099 14.9055C4.21585 15.1085 4.38496 15.4169 4.38496 15.7506V19.3076C4.38496 19.8599 4.83268 20.3076 5.38496 20.3076H12.6157C13.168 20.3076 13.6157 19.8599 13.6157 19.3076V15.7502Z"/>
<path d="M3.95099 14.9055L3.34268 15.6992L3.95099 14.9055ZM14.0496 14.9052L13.4413 14.1115L14.0496 14.9052ZM16.3078 8.30769C16.3078 10.6722 15.1859 12.7742 13.4413 14.1115L14.658 15.6988C16.8751 13.9993 18.3078 11.3206 18.3078 8.30769H16.3078ZM9.00007 1C13.036 1 16.3078 4.27177 16.3078 8.30769H18.3078C18.3078 3.1672 14.1406 -1 9.00007 -1V1ZM1.69238 8.30769C1.69238 4.27177 4.96415 1 9.00007 1V-1C3.85958 -1 -0.307617 3.1672 -0.307617 8.30769H1.69238ZM4.55929 14.1118C2.81443 12.7745 1.69238 10.6724 1.69238 8.30769H-0.307617C-0.307617 11.3209 1.12527 13.9998 3.34268 15.6992L4.55929 14.1118ZM5.38496 19.3076V15.7506H3.38496V19.3076H5.38496ZM12.6157 19.3076H5.38496V21.3076H12.6157V19.3076ZM12.6157 15.7502V19.3076H14.6157V15.7502H12.6157ZM3.38496 19.3076C3.38496 20.4122 4.28039 21.3076 5.38496 21.3076V19.3076H5.38496H3.38496ZM3.34268 15.6992C3.36348 15.7152 3.37547 15.7316 3.38112 15.7424C3.38623 15.7522 3.38496 15.7545 3.38496 15.7506H5.38496C5.38496 15.0719 5.04288 14.4825 4.55929 14.1118L3.34268 15.6992ZM12.6157 21.3076C13.7203 21.3076 14.6157 20.4122 14.6157 19.3076H12.6157V21.3076ZM13.4413 14.1115C12.9578 14.4821 12.6157 15.0716 12.6157 15.7502H14.6157C14.6157 15.7541 14.6145 15.7518 14.6196 15.742C14.6252 15.7312 14.6372 15.7148 14.658 15.6988L13.4413 14.1115Z" mask="url(#path-1-inside-1_145_9122)"/>
<line x1="6.73071" y1="23.5" x2="11.2692" y2="23.5" stroke-linecap="round"/>
<path d="M9.92358 4.61523C10.8467 4.92293 12.6928 6.09216 12.6928 8.30754" stroke-linecap="round"/>
</svg>
