<svg width="173" height="204" viewBox="0 0 173 204" fill="none" xmlns="http://www.w3.org/2000/svg">
<path d="M45.8617 111.181C54.3725 102.671 67.3353 101.955 74.8894 109.509C82.4436 117.064 81.8804 129.874 73.2177 138.537C59.3684 152.386 36.5518 152.024 34.4634 149.935C32.3751 147.847 32.0125 125.03 45.8617 111.181Z" fill="#465282"/>
<path d="M88.7272 138.343C80.2165 129.832 79.5013 116.87 87.0555 109.315C94.6096 101.761 107.42 102.324 116.083 110.987C129.932 124.836 129.57 147.653 127.481 149.741C125.393 151.83 102.576 152.192 88.7272 138.343Z" fill="#465282"/>
<path d="M81.7289 203.45C81.7289 203.45 64.3815 186.256 64.2832 173.276C64.1848 160.297 81.7355 143.647 81.7355 143.647C81.7355 143.647 98.6447 160.56 98.7424 173.449C98.8401 186.339 81.7289 203.45 81.7289 203.45Z" fill="#FFAF2B"/>
<path d="M81.6418 186.55C86.3362 186.55 90.1418 182.52 90.1418 177.55C90.1418 172.579 86.3362 168.55 81.6418 168.55C76.9474 168.55 73.1418 172.579 73.1418 177.55C73.1418 182.52 76.9474 186.55 81.6418 186.55Z" fill="#FFC76B"/>
<ellipse cx="80.6418" cy="95.5499" rx="38.5" ry="70" transform="rotate(-180 80.6418 95.5499)" fill="#8BA2FF"/>
<path d="M70.3844 89.0861C64.3788 82.8646 64.5551 72.9158 70.7717 66.91C76.9933 60.9043 86.9421 61.0807 92.9479 67.2973C98.9535 73.5189 98.7772 83.4677 92.5605 89.4735C86.339 95.4791 76.3902 95.3027 70.3844 89.0861Z" fill="#F5F8FF"/>
<g filter="url(#filter0_d_26_366)">
<path d="M13.0698 75.2652C8.14764 71.9829 6.81381 65.3073 10.0928 60.3858C13.375 55.4637 20.0507 54.1299 24.9722 57.4088C29.8943 60.6911 31.2281 67.3668 27.9492 72.2882C24.6669 77.2103 17.9912 78.5442 13.0698 75.2652Z" fill="#F74B57"/>
</g>
<g filter="url(#filter1_d_26_366)">
<path d="M127.912 32.0109C122.752 23.4106 125.552 12.2143 134.147 7.05266C142.747 1.89242 153.943 4.69227 159.105 13.2871C164.265 21.8874 161.465 33.0837 152.87 38.2453C144.27 43.4056 133.074 40.6057 127.912 32.0109Z" fill="#7547DE"/>
</g>
<ellipse cx="18.3354" cy="66.8735" rx="18.3049" ry="1.45277" transform="rotate(-12.3147 18.3354 66.8735)" fill="#F98189"/>
<ellipse cx="142.069" cy="22.974" rx="31.0325" ry="2.4629" transform="rotate(13.0244 142.069 22.974)" fill="#9E7EE8"/>
<defs>
<filter id="filter0_d_26_366" x="7.34073" y="54.4658" width="23.7425" height="23.7424" filterUnits="userSpaceOnUse" color-interpolation-filters="sRGB">
<feFlood flood-opacity="0" result="BackgroundImageFix"/>
<feColorMatrix in="SourceAlpha" type="matrix" values="0 0 0 0 0 0 0 0 0 0 0 0 0 0 0 0 0 0 127 0" result="hardAlpha"/>
<feOffset dx="0.190992"/>
<feGaussianBlur stdDeviation="0.572975"/>
<feComposite in2="hardAlpha" operator="out"/>
<feColorMatrix type="matrix" values="0 0 0 0 0 0 0 0 0 0 0 0 0 0 0 0 0 0 0.12 0"/>
<feBlend mode="normal" in2="BackgroundImageFix" result="effect1_dropShadow_26_366"/>
<feBlend mode="normal" in="SourceGraphic" in2="effect1_dropShadow_26_366" result="shape"/>
</filter>
<filter id="filter1_d_26_366" x="125.324" y="4.46466" width="36.3687" height="36.648" filterUnits="userSpaceOnUse" color-interpolation-filters="sRGB">
<feFlood flood-opacity="0" result="BackgroundImageFix"/>
<feColorMatrix in="SourceAlpha" type="matrix" values="0 0 0 0 0 0 0 0 0 0 0 0 0 0 0 0 0 0 127 0" result="hardAlpha"/>
<feOffset dy="0.279395"/>
<feComposite in2="hardAlpha" operator="out"/>
<feColorMatrix type="matrix" values="0 0 0 0 0.917647 0 0 0 0 0.929412 0 0 0 0 0.94902 0 0 0 1 0"/>
<feBlend mode="normal" in2="BackgroundImageFix" result="effect1_dropShadow_26_366"/>
<feBlend mode="normal" in="SourceGraphic" in2="effect1_dropShadow_26_366" result="shape"/>
</filter>
</defs>
</svg>
