<svg width="318" height="317" viewBox="0 0 318 317" fill="none" xmlns="http://www.w3.org/2000/svg">
<path d="M127.22 174.631C135.731 166.121 148.693 165.405 156.248 172.96C163.802 180.514 163.239 193.325 154.576 201.987C140.727 215.837 117.91 215.474 115.822 213.386C113.733 211.297 113.371 188.481 127.22 174.631Z" fill="#465282"/>
<path d="M170.085 201.793C161.575 193.282 160.859 180.32 168.414 172.766C175.968 165.211 188.779 165.775 197.441 174.437C211.291 188.287 210.928 211.103 208.84 213.192C206.751 215.28 183.935 215.642 170.085 201.793Z" fill="#465282"/>
<path d="M163.087 266.9C163.087 266.9 145.74 249.706 145.641 236.727C145.543 223.747 163.094 207.097 163.094 207.097C163.094 207.097 180.003 224.01 180.101 236.9C180.198 249.789 163.087 266.9 163.087 266.9Z" fill="#FFAF2B"/>
<path d="M163 250C167.694 250 171.5 245.971 171.5 241C171.5 236.029 167.694 232 163 232C158.306 232 154.5 236.029 154.5 241C154.5 245.971 158.306 250 163 250Z" fill="#FFC76B"/>
<ellipse cx="162" cy="159" rx="38.5" ry="70" transform="rotate(-180 162 159)" fill="#8BA2FF"/>
<path d="M151.743 152.536C145.737 146.315 145.913 136.366 152.13 130.36C158.352 124.354 168.3 124.531 174.306 130.747C180.312 136.969 180.135 146.918 173.919 152.924C167.697 158.929 157.748 158.753 151.743 152.536Z" fill="#F5F8FF"/>
<g filter="url(#filter0_d_42_232)">
<path d="M73.428 122.511C68.5059 119.229 67.172 112.553 70.451 107.632C73.7333 102.71 80.4089 101.376 85.3304 104.655C90.2525 107.937 91.5863 114.613 88.3074 119.534C85.0251 124.456 78.3494 125.79 73.428 122.511Z" fill="#F74B57"/>
</g>
<g filter="url(#filter1_d_42_232)">
<path d="M234.62 77.9617C226.826 64.9728 231.055 48.0634 244.035 40.2679C257.024 32.4746 273.934 36.7031 281.729 49.6835C289.522 62.6724 285.294 79.5818 272.313 87.3773C259.325 95.1706 242.415 90.9421 234.62 77.9617Z" fill="#7547DE"/>
</g>
<ellipse cx="78.6936" cy="114.12" rx="18.3049" ry="1.45277" transform="rotate(-12.3147 78.6936 114.12)" fill="#F98189"/>
<ellipse cx="256" cy="64.3135" rx="46.8675" ry="3.71964" transform="rotate(13.0244 256 64.3135)" fill="#9E7EE8"/>
<defs>
<filter id="filter0_d_42_232" x="67.699" y="101.712" width="23.7425" height="23.7425" filterUnits="userSpaceOnUse" color-interpolation-filters="sRGB">
<feFlood flood-opacity="0" result="BackgroundImageFix"/>
<feColorMatrix in="SourceAlpha" type="matrix" values="0 0 0 0 0 0 0 0 0 0 0 0 0 0 0 0 0 0 127 0" result="hardAlpha"/>
<feOffset dx="0.190992"/>
<feGaussianBlur stdDeviation="0.572975"/>
<feComposite in2="hardAlpha" operator="out"/>
<feColorMatrix type="matrix" values="0 0 0 0 0 0 0 0 0 0 0 0 0 0 0 0 0 0 0.12 0"/>
<feBlend mode="normal" in2="BackgroundImageFix" result="effect1_dropShadow_42_232"/>
<feBlend mode="normal" in="SourceGraphic" in2="effect1_dropShadow_42_232" result="shape"/>
</filter>
<filter id="filter1_d_42_232" x="230.711" y="36.3594" width="54.9265" height="55.2059" filterUnits="userSpaceOnUse" color-interpolation-filters="sRGB">
<feFlood flood-opacity="0" result="BackgroundImageFix"/>
<feColorMatrix in="SourceAlpha" type="matrix" values="0 0 0 0 0 0 0 0 0 0 0 0 0 0 0 0 0 0 127 0" result="hardAlpha"/>
<feOffset dy="0.279395"/>
<feComposite in2="hardAlpha" operator="out"/>
<feColorMatrix type="matrix" values="0 0 0 0 0.917647 0 0 0 0 0.929412 0 0 0 0 0.94902 0 0 0 1 0"/>
<feBlend mode="normal" in2="BackgroundImageFix" result="effect1_dropShadow_42_232"/>
<feBlend mode="normal" in="SourceGraphic" in2="effect1_dropShadow_42_232" result="shape"/>
</filter>
</defs>
</svg>
