<svg width="21" height="19" viewBox="0 0 21 19" fill="none" xmlns="http://www.w3.org/2000/svg">
<path d="M0 17.7983L3.80539 5.98157C5.40766 10.7884 10.348 12.5242 12.4176 12.3906L1.40199 19C0.440624 19 0 18.1321 0 17.7983Z" fill="#FFAF2B"/>
<path d="M0 17.7276L4.80681 8.18463C4.96704 8.52394 5.94175 9.45702 6.40908 9.88115L0.600846 18.7997C0.200284 18.3991 0 18.081 0 17.7276Z" fill="#FFC76B"/>
<ellipse cx="8.23982" cy="9.06421" rx="5.46148" ry="1.87997" transform="rotate(38.7559 8.23982 9.06421)" fill="#B37A1E"/>
<path opacity="0.997" d="M11.7704 4.62208L10.3228 5.96534L12.017 6.5815L11.7704 4.62208Z" fill="#4FDAE0"/>
<path d="M7.17762 1.02022C6.69761 1.83832 6.74565 2.33347 6.89139 2.63921C7.14036 3.16128 7.70898 3.20217 8.13789 3.79128C8.51262 4.30593 8.5407 4.90912 8.49975 5.35474" stroke="#FF6280" stroke-miterlimit="10" stroke-linecap="round"/>
<path d="M15.6595 9.88728C16.2686 10.6144 16.7511 10.7356 17.088 10.7011C17.6634 10.6421 17.8931 10.1203 18.5921 9.91439C19.2027 9.73446 19.7803 9.91078 20.1862 10.0991" stroke="#5BC69B" stroke-miterlimit="10" stroke-linecap="round"/>
<path d="M12.4175 8.17825C13.496 8.2357 14.0015 7.89956 14.2569 7.52914C14.6663 6.93551 14.4481 6.23244 14.8702 5.7981C15.286 5.3699 15.8123 5.86102 16.5257 5.7259C17.0499 5.62655 17.7309 5.20133 18.426 3.77844" stroke="#FFAF2B" stroke-miterlimit="10" stroke-linecap="round"/>
</svg>
