<svg width="20" height="20" viewBox="0 0 20 20" fill="currentColor" xmlns="http://www.w3.org/2000/svg">
    <path d="M3 2C2.44772 2 2 2.44772 2 3V14C2 14.5523 2.44772 15 3 15H7V14H3V3H14V7H15V3C15 2.44772 14.5523 2 14 2H3Z"
    />
    <path fill-rule="evenodd" clip-rule="evenodd"
          d="M16 12C16 12.9244 15.6865 13.7755 15.1599 14.4528L17.3536 16.6464C17.5488 16.8417 17.5488 17.1583 17.3536 17.3536C17.1583 17.5488 16.8417 17.5488 16.6464 17.3536L14.4528 15.1599C13.7755 15.6865 12.9244 16 12 16C9.79086 16 8 14.2091 8 12C8 9.79086 9.79086 8 12 8C14.2091 8 16 9.79086 16 12ZM15 12C15 12.6479 14.7946 13.2479 14.4454 13.7383C14.4318 13.7573 14.418 13.7762 14.404 13.7949C14.2172 14.0447 13.9925 14.2644 13.7383 14.4454C13.2479 14.7946 12.6479 15 12 15C10.3431 15 9 13.6569 9 12C9 10.3431 10.3431 9 12 9C13.6569 9 15 10.3431 15 12Z"
    />
    <path d="M5.5 5C5.22386 5 5 5.22386 5 5.5C5 5.77614 5.22386 6 5.5 6H11.5C11.7761 6 12 5.77614 12 5.5C12 5.22386 11.7761 5 11.5 5H5.5Z"
    />
    <path d="M5.5 8C5.22386 8 5 8.22386 5 8.5C5 8.77614 5.22386 9 5.5 9H7.5C7.77614 9 8 8.77614 8 8.5C8 8.22386 7.77614 8 7.5 8H5.5Z"
    />
    <path d="M5 11.5C5 11.2239 5.22386 11 5.5 11H6.5C6.77614 11 7 11.2239 7 11.5C7 11.7761 6.77614 12 6.5 12H5.5C5.22386 12 5 11.7761 5 11.5Z"
    />
</svg>
