<svg width="156" height="128" viewBox="0 0 156 128" fill="none" xmlns="http://www.w3.org/2000/svg">
<path d="M138.826 39.0461L153.921 96.9482L108.656 113.253C108.391 113.171 100.256 80.1734 99.9878 80.1174L138.803 39.0724L138.798 39.0535L138.826 39.0461Z" fill="#688EE8"/>
<path d="M91.9143 82.2323C91.7167 82.4098 102.107 114.809 101.925 115.008L53.0723 123.234L37.9836 65.3555L91.9143 82.2323Z" fill="#688EE8"/>
<path d="M137.285 33.2517L138.803 39.0728L99.9877 80.1178C98.5699 79.8067 97.097 79.839 95.6927 80.2122C94.7961 80.4509 93.9394 80.8199 93.1502 81.307C92.7159 81.5775 92.3052 81.884 91.9226 82.2232C91.9172 82.2247 91.9185 82.2294 91.9144 82.2304L37.9844 65.3535L36.4668 59.5323C36.2585 58.7321 36.2574 57.8918 36.4639 57.09C36.6703 56.2883 37.0774 55.5511 37.6471 54.9476L75.8696 14.5315C76.5042 13.8613 77.3152 13.3821 78.2097 13.1489C79.1041 12.9157 80.0458 12.938 80.9269 13.2131L134.017 29.8245C134.809 30.0734 135.524 30.5183 136.096 31.1176C136.667 31.717 137.077 32.4512 137.285 33.2517Z" fill="#D1DFFF"/>
<path d="M53.0729 123.234L53.1309 123.457C53.1077 123.387 53.088 123.312 53.0693 123.24L53.0729 123.234Z" fill="url(#paint0_linear_20_673)"/>
<path d="M126.161 8.86719L135.073 43.0498L102.458 77.5886L96.5844 83.6849L88.594 81.2015L43.2702 66.9879L34.3576 32.7999C34.284 32.5179 34.2669 32.2239 34.3074 31.935C34.348 31.6461 34.4453 31.3678 34.5938 31.116C34.7423 30.8643 34.9392 30.644 35.173 30.4678C35.4069 30.2915 35.6733 30.1628 35.9569 30.089L123.443 7.28188C123.726 7.20797 124.021 7.19036 124.312 7.23003C124.602 7.2697 124.881 7.36588 125.133 7.5131C125.386 7.66031 125.607 7.85568 125.783 8.08802C125.959 8.32036 126.088 8.58512 126.161 8.86719Z" fill="white"/>
<path d="M77.7825 32.5601L57.8719 37.7507C57.0918 37.9541 56.5198 38.3504 56.5942 38.6359C56.6687 38.9214 57.3614 38.988 58.1414 38.7847L78.052 33.5941C78.8321 33.3907 79.4041 32.9944 79.3297 32.7089C79.2552 32.4234 78.5625 32.3568 77.7825 32.5601Z" fill="#061457"/>
<path d="M109.734 34.776L60.4459 47.625C59.6658 47.8284 59.0938 48.2247 59.1682 48.5102C59.2427 48.7957 59.9353 48.8623 60.7154 48.659L110.003 35.8099C110.783 35.6066 111.355 35.2102 111.281 34.9247C111.206 34.6392 110.514 34.5726 109.734 34.776Z" fill="#061457"/>
<path d="M94.5281 49.2854L62.5248 57.6285C62.0183 57.7605 61.668 58.099 61.7424 58.3845C61.8169 58.6701 62.2878 58.7945 62.7943 58.6624L94.7976 50.3193C95.3041 50.1873 95.6544 49.8488 95.5799 49.5633C95.5055 49.2778 95.0346 49.1533 94.5281 49.2854Z" fill="#061457"/>
<path d="M153.921 96.9478L153.924 96.962C154.211 98.0791 154.042 99.2649 153.453 100.26C152.863 101.255 151.903 101.978 150.781 102.271L58.4175 126.35C57.8597 126.496 57.2784 126.532 56.7074 126.453C56.1363 126.375 55.5869 126.185 55.0907 125.893C54.1534 125.352 53.4539 124.482 53.1292 123.453L53.0712 123.23L91.3326 82.7888C91.5146 82.5902 91.7156 82.406 91.9105 82.2292C91.9146 82.2281 91.9133 82.2234 91.9187 82.222C92.3014 81.8828 92.712 81.5763 93.1463 81.3058C93.9355 80.8186 94.7922 80.4497 95.6888 80.211C97.0931 79.8378 98.5661 79.8054 99.9838 80.1166L100.016 80.1233C100.274 80.1771 100.531 80.2469 100.786 80.3267L153.921 96.9478Z" fill="#3163D8"/>
<path d="M26.3691 45.6997C25.7802 45.6997 25.1912 45.5011 24.7127 45.0965C23.6158 44.177 23.4685 42.544 24.3814 41.448C25.3017 40.352 26.936 40.2049 28.0403 41.117C28.5704 41.5583 28.9016 42.1836 28.9605 42.875C29.0268 43.5665 28.8133 44.2359 28.3716 44.7729C27.8562 45.3834 27.12 45.6997 26.3765 45.6997H26.3691ZM25.5372 44.1108C26.0894 44.5669 26.9139 44.4933 27.3704 43.9416C27.5986 43.6768 27.7016 43.3385 27.6648 42.9927C27.6354 42.647 27.4734 42.3307 27.201 42.11C26.6489 41.6466 25.8243 41.7275 25.3679 42.2792C25.1397 42.544 25.0366 42.8824 25.0734 43.2281C25.1029 43.5738 25.2648 43.8901 25.5372 44.1108Z" fill="#FFAF2B"/>
<path d="M6.21938 37.5853C5.9838 37.0704 5.57153 36.6806 5.04147 36.482C4.51141 36.2834 3.94454 36.2981 3.4292 36.5335C3.0243 36.71 2.53841 36.5335 2.347 36.1215C2.25865 35.9229 2.2513 35.7023 2.33228 35.5036C2.41326 35.2977 2.5605 35.1359 2.75927 35.0476C3.0832 34.9005 3.23043 34.518 3.08319 34.1943C2.93595 33.8706 2.55314 33.7235 2.22921 33.8706C1.71388 34.0987 1.32369 34.518 1.11755 35.0476C0.918782 35.5772 0.933511 36.1436 1.16909 36.6585C1.52247 37.4382 2.2881 37.9017 3.09792 37.9017C3.38503 37.9017 3.67951 37.8428 3.95926 37.7178C4.15067 37.6295 4.37889 37.6221 4.57766 37.6957C4.77644 37.7693 4.9384 37.9237 5.02674 38.1223C5.21079 38.5343 5.02675 39.0124 4.62184 39.1963C4.29792 39.3434 4.15068 39.7259 4.29792 40.0496C4.40098 40.2923 4.64393 40.4321 4.88687 40.4321C4.97522 40.4321 5.06356 40.4174 5.1519 40.3732C6.21202 39.8951 6.68318 38.6446 6.21201 37.5853H6.21938Z" fill="#FF6280"/>
<path d="M25.6474 21.3146L23.7333 21.4912L23.5566 19.5786C23.5272 19.2255 23.2622 18.9607 22.8573 18.9902C22.5039 19.0196 22.2389 19.3359 22.2683 19.689L22.445 21.6015L20.5309 21.778C20.1775 21.8075 19.9125 22.1238 19.9419 22.4768C19.9714 22.8152 20.2585 23.0653 20.5898 23.0653C20.6045 23.0653 20.6266 23.0653 20.6487 23.0653L22.5628 22.8888L22.7395 24.8013C22.7689 25.1397 23.056 25.3898 23.3873 25.3898C23.402 25.3898 23.4241 25.3898 23.4462 25.3898C23.7996 25.3603 24.0646 25.044 24.0352 24.691L23.8585 22.7784L25.7726 22.6019C26.126 22.5725 26.391 22.2562 26.3615 21.9031C26.3321 21.55 26.0671 21.2778 25.6622 21.3146H25.6474Z" fill="#7CDCFE"/>
<path d="M57.6104 122.882C57.6104 122.882 91.8026 84.418 96.0767 83.347C100.351 82.276 149.502 98.3061 149.502 98.3061" stroke="white" stroke-width="1.06851" stroke-linecap="round" stroke-linejoin="round"/>
<path d="M106.033 52L110.033 52.0122L110 63.0121L108.004 61.506L106 62.9999L106.033 52Z" fill="#FF6280"/>
<path d="M108 52.4023L111.198 50L117.805 58.7953L115.305 58.7971L114.606 61.1976L108 52.4023Z" fill="#FF6280"/>
<circle cx="107.179" cy="49.0909" r="7.37313" fill="#FFAF2B"/>
<defs>
<linearGradient id="paint0_linear_20_673" x1="53.0968" y1="123.347" x2="53.1017" y2="123.345" gradientUnits="userSpaceOnUse">
<stop stop-color="#3850B7"/>
<stop offset="1" stop-color="#253DAC"/>
</linearGradient>
</defs>
</svg>
