<svg width="63" height="62" viewBox="0 0 63 62" fill="none" xmlns="http://www.w3.org/2000/svg">
<path d="M17.6707 11.9235L18.6678 9.00146L17.9252 6.00459L20.8473 7.00167L23.8442 6.2591L22.8471 9.18117L23.5897 12.178L20.6676 11.181L17.6707 11.9235Z" fill="#7CDCFE"/>
<path d="M16.8194 18.7966L17.5045 16.7738L16.9906 14.6942L19.0184 15.3847L21.0979 14.8709L20.4074 16.8986L20.9163 18.9727L18.8935 18.2876L16.8194 18.7966Z" fill="#FFAF2B"/>
<path d="M26.0523 10.3244L26.7428 8.29666L26.2289 6.21715L28.2566 6.90764L30.3361 6.39376L29.6457 8.42148L30.1546 10.4956L28.1318 9.8105L26.0523 10.3244Z" fill="#FF6280"/>
<path d="M32.1015 49.1856L40.0085 51.5616C40.0085 51.5616 41.294 51.6901 42.0948 49.9135C42.0948 49.9135 44.9538 45.4779 47.0112 44.3849C47.0112 44.3849 51.6438 41.8079 53.2425 39.7551C53.2425 39.7551 57.4034 35.0831 56.9501 28.9147C56.9501 28.9147 56.3447 22.096 52.6103 19.0076C52.6103 19.0076 48.8626 14.8509 42.2207 14.3341C42.2207 14.3341 35.7683 14.2058 31.1925 18.5643C31.1925 18.5643 26.3385 23.6916 26.3854 28.0719C26.3854 28.0719 26.2602 33.0911 28.3887 38.0069C28.3887 38.0069 30.2403 41.6831 30.0331 44.993L29.7727 46.8554C29.7727 46.8554 29.1919 48.3106 32.1018 49.1851L32.1015 49.1856Z" fill="#FFAF2B"/>
<path d="M53.0455 24.6585C53.0455 24.6585 54.8401 29.1361 53.8778 31.79C53.8778 31.79 52.9286 35.5457 50.8728 37.5885C50.8728 37.5885 49.4944 38.9452 48.9274 39.2066C48.9274 39.2066 47.8972 39.3653 48.6944 38.3927C49.4916 37.4201 51.2702 34.5318 51.3191 32.263C51.3191 32.263 52.0082 29.416 50.8484 26.5103C50.8484 26.5103 49.6913 23.8047 49.612 23.6205C49.5327 23.4363 49.1493 22.293 49.9444 21.7826C49.9444 21.7826 50.9247 21.2933 52.1783 23.0347C52.1783 23.0347 52.8981 24.2624 53.0453 24.6576L53.0455 24.6585Z" fill="#FFFEFE"/>
<path d="M40.2092 51.6943L38.3689 58.0287C38.3689 58.0287 37.9029 60.3098 36.0259 59.8849L30.9981 58.4298C30.9981 58.4298 27.9812 57.8391 28.7566 55.2516C29.532 52.664 30.8264 48.3597 30.8264 48.3597L40.2087 51.694L40.2092 51.6943Z" fill="#364CFF"/>
<path d="M40.0605 52.7419L30.187 49.5324C29.8416 49.4201 29.468 49.6167 29.3527 49.9716L29.3525 49.9722C29.2371 50.327 29.4237 50.7057 29.7692 50.818L39.6426 54.0275C39.9881 54.1398 40.3616 53.9431 40.477 53.5883L40.4772 53.5877C40.5925 53.2329 40.4059 52.8542 40.0605 52.7419Z" fill="#AFB7FF"/>
<path d="M39.4098 55.128L29.442 51.8879C29.0933 51.7745 28.7169 51.9709 28.6015 52.3257C28.4862 52.6805 28.6754 53.0601 29.0241 53.1735L38.9919 56.4136C39.3406 56.5269 39.7171 56.3306 39.8324 55.9758C39.9477 55.6209 39.7585 55.2414 39.4098 55.128Z" fill="#AFB7FF"/>
<path d="M38.4412 57.547L28.893 54.4432C28.5589 54.3346 28.1946 54.5342 28.0792 54.8891L28.079 54.8897C27.9637 55.2445 28.141 55.6202 28.4751 55.7288L38.0233 58.8325C38.3574 58.9411 38.7218 58.7415 38.8371 58.3867L38.8373 58.3861C38.9526 58.0313 38.7753 57.6556 38.4412 57.547Z" fill="#AFB7FF"/>
<path fill-rule="evenodd" clip-rule="evenodd" d="M14.47 45.2685L9.72593 46.0103C6.95271 46.444 4.29497 44.7296 3.54652 42.0243L0.807565 32.1243C-0.0957433 28.8593 2.1247 25.5576 5.48929 25.1627L26.2306 22.7289C29.6265 22.3304 32.5656 25.0806 32.3934 28.4955L31.9093 38.0899C31.7775 40.7038 29.83 42.8666 27.2443 43.2709L19.6302 44.4616L20.3333 47.7412C20.4632 48.3469 19.7917 48.8041 19.2757 48.4613L14.47 45.2685Z" fill="#8694FF"/>
<path d="M6.73682 31.9468L27.9644 28.9966" stroke="white" stroke-width="1.5" stroke-linecap="round" stroke-linejoin="round"/>
<path d="M7.32764 36.1919L27.4938 33.3892" stroke="white" stroke-width="1.5" stroke-linecap="round" stroke-linejoin="round"/>
<path d="M7.91602 40.4375L20.6526 38.6674" stroke="white" stroke-width="1.5" stroke-linecap="round" stroke-linejoin="round"/>
</svg>
