<svg width="172" height="167" viewBox="0 0 172 167" fill="none" xmlns="http://www.w3.org/2000/svg">
<g clip-path="url(#clip0_310_1040)">
<path d="M129.314 141.471C124.304 144.095 98.3139 154.83 92.7828 157.722C87.2516 160.615 84.1757 160.594 79.8025 158.492C75.4292 156.39 47.7819 145.181 42.8006 142.794C40.3015 141.592 38.9979 140.584 38.9979 139.637V130.096C38.9979 130.096 74.9982 122.201 80.8146 120.131C86.631 118.06 88.674 117.96 93.5866 119.775C98.4992 121.59 128.112 126.959 132.996 128.753V138.164C133 139.141 131.869 140.128 129.314 141.471Z" fill="#5E70FF"/>
<path d="M129.316 131.928C124.305 134.553 98.3157 145.277 92.7846 148.18C87.2535 151.082 84.1776 151.051 79.8043 148.949C75.431 146.847 47.7839 135.627 42.8025 133.241C37.8212 130.855 37.7128 129.207 42.6066 127.321C47.5005 125.434 75.0291 114.563 80.8185 112.52C86.6078 110.477 88.678 110.349 93.5906 112.165C98.5032 113.98 124.374 124.311 129.255 126.108C134.137 127.904 134.335 129.393 129.316 132.028V131.928Z" fill="#8694FF"/>
<path d="M129.314 125.909C124.304 128.544 98.3139 139.269 92.7828 142.161C87.2516 145.053 84.1757 145.032 79.8025 142.941C75.4292 140.85 47.7819 129.621 42.8006 127.233C40.3015 126.028 38.9979 125.022 38.9979 124.075V114.534C38.9979 114.534 74.9982 106.642 80.8146 104.569C86.631 102.497 88.674 102.398 93.5866 104.214C98.4992 106.029 128.112 111.397 132.996 113.192V122.626C132.996 123.613 131.865 124.6 129.312 125.941L129.314 125.909Z" fill="#5E70FF"/>
<path d="M129.316 116.377C124.305 119.001 98.3157 129.736 92.7846 132.628C87.2535 135.521 84.1776 135.5 79.8043 133.398C75.431 131.296 47.7839 120.087 42.8025 117.7C37.8212 115.314 37.7128 113.664 42.6066 111.78C47.5005 109.896 75 98.9517 80.8185 96.8792C86.637 94.8066 88.678 94.7084 93.5906 96.5237C98.5032 98.3389 124.374 108.67 129.255 110.467C134.137 112.263 134.335 113.752 129.316 116.387V116.377Z" fill="#8694FF"/>
<path d="M129.314 109.795C124.304 112.42 98.3139 123.155 92.7828 126.047C87.2516 128.939 84.1757 128.918 79.8025 126.817C75.4292 124.715 47.7819 113.486 42.8006 111.088C40.3015 109.894 38.9979 108.888 38.9979 107.951V98.3995C38.9979 98.3995 74.9982 90.5068 80.8146 88.4427C86.631 86.3785 88.674 86.2718 93.5866 88.0871C98.4992 89.9024 128.112 95.2709 132.996 97.0652V106.476C132.996 107.463 131.865 108.45 129.312 109.791L129.314 109.795Z" fill="#5E70FF"/>
<path d="M129.316 100.235C124.306 102.889 98.3161 113.587 92.785 116.487C87.2538 119.388 84.1779 119.359 79.8047 117.257C75.4314 115.155 47.7842 103.937 42.8029 101.549C37.8215 99.1606 37.7131 97.5125 42.607 95.6282C47.5009 93.7439 75.0295 82.8711 80.8188 80.7693C86.6082 78.6675 88.6783 78.609 93.5909 80.4243C98.5036 82.2396 124.374 92.5708 129.256 94.3672C134.137 96.1637 134.335 97.6527 129.316 100.288V100.235Z" fill="#8694FF"/>
<path d="M87.4786 86.6672L93.6782 84.6345L91.9976 88.6708L98.3139 91.0382L90.1692 91.8872L88.3408 96.2978L85.394 91.3853L75.9916 90.5362L83.0074 87.991L80.9042 84.0928L87.4786 86.6672Z" fill="#DFE5EF"/>
<path d="M87.8616 112.42L72.6593 106.085L94.4423 102.739L87.8616 112.42Z" fill="#DFE5EF"/>
<path d="M66.7867 93.4954C73.2133 93.4954 78.43 95.5176 78.43 98.0251C78.43 100.533 73.2133 102.555 66.7867 102.555C60.3601 102.555 55.1434 100.583 55.1434 98.0251C55.1434 95.4674 60.3601 93.4954 66.7867 93.4954Z" fill="#DFE5EF"/>
<path d="M107.946 92.2427L120.836 97.3643L107.956 102.475L107.946 92.2427Z" fill="#364CFF"/>
<path d="M107.943 92.2427V102.475L106.548 103.028L93.6676 97.9059L107.943 92.2427Z" fill="#5E70FF"/>
<path d="M126.752 79.2913C127.683 79.2913 128.437 78.5338 128.437 77.5994C128.437 76.665 127.683 75.9075 126.752 75.9075C125.822 75.9075 125.068 76.665 125.068 77.5994C125.068 78.5338 125.822 79.2913 126.752 79.2913Z" fill="#FFAF2B"/>
<path d="M59.0798 76.4586C59.586 76.4586 59.9963 76.0465 59.9963 75.5381C59.9963 75.0298 59.586 74.6177 59.0798 74.6177C58.5736 74.6177 58.1632 75.0298 58.1632 75.5381C58.1632 76.0465 58.5736 76.4586 59.0798 76.4586Z" fill="#F74B57"/>
<path d="M116.34 43.7385C116.882 43.7385 117.321 43.2973 117.321 42.7531C117.321 42.2088 116.882 41.7676 116.34 41.7676C115.798 41.7676 115.359 42.2088 115.359 42.7531C115.359 43.2973 115.798 43.7385 116.34 43.7385Z" fill="#5BC69B"/>
<path d="M59.071 58.3778C60.7962 58.3778 62.1948 56.9733 62.1948 55.2408C62.1948 53.5082 60.7962 52.1038 59.071 52.1038C57.3458 52.1038 55.9473 53.5082 55.9473 55.2408C55.9473 56.9733 57.3458 58.3778 59.071 58.3778Z" fill="#FFAF2B"/>
<path d="M91.4803 32.0763C93.2055 32.0763 94.6041 30.6718 94.6041 28.9392C94.6041 27.2067 93.2055 25.8022 91.4803 25.8022C89.7551 25.8022 88.3566 27.2067 88.3566 28.9392C88.3566 30.6718 89.7551 32.0763 91.4803 32.0763Z" fill="#F74B57"/>
<path d="M86.0958 57.5078H92.8107" stroke="#7547DE" stroke-width="0.5" stroke-linecap="round"/>
<path d="M89.4532 54.1362V60.8795" stroke="#7547DE" stroke-width="0.5" stroke-linecap="round"/>
<path d="M49.7478 9.09131V15.8346" stroke="#4FDAE0" stroke-width="0.5" stroke-linecap="round"/>
<path d="M53.1052 12.463H46.3904" stroke="#4FDAE0" stroke-width="0.5" stroke-linecap="round"/>
</g>
<defs>
<clipPath id="clip0_310_1040">
<rect width="94" height="153" fill="white" transform="translate(39 7)"/>
</clipPath>
</defs>
</svg>
