<svg width="34" height="40" viewBox="0 0 34 40" fill="none" xmlns="http://www.w3.org/2000/svg">
<path d="M13.5657 19.3195C15.4497 17.4354 18.3193 17.2771 19.9916 18.9494C21.6639 20.6217 21.5392 23.4576 19.6215 25.3753C16.5557 28.4412 11.5047 28.3609 11.0424 27.8986C10.5801 27.4363 10.4998 22.3853 13.5657 19.3195Z" fill="#4766C4"/>
<path d="M24.4696 25.0393C22.5855 23.1553 22.4272 20.2857 24.0995 18.6134C25.7718 16.9411 28.6078 17.0658 30.5255 18.9835C33.5913 22.0493 33.511 27.1003 33.0487 27.5626C32.5864 28.0249 27.5354 28.1052 24.4696 25.0393Z" fill="#4766C4"/>
<path d="M21.6441 39.9998C21.6441 39.9998 17.9917 36.0129 18.1084 33.1419C18.2251 30.2708 22.2835 26.7764 22.2835 26.7764C22.2835 26.7764 25.842 30.6966 25.726 33.5477C25.6101 36.3988 21.6441 39.9998 21.6441 39.9998Z" fill="#FFAF2B"/>
<path d="M21.7811 36.4539C23.4175 36.5328 24.808 35.2702 24.887 33.6338C24.9659 31.9975 23.7034 30.6069 22.067 30.528C20.4306 30.449 19.04 31.7116 18.9611 33.348C18.8821 34.9844 20.1447 36.3749 21.7811 36.4539Z" fill="#FFC76B"/>
<ellipse cx="8.46131" cy="15.5124" rx="8.46131" ry="15.5124" transform="matrix(-1 -7.29593e-08 1.45871e-06 -1 30.4468 31.248)" fill="#7B90E0"/>
<path d="M18.6996 14.8126C17.0055 13.0576 17.0552 10.2513 18.8088 8.55719C20.5638 6.86313 23.3702 6.91287 25.0643 8.66645C26.7583 10.4214 26.7086 13.2278 24.955 14.9219C23.2 16.6159 20.3937 16.5662 18.6996 14.8126Z" fill="#E8EFFF"/>
<g filter="url(#filter0_d_74_2441)">
<path d="M5.50189 5.25197C4.85922 3.87699 5.45519 2.23533 6.82937 1.59237C8.20437 0.949696 9.84602 1.54567 10.489 2.91984C11.1317 4.29483 10.5357 5.93648 9.16151 6.57945C7.78651 7.22212 6.14486 6.62615 5.50189 5.25197Z" fill="#7547DE"/>
</g>
<ellipse cx="4.69609" cy="0.615757" rx="4.69609" ry="0.615757" transform="matrix(0.945876 0.324526 -0.324529 0.945876 3.61084 1.77637)" fill="#9E7EE8"/>
<g filter="url(#filter1_d_74_2441)">
<path d="M2.84497 16.1665C2.01091 15.6103 1.78489 14.4791 2.34051 13.6451C2.8967 12.8111 4.02792 12.585 4.86187 13.1407C5.69594 13.6969 5.92196 14.8281 5.36633 15.662C4.81014 16.4961 3.67893 16.7221 2.84497 16.1665Z" fill="#F74B57"/>
</g>
<ellipse cx="2.90796" cy="0.46104" rx="2.90796" ry="0.46104" transform="matrix(0.976991 -0.21328 0.213281 0.976991 0.653809 14.4365)" fill="#F98189"/>
<defs>
<filter id="filter0_d_74_2441" x="5.24316" y="1.3335" width="5.50439" height="5.64789" filterUnits="userSpaceOnUse" color-interpolation-filters="sRGB">
<feFlood flood-opacity="0" result="BackgroundImageFix"/>
<feColorMatrix in="SourceAlpha" type="matrix" values="0 0 0 0 0 0 0 0 0 0 0 0 0 0 0 0 0 0 127 0" result="hardAlpha"/>
<feOffset dy="0.143255"/>
<feComposite in2="hardAlpha" operator="out"/>
<feColorMatrix type="matrix" values="0 0 0 0 0.917647 0 0 0 0 0.929412 0 0 0 0 0.94902 0 0 0 1 0"/>
<feBlend mode="normal" in2="BackgroundImageFix" result="effect1_dropShadow_74_2441"/>
<feBlend mode="normal" in="SourceGraphic" in2="effect1_dropShadow_74_2441" result="shape"/>
</filter>
<filter id="filter1_d_74_2441" x="1.52212" y="12.2194" width="4.8684" height="4.8684" filterUnits="userSpaceOnUse" color-interpolation-filters="sRGB">
<feFlood flood-opacity="0" result="BackgroundImageFix"/>
<feColorMatrix in="SourceAlpha" type="matrix" values="0 0 0 0 0 0 0 0 0 0 0 0 0 0 0 0 0 0 127 0" result="hardAlpha"/>
<feOffset dx="0.102803"/>
<feGaussianBlur stdDeviation="0.308409"/>
<feComposite in2="hardAlpha" operator="out"/>
<feColorMatrix type="matrix" values="0 0 0 0 0 0 0 0 0 0 0 0 0 0 0 0 0 0 0.12 0"/>
<feBlend mode="normal" in2="BackgroundImageFix" result="effect1_dropShadow_74_2441"/>
<feBlend mode="normal" in="SourceGraphic" in2="effect1_dropShadow_74_2441" result="shape"/>
</filter>
</defs>
</svg>
