<svg viewBox="0 0 14 14" fill="none" xmlns="http://www.w3.org/2000/svg">
<path fill-rule="evenodd" clip-rule="evenodd" d="M12.6004 6.84642C12.6039 7.12644 12.4401 7.38159 12.1841 7.49509L2.38413 11.8399C2.13069 11.9523 1.83482 11.9045 1.62965 11.718C1.42448 11.5316 1.34867 11.2416 1.43634 10.9786L2.76255 6.99999L1.43634 3.02135C1.34967 2.76135 1.42271 2.47469 1.62322 2.28786C1.82373 2.10103 2.11482 2.04839 2.36806 2.15318L12.1681 6.20835C12.4268 6.31542 12.5969 6.56641 12.6004 6.84642ZM3.50042 6.99999L2.10042 11.2L11.9004 6.85516L2.10042 2.79999L3.50042 6.99999Z" fill="white"/>
<path fill-rule="evenodd" clip-rule="evenodd" d="M3.15042 6.64999H7.00042C7.19372 6.64999 7.35042 6.80669 7.35042 6.99999C7.35042 7.19329 7.19372 7.34999 7.00042 7.34999H3.15042V6.64999Z" fill="white"/>
</svg>
