<svg width="16" height="16" viewBox="0 0 16 16" fill="none" xmlns="http://www.w3.org/2000/svg">
<g clip-path="url(#clip0_102_9)">
<path d="M9.5001 14L9.4951 14.15C9.459 14.6404 9.2435 15.1003 8.88976 15.4419C8.53602 15.7835 8.06885 15.9828 7.57748 16.0017C7.08611 16.0206 6.60499 15.8579 6.22603 15.5445C5.84706 15.2312 5.59682 14.7892 5.5231 14.303L5.5051 14.149L5.5001 14H9.5001ZM14.8801 1.175C14.9561 1.2639 14.9985 1.37662 14.9999 1.49355C15.0014 1.61048 14.9618 1.72422 14.8881 1.815L14.8251 1.88L0.8251 13.88C0.730243 13.9608 0.608654 14.0032 0.484147 13.999C0.359639 13.9948 0.241181 13.9443 0.151972 13.8573C0.0627631 13.7704 0.0092291 13.6532 0.00185409 13.5289C-0.00552092 13.4045 0.0337944 13.2819 0.1121 13.185L0.1751 13.12L14.1751 1.12C14.225 1.07732 14.2828 1.04488 14.3453 1.02455C14.4077 1.00421 14.4735 0.996372 14.539 1.00148C14.6045 1.00659 14.6683 1.02454 14.7268 1.05431C14.7853 1.08408 14.8374 1.12509 14.8801 1.175V1.175ZM13.0361 5.51L13.0911 5.863L13.1391 6.231C13.2051 6.785 13.2421 7.211 13.2841 7.955L13.3641 9.446C13.5101 11.817 13.7661 12.499 14.5001 12.499C14.6327 12.499 14.7599 12.5517 14.8537 12.6454C14.9474 12.7392 15.0001 12.8664 15.0001 12.999C15.0001 13.1316 14.9474 13.2588 14.8537 13.3526C14.7599 13.4463 14.6327 13.499 14.5001 13.499C13.8971 13.499 13.4691 13.353 13.1601 13H4.1851L5.3671 12H12.6841C12.5121 11.356 12.4201 10.472 12.3541 9.292L12.2641 7.654C12.2311 7.14 12.1981 6.784 12.1461 6.35L12.1351 6.273L13.0361 5.51V5.51ZM7.5001 3.81613e-09C7.98152 -2.97213e-05 8.4468 0.173595 8.81052 0.489C9.17424 0.804404 9.41198 1.24042 9.4801 1.717C9.9561 1.83 10.3871 1.987 10.7721 2.189L9.9341 2.899C9.42366 2.70371 8.88789 2.58248 8.3431 2.539C8.43991 2.3879 8.49428 2.21353 8.5005 2.03418C8.50672 1.85483 8.46456 1.67711 8.37845 1.51967C8.29233 1.36222 8.16544 1.23085 8.01107 1.13933C7.85671 1.04781 7.68056 0.999522 7.5011 0.999522C7.32164 0.999522 7.14549 1.04781 6.99113 1.13933C6.83676 1.23085 6.70987 1.36222 6.62375 1.51967C6.53764 1.67711 6.49548 1.85483 6.5017 2.03418C6.50792 2.21353 6.56229 2.3879 6.6591 2.539C4.4551 2.75 3.2601 3.78 2.9501 5.671L2.9001 6.005L2.8541 6.352C2.7741 7.028 2.7391 7.513 2.6781 8.699L2.6641 8.964L2.6591 9.054L1.6011 9.951C1.6191 9.717 1.6361 9.463 1.6511 9.188L1.7281 7.761C1.7661 7.135 1.8011 6.736 1.8621 6.233C1.8921 5.983 1.9251 5.743 1.9641 5.509C2.2981 3.469 3.5101 2.196 5.5191 1.717L5.5231 1.698C5.59529 1.2254 5.83439 0.794285 6.19707 0.482788C6.55975 0.171291 7.02201 1.61454e-05 7.5001 3.81613e-09V3.81613e-09Z"/>
</g>
<defs>
<clipPath id="clip0_102_9">
<rect width="16" height="16" fill="white"/>
</clipPath>
</defs>
</svg>
