<svg xmlns="http://www.w3.org/2000/svg" width="12" height="12" viewBox="0 0 12 12" fill="none">
  <path fill-rule="evenodd" clip-rule="evenodd" d="M6 0C5.68125 0 5.3625 0.171 5.208 0.5115L3.87751 3.435L0.750021 3.88125C0.0397742 3.98325 -0.251225 4.857 0.254273 5.36775L2.56651 7.704L2.00402 10.9725C1.90652 11.5417 2.35726 12 2.86351 12C3.00601 12 3.15301 11.964 3.29251 11.8845L6 10.3425L8.70749 11.8845C8.84699 11.964 8.99399 12 9.13649 12C9.64273 12 10.0935 11.5417 9.99598 10.9725L9.43349 7.704L11.7457 5.36775C12.2512 4.857 11.9602 3.98325 11.25 3.88125L8.12249 3.435L6.792 0.5115C6.6375 0.171 6.31875 0 6 0Z" fill="#FFAF2B"/>
</svg>
