<svg xmlns="http://www.w3.org/2000/svg" fill="none" viewBox="0 0 16 16">
  <g id="ico_treeview" data-name="ico/treeview" transform="translate(-1381 -692)">
    <rect id="Rectangle_16996" data-name="Rectangle 16996" width="16" height="16" transform="translate(1381 692)" fill="#8ba2ff" opacity="0"/>
    <path id="Path_10348" data-name="Path 10348" d="M19814.5,2879a.48.48,0,0,1-.5-.463V2876h-4.045a.924.924,0,0,1-.955-.891V2864h1v3h4v-2.5a.5.5,0,0,1,.5-.5h4a.5.5,0,0,1,.5.5v.5h3.5a.484.484,0,0,1,.5.468v5.064a.477.477,0,0,1-.5.463h-8a.477.477,0,0,1-.5-.463V2868h-4v7h4v-2.5a.5.5,0,0,1,.5-.5h4a.5.5,0,0,1,.5.5v.5h3.5a.484.484,0,0,1,.5.468v5.069a.48.48,0,0,1-.5.463Zm.5-1h7v-4h-4v-1h-3Zm0-8h7V2866h-4v-1h-3Z" transform="translate(-18427 -2171)" fill="#b5b6c0"/>
  </g>
</svg>
