<svg width="16" height="16" viewBox="0 0 16 16" fill="currentColor" xmlns="http://www.w3.org/2000/svg">
<path fill-rule="evenodd" clip-rule="evenodd" d="M7.99902 16.4988C3.58075 16.4988 -0.000976562 12.9171 -0.000976562 8.49878C-0.000976562 4.0805 3.58075 0.498779 7.99902 0.498779C12.4173 0.498779 15.999 4.0805 15.999 8.49878C15.999 12.9171 12.4173 16.4988 7.99902 16.4988ZM8.00032 15.5001C11.8663 15.5001 15.0003 12.3661 15.0003 8.50008C15.0003 4.63409 11.8663 1.50008 8.00032 1.50008C4.13433 1.50008 1.00032 4.63409 1.00032 8.50008C1.00032 12.3661 4.13433 15.5001 8.00032 15.5001ZM3.50032 5.50008H12.5003C12.7765 5.50008 13.0003 5.72394 13.0003 6.00008C13.0003 6.27622 12.7765 6.50008 12.5003 6.50008H3.50032C3.22418 6.50008 3.00032 6.27622 3.00032 6.00008C3.00032 5.72394 3.22418 5.50008 3.50032 5.50008ZM5.50032 8.50008H10.5003C10.7765 8.50008 11.0003 8.72394 11.0003 9.00008C11.0003 9.27622 10.7765 9.50008 10.5003 9.50008H5.50032C5.22418 9.50008 5.00032 9.27622 5.00032 9.00008C5.00032 8.72394 5.22418 8.50008 5.50032 8.50008ZM7.50032 11.5001H8.50032C8.77647 11.5001 9.00032 11.7239 9.00032 12.0001C9.00032 12.2762 8.77647 12.5001 8.50032 12.5001H7.50032C7.22418 12.5001 7.00032 12.2762 7.00032 12.0001C7.00032 11.7239 7.22418 11.5001 7.50032 11.5001Z"/>
</svg>
