<svg width="10" height="10" viewBox="0 0 10 10" fill="none" xmlns="http://www.w3.org/2000/svg">
<path d="M5 7.1696C4.92043 7.1696 4.84413 7.13799 4.78787 7.08173C4.73161 7.02547 4.7 6.94916 4.7 6.8696V4.4696C4.7 4.39003 4.73161 4.31373 4.78787 4.25747C4.84413 4.20121 4.92043 4.1696 5 4.1696C5.07957 4.1696 5.15587 4.20121 5.21213 4.25747C5.26839 4.31373 5.3 4.39003 5.3 4.4696V6.8696C5.3 6.94916 5.26839 7.02547 5.21213 7.08173C5.15587 7.13799 5.07957 7.1696 5 7.1696Z" fill="#D8AB52"/>
<path d="M4.8374 3.5456C4.8729 3.5627 4.91202 3.57094 4.9514 3.5696C4.99078 3.57094 5.0299 3.5627 5.0654 3.5456C5.10268 3.53248 5.13581 3.50971 5.1614 3.4796C5.19025 3.45284 5.21317 3.42032 5.22867 3.38414C5.24418 3.34797 5.25192 3.30895 5.2514 3.2696C5.25185 3.23017 5.24409 3.19108 5.22859 3.15482C5.21309 3.11856 5.19021 3.08592 5.1614 3.059C5.10532 3.00403 5.02993 2.97324 4.9514 2.97324C4.87287 2.97324 4.79748 3.00403 4.7414 3.059C4.71259 3.08592 4.68971 3.11856 4.67422 3.15482C4.65872 3.19108 4.65095 3.23017 4.6514 3.2696C4.65088 3.30895 4.65863 3.34797 4.67413 3.38414C4.68963 3.42032 4.71255 3.45284 4.7414 3.4796C4.76699 3.50971 4.80012 3.53248 4.8374 3.5456Z" fill="#D8AB52"/>
<path fill-rule="evenodd" clip-rule="evenodd" d="M5 0.5C3.80653 0.5 2.66193 0.974107 1.81802 1.81802C0.974107 2.66193 0.5 3.80653 0.5 5C0.5 6.19347 0.974107 7.33807 1.81802 8.18198C2.66193 9.02589 3.80653 9.5 5 9.5C6.19347 9.5 7.33807 9.02589 8.18198 8.18198C9.02589 7.33807 9.5 6.19347 9.5 5C9.5 3.80653 9.02589 2.66193 8.18198 1.81802C7.33807 0.974107 6.19347 0.5 5 0.5ZM5 8.9C3.96605 8.89873 2.9748 8.48743 2.24369 7.75631C1.51257 7.0252 1.10127 6.03395 1.1 5C1.10127 3.96605 1.51257 2.9748 2.24369 2.24369C2.9748 1.51257 3.96605 1.10127 5 1.1C6.03395 1.10127 7.0252 1.51257 7.75631 2.24369C8.48743 2.9748 8.89873 3.96605 8.9 5C8.89873 6.03395 8.48743 7.0252 7.75631 7.75631C7.0252 8.48743 6.03395 8.89873 5 8.9Z" fill="#D8AB52"/>
</svg>
