<svg width="92" height="119" viewBox="0 0 92 119" fill="none" xmlns="http://www.w3.org/2000/svg">
<g clip-path="url(#clip0_176_7189)">
<path d="M68.0757 5.25468C67.7585 5.25468 67.4523 5.1523 67.2008 4.95484C66.8946 4.72081 66.6978 4.37708 66.6504 3.99314C66.603 3.60919 66.7014 3.22889 66.9383 2.92539C67.1753 2.61823 67.5143 2.42077 67.8971 2.37324C68.2834 2.32204 68.6589 2.42443 68.9615 2.66211C69.2677 2.89614 69.4645 3.23986 69.5119 3.62381C69.5593 4.00776 69.4609 4.38806 69.2239 4.69156C68.987 4.99872 68.648 5.19618 68.2652 5.24371C68.1996 5.25103 68.1376 5.25468 68.0757 5.25468ZM68.0793 3.00218C68.0429 3.00218 68.0101 3.00218 67.9736 3.00949C67.7622 3.03875 67.569 3.14479 67.4414 3.31665C67.3102 3.48852 67.2555 3.69695 67.281 3.91269C67.3102 4.12478 67.4159 4.31492 67.5872 4.44656C67.7585 4.5782 67.97 4.63305 68.1777 4.60745C68.3892 4.5782 68.5824 4.47216 68.7099 4.3003C68.8412 4.12843 68.8958 3.92 68.8703 3.70426C68.8412 3.49217 68.7355 3.30203 68.5641 3.17039C68.422 3.06069 68.2543 3.00218 68.0757 3.00218H68.0793Z" fill="#C1CBD9"/>
<path d="M77.6117 11.1384L76.4598 11.2883L76.3103 10.1365C76.2848 9.96096 76.1208 9.82932 75.9531 9.85857C75.7781 9.88051 75.6542 10.0414 75.676 10.2169L75.8255 11.3688L74.6772 11.5187C74.5023 11.5406 74.3783 11.7015 74.4002 11.877C74.4221 12.0379 74.5606 12.1586 74.7173 12.1586C74.7319 12.1586 74.7465 12.1586 74.7574 12.1586L75.9057 12.0087L76.0552 13.1605C76.077 13.3214 76.2155 13.4421 76.3723 13.4421C76.3869 13.4421 76.4015 13.4421 76.4124 13.4421C76.5874 13.4202 76.7113 13.2593 76.6894 13.0837L76.54 11.9319L77.6882 11.782C77.8632 11.76 77.9871 11.5991 77.9653 11.4236C77.9397 11.2481 77.7794 11.1201 77.608 11.1457L77.6117 11.1384Z" fill="#C1CBD9"/>
<path d="M87.0856 100.017C86.794 100.017 86.5024 99.9186 86.2654 99.7175C85.7223 99.2604 85.6494 98.4487 86.1014 97.9038C86.557 97.359 87.3663 97.2858 87.9131 97.7393C88.1755 97.9587 88.3396 98.2695 88.3687 98.6132C88.4015 98.9569 88.2958 99.2897 88.0771 99.5566C87.8219 99.8601 87.4574 100.017 87.0892 100.017H87.0856ZM86.6737 99.2275C86.9471 99.4542 87.3553 99.4177 87.5813 99.1434C87.6943 99.0118 87.7454 98.8436 87.7272 98.6717C87.7126 98.4998 87.6324 98.3426 87.4975 98.2329C87.2241 98.0025 86.8158 98.0428 86.5898 98.317C86.4768 98.4487 86.4258 98.6169 86.444 98.7887C86.4586 98.9606 86.5388 99.1178 86.6737 99.2275Z" fill="#C1CBD9"/>
<path d="M77.1086 95.9839C76.9919 95.7279 76.7878 95.5341 76.5253 95.4354C76.2629 95.3367 75.9822 95.344 75.727 95.461C75.5265 95.5488 75.2859 95.461 75.1912 95.2562C75.1474 95.1575 75.1438 95.0478 75.1839 94.9491C75.224 94.8467 75.2969 94.7662 75.3953 94.7224C75.5557 94.6492 75.6286 94.4591 75.5557 94.2982C75.4828 94.1373 75.2932 94.0642 75.1328 94.1373C74.8777 94.2507 74.6845 94.4591 74.5824 94.7224C74.484 94.9856 74.4913 95.2672 74.6079 95.5232C74.7829 95.9108 75.162 96.1412 75.563 96.1412C75.7051 96.1412 75.8509 96.1119 75.9895 96.0497C76.0842 96.0059 76.1972 96.0022 76.2957 96.0388C76.3941 96.0753 76.4743 96.1521 76.518 96.2509C76.6092 96.4556 76.518 96.6933 76.3175 96.7847C76.1572 96.8579 76.0842 97.048 76.1571 97.2089C76.2082 97.3296 76.3285 97.399 76.4488 97.399C76.4925 97.399 76.5363 97.3917 76.58 97.3698C77.1049 97.1321 77.3382 96.5105 77.1049 95.9839H77.1086Z" fill="#C1CBD9"/>
<path d="M86.7284 87.8954L85.7806 87.9831L85.6931 87.0324C85.6786 86.8569 85.5473 86.7253 85.3468 86.7399C85.1719 86.7545 85.0406 86.9117 85.0552 87.0873L85.1427 88.038L84.1949 88.1258C84.02 88.1404 83.8887 88.2976 83.9033 88.4731C83.9179 88.6413 84.0601 88.7657 84.2241 88.7657C84.2314 88.7657 84.2423 88.7657 84.2533 88.7657L85.201 88.6779L85.2885 89.6286C85.3031 89.7968 85.4453 89.9212 85.6093 89.9212C85.6166 89.9212 85.6275 89.9212 85.6385 89.9212C85.8134 89.9065 85.9447 89.7493 85.9301 89.5738L85.8426 88.6231L86.7904 88.5353C86.9653 88.5207 87.0966 88.3634 87.082 88.1879C87.0674 88.0124 86.9362 87.8771 86.7357 87.8954H86.7284Z" fill="#C1CBD9"/>
<path d="M71.6407 62.5654L73.4888 59.1245L74.8886 61.7354C75.1912 62.2985 74.7829 62.9823 74.1486 62.9823H71.8886C71.6772 62.9823 71.5423 62.7556 71.6407 62.5654Z" fill="#52329B"/>
<path d="M75.1219 70.1129C75.1219 69.5132 74.7975 68.9537 74.2762 68.6466C73.9445 68.4528 73.7476 68.1127 73.7476 67.7361C73.7476 67.3594 73.9445 67.0194 74.2762 66.8256C74.7975 66.5184 75.1219 65.9589 75.1219 65.3593C75.1219 64.7596 74.7975 64.2001 74.2762 63.8929C73.9445 63.6991 73.7476 63.3591 73.7476 62.9824H73.1061C73.1061 63.5821 73.4305 64.1452 73.9518 64.4487C74.2835 64.6425 74.4803 64.9826 74.4803 65.3593C74.4803 65.7359 74.2835 66.076 73.9518 66.2698C73.4305 66.5733 73.1061 67.1364 73.1061 67.7361C73.1061 68.3358 73.4305 68.8989 73.9518 69.2024C74.2835 69.3962 74.4803 69.7363 74.4803 70.1129C74.4803 70.4895 74.2835 70.8296 73.9518 71.0234C73.4305 71.3269 73.1061 71.89 73.1061 72.4897C73.1061 73.0894 73.4305 73.6526 73.9518 73.9561C74.2835 74.1499 74.4803 74.4899 74.4803 74.8666C74.4803 75.2432 74.2835 75.5833 73.9518 75.7771C73.4305 76.0806 73.1061 76.6437 73.1061 77.2434C73.1061 77.8431 73.4305 78.4062 73.9518 78.7097C74.2835 78.9035 74.4803 79.2436 74.4803 79.6202C74.4803 79.9969 74.2835 80.3369 73.9518 80.5307L74.2762 81.0865C74.7975 80.783 75.1219 80.2199 75.1219 79.6202C75.1219 79.0205 74.7975 78.4611 74.2762 78.1539C73.9445 77.9601 73.7476 77.62 73.7476 77.2434C73.7476 76.8668 73.9445 76.5267 74.2762 76.3329C74.7975 76.0257 75.1219 75.4663 75.1219 74.8666C75.1219 74.2669 74.7975 73.7074 74.2762 73.4002C73.9445 73.2064 73.7476 72.8664 73.7476 72.4897C73.7476 72.1131 73.9445 71.773 74.2762 71.5792C74.7975 71.2721 75.1219 70.7126 75.1219 70.1129Z" fill="#CDD1D3"/>
<path d="M87.1986 27.0484C88.4708 27.3592 89.455 28.3465 89.7648 29.6227C90.4392 32.3945 91.5036 37.6345 91.5036 43.0207C91.5036 48.407 90.4392 53.6433 89.7648 56.4187C89.455 57.6949 88.4708 58.6822 87.1986 58.993C84.4355 59.6695 79.2118 60.7372 73.8424 60.7372C68.4766 60.7372 63.2529 59.6695 60.4862 58.993C59.214 58.6822 58.2298 57.6949 57.9199 56.4187C57.2456 53.647 56.1812 48.407 56.1812 43.0207C56.1812 37.6345 57.2456 32.3981 57.9199 29.6227C58.2298 28.3465 59.214 27.3592 60.4862 27.0484C63.2493 26.3719 68.4729 25.3042 73.8424 25.3042C79.2118 25.3042 84.4318 26.3719 87.1986 27.0484Z" fill="#7547DE"/>
<path opacity="0.7" d="M62.7827 38.6328C62.7827 34.3655 63.0597 29.5095 61.6527 29.9592C59.9139 30.5114 59.5421 34.4313 59.4692 37.7223C59.4364 39.2508 60.1909 39.4629 60.1909 39.4629C60.1909 39.4629 59.2687 40.3917 59.2833 41.357C59.2905 41.7446 59.2614 43.4413 59.3452 44.2604C59.4764 45.5256 60.5482 45.8474 60.5482 45.8474C60.5482 45.8474 59.5202 46.3667 59.6769 47.6355C59.9904 50.1513 60.4752 52.327 60.8215 53.7641C61.0986 54.9086 62.0099 55.6985 63.1217 56.0714C66.2056 57.1026 67.7001 55.8703 67.7001 55.8703C67.7001 55.8703 67.2955 57.9217 73.4815 57.7791C74.9651 57.7462 74.8703 56.7296 74.8703 56.7296C74.8703 56.7296 75.5228 57.6365 76.7805 57.6145C81.3261 57.5268 86.5862 57.567 86.0503 55.2523C85.766 54.0274 82.4415 54.042 78.1073 54.0603C63.8908 54.1151 62.779 48.5168 62.7827 38.6365V38.6328Z" fill="#52329B"/>
<path d="M55.3354 119.004C69.7561 119.004 81.4463 116.476 81.4463 113.358C81.4463 110.24 69.7561 107.712 55.3354 107.712C40.9147 107.712 29.2245 110.24 29.2245 113.358C29.2245 116.476 40.9147 119.004 55.3354 119.004Z" fill="#292929"/>
<path d="M30.4056 118.309C37.8041 118.309 43.8019 117.012 43.8019 115.413C43.8019 113.813 37.8041 112.517 30.4056 112.517C23.007 112.517 17.0093 113.813 17.0093 115.413C17.0093 117.012 23.007 118.309 30.4056 118.309Z" fill="#292929"/>
<g filter="url(#filter0_d_176_7189)">
<path d="M12.063 90.9152C12.6275 87.0351 16.23 84.351 20.1094 84.92L48.5 89.0847C47.3711 96.8448 40.1661 102.213 32.4073 101.075L18.0652 98.971C14.1858 98.402 11.4985 94.7952 12.063 90.9152Z" fill="#465282" shape-rendering="crispEdges"/>
<path d="M15.8931 93.4984L16.4402 93.5786L18.1663 89.8345L18.7189 93.9129L19.2729 93.9942L21.2817 89.2303L20.7207 89.148L19.1191 93.0094L18.5391 88.8279L18.1096 88.7649L16.3646 92.5912L15.9418 88.447L15.3254 88.3565L15.8931 93.4984ZM22.5723 94.5418C23.3896 94.6617 24.0476 94.3691 24.278 93.66L23.7032 93.5757C23.5655 93.9871 23.2098 94.1472 22.6488 94.0649C21.9077 93.9562 21.5795 93.4411 21.6717 92.6127L24.4005 93.013L24.4277 92.8259C24.6161 91.5306 23.9002 90.9091 23.0621 90.7861C22.0648 90.6398 21.2544 91.2992 21.0952 92.3937L21.0871 92.4491C20.9249 93.5644 21.5473 94.3914 22.5723 94.5418ZM21.76 92.1516C21.9507 91.5216 22.4039 91.1777 22.9926 91.2641C23.5882 91.3515 23.9327 91.7062 23.8793 92.4625L21.76 92.1516ZM25.0495 94.8415L25.6313 94.9269L26.4103 89.5722L25.8285 89.4869L25.0495 94.8415ZM28.3015 95.3822C29.1742 95.5102 29.8891 95.0208 30.0792 94.2492L29.5459 94.171C29.3979 94.7507 28.8905 94.9805 28.378 94.9053C27.6785 94.8027 27.2622 94.2605 27.3912 93.3738L27.3993 93.3184C27.5232 92.4664 28.1054 92.0141 28.7634 92.1106C29.262 92.1838 29.6463 92.4595 29.6527 93.0476L30.2207 93.1309C30.2439 92.1934 29.5878 91.7434 28.8329 91.6326C27.8633 91.4904 26.9649 92.1227 26.8036 93.2311L26.7956 93.2865C26.6323 94.4087 27.2904 95.2339 28.3015 95.3822ZM32.2515 95.9616C33.2834 96.113 34.1482 95.4687 34.3074 94.3742L34.3155 94.3188C34.4737 93.2313 33.8286 92.3655 32.8036 92.2151C31.7786 92.0647 30.9128 92.716 30.7546 93.8035L30.7465 93.859C30.5923 94.9188 31.2195 95.8103 32.2515 95.9616ZM32.3279 95.4847C31.5938 95.377 31.2222 94.7706 31.3421 93.9463L31.3502 93.8909C31.4711 93.0597 32.0068 92.5864 32.7341 92.6931C33.4543 92.7987 33.8398 93.4071 33.7178 94.2453L33.7108 94.2938C33.5919 95.1112 33.0551 95.5914 32.3279 95.4847ZM34.9375 96.292L35.5123 96.3763L35.8348 94.1596C35.9296 93.5085 36.4607 93.261 36.9317 93.33C37.4304 93.4032 37.6622 93.706 37.5695 94.3433L37.2369 96.6293L37.8117 96.7136L38.1342 94.4969C38.229 93.8458 38.7601 93.5983 39.2311 93.6673C39.7297 93.7405 39.9616 94.0433 39.8688 94.6806L39.5363 96.9666L40.1111 97.0509L40.4376 94.8065C40.5908 93.7536 40.0793 93.2824 39.4283 93.1869C38.9781 93.1208 38.4077 93.2494 38.0898 93.6839C37.9734 93.1716 37.5929 92.9177 37.1289 92.8496C36.6095 92.7734 36.1744 92.9926 35.9588 93.3076L36.0394 92.7534L35.4646 92.6691L34.9375 96.292ZM42.7142 97.4964C43.5315 97.6163 44.1894 97.3237 44.4199 96.6146L43.8451 96.5303C43.7074 96.9417 43.3517 97.1018 42.7907 97.0195C42.0496 96.9108 41.7213 96.3957 41.8136 95.5673L44.5423 95.9676L44.5696 95.7805C44.758 94.4852 44.042 93.8637 43.204 93.7407C42.2067 93.5944 41.3963 94.2538 41.2371 95.3483L41.229 95.4037C41.0668 96.519 41.6892 97.3461 42.7142 97.4964ZM41.9018 95.1062C42.0925 94.4762 42.5458 94.1323 43.1345 94.2187C43.7301 94.3061 44.0746 94.6608 44.0212 95.4171L41.9018 95.1062Z" fill="#E8EFFF"/>
</g>
<g clip-path="url(#clip1_176_7189)" filter="url(#filter1_d_176_7189)">
<path d="M28.8925 108.984C28.5221 108.642 28.0082 107.909 27.1784 107.027C26.7063 106.545 25.5968 105.665 25.2246 105.178C24.9663 104.887 24.8412 104.501 24.8796 104.114C24.9335 103.382 25.5233 102.804 26.2565 102.765C26.8317 102.785 27.3887 102.973 27.8582 103.306C28.1837 103.525 28.4904 103.77 28.7752 104.039C28.9859 104.228 29.044 104.308 29.2819 104.527C29.5197 104.745 29.6922 104.974 29.5325 104.619C29.3655 104.087 29.0823 103.193 28.761 102.406C28.5159 101.808 28.4669 101.715 28.2581 101.268C28.0493 100.821 27.9077 100.441 27.6771 99.9299C27.4603 99.4264 27.27 98.9119 27.1071 98.3885C26.8557 97.7262 26.8373 96.9982 27.0547 96.3243C27.3758 95.9027 27.9186 95.7154 28.4314 95.8492C28.9706 96.1242 29.411 96.5602 29.6916 97.0967C30.0934 97.7475 30.406 98.4494 30.6212 99.1834C30.977 100.245 31.5797 101.781 31.645 102.106C31.5779 101.703 31.3601 100.865 31.3728 100.47C31.3822 100.06 31.6036 99.684 31.9578 99.4769C32.2657 99.3234 32.6053 99.244 32.9494 99.2451C33.299 99.2597 33.6306 99.4044 33.8792 99.651C34.2375 100.245 34.49 100.897 34.6253 101.578C34.5548 100.974 34.5586 100.363 34.6365 99.7606C34.7759 99.4736 35.011 99.2444 35.3013 99.1124C35.6506 98.9866 36.0198 98.9254 36.391 98.9315C36.7029 98.9812 36.9923 99.1247 37.2209 99.3427C37.5479 99.8827 37.7892 100.47 37.9362 101.084C37.9616 101.237 37.9417 100.646 38.1179 100.225C38.1809 99.8339 38.4475 99.5066 38.8173 99.366C39.187 99.2254 39.6038 99.2929 39.9106 99.5431C40.2173 99.7932 40.3675 100.188 40.3045 100.579C40.4224 101.288 40.417 101.255 40.4968 101.735C40.5767 102.214 40.6474 102.64 40.7146 103.043C40.781 103.688 40.7991 104.337 40.7688 104.984C40.6711 105.568 40.4945 106.137 40.2436 106.673C39.8125 107.35 39.486 108.088 39.2753 108.862C39.2528 109.233 39.2772 109.606 39.3478 109.971C39.4031 110.31 39.5032 110.64 39.6455 110.952C39.2078 111.073 38.7585 111.148 38.3052 111.175C37.8693 111.18 37.2047 110.416 37.0195 110.178C36.926 110.049 36.7678 109.984 36.6108 110.01C36.4539 110.036 36.3252 110.149 36.2785 110.301C36.1077 110.755 35.699 111.596 35.3357 111.701C34.6201 111.91 33.1018 112.072 31.9141 112.269C31.9141 112.269 31.9288 111.146 31.4167 110.828C30.9046 110.51 30.3707 110.128 29.9821 109.878L28.8925 108.984Z" fill="white"/>
<path fill-rule="evenodd" clip-rule="evenodd" d="M28.8925 108.984C28.5221 108.642 28.0082 107.909 27.1784 107.027C26.7063 106.545 25.5968 105.665 25.2246 105.178C24.9663 104.887 24.8412 104.501 24.8796 104.114C24.9335 103.382 25.5233 102.804 26.2565 102.765C26.8317 102.785 27.3887 102.973 27.8582 103.306C28.1837 103.525 28.4904 103.77 28.7752 104.039C28.9859 104.228 29.044 104.308 29.2819 104.527C29.5197 104.745 29.6922 104.974 29.5325 104.619C29.3655 104.087 29.0823 103.193 28.761 102.406C28.5159 101.808 28.4669 101.715 28.2581 101.268C28.0493 100.821 27.9077 100.441 27.6771 99.9299C27.4603 99.4264 27.27 98.9119 27.1071 98.3885C26.8557 97.7262 26.8373 96.9982 27.0547 96.3243C27.3758 95.9027 27.9186 95.7154 28.4314 95.8492C28.9706 96.1242 29.411 96.5602 29.6916 97.0967C30.0934 97.7475 30.406 98.4494 30.6212 99.1834C30.977 100.245 31.5797 101.781 31.645 102.106C31.5779 101.703 31.3601 100.865 31.3728 100.47C31.3822 100.06 31.6036 99.684 31.9578 99.4769C32.2657 99.3234 32.6053 99.244 32.9494 99.2451C33.299 99.2597 33.6306 99.4044 33.8792 99.651C34.2375 100.245 34.49 100.897 34.6253 101.578C34.5548 100.974 34.5586 100.363 34.6365 99.7606C34.7759 99.4736 35.011 99.2444 35.3013 99.1124C35.6506 98.9866 36.0198 98.9254 36.391 98.9315C36.7029 98.9812 36.9923 99.1247 37.2209 99.3427C37.5479 99.8827 37.7892 100.47 37.9362 101.084C37.9616 101.237 37.9417 100.646 38.1179 100.225C38.1809 99.8339 38.4475 99.5066 38.8173 99.366C39.187 99.2254 39.6038 99.2929 39.9106 99.5431C40.2173 99.7932 40.3675 100.188 40.3045 100.579C40.4224 101.288 40.417 101.255 40.4968 101.735C40.5767 102.214 40.6474 102.64 40.7146 103.043C40.781 103.688 40.7991 104.337 40.7688 104.984C40.6711 105.568 40.4945 106.137 40.2436 106.673C39.8125 107.35 39.486 108.088 39.2753 108.862C39.2528 109.233 39.2772 109.606 39.3478 109.971C39.4031 110.31 39.5032 110.64 39.6455 110.952C39.2078 111.073 38.7585 111.148 38.3052 111.175C37.8693 111.18 37.2047 110.416 37.0195 110.178C36.926 110.049 36.7678 109.984 36.6108 110.01C36.4539 110.036 36.3252 110.149 36.2785 110.301C36.1077 110.755 35.699 111.596 35.3357 111.701C34.6201 111.91 33.1018 112.072 31.9141 112.269C31.9141 112.269 31.9288 111.146 31.4167 110.828C30.9046 110.51 30.3707 110.128 29.9821 109.878L28.8925 108.984Z" stroke="black" stroke-width="0.828752" stroke-linecap="round" stroke-linejoin="round"/>
<path d="M38.2323 108.045L37.606 104.281C37.5685 104.056 37.3551 103.903 37.1295 103.941C36.9038 103.978 36.7512 104.191 36.7887 104.417L37.415 108.181C37.4525 108.406 37.6659 108.558 37.8915 108.521C38.1172 108.483 38.2698 108.27 38.2323 108.045Z" fill="black"/>
<path d="M36.0744 108.402L35.426 104.64C35.3873 104.415 35.1731 104.264 34.9477 104.303C34.7222 104.342 34.5708 104.555 34.6095 104.78L35.2579 108.542C35.2966 108.767 35.5108 108.917 35.7362 108.878C35.9617 108.84 36.1131 108.626 36.0744 108.402Z" fill="black"/>
<path d="M32.4307 105.145L33.0778 108.9C33.1169 109.126 33.3314 109.279 33.5568 109.24C33.7823 109.201 33.9334 108.986 33.8943 108.759L33.2472 105.005C33.2081 104.778 32.9937 104.626 32.7682 104.664C32.5427 104.703 32.3916 104.918 32.4307 105.145Z" fill="black"/>
</g>
<path opacity="0.8" d="M52.4157 79.3383L53.9284 76.519L55.3282 79.1299C55.6308 79.693 55.2225 80.3768 54.5882 80.3768H53.0354C52.5031 80.3768 52.1641 79.8064 52.4193 79.3383H52.4157Z" fill="#B37A1E"/>
<path d="M55.5761 87.5074C55.5761 86.9077 55.2517 86.3483 54.7304 86.0411C54.3987 85.8473 54.2019 85.5072 54.2019 85.1306C54.2019 84.754 54.3987 84.4139 54.7304 84.2201C55.2517 83.9129 55.5761 83.3535 55.5761 82.7538C55.5761 82.1541 55.2517 81.5946 54.7304 81.2875C54.3987 81.0937 54.2019 80.7536 54.2019 80.377H53.5603C53.5603 80.9766 53.8847 81.5398 54.406 81.8433C54.7377 82.0371 54.9346 82.3771 54.9346 82.7538C54.9346 83.1304 54.7377 83.4705 54.406 83.6643C53.8847 83.9678 53.5603 84.5309 53.5603 85.1306C53.5603 85.7303 53.8847 86.2934 54.406 86.5969C54.7377 86.7907 54.9346 87.1308 54.9346 87.5074C54.9346 87.8841 54.7377 88.2241 54.406 88.4179C53.8847 88.7215 53.5603 89.2846 53.5603 89.8843C53.5603 90.484 53.8847 91.0471 54.406 91.3506C54.7377 91.5444 54.9346 91.8845 54.9346 92.2611C54.9346 92.6377 54.7377 92.9778 54.406 93.1716C53.8847 93.4751 53.5603 94.0382 53.5603 94.6379C53.5603 95.2376 53.8847 95.8007 54.406 96.1042C54.7377 96.298 54.9346 96.6381 54.9346 97.0148C54.9346 97.3914 54.7377 97.7315 54.406 97.9253L54.7304 98.4811C55.2517 98.1776 55.5761 97.6144 55.5761 97.0148C55.5761 96.4151 55.2517 95.8556 54.7304 95.5484C54.3987 95.3546 54.2019 95.0146 54.2019 94.6379C54.2019 94.2613 54.3987 93.9212 54.7304 93.7274C55.2517 93.4203 55.5761 92.8608 55.5761 92.2611C55.5761 91.6614 55.2517 91.1019 54.7304 90.7948C54.3987 90.601 54.2019 90.2609 54.2019 89.8843C54.2019 89.5076 54.3987 89.1676 54.7304 88.9738C55.2517 88.6666 55.5761 88.1071 55.5761 87.5074Z" fill="#CDD1D3"/>
<path d="M68.8776 77.7442H38.8845C36.2563 77.7442 34.6087 74.8884 35.9209 72.6029L50.9175 46.4651C52.2334 44.1724 55.5287 44.1724 56.8447 46.4651L71.8412 72.6029C73.1535 74.8884 71.5095 77.7442 68.8776 77.7442Z" fill="#FFAF2B"/>
<path opacity="0.4" d="M47.8446 70.0394C46.2042 67.0044 50.5603 59.2888 52.3902 54.4109C53.3635 51.8146 52.8714 50.9846 52.6235 51.4234C52.6235 51.4234 48.7523 58.1041 48.3075 58.9451C47.8628 59.7861 48.3877 60.7552 48.3877 60.7552C48.3877 60.7552 47.3488 60.6199 46.9734 61.2634C46.5979 61.907 44.6623 65.209 44.1629 66.1707C43.6635 67.1324 44.1046 68.1014 44.1046 68.1014C44.1046 68.1014 43.011 68.1745 42.5408 68.9973C42.0705 69.82 41.5055 70.8 41.5055 70.8C39.9854 73.228 40.0438 74.6102 43.7036 74.6102H47.3634C48.22 74.6102 48.6611 73.6449 48.6611 73.6449C48.6611 73.6449 49.1022 74.6102 49.7656 74.6102H56.9468C57.8581 74.6102 58.1971 73.6778 58.1971 73.6778C58.1971 73.6778 58.5507 74.6102 59.349 74.6102H65.9323C66.5557 74.6102 65.4439 73.3194 62.7719 72.9501C58.1242 72.3065 49.3537 72.8404 47.8409 70.0394H47.8446Z" fill="#B37A1E"/>
<path d="M19.9146 75.6637C19.9146 75.064 19.5902 74.5045 19.0689 74.1974C18.7372 74.0036 18.5404 73.6635 18.5404 73.2869C18.5404 72.9102 18.7372 72.5702 19.0689 72.3763C19.5902 72.0692 19.9146 71.5097 19.9146 70.91C19.9146 70.3103 19.5902 69.7509 19.0689 69.4437C18.7372 69.2499 18.5404 68.9098 18.5404 68.5332H17.8988C17.8988 69.1329 18.2232 69.696 18.7445 69.9995C19.0762 70.1933 19.2731 70.5334 19.2731 70.91C19.2731 71.2867 19.0762 71.6267 18.7445 71.8205C18.2232 72.124 17.8988 72.6872 17.8988 73.2869C17.8988 73.8866 18.2232 74.4497 18.7445 74.7532C19.0762 74.947 19.2731 75.2871 19.2731 75.6637C19.2731 76.0403 19.0762 76.3804 18.7445 76.5742C18.2232 76.8777 17.8988 77.4408 17.8988 78.0405C17.8988 78.6402 18.2232 79.2033 18.7445 79.5068C19.0762 79.7006 19.2731 80.0407 19.2731 80.4173C19.2731 80.794 19.0762 81.1341 18.7445 81.3279C18.2232 81.6314 17.8988 82.1945 17.8988 82.7942C17.8988 83.3939 18.2232 83.957 18.7445 84.2605C19.0762 84.4543 19.2731 84.7944 19.2731 85.171C19.2731 85.5476 19.0762 85.8877 18.7445 86.0815L19.0689 86.6373C19.5902 86.3338 19.9146 85.7707 19.9146 85.171C19.9146 84.5713 19.5902 84.0118 19.0689 83.7047C18.7372 83.5109 18.5404 83.1708 18.5404 82.7942C18.5404 82.4175 18.7372 82.0775 19.0689 81.8837C19.5902 81.5765 19.9146 81.017 19.9146 80.4173C19.9146 79.8177 19.5902 79.2582 19.0689 78.951C18.7372 78.7572 18.5404 78.4172 18.5404 78.0405C18.5404 77.6639 18.7372 77.3238 19.0689 77.13C19.5902 76.8228 19.9146 76.2634 19.9146 75.6637Z" fill="#CDD1D3"/>
<path opacity="0.8" d="M16.7469 67.9994L18.5294 64.6792L19.8818 67.1986C20.2062 67.802 19.7688 68.5333 19.0871 68.5333H17.064C16.7906 68.5333 16.6157 68.2408 16.7469 67.9994Z" fill="#37999D"/>
<path d="M18.4784 66.1054C28.4075 66.1054 36.4567 58.031 36.4567 48.0708C36.4567 38.1105 28.4075 30.0361 18.4784 30.0361C8.54919 30.0361 0.5 38.1105 0.5 48.0708C0.5 58.031 8.54919 66.1054 18.4784 66.1054Z" fill="#4FDAE0"/>
<path opacity="0.4" d="M18.4783 33.6016C15.0117 33.6016 11.8294 34.8302 9.34335 36.8743C9.12099 37.0571 9.40897 38.1139 9.40897 38.1139C9.40897 38.1139 8.47214 37.5946 8.11855 38.0005C7.93628 38.209 7.72486 38.3954 7.55718 38.6148C7.2692 38.9988 7.92535 39.8508 7.92535 39.8508C7.92535 39.8508 6.78074 39.5144 6.33967 40.253C4.96541 42.5531 4.05774 45.1859 4.05774 48.0637C4.05774 51.6289 5.34451 54.8906 7.47334 57.4137C7.61915 57.5856 9.12828 57.0115 9.12828 57.0115C9.12828 57.0115 8.46485 58.4668 8.6143 58.6131C8.78198 58.7813 8.91321 58.8983 9.05538 59.0153C9.21212 59.1433 10.7759 58.273 10.7759 58.273C10.7759 58.273 10.1344 59.8673 10.3203 59.999C10.4843 60.1123 11.4467 59.4651 11.4467 59.4651C11.4467 59.4651 11.1806 60.5511 11.3665 60.6535C13.4661 61.8493 15.8902 62.5294 18.4747 62.5294C26.4396 62.5294 32.8953 56.0535 32.8953 48.0637C32.8953 45.1895 32.2465 54.2032 25.3606 58.1048C23.538 59.1397 22.1017 54.3092 19.2985 54.3092C15.4346 54.3092 14.3301 55.8048 12.1976 52.9087C10.7614 50.9597 6.82448 53.6986 6.99946 46.8533C7.28014 35.8614 21.493 33.6016 18.4711 33.6016H18.4783Z" fill="#37999D"/>
<path opacity="0.9" d="M38.3268 39.3346L39.9489 36.3105L41.6841 39.543C41.8335 39.8246 41.633 40.1647 41.3122 40.1647H38.8189C38.3924 40.1647 38.1227 39.7112 38.3231 39.3346H38.3268Z" fill="#AD353D"/>
<path d="M40.7218 48.5934C41.243 48.2899 41.5675 47.7268 41.5675 47.1271C41.5675 46.5274 41.243 45.9643 40.7218 45.6607C40.39 45.4669 40.1932 45.1269 40.1932 44.7502C40.1932 44.3736 40.39 44.0335 40.7218 43.8397C41.243 43.5362 41.5675 42.9731 41.5675 42.3734C41.5675 41.7737 41.243 41.2106 40.7218 40.9071C40.39 40.7133 40.1932 40.3732 40.1932 39.9966H39.5516C39.5516 40.5963 39.8761 41.1557 40.3973 41.4629C40.7291 41.6567 40.9259 41.9968 40.9259 42.3734C40.9259 42.75 40.7291 43.0901 40.3973 43.2839C39.8761 43.5911 39.5516 44.1505 39.5516 44.7502C39.5516 45.3499 39.8761 45.9094 40.3973 46.2166C40.7291 46.4104 40.9259 46.7504 40.9259 47.1271C40.9259 47.5037 40.7291 47.8438 40.3973 48.0376C39.8761 48.3447 39.5516 48.9042 39.5516 49.5039C39.5516 50.1036 39.8761 50.6631 40.3973 50.9702C40.7291 51.164 40.9259 51.5041 40.9259 51.8807C40.9259 52.2574 40.7291 52.5974 40.3973 52.7912C39.8761 53.0984 39.5516 53.6579 39.5516 54.2576C39.5516 54.8572 39.8761 55.4167 40.3973 55.7239C40.7291 55.9177 40.9259 56.2577 40.9259 56.6344C40.9259 57.011 40.7291 57.3511 40.3973 57.5449L40.7218 58.1007C41.243 57.7972 41.5675 57.2341 41.5675 56.6344C41.5675 56.0347 41.243 55.4716 40.7218 55.1681C40.39 54.9743 40.1932 54.6342 40.1932 54.2576C40.1932 53.8809 40.39 53.5408 40.7218 53.347C41.243 53.0435 41.5675 52.4804 41.5675 51.8807C41.5675 51.281 41.243 50.7179 40.7218 50.4144C40.39 50.2206 40.1932 49.8805 40.1932 49.5039C40.1932 49.1273 40.39 48.7872 40.7218 48.5934Z" fill="#CDD1D3"/>
<path d="M40.9331 0.515589L43.8165 4.71343C46.7364 8.96247 51.0195 12.0853 55.9516 13.5589L60.8216 15.0142C61.6199 15.2519 61.9298 16.2173 61.4267 16.8791L58.3392 20.9271C55.2116 25.0262 53.5749 30.076 53.7024 35.2392L53.8264 40.3366C53.8482 41.1703 53.0281 41.7664 52.2443 41.4885L44.294 38.6765C41.4836 37.6819 38.4179 37.6819 35.6111 38.6765L27.6608 41.4885C26.877 41.7664 26.0569 41.1703 26.0787 40.3366L26.2027 35.2392C26.3303 30.0797 24.6935 25.0298 21.5659 20.9271L18.4784 16.8791C17.9717 16.2173 18.2852 15.2519 19.0835 15.0142L23.9536 13.5589C28.8856 12.0853 33.1687 8.96613 36.0886 4.71343L38.972 0.515589C39.4422 -0.171863 40.4556 -0.171863 40.9258 0.515589H40.9331Z" fill="#F74B57"/>
<path opacity="0.5" d="M32.3523 25.0189C30.9634 20.6492 29.4689 18.7295 29.4689 18.7295C29.4689 18.7295 42.8214 15.0216 40.2224 2.99121C40.2224 2.99121 39.3147 5.70445 37.0583 8.77239C36.7083 9.24775 37.1348 10.2131 37.1348 10.2131C37.1348 10.2131 36.3292 9.75969 35.6913 10.3265C35.0935 10.8567 34.503 11.4454 33.8213 11.9902C33.2198 12.4693 33.5042 13.3761 33.5042 13.3761C33.5042 13.3761 32.6986 12.8093 32.0643 13.1896C30.7228 13.9941 29.1772 14.6742 27.4057 15.1533L23.4032 16.349C22.747 16.5464 22.4919 17.3363 22.9074 17.8811C22.9074 17.8811 24.9633 19.9581 26.5563 22.5726C26.7058 22.8176 27.6244 22.6055 27.6244 22.6055C27.6244 22.6055 27.012 23.3625 27.1578 23.666C27.2744 23.911 27.5332 24.4668 27.639 24.7191C27.7155 24.8983 27.7155 24.8983 27.7848 25.0847C27.9743 25.5967 28.9111 25.5126 28.9111 25.5126C28.9111 25.5126 28.2915 26.3609 28.3716 26.9899C28.4336 27.4725 28.4555 27.3702 28.5904 27.8821C28.7289 28.4013 29.7022 28.3501 29.7022 28.3501C29.7022 28.3501 28.8237 29.1839 28.9111 29.8238C29.5163 34.3434 28.656 38.5595 28.656 38.5595C28.656 38.5595 34.3571 31.3157 32.3559 25.0153L32.3523 25.0189Z" fill="#AD353D"/>
</g>
<defs>
<filter id="filter0_d_176_7189" x="11.0409" y="83.8896" width="37.4591" height="20.2461" filterUnits="userSpaceOnUse" color-interpolation-filters="sRGB">
<feFlood flood-opacity="0" result="BackgroundImageFix"/>
<feColorMatrix in="SourceAlpha" type="matrix" values="0 0 0 0 0 0 0 0 0 0 0 0 0 0 0 0 0 0 127 0" result="hardAlpha"/>
<feOffset dy="1"/>
<feComposite in2="hardAlpha" operator="out"/>
<feColorMatrix type="matrix" values="0 0 0 0 0.160784 0 0 0 0 0.184314 0 0 0 0 0.278431 0 0 0 1 0"/>
<feBlend mode="normal" in2="BackgroundImageFix" result="effect1_dropShadow_176_7189"/>
<feBlend mode="normal" in="SourceGraphic" in2="effect1_dropShadow_176_7189" result="shape"/>
</filter>
<filter id="filter1_d_176_7189" x="18.8522" y="92.3079" width="26.1311" height="24.2612" filterUnits="userSpaceOnUse" color-interpolation-filters="sRGB">
<feFlood flood-opacity="0" result="BackgroundImageFix"/>
<feColorMatrix in="SourceAlpha" type="matrix" values="0 0 0 0 0 0 0 0 0 0 0 0 0 0 0 0 0 0 127 0" result="hardAlpha"/>
<feOffset dy="1.105"/>
<feGaussianBlur stdDeviation="0.994502"/>
<feColorMatrix type="matrix" values="0 0 0 0 0 0 0 0 0 0 0 0 0 0 0 0 0 0 0.2 0"/>
<feBlend mode="normal" in2="BackgroundImageFix" result="effect1_dropShadow_176_7189"/>
<feBlend mode="normal" in="SourceGraphic" in2="effect1_dropShadow_176_7189" result="shape"/>
</filter>
<clipPath id="clip0_176_7189">
<rect width="91" height="119" fill="white" transform="translate(0.5)"/>
</clipPath>
<clipPath id="clip1_176_7189">
<rect width="19.5825" height="17.3059" fill="white" transform="matrix(0.986151 -0.163712 0.164205 0.986783 20.8412 96.3979)"/>
</clipPath>
</defs>
</svg>
