<svg id="Redis_stack" data-name="Redis stack" xmlns="http://www.w3.org/2000/svg" width="87" height="18" viewBox="0 0 87 18">
  <rect id="Rectangle_17502" data-name="Rectangle 17502" width="87" height="18" fill="#fff" opacity="0"/>
  <g id="Group_7728" data-name="Group 7728" transform="translate(-26 0.73)">
    <path id="Path_10437" data-name="Path 10437" d="M434.51,2.4a.59.59,0,0,1,.554-.49c.278,0,.422.21.491.49V15.671a.553.553,0,0,1-.554.487c-.278,0-.419-.208-.487-.487Z" transform="translate(-354.04 -1.554)" fill="#494c4d"/>
    <path id="Path_10438" data-name="Path 10438" d="M420.034,29.672a.633.633,0,0,1-.18-.249.615.615,0,0,1-.044-.305.511.511,0,0,1,.041-.278.5.5,0,0,1,.183-.212h6.15c.13,0,.228.277.228.554a.5.5,0,0,1-.228.49Z" transform="translate(-342.059 -23.326)" fill="#494c4d"/>
    <path id="Path_10439" data-name="Path 10439" d="M463.648,24.165v9.012a.485.485,0,0,1-.163.307.494.494,0,0,1-.815-.307V31.709a4.46,4.46,0,0,1-3.774,1.955A4.979,4.979,0,1,1,462.67,25.7V24.165a.447.447,0,0,1,.178-.342.447.447,0,0,1,.376-.079c.217,0,.356.141.424.421m-.978,4.47a3.784,3.784,0,1,0-7.549,0,3.78,3.78,0,1,0,7.549,0" transform="translate(-370.034 -19.336)" fill="#494c4d"/>
    <path id="Path_10440" data-name="Path 10440" d="M376.577,31.317a.529.529,0,0,1,.7-.072,5.6,5.6,0,0,0,3.076,1.188,3.05,3.05,0,0,0,1.887-.629,1.719,1.719,0,0,0,.515-.511,1.687,1.687,0,0,0,.256-.677c0-.487-.211-.767-.7-1.257a4.312,4.312,0,0,0-2.1-.7h-.069a4.983,4.983,0,0,1-2.239-.767,2.076,2.076,0,0,1-.769-.767,2.105,2.105,0,0,1-.28-1.049,2.427,2.427,0,0,1,1.048-1.958,4.36,4.36,0,0,1,2.446-.7,5.484,5.484,0,0,1,3.008,1.047.558.558,0,0,1,.139.7.526.526,0,0,1-.7.139,4.26,4.26,0,0,0-2.446-.978,3,3,0,0,0-1.887.554,1.562,1.562,0,0,0-.45.523,1.6,1.6,0,0,0-.18.665,1.134,1.134,0,0,0,.145.564,1.106,1.106,0,0,0,.411.413,5.375,5.375,0,0,0,2.028.7h.069a7.849,7.849,0,0,1,2.448.831,2.342,2.342,0,0,1,1.108,2.024,2.621,2.621,0,0,1-1.108,2.027,3.606,3.606,0,0,1-2.517.767,6.536,6.536,0,0,1-3.708-1.385c-.278-.211-.35-.49-.139-.7Z" transform="translate(-306.731 -19.083)" fill="#494c4d"/>
    <path id="Path_10441" data-name="Path 10441" d="M516.6,33.815a5.679,5.679,0,0,1-2.006-.341,4.543,4.543,0,0,1-1.565-.967,4.21,4.21,0,0,1-1.009-1.5,5.586,5.586,0,0,1,0-3.877,4.337,4.337,0,0,1,2.546-2.492,5.588,5.588,0,0,1,1.995-.338,4.282,4.282,0,0,1,1.348.227,5.44,5.44,0,0,1,1.246.6,2.329,2.329,0,0,1,.8.831.93.93,0,0,1,.139.379.377.377,0,0,1-.1.241.929.929,0,0,1-.278.219.586.586,0,0,1-.276.08.608.608,0,0,1-.461-.277,2.422,2.422,0,0,0-.476-.5,3.344,3.344,0,0,0-.609-.379,3.732,3.732,0,0,0-.669-.249,2.607,2.607,0,0,0-.678-.091,4.033,4.033,0,0,0-1.958.46,3.206,3.206,0,0,0-1.3,1.288,4.29,4.29,0,0,0,0,3.877,3.225,3.225,0,0,0,1.285,1.285,3.9,3.9,0,0,0,1.926.46,3.729,3.729,0,0,0,.92-.119,3.93,3.93,0,0,0,.878-.349,3.272,3.272,0,0,0,.719-.529c.106-.094.2-.169.276-.23a.409.409,0,0,1,.278-.089.347.347,0,0,1,.23.089,1.545,1.545,0,0,1,.23.249.354.354,0,0,1,.1.188.537.537,0,0,1,0,.23.464.464,0,0,1-.13.219,4.34,4.34,0,0,1-1.006.739,5.939,5.939,0,0,1-1.22.5,4.255,4.255,0,0,1-1.178.163" transform="translate(-416.914 -19.803)" fill="#494c4d"/>
    <path id="Path_10442" data-name="Path 10442" d="M574.138,18.009c.18.127.278.246.278.354a.649.649,0,0,1-.154.413.915.915,0,0,1-.259.241.334.334,0,0,1-.257.028.928.928,0,0,1-.309-.172L569,15.179v3.489a.811.811,0,0,1-.057.338.362.362,0,0,1-.172.18.916.916,0,0,1-.643,0,.318.318,0,0,1-.107-.077.309.309,0,0,1-.067-.114,1.1,1.1,0,0,1-.048-.346V6.431a.8.8,0,0,1,.059-.335.352.352,0,0,1,.182-.183.923.923,0,0,1,.644,0,.327.327,0,0,1,.159.183.961.961,0,0,1,.05.354v7.289l4.517-3.531a.879.879,0,0,1,.278-.191.43.43,0,0,1,.278-.028.5.5,0,0,1,.276.2.641.641,0,0,1,.2.421.616.616,0,0,1-.239.385l-4.474,3.442Z" transform="translate(-462.733 -4.77)" fill="#494c4d"/>
    <path id="Path_10443" data-name="Path 10443" d="M318.977,23.554a.92.92,0,0,1,.291.3.945.945,0,0,1,.13.4,1.194,1.194,0,0,1-.141.831.939.939,0,0,1-.3.291.927.927,0,0,1-.4.128,1.2,1.2,0,0,1-.832-.138,3.892,3.892,0,0,0-1.887-.77,2.1,2.1,0,0,0-1.259.421c-.209.139-.348.277-.348.418a.43.43,0,0,0,.068.277c.07.069.143.141.211.141a3.088,3.088,0,0,0,1.537.487,9.827,9.827,0,0,1,2.026.629,2.459,2.459,0,0,1,1.332,1.188,2.576,2.576,0,0,1,.417,1.468A2.818,2.818,0,0,1,318.566,32a4.3,4.3,0,0,1-2.658.831,5.8,5.8,0,0,1-3.7-1.468,1.434,1.434,0,0,1-.417-.676,1.088,1.088,0,0,1,.978-1.188,1.425,1.425,0,0,1,.77.21,3.54,3.54,0,0,0,2.306.908,2.55,2.55,0,0,0,1.4-.418c.207-.211.419-.421.419-.554s0-.21-.07-.277c0-.069-.141-.141-.276-.211a3.728,3.728,0,0,0-1.68-.554,4.329,4.329,0,0,1-1.887-.629,3.644,3.644,0,0,1-1.328-1.188,2.824,2.824,0,0,1-.348-1.257,2.788,2.788,0,0,1,1.258-2.3,4.041,4.041,0,0,1,2.517-.831,6.308,6.308,0,0,1,3.145,1.188" transform="translate(-254.041 -18.244)" fill="#494c4d"/>
    <path id="Path_10444" data-name="Path 10444" d="M145.717,24.187a3.211,3.211,0,0,1,1.257-.908,3.806,3.806,0,0,1,1.539-.349,1.474,1.474,0,0,1,1.05.349,1.129,1.129,0,0,1,.35.767,1.2,1.2,0,0,1-1.109,1.108,3.549,3.549,0,0,0-3.076,3.143v3.982a1.107,1.107,0,0,1-1.107,1.108,1.018,1.018,0,0,1-.424-.09,1,1,0,0,1-.346-.259,1.118,1.118,0,0,1-.35-.77V23.96a1.11,1.11,0,0,1,.35-.767,1.336,1.336,0,0,1,.83-.277,1.2,1.2,0,0,1,1.109,1.108v.163Z" transform="translate(-116.924 -18.672)" fill="#494c4d"/>
    <path id="Path_10445" data-name="Path 10445" d="M184.5,27.262a.815.815,0,0,1-.278.7,1.12,1.12,0,0,1-.767.349h-6.636a2.25,2.25,0,0,0,.7,1.327,3.282,3.282,0,0,0,4.122.49,1.291,1.291,0,0,1,.832-.349.807.807,0,0,1,.7.277.891.891,0,0,1,.3.614.87.87,0,0,1-.048.344.9.9,0,0,1-.178.3l-.07.069a4.988,4.988,0,0,1-3.635,1.327A4.777,4.777,0,0,1,175.9,31.1a5.542,5.542,0,0,1-1.535-3.7,4.95,4.95,0,0,1,1.535-3.7,5.284,5.284,0,0,1,3.567-1.468,4.646,4.646,0,0,1,3.495,1.385,5.117,5.117,0,0,1,1.615,3.509l-.072.141Zm-5.034-3a2.992,2.992,0,0,0-1.887.7,2.917,2.917,0,0,0-.909,1.468h5.873a2.455,2.455,0,0,0-.978-1.4,4.235,4.235,0,0,0-2.1-.767" transform="translate(-142.07 -18.107)" fill="#494c4d"/>
    <path id="Path_10446" data-name="Path 10446" d="M241.5,13.529a1.2,1.2,0,0,1-1.109,1.108,1.2,1.2,0,0,1-1.107-.908,4.617,4.617,0,0,1-2.8.908,5.127,5.127,0,0,1-5.032-5.24,5.163,5.163,0,0,1,1.465-3.7,4.715,4.715,0,0,1,3.548-1.52,4.611,4.611,0,0,1,2.795.908V1.161a1.109,1.109,0,0,1,2.217,0V13.529Zm-5.032-1.108a2.6,2.6,0,0,0,1.956-.908,2.95,2.95,0,0,0,0-4.121,2.6,2.6,0,0,0-1.956-.908,2.388,2.388,0,0,0-1.958.908,2.95,2.95,0,0,0,0,4.121,2.711,2.711,0,0,0,1.958.908" transform="translate(-188.589 -0.043)" fill="#494c4d"/>
    <path id="Path_10447" data-name="Path 10447" d="M293.977,1.117v.421a1.158,1.158,0,0,1-.35.831.894.894,0,0,1-.339.27.905.905,0,0,1-.428.079,1.135,1.135,0,0,1-.77-.349,1.29,1.29,0,0,1-.35-.831V1.117a1.119,1.119,0,0,1,2.237,0M292.09,4.543a1.016,1.016,0,0,1,1.191-.259,1,1,0,0,1,.346.259,1.136,1.136,0,0,1,.35.831v8.172a1.2,1.2,0,0,1-1.109,1.108,1.124,1.124,0,0,1-.77-.349,1.109,1.109,0,0,1-.348-.767V5.38a.932.932,0,0,1,.067-.46.946.946,0,0,1,.281-.37" transform="translate(-237.71 0)" fill="#494c4d"/>
  </g>
</svg>
