<svg id="ico_redisstack" data-name="ico/redisstack" xmlns="http://www.w3.org/2000/svg" width="16" height="16" viewBox="0 0 16 16">
  <rect id="Rectangle_17515" data-name="Rectangle 17515" width="16" height="16" fill="#fff" opacity="0"/>
  <path id="Path_10448" data-name="Path 10448" d="M59.8,10.412a.3.3,0,0,1-.122-.566l5.981-2.71L59.679,4.568a.3.3,0,0,1,.234-.544l6.592,2.833a.3.3,0,0,1,.005.542l-6.592,2.987A.3.3,0,0,1,59.8,10.412Z" transform="translate(-50.685 -2.022)" fill="#ff3d3d"/>
  <path id="Path_10449" data-name="Path 10449" d="M6.888,10.412a.3.3,0,0,1-.117-.024L.179,7.555a.3.3,0,0,1-.005-.542L6.766,4.026a.3.3,0,0,1,.245.54L1.03,7.276,7.006,9.844a.3.3,0,0,1-.117.569Z" transform="translate(0 -2.022)" fill="#ff3d3d"/>
  <path id="Path_10450" data-name="Path 10450" d="M12.648,43.809c1.311-.534,2.6-1.06,3.012-1.283l.32-.175a3.173,3.173,0,0,0,.333-.2,1.754,1.754,0,0,1,0,.514c-.05.172-.175.328-.677.57-.347.167-1.314.564-2.392,1.009-1.515.624-3.255,1.339-3.806,1.633A2.2,2.2,0,0,1,7.263,46c-.347-.181-1.6-.729-2.9-1.294-1.391-.606-2.831-1.234-3.255-1.456C.526,42.939.5,42.871.5,42.717v-.4c.044.025.093.052.148.08.55.278,3.025,1.338,4.813,2.1.88.376,1.593.682,1.83.788a2.08,2.08,0,0,0,2.172-.119c.478-.254,1.844-.811,3.187-1.358" transform="translate(-0.425 -34.522)" fill="#fff" fill-rule="evenodd"/>
  <path id="Path_10451" data-name="Path 10451" d="M12.648,63.809c1.311-.535,2.6-1.06,3.012-1.283l.32-.175a3.176,3.176,0,0,0,.333-.2,1.755,1.755,0,0,1,0,.514c-.05.172-.175.328-.677.569-.347.167-1.314.564-2.392,1.009-1.515.624-3.255,1.339-3.806,1.633A2.2,2.2,0,0,1,7.263,66c-.347-.181-1.6-.728-2.9-1.294-1.391-.606-2.831-1.234-3.255-1.457C.526,62.939.5,62.871.5,62.717v-.4c.044.025.093.052.148.08.55.279,3.025,1.338,4.813,2.1.88.376,1.593.682,1.83.788a2.079,2.079,0,0,0,2.172-.119c.478-.254,1.844-.811,3.187-1.358" transform="translate(-0.425 -51.559)" fill="#fff" fill-rule="evenodd"/>
</svg>
