<svg xmlns="http://www.w3.org/2000/svg" version="1.1" xml:space="preserve" width="30" height="30" style=""><rect id="backgroundrect" width="100%" height="100%" x="0" y="0" fill="none" stroke="none"/><g class="currentLayer" style=""><title>Layer 1</title><path class="st0" d="M15 21.5c-3.6 0-6.5-2.9-6.5-6.5s2.9-6.5 6.5-6.5 6.5 2.9 6.5 6.5-2.9 6.5-6.5 6.5zm0-11.6c-2.8 0-5.1 2.3-5.1 5.1s2.3 5.1 5.1 5.1 5.1-2.3 5.1-5.1-2.3-5.1-5.1-5.1zM21.8 6.5l-.5-.4c-1.3-1-2.9-1.6-4.5-1.9l-.6-.1V0h1.5v3c1.4.3 2.8.9 4 1.6l2.1-2.1 1 1-3 3zM30 13.8h-4.2l-.1-.6c-.3-1.6-.9-3.1-1.9-4.5l-.4-.5 3-3 1 1-2.1 2.1c.8 1.2 1.3 2.6 1.6 4h3v1.5h.1zM26.5 24.8l-3-3 .4-.5c1-1.3 1.6-2.9 1.9-4.5l.1-.6H30v1.5h-3c-.3 1.4-.9 2.8-1.6 4l2.1 2.1-1 1zM17.7 30h-1.5v-4.2l.6-.1c1.6-.3 3.1-.9 4.5-1.9l.5-.4 2.9 3-1 1-2.1-2.1c-1.2.8-2.6 1.3-4 1.6V30h.1zM13.8 30h-1.5v-3c-1.4-.3-2.7-.9-4-1.6l-2.1 2.1-1-1 3-3 .5.4c1.3 1 2.9 1.6 4.5 1.9l.6.1V30zM3.5 24.8l-1-1 2.1-2.1c-.8-1.2-1.3-2.6-1.6-4H0v-1.5h4.2l.1.6c.3 1.6.9 3.1 1.9 4.5l.4.5-3.1 3zM4.2 13.8H0v-1.5h3c.3-1.4.9-2.7 1.6-4l-2.1-2 1-1 3 3-.4.4c-1 1.3-1.6 2.9-1.9 4.5v.6zM8.2 6.5l-3-3 1-1 2.1 2.1c1.2-.8 2.6-1.3 4-1.6V0h1.5v4.2l-.6.1c-1.6.3-3.2.9-4.5 1.8l-.5.4z" id="svg_1" fill="#ffffff" fill-opacity="1"/></g></svg>