<svg version="1.1" id="Layer_1" xmlns="http://www.w3.org/2000/svg" x="0" y="0" viewBox="0 0 30.5 27.5" xml:space="preserve" fill="#385985"><path class="st0" d="M1 10v2.6L0 14l1 1.4V18c0 1.2 1.4 2.4 2.7 2.4v-1.5c-.5 0-1.2-.6-1.2-.9v-3.1l-.6-.9.7-.9V10c0-.7.7-.9 1.2-.9V7.6C2.1 7.6 1 8.5 1 10zM12 18c0 .3-.6.9-1.2.9v1.5c1.4 0 2.8-1.2 2.8-2.4v-2.6l1.1-1.4-1.1-1.4V10c0-1.4-1.1-2.4-2.6-2.4v1.5c.8 0 1.1.3 1.1.9v3.1l.7.9-.8.9V18z"/><path class="st0" d="M30.5 7.7v-.1c0-.1-.1-.3-.2-.4l-6.8-7c-.1-.1-.1-.1-.2-.1H7.8C7.4 0 7 .3 7 .8v4h1.5V1.5h13.7v6.2c0 .4.3.8.8.8h6V26H8.5v-3.2H7v4c0 .4.3.8.8.8h22c.4 0 .8-.3.8-.8l-.1-19.1zM23.7 7V2.6L28 7h-4.3z"/><path class="st0" d="M7.3 12.2c.6 0 1-.4 1-1s-.4-1-1-1-1 .4-1 1c0 .5.4 1 1 1zM8.3 15.9c0-.6-.4-1.1-1-1.1s-1 .4-1 1 .4 1 1 1h.1s.1.7-.8 1.5v.1s.2.2.3.2H7c.7-.5 1.3-1.3 1.3-2.7z"/></svg>
