<svg xmlns="http://www.w3.org/2000/svg" version="1.1" xml:space="preserve" width="26.5" height="24.5"><rect id="backgroundrect" width="100%" height="100%" x="0" y="0" fill="none" stroke="none"/><g class="currentLayer" style=""><title>Layer 1</title><path class="st0" d="M3.8 24.5H0V0h3.8v1.5H1.5V23h2.3zM26.5 24.5h-3.7V23H25V1.5h-2.2V0h3.7z" id="svg_1" fill="#ffffff" fill-opacity="1"/><g id="svg_2" class="" fill="#ffffff" fill-opacity="1"><path class="st0" d="M19.2 5.2c.6 0 1 .4 1 1s-.4 1-1 1-1-.4-1-1 .5-1 1-1m0-1c-1.1 0-2 .9-2 2s.9 2 2 2 2-.9 2-2-.8-2-2-2zM19.2 11.2c.6 0 1 .4 1 1s-.4 1-1 1-1-.4-1-1 .5-1 1-1m0-1c-1.1 0-2 .9-2 2s.9 2 2 2 2-.9 2-2-.8-2-2-2zM19.2 17.2c.6 0 1 .4 1 1s-.4 1-1 1-1-.4-1-1 .5-1 1-1m0-1c-1.1 0-2 .9-2 2s.9 2 2 2 2-.9 2-2-.8-2-2-2zM13.2 5.2c.6 0 1 .4 1 1s-.4 1-1 1-1-.4-1-1 .5-1 1-1m0-1c-1.1 0-2 .9-2 2s.9 2 2 2 2-.9 2-2-.8-2-2-2z" id="svg_3" fill="#ffffff" fill-opacity="1"/><circle class="st0" cx="13.199999809265137" cy="12.199999809265137" r="2" id="svg_4" fill="#ffffff" fill-opacity="1"/><path class="st0" d="M13.2 17.2c.6 0 1 .4 1 1s-.4 1-1 1-1-.4-1-1 .5-1 1-1m0-1c-1.1 0-2 .9-2 2s.9 2 2 2 2-.9 2-2-.8-2-2-2z" id="svg_5" fill="#ffffff" fill-opacity="1"/><circle class="st0" cx="7.199999809265137" cy="6.199999809265137" r="2" id="svg_6" fill="#ffffff" fill-opacity="1"/><path class="st0" d="M7.2 11.2c.6 0 1 .4 1 1s-.4 1-1 1-1-.4-1-1 .5-1 1-1m0-1c-1.1 0-2 .9-2 2s.9 2 2 2 2-.9 2-2-.8-2-2-2z" id="svg_7" fill="#ffffff" fill-opacity="1"/><circle class="st0" cx="7.199999809265137" cy="18.200000762939453" r="2" id="svg_8" fill="#ffffff" fill-opacity="1"/></g></g></svg>