<svg xmlns="http://www.w3.org/2000/svg" version="1.1" xml:space="preserve" width="30.5" height="27.5"><rect id="backgroundrect" width="100%" height="100%" x="0" y="0" fill="none" stroke="none"/><g class="currentLayer" style=""><title>Layer 1</title><path class="st0" d="M1 10v2.6L0 14l1 1.4V18c0 1.2 1.4 2.4 2.7 2.4v-1.5c-.5 0-1.2-.6-1.2-.9v-3.1l-.6-.9.7-.9V10c0-.7.7-.9 1.2-.9V7.6C2.1 7.6 1 8.5 1 10zM12 18c0 .3-.6.9-1.2.9v1.5c1.4 0 2.8-1.2 2.8-2.4v-2.6l1.1-1.4-1.1-1.4V10c0-1.4-1.1-2.4-2.6-2.4v1.5c.8 0 1.1.3 1.1.9v3.1l.7.9-.8.9V18z" id="svg_1" fill="#ffffff" fill-opacity="1"/><path class="st0" d="M30.5,7.781632651388645 v-0.1 c0,-0.1 -0.1,-0.30000000000000004 -0.2,-0.4 l-6.8,-7 c-0.1,-0.1 -0.1,-0.1 -0.2,-0.1 H7.8 C7.4,0.08163265138864517 7,0.3816326513886452 7,0.8816326513886452 v4 h1.5 V1.5816326513886452 h13.7 v6.2 c0,0.4 0.30000000000000004,0.8 0.8,0.8 h6 V26.081632651388645 H8.5 v-3.2 H7 v4 c0,0.4 0.30000000000000004,0.8 0.8,0.8 h22 c0.4,0 0.8,-0.30000000000000004 0.8,-0.8 l-0.1,-19.1 zM23.7,7.081632651388645 V2.6816326513886453 L28,7.081632651388645 h-4.3 z" id="svg_2" fill="#ffffff" fill-opacity="1"/><path class="st0" d="M7.3 12.2c.6 0 1-.4 1-1s-.4-1-1-1-1 .4-1 1c0 .5.4 1 1 1zM8.3 15.9c0-.6-.4-1.1-1-1.1s-1 .4-1 1 .4 1 1 1h.1s.1.7-.8 1.5v.1s.2.2.3.2H7c.7-.5 1.3-1.3 1.3-2.7z" id="svg_3" fill="#ffffff" fill-opacity="1"/></g></svg>