<svg version="1.1" id="Layer_1" xmlns="http://www.w3.org/2000/svg" x="0" y="0" viewBox="0 0 26.5 24.5" xml:space="preserve" fill="#385985"><path class="st0" d="M3.8 24.5H0V0h3.8v1.5H1.5V23h2.3zM26.5 24.5h-3.7V23H25V1.5h-2.2V0h3.7z"/><g><path class="st0" d="M19.2 5.2c.6 0 1 .4 1 1s-.4 1-1 1-1-.4-1-1 .5-1 1-1m0-1c-1.1 0-2 .9-2 2s.9 2 2 2 2-.9 2-2-.8-2-2-2zM19.2 11.2c.6 0 1 .4 1 1s-.4 1-1 1-1-.4-1-1 .5-1 1-1m0-1c-1.1 0-2 .9-2 2s.9 2 2 2 2-.9 2-2-.8-2-2-2zM19.2 17.2c.6 0 1 .4 1 1s-.4 1-1 1-1-.4-1-1 .5-1 1-1m0-1c-1.1 0-2 .9-2 2s.9 2 2 2 2-.9 2-2-.8-2-2-2zM13.2 5.2c.6 0 1 .4 1 1s-.4 1-1 1-1-.4-1-1 .5-1 1-1m0-1c-1.1 0-2 .9-2 2s.9 2 2 2 2-.9 2-2-.8-2-2-2z"/><circle class="st0" cx="13.2" cy="12.2" r="2"/><path class="st0" d="M13.2 17.2c.6 0 1 .4 1 1s-.4 1-1 1-1-.4-1-1 .5-1 1-1m0-1c-1.1 0-2 .9-2 2s.9 2 2 2 2-.9 2-2-.8-2-2-2z"/><circle class="st0" cx="7.2" cy="6.2" r="2"/><path class="st0" d="M7.2 11.2c.6 0 1 .4 1 1s-.4 1-1 1-1-.4-1-1 .5-1 1-1m0-1c-1.1 0-2 .9-2 2s.9 2 2 2 2-.9 2-2-.8-2-2-2z"/><circle class="st0" cx="7.2" cy="18.2" r="2"/></g></svg>
