<svg version="1.1" id="Layer_1" xmlns="http://www.w3.org/2000/svg" x="0" y="0" viewBox="0 0 35 29.6" xml:space="preserve" fill="#385985"><path class="st0" d="M35 8.2L17.5 0 0 8.2l17.5 8.2L35 8.2zM17.5 1.7l13.9 6.5-13.9 6.5-14-6.5 14-6.5z"/><path class="st0" d="M3.1 12.9l1.4 2.3s12.6 6 13 6 13-6 13-6l1.4-2.3-14.4 6.7-14.4-6.7z"/><path class="st0" d="M7.6 19.2L9 21.5s8.3 3.9 8.5 3.9 8.5-3.9 8.5-3.9l1.4-2.3-9.9 4.6-9.9-4.6zM11.9 25.4l1.4 2.3s3.9 1.9 4.2 1.9 4.2-1.9 4.2-1.9l1.4-2.3-5.6 2.6-5.6-2.6z"/></svg>
