<svg xmlns="http://www.w3.org/2000/svg" width="30" height="28"><rect id="backgroundrect" width="100%" height="100%" x="0" y="0" fill="none" stroke="none" data-darkreader-inline-fill="" data-darkreader-inline-stroke="" style="--darkreader-inline-fill:none; --darkreader-inline-stroke:none;" class=""/><g class="currentLayer" style=""><title>Layer 1</title><path d="M26.6,9 V5.7 l-3.4,-1 V2.1 L19.4,0 l-4.6,1.8 L10.4,0 L6.3,2.1 v2.6 l-3.4,1 V9 L0,13.8 l2.9,4.7 v3.3 l3.4,1 v2.6 l3.8,2.1 l4.6,-1.8 l4.4,1.8 l4.1,-2.1 v-2.6 l3.4,-1 v-3.3 l2.9,-4.7 L26.6,9 zM14,24.3 l-3.8,1.5 l-2.4,-1.4 v-2.8 l-3.4,-1 v-2 h2.5 l2.3,1.9 l1,-1.2 l-1.8,-1.5 l1.8,-1.5 l-1,-1.2 L6.9,17 H3.8 l-2,-3.4 l1.9,-3.2 h3.2 l2.3,1.9 l1,-1.2 l-1.9,-1.3 l1.8,-1.5 l-1,-1.1 L6.9,9 H4.4 V6.9 l3.4,-1 V3.1 l2.6,-1.4 L14,3.1 v21.2 zM25.8,17 h-3.2 l-2.3,-1.9 l-1,1.2 l1.8,1.5 l-1.8,1.5 l1,1.2 l2.3,-1.9 h2.5 v2.1 l-3.4,1 v2.8 l-2.6,1.4 l-3.6,-1.5 V3.2 l3.8,-1.5 L21.7,3 v2.8 l3.4,1 v2 h-2.5 L20.3,7 l-1,1.2 l1.8,1.5 l-1.8,1.5 l1,1.2 l2.3,-1.9 h3.1 l2,3.4 l-1.9,3.1 z" fill="#ffffff" id="svg_1" data-darkreader-inline-fill="" style="--darkreader-inline-fill:#181a1b;" class="" fill-opacity="1"/></g></svg>