<svg xmlns="http://www.w3.org/2000/svg" viewBox="0 0 29.5 27.5"><path d="M26.6 9V5.7l-3.4-1V2.1L19.4 0l-4.6 1.8L10.4 0 6.3 2.1v2.6l-3.4 1V9L0 13.8l2.9 4.7v3.3l3.4 1v2.6l3.8 2.1 4.6-1.8 4.4 1.8 4.1-2.1v-2.6l3.4-1v-3.3l2.9-4.7L26.6 9zM14 24.3l-3.8 1.5-2.4-1.4v-2.8l-3.4-1v-2h2.5l2.3 1.9 1-1.2-1.8-1.5 1.8-1.5-1-1.2L6.9 17H3.8l-2-3.4 1.9-3.2h3.2l2.3 1.9 1-1.2-1.9-1.3 1.8-1.5-1-1.1L6.9 9H4.4V6.9l3.4-1V3.1l2.6-1.4L14 3.1v21.2zM25.8 17h-3.2l-2.3-1.9-1 1.2 1.8 1.5-1.8 1.5 1 1.2 2.3-1.9h2.5v2.1l-3.4 1v2.8l-2.6 1.4-3.6-1.5V3.2l3.8-1.5L21.7 3v2.8l3.4 1v2h-2.5L20.3 7l-1 1.2 1.8 1.5-1.8 1.5 1 1.2 2.3-1.9h3.1l2 3.4-1.9 3.1z" fill="#385985"/></svg>
