<svg xmlns="http://www.w3.org/2000/svg" version="1.1" xml:space="preserve" width="31.4" height="25.8"><rect id="backgroundrect" width="100%" height="100%" x="0" y="0" fill="none" stroke="none"/><g class="currentLayer" style=""><title>Layer 1</title><path class="st0" d="M8.7 10.5c1.2.5 2.6.8 4 .8h.6c1.7-.1 3.2-.6 4.3-1.3 1-.7 1.6-1.6 1.5-2.6-.1-1.1-1-2.1-2.4-2.7-1.3-.6-3-.9-4.7-.8-1.6.1-3.2.6-4.2 1.3C6.6 6 6.1 7 6.3 8c.2 1 1 1.9 2.4 2.5zm-.1-4c.9-.6 2.1-1 3.5-1h.6c1.2 0 2.4.2 3.4.7.9.4 1.5 1 1.6 1.5 0 .4-.3.8-.8 1.2-.9.6-2.1 1-3.5 1-1.4.1-2.9-.2-4-.7-1-.4-1.5-1-1.6-1.5-.1-.5.4-1 .8-1.2z" id="svg_1" fill="#ffffff" fill-opacity="1"/><path class="st0" d="M5 13.7c2.6 1.2 5.8 1.7 9 1.5 2.2-.1 4.2-.6 6-1.3l5.9 2.7c.6.3 1.3.4 2 .4h.3c.8 0 1.6-.3 2.2-.7.8-.5 1.2-1.4 1-2.2-.1-.8-.7-1.4-1.5-1.8l-5-2.3c.6-1.1.8-2.2.6-3.4-.4-2.1-2.1-3.9-4.9-5.1C18 .3 14.9-.2 11.6 0 8.2.2 5.2 1.1 3.1 2.6.7 4.2-.3 6.3.1 8.5c.4 2.1 2.1 3.9 4.9 5.2zM4 3.8c1.9-1.3 4.6-2.1 7.6-2.3s5.9.3 8.3 1.4c2.3 1 3.7 2.5 4 4.1.2 1-.1 2-.8 3-.1.2-.2.4-.1.6.1.2.2.4.4.5l5.8 2.7c.4.2.6.4.7.7s-.2.6-.4.7c-.4.2-.9.4-1.4.4-.6 0-1.1-.1-1.6-.3l-6.2-2.8c-.1 0-.2-.1-.3-.1-.1 0-.2 0-.3.1-1.7.7-3.7 1.2-5.8 1.3-3 .2-5.9-.3-8.3-1.4-2.3-1-3.7-2.5-4-4.1-.3-1.7.5-3.2 2.4-4.5z" id="svg_2" fill="#ffffff" fill-opacity="1"/><path class="st0" d="M26 19.6c-2.9-1.3-5.7-2.5-5.7-2.5-.2-.1-.3-.1-.5 0-2.1.9-3.8 1.4-6.5 1.6C4.6 19.2.8 14.9.7 13.8c-1 1.1 2.1 6.9 12.6 6.3 2.7-.1 4.4-.7 6.6-1.6 0 0 2 .9 5.5 2.4 4.5 2 7-1.1 5.5-2.4.1.7-1.5 2.5-4.9 1.1z" id="svg_3" fill="#ffffff" fill-opacity="1"/><path class="st0 selected" d="M26 23.9c-2.9-1.3-5.7-2.5-5.7-2.5-.2-.1-.3-.1-.5 0-2.1.9-3.8 1.4-6.5 1.6C4.6 23.4.8 19.2.7 18c-1 1.1 2.1 6.9 12.6 6.3 2.7-.1 4.4-.7 6.6-1.6 0 0 2 .9 5.5 2.4 4.5 2 7-1.1 5.5-2.4.1.8-1.5 2.7-4.9 1.2z" id="svg_4" fill="#ffffff" fill-opacity="1"/></g></svg>