<?xml version="1.0" encoding="iso-8859-1"?>
<!-- Generator: Adobe Illustrator 25.4.1, SVG Export Plug-In . SVG Version: 6.00 Build 0)  -->
<svg version="1.1" id="Layer_1" xmlns="http://www.w3.org/2000/svg" xmlns:xlink="http://www.w3.org/1999/xlink" x="0px" y="0px"
	 viewBox="0 0 17.738 16.743" style="enable-background:new 0 0 17.738 16.743;" xml:space="preserve">
<path id="Path_10125" style="fill:#385985;" d="M6.069,7.866h0.814V7.388c0.084-0.645,0.436-1.226,0.968-1.6
	C8.457,5.358,8.85,4.689,8.929,3.95c0.012-1.007-0.795-1.834-1.802-1.845C7.03,2.103,6.934,2.11,6.839,2.124
	C5.61,2.066,4.567,3.016,4.509,4.245C4.508,4.268,4.507,4.29,4.507,4.313h0.858c0.004-0.791,0.649-1.43,1.441-1.425
	c0.007,0,0.015,0,0.022,0C7.391,2.808,7.913,3.2,7.993,3.763C8.003,3.836,8.005,3.91,8,3.983C7.925,4.523,7.637,5.01,7.2,5.336
	c-0.643,0.468-1.056,1.188-1.133,1.98L6.069,7.866z M6.454,10.143c0.387,0,0.7-0.313,0.7-0.7v0c0-0.387-0.313-0.7-0.7-0.7
	c0,0,0,0,0,0c-0.387,0-0.7,0.313-0.7,0.7l0,0C5.754,9.83,6.067,10.143,6.454,10.143C6.454,10.143,6.454,10.143,6.454,10.143z"/>
<path style="fill:#385985;" d="M15.33,3.94c-0.06,0-0.11,0.01-0.17,0.01c-0.48,0-0.95,0.14-1.35,0.38
	c-0.19,0.09-0.38,0.16-0.58,0.21V0H0v12.69h4.68c-0.05,0.13-0.1,0.25-0.15,0.35c-0.27,0.39-0.41,0.84-0.41,1.31
	c0.03,1.33,1.12,2.39,2.45,2.39h0.09c1.32,0,2.41-1.06,2.45-2.39c0-0.47-0.15-0.92-0.4-1.3c-0.06-0.11-0.11-0.24-0.16-0.36h4.68
	V8.15c0.2,0.05,0.39,0.12,0.57,0.2c0.41,0.25,0.88,0.39,1.35,0.39c0.13,0.01,0.25,0.01,0.38,0c0.64-0.05,1.22-0.35,1.63-0.84
	c0.42-0.48,0.62-1.1,0.57-1.74C17.63,4.9,16.58,3.94,15.33,3.94z M15.24,8.02h-0.08c-0.24,0-0.47-0.04-0.7-0.13l-0.29-0.16
	c-0.41-0.2-0.84-0.32-1.29-0.35l-0.39-0.03v4.63H7.65l0.07,0.41c0.06,0.35,0.18,0.69,0.35,1.01l0.17,0.31
	c0.09,0.2,0.13,0.42,0.13,0.63c-0.04,0.92-0.76,1.64-1.67,1.68H6.62c-0.94,0-1.72-0.73-1.76-1.67c0-0.23,0.04-0.45,0.14-0.65
	l0.16-0.3c0.17-0.32,0.29-0.66,0.35-1.02l0.06-0.41H0.73V0.71H12.5v4.62l0.39-0.02c0.45-0.03,0.88-0.15,1.28-0.35l0.32-0.17
	c0.22-0.08,0.44-0.12,0.68-0.12c0.04-0.01,0.09-0.01,0.14,0c0.92,0.03,1.64,0.82,1.61,1.74c-0.02,0.45-0.21,0.87-0.54,1.17
	C16.07,7.86,15.67,8.02,15.24,8.02z"/>
</svg>
