<?xml version="1.0" encoding="iso-8859-1"?>
<!-- Generator: Adobe Illustrator 25.3.1, SVG Export Plug-In . SVG Version: 6.00 Build 0)  -->
<svg version="1.1" id="Layer_1" xmlns="http://www.w3.org/2000/svg" xmlns:xlink="http://www.w3.org/1999/xlink" x="0px" y="0px"
	 viewBox="0 0 23.264 22.884" style="enable-background:new 0 0 23.264 22.884;" xml:space="preserve">
<path id="Path_9384" d="M10.786,2.136C8.9,4.026,8.194,6.794,8.944,9.356l-8.293,8.293
	c-0.141,0.141-0.23,0.325-0.252,0.523l-0.394,3.742c-0.051,0.482,0.299,0.914,0.782,0.965c0.08,0.008,0.16,0.006,0.239-0.008
	l4.945-0.847c0.387-0.07,0.68-0.39,0.717-0.782l0.142-1.551l1.551-0.142c0.418-0.041,0.748-0.371,0.789-0.789l0.142-1.551
	l1.551-0.142c0.204-0.016,0.396-0.103,0.543-0.245l2.508-2.508c3.874,1.128,7.929-1.099,9.057-4.973
	c1.128-3.874-1.099-7.929-4.973-9.057C15.436-0.462,12.671,0.249,10.786,2.136L10.786,2.136z M12.027,3.377
	c2.17-2.171,5.689-2.173,7.86-0.003s2.173,5.689,0.003,7.86c-1.55,1.551-3.868,2.046-5.917,1.263
	c-0.324-0.121-0.689-0.039-0.931,0.207l-2.65,2.65l-1.965,0.181c-0.417,0.041-0.748,0.371-0.789,0.788l-0.142,1.551l-1.551,0.142
	c-0.418,0.041-0.748,0.371-0.789,0.789l-0.142,1.6l-3.148,0.536l0.239-2.269l8.454-8.454c0.246-0.245,0.325-0.613,0.2-0.937
	c-0.78-2.047-0.284-4.361,1.267-5.908L12.027,3.377z M15.543,3.997c-1.028,1.028-1.027,2.695,0.001,3.722s2.695,1.027,3.722-0.001
	c1.027-1.028,1.027-2.694,0-3.721C18.235,2.977,16.574,2.977,15.543,3.997L15.543,3.997z M16.784,5.238
	c0.343-0.343,0.899-0.343,1.242-0.001c0.343,0.343,0.343,0.899,0.001,1.242s-0.899,0.343-1.242,0.001c0,0,0,0-0.001-0.001
	c-0.343-0.333-0.351-0.88-0.018-1.223C16.772,5.25,16.778,5.244,16.784,5.238z"/>
</svg>
