<?xml version="1.0" encoding="iso-8859-1"?>
<!-- Generator: Adobe Illustrator 25.2.1, SVG Export Plug-In . SVG Version: 6.00 Build 0)  -->
<svg version="1.1" id="Layer_1" xmlns="http://www.w3.org/2000/svg" xmlns:xlink="http://www.w3.org/1999/xlink" x="0px" y="0px"
	 viewBox="0 0 19.629 21.496" style="enable-background:new 0 0 19.629 21.496;" xml:space="preserve">
<g id="noun_database_3324064" transform="translate(-155.65 313.604)">
	<g id="Group_6250" transform="translate(155.9 -313.354)">
		<g id="Path_9259">
			<path style="fill:#0F1633;" d="M9.56-0.25c-4.87,0-9.81,1.52-9.81,4.41v12.67c0,2.9,4.94,4.42,9.81,4.42
				c4.88,0,9.82-1.52,9.82-4.42V4.16C19.38,1.27,14.44-0.25,9.56-0.25z M16.35,5.5c-2.11,0.95-4.45,1.42-6.79,1.34
				C7.24,6.91,4.89,6.45,2.79,5.51c-0.83-0.44-1.3-0.93-1.3-1.35c0-1.06,3.22-2.67,8.07-2.67c4.86,0,8.08,1.61,8.08,2.67
				C17.64,4.58,17.16,5.07,16.35,5.5z M9.56,19.5c-4.85,0-8.07-1.6-8.07-2.67v-1.62l0.05,0.03c0.14,0.08,0.28,0.16,0.44,0.25
				c2.37,1.08,4.98,1.6,7.57,1.53c2.6,0.1,5.23-0.44,7.6-1.53c0.16-0.08,0.3-0.17,0.43-0.25l0.05-0.03l0.01,1.62
				C17.64,17.9,14.42,19.5,9.56,19.5z M17.64,12.61c0,0.42-0.48,0.91-1.29,1.34c-2.11,0.94-4.46,1.41-6.79,1.34
				c-2.32,0.07-4.67-0.4-6.77-1.34c-0.83-0.43-1.3-0.92-1.3-1.34v-1.62l0.05,0.03c0.14,0.08,0.28,0.16,0.44,0.25
				c2.37,1.09,4.99,1.6,7.58,1.53c2.59,0.09,5.22-0.44,7.6-1.53c0.15-0.08,0.29-0.16,0.43-0.25l0.05-0.03
				C17.64,10.99,17.64,12.61,17.64,12.61z M17.64,8.39c0,0.41-0.48,0.9-1.29,1.33c-2.11,0.95-4.45,1.42-6.79,1.34
				c-2.32,0.07-4.67-0.39-6.77-1.33c-0.82-0.43-1.3-0.92-1.3-1.34V6.77L1.54,6.8c0.14,0.08,0.28,0.16,0.44,0.25
				c2.37,1.09,4.99,1.61,7.58,1.53c2.6,0.09,5.22-0.44,7.6-1.53c0.15-0.08,0.29-0.17,0.42-0.25l0.06-0.03V8.39z"/>
		</g>
	</g>
</g>
</svg>
