<svg width="18" height="17" viewBox="0 0 18 17" fill="none" xmlns="http://www.w3.org/2000/svg">
<path d="M10.4181 16.9906H10.4727H10.4181ZM9.65449 16.9906V14.6997L9.98174 14.6452C10.8664 14.4853 11.7047 14.1313 12.4363 13.6088L12.709 13.3907L14.2908 15.027L13.7454 15.5725L12.5999 14.427C11.9335 14.8514 11.1935 15.1475 10.4181 15.2998V16.9906H9.65449ZM7.5272 16.9906V15.3542C6.7622 15.1683 6.02756 14.8745 5.34538 14.4816L4.19994 15.627L3.65449 15.0815L5.29085 13.4451L5.56358 13.6634C6.28972 14.1956 7.1303 14.5504 8.01812 14.6997L8.34538 14.7543V16.9906H7.5272ZM13.6363 12.5179L13.8545 12.2452C14.3863 11.5188 14.7412 10.6783 14.8908 9.79062L14.9454 9.46342H17.1818V10.2816H15.5454C15.3693 11.0497 15.0749 11.7858 14.6727 12.4634L15.8181 13.6088L15.2727 14.1543L13.6363 12.5179ZM2.18175 13.6088L3.32721 12.4634C2.90254 11.7971 2.60651 11.057 2.45448 10.2816H0.818115V9.46342H3.10903L3.16356 9.79062C3.32328 10.6754 3.67725 11.5137 4.19994 12.2452L4.41812 12.5179L2.72721 14.1543L2.18175 13.6088ZM5.45448 8.80877C5.45448 8.10755 5.66242 7.42214 6.052 6.83909C6.44158 6.25604 6.99529 5.80159 7.64314 5.53325C8.29099 5.2649 9.00387 5.1947 9.69162 5.3315C10.3794 5.4683 11.0111 5.80592 11.5069 6.30176C12.0028 6.7976 12.3405 7.42935 12.4773 8.1171C12.6141 8.80485 12.5439 9.51777 12.2755 10.1656C12.0072 10.8135 11.5527 11.3671 10.9697 11.7567C10.3866 12.1463 9.70116 12.3542 8.99993 12.3542C8.53405 12.3551 8.07259 12.2641 7.64201 12.0862C7.21143 11.9083 6.82021 11.647 6.49081 11.3175C6.1614 10.9881 5.90028 10.5969 5.72245 10.1663C5.54461 9.73568 5.45354 9.27412 5.45448 8.80824V8.80877ZM6.21811 8.80877C6.21811 9.35896 6.38126 9.89685 6.68693 10.3543C6.9926 10.8118 7.42706 11.1684 7.93538 11.3789C8.44369 11.5895 9.00302 11.6446 9.54264 11.5372C10.0823 11.4299 10.5779 11.165 10.967 10.7759C11.356 10.3869 11.621 9.89118 11.7283 9.35156C11.8356 8.81194 11.7806 8.25254 11.57 7.74423C11.3595 7.23592 11.0029 6.80145 10.5454 6.49578C10.088 6.19011 9.55013 6.02703 8.99993 6.02703C8.26317 6.03005 7.55744 6.32403 7.03641 6.84495C6.51539 7.36587 6.22127 8.07148 6.21811 8.80824V8.80877ZM17.1272 8.15425H17.1818H17.1272ZM14.8908 8.15425L14.8363 7.82706C14.6767 6.94228 14.3227 6.10395 13.7999 5.37251L13.5817 5.09979L15.2181 3.46342L15.7636 4.00888L14.6181 5.15425C15.0429 5.82057 15.3389 6.56064 15.4908 7.33607H17.1272V8.15425H14.8908ZM0.818115 8.15425V7.33607H2.45448C2.64061 6.57114 2.93445 5.83653 3.32721 5.15425L2.18175 4.06334L2.72721 3.51789L4.36357 5.15425L4.14539 5.37251C3.61324 6.09868 3.25834 6.93925 3.10903 7.82706V8.15425H0.818115ZM12.4363 3.95428C11.7099 3.42254 10.8694 3.06772 9.98174 2.91797L9.65449 2.86337V0.626953H10.4727V2.26332C11.2407 2.43951 11.9768 2.73398 12.6545 3.1361L13.7999 1.99059L14.3454 2.53604L12.709 4.17241L12.4363 3.95428ZM3.65449 2.53604L4.19994 1.99059L5.34538 3.1361C6.01159 2.71114 6.7517 2.41504 7.5272 2.26332V0.626953H8.34538V2.91797L8.01812 2.97243C7.14094 3.12676 6.30521 3.46107 5.56358 3.95428L5.29085 4.17241L3.65449 2.53604Z" fill="#BDC3D7"/>
</svg>
