<svg width="16" height="17" viewBox="0 0 16 17" fill="none" xmlns="http://www.w3.org/2000/svg">
  <g clip-path="url(#clip0_745_8033)">
    <path d="M13.5889 13.5153L12.6422 12.8909C12.6422 12.8909 12.34 12.7175 11.9889 12.8864C11.6378 13.0531 10.2556 13.8509 10.2556 13.8509C10.2556 13.8509 10.0045 14.0731 10.0222 14.4998C10.04 14.9286 10.2467 15.6509 10.2467 15.6509" stroke="#DFE5EF" stroke-width="0.75" stroke-linejoin="round"/>
    <path d="M15.6622 8.13086L14.5422 8.3153C14.5422 8.3153 14.2 8.39086 14.06 8.75086C13.92 9.11086 13.4378 10.6331 13.4378 10.6331C13.4378 10.6331 13.4022 10.9664 13.7044 11.2709C14.0067 11.5753 14.6533 11.9664 14.6533 11.9664" stroke="#DFE5EF" stroke-width="0.75" stroke-linejoin="round"/>
    <path d="M13.0489 2.93311L12.4355 3.88644C12.4355 3.88644 12.2622 4.18866 12.44 4.53977C12.6155 4.88866 13.4311 6.25977 13.4311 6.25977C13.4311 6.25977 13.6555 6.50644 14.0844 6.48866C14.5133 6.47088 15.2333 6.24644 15.2333 6.24644" stroke="#DFE5EF" stroke-width="0.75" stroke-linejoin="round"/>
    <path d="M6.36445 7.71086L11.1489 1.64197C11.1867 1.59086 11.1489 1.52197 11.0844 1.52197H6.23334C6.20667 1.52197 6.18223 1.53531 6.16667 1.55753L0.351117 9.84642C0.317783 9.89753 0.355561 9.96419 0.417783 9.96419H3.50223C3.56001 9.96419 3.59778 10.0198 3.57556 10.0709L0.955561 15.9131C0.920005 15.9909 1.02223 16.0575 1.08445 15.9975L5.21112 12.0531L9.49112 7.96197C9.54223 7.91308 9.50667 7.83086 9.43556 7.83086H6.43112C6.36667 7.83086 6.32889 7.75975 6.36667 7.71086H6.36445Z" stroke="#DFE5EF" stroke-width="0.75" stroke-linejoin="round"/>
    <path d="M8.40888 16.0952L8.13111 14.9952C8.13111 14.9952 8.02222 14.6641 7.65111 14.5508C7.27999 14.4374 5.71999 14.0952 5.71999 14.0952C5.71999 14.0952 5.38444 14.0886 5.10888 14.4174C4.83555 14.7463 4.49777 15.4197 4.49777 15.4197" stroke="#DFE5EF" stroke-width="0.75" stroke-linejoin="round"/>
  </g>
  <defs>
    <clipPath id="clip0_745_8033">
      <rect width="16" height="16" fill="white" transform="translate(0 0.808594)"/>
    </clipPath>
  </defs>
</svg>
