<svg xmlns="http://www.w3.org/2000/svg" width="30" height="30" viewBox="0 0 30 30">
  <g id="Group_7762" data-name="Group 7762" transform="translate(-15 -15)">
    <circle id="Ellipse_355" data-name="Ellipse 355" cx="15" cy="15" r="15" transform="translate(15 15)" fill="#010101"/>
    <g id="ico_helpCenter" data-name="ico/helpCenter" transform="translate(21.021 21)">
      <rect id="Rectangle_16996" data-name="Rectangle 16996" width="18" height="18" fill="#bdc3d7" opacity="0"/>
      <path id="Path_10425" data-name="Path 10425" d="M9,0A9,9,0,0,0,6.155,17.54c.45.082.614-.2.614-.434,0-.213-.008-.78-.012-1.53-2.5.544-3.032-1.207-3.032-1.207a2.387,2.387,0,0,0-1-1.317c-.817-.558.062-.547.062-.547a1.891,1.891,0,0,1,1.379.928,1.917,1.917,0,0,0,2.619.748,1.921,1.921,0,0,1,.571-1.2c-2-.227-4.1-1-4.1-4.448a3.479,3.479,0,0,1,.927-2.415,3.233,3.233,0,0,1,.088-2.382s.755-.242,2.475.923a8.535,8.535,0,0,1,4.506,0c1.718-1.165,2.473-.923,2.473-.923a3.226,3.226,0,0,1,.089,2.382,3.474,3.474,0,0,1,.926,2.415c0,3.458-2.1,4.218-4.11,4.441a2.148,2.148,0,0,1,.611,1.667c0,1.2-.011,2.174-.011,2.469,0,.241.162.521.619.433A9,9,0,0,0,9,0" transform="translate(0.001 0)" fill="#bdc3d7"/>
    </g>
  </g>
</svg>
