<svg width="14" height="21" viewBox="0 0 14 21" fill="none" xmlns="http://www.w3.org/2000/svg">
<path fill-rule="evenodd" clip-rule="evenodd" d="M3.74688 8.65332C3.1946 8.65332 2.74688 9.10104 2.74688 9.65332V14.8501H0.501C0.0567894 14.8501 -0.166851 15.3861 0.14563 15.7019L4.54724 20.1491C4.74291 20.3468 5.06231 20.3468 5.25798 20.1491L9.65959 15.7019C9.97207 15.3861 9.74843 14.8501 9.30422 14.8501H7.05774V9.65332C7.05774 9.10104 6.61003 8.65332 6.05774 8.65332H3.74688Z" fill="#DFE5EF"/>
<path fill-rule="evenodd" clip-rule="evenodd" d="M10.2917 5.18941H9.79174V5.68941L9.79174 10.8862C9.79174 11.1624 9.56788 11.3862 9.29174 11.3862L7.92486 11.3862V11.8862L9.29174 11.8862C9.84402 11.8862 10.2917 11.4385 10.2917 10.8862L10.2917 6.18941V5.68941L10.7917 5.68941H12.5376C12.9818 5.68941 13.2055 5.1534 12.893 4.83769L8.49138 0.390461C8.29571 0.192763 7.97631 0.192763 7.78064 0.390461L3.37903 4.83768C3.06655 5.1534 3.29019 5.68941 3.7344 5.68941L5.48088 5.68941H5.98088V6.18941L5.98088 7.57536H6.48088L6.48088 5.68941V5.18941H5.98088L3.7344 5.18941L8.13601 0.742188L12.5376 5.18941L10.2917 5.18941Z" fill="#DFE5EF"/>
</svg>
