<svg width="20" height="21" viewBox="0 0 20 21" fill="none" xmlns="http://www.w3.org/2000/svg">
<path d="M15.3164 20.0865V10.0865H17.8164V20.0865H15.3164ZM10.3164 20.0865V15.0865H12.8164V20.0865H10.3164ZM5.31641 20.0865V12.5865H7.81641V20.0865H5.31641ZM0.316406 20.0865V16.3395H2.81641V20.0865H0.316406ZM0 11.0245C0.00132332 10.6101 0.167399 10.213 0.460938 9.92041C0.754476 9.62781 1.15194 9.4635 1.56641 9.4635C1.81765 9.46321 2.06487 9.52429 2.28711 9.64148L5.09766 6.86853C5.03639 6.69781 5.00486 6.51793 5.00391 6.33655C5.00391 6.13155 5.0446 5.92852 5.12305 5.73914C5.20149 5.54975 5.31599 5.37774 5.46094 5.23279C5.60589 5.08784 5.77741 4.97286 5.9668 4.89441C6.15619 4.81596 6.35946 4.77551 6.56445 4.77551C6.76961 4.77525 6.97249 4.81547 7.16211 4.8938C7.35173 4.97213 7.52476 5.08708 7.66992 5.23206C7.81509 5.37703 7.93119 5.54913 8.00977 5.73865C8.08834 5.92817 8.12891 6.13139 8.12891 6.33655C8.12887 6.3994 8.12319 6.46219 8.11523 6.52454L10.7852 8.73254C11.0218 8.59518 11.2908 8.52278 11.5645 8.52258C11.8341 8.52122 12.0991 8.5901 12.334 8.72253L15.1211 5.68652C15.0415 5.49444 15.0029 5.28847 15.0039 5.08057C15.0039 4.66656 15.1682 4.26943 15.4609 3.97668C15.7537 3.68394 16.1504 3.51953 16.5645 3.51953C16.9789 3.51953 17.3764 3.68384 17.6699 3.97644C17.9635 4.26904 18.1295 4.6661 18.1309 5.08057C18.1298 5.49566 17.9633 5.8934 17.6699 6.18701C17.3765 6.48062 16.9795 6.64626 16.5645 6.64758C16.3796 6.64635 16.1965 6.6124 16.0234 6.54749L13.0898 9.74756C13.1141 9.85826 13.1247 9.97127 13.125 10.0846C13.125 10.2896 13.0863 10.4925 13.0078 10.6819C12.9294 10.8713 12.8129 11.0434 12.668 11.1884C12.523 11.3333 12.3515 11.4483 12.1621 11.5267C11.9727 11.6052 11.7694 11.6455 11.5645 11.6455C11.3594 11.6456 11.1563 11.6054 10.9668 11.527C10.7773 11.4486 10.606 11.3337 10.4609 11.1887C10.3159 11.0438 10.1996 10.8716 10.1211 10.6821C10.0426 10.4927 10.0039 10.2897 10.0039 10.0846C10.0046 9.96677 10.0184 9.84929 10.0449 9.7345L7.47266 7.60852C7.20809 7.79691 6.89119 7.89831 6.56641 7.89856C6.35705 7.89845 6.14951 7.85593 5.95703 7.77356L3.07422 10.6155C3.11098 10.7456 3.12917 10.8803 3.12891 11.0155C3.12838 11.4293 2.9645 11.8261 2.67188 12.1188C2.37925 12.4114 1.9822 12.576 1.56836 12.5765C1.15502 12.5773 0.758615 12.4146 0.464844 12.1238C0.171072 11.833 0.00343272 11.4379 0 11.0245Z" fill="#0F1633"/>
</svg>
