<svg width="14" height="20" viewBox="0 0 14 20" fill="none" xmlns="http://www.w3.org/2000/svg">
<path d="M6.5 2.57532C6.5 2.29917 6.2759 2.0742 5.99998 2.08542C4.59062 2.14276 3.37715 2.43929 2.4623 2.85379C1.95488 3.08369 1.50476 3.36561 1.16472 3.69398C0.847309 4.0005 0.5 4.473 0.5 5.07532V15.0753C0.5 15.6776 0.847309 16.1501 1.16472 16.4567C1.50476 16.785 1.95488 17.0669 2.4623 17.2968C3.14292 17.6052 3.98882 17.8483 4.9577 17.9762C5.24881 18.0146 5.5 17.7825 5.5 17.4889C5.5 17.2293 5.30173 17.014 5.04453 16.9789C2.87062 16.6821 1.5 15.7611 1.5 15.0753V11.7402C1.78072 11.9499 2.10751 12.1361 2.4623 12.2968C3.2835 12.6689 4.34532 12.9459 5.57344 13.0402C5.52577 12.8938 5.5 12.7376 5.5 12.5753C5.5 12.3864 5.53494 12.2056 5.59869 12.0391C3.10611 11.8356 1.5 10.8177 1.5 10.0753V6.7402C1.78072 6.94991 2.10751 7.13609 2.4623 7.29684C3.28279 7.66859 4.34347 7.94545 5.57023 8.03997C5.52462 7.89648 5.5 7.74362 5.5 7.58502C5.5 7.39252 5.53626 7.20849 5.60232 7.03939C3.10767 6.83664 1.5 5.81806 1.5 5.07532C1.5 4.29384 3.27971 3.20702 5.9997 3.08633C6.27557 3.07409 6.5 2.85146 6.5 2.57532Z" fill="#0F1633"/>
<path d="M8.40489 8.11181C8.46637 7.94791 8.5 7.77039 8.5 7.58502C8.5 7.41906 8.47305 7.25939 8.42328 7.11015C9.65279 7.20419 10.7158 7.48137 11.5377 7.85377C11.8925 8.01452 12.2193 8.2007 12.5 8.41041V5.0753C12.5 4.3895 11.1294 3.46854 8.95547 3.17175C8.69827 3.13663 8.5 2.9213 8.5 2.66171C8.5 2.36807 8.75119 2.13603 9.0423 2.17445C10.0112 2.30231 10.8571 2.54539 11.5377 2.85377C12.0451 3.08367 12.4952 3.36559 12.8353 3.69396C13.1527 4.00048 13.5 4.47298 13.5 5.0753V15.0753C13.5 15.6776 13.1527 16.1501 12.8353 16.4566C12.4952 16.785 12.0451 17.0669 11.5377 17.2968C10.6228 17.7113 9.40938 18.0079 8.00002 18.0652C7.7241 18.0764 7.5 17.8514 7.5 17.5753C7.5 17.2992 7.72443 17.0765 8.0003 17.0643C10.7203 16.9436 12.5 15.8568 12.5 15.0753C12.5 14.3329 10.8939 13.315 8.40132 13.1115C8.46507 12.945 8.5 12.7642 8.5 12.5753C8.5 12.413 8.47423 12.2568 8.42655 12.1104C9.65468 12.2047 10.7165 12.4817 11.5377 12.8538C11.8925 13.0145 12.2193 13.2007 12.5 13.4104V10.0753C12.5 9.33327 10.8954 8.31594 8.40489 8.11181Z" fill="#0F1633"/>
<path fill-rule="evenodd" clip-rule="evenodd" d="M7 5.58502C5.89543 5.58502 5 6.48045 5 7.58502C5 8.68959 5.89543 9.58502 7 9.58502C8.10457 9.58502 9 8.68959 9 7.58502C9 6.48045 8.10457 5.58502 7 5.58502ZM6 7.58502C6 7.03274 6.44772 6.58502 7 6.58502C7.55228 6.58502 8 7.03274 8 7.58502C8 8.13731 7.55228 8.58502 7 8.58502C6.44772 8.58502 6 8.13731 6 7.58502Z" fill="#0F1633"/>
<path fill-rule="evenodd" clip-rule="evenodd" d="M7 10.585C5.89543 10.585 5 11.4805 5 12.585C5 13.6896 5.89543 14.585 7 14.585C8.10457 14.585 9 13.6896 9 12.585C9 11.4805 8.10457 10.585 7 10.585ZM6 12.585C6 12.0327 6.44772 11.585 7 11.585C7.55228 11.585 8 12.0327 8 12.585C8 13.1373 7.55228 13.585 7 13.585C6.44772 13.585 6 13.1373 6 12.585Z" fill="#0F1633"/>
<path d="M5.39275 0.793422C5.23172 0.569095 4.91932 0.517784 4.69499 0.678818C4.47067 0.839851 4.41936 1.15225 4.58039 1.37658L5.52587 2.69368L4.20877 3.63915C3.98444 3.80019 3.93313 4.11258 4.09416 4.33691C4.25519 4.56124 4.56759 4.61255 4.79192 4.45151L6.5152 3.21446C6.73953 3.05343 6.79084 2.74103 6.62981 2.5167L5.39275 0.793422Z" fill="#0F1633"/>
<path d="M8.64645 19.4386C8.84171 19.6338 9.15829 19.6338 9.35355 19.4386C9.54882 19.2433 9.54882 18.9267 9.35355 18.7314L8.20711 17.585L9.35355 16.4386C9.54882 16.2433 9.54882 15.9267 9.35355 15.7315C9.15829 15.5362 8.84171 15.5362 8.64645 15.7315L7.14645 17.2314C6.95118 17.4267 6.95118 17.7433 7.14645 17.9386L8.64645 19.4386Z" fill="#0F1633"/>
</svg>
