<svg width="19" height="18" viewBox="0 0 19 18" xmlns="http://www.w3.org/2000/svg">
<path d="M15.3164 17.0865V7.08655H17.8164V17.0865H15.3164ZM10.3164 17.0865V12.0865H12.8164V17.0865H10.3164ZM5.31641 17.0865V9.58655H7.81641V17.0865H5.31641ZM0.316406 17.0865V13.3395H2.81641V17.0865H0.316406ZM0 8.02454C0.00132332 7.61007 0.167399 7.21301 0.460938 6.92041C0.754476 6.62781 1.15194 6.4635 1.56641 6.4635C1.81765 6.46321 2.06487 6.52429 2.28711 6.64148L5.09766 3.86853C5.03639 3.69781 5.00486 3.51793 5.00391 3.33655C5.00391 3.13155 5.0446 2.92852 5.12305 2.73914C5.20149 2.54975 5.31599 2.37774 5.46094 2.23279C5.60589 2.08784 5.77741 1.97286 5.9668 1.89441C6.15619 1.81596 6.35946 1.77551 6.56445 1.77551C6.76961 1.77525 6.97249 1.81547 7.16211 1.8938C7.35173 1.97213 7.52476 2.08708 7.66992 2.23206C7.81509 2.37703 7.93119 2.54913 8.00977 2.73865C8.08834 2.92817 8.12891 3.13139 8.12891 3.33655C8.12887 3.3994 8.12319 3.46219 8.11523 3.52454L10.7852 5.73254C11.0218 5.59518 11.2908 5.52278 11.5645 5.52258C11.8341 5.52122 12.0991 5.5901 12.334 5.72253L15.1211 2.68652C15.0415 2.49444 15.0029 2.28847 15.0039 2.08057C15.0039 1.66656 15.1682 1.26943 15.4609 0.976685C15.7537 0.68394 16.1504 0.519531 16.5645 0.519531C16.9789 0.519529 17.3764 0.683839 17.6699 0.97644C17.9635 1.26904 18.1295 1.6661 18.1309 2.08057C18.1298 2.49566 17.9633 2.8934 17.6699 3.18701C17.3765 3.48062 16.9795 3.64626 16.5645 3.64758C16.3796 3.64635 16.1965 3.6124 16.0234 3.54749L13.0898 6.74756C13.1141 6.85826 13.1247 6.97127 13.125 7.08459C13.125 7.28959 13.0863 7.4925 13.0078 7.68188C12.9294 7.87127 12.8129 8.0434 12.668 8.18835C12.523 8.33331 12.3515 8.44829 12.1621 8.52673C11.9727 8.60518 11.7694 8.64551 11.5645 8.64551C11.3594 8.64564 11.1563 8.60537 10.9668 8.52698C10.7773 8.44859 10.606 8.33369 10.4609 8.18872C10.3159 8.04376 10.1996 7.87158 10.1211 7.68213C10.0426 7.49267 10.0039 7.28967 10.0039 7.08459C10.0046 6.96677 10.0184 6.84929 10.0449 6.7345L7.47266 4.60852C7.20809 4.79691 6.89119 4.89831 6.56641 4.89856C6.35705 4.89845 6.14951 4.85593 5.95703 4.77356L3.07422 7.61548C3.11098 7.74562 3.12917 7.88027 3.12891 8.0155C3.12838 8.42934 2.9645 8.82615 2.67188 9.11877C2.37925 9.4114 1.9822 9.57601 1.56836 9.57654C1.15502 9.57734 0.758615 9.41455 0.464844 9.12378C0.171072 8.83301 0.00343272 8.43786 0 8.02454Z"/>
</svg>
