<svg width="20" height="21" viewBox="0 0 20 21" fill="none" xmlns="http://www.w3.org/2000/svg">
<path d="M15.5 8.26953H12.5V4.26953C12.5 4.00431 12.3946 3.74996 12.2071 3.56242C12.0196 3.37489 11.7652 3.26953 11.5 3.26953H8.5C8.23478 3.26953 7.98043 3.37489 7.79289 3.56242C7.60536 3.74996 7.5 4.00431 7.5 4.26953V11.2695H4.5C4.23478 11.2695 3.98043 11.3749 3.79289 11.5624C3.60536 11.75 3.5 12.0043 3.5 12.2695V16.2695C3.5 16.5347 3.60536 16.7891 3.79289 16.9766C3.98043 17.1642 4.23478 17.2695 4.5 17.2695H15.5C15.7652 17.2695 16.0196 17.1642 16.2071 16.9766C16.3946 16.7891 16.5 16.5347 16.5 16.2695V9.26953C16.5 9.00431 16.3946 8.74996 16.2071 8.56242C16.0196 8.37489 15.7652 8.26953 15.5 8.26953ZM7.5 16.2695H4.5V12.2695H7.5V16.2695ZM11.5 16.2695H8.5V4.26953H11.5V16.2695ZM15.5 16.2695H12.5V9.26953H15.5V16.2695Z" fill="#DFE5EF"/>
</svg>
