<svg id="channel" xmlns="http://www.w3.org/2000/svg" width="20" height="20" viewBox="0 0 20 20">
  <rect id="Rectangle_16996" data-name="Rectangle 16996" width="20" height="20" fill="#bdc3d7" opacity="0"/>
  <path id="Path_10563" data-name="Path 10563" d="M21328.979-1686.572a.877.877,0,0,1,0-1.164,9.59,9.59,0,0,0,0-12.858.877.877,0,0,1,0-1.165.727.727,0,0,1,1.084,0,11.305,11.305,0,0,1,0,15.187.7.7,0,0,1-.541.244A.735.735,0,0,1,21328.979-1686.572Zm-13.057,0a11.331,11.331,0,0,1,0-15.187.734.734,0,0,1,1.09,0,.864.864,0,0,1,0,1.165,9.59,9.59,0,0,0,0,12.858.864.864,0,0,1,0,1.164.728.728,0,0,1-.541.244A.735.735,0,0,1,21315.922-1686.572Zm9.8-3.5a.873.873,0,0,1,0-1.172,4.347,4.347,0,0,0,0-5.836.883.883,0,0,1,0-1.179.738.738,0,0,1,1.084,0,6.107,6.107,0,0,1,0,8.187.714.714,0,0,1-.541.244A.736.736,0,0,1,21325.719-1690.072Zm-6.531,0a6.12,6.12,0,0,1,0-8.187.747.747,0,0,1,1.092,0,.873.873,0,0,1,0,1.172,4.356,4.356,0,0,0,0,5.843.873.873,0,0,1,0,1.172.742.742,0,0,1-.549.244A.736.736,0,0,1,21319.188-1690.072Zm2.309-4.09a1.559,1.559,0,0,1,1.5-1.61,1.56,1.56,0,0,1,1.506,1.61,1.56,1.56,0,0,1-1.506,1.61A1.559,1.559,0,0,1,21321.5-1694.162Z" transform="translate(-21312.996 1704.164)"/>
</svg>
