<svg viewBox="0 0 24 24" fill="none" xmlns="http://www.w3.org/2000/svg">
<path d="M20.749 19.9016L15.7702 14.9228C16.872 13.6251 17.4761 11.9776 17.4742 10.2752C17.4742 8.36564 16.7157 6.5343 15.3654 5.18404C14.0151 3.83378 12.1838 3.0752 10.2742 3.0752C8.36466 3.0752 6.53332 3.83378 5.18305 5.18404C3.83279 6.5343 3.07422 8.36564 3.07422 10.2752C3.07422 12.1848 3.83279 14.0161 5.18305 15.3664C6.53332 16.7166 8.36466 17.4752 10.2742 17.4752C11.9766 17.4767 13.6239 16.8727 14.9218 15.7712L19.9006 20.75C20.0131 20.8622 20.1654 20.9252 20.3242 20.9252C20.4031 20.9253 20.4812 20.9099 20.5541 20.8799C20.627 20.8498 20.6932 20.8057 20.749 20.75C20.8615 20.6375 20.9247 20.4849 20.9247 20.3258C20.9247 20.1667 20.8615 20.0141 20.749 19.9016V19.9016ZM10.2742 16.2752C8.68341 16.2736 7.15821 15.641 6.03334 14.5161C4.90846 13.3912 4.27581 11.866 4.27422 10.2752C4.27612 8.68448 4.90888 7.15946 6.03369 6.03466C7.15849 4.90985 8.68351 4.2771 10.2742 4.2752C11.865 4.27678 13.3902 4.90943 14.5151 6.03431C15.64 7.15918 16.2726 8.68438 16.2742 10.2752C16.2742 11.8665 15.6421 13.3926 14.5169 14.5178C13.3916 15.6431 11.8655 16.2752 10.2742 16.2752V16.2752Z" fill="#0F1633"/>
</svg>
