<?xml version="1.0" encoding="iso-8859-1"?>
<!-- Generator: Adobe Illustrator 25.2.1, SVG Export Plug-In . SVG Version: 6.00 Build 0)  -->
<svg version="1.1" id="Layer_1" xmlns="http://www.w3.org/2000/svg" xmlns:xlink="http://www.w3.org/1999/xlink" x="0px" y="0px"
	 viewBox="0 0 21.908 21.916" style="enable-background:new 0 0 21.908 21.916;" xml:space="preserve">
<g id="noun_setting_3806705" transform="translate(-653.01 526.99)">
	<g id="Group_6249" transform="translate(653.01 -526.99)">
		<path id="Path_9257" style="fill:#BDC3D7;" d="M12.19,21.915H9.717c-0.391,0.004-0.725-0.28-0.783-0.666l-0.266-1.738
			c-0.761-0.2-1.49-0.502-2.169-0.9L5.09,19.652c-0.312,0.229-0.745,0.196-1.018-0.078l-1.73-1.746
			c-0.274-0.273-0.307-0.706-0.078-1.018l1.041-1.409c-0.398-0.679-0.7-1.408-0.9-2.169l-1.738-0.266
			c-0.386-0.058-0.67-0.392-0.666-0.783V9.717c-0.004-0.391,0.28-0.725,0.666-0.783l1.738-0.266c0.2-0.761,0.502-1.49,0.9-2.169
			l-1.057-1.4C2.023,4.783,2.063,4.35,2.342,4.081l1.737-1.74c0.273-0.274,0.706-0.307,1.018-0.078l1.409,1.041
			c0.679-0.398,1.408-0.7,2.169-0.9l0.266-1.738C8.999,0.28,9.333-0.004,9.724,0h2.474c0.391-0.004,0.725,0.28,0.783,0.666
			l0.266,1.738c0.761,0.2,1.49,0.502,2.169,0.9l1.409-1.041c0.312-0.229,0.745-0.196,1.018,0.078l1.723,1.738
			c0.274,0.273,0.307,0.706,0.078,1.018l-1.041,1.409c0.398,0.679,0.7,1.408,0.9,2.169l1.738,0.266
			c0.386,0.058,0.67,0.392,0.666,0.783v2.474c0.004,0.391-0.28,0.725-0.666,0.783l-1.738,0.266c-0.2,0.761-0.502,1.49-0.9,2.169
			l1.041,1.409c0.229,0.312,0.196,0.745-0.078,1.018l-1.738,1.723c-0.273,0.274-0.706,0.307-1.018,0.078l-1.409-1.041
			c-0.679,0.398-1.408,0.7-2.169,0.9l-0.266,1.738C12.912,21.628,12.581,21.915,12.19,21.915z M10.39,20.349h1.127l0.219-1.566
			c0.05-0.327,0.301-0.587,0.626-0.65c0.933-0.181,1.82-0.548,2.607-1.08c0.27-0.19,0.63-0.19,0.9,0L17.216,18l0.783-0.783
			l-0.955-1.3c-0.19-0.27-0.19-0.63,0-0.9c0.532-0.787,0.899-1.674,1.08-2.607c0.045-0.346,0.313-0.62,0.658-0.673l1.566-0.243
			V10.39l-1.566-0.219c-0.327-0.05-0.587-0.301-0.65-0.626c-0.181-0.933-0.548-1.82-1.08-2.607c-0.19-0.27-0.19-0.63,0-0.9L18,4.69
			l-0.783-0.783L15.89,4.87c-0.27,0.19-0.63,0.19-0.9,0c-0.785-0.531-1.67-0.899-2.6-1.08c-0.339-0.055-0.603-0.325-0.65-0.666
			l-0.25-1.566h-1.1l-0.219,1.566c-0.05,0.327-0.301,0.587-0.626,0.65c-0.933,0.181-1.82,0.548-2.607,1.08
			c-0.27,0.19-0.63,0.19-0.9,0L4.69,3.907L3.907,4.69L4.87,6.013c0.19,0.27,0.19,0.63,0,0.9c-0.532,0.788-0.9,1.675-1.08,2.608
			c-0.055,0.339-0.325,0.603-0.666,0.65l-1.566,0.243v1.127l1.566,0.2c0.327,0.05,0.587,0.301,0.65,0.626
			c0.181,0.933,0.548,1.82,1.08,2.607c0.19,0.27,0.19,0.63,0,0.9l-0.947,1.347l0.783,0.783l1.3-0.959c0.27-0.19,0.63-0.19,0.9,0
			c0.787,0.532,1.674,0.899,2.607,1.08c0.346,0.045,0.62,0.313,0.673,0.658L10.39,20.349z"/>
		<path id="Path_9258" style="fill:#BDC3D7;" d="M10.953,15.894c-2.728,0-4.94-2.212-4.94-4.94s2.212-4.94,4.94-4.94
			s4.94,2.212,4.94,4.94l0,0C15.893,13.682,13.681,15.894,10.953,15.894z M10.953,7.579c-1.864,0-3.375,1.511-3.375,3.375
			s1.511,3.375,3.375,3.375c1.864,0,3.375-1.511,3.375-3.375S12.817,7.579,10.953,7.579z"/>
	</g>
</g>
</svg>
