<svg id="amalytics" xmlns="http://www.w3.org/2000/svg" width="20" height="20" viewBox="0 0 20 20">
  <rect id="Rectangle_16996" data-name="Rectangle 16996" width="20" height="20" fill="#bdc3d7" opacity="0"/>
  <path id="Path_10545" data-name="Path 10545" d="M10,17.714V12.571h1.286v5.143h6.429V6.143H19V17.714A1.286,1.286,0,0,1,17.714,19H2.286A1.286,1.286,0,0,1,1,17.714V15.143H2.286v2.571ZM16.24,4.67,12.384,8.527a1.929,1.929,0,0,1-3.263,2.016L5.631,11.7l-.774.258a1.929,1.929,0,1,1-.406-1.219L8.714,9.323a1.929,1.929,0,0,1,2.759-1.706l3.857-3.857a1.929,1.929,0,1,1,.909.909Z" transform="translate(0 0)" fill="#bdc3d7" fill-rule="evenodd"/>
</svg>
