<svg id="analytics" xmlns="http://www.w3.org/2000/svg" width="20" height="20" viewBox="0 0 20 20">
  <rect id="Rectangle_16996" data-name="Rectangle 16996" width="20" height="20" fill="#bdc3d7" opacity="0"/>
  <path id="Path_10546" data-name="Path 10546" d="M20993.064-1409.688v-10h2.5v10Zm-5,0v-5h2.5v5Zm-5,0v-7.5h2.5v7.5Zm-5,0v-3.747h2.5v3.747Zm-.316-9.062a1.566,1.566,0,0,1,1.566-1.561,1.542,1.542,0,0,1,.721.178l2.811-2.773a1.6,1.6,0,0,1-.094-.532,1.561,1.561,0,0,1,1.561-1.561,1.561,1.561,0,0,1,1.563,1.561,1.491,1.491,0,0,1-.012.188l2.67,2.208a1.554,1.554,0,0,1,.779-.21,1.552,1.552,0,0,1,.77.2l2.787-3.036a1.564,1.564,0,0,1-.119-.606,1.561,1.561,0,0,1,1.561-1.561,1.566,1.566,0,0,1,1.566,1.561,1.571,1.571,0,0,1-1.566,1.567,1.57,1.57,0,0,1-.541-.1l-2.934,3.2a1.594,1.594,0,0,1,.037.337,1.561,1.561,0,0,1-1.561,1.561,1.561,1.561,0,0,1-1.562-1.561,1.594,1.594,0,0,1,.041-.35l-2.572-2.126a1.564,1.564,0,0,1-.906.29,1.55,1.55,0,0,1-.609-.125l-2.883,2.842a1.461,1.461,0,0,1,.055.4,1.563,1.563,0,0,1-1.561,1.561A1.565,1.565,0,0,1,20977.748-1418.75Z" transform="translate(-20976.813 1428.437)"/>
</svg>
