<svg id="report" xmlns="http://www.w3.org/2000/svg" width="20" height="20" viewBox="0 0 20 20">
  <rect id="Rectangle_17608" data-name="Rectangle 17608" width="20" height="20" fill="#bdc3d7" opacity="0"/>
  <path id="Path_10520" data-name="Path 10520" d="M9.6,1.042,7.592.371a1.25,1.25,0,0,0-1.62.941L5.25,4.923H3.125a.625.625,0,0,0,0,1.25H5.157A5.009,5.009,0,0,0,5.3,9.122L2.7,8.691A1.25,1.25,0,0,0,1.25,9.923v1.25a2.479,2.479,0,0,1,1.25.335V9.923l1.25.209,2.324.388,2.7.45.6.1v7.5L2.5,17.423V15.838a2.487,2.487,0,0,1-1.25.335v1.25A1.25,1.25,0,0,0,2.3,18.656l7.5,1.25a1.254,1.254,0,0,0,.41,0l7.5-1.25a1.25,1.25,0,0,0,1.045-1.233v-1.25a2.488,2.488,0,0,1-1.25-.335v1.585L10.625,18.57v-7.5l.6-.1,2.7-.45,2.324-.389,1.25-.208v1.585a2.487,2.487,0,0,1,1.25-.335V9.923A1.25,1.25,0,0,0,17.3,8.691L14.7,9.122a4.989,4.989,0,0,0,.139-2.949h2.033a.625.625,0,0,0,0-1.25H14.75l-.722-3.612A1.25,1.25,0,0,0,12.406.372l-2.011.67a1.25,1.25,0,0,1-.79,0Zm3.6,8.33a3.766,3.766,0,0,0,.332-3.2H6.463a3.766,3.766,0,0,0,.332,3.2l3.2.534Zm.3-4.449h-2l-.25-1.25,1.875-.625Zm-12.25,10A1.25,1.25,0,1,0,0,13.673,1.25,1.25,0,0,0,1.25,14.923Zm17.5,0a1.25,1.25,0,1,0-1.25-1.25A1.25,1.25,0,0,0,18.75,14.923Z" transform="translate(0 -0.109)" fill="#bdc3d7" fill-rule="evenodd"/>
</svg>
