<svg width="14" height="15" viewBox="0 0 14 15" fill="none" xmlns="http://www.w3.org/2000/svg">
<path d="M12.5 5.26953H9.5V1.26953C9.5 1.00431 9.39464 0.74996 9.20711 0.562424C9.01957 0.374887 8.76522 0.269531 8.5 0.269531H5.5C5.23478 0.269531 4.98043 0.374887 4.79289 0.562424C4.60536 0.74996 4.5 1.00431 4.5 1.26953V8.26953H1.5C1.23478 8.26953 0.980429 8.37489 0.792892 8.56242C0.605356 8.74996 0.5 9.00431 0.5 9.26953V13.2695C0.5 13.5347 0.605356 13.7891 0.792892 13.9766C0.980429 14.1642 1.23478 14.2695 1.5 14.2695H12.5C12.7652 14.2695 13.0196 14.1642 13.2071 13.9766C13.3946 13.7891 13.5 13.5347 13.5 13.2695V6.26953C13.5 6.00431 13.3946 5.74996 13.2071 5.56242C13.0196 5.37489 12.7652 5.26953 12.5 5.26953ZM4.5 13.2695H1.5V9.26953H4.5V13.2695ZM8.5 13.2695H5.5V1.26953H8.5V13.2695ZM12.5 13.2695H9.5V6.26953H12.5V13.2695Z" fill="#DFE5EF"/>
</svg>
