<?xml version="1.0" encoding="iso-8859-1"?>
<!-- Generator: Adobe Illustrator 25.3.1, SVG Export Plug-In . SVG Version: 6.00 Build 0)  -->
<svg version="1.1" id="Layer_1" xmlns="http://www.w3.org/2000/svg" xmlns:xlink="http://www.w3.org/1999/xlink" x="0px" y="0px"
	 viewBox="0 0 20.492 21.893" style="enable-background:new 0 0 20.492 21.893;" xml:space="preserve">
<path d="M15.109,17.049c-0.018,0.447-0.383,0.803-0.821,0.821H4.854c-0.456,0-0.83-0.365-0.848-0.821
	c-0.009-0.228,0.073-0.447,0.228-0.611c0.155-0.164,0.365-0.265,0.593-0.274h9.452C14.753,16.182,15.127,16.574,15.109,17.049z"/>
<path d="M20.181,2.953L17.59,0.371c-0.401-0.411-1.068-0.401-1.469-0.009L7.016,9.467
	c-0.192,0.201-0.31,0.465-0.31,0.748v2.582c0,0.575,0.474,1.049,1.049,1.049h2.591c0.274,0,0.547-0.119,0.739-0.31l9.096-9.105
	c0.201-0.192,0.31-0.456,0.31-0.739C20.492,3.418,20.382,3.153,20.181,2.953z M18.658,3.673l-8.403,8.385l-1.752-1.761l8.403-8.385
	L18.658,3.673z"/>
<path d="M19.15,10.297V20.37c0,0.839-0.684,1.524-1.524,1.524H1.524C0.684,21.893,0,21.209,0,20.37V2.925
	c0-0.839,0.684-1.524,1.524-1.524h8.731c0.228,0.009,0.438,0.1,0.593,0.274c0.155,0.164,0.237,0.383,0.228,0.611
	c-0.018,0.438-0.374,0.803-0.821,0.821H1.706v17.079h15.738v-9.881c0.009-0.237,0.109-0.447,0.274-0.602
	c0.164-0.155,0.374-0.228,0.611-0.228C18.776,9.494,19.141,9.859,19.15,10.297z"/>
</svg>
