<?xml version="1.0" encoding="iso-8859-1"?>
<!-- Generator: Adobe Illustrator 25.3.1, SVG Export Plug-In . SVG Version: 6.00 Build 0)  -->
<svg version="1.1" id="Layer_1" xmlns="http://www.w3.org/2000/svg" xmlns:xlink="http://www.w3.org/1999/xlink" x="0px" y="0px"
	 viewBox="0 0 22.457 23.993" style="enable-background:new 0 0 22.457 23.993;" xml:space="preserve">
<path style="fill:#0F1633;" d="M16.56,18.68c-0.02,0.49-0.42,0.88-0.9,0.9H5.32c-0.5,0-0.91-0.4-0.93-0.9
	c-0.01-0.25,0.08-0.49,0.25-0.67c0.17-0.18,0.4-0.29,0.65-0.3h10.36C16.17,17.73,16.58,18.16,16.56,18.68z"/>
<path style="fill:#0F1633;" d="M22.12,3.23L19.28,0.4c-0.44-0.45-1.17-0.44-1.61-0.01l-9.98,9.98c-0.21,0.22-0.34,0.51-0.34,0.82
	v2.83c0,0.63,0.52,1.15,1.15,1.15h2.84c0.3,0,0.6-0.13,0.81-0.34l9.97-9.98c0.22-0.21,0.34-0.5,0.34-0.81
	C22.46,3.74,22.34,3.45,22.12,3.23z M20.45,4.02l-9.21,9.19l-1.92-1.93l9.21-9.19L20.45,4.02z"/>
<path style="fill:#0F1633;" d="M20.99,11.28v11.04c0,0.92-0.75,1.67-1.67,1.67H1.67C0.75,23.99,0,23.24,0,22.32V3.2
	c0-0.92,0.75-1.67,1.67-1.67h9.57c0.25,0.01,0.48,0.11,0.65,0.3c0.17,0.18,0.26,0.42,0.25,0.67c-0.02,0.48-0.41,0.88-0.9,0.9H1.87
	v18.72h17.25V11.29c0.01-0.26,0.12-0.49,0.3-0.66c0.18-0.17,0.41-0.25,0.67-0.25C20.58,10.4,20.98,10.8,20.99,11.28z"/>
</svg>
