<?xml version="1.0" encoding="iso-8859-1"?>
<!-- Generator: Adobe Illustrator 25.4.1, SVG Export Plug-In . SVG Version: 6.00 Build 0)  -->
<svg version="1.1" id="Layer_1" xmlns="http://www.w3.org/2000/svg" xmlns:xlink="http://www.w3.org/1999/xlink" x="0px" y="0px"
	 viewBox="0 0 21.082 18.798" style="enable-background:new 0 0 21.082 18.798;" xml:space="preserve">
<g id="noun_Download_6173" transform="translate(0.101 0.1)">
	<g id="Path_10143">
		<path style="fill:#BFCADD;" d="M18.582,13.744c-0.299,0.259-0.748,0.259-1.046-0.01c-0.339-0.279-0.379-0.777-0.1-1.126
			c1.226-1.226,1.904-2.85,1.904-4.585c0-1.734-0.668-3.359-1.894-4.585c-2.522-2.532-6.638-2.532-9.169-0.01
			C7.609,4.096,7.091,4.913,6.762,5.8l-0.21,0.579l-0.618-0.05c-0.139-0.01-0.249-0.02-0.359-0.02c0,0,0,0-0.01,0
			c-1.096-0.01-2.123,0.399-2.91,1.156S1.43,9.249,1.41,10.345c-0.03,2.252,1.774,4.116,4.027,4.156h0.13
			c0.219,0,0.419,0.08,0.568,0.229c0.16,0.159,0.239,0.359,0.239,0.568c0,0.449-0.359,0.807-0.807,0.807
			c-3.139-0.04-5.671-2.621-5.631-5.771c0.04-2.98,2.402-5.452,5.372-5.621h0.169l0.08-0.16C6.901,1.764,9.772-0.05,12.871-0.07
			h0.14c2.113,0.03,4.096,0.867,5.581,2.372C21.732,5.462,21.732,10.594,18.582,13.744z"/>
	</g>
	<g id="Path_10144">
		<path style="fill:#BFCADD;" d="M7.996,14.68c0-0.189,0.07-0.379,0.189-0.528c0.289-0.339,0.787-0.379,1.126-0.11l1.864,1.884
			v-8.91c0-0.219,0.09-0.419,0.239-0.568c0.15-0.15,0.359-0.239,0.568-0.239c0,0,0,0,0.01,0c0.209,0.01,0.409,0.09,0.568,0.249
			c0.149,0.15,0.229,0.349,0.229,0.568v8.9l1.854-1.864c0.309-0.259,0.748-0.259,1.056,0c0.16,0.14,0.259,0.339,0.279,0.548
			c0.02,0.219-0.05,0.419-0.189,0.578l-3.249,3.249c-0.03,0.03-0.06,0.06-0.11,0.09l-0.03,0.01c-0.03,0.02-0.05,0.03-0.08,0.05
			c-0.01,0.01-0.03,0.02-0.03,0.02l-0.06,0.01c-0.03,0.02-0.08,0.03-0.12,0.04l-0.04,0.01h-0.12l-0.1-0.02l-0.03,0.01
			c-0.03-0.01-0.07-0.03-0.11-0.04l-0.04-0.01c-0.01-0.01-0.03-0.01-0.04-0.02c-0.02-0.01-0.03-0.02-0.06-0.03l-0.04-0.03
			c-0.05-0.02-0.09-0.05-0.12-0.1l-3.229-3.229C8.066,15.049,7.996,14.86,7.996,14.68z"/>
	</g>
</g>
</svg>
