<?xml version="1.0" encoding="iso-8859-1"?>
<!-- Generator: Adobe Illustrator 25.4.1, SVG Export Plug-In . SVG Version: 6.00 Build 0)  -->
<svg version="1.1" id="Layer_1" xmlns="http://www.w3.org/2000/svg" xmlns:xlink="http://www.w3.org/1999/xlink" x="0px" y="0px"
	 viewBox="0 0 17.659 17.371" style="enable-background:new 0 0 17.659 17.371;" xml:space="preserve">
<path id="Path_9384" style="fill:#BFCADD;" d="M8.188,1.621c-1.432,1.434-1.969,3.535-1.4,5.48l-6.295,6.295
	c-0.108,0.108-0.175,0.249-0.191,0.4l-0.3,2.841c-0.038,0.366,0.227,0.694,0.593,0.732c0.061,0.006,0.122,0.004,0.182-0.006
	L4.53,16.72c0.294-0.053,0.517-0.296,0.545-0.594l0.108-1.177l1.178-0.108c0.318-0.03,0.57-0.282,0.6-0.6l0.108-1.177l1.178-0.108
	c0.155-0.012,0.3-0.078,0.412-0.186l1.9-1.9c2.941,0.856,6.019-0.835,6.875-3.776c0.856-2.941-0.835-6.019-3.776-6.875
	c-1.945-0.566-4.043-0.027-5.474,1.406L8.188,1.621z M9.13,2.563c1.647-1.648,4.318-1.649,5.967-0.002
	c1.648,1.647,1.649,4.318,0.002,5.967c-1.177,1.178-2.936,1.553-4.491,0.958c-0.246-0.092-0.523-0.03-0.707,0.157L7.89,11.654
	l-1.492,0.137c-0.318,0.03-0.57,0.282-0.6,0.6L5.69,13.569l-1.178,0.108c-0.318,0.03-0.57,0.282-0.6,0.6l-0.108,1.217l-2.389,0.407
	l0.182-1.722l6.42-6.425c0.187-0.186,0.247-0.465,0.152-0.711C7.576,5.489,7.953,3.733,9.13,2.559V2.563z M11.799,3.034
	c-0.782,0.78-0.783,2.047-0.002,2.828s2.047,0.783,2.828,0.002c0.782-0.78,0.783-2.047,0.002-2.828
	c-0.001-0.001-0.002-0.002-0.002-0.002C13.842,2.259,12.582,2.259,11.799,3.034z M12.741,3.976c0.26-0.26,0.682-0.26,0.942,0
	s0.26,0.682,0,0.942s-0.682,0.26-0.942,0c-0.017-0.025-0.16-0.12-0.183-0.396C12.549,4.405,12.526,4.182,12.741,3.976L12.741,3.976z
	"/>
</svg>
