<?xml version="1.0" encoding="iso-8859-1"?>
<!-- Generator: Adobe Illustrator 25.4.1, SVG Export Plug-In . SVG Version: 6.00 Build 0)  -->
<svg version="1.1" id="Layer_1" xmlns="http://www.w3.org/2000/svg" xmlns:xlink="http://www.w3.org/1999/xlink" x="0px" y="0px"
	 viewBox="0 0 17.059 16.78" style="enable-background:new 0 0 17.059 16.78;" xml:space="preserve">
<path id="Path_9384" style="fill:#BCBCBC;" d="M7.909,1.566C6.526,2.952,6.008,4.981,6.558,6.86l-6.081,6.081
	c-0.104,0.103-0.169,0.239-0.185,0.384l-0.289,2.744c-0.036,0.354,0.222,0.67,0.576,0.706c0.058,0.006,0.116,0.004,0.173-0.006
	l3.626-0.621c0.284-0.052,0.499-0.286,0.526-0.574l0.1-1.138l1.137-0.1c0.306-0.03,0.548-0.272,0.578-0.578l0.1-1.137l1.137-0.1
	c0.15-0.011,0.292-0.075,0.4-0.18l1.839-1.839c2.841,0.828,5.815-0.805,6.643-3.646c0.828-2.841-0.805-5.815-3.646-6.643
	c-1.88-0.547-3.908-0.026-5.291,1.359L7.909,1.566z M8.819,2.476c1.591-1.592,4.171-1.592,5.763-0.002
	c1.592,1.591,1.592,4.171,0.002,5.763c-1.137,1.137-2.836,1.5-4.337,0.926c-0.237-0.088-0.504-0.029-0.682,0.152l-1.944,1.94
	l-1.441,0.133c-0.306,0.03-0.548,0.272-0.578,0.578l-0.1,1.137l-1.137,0.1c-0.306,0.03-0.548,0.272-0.578,0.578l-0.1,1.175
	l-2.319,0.399l0.175-1.664l6.2-6.2c0.181-0.18,0.238-0.449,0.147-0.687C7.317,5.303,7.681,3.606,8.818,2.472L8.819,2.476z
	 M11.397,2.931c-0.754,0.754-0.753,1.976,0.001,2.729c0.754,0.754,1.976,0.753,2.729-0.001c0.753-0.754,0.753-1.975,0-2.729
	C13.371,2.183,12.154,2.183,11.397,2.931L11.397,2.931z M12.307,3.841c0.251-0.252,0.659-0.252,0.911-0.001s0.252,0.659,0.001,0.911
	s-0.659,0.252-0.911,0.001c0,0-0.001-0.001-0.001-0.001c-0.251-0.244-0.257-0.645-0.013-0.896
	C12.299,3.85,12.303,3.845,12.307,3.841L12.307,3.841z"/>
</svg>
