<?xml version="1.0" encoding="iso-8859-1"?>
<!-- Generator: Adobe Illustrator 25.4.1, SVG Export Plug-In . SVG Version: 6.00 Build 0)  -->
<svg version="1.1" id="Layer_1" xmlns="http://www.w3.org/2000/svg" xmlns:xlink="http://www.w3.org/1999/xlink" x="0px" y="0px"
	 viewBox="0 0 23.49 14.753" style="enable-background:new 0 0 23.49 14.753;" xml:space="preserve">
<path style="fill:#728BAF;" d="M20.55,4.45l-0.02-0.03l0.01-0.12l0.02-0.01l0.77-0.77c0.17-0.16,0.27-0.36,0.28-0.58
	c0.02-0.22-0.06-0.44-0.21-0.61c-0.14-0.16-0.35-0.26-0.57-0.27c-0.22-0.02-0.44,0.06-0.6,0.21c-0.03,0.02-0.05,0.04-0.07,0.06
	l-0.82,0.82l-0.05-0.04C14.44-1.06,7.11-0.5,2.95,4.34c-1.82,2.11-2.81,4.81-2.8,7.59c0,0.45,0.37,0.82,0.83,0.82
	c0.45,0,0.82-0.37,0.82-0.82c0-2.66,1.03-5.16,2.91-7.03c1.88-1.88,4.38-2.92,7.03-2.92c2.32,0,4.58,0.82,6.36,2.3l0.07,0.05
	l-0.06,0.06l-5.2,5.2l-0.05-0.02c-0.31-0.14-0.65-0.22-1-0.22h-0.11c-1.45,0-2.63,1.18-2.63,2.63s1.18,2.62,2.63,2.62
	c1.44,0,2.62-1.17,2.62-2.62c0-0.39-0.09-0.77-0.26-1.12l-0.03-0.05l0.04-0.03l5.22-5.22l0.05,0.06c1.49,1.78,2.3,4.04,2.3,6.36
	c0,0.22,0.09,0.43,0.24,0.58c0.16,0.16,0.36,0.24,0.58,0.24c0,0,0,0,0.01,0c0.45,0,0.82-0.37,0.82-0.82
	C23.34,9.22,22.35,6.54,20.55,4.45z M12.44,12.62c-0.1,0.09-0.2,0.16-0.31,0.21h-0.02c-0.04,0.01-0.09,0.01-0.13,0.01
	c-0.08,0.02-0.16,0.03-0.23,0.03c-0.08,0-0.16-0.01-0.24-0.03c-0.04,0-0.09,0-0.13-0.01c-0.13-0.06-0.23-0.12-0.32-0.2
	c-0.1-0.1-0.16-0.21-0.21-0.32c-0.02-0.06-0.02-0.1-0.01-0.15c-0.05-0.15-0.05-0.31,0-0.47c-0.01-0.04-0.01-0.09,0-0.13
	c0.06-0.12,0.12-0.23,0.21-0.32c0.19-0.19,0.43-0.28,0.69-0.29c0.54,0.01,0.97,0.45,0.98,0.98C12.72,12.19,12.62,12.43,12.44,12.62z
	"/>
</svg>
