<?xml version="1.0" encoding="iso-8859-1"?>
<!-- Generator: Adobe Illustrator 25.4.1, SVG Export Plug-In . SVG Version: 6.00 Build 0)  -->
<svg version="1.1" id="Layer_1" xmlns="http://www.w3.org/2000/svg" xmlns:xlink="http://www.w3.org/1999/xlink" x="0px" y="0px"
	 viewBox="0 0 17.59 17.59" style="enable-background:new 0 0 17.59 17.59;" xml:space="preserve">
<path id="Path_10128" style="fill:#BCBCBC;" d="M16.91,0H5.89C5.71,0,5.537,0.072,5.41,0.2L0.2,5.45C0.072,5.577,0,5.75,0,5.93
	v10.98c0.004,0.374,0.306,0.676,0.68,0.68h16.23c0.374-0.004,0.676-0.306,0.68-0.68V0.68C17.586,0.306,17.284,0.004,16.91,0z
	 M16.23,16.23H1.36V6.22L6.2,1.36h10.03V16.23z"/>
<path id="Path_10132" style="fill:#BCBCBC;" d="M13.99,10.02H3.62c-0.326-0.022-0.608,0.224-0.63,0.55v3.6
	c0.027,0.302,0.277,0.534,0.58,0.54h10.38c0.319,0.007,0.589-0.233,0.62-0.55v-3.6C14.54,10.26,14.292,10.029,13.99,10.02z
	 M4.23,13.61v-2.49h9.1v2.49H4.23z"/>
<path id="Path_10138" style="fill:#BCBCBC;" d="M14.51,3.88v1.71c0,0.147-0.066,0.286-0.18,0.38c-0.123,0.097-0.274,0.149-0.43,0.15
	h-0.06c-0.302-0.003-0.555-0.23-0.59-0.53v-1.7c0.029-0.171,0.127-0.323,0.27-0.42c0.293-0.199,0.691-0.123,0.89,0.17
	C14.46,3.712,14.494,3.794,14.51,3.88z"/>
<path id="Path_10139" style="fill:#BCBCBC;" d="M11.51,3.88v1.71c0,0.147-0.066,0.286-0.18,0.38c-0.123,0.097-0.274,0.149-0.43,0.15
	h-0.06c-0.302-0.003-0.555-0.23-0.59-0.53v-1.7c0.029-0.171,0.127-0.323,0.27-0.42c0.293-0.199,0.691-0.123,0.89,0.17
	C11.46,3.712,11.494,3.794,11.51,3.88z"/>
<path id="Path_10140" style="fill:#BCBCBC;" d="M8.51,3.88v1.71c0,0.147-0.066,0.286-0.18,0.38C8.207,6.067,8.056,6.119,7.9,6.12
	H7.84C7.538,6.117,7.285,5.89,7.25,5.59v-1.7c0.029-0.171,0.127-0.323,0.27-0.42c0.293-0.199,0.691-0.123,0.89,0.17
	C8.46,3.712,8.494,3.794,8.51,3.88z"/>
</svg>
