<?xml version="1.0" encoding="iso-8859-1"?>
<!-- Generator: Adobe Illustrator 25.4.1, SVG Export Plug-In . SVG Version: 6.00 Build 0)  -->
<svg version="1.1" id="Group_6402" xmlns="http://www.w3.org/2000/svg" xmlns:xlink="http://www.w3.org/1999/xlink" x="0px" y="0px"
	 viewBox="0 0 18.63 20.963" style="enable-background:new 0 0 18.63 20.963;" xml:space="preserve">
<path id="Path_9393" style="fill:#728BAF;" d="M8.285,16.4c0.346,2.846,2.935,4.873,5.781,4.527c2.37-0.288,4.239-2.156,4.527-4.527
	c0.062-0.432,0.053-0.871-0.026-1.3c-0.346-2.846-2.935-4.873-5.781-4.527c-2.37,0.288-4.239,2.156-4.527,4.527
	C8.172,15.53,8.181,15.974,8.285,16.4z M13.426,11.833c2.162,0,3.914,1.752,3.914,3.914s-1.752,3.914-3.914,3.914
	s-3.914-1.752-3.914-3.914l0,0c-0.004-2.159,1.742-3.913,3.901-3.917c0.004,0,0.009,0,0.013,0L13.426,11.833z"/>
<path id="Path_9394" style="fill:#728BAF;" d="M15.926,14.713l-0.827-0.854l-2.11,2.11l-1.26-1.256l-0.83,0.83l2.087,2.087
	L15.926,14.713z"/>
<path id="Path_9397" style="fill:#728BAF;" d="M10.548,11.79L8.475,8.529c-0.055-0.09-0.055-0.202,0-0.292l2.811-4.428
	c0.157-0.25,0.239-0.539,0.237-0.834v-1.7h0.5V0H0v1.276h0.5v1.7C0.498,3.271,0.58,3.56,0.737,3.81l2.816,4.428
	c0.055,0.09,0.055,0.202,0,0.292l-2.811,4.428c-0.157,0.25-0.239,0.539-0.237,0.834v1.7H0v1.276h8.643
	C8.643,16.768,10.676,12.256,10.548,11.79z M8.608,15.49H1.777v-1.7c-0.002-0.051,0.01-0.102,0.036-0.146l2.816-4.428
	c0.321-0.508,0.321-1.155,0-1.663L1.823,3.125C1.798,3.081,1.785,3.03,1.787,2.979v-1.7h8.474v1.7
	c0.002,0.051-0.01,0.102-0.036,0.146L7.409,7.553c-0.321,0.508-0.321,1.155,0,1.663l2.209,3.48L8.608,15.49z"/>
</svg>
