<?xml version="1.0" encoding="iso-8859-1"?>
<!-- Generator: Adobe Illustrator 25.4.1, SVG Export Plug-In . SVG Version: 6.00 Build 0)  -->
<svg version="1.1" id="Layer_1" xmlns="http://www.w3.org/2000/svg" xmlns:xlink="http://www.w3.org/1999/xlink" x="0px" y="0px"
	 viewBox="0 0 19.265 19.265" style="enable-background:new 0 0 19.265 19.265;" xml:space="preserve">
<path id="Path_9390" d="M9.632,0C4.312,0,0,4.312,0,9.632s4.312,9.632,9.632,9.632s9.632-4.312,9.632-9.632
	C19.258,4.315,14.949,0.006,9.632,0z M9.632,17.944c-4.591-0.002-8.311-3.724-8.309-8.315S5.047,1.318,9.638,1.32
	c4.589,0.002,8.309,3.723,8.309,8.312c-0.003,4.591-3.724,8.312-8.315,8.315V17.944z"/>
<path id="Path_9391" d="M9.813,10.18c1.651,0.003,2.991-1.333,2.994-2.984
	c0.003-1.651-1.333-2.991-2.984-2.994C8.172,4.199,6.832,5.535,6.829,7.186c0,0.002,0,0.003,0,0.005
	C6.831,8.839,8.165,10.176,9.813,10.18z M9.813,5.522c0.922-0.001,1.669,0.746,1.67,1.668c0.001,0.922-0.746,1.669-1.668,1.67
	c-0.922,0.001-1.669-0.746-1.67-1.668c0,0,0-0.001,0-0.001c0.001-0.921,0.747-1.668,1.668-1.67V5.522z"/>
<path id="Path_9392" d="M15.518,12.712c-0.507-1.496-1.902-2.511-3.482-2.532
	c-0.156-0.01-0.311,0.036-0.436,0.129c-1.057,0.803-2.52,0.803-3.577,0c-0.125-0.093-0.279-0.138-0.435-0.128
	c-1.59,0.023-2.991,1.05-3.49,2.56c-0.13,0.341,0.041,0.722,0.382,0.853c0.341,0.13,0.722-0.041,0.852-0.382
	c0.286-0.95,1.129-1.624,2.119-1.692c1.431,0.95,3.292,0.95,4.723,0c0.981,0.067,1.82,0.73,2.111,1.67
	c0.132,0.34,0.515,0.508,0.854,0.376s0.508-0.515,0.376-0.854l0,0L15.518,12.712z"/>
</svg>
