<?xml version="1.0" encoding="iso-8859-1"?>
<!-- Generator: Adobe Illustrator 25.4.1, SVG Export Plug-In . SVG Version: 6.00 Build 0)  -->
<svg version="1.1" id="Layer_1" xmlns="http://www.w3.org/2000/svg" xmlns:xlink="http://www.w3.org/1999/xlink" x="0px" y="0px"
	 viewBox="0 0 17 16" style="enable-background:new 0 0 17 16;" xml:space="preserve">
<path style="fill:#728BAF;" d="M16,16h-3c-0.552,0-1-0.448-1-1V1c0-0.551,0.448-1,1-1h3c0.552,0,1,0.449,1,1v14
	C17,15.552,16.552,16,16,16z M13,1v14h3V1H13z M13,0.5L12.999,1H13V0.5z"/>
<path style="fill:#728BAF;" d="M10,16H7c-0.551,0-1-0.448-1-1V1c0-0.551,0.449-1,1-1h3c0.552,0,1,0.449,1,1v14
	C11,15.552,10.552,16,10,16z M7,1v14h3V1H7z M7,0.5L6.999,1C7,1,7,1,7,1V0.5z"/>
<path style="fill:#728BAF;" d="M4,16H1c-0.551,0-1-0.448-1-1V1c0-0.551,0.449-1,1-1h3c0.551,0,1,0.449,1,1v14
	C5,15.552,4.551,16,4,16z M1,1v14h3V1H1z M1,0.5L0.999,1C1,1,1,1,1,1V0.5z"/>
</svg>
